G04 EAGLE Gerber RS-274X export*
G75*
%MOMM*%
%FSLAX34Y34*%
%LPD*%
%INSilkscreen Top*%
%IPPOS*%
%AMOC8*
5,1,8,0,0,1.08239X$1,22.5*%
G01*
%ADD10C,0.152400*%
%ADD11R,0.508000X2.540000*%
%ADD12R,1.905000X0.762000*%
%ADD13C,0.127000*%
%ADD14R,0.381000X0.508000*%
%ADD15C,0.101600*%


D10*
X782320Y584200D02*
X741680Y584200D01*
X782320Y584200D02*
X782320Y609600D01*
X741680Y609600D01*
X741680Y584200D01*
X755650Y596900D02*
X762000Y596900D01*
X772160Y603250D02*
X772160Y590550D01*
X762000Y596900D01*
X777240Y596900D01*
X772160Y603250D02*
X762000Y596900D01*
X762000Y603250D01*
X762000Y596900D02*
X762000Y590550D01*
D11*
X748030Y596900D03*
D12*
X791845Y596900D03*
X732155Y596900D03*
D13*
X742315Y614045D02*
X742315Y625475D01*
X745490Y625475D01*
X745601Y625473D01*
X745711Y625467D01*
X745822Y625458D01*
X745932Y625444D01*
X746041Y625427D01*
X746150Y625406D01*
X746258Y625381D01*
X746365Y625352D01*
X746471Y625320D01*
X746576Y625284D01*
X746679Y625244D01*
X746781Y625201D01*
X746882Y625154D01*
X746981Y625103D01*
X747078Y625050D01*
X747172Y624993D01*
X747265Y624932D01*
X747356Y624869D01*
X747445Y624802D01*
X747531Y624732D01*
X747614Y624659D01*
X747696Y624584D01*
X747774Y624506D01*
X747849Y624424D01*
X747922Y624341D01*
X747992Y624255D01*
X748059Y624166D01*
X748122Y624075D01*
X748183Y623982D01*
X748240Y623888D01*
X748293Y623791D01*
X748344Y623692D01*
X748391Y623591D01*
X748434Y623489D01*
X748474Y623386D01*
X748510Y623281D01*
X748542Y623175D01*
X748571Y623068D01*
X748596Y622960D01*
X748617Y622851D01*
X748634Y622742D01*
X748648Y622632D01*
X748657Y622521D01*
X748663Y622411D01*
X748665Y622300D01*
X748665Y617220D01*
X748663Y617109D01*
X748657Y616999D01*
X748648Y616888D01*
X748634Y616778D01*
X748617Y616669D01*
X748596Y616560D01*
X748571Y616452D01*
X748542Y616345D01*
X748510Y616239D01*
X748474Y616134D01*
X748434Y616031D01*
X748391Y615929D01*
X748344Y615828D01*
X748293Y615729D01*
X748240Y615633D01*
X748183Y615538D01*
X748122Y615445D01*
X748059Y615354D01*
X747992Y615265D01*
X747922Y615179D01*
X747849Y615096D01*
X747774Y615014D01*
X747696Y614936D01*
X747614Y614861D01*
X747531Y614788D01*
X747445Y614718D01*
X747356Y614651D01*
X747265Y614588D01*
X747172Y614527D01*
X747078Y614470D01*
X746981Y614417D01*
X746882Y614366D01*
X746781Y614319D01*
X746679Y614276D01*
X746576Y614236D01*
X746471Y614200D01*
X746365Y614168D01*
X746258Y614139D01*
X746150Y614114D01*
X746041Y614093D01*
X745932Y614076D01*
X745822Y614062D01*
X745711Y614053D01*
X745601Y614047D01*
X745490Y614045D01*
X742315Y614045D01*
X757619Y625476D02*
X757723Y625474D01*
X757828Y625468D01*
X757932Y625459D01*
X758035Y625446D01*
X758138Y625428D01*
X758240Y625408D01*
X758342Y625383D01*
X758442Y625355D01*
X758542Y625323D01*
X758640Y625287D01*
X758737Y625248D01*
X758832Y625206D01*
X758926Y625160D01*
X759018Y625110D01*
X759108Y625058D01*
X759196Y625002D01*
X759282Y624942D01*
X759366Y624880D01*
X759447Y624815D01*
X759526Y624747D01*
X759603Y624675D01*
X759676Y624602D01*
X759748Y624525D01*
X759816Y624446D01*
X759881Y624365D01*
X759943Y624281D01*
X760003Y624195D01*
X760059Y624107D01*
X760111Y624017D01*
X760161Y623925D01*
X760207Y623831D01*
X760249Y623736D01*
X760288Y623639D01*
X760324Y623541D01*
X760356Y623441D01*
X760384Y623341D01*
X760409Y623239D01*
X760429Y623137D01*
X760447Y623034D01*
X760460Y622931D01*
X760469Y622827D01*
X760475Y622722D01*
X760477Y622618D01*
X757619Y625475D02*
X757501Y625473D01*
X757382Y625467D01*
X757264Y625458D01*
X757147Y625445D01*
X757030Y625427D01*
X756913Y625407D01*
X756797Y625382D01*
X756682Y625354D01*
X756569Y625321D01*
X756456Y625286D01*
X756344Y625246D01*
X756234Y625204D01*
X756125Y625157D01*
X756017Y625107D01*
X755912Y625054D01*
X755808Y624997D01*
X755706Y624937D01*
X755606Y624874D01*
X755508Y624807D01*
X755412Y624738D01*
X755319Y624665D01*
X755228Y624589D01*
X755139Y624511D01*
X755053Y624429D01*
X754970Y624345D01*
X754889Y624259D01*
X754812Y624169D01*
X754737Y624078D01*
X754665Y623984D01*
X754596Y623887D01*
X754531Y623789D01*
X754468Y623688D01*
X754409Y623585D01*
X754353Y623481D01*
X754301Y623375D01*
X754252Y623267D01*
X754207Y623158D01*
X754165Y623047D01*
X754127Y622935D01*
X759524Y620396D02*
X759600Y620471D01*
X759675Y620550D01*
X759746Y620631D01*
X759815Y620715D01*
X759880Y620801D01*
X759942Y620889D01*
X760002Y620979D01*
X760058Y621071D01*
X760111Y621166D01*
X760160Y621262D01*
X760206Y621360D01*
X760249Y621459D01*
X760288Y621560D01*
X760323Y621662D01*
X760355Y621765D01*
X760383Y621869D01*
X760408Y621974D01*
X760429Y622081D01*
X760446Y622187D01*
X760459Y622294D01*
X760468Y622402D01*
X760474Y622510D01*
X760476Y622618D01*
X759524Y620395D02*
X754126Y614045D01*
X760476Y614045D01*
D10*
X704850Y558800D02*
X692150Y558800D01*
X704850Y558800D02*
X711200Y552450D01*
X711200Y539750D01*
X704850Y533400D01*
X685800Y539750D02*
X685800Y552450D01*
X692150Y558800D01*
X685800Y539750D02*
X692150Y533400D01*
X704850Y533400D01*
D13*
X689483Y567563D02*
X689483Y576453D01*
X689483Y567563D02*
X689481Y567463D01*
X689475Y567364D01*
X689465Y567264D01*
X689452Y567166D01*
X689434Y567067D01*
X689413Y566970D01*
X689388Y566874D01*
X689359Y566778D01*
X689326Y566684D01*
X689290Y566591D01*
X689250Y566500D01*
X689206Y566410D01*
X689159Y566322D01*
X689109Y566236D01*
X689055Y566152D01*
X688998Y566070D01*
X688938Y565991D01*
X688874Y565913D01*
X688808Y565839D01*
X688739Y565767D01*
X688667Y565698D01*
X688593Y565632D01*
X688515Y565568D01*
X688436Y565508D01*
X688354Y565451D01*
X688270Y565397D01*
X688184Y565347D01*
X688096Y565300D01*
X688006Y565256D01*
X687915Y565216D01*
X687822Y565180D01*
X687728Y565147D01*
X687632Y565118D01*
X687536Y565093D01*
X687439Y565072D01*
X687340Y565054D01*
X687242Y565041D01*
X687142Y565031D01*
X687043Y565025D01*
X686943Y565023D01*
X685673Y565023D01*
X695463Y565023D02*
X695463Y576453D01*
X698638Y576453D01*
X698749Y576451D01*
X698859Y576445D01*
X698970Y576436D01*
X699080Y576422D01*
X699189Y576405D01*
X699298Y576384D01*
X699406Y576359D01*
X699513Y576330D01*
X699619Y576298D01*
X699724Y576262D01*
X699827Y576222D01*
X699929Y576179D01*
X700030Y576132D01*
X700129Y576081D01*
X700226Y576028D01*
X700320Y575971D01*
X700413Y575910D01*
X700504Y575847D01*
X700593Y575780D01*
X700679Y575710D01*
X700762Y575637D01*
X700844Y575562D01*
X700922Y575484D01*
X700997Y575402D01*
X701070Y575319D01*
X701140Y575233D01*
X701207Y575144D01*
X701270Y575053D01*
X701331Y574960D01*
X701388Y574865D01*
X701441Y574769D01*
X701492Y574670D01*
X701539Y574569D01*
X701582Y574467D01*
X701622Y574364D01*
X701658Y574259D01*
X701690Y574153D01*
X701719Y574046D01*
X701744Y573938D01*
X701765Y573829D01*
X701782Y573720D01*
X701796Y573610D01*
X701805Y573499D01*
X701811Y573389D01*
X701813Y573278D01*
X701811Y573167D01*
X701805Y573057D01*
X701796Y572946D01*
X701782Y572836D01*
X701765Y572727D01*
X701744Y572618D01*
X701719Y572510D01*
X701690Y572403D01*
X701658Y572297D01*
X701622Y572192D01*
X701582Y572089D01*
X701539Y571987D01*
X701492Y571886D01*
X701441Y571787D01*
X701388Y571691D01*
X701331Y571596D01*
X701270Y571503D01*
X701207Y571412D01*
X701140Y571323D01*
X701070Y571237D01*
X700997Y571154D01*
X700922Y571072D01*
X700844Y570994D01*
X700762Y570919D01*
X700679Y570846D01*
X700593Y570776D01*
X700504Y570709D01*
X700413Y570646D01*
X700320Y570585D01*
X700226Y570528D01*
X700129Y570475D01*
X700030Y570424D01*
X699929Y570377D01*
X699827Y570334D01*
X699724Y570294D01*
X699619Y570258D01*
X699513Y570226D01*
X699406Y570197D01*
X699298Y570172D01*
X699189Y570151D01*
X699080Y570134D01*
X698970Y570120D01*
X698859Y570111D01*
X698749Y570105D01*
X698638Y570103D01*
X695463Y570103D01*
X706322Y573913D02*
X709497Y576453D01*
X709497Y565023D01*
X706322Y565023D02*
X712672Y565023D01*
D10*
X704850Y431800D02*
X692150Y431800D01*
X704850Y431800D02*
X711200Y425450D01*
X711200Y412750D01*
X704850Y406400D01*
X685800Y412750D02*
X685800Y425450D01*
X692150Y431800D01*
X685800Y412750D02*
X692150Y406400D01*
X704850Y406400D01*
D13*
X689483Y440563D02*
X689483Y449453D01*
X689483Y440563D02*
X689481Y440463D01*
X689475Y440364D01*
X689465Y440264D01*
X689452Y440166D01*
X689434Y440067D01*
X689413Y439970D01*
X689388Y439874D01*
X689359Y439778D01*
X689326Y439684D01*
X689290Y439591D01*
X689250Y439500D01*
X689206Y439410D01*
X689159Y439322D01*
X689109Y439236D01*
X689055Y439152D01*
X688998Y439070D01*
X688938Y438991D01*
X688874Y438913D01*
X688808Y438839D01*
X688739Y438767D01*
X688667Y438698D01*
X688593Y438632D01*
X688515Y438568D01*
X688436Y438508D01*
X688354Y438451D01*
X688270Y438397D01*
X688184Y438347D01*
X688096Y438300D01*
X688006Y438256D01*
X687915Y438216D01*
X687822Y438180D01*
X687728Y438147D01*
X687632Y438118D01*
X687536Y438093D01*
X687439Y438072D01*
X687340Y438054D01*
X687242Y438041D01*
X687142Y438031D01*
X687043Y438025D01*
X686943Y438023D01*
X685673Y438023D01*
X695463Y438023D02*
X695463Y449453D01*
X698638Y449453D01*
X698749Y449451D01*
X698859Y449445D01*
X698970Y449436D01*
X699080Y449422D01*
X699189Y449405D01*
X699298Y449384D01*
X699406Y449359D01*
X699513Y449330D01*
X699619Y449298D01*
X699724Y449262D01*
X699827Y449222D01*
X699929Y449179D01*
X700030Y449132D01*
X700129Y449081D01*
X700226Y449028D01*
X700320Y448971D01*
X700413Y448910D01*
X700504Y448847D01*
X700593Y448780D01*
X700679Y448710D01*
X700762Y448637D01*
X700844Y448562D01*
X700922Y448484D01*
X700997Y448402D01*
X701070Y448319D01*
X701140Y448233D01*
X701207Y448144D01*
X701270Y448053D01*
X701331Y447960D01*
X701388Y447865D01*
X701441Y447769D01*
X701492Y447670D01*
X701539Y447569D01*
X701582Y447467D01*
X701622Y447364D01*
X701658Y447259D01*
X701690Y447153D01*
X701719Y447046D01*
X701744Y446938D01*
X701765Y446829D01*
X701782Y446720D01*
X701796Y446610D01*
X701805Y446499D01*
X701811Y446389D01*
X701813Y446278D01*
X701811Y446167D01*
X701805Y446057D01*
X701796Y445946D01*
X701782Y445836D01*
X701765Y445727D01*
X701744Y445618D01*
X701719Y445510D01*
X701690Y445403D01*
X701658Y445297D01*
X701622Y445192D01*
X701582Y445089D01*
X701539Y444987D01*
X701492Y444886D01*
X701441Y444787D01*
X701388Y444690D01*
X701331Y444596D01*
X701270Y444503D01*
X701207Y444412D01*
X701140Y444323D01*
X701070Y444237D01*
X700997Y444154D01*
X700922Y444072D01*
X700844Y443994D01*
X700762Y443919D01*
X700679Y443846D01*
X700593Y443776D01*
X700504Y443709D01*
X700413Y443646D01*
X700320Y443585D01*
X700226Y443528D01*
X700129Y443475D01*
X700030Y443424D01*
X699929Y443377D01*
X699827Y443334D01*
X699724Y443294D01*
X699619Y443258D01*
X699513Y443226D01*
X699406Y443197D01*
X699298Y443172D01*
X699189Y443151D01*
X699080Y443134D01*
X698970Y443120D01*
X698859Y443111D01*
X698749Y443105D01*
X698638Y443103D01*
X695463Y443103D01*
X706322Y446913D02*
X709497Y449453D01*
X709497Y438023D01*
X706322Y438023D02*
X712672Y438023D01*
X717752Y443738D02*
X717755Y443963D01*
X717763Y444188D01*
X717776Y444412D01*
X717795Y444636D01*
X717819Y444860D01*
X717848Y445083D01*
X717883Y445305D01*
X717923Y445526D01*
X717969Y445746D01*
X718019Y445965D01*
X718075Y446183D01*
X718136Y446400D01*
X718202Y446615D01*
X718273Y446828D01*
X718350Y447039D01*
X718431Y447249D01*
X718517Y447457D01*
X718608Y447662D01*
X718704Y447865D01*
X718704Y447866D02*
X718736Y447954D01*
X718772Y448041D01*
X718811Y448127D01*
X718854Y448211D01*
X718900Y448293D01*
X718949Y448373D01*
X719001Y448451D01*
X719057Y448527D01*
X719115Y448601D01*
X719177Y448672D01*
X719241Y448741D01*
X719308Y448807D01*
X719377Y448870D01*
X719449Y448931D01*
X719523Y448989D01*
X719600Y449043D01*
X719678Y449095D01*
X719759Y449143D01*
X719841Y449188D01*
X719926Y449230D01*
X720012Y449268D01*
X720099Y449303D01*
X720187Y449335D01*
X720277Y449362D01*
X720368Y449387D01*
X720460Y449407D01*
X720552Y449424D01*
X720646Y449437D01*
X720739Y449446D01*
X720833Y449452D01*
X720927Y449454D01*
X721021Y449452D01*
X721115Y449446D01*
X721208Y449437D01*
X721302Y449424D01*
X721394Y449407D01*
X721486Y449387D01*
X721577Y449362D01*
X721667Y449335D01*
X721755Y449303D01*
X721842Y449268D01*
X721928Y449230D01*
X722013Y449188D01*
X722095Y449143D01*
X722176Y449095D01*
X722254Y449043D01*
X722331Y448989D01*
X722405Y448931D01*
X722477Y448870D01*
X722546Y448807D01*
X722613Y448741D01*
X722677Y448672D01*
X722739Y448601D01*
X722797Y448527D01*
X722853Y448451D01*
X722905Y448373D01*
X722954Y448293D01*
X723000Y448211D01*
X723043Y448127D01*
X723082Y448041D01*
X723118Y447954D01*
X723150Y447866D01*
X723150Y447865D02*
X723246Y447662D01*
X723337Y447457D01*
X723423Y447249D01*
X723504Y447039D01*
X723581Y446828D01*
X723652Y446615D01*
X723718Y446400D01*
X723779Y446183D01*
X723835Y445965D01*
X723885Y445746D01*
X723931Y445526D01*
X723971Y445305D01*
X724006Y445083D01*
X724035Y444860D01*
X724059Y444636D01*
X724078Y444412D01*
X724091Y444188D01*
X724099Y443963D01*
X724102Y443738D01*
X717752Y443738D02*
X717755Y443513D01*
X717763Y443288D01*
X717776Y443064D01*
X717795Y442840D01*
X717819Y442616D01*
X717848Y442393D01*
X717883Y442171D01*
X717923Y441950D01*
X717969Y441730D01*
X718019Y441511D01*
X718075Y441293D01*
X718136Y441076D01*
X718202Y440861D01*
X718273Y440648D01*
X718350Y440437D01*
X718431Y440227D01*
X718517Y440019D01*
X718608Y439814D01*
X718704Y439611D01*
X718736Y439523D01*
X718772Y439436D01*
X718811Y439350D01*
X718854Y439266D01*
X718900Y439184D01*
X718949Y439104D01*
X719001Y439026D01*
X719057Y438950D01*
X719115Y438876D01*
X719177Y438805D01*
X719241Y438736D01*
X719308Y438670D01*
X719377Y438607D01*
X719449Y438546D01*
X719523Y438488D01*
X719600Y438434D01*
X719678Y438382D01*
X719759Y438334D01*
X719841Y438289D01*
X719926Y438247D01*
X720012Y438209D01*
X720099Y438174D01*
X720187Y438142D01*
X720277Y438115D01*
X720368Y438090D01*
X720460Y438070D01*
X720552Y438053D01*
X720646Y438040D01*
X720739Y438031D01*
X720833Y438025D01*
X720927Y438023D01*
X723150Y439611D02*
X723246Y439814D01*
X723337Y440019D01*
X723423Y440227D01*
X723504Y440437D01*
X723581Y440648D01*
X723652Y440861D01*
X723718Y441076D01*
X723779Y441293D01*
X723835Y441511D01*
X723885Y441730D01*
X723931Y441950D01*
X723971Y442171D01*
X724006Y442393D01*
X724035Y442616D01*
X724059Y442840D01*
X724078Y443064D01*
X724091Y443288D01*
X724099Y443513D01*
X724102Y443738D01*
X723150Y439611D02*
X723118Y439523D01*
X723082Y439436D01*
X723043Y439350D01*
X723000Y439266D01*
X722954Y439184D01*
X722905Y439104D01*
X722853Y439026D01*
X722797Y438950D01*
X722739Y438876D01*
X722677Y438805D01*
X722613Y438736D01*
X722546Y438670D01*
X722477Y438607D01*
X722405Y438546D01*
X722331Y438488D01*
X722254Y438434D01*
X722176Y438382D01*
X722095Y438334D01*
X722013Y438289D01*
X721928Y438247D01*
X721842Y438209D01*
X721755Y438174D01*
X721667Y438142D01*
X721577Y438115D01*
X721486Y438090D01*
X721394Y438070D01*
X721302Y438053D01*
X721208Y438040D01*
X721115Y438031D01*
X721021Y438025D01*
X720927Y438023D01*
X718387Y440563D02*
X723467Y446913D01*
D10*
X717550Y431800D02*
X730250Y431800D01*
X736600Y425450D01*
X736600Y412750D01*
X730250Y406400D01*
X711200Y412750D02*
X711200Y425450D01*
X717550Y431800D01*
X711200Y412750D02*
X717550Y406400D01*
X730250Y406400D01*
D13*
X714883Y440563D02*
X714883Y449453D01*
X714883Y440563D02*
X714881Y440463D01*
X714875Y440364D01*
X714865Y440264D01*
X714852Y440166D01*
X714834Y440067D01*
X714813Y439970D01*
X714788Y439874D01*
X714759Y439778D01*
X714726Y439684D01*
X714690Y439591D01*
X714650Y439500D01*
X714606Y439410D01*
X714559Y439322D01*
X714509Y439236D01*
X714455Y439152D01*
X714398Y439070D01*
X714338Y438991D01*
X714274Y438913D01*
X714208Y438839D01*
X714139Y438767D01*
X714067Y438698D01*
X713993Y438632D01*
X713915Y438568D01*
X713836Y438508D01*
X713754Y438451D01*
X713670Y438397D01*
X713584Y438347D01*
X713496Y438300D01*
X713406Y438256D01*
X713315Y438216D01*
X713222Y438180D01*
X713128Y438147D01*
X713032Y438118D01*
X712936Y438093D01*
X712839Y438072D01*
X712740Y438054D01*
X712642Y438041D01*
X712542Y438031D01*
X712443Y438025D01*
X712343Y438023D01*
X711073Y438023D01*
X720863Y438023D02*
X720863Y449453D01*
X724038Y449453D01*
X724149Y449451D01*
X724259Y449445D01*
X724370Y449436D01*
X724480Y449422D01*
X724589Y449405D01*
X724698Y449384D01*
X724806Y449359D01*
X724913Y449330D01*
X725019Y449298D01*
X725124Y449262D01*
X725227Y449222D01*
X725329Y449179D01*
X725430Y449132D01*
X725529Y449081D01*
X725626Y449028D01*
X725720Y448971D01*
X725813Y448910D01*
X725904Y448847D01*
X725993Y448780D01*
X726079Y448710D01*
X726162Y448637D01*
X726244Y448562D01*
X726322Y448484D01*
X726397Y448402D01*
X726470Y448319D01*
X726540Y448233D01*
X726607Y448144D01*
X726670Y448053D01*
X726731Y447960D01*
X726788Y447865D01*
X726841Y447769D01*
X726892Y447670D01*
X726939Y447569D01*
X726982Y447467D01*
X727022Y447364D01*
X727058Y447259D01*
X727090Y447153D01*
X727119Y447046D01*
X727144Y446938D01*
X727165Y446829D01*
X727182Y446720D01*
X727196Y446610D01*
X727205Y446499D01*
X727211Y446389D01*
X727213Y446278D01*
X727211Y446167D01*
X727205Y446057D01*
X727196Y445946D01*
X727182Y445836D01*
X727165Y445727D01*
X727144Y445618D01*
X727119Y445510D01*
X727090Y445403D01*
X727058Y445297D01*
X727022Y445192D01*
X726982Y445089D01*
X726939Y444987D01*
X726892Y444886D01*
X726841Y444787D01*
X726788Y444690D01*
X726731Y444596D01*
X726670Y444503D01*
X726607Y444412D01*
X726540Y444323D01*
X726470Y444237D01*
X726397Y444154D01*
X726322Y444072D01*
X726244Y443994D01*
X726162Y443919D01*
X726079Y443846D01*
X725993Y443776D01*
X725904Y443709D01*
X725813Y443646D01*
X725720Y443585D01*
X725626Y443528D01*
X725529Y443475D01*
X725430Y443424D01*
X725329Y443377D01*
X725227Y443334D01*
X725124Y443294D01*
X725019Y443258D01*
X724913Y443226D01*
X724806Y443197D01*
X724698Y443172D01*
X724589Y443151D01*
X724480Y443134D01*
X724370Y443120D01*
X724259Y443111D01*
X724149Y443105D01*
X724038Y443103D01*
X720863Y443103D01*
X731722Y446913D02*
X734897Y449453D01*
X734897Y438023D01*
X731722Y438023D02*
X738072Y438023D01*
X743152Y446913D02*
X746327Y449453D01*
X746327Y438023D01*
X743152Y438023D02*
X749502Y438023D01*
D10*
X704850Y508000D02*
X692150Y508000D01*
X704850Y508000D02*
X711200Y501650D01*
X711200Y488950D01*
X704850Y482600D01*
X685800Y488950D02*
X685800Y501650D01*
X692150Y508000D01*
X685800Y488950D02*
X692150Y482600D01*
X704850Y482600D01*
D13*
X689483Y516763D02*
X689483Y525653D01*
X689483Y516763D02*
X689481Y516663D01*
X689475Y516564D01*
X689465Y516464D01*
X689452Y516366D01*
X689434Y516267D01*
X689413Y516170D01*
X689388Y516074D01*
X689359Y515978D01*
X689326Y515884D01*
X689290Y515791D01*
X689250Y515700D01*
X689206Y515610D01*
X689159Y515522D01*
X689109Y515436D01*
X689055Y515352D01*
X688998Y515270D01*
X688938Y515191D01*
X688874Y515113D01*
X688808Y515039D01*
X688739Y514967D01*
X688667Y514898D01*
X688593Y514832D01*
X688515Y514768D01*
X688436Y514708D01*
X688354Y514651D01*
X688270Y514597D01*
X688184Y514547D01*
X688096Y514500D01*
X688006Y514456D01*
X687915Y514416D01*
X687822Y514380D01*
X687728Y514347D01*
X687632Y514318D01*
X687536Y514293D01*
X687439Y514272D01*
X687340Y514254D01*
X687242Y514241D01*
X687142Y514231D01*
X687043Y514225D01*
X686943Y514223D01*
X685673Y514223D01*
X695463Y514223D02*
X695463Y525653D01*
X698638Y525653D01*
X698749Y525651D01*
X698859Y525645D01*
X698970Y525636D01*
X699080Y525622D01*
X699189Y525605D01*
X699298Y525584D01*
X699406Y525559D01*
X699513Y525530D01*
X699619Y525498D01*
X699724Y525462D01*
X699827Y525422D01*
X699929Y525379D01*
X700030Y525332D01*
X700129Y525281D01*
X700226Y525228D01*
X700320Y525171D01*
X700413Y525110D01*
X700504Y525047D01*
X700593Y524980D01*
X700679Y524910D01*
X700762Y524837D01*
X700844Y524762D01*
X700922Y524684D01*
X700997Y524602D01*
X701070Y524519D01*
X701140Y524433D01*
X701207Y524344D01*
X701270Y524253D01*
X701331Y524160D01*
X701388Y524065D01*
X701441Y523969D01*
X701492Y523870D01*
X701539Y523769D01*
X701582Y523667D01*
X701622Y523564D01*
X701658Y523459D01*
X701690Y523353D01*
X701719Y523246D01*
X701744Y523138D01*
X701765Y523029D01*
X701782Y522920D01*
X701796Y522810D01*
X701805Y522699D01*
X701811Y522589D01*
X701813Y522478D01*
X701811Y522367D01*
X701805Y522257D01*
X701796Y522146D01*
X701782Y522036D01*
X701765Y521927D01*
X701744Y521818D01*
X701719Y521710D01*
X701690Y521603D01*
X701658Y521497D01*
X701622Y521392D01*
X701582Y521289D01*
X701539Y521187D01*
X701492Y521086D01*
X701441Y520987D01*
X701388Y520890D01*
X701331Y520796D01*
X701270Y520703D01*
X701207Y520612D01*
X701140Y520523D01*
X701070Y520437D01*
X700997Y520354D01*
X700922Y520272D01*
X700844Y520194D01*
X700762Y520119D01*
X700679Y520046D01*
X700593Y519976D01*
X700504Y519909D01*
X700413Y519846D01*
X700320Y519785D01*
X700226Y519728D01*
X700129Y519675D01*
X700030Y519624D01*
X699929Y519577D01*
X699827Y519534D01*
X699724Y519494D01*
X699619Y519458D01*
X699513Y519426D01*
X699406Y519397D01*
X699298Y519372D01*
X699189Y519351D01*
X699080Y519334D01*
X698970Y519320D01*
X698859Y519311D01*
X698749Y519305D01*
X698638Y519303D01*
X695463Y519303D01*
X706322Y523113D02*
X709497Y525653D01*
X709497Y514223D01*
X706322Y514223D02*
X712672Y514223D01*
X724102Y522796D02*
X724100Y522900D01*
X724094Y523005D01*
X724085Y523109D01*
X724072Y523212D01*
X724054Y523315D01*
X724034Y523417D01*
X724009Y523519D01*
X723981Y523619D01*
X723949Y523719D01*
X723913Y523817D01*
X723874Y523914D01*
X723832Y524009D01*
X723786Y524103D01*
X723736Y524195D01*
X723684Y524285D01*
X723628Y524373D01*
X723568Y524459D01*
X723506Y524543D01*
X723441Y524624D01*
X723373Y524703D01*
X723301Y524780D01*
X723228Y524853D01*
X723151Y524925D01*
X723072Y524993D01*
X722991Y525058D01*
X722907Y525120D01*
X722821Y525180D01*
X722733Y525236D01*
X722643Y525288D01*
X722551Y525338D01*
X722457Y525384D01*
X722362Y525426D01*
X722265Y525465D01*
X722167Y525501D01*
X722067Y525533D01*
X721967Y525561D01*
X721865Y525586D01*
X721763Y525606D01*
X721660Y525624D01*
X721557Y525637D01*
X721453Y525646D01*
X721348Y525652D01*
X721244Y525654D01*
X721244Y525653D02*
X721126Y525651D01*
X721007Y525645D01*
X720889Y525636D01*
X720772Y525623D01*
X720655Y525605D01*
X720538Y525585D01*
X720422Y525560D01*
X720307Y525532D01*
X720194Y525499D01*
X720081Y525464D01*
X719969Y525424D01*
X719859Y525382D01*
X719750Y525335D01*
X719642Y525285D01*
X719537Y525232D01*
X719433Y525175D01*
X719331Y525115D01*
X719231Y525052D01*
X719133Y524985D01*
X719037Y524916D01*
X718944Y524843D01*
X718853Y524767D01*
X718764Y524689D01*
X718678Y524607D01*
X718595Y524523D01*
X718514Y524437D01*
X718437Y524347D01*
X718362Y524256D01*
X718290Y524162D01*
X718221Y524065D01*
X718156Y523967D01*
X718093Y523866D01*
X718034Y523763D01*
X717978Y523659D01*
X717926Y523553D01*
X717877Y523445D01*
X717832Y523336D01*
X717790Y523225D01*
X717752Y523113D01*
X723150Y520574D02*
X723226Y520649D01*
X723301Y520728D01*
X723372Y520809D01*
X723441Y520893D01*
X723506Y520979D01*
X723568Y521067D01*
X723628Y521157D01*
X723684Y521249D01*
X723737Y521344D01*
X723786Y521440D01*
X723832Y521538D01*
X723875Y521637D01*
X723914Y521738D01*
X723949Y521840D01*
X723981Y521943D01*
X724009Y522047D01*
X724034Y522152D01*
X724055Y522259D01*
X724072Y522365D01*
X724085Y522472D01*
X724094Y522580D01*
X724100Y522688D01*
X724102Y522796D01*
X723149Y520573D02*
X717752Y514223D01*
X724102Y514223D01*
D10*
X654050Y609600D02*
X641350Y609600D01*
X654050Y609600D02*
X660400Y603250D01*
X660400Y590550D01*
X654050Y584200D01*
X635000Y590550D02*
X635000Y603250D01*
X641350Y609600D01*
X635000Y590550D02*
X641350Y584200D01*
X654050Y584200D01*
D13*
X638683Y618363D02*
X638683Y627253D01*
X638683Y618363D02*
X638681Y618263D01*
X638675Y618164D01*
X638665Y618064D01*
X638652Y617966D01*
X638634Y617867D01*
X638613Y617770D01*
X638588Y617674D01*
X638559Y617578D01*
X638526Y617484D01*
X638490Y617391D01*
X638450Y617300D01*
X638406Y617210D01*
X638359Y617122D01*
X638309Y617036D01*
X638255Y616952D01*
X638198Y616870D01*
X638138Y616791D01*
X638074Y616713D01*
X638008Y616639D01*
X637939Y616567D01*
X637867Y616498D01*
X637793Y616432D01*
X637715Y616368D01*
X637636Y616308D01*
X637554Y616251D01*
X637470Y616197D01*
X637384Y616147D01*
X637296Y616100D01*
X637206Y616056D01*
X637115Y616016D01*
X637022Y615980D01*
X636928Y615947D01*
X636832Y615918D01*
X636736Y615893D01*
X636639Y615872D01*
X636540Y615854D01*
X636442Y615841D01*
X636342Y615831D01*
X636243Y615825D01*
X636143Y615823D01*
X634873Y615823D01*
X644663Y615823D02*
X644663Y627253D01*
X647838Y627253D01*
X647949Y627251D01*
X648059Y627245D01*
X648170Y627236D01*
X648280Y627222D01*
X648389Y627205D01*
X648498Y627184D01*
X648606Y627159D01*
X648713Y627130D01*
X648819Y627098D01*
X648924Y627062D01*
X649027Y627022D01*
X649129Y626979D01*
X649230Y626932D01*
X649329Y626881D01*
X649426Y626828D01*
X649520Y626771D01*
X649613Y626710D01*
X649704Y626647D01*
X649793Y626580D01*
X649879Y626510D01*
X649962Y626437D01*
X650044Y626362D01*
X650122Y626284D01*
X650197Y626202D01*
X650270Y626119D01*
X650340Y626033D01*
X650407Y625944D01*
X650470Y625853D01*
X650531Y625760D01*
X650588Y625665D01*
X650641Y625569D01*
X650692Y625470D01*
X650739Y625369D01*
X650782Y625267D01*
X650822Y625164D01*
X650858Y625059D01*
X650890Y624953D01*
X650919Y624846D01*
X650944Y624738D01*
X650965Y624629D01*
X650982Y624520D01*
X650996Y624410D01*
X651005Y624299D01*
X651011Y624189D01*
X651013Y624078D01*
X651011Y623967D01*
X651005Y623857D01*
X650996Y623746D01*
X650982Y623636D01*
X650965Y623527D01*
X650944Y623418D01*
X650919Y623310D01*
X650890Y623203D01*
X650858Y623097D01*
X650822Y622992D01*
X650782Y622889D01*
X650739Y622787D01*
X650692Y622686D01*
X650641Y622587D01*
X650588Y622491D01*
X650531Y622396D01*
X650470Y622303D01*
X650407Y622212D01*
X650340Y622123D01*
X650270Y622037D01*
X650197Y621954D01*
X650122Y621872D01*
X650044Y621794D01*
X649962Y621719D01*
X649879Y621646D01*
X649793Y621576D01*
X649704Y621509D01*
X649613Y621446D01*
X649520Y621385D01*
X649426Y621328D01*
X649329Y621275D01*
X649230Y621224D01*
X649129Y621177D01*
X649027Y621134D01*
X648924Y621094D01*
X648819Y621058D01*
X648713Y621026D01*
X648606Y620997D01*
X648498Y620972D01*
X648389Y620951D01*
X648280Y620934D01*
X648170Y620920D01*
X648059Y620911D01*
X647949Y620905D01*
X647838Y620903D01*
X644663Y620903D01*
X655522Y624713D02*
X658697Y627253D01*
X658697Y615823D01*
X655522Y615823D02*
X661872Y615823D01*
X666952Y615823D02*
X670127Y615823D01*
X670238Y615825D01*
X670348Y615831D01*
X670459Y615840D01*
X670569Y615854D01*
X670678Y615871D01*
X670787Y615892D01*
X670895Y615917D01*
X671002Y615946D01*
X671108Y615978D01*
X671213Y616014D01*
X671316Y616054D01*
X671418Y616097D01*
X671519Y616144D01*
X671618Y616195D01*
X671715Y616248D01*
X671809Y616305D01*
X671902Y616366D01*
X671993Y616429D01*
X672082Y616496D01*
X672168Y616566D01*
X672251Y616639D01*
X672333Y616714D01*
X672411Y616792D01*
X672486Y616874D01*
X672559Y616957D01*
X672629Y617043D01*
X672696Y617132D01*
X672759Y617223D01*
X672820Y617316D01*
X672877Y617411D01*
X672930Y617507D01*
X672981Y617606D01*
X673028Y617707D01*
X673071Y617809D01*
X673111Y617912D01*
X673147Y618017D01*
X673179Y618123D01*
X673208Y618230D01*
X673233Y618338D01*
X673254Y618447D01*
X673271Y618556D01*
X673285Y618666D01*
X673294Y618777D01*
X673300Y618887D01*
X673302Y618998D01*
X673300Y619109D01*
X673294Y619219D01*
X673285Y619330D01*
X673271Y619440D01*
X673254Y619549D01*
X673233Y619658D01*
X673208Y619766D01*
X673179Y619873D01*
X673147Y619979D01*
X673111Y620084D01*
X673071Y620187D01*
X673028Y620289D01*
X672981Y620390D01*
X672930Y620489D01*
X672877Y620585D01*
X672820Y620680D01*
X672759Y620773D01*
X672696Y620864D01*
X672629Y620953D01*
X672559Y621039D01*
X672486Y621122D01*
X672411Y621204D01*
X672333Y621282D01*
X672251Y621357D01*
X672168Y621430D01*
X672082Y621500D01*
X671993Y621567D01*
X671902Y621630D01*
X671809Y621691D01*
X671715Y621748D01*
X671618Y621801D01*
X671519Y621852D01*
X671418Y621899D01*
X671316Y621942D01*
X671213Y621982D01*
X671108Y622018D01*
X671002Y622050D01*
X670895Y622079D01*
X670787Y622104D01*
X670678Y622125D01*
X670569Y622142D01*
X670459Y622156D01*
X670348Y622165D01*
X670238Y622171D01*
X670127Y622173D01*
X670762Y627253D02*
X666952Y627253D01*
X670762Y627253D02*
X670862Y627251D01*
X670961Y627245D01*
X671061Y627235D01*
X671159Y627222D01*
X671258Y627204D01*
X671355Y627183D01*
X671451Y627158D01*
X671547Y627129D01*
X671641Y627096D01*
X671734Y627060D01*
X671825Y627020D01*
X671915Y626976D01*
X672003Y626929D01*
X672089Y626879D01*
X672173Y626825D01*
X672255Y626768D01*
X672334Y626708D01*
X672412Y626644D01*
X672486Y626578D01*
X672558Y626509D01*
X672627Y626437D01*
X672693Y626363D01*
X672757Y626285D01*
X672817Y626206D01*
X672874Y626124D01*
X672928Y626040D01*
X672978Y625954D01*
X673025Y625866D01*
X673069Y625776D01*
X673109Y625685D01*
X673145Y625592D01*
X673178Y625498D01*
X673207Y625402D01*
X673232Y625306D01*
X673253Y625209D01*
X673271Y625110D01*
X673284Y625012D01*
X673294Y624912D01*
X673300Y624813D01*
X673302Y624713D01*
X673300Y624613D01*
X673294Y624514D01*
X673284Y624414D01*
X673271Y624316D01*
X673253Y624217D01*
X673232Y624120D01*
X673207Y624024D01*
X673178Y623928D01*
X673145Y623834D01*
X673109Y623741D01*
X673069Y623650D01*
X673025Y623560D01*
X672978Y623472D01*
X672928Y623386D01*
X672874Y623302D01*
X672817Y623220D01*
X672757Y623141D01*
X672693Y623063D01*
X672627Y622989D01*
X672558Y622917D01*
X672486Y622848D01*
X672412Y622782D01*
X672334Y622718D01*
X672255Y622658D01*
X672173Y622601D01*
X672089Y622547D01*
X672003Y622497D01*
X671915Y622450D01*
X671825Y622406D01*
X671734Y622366D01*
X671641Y622330D01*
X671547Y622297D01*
X671451Y622268D01*
X671355Y622243D01*
X671258Y622222D01*
X671159Y622204D01*
X671061Y622191D01*
X670961Y622181D01*
X670862Y622175D01*
X670762Y622173D01*
X668222Y622173D01*
D10*
X742950Y431800D02*
X755650Y431800D01*
X762000Y425450D01*
X762000Y412750D01*
X755650Y406400D01*
X736600Y412750D02*
X736600Y425450D01*
X742950Y431800D01*
X736600Y412750D02*
X742950Y406400D01*
X755650Y406400D01*
D13*
X740283Y440563D02*
X740283Y449453D01*
X740283Y440563D02*
X740281Y440463D01*
X740275Y440364D01*
X740265Y440264D01*
X740252Y440166D01*
X740234Y440067D01*
X740213Y439970D01*
X740188Y439874D01*
X740159Y439778D01*
X740126Y439684D01*
X740090Y439591D01*
X740050Y439500D01*
X740006Y439410D01*
X739959Y439322D01*
X739909Y439236D01*
X739855Y439152D01*
X739798Y439070D01*
X739738Y438991D01*
X739674Y438913D01*
X739608Y438839D01*
X739539Y438767D01*
X739467Y438698D01*
X739393Y438632D01*
X739315Y438568D01*
X739236Y438508D01*
X739154Y438451D01*
X739070Y438397D01*
X738984Y438347D01*
X738896Y438300D01*
X738806Y438256D01*
X738715Y438216D01*
X738622Y438180D01*
X738528Y438147D01*
X738432Y438118D01*
X738336Y438093D01*
X738239Y438072D01*
X738140Y438054D01*
X738042Y438041D01*
X737942Y438031D01*
X737843Y438025D01*
X737743Y438023D01*
X736473Y438023D01*
X746263Y438023D02*
X746263Y449453D01*
X749438Y449453D01*
X749549Y449451D01*
X749659Y449445D01*
X749770Y449436D01*
X749880Y449422D01*
X749989Y449405D01*
X750098Y449384D01*
X750206Y449359D01*
X750313Y449330D01*
X750419Y449298D01*
X750524Y449262D01*
X750627Y449222D01*
X750729Y449179D01*
X750830Y449132D01*
X750929Y449081D01*
X751026Y449028D01*
X751120Y448971D01*
X751213Y448910D01*
X751304Y448847D01*
X751393Y448780D01*
X751479Y448710D01*
X751562Y448637D01*
X751644Y448562D01*
X751722Y448484D01*
X751797Y448402D01*
X751870Y448319D01*
X751940Y448233D01*
X752007Y448144D01*
X752070Y448053D01*
X752131Y447960D01*
X752188Y447865D01*
X752241Y447769D01*
X752292Y447670D01*
X752339Y447569D01*
X752382Y447467D01*
X752422Y447364D01*
X752458Y447259D01*
X752490Y447153D01*
X752519Y447046D01*
X752544Y446938D01*
X752565Y446829D01*
X752582Y446720D01*
X752596Y446610D01*
X752605Y446499D01*
X752611Y446389D01*
X752613Y446278D01*
X752611Y446167D01*
X752605Y446057D01*
X752596Y445946D01*
X752582Y445836D01*
X752565Y445727D01*
X752544Y445618D01*
X752519Y445510D01*
X752490Y445403D01*
X752458Y445297D01*
X752422Y445192D01*
X752382Y445089D01*
X752339Y444987D01*
X752292Y444886D01*
X752241Y444787D01*
X752188Y444690D01*
X752131Y444596D01*
X752070Y444503D01*
X752007Y444412D01*
X751940Y444323D01*
X751870Y444237D01*
X751797Y444154D01*
X751722Y444072D01*
X751644Y443994D01*
X751562Y443919D01*
X751479Y443846D01*
X751393Y443776D01*
X751304Y443709D01*
X751213Y443646D01*
X751120Y443585D01*
X751026Y443528D01*
X750929Y443475D01*
X750830Y443424D01*
X750729Y443377D01*
X750627Y443334D01*
X750524Y443294D01*
X750419Y443258D01*
X750313Y443226D01*
X750206Y443197D01*
X750098Y443172D01*
X749989Y443151D01*
X749880Y443134D01*
X749770Y443120D01*
X749659Y443111D01*
X749549Y443105D01*
X749438Y443103D01*
X746263Y443103D01*
X757122Y446913D02*
X760297Y449453D01*
X760297Y438023D01*
X757122Y438023D02*
X763472Y438023D01*
X768552Y440563D02*
X771092Y449453D01*
X768552Y440563D02*
X774902Y440563D01*
X772997Y443103D02*
X772997Y438023D01*
D10*
X742950Y508000D02*
X730250Y508000D01*
X742950Y508000D02*
X749300Y501650D01*
X749300Y488950D01*
X742950Y482600D01*
X723900Y488950D02*
X723900Y501650D01*
X730250Y508000D01*
X723900Y488950D02*
X730250Y482600D01*
X742950Y482600D01*
D13*
X689483Y529463D02*
X689483Y538353D01*
X689483Y529463D02*
X689481Y529363D01*
X689475Y529264D01*
X689465Y529164D01*
X689452Y529066D01*
X689434Y528967D01*
X689413Y528870D01*
X689388Y528774D01*
X689359Y528678D01*
X689326Y528584D01*
X689290Y528491D01*
X689250Y528400D01*
X689206Y528310D01*
X689159Y528222D01*
X689109Y528136D01*
X689055Y528052D01*
X688998Y527970D01*
X688938Y527891D01*
X688874Y527813D01*
X688808Y527739D01*
X688739Y527667D01*
X688667Y527598D01*
X688593Y527532D01*
X688515Y527468D01*
X688436Y527408D01*
X688354Y527351D01*
X688270Y527297D01*
X688184Y527247D01*
X688096Y527200D01*
X688006Y527156D01*
X687915Y527116D01*
X687822Y527080D01*
X687728Y527047D01*
X687632Y527018D01*
X687536Y526993D01*
X687439Y526972D01*
X687340Y526954D01*
X687242Y526941D01*
X687142Y526931D01*
X687043Y526925D01*
X686943Y526923D01*
X685673Y526923D01*
X695463Y526923D02*
X695463Y538353D01*
X698638Y538353D01*
X698749Y538351D01*
X698859Y538345D01*
X698970Y538336D01*
X699080Y538322D01*
X699189Y538305D01*
X699298Y538284D01*
X699406Y538259D01*
X699513Y538230D01*
X699619Y538198D01*
X699724Y538162D01*
X699827Y538122D01*
X699929Y538079D01*
X700030Y538032D01*
X700129Y537981D01*
X700226Y537928D01*
X700320Y537871D01*
X700413Y537810D01*
X700504Y537747D01*
X700593Y537680D01*
X700679Y537610D01*
X700762Y537537D01*
X700844Y537462D01*
X700922Y537384D01*
X700997Y537302D01*
X701070Y537219D01*
X701140Y537133D01*
X701207Y537044D01*
X701270Y536953D01*
X701331Y536860D01*
X701388Y536765D01*
X701441Y536669D01*
X701492Y536570D01*
X701539Y536469D01*
X701582Y536367D01*
X701622Y536264D01*
X701658Y536159D01*
X701690Y536053D01*
X701719Y535946D01*
X701744Y535838D01*
X701765Y535729D01*
X701782Y535620D01*
X701796Y535510D01*
X701805Y535399D01*
X701811Y535289D01*
X701813Y535178D01*
X701811Y535067D01*
X701805Y534957D01*
X701796Y534846D01*
X701782Y534736D01*
X701765Y534627D01*
X701744Y534518D01*
X701719Y534410D01*
X701690Y534303D01*
X701658Y534197D01*
X701622Y534092D01*
X701582Y533989D01*
X701539Y533887D01*
X701492Y533786D01*
X701441Y533687D01*
X701388Y533591D01*
X701331Y533496D01*
X701270Y533403D01*
X701207Y533312D01*
X701140Y533223D01*
X701070Y533137D01*
X700997Y533054D01*
X700922Y532972D01*
X700844Y532894D01*
X700762Y532819D01*
X700679Y532746D01*
X700593Y532676D01*
X700504Y532609D01*
X700413Y532546D01*
X700320Y532485D01*
X700226Y532428D01*
X700129Y532375D01*
X700030Y532324D01*
X699929Y532277D01*
X699827Y532234D01*
X699724Y532194D01*
X699619Y532158D01*
X699513Y532126D01*
X699406Y532097D01*
X699298Y532072D01*
X699189Y532051D01*
X699080Y532034D01*
X698970Y532020D01*
X698859Y532011D01*
X698749Y532005D01*
X698638Y532003D01*
X695463Y532003D01*
X709814Y538354D02*
X709918Y538352D01*
X710023Y538346D01*
X710127Y538337D01*
X710230Y538324D01*
X710333Y538306D01*
X710435Y538286D01*
X710537Y538261D01*
X710637Y538233D01*
X710737Y538201D01*
X710835Y538165D01*
X710932Y538126D01*
X711027Y538084D01*
X711121Y538038D01*
X711213Y537988D01*
X711303Y537936D01*
X711391Y537880D01*
X711477Y537820D01*
X711561Y537758D01*
X711642Y537693D01*
X711721Y537625D01*
X711798Y537553D01*
X711871Y537480D01*
X711943Y537403D01*
X712011Y537324D01*
X712076Y537243D01*
X712138Y537159D01*
X712198Y537073D01*
X712254Y536985D01*
X712306Y536895D01*
X712356Y536803D01*
X712402Y536709D01*
X712444Y536614D01*
X712483Y536517D01*
X712519Y536419D01*
X712551Y536319D01*
X712579Y536219D01*
X712604Y536117D01*
X712624Y536015D01*
X712642Y535912D01*
X712655Y535809D01*
X712664Y535705D01*
X712670Y535600D01*
X712672Y535496D01*
X709814Y538353D02*
X709696Y538351D01*
X709577Y538345D01*
X709459Y538336D01*
X709342Y538323D01*
X709225Y538305D01*
X709108Y538285D01*
X708992Y538260D01*
X708877Y538232D01*
X708764Y538199D01*
X708651Y538164D01*
X708539Y538124D01*
X708429Y538082D01*
X708320Y538035D01*
X708212Y537985D01*
X708107Y537932D01*
X708003Y537875D01*
X707901Y537815D01*
X707801Y537752D01*
X707703Y537685D01*
X707607Y537616D01*
X707514Y537543D01*
X707423Y537467D01*
X707334Y537389D01*
X707248Y537307D01*
X707165Y537223D01*
X707084Y537137D01*
X707007Y537047D01*
X706932Y536956D01*
X706860Y536862D01*
X706791Y536765D01*
X706726Y536667D01*
X706663Y536566D01*
X706604Y536463D01*
X706548Y536359D01*
X706496Y536253D01*
X706447Y536145D01*
X706402Y536036D01*
X706360Y535925D01*
X706322Y535813D01*
X711720Y533274D02*
X711796Y533349D01*
X711871Y533428D01*
X711942Y533509D01*
X712011Y533593D01*
X712076Y533679D01*
X712138Y533767D01*
X712198Y533857D01*
X712254Y533949D01*
X712307Y534044D01*
X712356Y534140D01*
X712402Y534238D01*
X712445Y534337D01*
X712484Y534438D01*
X712519Y534540D01*
X712551Y534643D01*
X712579Y534747D01*
X712604Y534852D01*
X712625Y534959D01*
X712642Y535065D01*
X712655Y535172D01*
X712664Y535280D01*
X712670Y535388D01*
X712672Y535496D01*
X711719Y533273D02*
X706322Y526923D01*
X712672Y526923D01*
D10*
X654050Y558800D02*
X641350Y558800D01*
X654050Y558800D02*
X660400Y552450D01*
X660400Y539750D01*
X654050Y533400D01*
X635000Y539750D02*
X635000Y552450D01*
X641350Y558800D01*
X635000Y539750D02*
X641350Y533400D01*
X654050Y533400D01*
D13*
X638683Y567563D02*
X638683Y576453D01*
X638683Y567563D02*
X638681Y567463D01*
X638675Y567364D01*
X638665Y567264D01*
X638652Y567166D01*
X638634Y567067D01*
X638613Y566970D01*
X638588Y566874D01*
X638559Y566778D01*
X638526Y566684D01*
X638490Y566591D01*
X638450Y566500D01*
X638406Y566410D01*
X638359Y566322D01*
X638309Y566236D01*
X638255Y566152D01*
X638198Y566070D01*
X638138Y565991D01*
X638074Y565913D01*
X638008Y565839D01*
X637939Y565767D01*
X637867Y565698D01*
X637793Y565632D01*
X637715Y565568D01*
X637636Y565508D01*
X637554Y565451D01*
X637470Y565397D01*
X637384Y565347D01*
X637296Y565300D01*
X637206Y565256D01*
X637115Y565216D01*
X637022Y565180D01*
X636928Y565147D01*
X636832Y565118D01*
X636736Y565093D01*
X636639Y565072D01*
X636540Y565054D01*
X636442Y565041D01*
X636342Y565031D01*
X636243Y565025D01*
X636143Y565023D01*
X634873Y565023D01*
X644663Y565023D02*
X644663Y576453D01*
X647838Y576453D01*
X647949Y576451D01*
X648059Y576445D01*
X648170Y576436D01*
X648280Y576422D01*
X648389Y576405D01*
X648498Y576384D01*
X648606Y576359D01*
X648713Y576330D01*
X648819Y576298D01*
X648924Y576262D01*
X649027Y576222D01*
X649129Y576179D01*
X649230Y576132D01*
X649329Y576081D01*
X649426Y576028D01*
X649520Y575971D01*
X649613Y575910D01*
X649704Y575847D01*
X649793Y575780D01*
X649879Y575710D01*
X649962Y575637D01*
X650044Y575562D01*
X650122Y575484D01*
X650197Y575402D01*
X650270Y575319D01*
X650340Y575233D01*
X650407Y575144D01*
X650470Y575053D01*
X650531Y574960D01*
X650588Y574865D01*
X650641Y574769D01*
X650692Y574670D01*
X650739Y574569D01*
X650782Y574467D01*
X650822Y574364D01*
X650858Y574259D01*
X650890Y574153D01*
X650919Y574046D01*
X650944Y573938D01*
X650965Y573829D01*
X650982Y573720D01*
X650996Y573610D01*
X651005Y573499D01*
X651011Y573389D01*
X651013Y573278D01*
X651011Y573167D01*
X651005Y573057D01*
X650996Y572946D01*
X650982Y572836D01*
X650965Y572727D01*
X650944Y572618D01*
X650919Y572510D01*
X650890Y572403D01*
X650858Y572297D01*
X650822Y572192D01*
X650782Y572089D01*
X650739Y571987D01*
X650692Y571886D01*
X650641Y571787D01*
X650588Y571691D01*
X650531Y571596D01*
X650470Y571503D01*
X650407Y571412D01*
X650340Y571323D01*
X650270Y571237D01*
X650197Y571154D01*
X650122Y571072D01*
X650044Y570994D01*
X649962Y570919D01*
X649879Y570846D01*
X649793Y570776D01*
X649704Y570709D01*
X649613Y570646D01*
X649520Y570585D01*
X649426Y570528D01*
X649329Y570475D01*
X649230Y570424D01*
X649129Y570377D01*
X649027Y570334D01*
X648924Y570294D01*
X648819Y570258D01*
X648713Y570226D01*
X648606Y570197D01*
X648498Y570172D01*
X648389Y570151D01*
X648280Y570134D01*
X648170Y570120D01*
X648059Y570111D01*
X647949Y570105D01*
X647838Y570103D01*
X644663Y570103D01*
X655522Y575183D02*
X655522Y576453D01*
X661872Y576453D01*
X658697Y565023D01*
D10*
X742950Y698500D02*
X755650Y698500D01*
X762000Y692150D01*
X762000Y679450D01*
X755650Y673100D01*
X736600Y679450D02*
X736600Y692150D01*
X742950Y698500D01*
X736600Y679450D02*
X742950Y673100D01*
X755650Y673100D01*
D13*
X740283Y707263D02*
X740283Y716153D01*
X740283Y707263D02*
X740281Y707163D01*
X740275Y707064D01*
X740265Y706964D01*
X740252Y706866D01*
X740234Y706767D01*
X740213Y706670D01*
X740188Y706574D01*
X740159Y706478D01*
X740126Y706384D01*
X740090Y706291D01*
X740050Y706200D01*
X740006Y706110D01*
X739959Y706022D01*
X739909Y705936D01*
X739855Y705852D01*
X739798Y705770D01*
X739738Y705691D01*
X739674Y705613D01*
X739608Y705539D01*
X739539Y705467D01*
X739467Y705398D01*
X739393Y705332D01*
X739315Y705268D01*
X739236Y705208D01*
X739154Y705151D01*
X739070Y705097D01*
X738984Y705047D01*
X738896Y705000D01*
X738806Y704956D01*
X738715Y704916D01*
X738622Y704880D01*
X738528Y704847D01*
X738432Y704818D01*
X738336Y704793D01*
X738239Y704772D01*
X738140Y704754D01*
X738042Y704741D01*
X737942Y704731D01*
X737843Y704725D01*
X737743Y704723D01*
X736473Y704723D01*
X746263Y704723D02*
X746263Y716153D01*
X749438Y716153D01*
X749549Y716151D01*
X749659Y716145D01*
X749770Y716136D01*
X749880Y716122D01*
X749989Y716105D01*
X750098Y716084D01*
X750206Y716059D01*
X750313Y716030D01*
X750419Y715998D01*
X750524Y715962D01*
X750627Y715922D01*
X750729Y715879D01*
X750830Y715832D01*
X750929Y715781D01*
X751026Y715728D01*
X751120Y715671D01*
X751213Y715610D01*
X751304Y715547D01*
X751393Y715480D01*
X751479Y715410D01*
X751562Y715337D01*
X751644Y715262D01*
X751722Y715184D01*
X751797Y715102D01*
X751870Y715019D01*
X751940Y714933D01*
X752007Y714844D01*
X752070Y714753D01*
X752131Y714660D01*
X752188Y714565D01*
X752241Y714469D01*
X752292Y714370D01*
X752339Y714269D01*
X752382Y714167D01*
X752422Y714064D01*
X752458Y713959D01*
X752490Y713853D01*
X752519Y713746D01*
X752544Y713638D01*
X752565Y713529D01*
X752582Y713420D01*
X752596Y713310D01*
X752605Y713199D01*
X752611Y713089D01*
X752613Y712978D01*
X752611Y712867D01*
X752605Y712757D01*
X752596Y712646D01*
X752582Y712536D01*
X752565Y712427D01*
X752544Y712318D01*
X752519Y712210D01*
X752490Y712103D01*
X752458Y711997D01*
X752422Y711892D01*
X752382Y711789D01*
X752339Y711687D01*
X752292Y711586D01*
X752241Y711487D01*
X752188Y711391D01*
X752131Y711296D01*
X752070Y711203D01*
X752007Y711112D01*
X751940Y711023D01*
X751870Y710937D01*
X751797Y710854D01*
X751722Y710772D01*
X751644Y710694D01*
X751562Y710619D01*
X751479Y710546D01*
X751393Y710476D01*
X751304Y710409D01*
X751213Y710346D01*
X751120Y710285D01*
X751026Y710228D01*
X750929Y710175D01*
X750830Y710124D01*
X750729Y710077D01*
X750627Y710034D01*
X750524Y709994D01*
X750419Y709958D01*
X750313Y709926D01*
X750206Y709897D01*
X750098Y709872D01*
X749989Y709851D01*
X749880Y709834D01*
X749770Y709820D01*
X749659Y709811D01*
X749549Y709805D01*
X749438Y709803D01*
X746263Y709803D01*
X759662Y709803D02*
X763472Y709803D01*
X759662Y709803D02*
X759562Y709805D01*
X759463Y709811D01*
X759363Y709821D01*
X759265Y709834D01*
X759166Y709852D01*
X759069Y709873D01*
X758973Y709898D01*
X758877Y709927D01*
X758783Y709960D01*
X758690Y709996D01*
X758599Y710036D01*
X758509Y710080D01*
X758421Y710127D01*
X758335Y710177D01*
X758251Y710231D01*
X758169Y710288D01*
X758090Y710348D01*
X758012Y710412D01*
X757938Y710478D01*
X757866Y710547D01*
X757797Y710619D01*
X757731Y710693D01*
X757667Y710771D01*
X757607Y710850D01*
X757550Y710932D01*
X757496Y711016D01*
X757446Y711102D01*
X757399Y711190D01*
X757355Y711280D01*
X757315Y711371D01*
X757279Y711464D01*
X757246Y711558D01*
X757217Y711654D01*
X757192Y711750D01*
X757171Y711847D01*
X757153Y711946D01*
X757140Y712044D01*
X757130Y712144D01*
X757124Y712243D01*
X757122Y712343D01*
X757122Y712978D01*
X757124Y713089D01*
X757130Y713199D01*
X757139Y713310D01*
X757153Y713420D01*
X757170Y713529D01*
X757191Y713638D01*
X757216Y713746D01*
X757245Y713853D01*
X757277Y713959D01*
X757313Y714064D01*
X757353Y714167D01*
X757396Y714269D01*
X757443Y714370D01*
X757494Y714469D01*
X757547Y714566D01*
X757604Y714660D01*
X757665Y714753D01*
X757728Y714844D01*
X757795Y714933D01*
X757865Y715019D01*
X757938Y715102D01*
X758013Y715184D01*
X758091Y715262D01*
X758173Y715337D01*
X758256Y715410D01*
X758342Y715480D01*
X758431Y715547D01*
X758522Y715610D01*
X758615Y715671D01*
X758710Y715728D01*
X758806Y715781D01*
X758905Y715832D01*
X759006Y715879D01*
X759108Y715922D01*
X759211Y715962D01*
X759316Y715998D01*
X759422Y716030D01*
X759529Y716059D01*
X759637Y716084D01*
X759746Y716105D01*
X759855Y716122D01*
X759965Y716136D01*
X760076Y716145D01*
X760186Y716151D01*
X760297Y716153D01*
X760408Y716151D01*
X760518Y716145D01*
X760629Y716136D01*
X760739Y716122D01*
X760848Y716105D01*
X760957Y716084D01*
X761065Y716059D01*
X761172Y716030D01*
X761278Y715998D01*
X761383Y715962D01*
X761486Y715922D01*
X761588Y715879D01*
X761689Y715832D01*
X761788Y715781D01*
X761885Y715728D01*
X761979Y715671D01*
X762072Y715610D01*
X762163Y715547D01*
X762252Y715480D01*
X762338Y715410D01*
X762421Y715337D01*
X762503Y715262D01*
X762581Y715184D01*
X762656Y715102D01*
X762729Y715019D01*
X762799Y714933D01*
X762866Y714844D01*
X762929Y714753D01*
X762990Y714660D01*
X763047Y714566D01*
X763100Y714469D01*
X763151Y714370D01*
X763198Y714269D01*
X763241Y714167D01*
X763281Y714064D01*
X763317Y713959D01*
X763349Y713853D01*
X763378Y713746D01*
X763403Y713638D01*
X763424Y713529D01*
X763441Y713420D01*
X763455Y713310D01*
X763464Y713199D01*
X763470Y713089D01*
X763472Y712978D01*
X763472Y709803D01*
X763470Y709663D01*
X763464Y709523D01*
X763455Y709383D01*
X763441Y709244D01*
X763424Y709105D01*
X763403Y708967D01*
X763378Y708829D01*
X763349Y708692D01*
X763317Y708556D01*
X763280Y708421D01*
X763240Y708287D01*
X763197Y708154D01*
X763149Y708022D01*
X763099Y707891D01*
X763044Y707762D01*
X762986Y707635D01*
X762925Y707509D01*
X762860Y707385D01*
X762791Y707263D01*
X762720Y707143D01*
X762645Y707025D01*
X762567Y706908D01*
X762485Y706794D01*
X762401Y706683D01*
X762313Y706574D01*
X762223Y706467D01*
X762129Y706362D01*
X762033Y706261D01*
X761934Y706162D01*
X761833Y706066D01*
X761728Y705972D01*
X761621Y705882D01*
X761512Y705794D01*
X761401Y705710D01*
X761287Y705628D01*
X761170Y705550D01*
X761052Y705475D01*
X760932Y705404D01*
X760810Y705335D01*
X760686Y705270D01*
X760560Y705209D01*
X760433Y705151D01*
X760304Y705096D01*
X760173Y705046D01*
X760041Y704998D01*
X759908Y704955D01*
X759774Y704915D01*
X759639Y704878D01*
X759503Y704846D01*
X759366Y704817D01*
X759228Y704792D01*
X759090Y704771D01*
X758951Y704754D01*
X758812Y704740D01*
X758672Y704731D01*
X758532Y704725D01*
X758392Y704723D01*
D10*
X698500Y678180D02*
X698498Y678080D01*
X698492Y677981D01*
X698482Y677881D01*
X698469Y677783D01*
X698451Y677684D01*
X698430Y677587D01*
X698405Y677491D01*
X698376Y677395D01*
X698343Y677301D01*
X698307Y677208D01*
X698267Y677117D01*
X698223Y677027D01*
X698176Y676939D01*
X698126Y676853D01*
X698072Y676769D01*
X698015Y676687D01*
X697955Y676608D01*
X697891Y676530D01*
X697825Y676456D01*
X697756Y676384D01*
X697684Y676315D01*
X697610Y676249D01*
X697532Y676185D01*
X697453Y676125D01*
X697371Y676068D01*
X697287Y676014D01*
X697201Y675964D01*
X697113Y675917D01*
X697023Y675873D01*
X696932Y675833D01*
X696839Y675797D01*
X696745Y675764D01*
X696649Y675735D01*
X696553Y675710D01*
X696456Y675689D01*
X696357Y675671D01*
X696259Y675658D01*
X696159Y675648D01*
X696060Y675642D01*
X695960Y675640D01*
X698500Y693420D02*
X698498Y693520D01*
X698492Y693619D01*
X698482Y693719D01*
X698469Y693817D01*
X698451Y693916D01*
X698430Y694013D01*
X698405Y694109D01*
X698376Y694205D01*
X698343Y694299D01*
X698307Y694392D01*
X698267Y694483D01*
X698223Y694573D01*
X698176Y694661D01*
X698126Y694747D01*
X698072Y694831D01*
X698015Y694913D01*
X697955Y694992D01*
X697891Y695070D01*
X697825Y695144D01*
X697756Y695216D01*
X697684Y695285D01*
X697610Y695351D01*
X697532Y695415D01*
X697453Y695475D01*
X697371Y695532D01*
X697287Y695586D01*
X697201Y695636D01*
X697113Y695683D01*
X697023Y695727D01*
X696932Y695767D01*
X696839Y695803D01*
X696745Y695836D01*
X696649Y695865D01*
X696553Y695890D01*
X696456Y695911D01*
X696357Y695929D01*
X696259Y695942D01*
X696159Y695952D01*
X696060Y695958D01*
X695960Y695960D01*
X650240Y695960D02*
X650140Y695958D01*
X650041Y695952D01*
X649941Y695942D01*
X649843Y695929D01*
X649744Y695911D01*
X649647Y695890D01*
X649551Y695865D01*
X649455Y695836D01*
X649361Y695803D01*
X649268Y695767D01*
X649177Y695727D01*
X649087Y695683D01*
X648999Y695636D01*
X648913Y695586D01*
X648829Y695532D01*
X648747Y695475D01*
X648668Y695415D01*
X648590Y695351D01*
X648516Y695285D01*
X648444Y695216D01*
X648375Y695144D01*
X648309Y695070D01*
X648245Y694992D01*
X648185Y694913D01*
X648128Y694831D01*
X648074Y694747D01*
X648024Y694661D01*
X647977Y694573D01*
X647933Y694483D01*
X647893Y694392D01*
X647857Y694299D01*
X647824Y694205D01*
X647795Y694109D01*
X647770Y694013D01*
X647749Y693916D01*
X647731Y693817D01*
X647718Y693719D01*
X647708Y693619D01*
X647702Y693520D01*
X647700Y693420D01*
X647700Y678180D02*
X647702Y678080D01*
X647708Y677981D01*
X647718Y677881D01*
X647731Y677783D01*
X647749Y677684D01*
X647770Y677587D01*
X647795Y677491D01*
X647824Y677395D01*
X647857Y677301D01*
X647893Y677208D01*
X647933Y677117D01*
X647977Y677027D01*
X648024Y676939D01*
X648074Y676853D01*
X648128Y676769D01*
X648185Y676687D01*
X648245Y676608D01*
X648309Y676530D01*
X648375Y676456D01*
X648444Y676384D01*
X648516Y676315D01*
X648590Y676249D01*
X648668Y676185D01*
X648747Y676125D01*
X648829Y676068D01*
X648913Y676014D01*
X648999Y675964D01*
X649087Y675917D01*
X649177Y675873D01*
X649268Y675833D01*
X649361Y675797D01*
X649455Y675764D01*
X649551Y675735D01*
X649647Y675710D01*
X649744Y675689D01*
X649843Y675671D01*
X649941Y675658D01*
X650041Y675648D01*
X650140Y675642D01*
X650240Y675640D01*
X698500Y678180D02*
X698500Y693420D01*
X695960Y675640D02*
X692150Y675640D01*
X690880Y676910D01*
X692150Y695960D02*
X695960Y695960D01*
X692150Y695960D02*
X690880Y694690D01*
X655320Y676910D02*
X654050Y675640D01*
X655320Y676910D02*
X690880Y676910D01*
X655320Y694690D02*
X654050Y695960D01*
X655320Y694690D02*
X690880Y694690D01*
X654050Y675640D02*
X650240Y675640D01*
X650240Y695960D02*
X654050Y695960D01*
X647700Y693420D02*
X647700Y678180D01*
D14*
X645795Y685800D03*
X700405Y685800D03*
D15*
X684203Y672338D02*
X684203Y663448D01*
X684203Y672338D02*
X686673Y672338D01*
X686771Y672336D01*
X686869Y672330D01*
X686967Y672320D01*
X687064Y672307D01*
X687161Y672289D01*
X687257Y672268D01*
X687351Y672243D01*
X687445Y672214D01*
X687538Y672182D01*
X687629Y672145D01*
X687719Y672106D01*
X687807Y672062D01*
X687893Y672015D01*
X687978Y671965D01*
X688060Y671912D01*
X688140Y671855D01*
X688218Y671795D01*
X688293Y671732D01*
X688366Y671666D01*
X688436Y671597D01*
X688503Y671526D01*
X688568Y671452D01*
X688629Y671375D01*
X688688Y671296D01*
X688743Y671215D01*
X688795Y671132D01*
X688843Y671046D01*
X688888Y670959D01*
X688930Y670870D01*
X688968Y670780D01*
X689002Y670688D01*
X689033Y670595D01*
X689060Y670500D01*
X689083Y670405D01*
X689103Y670308D01*
X689118Y670212D01*
X689130Y670114D01*
X689138Y670016D01*
X689142Y669918D01*
X689142Y669820D01*
X689138Y669722D01*
X689130Y669624D01*
X689118Y669526D01*
X689103Y669430D01*
X689083Y669333D01*
X689060Y669238D01*
X689033Y669143D01*
X689002Y669050D01*
X688968Y668958D01*
X688930Y668868D01*
X688888Y668779D01*
X688843Y668692D01*
X688795Y668606D01*
X688743Y668523D01*
X688688Y668442D01*
X688629Y668363D01*
X688568Y668286D01*
X688503Y668212D01*
X688436Y668141D01*
X688366Y668072D01*
X688293Y668006D01*
X688218Y667943D01*
X688140Y667883D01*
X688060Y667826D01*
X687978Y667773D01*
X687893Y667723D01*
X687807Y667676D01*
X687719Y667632D01*
X687629Y667593D01*
X687538Y667556D01*
X687445Y667524D01*
X687351Y667495D01*
X687257Y667470D01*
X687161Y667449D01*
X687064Y667431D01*
X686967Y667418D01*
X686869Y667408D01*
X686771Y667402D01*
X686673Y667400D01*
X686673Y667399D02*
X684203Y667399D01*
X687167Y667399D02*
X689142Y663448D01*
X697993Y670116D02*
X697991Y670208D01*
X697985Y670300D01*
X697976Y670391D01*
X697963Y670482D01*
X697946Y670572D01*
X697925Y670662D01*
X697901Y670750D01*
X697873Y670838D01*
X697841Y670924D01*
X697806Y671009D01*
X697767Y671092D01*
X697725Y671174D01*
X697680Y671254D01*
X697631Y671332D01*
X697579Y671408D01*
X697524Y671481D01*
X697466Y671553D01*
X697406Y671622D01*
X697342Y671688D01*
X697276Y671752D01*
X697207Y671812D01*
X697135Y671870D01*
X697062Y671925D01*
X696986Y671977D01*
X696908Y672026D01*
X696828Y672071D01*
X696746Y672113D01*
X696663Y672152D01*
X696578Y672187D01*
X696492Y672219D01*
X696404Y672247D01*
X696316Y672271D01*
X696226Y672292D01*
X696136Y672309D01*
X696045Y672322D01*
X695954Y672331D01*
X695862Y672337D01*
X695770Y672339D01*
X695770Y672338D02*
X695664Y672336D01*
X695559Y672330D01*
X695454Y672320D01*
X695349Y672307D01*
X695245Y672289D01*
X695142Y672268D01*
X695039Y672243D01*
X694937Y672214D01*
X694837Y672181D01*
X694738Y672145D01*
X694640Y672105D01*
X694544Y672061D01*
X694449Y672014D01*
X694357Y671964D01*
X694266Y671910D01*
X694177Y671852D01*
X694091Y671792D01*
X694007Y671728D01*
X693925Y671662D01*
X693845Y671592D01*
X693769Y671519D01*
X693695Y671444D01*
X693624Y671366D01*
X693556Y671285D01*
X693490Y671202D01*
X693428Y671116D01*
X693370Y671029D01*
X693314Y670939D01*
X693262Y670847D01*
X693213Y670753D01*
X693168Y670658D01*
X693126Y670561D01*
X693088Y670462D01*
X693054Y670363D01*
X697251Y668387D02*
X697320Y668456D01*
X697386Y668526D01*
X697449Y668600D01*
X697508Y668676D01*
X697565Y668754D01*
X697619Y668834D01*
X697669Y668917D01*
X697716Y669001D01*
X697759Y669088D01*
X697799Y669176D01*
X697835Y669265D01*
X697868Y669356D01*
X697897Y669448D01*
X697922Y669542D01*
X697943Y669636D01*
X697961Y669731D01*
X697974Y669827D01*
X697984Y669923D01*
X697990Y670019D01*
X697992Y670116D01*
X697251Y668387D02*
X693053Y663448D01*
X697992Y663448D01*
D10*
X797560Y637540D02*
X797660Y637542D01*
X797759Y637548D01*
X797859Y637558D01*
X797957Y637571D01*
X798056Y637589D01*
X798153Y637610D01*
X798249Y637635D01*
X798345Y637664D01*
X798439Y637697D01*
X798532Y637733D01*
X798623Y637773D01*
X798713Y637817D01*
X798801Y637864D01*
X798887Y637914D01*
X798971Y637968D01*
X799053Y638025D01*
X799132Y638085D01*
X799210Y638149D01*
X799284Y638215D01*
X799356Y638284D01*
X799425Y638356D01*
X799491Y638430D01*
X799555Y638508D01*
X799615Y638587D01*
X799672Y638669D01*
X799726Y638753D01*
X799776Y638839D01*
X799823Y638927D01*
X799867Y639017D01*
X799907Y639108D01*
X799943Y639201D01*
X799976Y639295D01*
X800005Y639391D01*
X800030Y639487D01*
X800051Y639584D01*
X800069Y639683D01*
X800082Y639781D01*
X800092Y639881D01*
X800098Y639980D01*
X800100Y640080D01*
X800100Y655320D02*
X800098Y655420D01*
X800092Y655519D01*
X800082Y655619D01*
X800069Y655717D01*
X800051Y655816D01*
X800030Y655913D01*
X800005Y656009D01*
X799976Y656105D01*
X799943Y656199D01*
X799907Y656292D01*
X799867Y656383D01*
X799823Y656473D01*
X799776Y656561D01*
X799726Y656647D01*
X799672Y656731D01*
X799615Y656813D01*
X799555Y656892D01*
X799491Y656970D01*
X799425Y657044D01*
X799356Y657116D01*
X799284Y657185D01*
X799210Y657251D01*
X799132Y657315D01*
X799053Y657375D01*
X798971Y657432D01*
X798887Y657486D01*
X798801Y657536D01*
X798713Y657583D01*
X798623Y657627D01*
X798532Y657667D01*
X798439Y657703D01*
X798345Y657736D01*
X798249Y657765D01*
X798153Y657790D01*
X798056Y657811D01*
X797957Y657829D01*
X797859Y657842D01*
X797759Y657852D01*
X797660Y657858D01*
X797560Y657860D01*
X751840Y657860D02*
X751740Y657858D01*
X751641Y657852D01*
X751541Y657842D01*
X751443Y657829D01*
X751344Y657811D01*
X751247Y657790D01*
X751151Y657765D01*
X751055Y657736D01*
X750961Y657703D01*
X750868Y657667D01*
X750777Y657627D01*
X750687Y657583D01*
X750599Y657536D01*
X750513Y657486D01*
X750429Y657432D01*
X750347Y657375D01*
X750268Y657315D01*
X750190Y657251D01*
X750116Y657185D01*
X750044Y657116D01*
X749975Y657044D01*
X749909Y656970D01*
X749845Y656892D01*
X749785Y656813D01*
X749728Y656731D01*
X749674Y656647D01*
X749624Y656561D01*
X749577Y656473D01*
X749533Y656383D01*
X749493Y656292D01*
X749457Y656199D01*
X749424Y656105D01*
X749395Y656009D01*
X749370Y655913D01*
X749349Y655816D01*
X749331Y655717D01*
X749318Y655619D01*
X749308Y655519D01*
X749302Y655420D01*
X749300Y655320D01*
X749300Y640080D02*
X749302Y639980D01*
X749308Y639881D01*
X749318Y639781D01*
X749331Y639683D01*
X749349Y639584D01*
X749370Y639487D01*
X749395Y639391D01*
X749424Y639295D01*
X749457Y639201D01*
X749493Y639108D01*
X749533Y639017D01*
X749577Y638927D01*
X749624Y638839D01*
X749674Y638753D01*
X749728Y638669D01*
X749785Y638587D01*
X749845Y638508D01*
X749909Y638430D01*
X749975Y638356D01*
X750044Y638284D01*
X750116Y638215D01*
X750190Y638149D01*
X750268Y638085D01*
X750347Y638025D01*
X750429Y637968D01*
X750513Y637914D01*
X750599Y637864D01*
X750687Y637817D01*
X750777Y637773D01*
X750868Y637733D01*
X750961Y637697D01*
X751055Y637664D01*
X751151Y637635D01*
X751247Y637610D01*
X751344Y637589D01*
X751443Y637571D01*
X751541Y637558D01*
X751641Y637548D01*
X751740Y637542D01*
X751840Y637540D01*
X800100Y640080D02*
X800100Y655320D01*
X797560Y637540D02*
X793750Y637540D01*
X792480Y638810D01*
X793750Y657860D02*
X797560Y657860D01*
X793750Y657860D02*
X792480Y656590D01*
X756920Y638810D02*
X755650Y637540D01*
X756920Y638810D02*
X792480Y638810D01*
X756920Y656590D02*
X755650Y657860D01*
X756920Y656590D02*
X792480Y656590D01*
X755650Y637540D02*
X751840Y637540D01*
X751840Y657860D02*
X755650Y657860D01*
X749300Y655320D02*
X749300Y640080D01*
D14*
X747395Y647700D03*
X802005Y647700D03*
D15*
X785803Y634238D02*
X785803Y625348D01*
X785803Y634238D02*
X788273Y634238D01*
X788371Y634236D01*
X788469Y634230D01*
X788567Y634220D01*
X788664Y634207D01*
X788761Y634189D01*
X788857Y634168D01*
X788951Y634143D01*
X789045Y634114D01*
X789138Y634082D01*
X789229Y634045D01*
X789319Y634006D01*
X789407Y633962D01*
X789493Y633915D01*
X789578Y633865D01*
X789660Y633812D01*
X789740Y633755D01*
X789818Y633695D01*
X789893Y633632D01*
X789966Y633566D01*
X790036Y633497D01*
X790103Y633426D01*
X790168Y633352D01*
X790229Y633275D01*
X790288Y633196D01*
X790343Y633115D01*
X790395Y633032D01*
X790443Y632946D01*
X790488Y632859D01*
X790530Y632770D01*
X790568Y632680D01*
X790602Y632588D01*
X790633Y632495D01*
X790660Y632400D01*
X790683Y632305D01*
X790703Y632208D01*
X790718Y632112D01*
X790730Y632014D01*
X790738Y631916D01*
X790742Y631818D01*
X790742Y631720D01*
X790738Y631622D01*
X790730Y631524D01*
X790718Y631426D01*
X790703Y631330D01*
X790683Y631233D01*
X790660Y631138D01*
X790633Y631043D01*
X790602Y630950D01*
X790568Y630858D01*
X790530Y630768D01*
X790488Y630679D01*
X790443Y630592D01*
X790395Y630506D01*
X790343Y630423D01*
X790288Y630342D01*
X790229Y630263D01*
X790168Y630186D01*
X790103Y630112D01*
X790036Y630041D01*
X789966Y629972D01*
X789893Y629906D01*
X789818Y629843D01*
X789740Y629783D01*
X789660Y629726D01*
X789578Y629673D01*
X789493Y629623D01*
X789407Y629576D01*
X789319Y629532D01*
X789229Y629493D01*
X789138Y629456D01*
X789045Y629424D01*
X788951Y629395D01*
X788857Y629370D01*
X788761Y629349D01*
X788664Y629331D01*
X788567Y629318D01*
X788469Y629308D01*
X788371Y629302D01*
X788273Y629300D01*
X788273Y629299D02*
X785803Y629299D01*
X788767Y629299D02*
X790742Y625348D01*
X794653Y627324D02*
X796629Y634238D01*
X794653Y627324D02*
X799592Y627324D01*
X798110Y629299D02*
X798110Y625348D01*
D10*
X698500Y640080D02*
X698498Y639980D01*
X698492Y639881D01*
X698482Y639781D01*
X698469Y639683D01*
X698451Y639584D01*
X698430Y639487D01*
X698405Y639391D01*
X698376Y639295D01*
X698343Y639201D01*
X698307Y639108D01*
X698267Y639017D01*
X698223Y638927D01*
X698176Y638839D01*
X698126Y638753D01*
X698072Y638669D01*
X698015Y638587D01*
X697955Y638508D01*
X697891Y638430D01*
X697825Y638356D01*
X697756Y638284D01*
X697684Y638215D01*
X697610Y638149D01*
X697532Y638085D01*
X697453Y638025D01*
X697371Y637968D01*
X697287Y637914D01*
X697201Y637864D01*
X697113Y637817D01*
X697023Y637773D01*
X696932Y637733D01*
X696839Y637697D01*
X696745Y637664D01*
X696649Y637635D01*
X696553Y637610D01*
X696456Y637589D01*
X696357Y637571D01*
X696259Y637558D01*
X696159Y637548D01*
X696060Y637542D01*
X695960Y637540D01*
X698500Y655320D02*
X698498Y655420D01*
X698492Y655519D01*
X698482Y655619D01*
X698469Y655717D01*
X698451Y655816D01*
X698430Y655913D01*
X698405Y656009D01*
X698376Y656105D01*
X698343Y656199D01*
X698307Y656292D01*
X698267Y656383D01*
X698223Y656473D01*
X698176Y656561D01*
X698126Y656647D01*
X698072Y656731D01*
X698015Y656813D01*
X697955Y656892D01*
X697891Y656970D01*
X697825Y657044D01*
X697756Y657116D01*
X697684Y657185D01*
X697610Y657251D01*
X697532Y657315D01*
X697453Y657375D01*
X697371Y657432D01*
X697287Y657486D01*
X697201Y657536D01*
X697113Y657583D01*
X697023Y657627D01*
X696932Y657667D01*
X696839Y657703D01*
X696745Y657736D01*
X696649Y657765D01*
X696553Y657790D01*
X696456Y657811D01*
X696357Y657829D01*
X696259Y657842D01*
X696159Y657852D01*
X696060Y657858D01*
X695960Y657860D01*
X650240Y657860D02*
X650140Y657858D01*
X650041Y657852D01*
X649941Y657842D01*
X649843Y657829D01*
X649744Y657811D01*
X649647Y657790D01*
X649551Y657765D01*
X649455Y657736D01*
X649361Y657703D01*
X649268Y657667D01*
X649177Y657627D01*
X649087Y657583D01*
X648999Y657536D01*
X648913Y657486D01*
X648829Y657432D01*
X648747Y657375D01*
X648668Y657315D01*
X648590Y657251D01*
X648516Y657185D01*
X648444Y657116D01*
X648375Y657044D01*
X648309Y656970D01*
X648245Y656892D01*
X648185Y656813D01*
X648128Y656731D01*
X648074Y656647D01*
X648024Y656561D01*
X647977Y656473D01*
X647933Y656383D01*
X647893Y656292D01*
X647857Y656199D01*
X647824Y656105D01*
X647795Y656009D01*
X647770Y655913D01*
X647749Y655816D01*
X647731Y655717D01*
X647718Y655619D01*
X647708Y655519D01*
X647702Y655420D01*
X647700Y655320D01*
X647700Y640080D02*
X647702Y639980D01*
X647708Y639881D01*
X647718Y639781D01*
X647731Y639683D01*
X647749Y639584D01*
X647770Y639487D01*
X647795Y639391D01*
X647824Y639295D01*
X647857Y639201D01*
X647893Y639108D01*
X647933Y639017D01*
X647977Y638927D01*
X648024Y638839D01*
X648074Y638753D01*
X648128Y638669D01*
X648185Y638587D01*
X648245Y638508D01*
X648309Y638430D01*
X648375Y638356D01*
X648444Y638284D01*
X648516Y638215D01*
X648590Y638149D01*
X648668Y638085D01*
X648747Y638025D01*
X648829Y637968D01*
X648913Y637914D01*
X648999Y637864D01*
X649087Y637817D01*
X649177Y637773D01*
X649268Y637733D01*
X649361Y637697D01*
X649455Y637664D01*
X649551Y637635D01*
X649647Y637610D01*
X649744Y637589D01*
X649843Y637571D01*
X649941Y637558D01*
X650041Y637548D01*
X650140Y637542D01*
X650240Y637540D01*
X698500Y640080D02*
X698500Y655320D01*
X695960Y637540D02*
X692150Y637540D01*
X690880Y638810D01*
X692150Y657860D02*
X695960Y657860D01*
X692150Y657860D02*
X690880Y656590D01*
X655320Y638810D02*
X654050Y637540D01*
X655320Y638810D02*
X690880Y638810D01*
X655320Y656590D02*
X654050Y657860D01*
X655320Y656590D02*
X690880Y656590D01*
X654050Y637540D02*
X650240Y637540D01*
X650240Y657860D02*
X654050Y657860D01*
X647700Y655320D02*
X647700Y640080D01*
D14*
X645795Y647700D03*
X700405Y647700D03*
D15*
X684203Y634238D02*
X684203Y625348D01*
X684203Y634238D02*
X686673Y634238D01*
X686771Y634236D01*
X686869Y634230D01*
X686967Y634220D01*
X687064Y634207D01*
X687161Y634189D01*
X687257Y634168D01*
X687351Y634143D01*
X687445Y634114D01*
X687538Y634082D01*
X687629Y634045D01*
X687719Y634006D01*
X687807Y633962D01*
X687893Y633915D01*
X687978Y633865D01*
X688060Y633812D01*
X688140Y633755D01*
X688218Y633695D01*
X688293Y633632D01*
X688366Y633566D01*
X688436Y633497D01*
X688503Y633426D01*
X688568Y633352D01*
X688629Y633275D01*
X688688Y633196D01*
X688743Y633115D01*
X688795Y633032D01*
X688843Y632946D01*
X688888Y632859D01*
X688930Y632770D01*
X688968Y632680D01*
X689002Y632588D01*
X689033Y632495D01*
X689060Y632400D01*
X689083Y632305D01*
X689103Y632208D01*
X689118Y632112D01*
X689130Y632014D01*
X689138Y631916D01*
X689142Y631818D01*
X689142Y631720D01*
X689138Y631622D01*
X689130Y631524D01*
X689118Y631426D01*
X689103Y631330D01*
X689083Y631233D01*
X689060Y631138D01*
X689033Y631043D01*
X689002Y630950D01*
X688968Y630858D01*
X688930Y630768D01*
X688888Y630679D01*
X688843Y630592D01*
X688795Y630506D01*
X688743Y630423D01*
X688688Y630342D01*
X688629Y630263D01*
X688568Y630186D01*
X688503Y630112D01*
X688436Y630041D01*
X688366Y629972D01*
X688293Y629906D01*
X688218Y629843D01*
X688140Y629783D01*
X688060Y629726D01*
X687978Y629673D01*
X687893Y629623D01*
X687807Y629576D01*
X687719Y629532D01*
X687629Y629493D01*
X687538Y629456D01*
X687445Y629424D01*
X687351Y629395D01*
X687257Y629370D01*
X687161Y629349D01*
X687064Y629331D01*
X686967Y629318D01*
X686869Y629308D01*
X686771Y629302D01*
X686673Y629300D01*
X686673Y629299D02*
X684203Y629299D01*
X687167Y629299D02*
X689142Y625348D01*
X693053Y630287D02*
X696016Y630287D01*
X696102Y630285D01*
X696188Y630279D01*
X696274Y630270D01*
X696359Y630257D01*
X696444Y630240D01*
X696527Y630220D01*
X696610Y630196D01*
X696692Y630168D01*
X696772Y630137D01*
X696851Y630102D01*
X696928Y630064D01*
X697004Y630022D01*
X697078Y629978D01*
X697149Y629930D01*
X697219Y629879D01*
X697286Y629825D01*
X697351Y629768D01*
X697413Y629708D01*
X697473Y629646D01*
X697530Y629581D01*
X697584Y629514D01*
X697635Y629444D01*
X697683Y629373D01*
X697727Y629299D01*
X697769Y629223D01*
X697807Y629146D01*
X697842Y629067D01*
X697873Y628987D01*
X697901Y628905D01*
X697925Y628822D01*
X697945Y628739D01*
X697962Y628654D01*
X697975Y628569D01*
X697984Y628483D01*
X697990Y628397D01*
X697992Y628311D01*
X697992Y627817D01*
X697990Y627719D01*
X697984Y627621D01*
X697974Y627523D01*
X697961Y627426D01*
X697943Y627329D01*
X697922Y627233D01*
X697897Y627139D01*
X697868Y627045D01*
X697836Y626952D01*
X697799Y626861D01*
X697760Y626771D01*
X697716Y626683D01*
X697669Y626597D01*
X697619Y626512D01*
X697566Y626430D01*
X697509Y626350D01*
X697449Y626272D01*
X697386Y626197D01*
X697320Y626124D01*
X697251Y626054D01*
X697180Y625987D01*
X697106Y625922D01*
X697029Y625861D01*
X696950Y625802D01*
X696869Y625747D01*
X696786Y625695D01*
X696700Y625647D01*
X696613Y625602D01*
X696524Y625560D01*
X696434Y625522D01*
X696342Y625488D01*
X696249Y625457D01*
X696154Y625430D01*
X696059Y625407D01*
X695962Y625387D01*
X695866Y625372D01*
X695768Y625360D01*
X695670Y625352D01*
X695572Y625348D01*
X695474Y625348D01*
X695376Y625352D01*
X695278Y625360D01*
X695180Y625372D01*
X695084Y625387D01*
X694987Y625407D01*
X694892Y625430D01*
X694797Y625457D01*
X694704Y625488D01*
X694612Y625522D01*
X694522Y625560D01*
X694433Y625602D01*
X694346Y625647D01*
X694260Y625695D01*
X694177Y625747D01*
X694096Y625802D01*
X694017Y625861D01*
X693940Y625922D01*
X693866Y625987D01*
X693795Y626054D01*
X693726Y626124D01*
X693660Y626197D01*
X693597Y626272D01*
X693537Y626350D01*
X693480Y626430D01*
X693427Y626512D01*
X693377Y626597D01*
X693330Y626683D01*
X693286Y626771D01*
X693247Y626861D01*
X693210Y626952D01*
X693178Y627045D01*
X693149Y627139D01*
X693124Y627233D01*
X693103Y627329D01*
X693085Y627426D01*
X693072Y627523D01*
X693062Y627621D01*
X693056Y627719D01*
X693054Y627817D01*
X693053Y627817D02*
X693053Y630287D01*
X693055Y630411D01*
X693061Y630535D01*
X693071Y630659D01*
X693084Y630782D01*
X693102Y630905D01*
X693123Y631027D01*
X693148Y631149D01*
X693177Y631270D01*
X693210Y631389D01*
X693246Y631508D01*
X693287Y631625D01*
X693330Y631741D01*
X693378Y631856D01*
X693429Y631969D01*
X693484Y632081D01*
X693542Y632190D01*
X693603Y632298D01*
X693668Y632404D01*
X693736Y632508D01*
X693808Y632609D01*
X693882Y632709D01*
X693960Y632805D01*
X694040Y632900D01*
X694124Y632992D01*
X694210Y633081D01*
X694299Y633167D01*
X694391Y633251D01*
X694486Y633331D01*
X694582Y633409D01*
X694682Y633483D01*
X694783Y633555D01*
X694887Y633623D01*
X694993Y633688D01*
X695101Y633749D01*
X695210Y633807D01*
X695322Y633862D01*
X695435Y633913D01*
X695550Y633961D01*
X695666Y634004D01*
X695783Y634045D01*
X695902Y634081D01*
X696021Y634114D01*
X696142Y634143D01*
X696264Y634168D01*
X696386Y634189D01*
X696509Y634207D01*
X696632Y634220D01*
X696756Y634230D01*
X696880Y634236D01*
X697004Y634238D01*
D10*
X704850Y749300D02*
X717550Y749300D01*
X723900Y742950D01*
X723900Y730250D01*
X717550Y723900D01*
X698500Y730250D02*
X698500Y742950D01*
X704850Y749300D01*
X698500Y730250D02*
X704850Y723900D01*
X717550Y723900D01*
D13*
X702183Y758063D02*
X702183Y766953D01*
X702183Y758063D02*
X702181Y757963D01*
X702175Y757864D01*
X702165Y757764D01*
X702152Y757666D01*
X702134Y757567D01*
X702113Y757470D01*
X702088Y757374D01*
X702059Y757278D01*
X702026Y757184D01*
X701990Y757091D01*
X701950Y757000D01*
X701906Y756910D01*
X701859Y756822D01*
X701809Y756736D01*
X701755Y756652D01*
X701698Y756570D01*
X701638Y756491D01*
X701574Y756413D01*
X701508Y756339D01*
X701439Y756267D01*
X701367Y756198D01*
X701293Y756132D01*
X701215Y756068D01*
X701136Y756008D01*
X701054Y755951D01*
X700970Y755897D01*
X700884Y755847D01*
X700796Y755800D01*
X700706Y755756D01*
X700615Y755716D01*
X700522Y755680D01*
X700428Y755647D01*
X700332Y755618D01*
X700236Y755593D01*
X700139Y755572D01*
X700040Y755554D01*
X699942Y755541D01*
X699842Y755531D01*
X699743Y755525D01*
X699643Y755523D01*
X698373Y755523D01*
X708163Y755523D02*
X708163Y766953D01*
X711338Y766953D01*
X711449Y766951D01*
X711559Y766945D01*
X711670Y766936D01*
X711780Y766922D01*
X711889Y766905D01*
X711998Y766884D01*
X712106Y766859D01*
X712213Y766830D01*
X712319Y766798D01*
X712424Y766762D01*
X712527Y766722D01*
X712629Y766679D01*
X712730Y766632D01*
X712829Y766581D01*
X712926Y766528D01*
X713020Y766471D01*
X713113Y766410D01*
X713204Y766347D01*
X713293Y766280D01*
X713379Y766210D01*
X713462Y766137D01*
X713544Y766062D01*
X713622Y765984D01*
X713697Y765902D01*
X713770Y765819D01*
X713840Y765733D01*
X713907Y765644D01*
X713970Y765553D01*
X714031Y765460D01*
X714088Y765365D01*
X714141Y765269D01*
X714192Y765170D01*
X714239Y765069D01*
X714282Y764967D01*
X714322Y764864D01*
X714358Y764759D01*
X714390Y764653D01*
X714419Y764546D01*
X714444Y764438D01*
X714465Y764329D01*
X714482Y764220D01*
X714496Y764110D01*
X714505Y763999D01*
X714511Y763889D01*
X714513Y763778D01*
X714511Y763667D01*
X714505Y763557D01*
X714496Y763446D01*
X714482Y763336D01*
X714465Y763227D01*
X714444Y763118D01*
X714419Y763010D01*
X714390Y762903D01*
X714358Y762797D01*
X714322Y762692D01*
X714282Y762589D01*
X714239Y762487D01*
X714192Y762386D01*
X714141Y762287D01*
X714088Y762191D01*
X714031Y762096D01*
X713970Y762003D01*
X713907Y761912D01*
X713840Y761823D01*
X713770Y761737D01*
X713697Y761654D01*
X713622Y761572D01*
X713544Y761494D01*
X713462Y761419D01*
X713379Y761346D01*
X713293Y761276D01*
X713204Y761209D01*
X713113Y761146D01*
X713020Y761085D01*
X712926Y761028D01*
X712829Y760975D01*
X712730Y760924D01*
X712629Y760877D01*
X712527Y760834D01*
X712424Y760794D01*
X712319Y760758D01*
X712213Y760726D01*
X712106Y760697D01*
X711998Y760672D01*
X711889Y760651D01*
X711780Y760634D01*
X711670Y760620D01*
X711559Y760611D01*
X711449Y760605D01*
X711338Y760603D01*
X708163Y760603D01*
X719022Y758063D02*
X721562Y766953D01*
X719022Y758063D02*
X725372Y758063D01*
X723467Y760603D02*
X723467Y755523D01*
D10*
X781050Y749300D02*
X793750Y749300D01*
X800100Y742950D01*
X800100Y730250D01*
X793750Y723900D01*
X774700Y730250D02*
X774700Y742950D01*
X781050Y749300D01*
X774700Y730250D02*
X781050Y723900D01*
X793750Y723900D01*
D13*
X778383Y758063D02*
X778383Y766953D01*
X778383Y758063D02*
X778381Y757963D01*
X778375Y757864D01*
X778365Y757764D01*
X778352Y757666D01*
X778334Y757567D01*
X778313Y757470D01*
X778288Y757374D01*
X778259Y757278D01*
X778226Y757184D01*
X778190Y757091D01*
X778150Y757000D01*
X778106Y756910D01*
X778059Y756822D01*
X778009Y756736D01*
X777955Y756652D01*
X777898Y756570D01*
X777838Y756491D01*
X777774Y756413D01*
X777708Y756339D01*
X777639Y756267D01*
X777567Y756198D01*
X777493Y756132D01*
X777415Y756068D01*
X777336Y756008D01*
X777254Y755951D01*
X777170Y755897D01*
X777084Y755847D01*
X776996Y755800D01*
X776906Y755756D01*
X776815Y755716D01*
X776722Y755680D01*
X776628Y755647D01*
X776532Y755618D01*
X776436Y755593D01*
X776339Y755572D01*
X776240Y755554D01*
X776142Y755541D01*
X776042Y755531D01*
X775943Y755525D01*
X775843Y755523D01*
X774573Y755523D01*
X784363Y755523D02*
X784363Y766953D01*
X787538Y766953D01*
X787649Y766951D01*
X787759Y766945D01*
X787870Y766936D01*
X787980Y766922D01*
X788089Y766905D01*
X788198Y766884D01*
X788306Y766859D01*
X788413Y766830D01*
X788519Y766798D01*
X788624Y766762D01*
X788727Y766722D01*
X788829Y766679D01*
X788930Y766632D01*
X789029Y766581D01*
X789126Y766528D01*
X789220Y766471D01*
X789313Y766410D01*
X789404Y766347D01*
X789493Y766280D01*
X789579Y766210D01*
X789662Y766137D01*
X789744Y766062D01*
X789822Y765984D01*
X789897Y765902D01*
X789970Y765819D01*
X790040Y765733D01*
X790107Y765644D01*
X790170Y765553D01*
X790231Y765460D01*
X790288Y765365D01*
X790341Y765269D01*
X790392Y765170D01*
X790439Y765069D01*
X790482Y764967D01*
X790522Y764864D01*
X790558Y764759D01*
X790590Y764653D01*
X790619Y764546D01*
X790644Y764438D01*
X790665Y764329D01*
X790682Y764220D01*
X790696Y764110D01*
X790705Y763999D01*
X790711Y763889D01*
X790713Y763778D01*
X790711Y763667D01*
X790705Y763557D01*
X790696Y763446D01*
X790682Y763336D01*
X790665Y763227D01*
X790644Y763118D01*
X790619Y763010D01*
X790590Y762903D01*
X790558Y762797D01*
X790522Y762692D01*
X790482Y762589D01*
X790439Y762487D01*
X790392Y762386D01*
X790341Y762287D01*
X790288Y762191D01*
X790231Y762096D01*
X790170Y762003D01*
X790107Y761912D01*
X790040Y761823D01*
X789970Y761737D01*
X789897Y761654D01*
X789822Y761572D01*
X789744Y761494D01*
X789662Y761419D01*
X789579Y761346D01*
X789493Y761276D01*
X789404Y761209D01*
X789313Y761146D01*
X789220Y761085D01*
X789126Y761028D01*
X789029Y760975D01*
X788930Y760924D01*
X788829Y760877D01*
X788727Y760834D01*
X788624Y760794D01*
X788519Y760758D01*
X788413Y760726D01*
X788306Y760697D01*
X788198Y760672D01*
X788089Y760651D01*
X787980Y760634D01*
X787870Y760620D01*
X787759Y760611D01*
X787649Y760605D01*
X787538Y760603D01*
X784363Y760603D01*
X795222Y755523D02*
X799032Y755523D01*
X799132Y755525D01*
X799231Y755531D01*
X799331Y755541D01*
X799429Y755554D01*
X799528Y755572D01*
X799625Y755593D01*
X799721Y755618D01*
X799817Y755647D01*
X799911Y755680D01*
X800004Y755716D01*
X800095Y755756D01*
X800185Y755800D01*
X800273Y755847D01*
X800359Y755897D01*
X800443Y755951D01*
X800525Y756008D01*
X800604Y756068D01*
X800682Y756132D01*
X800756Y756198D01*
X800828Y756267D01*
X800897Y756339D01*
X800963Y756413D01*
X801027Y756491D01*
X801087Y756570D01*
X801144Y756652D01*
X801198Y756736D01*
X801248Y756822D01*
X801295Y756910D01*
X801339Y757000D01*
X801379Y757091D01*
X801415Y757184D01*
X801448Y757278D01*
X801477Y757374D01*
X801502Y757470D01*
X801523Y757567D01*
X801541Y757666D01*
X801554Y757764D01*
X801564Y757864D01*
X801570Y757963D01*
X801572Y758063D01*
X801572Y759333D01*
X801570Y759433D01*
X801564Y759532D01*
X801554Y759632D01*
X801541Y759730D01*
X801523Y759829D01*
X801502Y759926D01*
X801477Y760022D01*
X801448Y760118D01*
X801415Y760212D01*
X801379Y760305D01*
X801339Y760396D01*
X801295Y760486D01*
X801248Y760574D01*
X801198Y760660D01*
X801144Y760744D01*
X801087Y760826D01*
X801027Y760905D01*
X800963Y760983D01*
X800897Y761057D01*
X800828Y761129D01*
X800756Y761198D01*
X800682Y761264D01*
X800604Y761328D01*
X800525Y761388D01*
X800443Y761445D01*
X800359Y761499D01*
X800273Y761549D01*
X800185Y761596D01*
X800095Y761640D01*
X800004Y761680D01*
X799911Y761716D01*
X799817Y761749D01*
X799721Y761778D01*
X799625Y761803D01*
X799528Y761824D01*
X799429Y761842D01*
X799331Y761855D01*
X799231Y761865D01*
X799132Y761871D01*
X799032Y761873D01*
X795222Y761873D01*
X795222Y766953D01*
X801572Y766953D01*
M02*
