ISO-10303-21;
HEADER;
FILE_DESCRIPTION (( 'STEP AP203' ),
    '1' );
FILE_NAME ('Spacer 2.STEP',
    '2019-10-29T18:29:25',
    ( '' ),
    ( '' ),
    'SwSTEP 2.0',
    'SolidWorks 2018',
    '' );
FILE_SCHEMA (( 'CONFIG_CONTROL_DESIGN' ));
ENDSEC;

DATA;
#1 = DATE_AND_TIME ( #61, #584 ) ;
#2 = SECURITY_CLASSIFICATION ( '', '', #156 ) ;
#3 = VERTEX_POINT ( 'NONE', #598 ) ;
#4 = ORIENTED_EDGE ( 'NONE', *, *, #118, .T. ) ;
#5 = CARTESIAN_POINT ( 'NONE',  ( 0.0000000000000000000, 0.0000000000000000000, -17.49999999999999645 ) ) ;
#6 = VERTEX_POINT ( 'NONE', #459 ) ;
#7 = AXIS2_PLACEMENT_3D ( 'NONE', #436, #389, #338 ) ;
#8 = CARTESIAN_POINT ( 'NONE',  ( 0.0000000000000000000, 4.629999999999999893, 0.0000000000000000000 ) ) ;
#9 = CIRCLE ( 'NONE', #12, 2.000000000000001776 ) ;
#10 = CYLINDRICAL_SURFACE ( 'NONE', #306, 2.000000000000000888 ) ;
#11 = ORIENTED_EDGE ( 'NONE', *, *, #387, .F. ) ;
#12 = AXIS2_PLACEMENT_3D ( 'NONE', #162, #452, #458 ) ;
#13 = LINE ( 'NONE', #245, #359 ) ;
#14 = CIRCLE ( 'NONE', #170, 2.000000000000001776 ) ;
#15 = AXIS2_PLACEMENT_3D ( 'NONE', #427, #281, #324 ) ;
#16 = ORIENTED_EDGE ( 'NONE', *, *, #581, .F. ) ;
#17 = ORIENTED_EDGE ( 'NONE', *, *, #230, .T. ) ;
#18 = CARTESIAN_POINT ( 'NONE',  ( 0.0000000000000000000, 0.0000000000000000000, -19.50000000000000000 ) ) ;
#19 = CC_DESIGN_SECURITY_CLASSIFICATION ( #2, ( #307 ) ) ;
#20 = DIRECTION ( 'NONE',  ( -0.0000000000000000000, 1.000000000000000000, -0.0000000000000000000 ) ) ;
#21 = DIRECTION ( 'NONE',  ( -0.7071067811865515695, -0.0000000000000000000, -0.7071067811865435759 ) ) ;
#22 = CYLINDRICAL_SURFACE ( 'NONE', #589, 3.000000000000000888 ) ;
#23 = EDGE_LOOP ( 'NONE', ( #415, #176 ) ) ;
#24 = PERSON_AND_ORGANIZATION_ROLE ( 'classification_officer' ) ;
#25 = VERTEX_POINT ( 'NONE', #364 ) ;
#26 = EDGE_CURVE ( 'NONE', #225, #84, #505, .T. ) ;
#27 = SHAPE_DEFINITION_REPRESENTATION ( #145, #337 ) ;
#28 = ORIENTED_EDGE ( 'NONE', *, *, #420, .F. ) ;
#29 = VERTEX_POINT ( 'NONE', #277 ) ;
#30 = DIRECTION ( 'NONE',  ( 0.0000000000000000000, 1.000000000000000000, 0.0000000000000000000 ) ) ;
#31 = EDGE_CURVE ( 'NONE', #425, #114, #14, .T. ) ;
#32 = CARTESIAN_POINT ( 'NONE',  ( 35.00000000000000000, 4.629999999999999893, 2.999999999999634515 ) ) ;
#33 = VECTOR ( 'NONE', #166, 1000.000000000000000 ) ;
#34 = ORIENTED_EDGE ( 'NONE', *, *, #205, .F. ) ;
#35 = DIRECTION ( 'NONE',  ( -1.000000000000000000, 0.0000000000000000000, 1.047444401652939375E-14 ) ) ;
#36 = CC_DESIGN_APPROVAL ( #253, ( #307 ) ) ;
#37 = CARTESIAN_POINT ( 'NONE',  ( 28.02462877418178877, 4.629999999999999893, 28.54155185110476722 ) ) ;
#38 = CIRCLE ( 'NONE', #340, 3.000000000000002665 ) ;
#39 = CARTESIAN_POINT ( 'NONE',  ( 0.0000000000000000000, 0.0000000000000000000, -19.50000000000000000 ) ) ;
#40 = VECTOR ( 'NONE', #327, 1000.000000000000000 ) ;
#41 = MANIFOLD_SOLID_BREP ( 'Cut-Extrude2', #90 ) ;
#42 = EDGE_LOOP ( 'NONE', ( #154, #567, #499, #122 ) ) ;
#43 = DIRECTION ( 'NONE',  ( 0.0000000000000000000, 0.0000000000000000000, 1.000000000000000000 ) ) ;
#44 = DIRECTION ( 'NONE',  ( -0.0000000000000000000, 1.000000000000000000, -0.0000000000000000000 ) ) ;
#45 = ADVANCED_FACE ( 'NONE', ( #498 ), #555, .F. ) ;
#46 = EDGE_CURVE ( 'NONE', #115, #144, #479, .T. ) ;
#47 = DIRECTION ( 'NONE',  ( -0.0000000000000000000, 1.000000000000000000, -0.0000000000000000000 ) ) ;
#48 = ADVANCED_FACE ( 'NONE', ( #398 ), #593, .F. ) ;
#49 = DIRECTION ( 'NONE',  ( -0.7071067811865515695, -0.0000000000000000000, -0.7071067811865435759 ) ) ;
#50 = DIRECTION ( 'NONE',  ( 0.0000000000000000000, 1.000000000000000000, 0.0000000000000000000 ) ) ;
#51 = EDGE_CURVE ( 'NONE', #290, #84, #431, .T. ) ;
#52 = COORDINATED_UNIVERSAL_TIME_OFFSET ( 0, 0, .AHEAD. ) ;
#53 = CIRCLE ( 'NONE', #574, 40.00000000000000000 ) ;
#54 = ORIENTED_EDGE ( 'NONE', *, *, #71, .T. ) ;
#55 = ORIENTED_EDGE ( 'NONE', *, *, #56, .F. ) ;
#56 = EDGE_CURVE ( 'NONE', #25, #115, #360, .T. ) ;
#57 = FACE_OUTER_BOUND ( 'NONE', #266, .T. ) ;
#58 = LINE ( 'NONE', #523, #40 ) ;
#59 = VERTEX_POINT ( 'NONE', #512 ) ;
#60 = CARTESIAN_POINT ( 'NONE',  ( 0.0000000000000000000, 4.629999999999999893, -35.00000000000000000 ) ) ;
#61 = CALENDAR_DATE ( 2019, 29, 10 ) ;
#62 = VECTOR ( 'NONE', #521, 1000.000000000000000 ) ;
#63 = EDGE_CURVE ( 'NONE', #339, #114, #495, .T. ) ;
#64 = EDGE_LOOP ( 'NONE', ( #350, #299, #208, #352 ) ) ;
#65 = ORIENTED_EDGE ( 'NONE', *, *, #283, .T. ) ;
#66 = DIRECTION ( 'NONE',  ( 1.000000000000000000, 0.0000000000000000000, 0.0000000000000000000 ) ) ;
#67 = FACE_OUTER_BOUND ( 'NONE', #64, .T. ) ;
#68 = ORIENTED_EDGE ( 'NONE', *, *, #334, .T. ) ;
#69 = ORIENTED_EDGE ( 'NONE', *, *, #302, .F. ) ;
#70 = CC_DESIGN_APPROVAL ( #482, ( #2 ) ) ;
#71 = EDGE_CURVE ( 'NONE', #526, #298, #469, .T. ) ;
#72 = DIRECTION ( 'NONE',  ( -0.7071067811865515695, 0.0000000000000000000, -0.7071067811865435759 ) ) ;
#73 = PERSON_AND_ORGANIZATION ( #404, #81 ) ;
#74 = CIRCLE ( 'NONE', #15, 3.000000000000002665 ) ;
#75 = ORIENTED_EDGE ( 'NONE', *, *, #268, .T. ) ;
#76 = EDGE_CURVE ( 'NONE', #305, #218, #336, .T. ) ;
#77 = AXIS2_PLACEMENT_3D ( 'NONE', #242, #575, #66 ) ;
#78 = DIRECTION ( 'NONE',  ( -0.0000000000000000000, 1.000000000000000000, -0.0000000000000000000 ) ) ;
#79 = AXIS2_PLACEMENT_3D ( 'NONE', #18, #98, #247 ) ;
#80 = CARTESIAN_POINT ( 'NONE',  ( 0.0000000000000000000, 0.0000000000000000000, 0.0000000000000000000 ) ) ;
#81 = ORGANIZATION ( 'UNSPECIFIED', 'UNSPECIFIED', '' ) ;
#82 = CIRCLE ( 'NONE', #504, 3.000000000000002665 ) ;
#83 = EDGE_LOOP ( 'NONE', ( #362, #16 ) ) ;
#84 = VERTEX_POINT ( 'NONE', #133 ) ;
#85 = CARTESIAN_POINT ( 'NONE',  ( 0.0000000000000000000, 0.0000000000000000000, -35.00000000000000000 ) ) ;
#86 = CARTESIAN_POINT ( 'NONE',  ( 19.50000000000000000, 0.0000000000000000000, -2.042516583223233202E-13 ) ) ;
#87 = VECTOR ( 'NONE', #416, 1000.000000000000000 ) ;
#88 = ADVANCED_FACE ( 'NONE', ( #347 ), #10, .F. ) ;
#89 = ORIENTED_EDGE ( 'NONE', *, *, #363, .F. ) ;
#90 = CLOSED_SHELL ( 'NONE', ( #472, #88, #279, #421, #373, #263, #358, #168, #276, #228, #509, #48, #45, #599, #514, #566 ) ) ;
#91 = EDGE_CURVE ( 'NONE', #369, #59, #101, .T. ) ;
#92 = DIRECTION ( 'NONE',  ( 0.0000000000000000000, 1.000000000000000000, 0.0000000000000000000 ) ) ;
#93 = VECTOR ( 'NONE', #518, 1000.000000000000000 ) ;
#94 = ORIENTED_EDGE ( 'NONE', *, *, #100, .F. ) ;
#95 = DIRECTION ( 'NONE',  ( 0.0000000000000000000, 0.0000000000000000000, -1.000000000000000000 ) ) ;
#96 = ORIENTED_EDGE ( 'NONE', *, *, #334, .F. ) ;
#97 = CARTESIAN_POINT ( 'NONE',  ( -28.54155185110508341, 0.0000000000000000000, -28.02462877418146547 ) ) ;
#98 = DIRECTION ( 'NONE',  ( -0.0000000000000000000, 1.000000000000000000, -0.0000000000000000000 ) ) ;
#99 = CALENDAR_DATE ( 2019, 29, 10 ) ;
#100 = EDGE_CURVE ( 'NONE', #515, #425, #330, .T. ) ;
#101 = LINE ( 'NONE', #461, #87 ) ;
#102 = ORIENTED_EDGE ( 'NONE', *, *, #259, .T. ) ;
#103 = PERSON_AND_ORGANIZATION_ROLE ( 'creator' ) ;
#104 = APPROVAL_ROLE ( '' ) ;
#105 = CARTESIAN_POINT ( 'NONE',  ( -10.86191369486511427, 4.629999999999999893, -10.34499061794169705 ) ) ;
#106 = AXIS2_PLACEMENT_3D ( 'NONE', #313, #349, #72 ) ;
#107 = DATE_TIME_ROLE ( 'creation_date' ) ;
#108 = CARTESIAN_POINT ( 'NONE',  ( 0.0000000000000000000, 0.0000000000000000000, -32.00000000000000000 ) ) ;
#109 = DATE_AND_TIME ( #186, #280 ) ;
#110 = FACE_OUTER_BOUND ( 'NONE', #284, .T. ) ;
#111 = AXIS2_PLACEMENT_3D ( 'NONE', #492, #433, #243 ) ;
#112 = ORIENTED_EDGE ( 'NONE', *, *, #31, .T. ) ;
#113 = ORIENTED_EDGE ( 'NONE', *, *, #118, .F. ) ;
#114 = VERTEX_POINT ( 'NONE', #562 ) ;
#115 = VERTEX_POINT ( 'NONE', #270 ) ;
#116 = DIRECTION ( 'NONE',  ( 0.0000000000000000000, 1.000000000000000000, 0.0000000000000000000 ) ) ;
#117 = ORIENTED_EDGE ( 'NONE', *, *, #51, .F. ) ;
#118 = EDGE_CURVE ( 'NONE', #298, #84, #453, .T. ) ;
#119 = CARTESIAN_POINT ( 'NONE',  ( 0.0000000000000000000, 4.629999999999999893, 0.0000000000000000000 ) ) ;
#120 = DIRECTION ( 'NONE',  ( 0.0000000000000000000, 1.000000000000000000, 0.0000000000000000000 ) ) ;
#121 = LINE ( 'NONE', #229, #93 ) ;
#122 = ORIENTED_EDGE ( 'NONE', *, *, #302, .T. ) ;
#123 = CARTESIAN_POINT ( 'NONE',  ( 19.50000000000000000, 0.0000000000000000000, -2.042516583223233202E-13 ) ) ;
#124 = DIRECTION ( 'NONE',  ( -0.0000000000000000000, 1.000000000000000000, -0.0000000000000000000 ) ) ;
#125 = CARTESIAN_POINT ( 'NONE',  ( 0.0000000000000000000, 0.0000000000000000000, 0.0000000000000000000 ) ) ;
#126 = CARTESIAN_POINT ( 'NONE',  ( 0.0000000000000000000, 4.629999999999999893, -19.50000000000000000 ) ) ;
#127 = CIRCLE ( 'NONE', #160, 15.00000000000000000 ) ;
#128 = ORIENTED_EDGE ( 'NONE', *, *, #590, .F. ) ;
#129 = ORIENTED_EDGE ( 'NONE', *, *, #51, .T. ) ;
#130 = DIRECTION ( 'NONE',  ( -0.7071067811865515695, -0.0000000000000000000, -0.7071067811865435759 ) ) ;
#131 = AXIS2_PLACEMENT_3D ( 'NONE', #187, #291, #374 ) ;
#132 = CARTESIAN_POINT ( 'NONE',  ( 0.0000000000000000000, 4.629999999999999893, -32.00000000000000000 ) ) ;
#133 = CARTESIAN_POINT ( 'NONE',  ( -28.54155185110508341, 4.629999999999999893, -28.02462877418146547 ) ) ;
#134 = DIRECTION ( 'NONE',  ( 0.0000000000000000000, 0.0000000000000000000, -1.000000000000000000 ) ) ;
#135 = CALENDAR_DATE ( 2019, 29, 10 ) ;
#136 = CYLINDRICAL_SURFACE ( 'NONE', #148, 3.000000000000002665 ) ;
#137 = ORIENTED_EDGE ( 'NONE', *, *, #536, .F. ) ;
#138 = EDGE_LOOP ( 'NONE', ( #285, #588, #234, #292, #594, #383 ) ) ;
#139 = EDGE_CURVE ( 'NONE', #114, #425, #250, .T. ) ;
#140 = DIRECTION ( 'NONE',  ( 0.0000000000000000000, 0.0000000000000000000, 1.000000000000000000 ) ) ;
#141 = FACE_OUTER_BOUND ( 'NONE', #604, .T. ) ;
#142 = CIRCLE ( 'NONE', #434, 15.00000000000000000 ) ;
#143 = PLANE ( 'NONE',  #464 ) ;
#144 = VERTEX_POINT ( 'NONE', #510 ) ;
#145 = PRODUCT_DEFINITION_SHAPE ( 'NONE', 'NONE',  #554 ) ;
#146 = CARTESIAN_POINT ( 'NONE',  ( 0.0000000000000000000, 4.629999999999999893, -40.00000000000000000 ) ) ;
#147 = DIRECTION ( 'NONE',  ( -1.000000000000000000, 0.0000000000000000000, 1.047444401652939060E-14 ) ) ;
#148 = AXIS2_PLACEMENT_3D ( 'NONE', #544, #78, #211 ) ;
#149 = DIRECTION ( 'NONE',  ( 0.0000000000000000000, 0.0000000000000000000, 1.000000000000000000 ) ) ;
#150 = CARTESIAN_POINT ( 'NONE',  ( -10.86191369486511427, 0.0000000000000000000, -10.34499061794169705 ) ) ;
#151 = DIRECTION ( 'NONE',  ( 0.0000000000000000000, 1.000000000000000000, 0.0000000000000000000 ) ) ;
#152 = APPROVAL_PERSON_ORGANIZATION ( #592, #253, #155 ) ;
#153 = CIRCLE ( 'NONE', #278, 2.000000000000001776 ) ;
#154 = ORIENTED_EDGE ( 'NONE', *, *, #91, .F. ) ;
#155 = APPROVAL_ROLE ( '' ) ;
#156 = SECURITY_CLASSIFICATION_LEVEL ( 'unclassified' ) ;
#157 = CYLINDRICAL_SURFACE ( 'NONE', #224, 40.00000000000000000 ) ;
#158 = EDGE_LOOP ( 'NONE', ( #190, #182 ) ) ;
#159 = EDGE_LOOP ( 'NONE', ( #485, #102, #587, #255 ) ) ;
#160 = AXIS2_PLACEMENT_3D ( 'NONE', #488, #257, #573 ) ;
#161 = DIRECTION ( 'NONE',  ( -1.000000000000000000, 0.0000000000000000000, 1.047444401652939060E-14 ) ) ;
#162 = CARTESIAN_POINT ( 'NONE',  ( 0.0000000000000000000, 0.0000000000000000000, -19.50000000000000000 ) ) ;
#163 = PERSON_AND_ORGANIZATION ( #404, #81 ) ;
#164 = VECTOR ( 'NONE', #481, 1000.000000000000000 ) ;
#165 = ORIENTED_EDGE ( 'NONE', *, *, #230, .F. ) ;
#166 = DIRECTION ( 'NONE',  ( -0.0000000000000000000, 1.000000000000000000, -0.0000000000000000000 ) ) ;
#167 = ORIENTED_EDGE ( 'NONE', *, *, #560, .F. ) ;
#168 = ADVANCED_FACE ( 'NONE', ( #273, #304, #577, #315, #538 ), #516, .F. ) ;
#169 = DIRECTION ( 'NONE',  ( 0.0000000000000000000, 0.0000000000000000000, 1.000000000000000000 ) ) ;
#170 = AXIS2_PLACEMENT_3D ( 'NONE', #606, #561, #35 ) ;
#171 = CARTESIAN_POINT ( 'NONE',  ( 10.34499061794181785, 4.629999999999999893, 10.86191369486499703 ) ) ;
#172 = CARTESIAN_POINT ( 'NONE',  ( 0.0000000000000000000, 0.0000000000000000000, 0.0000000000000000000 ) ) ;
#173 = CIRCLE ( 'NONE', #356, 3.000000000000002665 ) ;
#174 = DIRECTION ( 'NONE',  ( 0.0000000000000000000, 1.000000000000000000, 0.0000000000000000000 ) ) ;
#175 = VECTOR ( 'NONE', #465, 1000.000000000000000 ) ;
#176 = ORIENTED_EDGE ( 'NONE', *, *, #420, .T. ) ;
#177 = DIRECTION ( 'NONE',  ( 0.0000000000000000000, 1.000000000000000000, 0.0000000000000000000 ) ) ;
#178 = DIRECTION ( 'NONE',  ( 0.0000000000000000000, 0.0000000000000000000, 1.000000000000000000 ) ) ;
#179 = CC_DESIGN_PERSON_AND_ORGANIZATION_ASSIGNMENT ( #239, #293, ( #554 ) ) ;
#180 = CARTESIAN_POINT ( 'NONE',  ( 19.50000000000000000, 0.0000000000000000000, -2.000000000000205169 ) ) ;
#181 = LOCAL_TIME ( 18, 29, 25.00000000000000000, #569 ) ;
#182 = ORIENTED_EDGE ( 'NONE', *, *, #31, .F. ) ;
#183 = DIRECTION ( 'NONE',  ( -0.7071067811865515695, -0.0000000000000000000, -0.7071067811865435759 ) ) ;
#184 = AXIS2_PLACEMENT_3D ( 'NONE', #534, #198, #386 ) ;
#185 = CARTESIAN_POINT ( 'NONE',  ( 0.0000000000000000000, 4.629999999999999893, 0.0000000000000000000 ) ) ;
#186 = CALENDAR_DATE ( 2019, 29, 10 ) ;
#187 = CARTESIAN_POINT ( 'NONE',  ( 19.50000000000000000, 4.629999999999999893, -2.042516583223233202E-13 ) ) ;
#188 = CIRCLE ( 'NONE', #184, 3.000000000000002665 ) ;
#189 = VERTEX_POINT ( 'NONE', #423 ) ;
#190 = ORIENTED_EDGE ( 'NONE', *, *, #139, .F. ) ;
#191 = DIRECTION ( 'NONE',  ( 0.0000000000000000000, 0.0000000000000000000, -1.000000000000000000 ) ) ;
#192 = APPROVAL_STATUS ( 'not_yet_approved' ) ;
#193 = CARTESIAN_POINT ( 'NONE',  ( 0.0000000000000000000, 4.629999999999999893, 0.0000000000000000000 ) ) ;
#194 = AXIS2_PLACEMENT_3D ( 'NONE', #529, #384, #191 ) ;
#195 = PERSON_AND_ORGANIZATION ( #404, #81 ) ;
#196 = APPROVAL_ROLE ( '' ) ;
#197 = ORIENTED_EDGE ( 'NONE', *, *, #311, .T. ) ;
#198 = DIRECTION ( 'NONE',  ( 0.0000000000000000000, 1.000000000000000000, 0.0000000000000000000 ) ) ;
#199 = CARTESIAN_POINT ( 'NONE',  ( 35.00000000000000000, 0.0000000000000000000, -3.666055405785290402E-13 ) ) ;
#200 = APPLICATION_CONTEXT ( 'configuration controlled 3d designs of mechanical parts and assemblies' ) ;
#201 = DATE_AND_TIME ( #99, #483 ) ;
#202 = EDGE_CURVE ( 'NONE', #3, #290, #142, .T. ) ;
#203 = FACE_OUTER_BOUND ( 'NONE', #235, .T. ) ;
#204 = ORIENTED_EDGE ( 'NONE', *, *, #517, .T. ) ;
#205 = EDGE_CURVE ( 'NONE', #305, #526, #58, .T. ) ;
#206 = PRODUCT ( 'Spacer 2', 'Spacer 2', '', ( #390 ) ) ;
#207 = LOCAL_TIME ( 18, 29, 25.00000000000000000, #335 ) ;
#208 = ORIENTED_EDGE ( 'NONE', *, *, #238, .F. ) ;
#209 = CARTESIAN_POINT ( 'NONE',  ( -28.54155185110508341, 0.0000000000000000000, -28.02462877418146547 ) ) ;
#210 = VERTEX_POINT ( 'NONE', #568 ) ;
#211 = DIRECTION ( 'NONE',  ( 0.0000000000000000000, 0.0000000000000000000, 1.000000000000000000 ) ) ;
#212 = AXIS2_PLACEMENT_3D ( 'NONE', #582, #30, #445 ) ;
#213 = CARTESIAN_POINT ( 'NONE',  ( 35.00000000000000000, 0.0000000000000000000, -3.666055405785290402E-13 ) ) ;
#214 = CARTESIAN_POINT ( 'NONE',  ( 0.0000000000000000000, 0.0000000000000000000, -19.50000000000000000 ) ) ;
#215 = LINE ( 'NONE', #108, #164 ) ;
#216 = ORIENTED_EDGE ( 'NONE', *, *, #409, .F. ) ;
#217 = CARTESIAN_POINT ( 'NONE',  ( 0.0000000000000000000, 0.0000000000000000000, -15.00000000000000000 ) ) ;
#218 = VERTEX_POINT ( 'NONE', #286 ) ;
#219 = DIRECTION ( 'NONE',  ( -0.0000000000000000000, 1.000000000000000000, -0.0000000000000000000 ) ) ;
#220 = DIRECTION ( 'NONE',  ( 0.0000000000000000000, 0.0000000000000000000, 1.000000000000000000 ) ) ;
#221 = DATE_AND_TIME ( #135, #181 ) ;
#222 = CARTESIAN_POINT ( 'NONE',  ( 0.0000000000000000000, 4.629999999999999893, 0.0000000000000000000 ) ) ;
#223 = ORIENTED_EDGE ( 'NONE', *, *, #476, .T. ) ;
#224 = AXIS2_PLACEMENT_3D ( 'NONE', #477, #287, #95 ) ;
#225 = VERTEX_POINT ( 'NONE', #275 ) ;
#226 = ORIENTED_EDGE ( 'NONE', *, *, #366, .T. ) ;
#227 = DIRECTION ( 'NONE',  ( 0.0000000000000000000, 0.0000000000000000000, 1.000000000000000000 ) ) ;
#228 = ADVANCED_FACE ( 'NONE', ( #67 ), #308, .F. ) ;
#229 = CARTESIAN_POINT ( 'NONE',  ( -10.86191369486511604, 4.629999999999999893, -10.34499061794169705 ) ) ;
#230 = EDGE_CURVE ( 'NONE', #59, #547, #74, .T. ) ;
#231 = CC_DESIGN_DATE_AND_TIME_ASSIGNMENT ( #221, #295, ( #2 ) ) ;
#232 = PERSON_AND_ORGANIZATION ( #404, #81 ) ;
#233 = CIRCLE ( 'NONE', #212, 15.00000000000000000 ) ;
#234 = ORIENTED_EDGE ( 'NONE', *, *, #272, .T. ) ;
#235 = EDGE_LOOP ( 'NONE', ( #137, #432, #17, #89 ) ) ;
#236 = AXIS2_PLACEMENT_3D ( 'NONE', #125, #524, #333 ) ;
#237 = UNCERTAINTY_MEASURE_WITH_UNIT (LENGTH_MEASURE( 1.000000000000000082E-05 ), #388, 'distance_accuracy_value', 'NONE');
#238 = EDGE_CURVE ( 'NONE', #595, #290, #121, .T. ) ;
#239 = PERSON_AND_ORGANIZATION ( #404, #81 ) ;
#240 = VECTOR ( 'NONE', #596, 1000.000000000000000 ) ;
#241 = ORIENTED_EDGE ( 'NONE', *, *, #329, .T. ) ;
#242 = CARTESIAN_POINT ( 'NONE',  ( 0.0000000000000000000, 0.0000000000000000000, 0.0000000000000000000 ) ) ;
#243 = DIRECTION ( 'NONE',  ( -1.000000000000000000, 0.0000000000000000000, 1.047444401652939375E-14 ) ) ;
#244 = DIRECTION ( 'NONE',  ( -0.7071067811865515695, 0.0000000000000000000, -0.7071067811865435759 ) ) ;
#245 = CARTESIAN_POINT ( 'NONE',  ( 10.34499061794181962, 4.629999999999999893, 10.86191369486499880 ) ) ;
#246 = APPLICATION_PROTOCOL_DEFINITION ( 'international standard', 'config_control_design', 1994, #491 ) ;
#247 = DIRECTION ( 'NONE',  ( 0.0000000000000000000, 0.0000000000000000000, 1.000000000000000000 ) ) ;
#248 = EDGE_CURVE ( 'NONE', #595, #225, #271, .T. ) ;
#249 = COORDINATED_UNIVERSAL_TIME_OFFSET ( 0, 0, .AHEAD. ) ;
#250 = CIRCLE ( 'NONE', #131, 2.000000000000001776 ) ;
#251 = ORIENTED_EDGE ( 'NONE', *, *, #590, .T. ) ;
#252 = DIRECTION ( 'NONE',  ( 0.0000000000000000000, 0.0000000000000000000, 1.000000000000000000 ) ) ;
#253 = APPROVAL ( #487, 'UNSPECIFIED' ) ;
#254 = CIRCLE ( 'NONE', #496, 2.000000000000001776 ) ;
#255 = ORIENTED_EDGE ( 'NONE', *, *, #311, .F. ) ;
#256 = ORIENTED_EDGE ( 'NONE', *, *, #283, .F. ) ;
#257 = DIRECTION ( 'NONE',  ( 0.0000000000000000000, 1.000000000000000000, 0.0000000000000000000 ) ) ;
#258 = ORIENTED_EDGE ( 'NONE', *, *, #517, .F. ) ;
#259 = EDGE_CURVE ( 'NONE', #3, #442, #494, .T. ) ;
#260 = DIRECTION ( 'NONE',  ( 0.0000000000000000000, 0.0000000000000000000, 1.000000000000000000 ) ) ;
#261 = EDGE_CURVE ( 'NONE', #513, #3, #563, .T. ) ;
#262 = APPROVAL_DATE_TIME ( #201, #482 ) ;
#263 = ADVANCED_FACE ( 'NONE', ( #570 ), #157, .T. ) ;
#264 = DIRECTION ( 'NONE',  ( 0.0000000000000000000, 0.0000000000000000000, 1.000000000000000000 ) ) ;
#265 = LINE ( 'NONE', #507, #289 ) ;
#266 = EDGE_LOOP ( 'NONE', ( #274, #204, #400, #348 ) ) ;
#267 = DIRECTION ( 'NONE',  ( -1.000000000000000000, 0.0000000000000000000, 1.047444401652939060E-14 ) ) ;
#268 = EDGE_CURVE ( 'NONE', #371, #189, #82, .T. ) ;
#269 = DIRECTION ( 'NONE',  ( 0.0000000000000000000, 1.000000000000000000, 0.0000000000000000000 ) ) ;
#270 = CARTESIAN_POINT ( 'NONE',  ( 0.0000000000000000000, 4.629999999999999893, -17.49999999999999645 ) ) ;
#271 = LINE ( 'NONE', #378, #303 ) ;
#272 = EDGE_CURVE ( 'NONE', #6, #442, #127, .T. ) ;
#273 = FACE_BOUND ( 'NONE', #341, .T. ) ;
#274 = ORIENTED_EDGE ( 'NONE', *, *, #366, .F. ) ;
#275 = CARTESIAN_POINT ( 'NONE',  ( -28.54155185110508341, 0.0000000000000000000, -28.02462877418146547 ) ) ;
#276 = ADVANCED_FACE ( 'NONE', ( #110 ), #381, .T. ) ;
#277 = CARTESIAN_POINT ( 'NONE',  ( 35.00000000000000000, 0.0000000000000000000, -3.000000000000367262 ) ) ;
#278 = AXIS2_PLACEMENT_3D ( 'NONE', #214, #120, #169 ) ;
#279 = ADVANCED_FACE ( 'NONE', ( #545 ), #602, .F. ) ;
#280 = LOCAL_TIME ( 18, 29, 25.00000000000000000, #531 ) ;
#281 = DIRECTION ( 'NONE',  ( 0.0000000000000000000, 1.000000000000000000, 0.0000000000000000000 ) ) ;
#282 = LINE ( 'NONE', #411, #33 ) ;
#283 = EDGE_CURVE ( 'NONE', #339, #515, #346, .T. ) ;
#284 = EDGE_LOOP ( 'NONE', ( #128, #579, #34, #451 ) ) ;
#285 = ORIENTED_EDGE ( 'NONE', *, *, #76, .F. ) ;
#286 = CARTESIAN_POINT ( 'NONE',  ( 0.0000000000000000000, 0.0000000000000000000, -40.00000000000000000 ) ) ;
#287 = DIRECTION ( 'NONE',  ( -0.0000000000000000000, -1.000000000000000000, -0.0000000000000000000 ) ) ;
#288 = DIRECTION ( 'NONE',  ( 0.0000000000000000000, 0.0000000000000000000, 1.000000000000000000 ) ) ;
#289 = VECTOR ( 'NONE', #47, 1000.000000000000000 ) ;
#290 = VERTEX_POINT ( 'NONE', #105 ) ;
#291 = DIRECTION ( 'NONE',  ( 0.0000000000000000000, 1.000000000000000000, 0.0000000000000000000 ) ) ;
#292 = ORIENTED_EDGE ( 'NONE', *, *, #344, .T. ) ;
#293 = PERSON_AND_ORGANIZATION_ROLE ( 'creator' ) ;
#294 = EDGE_CURVE ( 'NONE', #305, #6, #297, .T. ) ;
#295 = DATE_TIME_ROLE ( 'classification_date' ) ;
#296 = DIRECTION ( 'NONE',  ( -0.0000000000000000000, -1.000000000000000000, -0.0000000000000000000 ) ) ;
#297 = LINE ( 'NONE', #591, #376 ) ;
#298 = VERTEX_POINT ( 'NONE', #580 ) ;
#299 = ORIENTED_EDGE ( 'NONE', *, *, #202, .T. ) ;
#300 = DIRECTION ( 'NONE',  ( 0.0000000000000000000, -0.0000000000000000000, 1.000000000000000000 ) ) ;
#301 = PERSON_AND_ORGANIZATION_ROLE ( 'design_supplier' ) ;
#302 = EDGE_CURVE ( 'NONE', #547, #59, #449, .T. ) ;
#303 = VECTOR ( 'NONE', #183, 1000.000000000000000 ) ;
#304 = FACE_BOUND ( 'NONE', #484, .T. ) ;
#305 = VERTEX_POINT ( 'NONE', #380 ) ;
#306 = AXIS2_PLACEMENT_3D ( 'NONE', #86, #419, #471 ) ;
#307 = PRODUCT_DEFINITION_FORMATION_WITH_SPECIFIED_SOURCE ( 'ANY', '', #206, .NOT_KNOWN. ) ;
#308 = CYLINDRICAL_SURFACE ( 'NONE', #497, 15.00000000000000000 ) ;
#309 = EDGE_LOOP ( 'NONE', ( #258, #96, #223, #75 ) ) ;
#310 = CARTESIAN_POINT ( 'NONE',  ( 2.449293598294706907E-16, 0.0000000000000000000, -21.50000000000000000 ) ) ;
#311 = EDGE_CURVE ( 'NONE', #513, #6, #13, .T. ) ;
#312 = DIRECTION ( 'NONE',  ( -1.000000000000000000, 0.0000000000000000000, 1.047444401652939375E-14 ) ) ;
#313 = CARTESIAN_POINT ( 'NONE',  ( -28.54155185110508341, 0.0000000000000000000, -28.02462877418146547 ) ) ;
#314 = CIRCLE ( 'NONE', #7, 3.000000000000002665 ) ;
#315 = FACE_BOUND ( 'NONE', #395, .T. ) ;
#316 = ORIENTED_EDGE ( 'NONE', *, *, #581, .T. ) ;
#317 = DIRECTION ( 'NONE',  ( 0.0000000000000000000, 0.0000000000000000000, 1.000000000000000000 ) ) ;
#318 = CARTESIAN_POINT ( 'NONE',  ( -28.54155185110508341, 4.629999999999999893, -28.02462877418146547 ) ) ;
#319 = PERSON_AND_ORGANIZATION ( #404, #81 ) ;
#320 = AXIS2_PLACEMENT_3D ( 'NONE', #222, #177, #178 ) ;
#321 = ORIENTED_EDGE ( 'NONE', *, *, #26, .F. ) ;
#322 = ORIENTED_EDGE ( 'NONE', *, *, #202, .F. ) ;
#323 = DESIGN_CONTEXT ( 'detailed design', #200, 'design' ) ;
#324 = DIRECTION ( 'NONE',  ( 0.0000000000000000000, 0.0000000000000000000, 1.000000000000000000 ) ) ;
#325 = AXIS2_PLACEMENT_3D ( 'NONE', #119, #601, #354 ) ;
#326 = DIRECTION ( 'NONE',  ( -0.0000000000000000000, -1.000000000000000000, -0.0000000000000000000 ) ) ;
#327 = DIRECTION ( 'NONE',  ( -0.0000000000000000000, 1.000000000000000000, -0.0000000000000000000 ) ) ;
#328 = FACE_OUTER_BOUND ( 'NONE', #572, .T. ) ;
#329 = EDGE_CURVE ( 'NONE', #414, #369, #314, .T. ) ;
#330 = LINE ( 'NONE', #180, #450 ) ;
#331 = EDGE_LOOP ( 'NONE', ( #69, #165 ) ) ;
#332 = CARTESIAN_POINT ( 'NONE',  ( 0.0000000000000000000, 4.629999999999999893, 0.0000000000000000000 ) ) ;
#333 = DIRECTION ( 'NONE',  ( 0.0000000000000000000, -0.0000000000000000000, 1.000000000000000000 ) ) ;
#334 = EDGE_CURVE ( 'NONE', #210, #29, #188, .T. ) ;
#335 = COORDINATED_UNIVERSAL_TIME_OFFSET ( 0, 0, .AHEAD. ) ;
#336 = CIRCLE ( 'NONE', #489, 40.00000000000000000 ) ;
#337 = ADVANCED_BREP_SHAPE_REPRESENTATION ( 'Spacer 2', ( #41, #77 ), #474 ) ;
#338 = DIRECTION ( 'NONE',  ( 0.0000000000000000000, 0.0000000000000000000, 1.000000000000000000 ) ) ;
#339 = VERTEX_POINT ( 'NONE', #392 ) ;
#340 = AXIS2_PLACEMENT_3D ( 'NONE', #85, #607, #43 ) ;
#341 = EDGE_LOOP ( 'NONE', ( #68, #226 ) ) ;
#342 = DIRECTION ( 'NONE',  ( 0.0000000000000000000, 0.0000000000000000000, 1.000000000000000000 ) ) ;
#343 = CARTESIAN_POINT ( 'NONE',  ( 35.00000000000000000, 4.629999999999999893, -3.666055405785290402E-13 ) ) ;
#344 = EDGE_CURVE ( 'NONE', #442, #595, #233, .T. ) ;
#345 = CALENDAR_DATE ( 2019, 29, 10 ) ;
#346 = CIRCLE ( 'NONE', #111, 2.000000000000001776 ) ;
#347 = FACE_OUTER_BOUND ( 'NONE', #370, .T. ) ;
#348 = ORIENTED_EDGE ( 'NONE', *, *, #476, .F. ) ;
#349 = DIRECTION ( 'NONE',  ( 0.7071067811865435759, 0.0000000000000000000, -0.7071067811865515695 ) ) ;
#350 = ORIENTED_EDGE ( 'NONE', *, *, #259, .F. ) ;
#351 = ORIENTED_EDGE ( 'NONE', *, *, #409, .T. ) ;
#352 = ORIENTED_EDGE ( 'NONE', *, *, #344, .F. ) ;
#353 = AXIS2_PLACEMENT_3D ( 'NONE', #60, #443, #342 ) ;
#354 = DIRECTION ( 'NONE',  ( 0.0000000000000000000, 0.0000000000000000000, -1.000000000000000000 ) ) ;
#355 = DIRECTION ( 'NONE',  ( 0.0000000000000000000, 1.000000000000000000, 0.0000000000000000000 ) ) ;
#356 = AXIS2_PLACEMENT_3D ( 'NONE', #548, #269, #161 ) ;
#357 = APPROVAL_DATE_TIME ( #368, #438 ) ;
#358 = ADVANCED_FACE ( 'NONE', ( #406, #430, #424, #460, #553 ), #143, .T. ) ;
#359 = VECTOR ( 'NONE', #296, 1000.000000000000000 ) ;
#360 = LINE ( 'NONE', #5, #175 ) ;
#361 = CARTESIAN_POINT ( 'NONE',  ( 0.0000000000000000000, 0.0000000000000000000, -35.00000000000000000 ) ) ;
#362 = ORIENTED_EDGE ( 'NONE', *, *, #46, .F. ) ;
#363 = EDGE_CURVE ( 'NONE', #414, #547, #215, .T. ) ;
#364 = CARTESIAN_POINT ( 'NONE',  ( 0.0000000000000000000, 0.0000000000000000000, -17.49999999999999645 ) ) ;
#365 = DIRECTION ( 'NONE',  ( 0.0000000000000000000, 0.0000000000000000000, 1.000000000000000000 ) ) ;
#366 = EDGE_CURVE ( 'NONE', #29, #210, #478, .T. ) ;
#367 = DIRECTION ( 'NONE',  ( -0.0000000000000000000, 1.000000000000000000, -0.0000000000000000000 ) ) ;
#368 = DATE_AND_TIME ( #345, #207 ) ;
#369 = VERTEX_POINT ( 'NONE', #502 ) ;
#370 = EDGE_LOOP ( 'NONE', ( #216, #473, #112, #571 ) ) ;
#371 = VERTEX_POINT ( 'NONE', #32 ) ;
#372 = CC_DESIGN_PERSON_AND_ORGANIZATION_ASSIGNMENT ( #195, #444, ( #206 ) ) ;
#373 = ADVANCED_FACE ( 'NONE', ( #439 ), #586, .F. ) ;
#374 = DIRECTION ( 'NONE',  ( -1.000000000000000000, 0.0000000000000000000, 1.047444401652939375E-14 ) ) ;
#375 = EDGE_CURVE ( 'NONE', #218, #225, #53, .T. ) ;
#376 = VECTOR ( 'NONE', #21, 1000.000000000000000 ) ;
#377 = ORIENTED_EDGE ( 'NONE', *, *, #375, .T. ) ;
#378 = CARTESIAN_POINT ( 'NONE',  ( -28.54155185110508341, 0.0000000000000000000, -28.02462877418146547 ) ) ;
#379 = ORIENTED_EDGE ( 'NONE', *, *, #543, .T. ) ;
#380 = CARTESIAN_POINT ( 'NONE',  ( 28.02462877418178877, 0.0000000000000000000, 28.54155185110476722 ) ) ;
#381 = CYLINDRICAL_SURFACE ( 'NONE', #194, 40.00000000000000000 ) ;
#382 = ORIENTED_EDGE ( 'NONE', *, *, #454, .F. ) ;
#383 = ORIENTED_EDGE ( 'NONE', *, *, #375, .F. ) ;
#384 = DIRECTION ( 'NONE',  ( -0.0000000000000000000, -1.000000000000000000, -0.0000000000000000000 ) ) ;
#385 = DIRECTION ( 'NONE',  ( -0.0000000000000000000, -1.000000000000000000, -0.0000000000000000000 ) ) ;
#386 = DIRECTION ( 'NONE',  ( -1.000000000000000000, 0.0000000000000000000, 1.047444401652939060E-14 ) ) ;
#387 = EDGE_CURVE ( 'NONE', #189, #371, #173, .T. ) ;
#388 =( LENGTH_UNIT ( ) NAMED_UNIT ( * ) SI_UNIT ( .MILLI., .METRE. ) );
#389 = DIRECTION ( 'NONE',  ( 0.0000000000000000000, 1.000000000000000000, 0.0000000000000000000 ) ) ;
#390 = MECHANICAL_CONTEXT ( 'NONE', #491, 'mechanical' ) ;
#391 = LINE ( 'NONE', #558, #397 ) ;
#392 = CARTESIAN_POINT ( 'NONE',  ( 19.50000000000000000, 0.0000000000000000000, 1.999999999999796607 ) ) ;
#393 = ORIENTED_EDGE ( 'NONE', *, *, #63, .T. ) ;
#394 = CC_DESIGN_APPROVAL ( #438, ( #554 ) ) ;
#395 = EDGE_LOOP ( 'NONE', ( #241, #527 ) ) ;
#396 = AXIS2_PLACEMENT_3D ( 'NONE', #97, #583, #244 ) ;
#397 = VECTOR ( 'NONE', #367, 1000.000000000000000 ) ;
#398 = FACE_OUTER_BOUND ( 'NONE', #470, .T. ) ;
#399 = AXIS2_PLACEMENT_3D ( 'NONE', #508, #174, #220 ) ;
#400 = ORIENTED_EDGE ( 'NONE', *, *, #387, .T. ) ;
#401 = DIRECTION ( 'NONE',  ( 0.0000000000000000000, 0.0000000000000000000, 1.000000000000000000 ) ) ;
#402 = AXIS2_PLACEMENT_3D ( 'NONE', #123, #355, #312 ) ;
#403 = CYLINDRICAL_SURFACE ( 'NONE', #493, 3.000000000000000888 ) ;
#404 = PERSON ( 'UNSPECIFIED', 'UNSPECIFIED', 'UNSPECIFIED', ('UNSPECIFIED'), ('UNSPECIFIED'), ('UNSPECIFIED') ) ;
#405 = DIRECTION ( 'NONE',  ( 0.0000000000000000000, 1.000000000000000000, 0.0000000000000000000 ) ) ;
#406 = FACE_OUTER_BOUND ( 'NONE', #520, .T. ) ;
#407 = EDGE_LOOP ( 'NONE', ( #28, #379, #316, #55 ) ) ;
#408 = EDGE_LOOP ( 'NONE', ( #564, #11 ) ) ;
#409 = EDGE_CURVE ( 'NONE', #515, #339, #533, .T. ) ;
#410 = CARTESIAN_POINT ( 'NONE',  ( 19.50000000000000000, 4.629999999999999893, -2.000000000000205169 ) ) ;
#411 = CARTESIAN_POINT ( 'NONE',  ( 35.00000000000000000, 0.0000000000000000000, 2.999999999999634515 ) ) ;
#412 = DIRECTION ( 'NONE',  ( 0.0000000000000000000, 1.000000000000000000, 0.0000000000000000000 ) ) ;
#413 = LINE ( 'NONE', #468, #525 ) ;
#414 = VERTEX_POINT ( 'NONE', #506 ) ;
#415 = ORIENTED_EDGE ( 'NONE', *, *, #454, .T. ) ;
#416 = DIRECTION ( 'NONE',  ( -0.0000000000000000000, 1.000000000000000000, -0.0000000000000000000 ) ) ;
#417 = AXIS2_PLACEMENT_3D ( 'NONE', #361, #541, #260 ) ;
#418 = CARTESIAN_POINT ( 'NONE',  ( 19.50000000000000000, 0.0000000000000000000, -2.042516583223233202E-13 ) ) ;
#419 = DIRECTION ( 'NONE',  ( -0.0000000000000000000, 1.000000000000000000, -0.0000000000000000000 ) ) ;
#420 = EDGE_CURVE ( 'NONE', #426, #25, #9, .T. ) ;
#421 = ADVANCED_FACE ( 'NONE', ( #203 ), #136, .F. ) ;
#422 = PERSON_AND_ORGANIZATION ( #404, #81 ) ;
#423 = CARTESIAN_POINT ( 'NONE',  ( 35.00000000000000000, 4.629999999999999893, -3.000000000000367262 ) ) ;
#424 = FACE_BOUND ( 'NONE', #158, .T. ) ;
#425 = VERTEX_POINT ( 'NONE', #410 ) ;
#426 = VERTEX_POINT ( 'NONE', #310 ) ;
#427 = CARTESIAN_POINT ( 'NONE',  ( 0.0000000000000000000, 4.629999999999999893, -35.00000000000000000 ) ) ;
#428 = CC_DESIGN_PERSON_AND_ORGANIZATION_ASSIGNMENT ( #232, #301, ( #307 ) ) ;
#429 = DIRECTION ( 'NONE',  ( 0.0000000000000000000, 1.000000000000000000, 0.0000000000000000000 ) ) ;
#430 = FACE_BOUND ( 'NONE', #408, .T. ) ;
#431 = LINE ( 'NONE', #318, #603 ) ;
#432 = ORIENTED_EDGE ( 'NONE', *, *, #91, .T. ) ;
#433 = DIRECTION ( 'NONE',  ( 0.0000000000000000000, 1.000000000000000000, 0.0000000000000000000 ) ) ;
#434 = AXIS2_PLACEMENT_3D ( 'NONE', #8, #92, #288 ) ;
#435 = CARTESIAN_POINT ( 'NONE',  ( 0.0000000000000000000, 4.629999999999999893, -19.50000000000000000 ) ) ;
#436 = CARTESIAN_POINT ( 'NONE',  ( 0.0000000000000000000, 0.0000000000000000000, -35.00000000000000000 ) ) ;
#437 = PLANE ( 'NONE',  #396 ) ;
#438 = APPROVAL ( #532, 'UNSPECIFIED' ) ;
#439 = FACE_OUTER_BOUND ( 'NONE', #159, .T. ) ;
#440 = ORIENTED_EDGE ( 'NONE', *, *, #46, .T. ) ;
#441 =( NAMED_UNIT ( * ) PLANE_ANGLE_UNIT ( ) SI_UNIT ( $, .RADIAN. ) );
#442 = VERTEX_POINT ( 'NONE', #217 ) ;
#443 = DIRECTION ( 'NONE',  ( 0.0000000000000000000, 1.000000000000000000, 0.0000000000000000000 ) ) ;
#444 = PERSON_AND_ORGANIZATION_ROLE ( 'design_owner' ) ;
#445 = DIRECTION ( 'NONE',  ( 0.0000000000000000000, 0.0000000000000000000, 1.000000000000000000 ) ) ;
#446 = AXIS2_PLACEMENT_3D ( 'NONE', #39, #124, #365 ) ;
#447 = DIRECTION ( 'NONE',  ( 0.0000000000000000000, 1.000000000000000000, 0.0000000000000000000 ) ) ;
#448 = APPROVAL_PERSON_ORGANIZATION ( #163, #482, #196 ) ;
#449 = CIRCLE ( 'NONE', #353, 3.000000000000002665 ) ;
#450 = VECTOR ( 'NONE', #466, 1000.000000000000000 ) ;
#451 = ORIENTED_EDGE ( 'NONE', *, *, #76, .T. ) ;
#452 = DIRECTION ( 'NONE',  ( 0.0000000000000000000, 1.000000000000000000, 0.0000000000000000000 ) ) ;
#453 = CIRCLE ( 'NONE', #399, 40.00000000000000000 ) ;
#454 = EDGE_CURVE ( 'NONE', #25, #426, #153, .T. ) ;
#455 = ORIENTED_EDGE ( 'NONE', *, *, #56, .T. ) ;
#456 = ORIENTED_EDGE ( 'NONE', *, *, #248, .F. ) ;
#457 = CARTESIAN_POINT ( 'NONE',  ( 35.00000000000000000, 0.0000000000000000000, -3.666055405785290402E-13 ) ) ;
#458 = DIRECTION ( 'NONE',  ( 0.0000000000000000000, 0.0000000000000000000, 1.000000000000000000 ) ) ;
#459 = CARTESIAN_POINT ( 'NONE',  ( 10.34499061794181785, 0.0000000000000000000, 10.86191369486499703 ) ) ;
#460 = FACE_BOUND ( 'NONE', #83, .T. ) ;
#461 = CARTESIAN_POINT ( 'NONE',  ( 3.673940397442060854E-16, 0.0000000000000000000, -38.00000000000000711 ) ) ;
#462 = VECTOR ( 'NONE', #44, 1000.000000000000000 ) ;
#463 = ORIENTED_EDGE ( 'NONE', *, *, #543, .F. ) ;
#464 = AXIS2_PLACEMENT_3D ( 'NONE', #193, #151, #300 ) ;
#465 = DIRECTION ( 'NONE',  ( -0.0000000000000000000, 1.000000000000000000, -0.0000000000000000000 ) ) ;
#466 = DIRECTION ( 'NONE',  ( -0.0000000000000000000, 1.000000000000000000, -0.0000000000000000000 ) ) ;
#467 = AXIS2_PLACEMENT_3D ( 'NONE', #126, #412, #557 ) ;
#468 = CARTESIAN_POINT ( 'NONE',  ( -28.54155185110508341, 4.629999999999999893, -28.02462877418146547 ) ) ;
#469 = CIRCLE ( 'NONE', #320, 40.00000000000000000 ) ;
#470 = EDGE_LOOP ( 'NONE', ( #463, #382, #455, #440 ) ) ;
#471 = DIRECTION ( 'NONE',  ( 0.0000000000000000000, 0.0000000000000000000, 1.000000000000000000 ) ) ;
#472 = ADVANCED_FACE ( 'NONE', ( #57 ), #22, .F. ) ;
#473 = ORIENTED_EDGE ( 'NONE', *, *, #100, .T. ) ;
#474 =( GEOMETRIC_REPRESENTATION_CONTEXT ( 3 ) GLOBAL_UNCERTAINTY_ASSIGNED_CONTEXT ( ( #237 ) ) GLOBAL_UNIT_ASSIGNED_CONTEXT ( ( #388, #441, #490 ) ) REPRESENTATION_CONTEXT ( 'NONE', 'WORKASPACE' ) );
#475 = CARTESIAN_POINT ( 'NONE',  ( 0.0000000000000000000, 4.629999999999999893, -15.00000000000000000 ) ) ;
#476 = EDGE_CURVE ( 'NONE', #210, #371, #282, .T. ) ;
#477 = CARTESIAN_POINT ( 'NONE',  ( 0.0000000000000000000, 4.629999999999999893, 0.0000000000000000000 ) ) ;
#478 = CIRCLE ( 'NONE', #597, 3.000000000000002665 ) ;
#479 = CIRCLE ( 'NONE', #467, 2.000000000000001776 ) ;
#480 = EDGE_LOOP ( 'NONE', ( #113, #251, #377, #522 ) ) ;
#481 = DIRECTION ( 'NONE',  ( -0.0000000000000000000, 1.000000000000000000, -0.0000000000000000000 ) ) ;
#482 = APPROVAL ( #192, 'UNSPECIFIED' ) ;
#483 = LOCAL_TIME ( 18, 29, 25.00000000000000000, #249 ) ;
#484 = EDGE_LOOP ( 'NONE', ( #65, #351 ) ) ;
#485 = ORIENTED_EDGE ( 'NONE', *, *, #261, .T. ) ;
#486 = ORIENTED_EDGE ( 'NONE', *, *, #294, .F. ) ;
#487 = APPROVAL_STATUS ( 'not_yet_approved' ) ;
#488 = CARTESIAN_POINT ( 'NONE',  ( 0.0000000000000000000, 0.0000000000000000000, 0.0000000000000000000 ) ) ;
#489 = AXIS2_PLACEMENT_3D ( 'NONE', #172, #50, #317 ) ;
#490 =( NAMED_UNIT ( * ) SI_UNIT ( $, .STERADIAN. ) SOLID_ANGLE_UNIT ( ) );
#491 = APPLICATION_CONTEXT ( 'configuration controlled 3d designs of mechanical parts and assemblies' ) ;
#492 = CARTESIAN_POINT ( 'NONE',  ( 19.50000000000000000, 0.0000000000000000000, -2.042516583223233202E-13 ) ) ;
#493 = AXIS2_PLACEMENT_3D ( 'NONE', #199, #20, #252 ) ;
#494 = LINE ( 'NONE', #475, #62 ) ;
#495 = LINE ( 'NONE', #559, #462 ) ;
#496 = AXIS2_PLACEMENT_3D ( 'NONE', #435, #447, #149 ) ;
#497 = AXIS2_PLACEMENT_3D ( 'NONE', #332, #326, #134 ) ;
#498 = FACE_OUTER_BOUND ( 'NONE', #556, .T. ) ;
#499 = ORIENTED_EDGE ( 'NONE', *, *, #363, .T. ) ;
#500 = ORIENTED_EDGE ( 'NONE', *, *, #560, .T. ) ;
#501 = CC_DESIGN_DATE_AND_TIME_ASSIGNMENT ( #109, #107, ( #554 ) ) ;
#502 = CARTESIAN_POINT ( 'NONE',  ( 3.673940397442058882E-16, 0.0000000000000000000, -38.00000000000000711 ) ) ;
#503 = VECTOR ( 'NONE', #385, 1000.000000000000000 ) ;
#504 = AXIS2_PLACEMENT_3D ( 'NONE', #343, #540, #147 ) ;
#505 = LINE ( 'NONE', #209, #240 ) ;
#506 = CARTESIAN_POINT ( 'NONE',  ( 0.0000000000000000000, 0.0000000000000000000, -32.00000000000000000 ) ) ;
#507 = CARTESIAN_POINT ( 'NONE',  ( 35.00000000000000000, 0.0000000000000000000, -3.000000000000367262 ) ) ;
#508 = CARTESIAN_POINT ( 'NONE',  ( 0.0000000000000000000, 4.629999999999999893, 0.0000000000000000000 ) ) ;
#509 = ADVANCED_FACE ( 'NONE', ( #537 ), #519, .F. ) ;
#510 = CARTESIAN_POINT ( 'NONE',  ( 2.449293598294706907E-16, 4.629999999999999893, -21.50000000000000000 ) ) ;
#511 = LINE ( 'NONE', #146, #503 ) ;
#512 = CARTESIAN_POINT ( 'NONE',  ( 3.673940397442058882E-16, 4.629999999999999893, -38.00000000000000711 ) ) ;
#513 = VERTEX_POINT ( 'NONE', #171 ) ;
#514 = ADVANCED_FACE ( 'NONE', ( #328 ), #551, .F. ) ;
#515 = VERTEX_POINT ( 'NONE', #549 ) ;
#516 = PLANE ( 'NONE',  #236 ) ;
#517 = EDGE_CURVE ( 'NONE', #29, #189, #265, .T. ) ;
#518 = DIRECTION ( 'NONE',  ( 0.0000000000000000000, 1.000000000000000000, 0.0000000000000000000 ) ) ;
#519 = CYLINDRICAL_SURFACE ( 'NONE', #417, 3.000000000000002665 ) ;
#520 = EDGE_LOOP ( 'NONE', ( #167, #54, #4, #117, #322, #546 ) ) ;
#521 = DIRECTION ( 'NONE',  ( -0.0000000000000000000, -1.000000000000000000, -0.0000000000000000000 ) ) ;
#522 = ORIENTED_EDGE ( 'NONE', *, *, #26, .T. ) ;
#523 = CARTESIAN_POINT ( 'NONE',  ( 28.02462877418178877, 0.0000000000000000000, 28.54155185110476722 ) ) ;
#524 = DIRECTION ( 'NONE',  ( 0.0000000000000000000, 1.000000000000000000, 0.0000000000000000000 ) ) ;
#525 = VECTOR ( 'NONE', #49, 1000.000000000000000 ) ;
#526 = VERTEX_POINT ( 'NONE', #37 ) ;
#527 = ORIENTED_EDGE ( 'NONE', *, *, #536, .T. ) ;
#528 = AXIS2_PLACEMENT_3D ( 'NONE', #185, #429, #140 ) ;
#529 = CARTESIAN_POINT ( 'NONE',  ( 0.0000000000000000000, 4.629999999999999893, 0.0000000000000000000 ) ) ;
#530 = CC_DESIGN_PERSON_AND_ORGANIZATION_ASSIGNMENT ( #73, #103, ( #307 ) ) ;
#531 = COORDINATED_UNIVERSAL_TIME_OFFSET ( 0, 0, .AHEAD. ) ;
#532 = APPROVAL_STATUS ( 'not_yet_approved' ) ;
#533 = CIRCLE ( 'NONE', #402, 2.000000000000001776 ) ;
#534 = CARTESIAN_POINT ( 'NONE',  ( 35.00000000000000000, 0.0000000000000000000, -3.666055405785290402E-13 ) ) ;
#535 = ORIENTED_EDGE ( 'NONE', *, *, #205, .T. ) ;
#536 = EDGE_CURVE ( 'NONE', #369, #414, #38, .T. ) ;
#537 = FACE_OUTER_BOUND ( 'NONE', #42, .T. ) ;
#538 = FACE_OUTER_BOUND ( 'NONE', #138, .T. ) ;
#539 = ORIENTED_EDGE ( 'NONE', *, *, #139, .T. ) ;
#540 = DIRECTION ( 'NONE',  ( 0.0000000000000000000, 1.000000000000000000, 0.0000000000000000000 ) ) ;
#541 = DIRECTION ( 'NONE',  ( -0.0000000000000000000, 1.000000000000000000, -0.0000000000000000000 ) ) ;
#542 = APPROVAL_PERSON_ORGANIZATION ( #319, #438, #104 ) ;
#543 = EDGE_CURVE ( 'NONE', #426, #144, #391, .T. ) ;
#544 = CARTESIAN_POINT ( 'NONE',  ( 0.0000000000000000000, 0.0000000000000000000, -35.00000000000000000 ) ) ;
#545 = FACE_OUTER_BOUND ( 'NONE', #407, .T. ) ;
#546 = ORIENTED_EDGE ( 'NONE', *, *, #261, .F. ) ;
#547 = VERTEX_POINT ( 'NONE', #132 ) ;
#548 = CARTESIAN_POINT ( 'NONE',  ( 35.00000000000000000, 4.629999999999999893, -3.666055405785290402E-13 ) ) ;
#549 = CARTESIAN_POINT ( 'NONE',  ( 19.50000000000000000, 0.0000000000000000000, -2.000000000000205169 ) ) ;
#550 = PRODUCT_RELATED_PRODUCT_CATEGORY ( 'detail', '', ( #206 ) ) ;
#551 = PLANE ( 'NONE',  #106 ) ;
#552 = FACE_OUTER_BOUND ( 'NONE', #309, .T. ) ;
#553 = FACE_BOUND ( 'NONE', #331, .T. ) ;
#554 = PRODUCT_DEFINITION ( 'UNKNOWN', '', #307, #323 ) ;
#555 = CYLINDRICAL_SURFACE ( 'NONE', #600, 2.000000000000000888 ) ;
#556 = EDGE_LOOP ( 'NONE', ( #94, #256, #393, #539 ) ) ;
#557 = DIRECTION ( 'NONE',  ( 0.0000000000000000000, 0.0000000000000000000, 1.000000000000000000 ) ) ;
#558 = CARTESIAN_POINT ( 'NONE',  ( 2.449293598294707893E-16, 0.0000000000000000000, -21.50000000000000000 ) ) ;
#559 = CARTESIAN_POINT ( 'NONE',  ( 19.50000000000000000, 0.0000000000000000000, 1.999999999999796607 ) ) ;
#560 = EDGE_CURVE ( 'NONE', #526, #513, #413, .T. ) ;
#561 = DIRECTION ( 'NONE',  ( 0.0000000000000000000, 1.000000000000000000, 0.0000000000000000000 ) ) ;
#562 = CARTESIAN_POINT ( 'NONE',  ( 19.50000000000000000, 4.629999999999999893, 1.999999999999796607 ) ) ;
#563 = CIRCLE ( 'NONE', #528, 15.00000000000000000 ) ;
#564 = ORIENTED_EDGE ( 'NONE', *, *, #268, .F. ) ;
#565 = CC_DESIGN_PERSON_AND_ORGANIZATION_ASSIGNMENT ( #422, #24, ( #2 ) ) ;
#566 = ADVANCED_FACE ( 'NONE', ( #141 ), #437, .F. ) ;
#567 = ORIENTED_EDGE ( 'NONE', *, *, #329, .F. ) ;
#568 = CARTESIAN_POINT ( 'NONE',  ( 35.00000000000000000, 0.0000000000000000000, 2.999999999999634515 ) ) ;
#569 = COORDINATED_UNIVERSAL_TIME_OFFSET ( 0, 0, .AHEAD. ) ;
#570 = FACE_OUTER_BOUND ( 'NONE', #480, .T. ) ;
#571 = ORIENTED_EDGE ( 'NONE', *, *, #63, .F. ) ;
#572 = EDGE_LOOP ( 'NONE', ( #578, #129, #321, #456 ) ) ;
#573 = DIRECTION ( 'NONE',  ( 0.0000000000000000000, 0.0000000000000000000, 1.000000000000000000 ) ) ;
#574 = AXIS2_PLACEMENT_3D ( 'NONE', #80, #116, #401 ) ;
#575 = DIRECTION ( 'NONE',  ( 0.0000000000000000000, 0.0000000000000000000, 1.000000000000000000 ) ) ;
#576 = APPROVAL_DATE_TIME ( #1, #253 ) ;
#577 = FACE_BOUND ( 'NONE', #23, .T. ) ;
#578 = ORIENTED_EDGE ( 'NONE', *, *, #238, .T. ) ;
#579 = ORIENTED_EDGE ( 'NONE', *, *, #71, .F. ) ;
#580 = CARTESIAN_POINT ( 'NONE',  ( 0.0000000000000000000, 4.629999999999999893, -40.00000000000000000 ) ) ;
#581 = EDGE_CURVE ( 'NONE', #144, #115, #254, .T. ) ;
#582 = CARTESIAN_POINT ( 'NONE',  ( 0.0000000000000000000, 0.0000000000000000000, 0.0000000000000000000 ) ) ;
#583 = DIRECTION ( 'NONE',  ( 0.7071067811865435759, 0.0000000000000000000, -0.7071067811865515695 ) ) ;
#584 = LOCAL_TIME ( 18, 29, 25.00000000000000000, #52 ) ;
#585 = APPLICATION_PROTOCOL_DEFINITION ( 'international standard', 'config_control_design', 1994, #200 ) ;
#586 = CYLINDRICAL_SURFACE ( 'NONE', #325, 15.00000000000000000 ) ;
#587 = ORIENTED_EDGE ( 'NONE', *, *, #272, .F. ) ;
#588 = ORIENTED_EDGE ( 'NONE', *, *, #294, .T. ) ;
#589 = AXIS2_PLACEMENT_3D ( 'NONE', #457, #605, #264 ) ;
#590 = EDGE_CURVE ( 'NONE', #298, #218, #511, .T. ) ;
#591 = CARTESIAN_POINT ( 'NONE',  ( -28.54155185110508341, 0.0000000000000000000, -28.02462877418146547 ) ) ;
#592 = PERSON_AND_ORGANIZATION ( #404, #81 ) ;
#593 = CYLINDRICAL_SURFACE ( 'NONE', #446, 2.000000000000001776 ) ;
#594 = ORIENTED_EDGE ( 'NONE', *, *, #248, .T. ) ;
#595 = VERTEX_POINT ( 'NONE', #150 ) ;
#596 = DIRECTION ( 'NONE',  ( -0.0000000000000000000, 1.000000000000000000, -0.0000000000000000000 ) ) ;
#597 = AXIS2_PLACEMENT_3D ( 'NONE', #213, #405, #267 ) ;
#598 = CARTESIAN_POINT ( 'NONE',  ( 0.0000000000000000000, 4.629999999999999893, -15.00000000000000000 ) ) ;
#599 = ADVANCED_FACE ( 'NONE', ( #552 ), #403, .F. ) ;
#600 = AXIS2_PLACEMENT_3D ( 'NONE', #418, #219, #227 ) ;
#601 = DIRECTION ( 'NONE',  ( -0.0000000000000000000, -1.000000000000000000, -0.0000000000000000000 ) ) ;
#602 = CYLINDRICAL_SURFACE ( 'NONE', #79, 2.000000000000001776 ) ;
#603 = VECTOR ( 'NONE', #130, 1000.000000000000000 ) ;
#604 = EDGE_LOOP ( 'NONE', ( #197, #486, #535, #500 ) ) ;
#605 = DIRECTION ( 'NONE',  ( -0.0000000000000000000, 1.000000000000000000, -0.0000000000000000000 ) ) ;
#606 = CARTESIAN_POINT ( 'NONE',  ( 19.50000000000000000, 4.629999999999999893, -2.042516583223233202E-13 ) ) ;
#607 = DIRECTION ( 'NONE',  ( 0.0000000000000000000, 1.000000000000000000, 0.0000000000000000000 ) ) ;
ENDSEC;
END-ISO-10303-21;
