ISO-10303-21;
HEADER;
/* Generated by software containing ST-Developer
 * from STEP Tools, Inc. (www.steptools.com) 
 */

FILE_DESCRIPTION(
/* description */ (''),
/* implementation_level */ '2;1');

FILE_NAME(
/* name */ 'C:\\Users\\ferrerx\\Desktop\\headclamp_xshape5_long.stp',
/* time_stamp */ '2024-02-15T12:15:52Z',
/* author */ ('ferrerx'),
/* organization */ (''),
/* preprocessor_version */ 'ST-DEVELOPER v19',
/* originating_system */ 'Autodesk Inventor 2023',
/* authorisation */ '');

FILE_SCHEMA (('AUTOMOTIVE_DESIGN { 1 0 10303 214 3 1 1 }'));
ENDSEC;

DATA;
#10=MECHANICAL_DESIGN_GEOMETRIC_PRESENTATION_REPRESENTATION('',(#13),#1170);
#11=SHAPE_REPRESENTATION_RELATIONSHIP('SRR','None',#1177,#12);
#12=ADVANCED_BREP_SHAPE_REPRESENTATION('',(#14),#1169);
#13=STYLED_ITEM('',(#1186),#14);
#14=MANIFOLD_SOLID_BREP('Solid1',#697);
#15=FACE_BOUND('',#117,.T.);
#16=FACE_BOUND('',#118,.T.);
#17=FACE_BOUND('',#119,.T.);
#18=FACE_BOUND('',#120,.T.);
#19=FACE_BOUND('',#121,.T.);
#20=FACE_BOUND('',#122,.T.);
#21=FACE_BOUND('',#123,.T.);
#22=FACE_BOUND('',#125,.T.);
#23=FACE_BOUND('',#126,.T.);
#24=FACE_BOUND('',#127,.T.);
#25=FACE_BOUND('',#128,.T.);
#26=FACE_BOUND('',#129,.T.);
#27=FACE_BOUND('',#130,.T.);
#28=FACE_BOUND('',#131,.T.);
#29=PLANE('',#741);
#30=PLANE('',#742);
#31=PLANE('',#743);
#32=PLANE('',#747);
#33=PLANE('',#748);
#34=PLANE('',#749);
#35=PLANE('',#750);
#36=PLANE('',#751);
#37=PLANE('',#752);
#38=PLANE('',#753);
#39=PLANE('',#757);
#40=PLANE('',#758);
#41=PLANE('',#759);
#42=PLANE('',#769);
#43=PLANE('',#770);
#44=PLANE('',#771);
#45=PLANE('',#775);
#46=PLANE('',#776);
#47=PLANE('',#777);
#48=PLANE('',#778);
#49=PLANE('',#779);
#50=FACE_OUTER_BOUND('',#84,.T.);
#51=FACE_OUTER_BOUND('',#85,.T.);
#52=FACE_OUTER_BOUND('',#86,.T.);
#53=FACE_OUTER_BOUND('',#87,.T.);
#54=FACE_OUTER_BOUND('',#88,.T.);
#55=FACE_OUTER_BOUND('',#89,.T.);
#56=FACE_OUTER_BOUND('',#90,.T.);
#57=FACE_OUTER_BOUND('',#91,.T.);
#58=FACE_OUTER_BOUND('',#92,.T.);
#59=FACE_OUTER_BOUND('',#93,.T.);
#60=FACE_OUTER_BOUND('',#94,.T.);
#61=FACE_OUTER_BOUND('',#95,.T.);
#62=FACE_OUTER_BOUND('',#96,.T.);
#63=FACE_OUTER_BOUND('',#97,.T.);
#64=FACE_OUTER_BOUND('',#98,.T.);
#65=FACE_OUTER_BOUND('',#99,.T.);
#66=FACE_OUTER_BOUND('',#100,.T.);
#67=FACE_OUTER_BOUND('',#101,.T.);
#68=FACE_OUTER_BOUND('',#102,.T.);
#69=FACE_OUTER_BOUND('',#103,.T.);
#70=FACE_OUTER_BOUND('',#104,.T.);
#71=FACE_OUTER_BOUND('',#105,.T.);
#72=FACE_OUTER_BOUND('',#106,.T.);
#73=FACE_OUTER_BOUND('',#107,.T.);
#74=FACE_OUTER_BOUND('',#108,.T.);
#75=FACE_OUTER_BOUND('',#109,.T.);
#76=FACE_OUTER_BOUND('',#110,.T.);
#77=FACE_OUTER_BOUND('',#111,.T.);
#78=FACE_OUTER_BOUND('',#112,.T.);
#79=FACE_OUTER_BOUND('',#113,.T.);
#80=FACE_OUTER_BOUND('',#114,.T.);
#81=FACE_OUTER_BOUND('',#115,.T.);
#82=FACE_OUTER_BOUND('',#116,.T.);
#83=FACE_OUTER_BOUND('',#124,.T.);
#84=EDGE_LOOP('',(#458,#459,#460,#461));
#85=EDGE_LOOP('',(#462,#463,#464,#465));
#86=EDGE_LOOP('',(#466,#467,#468,#469));
#87=EDGE_LOOP('',(#470,#471,#472,#473));
#88=EDGE_LOOP('',(#474,#475,#476,#477));
#89=EDGE_LOOP('',(#478,#479,#480,#481));
#90=EDGE_LOOP('',(#482,#483,#484,#485));
#91=EDGE_LOOP('',(#486,#487,#488,#489));
#92=EDGE_LOOP('',(#490,#491,#492,#493));
#93=EDGE_LOOP('',(#494,#495,#496,#497));
#94=EDGE_LOOP('',(#498,#499,#500,#501));
#95=EDGE_LOOP('',(#502,#503,#504,#505));
#96=EDGE_LOOP('',(#506,#507,#508,#509));
#97=EDGE_LOOP('',(#510,#511,#512,#513));
#98=EDGE_LOOP('',(#514,#515,#516,#517));
#99=EDGE_LOOP('',(#518,#519,#520,#521));
#100=EDGE_LOOP('',(#522,#523,#524,#525));
#101=EDGE_LOOP('',(#526,#527,#528,#529));
#102=EDGE_LOOP('',(#530,#531,#532,#533));
#103=EDGE_LOOP('',(#534,#535,#536,#537));
#104=EDGE_LOOP('',(#538,#539,#540,#541));
#105=EDGE_LOOP('',(#542,#543,#544,#545));
#106=EDGE_LOOP('',(#546,#547,#548,#549));
#107=EDGE_LOOP('',(#550,#551,#552,#553));
#108=EDGE_LOOP('',(#554,#555,#556,#557));
#109=EDGE_LOOP('',(#558,#559,#560,#561));
#110=EDGE_LOOP('',(#562,#563,#564,#565));
#111=EDGE_LOOP('',(#566,#567,#568,#569));
#112=EDGE_LOOP('',(#570,#571,#572,#573));
#113=EDGE_LOOP('',(#574,#575,#576,#577));
#114=EDGE_LOOP('',(#578,#579,#580,#581));
#115=EDGE_LOOP('',(#582,#583,#584,#585));
#116=EDGE_LOOP('',(#586,#587,#588,#589,#590,#591,#592,#593,#594,#595,#596,
#597,#598,#599,#600,#601,#602,#603,#604,#605,#606,#607,#608,#609,#610));
#117=EDGE_LOOP('',(#611));
#118=EDGE_LOOP('',(#612));
#119=EDGE_LOOP('',(#613));
#120=EDGE_LOOP('',(#614));
#121=EDGE_LOOP('',(#615));
#122=EDGE_LOOP('',(#616));
#123=EDGE_LOOP('',(#617));
#124=EDGE_LOOP('',(#618,#619,#620,#621,#622,#623,#624,#625,#626,#627,#628,
#629,#630,#631,#632,#633,#634,#635,#636,#637,#638,#639,#640,#641,#642));
#125=EDGE_LOOP('',(#643));
#126=EDGE_LOOP('',(#644));
#127=EDGE_LOOP('',(#645));
#128=EDGE_LOOP('',(#646));
#129=EDGE_LOOP('',(#647));
#130=EDGE_LOOP('',(#648));
#131=EDGE_LOOP('',(#649));
#132=LINE('',#977,#202);
#133=LINE('',#983,#203);
#134=LINE('',#989,#204);
#135=LINE('',#995,#205);
#136=LINE('',#1001,#206);
#137=LINE('',#1007,#207);
#138=LINE('',#1013,#208);
#139=LINE('',#1018,#209);
#140=LINE('',#1020,#210);
#141=LINE('',#1022,#211);
#142=LINE('',#1023,#212);
#143=LINE('',#1026,#213);
#144=LINE('',#1028,#214);
#145=LINE('',#1029,#215);
#146=LINE('',#1032,#216);
#147=LINE('',#1034,#217);
#148=LINE('',#1035,#218);
#149=LINE('',#1041,#219);
#150=LINE('',#1044,#220);
#151=LINE('',#1046,#221);
#152=LINE('',#1047,#222);
#153=LINE('',#1050,#223);
#154=LINE('',#1052,#224);
#155=LINE('',#1053,#225);
#156=LINE('',#1056,#226);
#157=LINE('',#1058,#227);
#158=LINE('',#1059,#228);
#159=LINE('',#1062,#229);
#160=LINE('',#1064,#230);
#161=LINE('',#1065,#231);
#162=LINE('',#1068,#232);
#163=LINE('',#1070,#233);
#164=LINE('',#1071,#234);
#165=LINE('',#1074,#235);
#166=LINE('',#1076,#236);
#167=LINE('',#1077,#237);
#168=LINE('',#1080,#238);
#169=LINE('',#1082,#239);
#170=LINE('',#1083,#240);
#171=LINE('',#1089,#241);
#172=LINE('',#1092,#242);
#173=LINE('',#1094,#243);
#174=LINE('',#1095,#244);
#175=LINE('',#1098,#245);
#176=LINE('',#1100,#246);
#177=LINE('',#1101,#247);
#178=LINE('',#1104,#248);
#179=LINE('',#1106,#249);
#180=LINE('',#1107,#250);
#181=LINE('',#1113,#251);
#182=LINE('',#1119,#252);
#183=LINE('',#1125,#253);
#184=LINE('',#1128,#254);
#185=LINE('',#1130,#255);
#186=LINE('',#1131,#256);
#187=LINE('',#1134,#257);
#188=LINE('',#1136,#258);
#189=LINE('',#1137,#259);
#190=LINE('',#1140,#260);
#191=LINE('',#1142,#261);
#192=LINE('',#1143,#262);
#193=LINE('',#1149,#263);
#194=LINE('',#1152,#264);
#195=LINE('',#1154,#265);
#196=LINE('',#1155,#266);
#197=LINE('',#1158,#267);
#198=LINE('',#1160,#268);
#199=LINE('',#1161,#269);
#200=LINE('',#1163,#270);
#201=LINE('',#1164,#271);
#202=VECTOR('',#786,0.5);
#203=VECTOR('',#793,0.5);
#204=VECTOR('',#800,0.5);
#205=VECTOR('',#807,0.5);
#206=VECTOR('',#814,0.5);
#207=VECTOR('',#821,0.5);
#208=VECTOR('',#828,3.5);
#209=VECTOR('',#833,10.);
#210=VECTOR('',#834,10.);
#211=VECTOR('',#835,10.);
#212=VECTOR('',#836,10.);
#213=VECTOR('',#839,10.);
#214=VECTOR('',#840,10.);
#215=VECTOR('',#841,10.);
#216=VECTOR('',#844,10.);
#217=VECTOR('',#845,10.);
#218=VECTOR('',#846,10.);
#219=VECTOR('',#853,10.);
#220=VECTOR('',#856,10.);
#221=VECTOR('',#857,10.);
#222=VECTOR('',#858,10.);
#223=VECTOR('',#861,10.);
#224=VECTOR('',#862,10.);
#225=VECTOR('',#863,10.);
#226=VECTOR('',#866,10.);
#227=VECTOR('',#867,10.);
#228=VECTOR('',#868,10.);
#229=VECTOR('',#871,10.);
#230=VECTOR('',#872,10.);
#231=VECTOR('',#873,10.);
#232=VECTOR('',#876,10.);
#233=VECTOR('',#877,10.);
#234=VECTOR('',#878,10.);
#235=VECTOR('',#881,10.);
#236=VECTOR('',#882,10.);
#237=VECTOR('',#883,10.);
#238=VECTOR('',#886,10.);
#239=VECTOR('',#887,10.);
#240=VECTOR('',#888,10.);
#241=VECTOR('',#895,10.);
#242=VECTOR('',#898,10.);
#243=VECTOR('',#899,10.);
#244=VECTOR('',#900,10.);
#245=VECTOR('',#903,10.);
#246=VECTOR('',#904,10.);
#247=VECTOR('',#905,10.);
#248=VECTOR('',#908,10.);
#249=VECTOR('',#909,10.);
#250=VECTOR('',#910,10.);
#251=VECTOR('',#917,10.);
#252=VECTOR('',#924,10.);
#253=VECTOR('',#931,10.);
#254=VECTOR('',#934,10.);
#255=VECTOR('',#935,10.);
#256=VECTOR('',#936,10.);
#257=VECTOR('',#939,10.);
#258=VECTOR('',#940,10.);
#259=VECTOR('',#941,10.);
#260=VECTOR('',#944,10.);
#261=VECTOR('',#945,10.);
#262=VECTOR('',#946,10.);
#263=VECTOR('',#953,10.);
#264=VECTOR('',#956,10.);
#265=VECTOR('',#957,10.);
#266=VECTOR('',#958,10.);
#267=VECTOR('',#961,10.);
#268=VECTOR('',#962,10.);
#269=VECTOR('',#963,10.);
#270=VECTOR('',#966,10.);
#271=VECTOR('',#967,10.);
#272=CIRCLE('',#721,0.5);
#273=CIRCLE('',#722,0.5);
#274=CIRCLE('',#724,0.5);
#275=CIRCLE('',#725,0.5);
#276=CIRCLE('',#727,0.5);
#277=CIRCLE('',#728,0.5);
#278=CIRCLE('',#730,0.5);
#279=CIRCLE('',#731,0.5);
#280=CIRCLE('',#733,0.5);
#281=CIRCLE('',#734,0.5);
#282=CIRCLE('',#736,0.5);
#283=CIRCLE('',#737,0.5);
#284=CIRCLE('',#739,3.5);
#285=CIRCLE('',#740,3.5);
#286=CIRCLE('',#745,4.50033647203304);
#287=CIRCLE('',#746,4.50033647203304);
#288=CIRCLE('',#755,1.2200583175867);
#289=CIRCLE('',#756,1.2200583175867);
#290=CIRCLE('',#761,2.);
#291=CIRCLE('',#762,2.);
#292=CIRCLE('',#764,4.5857692466808);
#293=CIRCLE('',#765,4.5857692466808);
#294=CIRCLE('',#767,2.);
#295=CIRCLE('',#768,2.);
#296=CIRCLE('',#773,1.22001137919541);
#297=CIRCLE('',#774,1.22001137919541);
#298=VERTEX_POINT('',#974);
#299=VERTEX_POINT('',#976);
#300=VERTEX_POINT('',#980);
#301=VERTEX_POINT('',#982);
#302=VERTEX_POINT('',#986);
#303=VERTEX_POINT('',#988);
#304=VERTEX_POINT('',#992);
#305=VERTEX_POINT('',#994);
#306=VERTEX_POINT('',#998);
#307=VERTEX_POINT('',#1000);
#308=VERTEX_POINT('',#1004);
#309=VERTEX_POINT('',#1006);
#310=VERTEX_POINT('',#1010);
#311=VERTEX_POINT('',#1012);
#312=VERTEX_POINT('',#1016);
#313=VERTEX_POINT('',#1017);
#314=VERTEX_POINT('',#1019);
#315=VERTEX_POINT('',#1021);
#316=VERTEX_POINT('',#1025);
#317=VERTEX_POINT('',#1027);
#318=VERTEX_POINT('',#1031);
#319=VERTEX_POINT('',#1033);
#320=VERTEX_POINT('',#1037);
#321=VERTEX_POINT('',#1039);
#322=VERTEX_POINT('',#1043);
#323=VERTEX_POINT('',#1045);
#324=VERTEX_POINT('',#1049);
#325=VERTEX_POINT('',#1051);
#326=VERTEX_POINT('',#1055);
#327=VERTEX_POINT('',#1057);
#328=VERTEX_POINT('',#1061);
#329=VERTEX_POINT('',#1063);
#330=VERTEX_POINT('',#1067);
#331=VERTEX_POINT('',#1069);
#332=VERTEX_POINT('',#1073);
#333=VERTEX_POINT('',#1075);
#334=VERTEX_POINT('',#1079);
#335=VERTEX_POINT('',#1081);
#336=VERTEX_POINT('',#1085);
#337=VERTEX_POINT('',#1087);
#338=VERTEX_POINT('',#1091);
#339=VERTEX_POINT('',#1093);
#340=VERTEX_POINT('',#1097);
#341=VERTEX_POINT('',#1099);
#342=VERTEX_POINT('',#1103);
#343=VERTEX_POINT('',#1105);
#344=VERTEX_POINT('',#1109);
#345=VERTEX_POINT('',#1111);
#346=VERTEX_POINT('',#1115);
#347=VERTEX_POINT('',#1117);
#348=VERTEX_POINT('',#1121);
#349=VERTEX_POINT('',#1123);
#350=VERTEX_POINT('',#1127);
#351=VERTEX_POINT('',#1129);
#352=VERTEX_POINT('',#1133);
#353=VERTEX_POINT('',#1135);
#354=VERTEX_POINT('',#1139);
#355=VERTEX_POINT('',#1141);
#356=VERTEX_POINT('',#1145);
#357=VERTEX_POINT('',#1147);
#358=VERTEX_POINT('',#1151);
#359=VERTEX_POINT('',#1153);
#360=VERTEX_POINT('',#1157);
#361=VERTEX_POINT('',#1159);
#362=EDGE_CURVE('',#298,#298,#272,.T.);
#363=EDGE_CURVE('',#298,#299,#132,.T.);
#364=EDGE_CURVE('',#299,#299,#273,.T.);
#365=EDGE_CURVE('',#300,#300,#274,.T.);
#366=EDGE_CURVE('',#300,#301,#133,.T.);
#367=EDGE_CURVE('',#301,#301,#275,.T.);
#368=EDGE_CURVE('',#302,#302,#276,.T.);
#369=EDGE_CURVE('',#302,#303,#134,.T.);
#370=EDGE_CURVE('',#303,#303,#277,.T.);
#371=EDGE_CURVE('',#304,#304,#278,.T.);
#372=EDGE_CURVE('',#304,#305,#135,.T.);
#373=EDGE_CURVE('',#305,#305,#279,.T.);
#374=EDGE_CURVE('',#306,#306,#280,.T.);
#375=EDGE_CURVE('',#306,#307,#136,.T.);
#376=EDGE_CURVE('',#307,#307,#281,.T.);
#377=EDGE_CURVE('',#308,#308,#282,.T.);
#378=EDGE_CURVE('',#308,#309,#137,.T.);
#379=EDGE_CURVE('',#309,#309,#283,.T.);
#380=EDGE_CURVE('',#310,#310,#284,.T.);
#381=EDGE_CURVE('',#310,#311,#138,.T.);
#382=EDGE_CURVE('',#311,#311,#285,.T.);
#383=EDGE_CURVE('',#312,#313,#139,.T.);
#384=EDGE_CURVE('',#313,#314,#140,.T.);
#385=EDGE_CURVE('',#315,#314,#141,.T.);
#386=EDGE_CURVE('',#312,#315,#142,.T.);
#387=EDGE_CURVE('',#316,#312,#143,.T.);
#388=EDGE_CURVE('',#317,#315,#144,.T.);
#389=EDGE_CURVE('',#316,#317,#145,.T.);
#390=EDGE_CURVE('',#318,#316,#146,.T.);
#391=EDGE_CURVE('',#319,#317,#147,.T.);
#392=EDGE_CURVE('',#318,#319,#148,.T.);
#393=EDGE_CURVE('',#320,#318,#286,.T.);
#394=EDGE_CURVE('',#321,#319,#287,.T.);
#395=EDGE_CURVE('',#320,#321,#149,.T.);
#396=EDGE_CURVE('',#322,#320,#150,.T.);
#397=EDGE_CURVE('',#323,#321,#151,.T.);
#398=EDGE_CURVE('',#322,#323,#152,.T.);
#399=EDGE_CURVE('',#324,#322,#153,.T.);
#400=EDGE_CURVE('',#325,#323,#154,.T.);
#401=EDGE_CURVE('',#324,#325,#155,.T.);
#402=EDGE_CURVE('',#326,#324,#156,.T.);
#403=EDGE_CURVE('',#327,#325,#157,.T.);
#404=EDGE_CURVE('',#326,#327,#158,.T.);
#405=EDGE_CURVE('',#328,#326,#159,.T.);
#406=EDGE_CURVE('',#329,#327,#160,.T.);
#407=EDGE_CURVE('',#328,#329,#161,.T.);
#408=EDGE_CURVE('',#330,#328,#162,.T.);
#409=EDGE_CURVE('',#331,#329,#163,.T.);
#410=EDGE_CURVE('',#330,#331,#164,.T.);
#411=EDGE_CURVE('',#332,#330,#165,.T.);
#412=EDGE_CURVE('',#333,#331,#166,.T.);
#413=EDGE_CURVE('',#332,#333,#167,.T.);
#414=EDGE_CURVE('',#334,#332,#168,.T.);
#415=EDGE_CURVE('',#335,#333,#169,.T.);
#416=EDGE_CURVE('',#334,#335,#170,.T.);
#417=EDGE_CURVE('',#336,#334,#288,.T.);
#418=EDGE_CURVE('',#337,#335,#289,.T.);
#419=EDGE_CURVE('',#336,#337,#171,.T.);
#420=EDGE_CURVE('',#338,#336,#172,.T.);
#421=EDGE_CURVE('',#339,#337,#173,.T.);
#422=EDGE_CURVE('',#338,#339,#174,.T.);
#423=EDGE_CURVE('',#340,#338,#175,.T.);
#424=EDGE_CURVE('',#341,#339,#176,.T.);
#425=EDGE_CURVE('',#340,#341,#177,.T.);
#426=EDGE_CURVE('',#342,#340,#178,.T.);
#427=EDGE_CURVE('',#343,#341,#179,.T.);
#428=EDGE_CURVE('',#342,#343,#180,.T.);
#429=EDGE_CURVE('',#344,#342,#290,.T.);
#430=EDGE_CURVE('',#345,#343,#291,.T.);
#431=EDGE_CURVE('',#344,#345,#181,.T.);
#432=EDGE_CURVE('',#346,#344,#292,.T.);
#433=EDGE_CURVE('',#347,#345,#293,.T.);
#434=EDGE_CURVE('',#346,#347,#182,.T.);
#435=EDGE_CURVE('',#348,#346,#294,.T.);
#436=EDGE_CURVE('',#349,#347,#295,.T.);
#437=EDGE_CURVE('',#348,#349,#183,.T.);
#438=EDGE_CURVE('',#350,#348,#184,.T.);
#439=EDGE_CURVE('',#351,#349,#185,.T.);
#440=EDGE_CURVE('',#350,#351,#186,.T.);
#441=EDGE_CURVE('',#352,#350,#187,.T.);
#442=EDGE_CURVE('',#353,#351,#188,.T.);
#443=EDGE_CURVE('',#352,#353,#189,.T.);
#444=EDGE_CURVE('',#354,#352,#190,.T.);
#445=EDGE_CURVE('',#355,#353,#191,.T.);
#446=EDGE_CURVE('',#354,#355,#192,.T.);
#447=EDGE_CURVE('',#356,#354,#296,.T.);
#448=EDGE_CURVE('',#357,#355,#297,.T.);
#449=EDGE_CURVE('',#356,#357,#193,.T.);
#450=EDGE_CURVE('',#358,#356,#194,.T.);
#451=EDGE_CURVE('',#359,#357,#195,.T.);
#452=EDGE_CURVE('',#358,#359,#196,.T.);
#453=EDGE_CURVE('',#360,#358,#197,.T.);
#454=EDGE_CURVE('',#361,#359,#198,.T.);
#455=EDGE_CURVE('',#360,#361,#199,.T.);
#456=EDGE_CURVE('',#313,#360,#200,.T.);
#457=EDGE_CURVE('',#314,#361,#201,.T.);
#458=ORIENTED_EDGE('',*,*,#362,.F.);
#459=ORIENTED_EDGE('',*,*,#363,.T.);
#460=ORIENTED_EDGE('',*,*,#364,.F.);
#461=ORIENTED_EDGE('',*,*,#363,.F.);
#462=ORIENTED_EDGE('',*,*,#365,.F.);
#463=ORIENTED_EDGE('',*,*,#366,.T.);
#464=ORIENTED_EDGE('',*,*,#367,.F.);
#465=ORIENTED_EDGE('',*,*,#366,.F.);
#466=ORIENTED_EDGE('',*,*,#368,.F.);
#467=ORIENTED_EDGE('',*,*,#369,.T.);
#468=ORIENTED_EDGE('',*,*,#370,.F.);
#469=ORIENTED_EDGE('',*,*,#369,.F.);
#470=ORIENTED_EDGE('',*,*,#371,.F.);
#471=ORIENTED_EDGE('',*,*,#372,.T.);
#472=ORIENTED_EDGE('',*,*,#373,.F.);
#473=ORIENTED_EDGE('',*,*,#372,.F.);
#474=ORIENTED_EDGE('',*,*,#374,.F.);
#475=ORIENTED_EDGE('',*,*,#375,.T.);
#476=ORIENTED_EDGE('',*,*,#376,.F.);
#477=ORIENTED_EDGE('',*,*,#375,.F.);
#478=ORIENTED_EDGE('',*,*,#377,.F.);
#479=ORIENTED_EDGE('',*,*,#378,.T.);
#480=ORIENTED_EDGE('',*,*,#379,.F.);
#481=ORIENTED_EDGE('',*,*,#378,.F.);
#482=ORIENTED_EDGE('',*,*,#380,.F.);
#483=ORIENTED_EDGE('',*,*,#381,.T.);
#484=ORIENTED_EDGE('',*,*,#382,.F.);
#485=ORIENTED_EDGE('',*,*,#381,.F.);
#486=ORIENTED_EDGE('',*,*,#383,.T.);
#487=ORIENTED_EDGE('',*,*,#384,.T.);
#488=ORIENTED_EDGE('',*,*,#385,.F.);
#489=ORIENTED_EDGE('',*,*,#386,.F.);
#490=ORIENTED_EDGE('',*,*,#387,.T.);
#491=ORIENTED_EDGE('',*,*,#386,.T.);
#492=ORIENTED_EDGE('',*,*,#388,.F.);
#493=ORIENTED_EDGE('',*,*,#389,.F.);
#494=ORIENTED_EDGE('',*,*,#390,.T.);
#495=ORIENTED_EDGE('',*,*,#389,.T.);
#496=ORIENTED_EDGE('',*,*,#391,.F.);
#497=ORIENTED_EDGE('',*,*,#392,.F.);
#498=ORIENTED_EDGE('',*,*,#393,.T.);
#499=ORIENTED_EDGE('',*,*,#392,.T.);
#500=ORIENTED_EDGE('',*,*,#394,.F.);
#501=ORIENTED_EDGE('',*,*,#395,.F.);
#502=ORIENTED_EDGE('',*,*,#396,.T.);
#503=ORIENTED_EDGE('',*,*,#395,.T.);
#504=ORIENTED_EDGE('',*,*,#397,.F.);
#505=ORIENTED_EDGE('',*,*,#398,.F.);
#506=ORIENTED_EDGE('',*,*,#399,.T.);
#507=ORIENTED_EDGE('',*,*,#398,.T.);
#508=ORIENTED_EDGE('',*,*,#400,.F.);
#509=ORIENTED_EDGE('',*,*,#401,.F.);
#510=ORIENTED_EDGE('',*,*,#402,.T.);
#511=ORIENTED_EDGE('',*,*,#401,.T.);
#512=ORIENTED_EDGE('',*,*,#403,.F.);
#513=ORIENTED_EDGE('',*,*,#404,.F.);
#514=ORIENTED_EDGE('',*,*,#405,.T.);
#515=ORIENTED_EDGE('',*,*,#404,.T.);
#516=ORIENTED_EDGE('',*,*,#406,.F.);
#517=ORIENTED_EDGE('',*,*,#407,.F.);
#518=ORIENTED_EDGE('',*,*,#408,.T.);
#519=ORIENTED_EDGE('',*,*,#407,.T.);
#520=ORIENTED_EDGE('',*,*,#409,.F.);
#521=ORIENTED_EDGE('',*,*,#410,.F.);
#522=ORIENTED_EDGE('',*,*,#411,.T.);
#523=ORIENTED_EDGE('',*,*,#410,.T.);
#524=ORIENTED_EDGE('',*,*,#412,.F.);
#525=ORIENTED_EDGE('',*,*,#413,.F.);
#526=ORIENTED_EDGE('',*,*,#414,.T.);
#527=ORIENTED_EDGE('',*,*,#413,.T.);
#528=ORIENTED_EDGE('',*,*,#415,.F.);
#529=ORIENTED_EDGE('',*,*,#416,.F.);
#530=ORIENTED_EDGE('',*,*,#417,.T.);
#531=ORIENTED_EDGE('',*,*,#416,.T.);
#532=ORIENTED_EDGE('',*,*,#418,.F.);
#533=ORIENTED_EDGE('',*,*,#419,.F.);
#534=ORIENTED_EDGE('',*,*,#420,.T.);
#535=ORIENTED_EDGE('',*,*,#419,.T.);
#536=ORIENTED_EDGE('',*,*,#421,.F.);
#537=ORIENTED_EDGE('',*,*,#422,.F.);
#538=ORIENTED_EDGE('',*,*,#423,.T.);
#539=ORIENTED_EDGE('',*,*,#422,.T.);
#540=ORIENTED_EDGE('',*,*,#424,.F.);
#541=ORIENTED_EDGE('',*,*,#425,.F.);
#542=ORIENTED_EDGE('',*,*,#426,.T.);
#543=ORIENTED_EDGE('',*,*,#425,.T.);
#544=ORIENTED_EDGE('',*,*,#427,.F.);
#545=ORIENTED_EDGE('',*,*,#428,.F.);
#546=ORIENTED_EDGE('',*,*,#429,.T.);
#547=ORIENTED_EDGE('',*,*,#428,.T.);
#548=ORIENTED_EDGE('',*,*,#430,.F.);
#549=ORIENTED_EDGE('',*,*,#431,.F.);
#550=ORIENTED_EDGE('',*,*,#432,.T.);
#551=ORIENTED_EDGE('',*,*,#431,.T.);
#552=ORIENTED_EDGE('',*,*,#433,.F.);
#553=ORIENTED_EDGE('',*,*,#434,.F.);
#554=ORIENTED_EDGE('',*,*,#435,.T.);
#555=ORIENTED_EDGE('',*,*,#434,.T.);
#556=ORIENTED_EDGE('',*,*,#436,.F.);
#557=ORIENTED_EDGE('',*,*,#437,.F.);
#558=ORIENTED_EDGE('',*,*,#438,.T.);
#559=ORIENTED_EDGE('',*,*,#437,.T.);
#560=ORIENTED_EDGE('',*,*,#439,.F.);
#561=ORIENTED_EDGE('',*,*,#440,.F.);
#562=ORIENTED_EDGE('',*,*,#441,.T.);
#563=ORIENTED_EDGE('',*,*,#440,.T.);
#564=ORIENTED_EDGE('',*,*,#442,.F.);
#565=ORIENTED_EDGE('',*,*,#443,.F.);
#566=ORIENTED_EDGE('',*,*,#444,.T.);
#567=ORIENTED_EDGE('',*,*,#443,.T.);
#568=ORIENTED_EDGE('',*,*,#445,.F.);
#569=ORIENTED_EDGE('',*,*,#446,.F.);
#570=ORIENTED_EDGE('',*,*,#447,.T.);
#571=ORIENTED_EDGE('',*,*,#446,.T.);
#572=ORIENTED_EDGE('',*,*,#448,.F.);
#573=ORIENTED_EDGE('',*,*,#449,.F.);
#574=ORIENTED_EDGE('',*,*,#450,.T.);
#575=ORIENTED_EDGE('',*,*,#449,.T.);
#576=ORIENTED_EDGE('',*,*,#451,.F.);
#577=ORIENTED_EDGE('',*,*,#452,.F.);
#578=ORIENTED_EDGE('',*,*,#453,.T.);
#579=ORIENTED_EDGE('',*,*,#452,.T.);
#580=ORIENTED_EDGE('',*,*,#454,.F.);
#581=ORIENTED_EDGE('',*,*,#455,.F.);
#582=ORIENTED_EDGE('',*,*,#456,.T.);
#583=ORIENTED_EDGE('',*,*,#455,.T.);
#584=ORIENTED_EDGE('',*,*,#457,.F.);
#585=ORIENTED_EDGE('',*,*,#384,.F.);
#586=ORIENTED_EDGE('',*,*,#457,.T.);
#587=ORIENTED_EDGE('',*,*,#454,.T.);
#588=ORIENTED_EDGE('',*,*,#451,.T.);
#589=ORIENTED_EDGE('',*,*,#448,.T.);
#590=ORIENTED_EDGE('',*,*,#445,.T.);
#591=ORIENTED_EDGE('',*,*,#442,.T.);
#592=ORIENTED_EDGE('',*,*,#439,.T.);
#593=ORIENTED_EDGE('',*,*,#436,.T.);
#594=ORIENTED_EDGE('',*,*,#433,.T.);
#595=ORIENTED_EDGE('',*,*,#430,.T.);
#596=ORIENTED_EDGE('',*,*,#427,.T.);
#597=ORIENTED_EDGE('',*,*,#424,.T.);
#598=ORIENTED_EDGE('',*,*,#421,.T.);
#599=ORIENTED_EDGE('',*,*,#418,.T.);
#600=ORIENTED_EDGE('',*,*,#415,.T.);
#601=ORIENTED_EDGE('',*,*,#412,.T.);
#602=ORIENTED_EDGE('',*,*,#409,.T.);
#603=ORIENTED_EDGE('',*,*,#406,.T.);
#604=ORIENTED_EDGE('',*,*,#403,.T.);
#605=ORIENTED_EDGE('',*,*,#400,.T.);
#606=ORIENTED_EDGE('',*,*,#397,.T.);
#607=ORIENTED_EDGE('',*,*,#394,.T.);
#608=ORIENTED_EDGE('',*,*,#391,.T.);
#609=ORIENTED_EDGE('',*,*,#388,.T.);
#610=ORIENTED_EDGE('',*,*,#385,.T.);
#611=ORIENTED_EDGE('',*,*,#362,.T.);
#612=ORIENTED_EDGE('',*,*,#365,.T.);
#613=ORIENTED_EDGE('',*,*,#368,.T.);
#614=ORIENTED_EDGE('',*,*,#371,.T.);
#615=ORIENTED_EDGE('',*,*,#374,.T.);
#616=ORIENTED_EDGE('',*,*,#377,.T.);
#617=ORIENTED_EDGE('',*,*,#382,.T.);
#618=ORIENTED_EDGE('',*,*,#456,.F.);
#619=ORIENTED_EDGE('',*,*,#383,.F.);
#620=ORIENTED_EDGE('',*,*,#387,.F.);
#621=ORIENTED_EDGE('',*,*,#390,.F.);
#622=ORIENTED_EDGE('',*,*,#393,.F.);
#623=ORIENTED_EDGE('',*,*,#396,.F.);
#624=ORIENTED_EDGE('',*,*,#399,.F.);
#625=ORIENTED_EDGE('',*,*,#402,.F.);
#626=ORIENTED_EDGE('',*,*,#405,.F.);
#627=ORIENTED_EDGE('',*,*,#408,.F.);
#628=ORIENTED_EDGE('',*,*,#411,.F.);
#629=ORIENTED_EDGE('',*,*,#414,.F.);
#630=ORIENTED_EDGE('',*,*,#417,.F.);
#631=ORIENTED_EDGE('',*,*,#420,.F.);
#632=ORIENTED_EDGE('',*,*,#423,.F.);
#633=ORIENTED_EDGE('',*,*,#426,.F.);
#634=ORIENTED_EDGE('',*,*,#429,.F.);
#635=ORIENTED_EDGE('',*,*,#432,.F.);
#636=ORIENTED_EDGE('',*,*,#435,.F.);
#637=ORIENTED_EDGE('',*,*,#438,.F.);
#638=ORIENTED_EDGE('',*,*,#441,.F.);
#639=ORIENTED_EDGE('',*,*,#444,.F.);
#640=ORIENTED_EDGE('',*,*,#447,.F.);
#641=ORIENTED_EDGE('',*,*,#450,.F.);
#642=ORIENTED_EDGE('',*,*,#453,.F.);
#643=ORIENTED_EDGE('',*,*,#364,.T.);
#644=ORIENTED_EDGE('',*,*,#367,.T.);
#645=ORIENTED_EDGE('',*,*,#370,.T.);
#646=ORIENTED_EDGE('',*,*,#373,.T.);
#647=ORIENTED_EDGE('',*,*,#376,.T.);
#648=ORIENTED_EDGE('',*,*,#379,.T.);
#649=ORIENTED_EDGE('',*,*,#380,.T.);
#650=CYLINDRICAL_SURFACE('',#720,0.5);
#651=CYLINDRICAL_SURFACE('',#723,0.5);
#652=CYLINDRICAL_SURFACE('',#726,0.5);
#653=CYLINDRICAL_SURFACE('',#729,0.5);
#654=CYLINDRICAL_SURFACE('',#732,0.5);
#655=CYLINDRICAL_SURFACE('',#735,0.5);
#656=CYLINDRICAL_SURFACE('',#738,3.5);
#657=CYLINDRICAL_SURFACE('',#744,4.50033647203304);
#658=CYLINDRICAL_SURFACE('',#754,1.2200583175867);
#659=CYLINDRICAL_SURFACE('',#760,2.);
#660=CYLINDRICAL_SURFACE('',#763,4.5857692466808);
#661=CYLINDRICAL_SURFACE('',#766,2.);
#662=CYLINDRICAL_SURFACE('',#772,1.22001137919541);
#663=ADVANCED_FACE('',(#50),#650,.F.);
#664=ADVANCED_FACE('',(#51),#651,.F.);
#665=ADVANCED_FACE('',(#52),#652,.F.);
#666=ADVANCED_FACE('',(#53),#653,.F.);
#667=ADVANCED_FACE('',(#54),#654,.F.);
#668=ADVANCED_FACE('',(#55),#655,.F.);
#669=ADVANCED_FACE('',(#56),#656,.F.);
#670=ADVANCED_FACE('',(#57),#29,.T.);
#671=ADVANCED_FACE('',(#58),#30,.T.);
#672=ADVANCED_FACE('',(#59),#31,.T.);
#673=ADVANCED_FACE('',(#60),#657,.T.);
#674=ADVANCED_FACE('',(#61),#32,.T.);
#675=ADVANCED_FACE('',(#62),#33,.T.);
#676=ADVANCED_FACE('',(#63),#34,.T.);
#677=ADVANCED_FACE('',(#64),#35,.T.);
#678=ADVANCED_FACE('',(#65),#36,.T.);
#679=ADVANCED_FACE('',(#66),#37,.T.);
#680=ADVANCED_FACE('',(#67),#38,.T.);
#681=ADVANCED_FACE('',(#68),#658,.F.);
#682=ADVANCED_FACE('',(#69),#39,.T.);
#683=ADVANCED_FACE('',(#70),#40,.T.);
#684=ADVANCED_FACE('',(#71),#41,.T.);
#685=ADVANCED_FACE('',(#72),#659,.F.);
#686=ADVANCED_FACE('',(#73),#660,.T.);
#687=ADVANCED_FACE('',(#74),#661,.F.);
#688=ADVANCED_FACE('',(#75),#42,.T.);
#689=ADVANCED_FACE('',(#76),#43,.T.);
#690=ADVANCED_FACE('',(#77),#44,.T.);
#691=ADVANCED_FACE('',(#78),#662,.F.);
#692=ADVANCED_FACE('',(#79),#45,.T.);
#693=ADVANCED_FACE('',(#80),#46,.T.);
#694=ADVANCED_FACE('',(#81),#47,.T.);
#695=ADVANCED_FACE('',(#82,#15,#16,#17,#18,#19,#20,#21),#48,.T.);
#696=ADVANCED_FACE('',(#83,#22,#23,#24,#25,#26,#27,#28),#49,.F.);
#697=CLOSED_SHELL('',(#663,#664,#665,#666,#667,#668,#669,#670,#671,#672,
#673,#674,#675,#676,#677,#678,#679,#680,#681,#682,#683,#684,#685,#686,#687,
#688,#689,#690,#691,#692,#693,#694,#695,#696));
#698=DERIVED_UNIT_ELEMENT(#701,1.);
#699=DERIVED_UNIT_ELEMENT(#1172,-3.);
#700=DIMENSIONAL_EXPONENTS(1.,0.,0.,0.,0.,0.,0.);
#701=(
CONVERSION_BASED_UNIT('gram',#703)
MASS_UNIT()
NAMED_UNIT(#700)
);
#702=(
MASS_UNIT()
NAMED_UNIT(*)
SI_UNIT(.KILO.,.GRAM.)
);
#703=MASS_MEASURE_WITH_UNIT(MASS_MEASURE(0.001),#702);
#704=DERIVED_UNIT((#698,#699));
#705=MEASURE_REPRESENTATION_ITEM('density measure',
POSITIVE_RATIO_MEASURE(1.),#704);
#706=PROPERTY_DEFINITION_REPRESENTATION(#711,#708);
#707=PROPERTY_DEFINITION_REPRESENTATION(#712,#709);
#708=REPRESENTATION('material name',(#710),#1169);
#709=REPRESENTATION('density',(#705),#1169);
#710=DESCRIPTIVE_REPRESENTATION_ITEM('Generic','Generic');
#711=PROPERTY_DEFINITION('material property','material name',#1179);
#712=PROPERTY_DEFINITION('material property','density of part',#1179);
#713=DATE_TIME_ROLE('creation_date');
#714=APPLIED_DATE_AND_TIME_ASSIGNMENT(#715,#713,(#1179));
#715=DATE_AND_TIME(#716,#717);
#716=CALENDAR_DATE(2018,3,7);
#717=LOCAL_TIME(0,0,0.,#718);
#718=COORDINATED_UNIVERSAL_TIME_OFFSET(0,0,.BEHIND.);
#719=AXIS2_PLACEMENT_3D('placement',#972,#780,#781);
#720=AXIS2_PLACEMENT_3D('',#973,#782,#783);
#721=AXIS2_PLACEMENT_3D('',#975,#784,#785);
#722=AXIS2_PLACEMENT_3D('',#978,#787,#788);
#723=AXIS2_PLACEMENT_3D('',#979,#789,#790);
#724=AXIS2_PLACEMENT_3D('',#981,#791,#792);
#725=AXIS2_PLACEMENT_3D('',#984,#794,#795);
#726=AXIS2_PLACEMENT_3D('',#985,#796,#797);
#727=AXIS2_PLACEMENT_3D('',#987,#798,#799);
#728=AXIS2_PLACEMENT_3D('',#990,#801,#802);
#729=AXIS2_PLACEMENT_3D('',#991,#803,#804);
#730=AXIS2_PLACEMENT_3D('',#993,#805,#806);
#731=AXIS2_PLACEMENT_3D('',#996,#808,#809);
#732=AXIS2_PLACEMENT_3D('',#997,#810,#811);
#733=AXIS2_PLACEMENT_3D('',#999,#812,#813);
#734=AXIS2_PLACEMENT_3D('',#1002,#815,#816);
#735=AXIS2_PLACEMENT_3D('',#1003,#817,#818);
#736=AXIS2_PLACEMENT_3D('',#1005,#819,#820);
#737=AXIS2_PLACEMENT_3D('',#1008,#822,#823);
#738=AXIS2_PLACEMENT_3D('',#1009,#824,#825);
#739=AXIS2_PLACEMENT_3D('',#1011,#826,#827);
#740=AXIS2_PLACEMENT_3D('',#1014,#829,#830);
#741=AXIS2_PLACEMENT_3D('',#1015,#831,#832);
#742=AXIS2_PLACEMENT_3D('',#1024,#837,#838);
#743=AXIS2_PLACEMENT_3D('',#1030,#842,#843);
#744=AXIS2_PLACEMENT_3D('',#1036,#847,#848);
#745=AXIS2_PLACEMENT_3D('',#1038,#849,#850);
#746=AXIS2_PLACEMENT_3D('',#1040,#851,#852);
#747=AXIS2_PLACEMENT_3D('',#1042,#854,#855);
#748=AXIS2_PLACEMENT_3D('',#1048,#859,#860);
#749=AXIS2_PLACEMENT_3D('',#1054,#864,#865);
#750=AXIS2_PLACEMENT_3D('',#1060,#869,#870);
#751=AXIS2_PLACEMENT_3D('',#1066,#874,#875);
#752=AXIS2_PLACEMENT_3D('',#1072,#879,#880);
#753=AXIS2_PLACEMENT_3D('',#1078,#884,#885);
#754=AXIS2_PLACEMENT_3D('',#1084,#889,#890);
#755=AXIS2_PLACEMENT_3D('',#1086,#891,#892);
#756=AXIS2_PLACEMENT_3D('',#1088,#893,#894);
#757=AXIS2_PLACEMENT_3D('',#1090,#896,#897);
#758=AXIS2_PLACEMENT_3D('',#1096,#901,#902);
#759=AXIS2_PLACEMENT_3D('',#1102,#906,#907);
#760=AXIS2_PLACEMENT_3D('',#1108,#911,#912);
#761=AXIS2_PLACEMENT_3D('',#1110,#913,#914);
#762=AXIS2_PLACEMENT_3D('',#1112,#915,#916);
#763=AXIS2_PLACEMENT_3D('',#1114,#918,#919);
#764=AXIS2_PLACEMENT_3D('',#1116,#920,#921);
#765=AXIS2_PLACEMENT_3D('',#1118,#922,#923);
#766=AXIS2_PLACEMENT_3D('',#1120,#925,#926);
#767=AXIS2_PLACEMENT_3D('',#1122,#927,#928);
#768=AXIS2_PLACEMENT_3D('',#1124,#929,#930);
#769=AXIS2_PLACEMENT_3D('',#1126,#932,#933);
#770=AXIS2_PLACEMENT_3D('',#1132,#937,#938);
#771=AXIS2_PLACEMENT_3D('',#1138,#942,#943);
#772=AXIS2_PLACEMENT_3D('',#1144,#947,#948);
#773=AXIS2_PLACEMENT_3D('',#1146,#949,#950);
#774=AXIS2_PLACEMENT_3D('',#1148,#951,#952);
#775=AXIS2_PLACEMENT_3D('',#1150,#954,#955);
#776=AXIS2_PLACEMENT_3D('',#1156,#959,#960);
#777=AXIS2_PLACEMENT_3D('',#1162,#964,#965);
#778=AXIS2_PLACEMENT_3D('',#1165,#968,#969);
#779=AXIS2_PLACEMENT_3D('',#1166,#970,#971);
#780=DIRECTION('axis',(0.,0.,1.));
#781=DIRECTION('refdir',(1.,0.,0.));
#782=DIRECTION('center_axis',(0.,-1.,0.));
#783=DIRECTION('ref_axis',(-1.,0.,0.));
#784=DIRECTION('center_axis',(0.,-1.,0.));
#785=DIRECTION('ref_axis',(-1.,0.,0.));
#786=DIRECTION('',(0.,-1.,0.));
#787=DIRECTION('center_axis',(0.,1.,0.));
#788=DIRECTION('ref_axis',(-1.,0.,0.));
#789=DIRECTION('center_axis',(0.,-1.,0.));
#790=DIRECTION('ref_axis',(-1.,0.,0.));
#791=DIRECTION('center_axis',(0.,-1.,0.));
#792=DIRECTION('ref_axis',(-1.,0.,0.));
#793=DIRECTION('',(0.,-1.,0.));
#794=DIRECTION('center_axis',(0.,1.,0.));
#795=DIRECTION('ref_axis',(-1.,0.,0.));
#796=DIRECTION('center_axis',(0.,-1.,0.));
#797=DIRECTION('ref_axis',(-1.,0.,0.));
#798=DIRECTION('center_axis',(0.,-1.,0.));
#799=DIRECTION('ref_axis',(-1.,0.,0.));
#800=DIRECTION('',(0.,-1.,0.));
#801=DIRECTION('center_axis',(0.,1.,0.));
#802=DIRECTION('ref_axis',(-1.,0.,0.));
#803=DIRECTION('center_axis',(0.,-1.,0.));
#804=DIRECTION('ref_axis',(-1.,0.,0.));
#805=DIRECTION('center_axis',(0.,-1.,0.));
#806=DIRECTION('ref_axis',(-1.,0.,0.));
#807=DIRECTION('',(0.,-1.,0.));
#808=DIRECTION('center_axis',(0.,1.,0.));
#809=DIRECTION('ref_axis',(-1.,0.,0.));
#810=DIRECTION('center_axis',(0.,-1.,0.));
#811=DIRECTION('ref_axis',(-1.,0.,0.));
#812=DIRECTION('center_axis',(0.,-1.,0.));
#813=DIRECTION('ref_axis',(-1.,0.,0.));
#814=DIRECTION('',(0.,-1.,0.));
#815=DIRECTION('center_axis',(0.,1.,0.));
#816=DIRECTION('ref_axis',(-1.,0.,0.));
#817=DIRECTION('center_axis',(0.,-1.,0.));
#818=DIRECTION('ref_axis',(-1.,0.,0.));
#819=DIRECTION('center_axis',(0.,-1.,0.));
#820=DIRECTION('ref_axis',(-1.,0.,0.));
#821=DIRECTION('',(0.,-1.,0.));
#822=DIRECTION('center_axis',(0.,1.,0.));
#823=DIRECTION('ref_axis',(-1.,0.,0.));
#824=DIRECTION('center_axis',(0.,1.,0.));
#825=DIRECTION('ref_axis',(1.,0.,0.));
#826=DIRECTION('center_axis',(0.,1.,0.));
#827=DIRECTION('ref_axis',(1.,0.,0.));
#828=DIRECTION('',(0.,1.,0.));
#829=DIRECTION('center_axis',(0.,-1.,0.));
#830=DIRECTION('ref_axis',(1.,0.,0.));
#831=DIRECTION('center_axis',(1.,0.,8.06506156128122E-17));
#832=DIRECTION('ref_axis',(8.06506156128122E-17,0.,-1.));
#833=DIRECTION('',(8.06506156128122E-17,0.,-1.));
#834=DIRECTION('',(0.,1.,0.));
#835=DIRECTION('',(8.06506156128122E-17,0.,-1.));
#836=DIRECTION('',(0.,1.,0.));
#837=DIRECTION('center_axis',(0.,0.,1.));
#838=DIRECTION('ref_axis',(1.,0.,0.));
#839=DIRECTION('',(1.,0.,0.));
#840=DIRECTION('',(1.,0.,0.));
#841=DIRECTION('',(0.,1.,0.));
#842=DIRECTION('center_axis',(-1.,0.,-2.50764037848813E-16));
#843=DIRECTION('ref_axis',(-2.50764037848813E-16,0.,1.));
#844=DIRECTION('',(-2.50764037848813E-16,0.,1.));
#845=DIRECTION('',(-2.50764037848813E-16,0.,1.));
#846=DIRECTION('',(0.,1.,0.));
#847=DIRECTION('center_axis',(0.,1.,0.));
#848=DIRECTION('ref_axis',(-0.613030879432443,0.,-0.790058947713578));
#849=DIRECTION('center_axis',(0.,1.,0.));
#850=DIRECTION('ref_axis',(-0.613030879432443,0.,-0.790058947713578));
#851=DIRECTION('center_axis',(0.,1.,0.));
#852=DIRECTION('ref_axis',(-0.613030879432443,0.,-0.790058947713578));
#853=DIRECTION('',(0.,1.,0.));
#854=DIRECTION('center_axis',(-1.,0.,1.2847285231304E-16));
#855=DIRECTION('ref_axis',(1.2847285231304E-16,0.,1.));
#856=DIRECTION('',(1.2847285231304E-16,0.,1.));
#857=DIRECTION('',(1.2847285231304E-16,0.,1.));
#858=DIRECTION('',(0.,1.,0.));
#859=DIRECTION('center_axis',(-0.00997198661621734,0.,-0.99995027850535));
#860=DIRECTION('ref_axis',(-0.999950278505349,0.,0.00997198661621734));
#861=DIRECTION('',(-0.999950278505349,0.,0.00997198661621734));
#862=DIRECTION('',(-0.999950278505349,0.,0.00997198661621734));
#863=DIRECTION('',(0.,1.,0.));
#864=DIRECTION('center_axis',(1.,0.,1.86003058907672E-16));
#865=DIRECTION('ref_axis',(1.86003058907672E-16,0.,-1.));
#866=DIRECTION('',(1.86003058907672E-16,0.,-1.));
#867=DIRECTION('',(1.86003058907672E-16,0.,-1.));
#868=DIRECTION('',(0.,1.,0.));
#869=DIRECTION('center_axis',(-0.57357705825234,0.,-0.819151608828666));
#870=DIRECTION('ref_axis',(-0.819151608828666,0.,0.57357705825234));
#871=DIRECTION('',(-0.819151608828666,0.,0.57357705825234));
#872=DIRECTION('',(-0.819151608828666,0.,0.57357705825234));
#873=DIRECTION('',(0.,1.,0.));
#874=DIRECTION('center_axis',(-0.573576436351045,0.,-0.819152044288993));
#875=DIRECTION('ref_axis',(-0.819152044288993,0.,0.573576436351045));
#876=DIRECTION('',(-0.819152044288993,0.,0.573576436351045));
#877=DIRECTION('',(-0.819152044288993,0.,0.573576436351045));
#878=DIRECTION('',(0.,1.,0.));
#879=DIRECTION('center_axis',(0.819152044288991,0.,-0.573576436351047));
#880=DIRECTION('ref_axis',(-0.573576436351047,0.,-0.819152044288991));
#881=DIRECTION('',(-0.573576436351047,0.,-0.819152044288991));
#882=DIRECTION('',(-0.573576436351047,0.,-0.819152044288991));
#883=DIRECTION('',(0.,1.,0.));
#884=DIRECTION('center_axis',(0.573576436351046,0.,0.819152044288992));
#885=DIRECTION('ref_axis',(0.819152044288992,0.,-0.573576436351046));
#886=DIRECTION('',(0.819152044288992,0.,-0.573576436351046));
#887=DIRECTION('',(0.819152044288992,0.,-0.573576436351046));
#888=DIRECTION('',(0.,1.,0.));
#889=DIRECTION('center_axis',(0.,1.,0.));
#890=DIRECTION('ref_axis',(0.573576436351046,0.,0.819152044288992));
#891=DIRECTION('center_axis',(0.,-1.,0.));
#892=DIRECTION('ref_axis',(0.573576436351046,0.,0.819152044288992));
#893=DIRECTION('center_axis',(0.,-1.,0.));
#894=DIRECTION('ref_axis',(0.573576436351046,0.,0.819152044288992));
#895=DIRECTION('',(0.,1.,0.));
#896=DIRECTION('center_axis',(-0.573576436351046,0.,-0.819152044288992));
#897=DIRECTION('ref_axis',(-0.819152044288992,0.,0.573576436351046));
#898=DIRECTION('',(-0.819152044288992,0.,0.573576436351046));
#899=DIRECTION('',(-0.819152044288992,0.,0.573576436351046));
#900=DIRECTION('',(0.,1.,0.));
#901=DIRECTION('center_axis',(0.819152044288992,0.,-0.573576436351046));
#902=DIRECTION('ref_axis',(-0.573576436351046,0.,-0.819152044288992));
#903=DIRECTION('',(-0.573576436351046,0.,-0.819152044288992));
#904=DIRECTION('',(-0.573576436351046,0.,-0.819152044288992));
#905=DIRECTION('',(0.,1.,0.));
#906=DIRECTION('center_axis',(0.573576436351046,0.,0.819152044288992));
#907=DIRECTION('ref_axis',(0.819152044288992,0.,-0.573576436351046));
#908=DIRECTION('',(0.819152044288992,0.,-0.573576436351046));
#909=DIRECTION('',(0.819152044288992,0.,-0.573576436351046));
#910=DIRECTION('',(0.,1.,0.));
#911=DIRECTION('center_axis',(0.,1.,0.));
#912=DIRECTION('ref_axis',(0.573576436351046,0.,0.819152044288992));
#913=DIRECTION('center_axis',(0.,-1.,0.));
#914=DIRECTION('ref_axis',(0.573576436351046,0.,0.819152044288992));
#915=DIRECTION('center_axis',(0.,-1.,0.));
#916=DIRECTION('ref_axis',(0.573576436351046,0.,0.819152044288992));
#917=DIRECTION('',(0.,1.,0.));
#918=DIRECTION('center_axis',(0.,1.,0.));
#919=DIRECTION('ref_axis',(0.956388798570891,0.,0.292096672298964));
#920=DIRECTION('center_axis',(0.,1.,0.));
#921=DIRECTION('ref_axis',(0.956388798570891,0.,0.292096672298964));
#922=DIRECTION('center_axis',(0.,1.,0.));
#923=DIRECTION('ref_axis',(0.956388798570891,0.,0.292096672298964));
#924=DIRECTION('',(0.,1.,0.));
#925=DIRECTION('center_axis',(0.,1.,0.));
#926=DIRECTION('ref_axis',(0.956388798570891,0.,0.292096672298964));
#927=DIRECTION('center_axis',(0.,-1.,0.));
#928=DIRECTION('ref_axis',(0.956388798570891,0.,0.292096672298964));
#929=DIRECTION('center_axis',(0.,-1.,0.));
#930=DIRECTION('ref_axis',(0.956388798570891,0.,0.292096672298964));
#931=DIRECTION('',(0.,1.,0.));
#932=DIRECTION('center_axis',(0.573576436351046,0.,-0.819152044288992));
#933=DIRECTION('ref_axis',(-0.819152044288992,0.,-0.573576436351046));
#934=DIRECTION('',(-0.819152044288992,0.,-0.573576436351046));
#935=DIRECTION('',(-0.819152044288992,0.,-0.573576436351046));
#936=DIRECTION('',(0.,1.,0.));
#937=DIRECTION('center_axis',(0.819152044288989,0.,0.57357643635105));
#938=DIRECTION('ref_axis',(0.57357643635105,0.,-0.819152044288989));
#939=DIRECTION('',(0.57357643635105,0.,-0.819152044288989));
#940=DIRECTION('',(0.57357643635105,0.,-0.819152044288989));
#941=DIRECTION('',(0.,1.,0.));
#942=DIRECTION('center_axis',(-0.57357643635105,0.,0.819152044288989));
#943=DIRECTION('ref_axis',(0.819152044288989,0.,0.57357643635105));
#944=DIRECTION('',(0.819152044288989,0.,0.57357643635105));
#945=DIRECTION('',(0.819152044288989,0.,0.57357643635105));
#946=DIRECTION('',(0.,1.,0.));
#947=DIRECTION('center_axis',(0.,1.,0.));
#948=DIRECTION('ref_axis',(-0.573576436351045,0.,0.819152044288992));
#949=DIRECTION('center_axis',(0.,-1.,0.));
#950=DIRECTION('ref_axis',(-0.573576436351045,0.,0.819152044288992));
#951=DIRECTION('center_axis',(0.,-1.,0.));
#952=DIRECTION('ref_axis',(-0.573576436351045,0.,0.819152044288992));
#953=DIRECTION('',(0.,1.,0.));
#954=DIRECTION('center_axis',(0.573576436351045,0.,-0.819152044288993));
#955=DIRECTION('ref_axis',(-0.819152044288993,0.,-0.573576436351045));
#956=DIRECTION('',(-0.819152044288993,0.,-0.573576436351045));
#957=DIRECTION('',(-0.819152044288993,0.,-0.573576436351045));
#958=DIRECTION('',(0.,1.,0.));
#959=DIRECTION('center_axis',(0.819152044288993,0.,0.573576436351045));
#960=DIRECTION('ref_axis',(0.573576436351045,0.,-0.819152044288993));
#961=DIRECTION('',(0.573576436351045,0.,-0.819152044288993));
#962=DIRECTION('',(0.573576436351045,0.,-0.819152044288993));
#963=DIRECTION('',(0.,1.,0.));
#964=DIRECTION('center_axis',(-0.573576436351046,0.,0.819152044288992));
#965=DIRECTION('ref_axis',(0.819152044288992,0.,0.573576436351046));
#966=DIRECTION('',(0.819152044288992,0.,0.573576436351046));
#967=DIRECTION('',(0.819152044288992,0.,0.573576436351046));
#968=DIRECTION('center_axis',(0.,1.,0.));
#969=DIRECTION('ref_axis',(0.,0.,1.));
#970=DIRECTION('center_axis',(0.,1.,0.));
#971=DIRECTION('ref_axis',(0.,0.,1.));
#972=CARTESIAN_POINT('',(0.,0.,0.));
#973=CARTESIAN_POINT('Origin',(-1.20149565365477,1.,4.49702661837835));
#974=CARTESIAN_POINT('',(-0.701495653654767,1.,4.49702661837835));
#975=CARTESIAN_POINT('Origin',(-1.20149565365477,1.,4.49702661837835));
#976=CARTESIAN_POINT('',(-0.701495653654767,0.,4.49702661837835));
#977=CARTESIAN_POINT('',(-0.701495653654767,1.,4.49702661837835));
#978=CARTESIAN_POINT('Origin',(-1.20149565365477,0.,4.49702661837835));
#979=CARTESIAN_POINT('Origin',(-1.20149565365477,1.,-4.497));
#980=CARTESIAN_POINT('',(-0.701495653654767,1.,-4.497));
#981=CARTESIAN_POINT('Origin',(-1.20149565365477,1.,-4.497));
#982=CARTESIAN_POINT('',(-0.701495653654767,0.,-4.497));
#983=CARTESIAN_POINT('',(-0.701495653654767,1.,-4.497));
#984=CARTESIAN_POINT('Origin',(-1.20149565365477,0.,-4.497));
#985=CARTESIAN_POINT('Origin',(2.5,1.,4.2));
#986=CARTESIAN_POINT('',(3.,1.,4.2));
#987=CARTESIAN_POINT('Origin',(2.5,1.,4.2));
#988=CARTESIAN_POINT('',(3.,0.,4.2));
#989=CARTESIAN_POINT('',(3.,1.,4.2));
#990=CARTESIAN_POINT('Origin',(2.5,0.,4.2));
#991=CARTESIAN_POINT('Origin',(2.5,1.,-4.2));
#992=CARTESIAN_POINT('',(3.,1.,-4.2));
#993=CARTESIAN_POINT('Origin',(2.5,1.,-4.2));
#994=CARTESIAN_POINT('',(3.,0.,-4.2));
#995=CARTESIAN_POINT('',(3.,1.,-4.2));
#996=CARTESIAN_POINT('Origin',(2.5,0.,-4.2));
#997=CARTESIAN_POINT('Origin',(1.,1.,4.5));
#998=CARTESIAN_POINT('',(1.5,1.,4.5));
#999=CARTESIAN_POINT('Origin',(1.,1.,4.5));
#1000=CARTESIAN_POINT('',(1.5,0.,4.5));
#1001=CARTESIAN_POINT('',(1.5,1.,4.5));
#1002=CARTESIAN_POINT('Origin',(1.,0.,4.5));
#1003=CARTESIAN_POINT('Origin',(1.,1.,-4.5));
#1004=CARTESIAN_POINT('',(1.5,1.,-4.5));
#1005=CARTESIAN_POINT('Origin',(1.,1.,-4.5));
#1006=CARTESIAN_POINT('',(1.5,0.,-4.5));
#1007=CARTESIAN_POINT('',(1.5,1.,-4.5));
#1008=CARTESIAN_POINT('Origin',(1.,0.,-4.5));
#1009=CARTESIAN_POINT('Origin',(0.,0.,0.));
#1010=CARTESIAN_POINT('',(-3.5,0.,4.28626379701574E-16));
#1011=CARTESIAN_POINT('Origin',(0.,0.,0.));
#1012=CARTESIAN_POINT('',(-3.5,1.,4.28626379701574E-16));
#1013=CARTESIAN_POINT('',(-3.5,0.,4.28626379701574E-16));
#1014=CARTESIAN_POINT('Origin',(0.,1.,0.));
#1015=CARTESIAN_POINT('Origin',(-0.00113021079798492,0.,12.3842403771013));
#1016=CARTESIAN_POINT('',(-0.00113021079798492,0.,12.3842403771013));
#1017=CARTESIAN_POINT('',(-0.00113021079798437,0.,5.50132314088874));
#1018=CARTESIAN_POINT('',(-0.00113021079798492,0.,12.3842403771013));
#1019=CARTESIAN_POINT('',(-0.00113021079798437,1.,5.50132314088874));
#1020=CARTESIAN_POINT('',(-0.00113021079798437,0.,5.50132314088874));
#1021=CARTESIAN_POINT('',(-0.00113021079798492,1.,12.3842403771013));
#1022=CARTESIAN_POINT('',(-0.00113021079798492,1.,12.3842403771013));
#1023=CARTESIAN_POINT('',(-0.00113021079798492,0.,12.3842403771013));
#1024=CARTESIAN_POINT('Origin',(-2.50113021079799,0.,12.3842403771013));
#1025=CARTESIAN_POINT('',(-2.50113021079799,0.,12.3842403771013));
#1026=CARTESIAN_POINT('',(-2.50113021079799,0.,12.3842403771013));
#1027=CARTESIAN_POINT('',(-2.50113021079799,1.,12.3842403771013));
#1028=CARTESIAN_POINT('',(-2.50113021079799,1.,12.3842403771013));
#1029=CARTESIAN_POINT('',(-2.50113021079799,0.,12.3842403771013));
#1030=CARTESIAN_POINT('Origin',(-2.50113021079798,0.,3.52951755361163));
#1031=CARTESIAN_POINT('',(-2.50113021079798,0.,3.52951755361163));
#1032=CARTESIAN_POINT('',(-2.50113021079798,0.,3.52951755361163));
#1033=CARTESIAN_POINT('',(-2.50113021079798,1.,3.52951755361163));
#1034=CARTESIAN_POINT('',(-2.50113021079798,1.,3.52951755361163));
#1035=CARTESIAN_POINT('',(-2.50113021079798,0.,3.52951755361163));
#1036=CARTESIAN_POINT('Origin',(0.228820881946027,0.,-0.048246467776108));
#1037=CARTESIAN_POINT('',(-2.53002434324628,0.,-3.60377756522757));
#1038=CARTESIAN_POINT('Origin',(0.228820881946027,0.,-0.048246467776108));
#1039=CARTESIAN_POINT('',(-2.53002434324628,1.,-3.60377756522757));
#1040=CARTESIAN_POINT('Origin',(0.228820881946027,1.,-0.048246467776108));
#1041=CARTESIAN_POINT('',(-2.53002434324628,0.,-3.60377756522757));
#1042=CARTESIAN_POINT('Origin',(-2.53002434324628,0.,-12.2454711575825));
#1043=CARTESIAN_POINT('',(-2.53002434324628,0.,-12.2454711575825));
#1044=CARTESIAN_POINT('',(-2.53002434324628,0.,-12.2454711575825));
#1045=CARTESIAN_POINT('',(-2.53002434324628,1.,-12.2454711575825));
#1046=CARTESIAN_POINT('',(-2.53002434324628,1.,-12.2454711575825));
#1047=CARTESIAN_POINT('',(-2.53002434324628,0.,-12.2454711575825));
#1048=CARTESIAN_POINT('Origin',(-0.0301486469829104,0.,-12.270401124123));
#1049=CARTESIAN_POINT('',(-0.0301486469829104,0.,-12.270401124123));
#1050=CARTESIAN_POINT('',(-0.0301486469829104,0.,-12.270401124123));
#1051=CARTESIAN_POINT('',(-0.0301486469829104,1.,-12.270401124123));
#1052=CARTESIAN_POINT('',(-0.0301486469829104,1.,-12.270401124123));
#1053=CARTESIAN_POINT('',(-0.0301486469829104,0.,-12.270401124123));
#1054=CARTESIAN_POINT('Origin',(-0.0301486469829117,0.,-5.48550556281096));
#1055=CARTESIAN_POINT('',(-0.0301486469829117,0.,-5.48550556281096));
#1056=CARTESIAN_POINT('',(-0.0301486469829117,0.,-5.48550556281096));
#1057=CARTESIAN_POINT('',(-0.0301486469829117,1.,-5.48550556281096));
#1058=CARTESIAN_POINT('',(-0.0301486469829117,1.,-5.48550556281096));
#1059=CARTESIAN_POINT('',(-0.0301486469829117,0.,-5.48550556281096));
#1060=CARTESIAN_POINT('Origin',(8.16136717387981,0.,-11.2212759580818));
#1061=CARTESIAN_POINT('',(8.16136717387981,0.,-11.2212759580818));
#1062=CARTESIAN_POINT('',(8.16136717387981,0.,-11.2212759580818));
#1063=CARTESIAN_POINT('',(8.16136717387981,1.,-11.2212759580818));
#1064=CARTESIAN_POINT('',(8.16136717387981,1.,-11.2212759580818));
#1065=CARTESIAN_POINT('',(8.16136717387981,0.,-11.2212759580818));
#1066=CARTESIAN_POINT('Origin',(9.79967126245779,0.,-12.3684288307839));
#1067=CARTESIAN_POINT('',(9.79967126245779,0.,-12.3684288307839));
#1068=CARTESIAN_POINT('',(9.79967126245779,0.,-12.3684288307839));
#1069=CARTESIAN_POINT('',(9.79967126245779,1.,-12.3684288307839));
#1070=CARTESIAN_POINT('',(9.79967126245779,1.,-12.3684288307839));
#1071=CARTESIAN_POINT('',(9.79967126245779,0.,-12.3684288307839));
#1072=CARTESIAN_POINT('Origin',(10.3904549918994,0.,-11.5247022251662));
#1073=CARTESIAN_POINT('',(10.3904549918994,0.,-11.5247022251662));
#1074=CARTESIAN_POINT('',(10.3904549918994,0.,-11.5247022251662));
#1075=CARTESIAN_POINT('',(10.3904549918994,1.,-11.5247022251662));
#1076=CARTESIAN_POINT('',(10.3904549918994,1.,-11.5247022251662));
#1077=CARTESIAN_POINT('',(10.3904549918994,0.,-11.5247022251662));
#1078=CARTESIAN_POINT('Origin',(6.96343975150404,0.,-9.12508032028185));
#1079=CARTESIAN_POINT('',(6.96343975150404,0.,-9.12508032028185));
#1080=CARTESIAN_POINT('',(6.96343975150404,0.,-9.12508032028185));
#1081=CARTESIAN_POINT('',(6.96343975150405,1.,-9.12508032028185));
#1082=CARTESIAN_POINT('',(6.96343975150404,1.,-9.12508032028185));
#1083=CARTESIAN_POINT('',(6.96343975150404,0.,-9.12508032028185));
#1084=CARTESIAN_POINT('Origin',(7.66323645332025,0.,-8.12566705545833));
#1085=CARTESIAN_POINT('',(8.34961640603056,0.,-7.11699225179821));
#1086=CARTESIAN_POINT('Origin',(7.66323645332025,0.,-8.12566705545833));
#1087=CARTESIAN_POINT('',(8.34961640603056,1.,-7.11699225179821));
#1088=CARTESIAN_POINT('Origin',(7.66323645332025,1.,-8.12566705545833));
#1089=CARTESIAN_POINT('',(8.34961640603056,0.,-7.11699225179821));
#1090=CARTESIAN_POINT('Origin',(11.7900549920443,0.,-9.5260132844726));
#1091=CARTESIAN_POINT('',(11.7900549920443,0.,-9.5260132844726));
#1092=CARTESIAN_POINT('',(11.7900549920443,0.,-9.5260132844726));
#1093=CARTESIAN_POINT('',(11.7900549920443,1.,-9.5260132844726));
#1094=CARTESIAN_POINT('',(11.7900549920443,1.,-9.5260132844726));
#1095=CARTESIAN_POINT('',(11.7900549920443,0.,-9.5260132844726));
#1096=CARTESIAN_POINT('Origin',(12.3808387214859,0.,-8.68228667885494));
#1097=CARTESIAN_POINT('',(12.3808387214859,0.,-8.68228667885494));
#1098=CARTESIAN_POINT('',(12.3808387214859,0.,-8.68228667885494));
#1099=CARTESIAN_POINT('',(12.3808387214859,1.,-8.68228667885494));
#1100=CARTESIAN_POINT('',(12.3808387214859,1.,-8.68228667885494));
#1101=CARTESIAN_POINT('',(12.3808387214859,0.,-8.68228667885494));
#1102=CARTESIAN_POINT('Origin',(5.07157359182747,0.,-3.56428413629474));
#1103=CARTESIAN_POINT('',(5.07157359182747,0.,-3.56428413629474));
#1104=CARTESIAN_POINT('',(5.07157359182747,0.,-3.56428413629474));
#1105=CARTESIAN_POINT('',(5.07157359182747,1.,-3.56428413629474));
#1106=CARTESIAN_POINT('',(5.07157359182747,1.,-3.56428413629474));
#1107=CARTESIAN_POINT('',(5.07157359182747,0.,-3.56428413629474));
#1108=CARTESIAN_POINT('Origin',(6.21872646452957,0.,-1.92598004771676));
#1109=CARTESIAN_POINT('',(4.30595695483777,0.,-1.34176022368353));
#1110=CARTESIAN_POINT('Origin',(6.21872646452957,0.,-1.92598004771676));
#1111=CARTESIAN_POINT('',(4.30595695483777,1.,-1.34176022368353));
#1112=CARTESIAN_POINT('Origin',(6.21872646452957,1.,-1.92598004771676));
#1113=CARTESIAN_POINT('',(4.30595695483777,0.,-1.34176022368353));
#1114=CARTESIAN_POINT('Origin',(-0.0798028419288986,0.,-0.00221157250710563));
#1115=CARTESIAN_POINT('',(4.30597549842749,0.,1.33727636437928));
#1116=CARTESIAN_POINT('Origin',(-0.0798028419288986,0.,-0.00221157250710563));
#1117=CARTESIAN_POINT('',(4.30597549842749,1.,1.33727636437928));
#1118=CARTESIAN_POINT('Origin',(-0.0798028419288986,1.,-0.00221157250710563));
#1119=CARTESIAN_POINT('',(4.30597549842749,0.,1.33727636437928));
#1120=CARTESIAN_POINT('Origin',(6.21875309556927,0.,1.92146970897721));
#1121=CARTESIAN_POINT('',(5.07160022286718,0.,3.55977379755519));
#1122=CARTESIAN_POINT('Origin',(6.21875309556927,0.,1.92146970897721));
#1123=CARTESIAN_POINT('',(5.07160022286718,1.,3.55977379755519));
#1124=CARTESIAN_POINT('Origin',(6.21875309556927,1.,1.92146970897721));
#1125=CARTESIAN_POINT('',(5.07160022286718,0.,3.55977379755519));
#1126=CARTESIAN_POINT('Origin',(12.4098013379263,0.,8.69803753521849));
#1127=CARTESIAN_POINT('',(12.4098013379263,0.,8.69803753521849));
#1128=CARTESIAN_POINT('',(12.4098013379263,0.,8.69803753521849));
#1129=CARTESIAN_POINT('',(12.4098013379263,1.,8.69803753521849));
#1130=CARTESIAN_POINT('',(12.4098013379263,1.,8.69803753521849));
#1131=CARTESIAN_POINT('',(12.4098013379263,0.,8.69803753521849));
#1132=CARTESIAN_POINT('Origin',(11.8190176084847,0.,9.54176414083615));
#1133=CARTESIAN_POINT('',(11.8190176084847,0.,9.54176414083615));
#1134=CARTESIAN_POINT('',(11.8190176084847,0.,9.54176414083615));
#1135=CARTESIAN_POINT('',(11.8190176084847,1.,9.54176414083615));
#1136=CARTESIAN_POINT('',(11.8190176084847,1.,9.54176414083615));
#1137=CARTESIAN_POINT('',(11.8190176084847,0.,9.54176414083615));
#1138=CARTESIAN_POINT('Origin',(8.37857902247098,0.,7.13274310816174));
#1139=CARTESIAN_POINT('',(8.37857902247098,0.,7.13274310816174));
#1140=CARTESIAN_POINT('',(8.37857902247098,0.,7.13274310816174));
#1141=CARTESIAN_POINT('',(8.37857902247098,1.,7.13274310816174));
#1142=CARTESIAN_POINT('',(8.37857902247098,1.,7.13274310816174));
#1143=CARTESIAN_POINT('',(8.37857902247098,0.,7.13274310816174));
#1144=CARTESIAN_POINT('Origin',(7.67880924328436,0.,8.13211792348549));
#1145=CARTESIAN_POINT('',(6.97903946409773,0.,9.13149273880924));
#1146=CARTESIAN_POINT('Origin',(7.67880924328436,0.,8.13211792348549));
#1147=CARTESIAN_POINT('',(6.97903946409773,1.,9.13149273880924));
#1148=CARTESIAN_POINT('Origin',(7.67880924328436,1.,8.13211792348549));
#1149=CARTESIAN_POINT('',(6.97903946409773,0.,9.13149273880924));
#1150=CARTESIAN_POINT('Origin',(10.4194780501115,0.,11.5405137714836));
#1151=CARTESIAN_POINT('',(10.4194780501115,0.,11.5405137714836));
#1152=CARTESIAN_POINT('',(10.4194780501115,0.,11.5405137714836));
#1153=CARTESIAN_POINT('',(10.4194780501115,1.,11.5405137714836));
#1154=CARTESIAN_POINT('',(10.4194780501115,1.,11.5405137714836));
#1155=CARTESIAN_POINT('',(10.4194780501115,0.,11.5405137714836));
#1156=CARTESIAN_POINT('Origin',(9.82869432066992,0.,12.3842403771013));
#1157=CARTESIAN_POINT('',(9.82869432066992,0.,12.3842403771013));
#1158=CARTESIAN_POINT('',(9.82869432066992,0.,12.3842403771013));
#1159=CARTESIAN_POINT('',(9.82869432066993,1.,12.3842403771013));
#1160=CARTESIAN_POINT('',(9.82869432066992,1.,12.3842403771013));
#1161=CARTESIAN_POINT('',(9.82869432066992,0.,12.3842403771013));
#1162=CARTESIAN_POINT('Origin',(-0.00113021079798437,0.,5.50132314088874));
#1163=CARTESIAN_POINT('',(-0.00113021079798437,0.,5.50132314088874));
#1164=CARTESIAN_POINT('',(-0.00113021079798437,1.,5.50132314088874));
#1165=CARTESIAN_POINT('Origin',(4.02840677897016,1.,0.0365831103337713));
#1166=CARTESIAN_POINT('Origin',(4.02840677897016,0.,0.0365831103337713));
#1167=UNCERTAINTY_MEASURE_WITH_UNIT(LENGTH_MEASURE(0.01),#1171,
'DISTANCE_ACCURACY_VALUE',
'Maximum model space distance between geometric entities at asserted c
onnectivities');
#1168=UNCERTAINTY_MEASURE_WITH_UNIT(LENGTH_MEASURE(0.01),#1171,
'DISTANCE_ACCURACY_VALUE',
'Maximum model space distance between geometric entities at asserted c
onnectivities');
#1169=(
GEOMETRIC_REPRESENTATION_CONTEXT(3)
GLOBAL_UNCERTAINTY_ASSIGNED_CONTEXT((#1167))
GLOBAL_UNIT_ASSIGNED_CONTEXT((#1171,#1173,#1174))
REPRESENTATION_CONTEXT('','3D')
);
#1170=(
GEOMETRIC_REPRESENTATION_CONTEXT(3)
GLOBAL_UNCERTAINTY_ASSIGNED_CONTEXT((#1168))
GLOBAL_UNIT_ASSIGNED_CONTEXT((#1171,#1173,#1174))
REPRESENTATION_CONTEXT('','3D')
);
#1171=(
LENGTH_UNIT()
NAMED_UNIT(*)
SI_UNIT(.MILLI.,.METRE.)
);
#1172=(
LENGTH_UNIT()
NAMED_UNIT(*)
SI_UNIT(.CENTI.,.METRE.)
);
#1173=(
NAMED_UNIT(*)
PLANE_ANGLE_UNIT()
SI_UNIT($,.RADIAN.)
);
#1174=(
NAMED_UNIT(*)
SI_UNIT($,.STERADIAN.)
SOLID_ANGLE_UNIT()
);
#1175=SHAPE_DEFINITION_REPRESENTATION(#1176,#1177);
#1176=PRODUCT_DEFINITION_SHAPE('',$,#1179);
#1177=SHAPE_REPRESENTATION('',(#719),#1169);
#1178=PRODUCT_DEFINITION_CONTEXT('part definition',#1183,'design');
#1179=PRODUCT_DEFINITION('headclamp_xshape5_long',
'headclamp_xshape5_long',#1180,#1178);
#1180=PRODUCT_DEFINITION_FORMATION('',$,#1185);
#1181=PRODUCT_RELATED_PRODUCT_CATEGORY('headclamp_xshape5_long',
'headclamp_xshape5_long',(#1185));
#1182=APPLICATION_PROTOCOL_DEFINITION('international standard',
'automotive_design',2009,#1183);
#1183=APPLICATION_CONTEXT(
'Core Data for Automotive Mechanical Design Process');
#1184=PRODUCT_CONTEXT('part definition',#1183,'mechanical');
#1185=PRODUCT('headclamp_xshape5_long','headclamp_xshape5_long',$,(#1184));
#1186=PRESENTATION_STYLE_ASSIGNMENT((#1187));
#1187=SURFACE_STYLE_USAGE(.BOTH.,#1190);
#1188=SURFACE_STYLE_RENDERING_WITH_PROPERTIES($,#1194,(#1189));
#1189=SURFACE_STYLE_TRANSPARENT(0.);
#1190=SURFACE_SIDE_STYLE('',(#1191,#1188));
#1191=SURFACE_STYLE_FILL_AREA(#1192);
#1192=FILL_AREA_STYLE('',(#1193));
#1193=FILL_AREA_STYLE_COLOUR('',#1194);
#1194=COLOUR_RGB('',0.749019607843137,0.749019607843137,0.749019607843137);
ENDSEC;
END-ISO-10303-21;
