G04 EAGLE Gerber RS-274X export*
G75*
%MOMM*%
%FSLAX34Y34*%
%LPD*%
%IN*%
%IPPOS*%
%AMOC8*
5,1,8,0,0,1.08239X$1,22.5*%
G01*
%ADD10C,0.254000*%


D10*
X0Y0D02*
X952300Y0D01*
X952300Y606300D01*
X0Y606300D01*
X0Y0D01*
X65800Y558264D02*
X65724Y557196D01*
X65571Y556135D01*
X65343Y555088D01*
X65041Y554060D01*
X64667Y553056D01*
X64222Y552081D01*
X63708Y551141D01*
X63129Y550240D01*
X62487Y549382D01*
X61785Y548572D01*
X61028Y547815D01*
X60218Y547113D01*
X59360Y546471D01*
X58459Y545892D01*
X57519Y545378D01*
X56544Y544933D01*
X55540Y544559D01*
X54512Y544257D01*
X53465Y544029D01*
X52404Y543876D01*
X51336Y543800D01*
X50264Y543800D01*
X49196Y543876D01*
X48135Y544029D01*
X47088Y544257D01*
X46060Y544559D01*
X45056Y544933D01*
X44081Y545378D01*
X43141Y545892D01*
X42240Y546471D01*
X41382Y547113D01*
X40572Y547815D01*
X39815Y548572D01*
X39113Y549382D01*
X38471Y550240D01*
X37892Y551141D01*
X37378Y552081D01*
X36933Y553056D01*
X36559Y554060D01*
X36257Y555088D01*
X36029Y556135D01*
X35876Y557196D01*
X35800Y558264D01*
X35800Y559336D01*
X35876Y560404D01*
X36029Y561465D01*
X36257Y562512D01*
X36559Y563540D01*
X36933Y564544D01*
X37378Y565519D01*
X37892Y566459D01*
X38471Y567360D01*
X39113Y568218D01*
X39815Y569028D01*
X40572Y569785D01*
X41382Y570487D01*
X42240Y571129D01*
X43141Y571708D01*
X44081Y572222D01*
X45056Y572667D01*
X46060Y573041D01*
X47088Y573343D01*
X48135Y573571D01*
X49196Y573724D01*
X50264Y573800D01*
X51336Y573800D01*
X52404Y573724D01*
X53465Y573571D01*
X54512Y573343D01*
X55540Y573041D01*
X56544Y572667D01*
X57519Y572222D01*
X58459Y571708D01*
X59360Y571129D01*
X60218Y570487D01*
X61028Y569785D01*
X61785Y569028D01*
X62487Y568218D01*
X63129Y567360D01*
X63708Y566459D01*
X64222Y565519D01*
X64667Y564544D01*
X65041Y563540D01*
X65343Y562512D01*
X65571Y561465D01*
X65724Y560404D01*
X65800Y559336D01*
X65800Y558264D01*
X929400Y558264D02*
X929324Y557196D01*
X929171Y556135D01*
X928943Y555088D01*
X928641Y554060D01*
X928267Y553056D01*
X927822Y552081D01*
X927308Y551141D01*
X926729Y550240D01*
X926087Y549382D01*
X925385Y548572D01*
X924628Y547815D01*
X923818Y547113D01*
X922960Y546471D01*
X922059Y545892D01*
X921119Y545378D01*
X920144Y544933D01*
X919140Y544559D01*
X918112Y544257D01*
X917065Y544029D01*
X916004Y543876D01*
X914936Y543800D01*
X913864Y543800D01*
X912796Y543876D01*
X911735Y544029D01*
X910688Y544257D01*
X909660Y544559D01*
X908656Y544933D01*
X907681Y545378D01*
X906741Y545892D01*
X905840Y546471D01*
X904982Y547113D01*
X904172Y547815D01*
X903415Y548572D01*
X902713Y549382D01*
X902071Y550240D01*
X901492Y551141D01*
X900978Y552081D01*
X900533Y553056D01*
X900159Y554060D01*
X899857Y555088D01*
X899629Y556135D01*
X899476Y557196D01*
X899400Y558264D01*
X899400Y559336D01*
X899476Y560404D01*
X899629Y561465D01*
X899857Y562512D01*
X900159Y563540D01*
X900533Y564544D01*
X900978Y565519D01*
X901492Y566459D01*
X902071Y567360D01*
X902713Y568218D01*
X903415Y569028D01*
X904172Y569785D01*
X904982Y570487D01*
X905840Y571129D01*
X906741Y571708D01*
X907681Y572222D01*
X908656Y572667D01*
X909660Y573041D01*
X910688Y573343D01*
X911735Y573571D01*
X912796Y573724D01*
X913864Y573800D01*
X914936Y573800D01*
X916004Y573724D01*
X917065Y573571D01*
X918112Y573343D01*
X919140Y573041D01*
X920144Y572667D01*
X921119Y572222D01*
X922059Y571708D01*
X922960Y571129D01*
X923818Y570487D01*
X924628Y569785D01*
X925385Y569028D01*
X926087Y568218D01*
X926729Y567360D01*
X927308Y566459D01*
X927822Y565519D01*
X928267Y564544D01*
X928641Y563540D01*
X928943Y562512D01*
X929171Y561465D01*
X929324Y560404D01*
X929400Y559336D01*
X929400Y558264D01*
X929400Y37564D02*
X929324Y36496D01*
X929171Y35435D01*
X928943Y34388D01*
X928641Y33360D01*
X928267Y32356D01*
X927822Y31381D01*
X927308Y30441D01*
X926729Y29540D01*
X926087Y28682D01*
X925385Y27872D01*
X924628Y27115D01*
X923818Y26413D01*
X922960Y25771D01*
X922059Y25192D01*
X921119Y24678D01*
X920144Y24233D01*
X919140Y23859D01*
X918112Y23557D01*
X917065Y23329D01*
X916004Y23176D01*
X914936Y23100D01*
X913864Y23100D01*
X912796Y23176D01*
X911735Y23329D01*
X910688Y23557D01*
X909660Y23859D01*
X908656Y24233D01*
X907681Y24678D01*
X906741Y25192D01*
X905840Y25771D01*
X904982Y26413D01*
X904172Y27115D01*
X903415Y27872D01*
X902713Y28682D01*
X902071Y29540D01*
X901492Y30441D01*
X900978Y31381D01*
X900533Y32356D01*
X900159Y33360D01*
X899857Y34388D01*
X899629Y35435D01*
X899476Y36496D01*
X899400Y37564D01*
X899400Y38636D01*
X899476Y39704D01*
X899629Y40765D01*
X899857Y41812D01*
X900159Y42840D01*
X900533Y43844D01*
X900978Y44819D01*
X901492Y45759D01*
X902071Y46660D01*
X902713Y47518D01*
X903415Y48328D01*
X904172Y49085D01*
X904982Y49787D01*
X905840Y50429D01*
X906741Y51008D01*
X907681Y51522D01*
X908656Y51967D01*
X909660Y52341D01*
X910688Y52643D01*
X911735Y52871D01*
X912796Y53024D01*
X913864Y53100D01*
X914936Y53100D01*
X916004Y53024D01*
X917065Y52871D01*
X918112Y52643D01*
X919140Y52341D01*
X920144Y51967D01*
X921119Y51522D01*
X922059Y51008D01*
X922960Y50429D01*
X923818Y49787D01*
X924628Y49085D01*
X925385Y48328D01*
X926087Y47518D01*
X926729Y46660D01*
X927308Y45759D01*
X927822Y44819D01*
X928267Y43844D01*
X928641Y42840D01*
X928943Y41812D01*
X929171Y40765D01*
X929324Y39704D01*
X929400Y38636D01*
X929400Y37564D01*
X65800Y37564D02*
X65724Y36496D01*
X65571Y35435D01*
X65343Y34388D01*
X65041Y33360D01*
X64667Y32356D01*
X64222Y31381D01*
X63708Y30441D01*
X63129Y29540D01*
X62487Y28682D01*
X61785Y27872D01*
X61028Y27115D01*
X60218Y26413D01*
X59360Y25771D01*
X58459Y25192D01*
X57519Y24678D01*
X56544Y24233D01*
X55540Y23859D01*
X54512Y23557D01*
X53465Y23329D01*
X52404Y23176D01*
X51336Y23100D01*
X50264Y23100D01*
X49196Y23176D01*
X48135Y23329D01*
X47088Y23557D01*
X46060Y23859D01*
X45056Y24233D01*
X44081Y24678D01*
X43141Y25192D01*
X42240Y25771D01*
X41382Y26413D01*
X40572Y27115D01*
X39815Y27872D01*
X39113Y28682D01*
X38471Y29540D01*
X37892Y30441D01*
X37378Y31381D01*
X36933Y32356D01*
X36559Y33360D01*
X36257Y34388D01*
X36029Y35435D01*
X35876Y36496D01*
X35800Y37564D01*
X35800Y38636D01*
X35876Y39704D01*
X36029Y40765D01*
X36257Y41812D01*
X36559Y42840D01*
X36933Y43844D01*
X37378Y44819D01*
X37892Y45759D01*
X38471Y46660D01*
X39113Y47518D01*
X39815Y48328D01*
X40572Y49085D01*
X41382Y49787D01*
X42240Y50429D01*
X43141Y51008D01*
X44081Y51522D01*
X45056Y51967D01*
X46060Y52341D01*
X47088Y52643D01*
X48135Y52871D01*
X49196Y53024D01*
X50264Y53100D01*
X51336Y53100D01*
X52404Y53024D01*
X53465Y52871D01*
X54512Y52643D01*
X55540Y52341D01*
X56544Y51967D01*
X57519Y51522D01*
X58459Y51008D01*
X59360Y50429D01*
X60218Y49787D01*
X61028Y49085D01*
X61785Y48328D01*
X62487Y47518D01*
X63129Y46660D01*
X63708Y45759D01*
X64222Y44819D01*
X64667Y43844D01*
X65041Y42840D01*
X65343Y41812D01*
X65571Y40765D01*
X65724Y39704D01*
X65800Y38636D01*
X65800Y37564D01*
M02*
