ISO-10303-21;
HEADER;
FILE_DESCRIPTION (( 'STEP AP203' ),
    '1' );
FILE_NAME ('Cover2.STEP',
    '2019-12-20T14:32:54',
    ( '' ),
    ( '' ),
    'SwSTEP 2.0',
    'SolidWorks 2018',
    '' );
FILE_SCHEMA (( 'CONFIG_CONTROL_DESIGN' ));
ENDSEC;

DATA;
#1 = CARTESIAN_POINT ( 'NONE',  ( 87.90000000000000568, 34.60000000000004405, 0.9999999999999817923 ) ) ;
#2 = VECTOR ( 'NONE', #779, 1000.000000000000000 ) ;
#3 = APPLICATION_CONTEXT ( 'configuration controlled 3d designs of mechanical parts and assemblies' ) ;
#4 = EDGE_CURVE ( 'NONE', #778, #71, #270, .T. ) ;
#5 = DIRECTION ( 'NONE',  ( -1.000000000000000000, 0.0000000000000000000, 0.0000000000000000000 ) ) ;
#6 = CYLINDRICAL_SURFACE ( 'NONE', #327, 8.900000000000005684 ) ;
#7 = LINE ( 'NONE', #31, #432 ) ;
#8 = AXIS2_PLACEMENT_3D ( 'NONE', #726, #1019, #440 ) ;
#9 = DIRECTION ( 'NONE',  ( -0.0000000000000000000, -0.0000000000000000000, 1.000000000000000000 ) ) ;
#10 = DIRECTION ( 'NONE',  ( 0.0000000000000000000, -1.000000000000000000, 0.0000000000000000000 ) ) ;
#11 = ORIENTED_EDGE ( 'NONE', *, *, #914, .F. ) ;
#12 = CARTESIAN_POINT ( 'NONE',  ( 62.32602380896169336, 54.40333609575792195, 10.77397619103835602 ) ) ;
#13 = CARTESIAN_POINT ( 'NONE',  ( 52.00000000000000711, 7.500000000000000000, 6.000000000000000000 ) ) ;
#14 = ORIENTED_EDGE ( 'NONE', *, *, #981, .T. ) ;
#15 = EDGE_CURVE ( 'NONE', #1096, #817, #473, .T. ) ;
#16 = AXIS2_PLACEMENT_3D ( 'NONE', #708, #408, #235 ) ;
#17 =( BOUNDED_CURVE ( )  B_SPLINE_CURVE ( 3, ( #587, #12, #582, #112 ),
 .UNSPECIFIED., .F., .F. ) 
 B_SPLINE_CURVE_WITH_KNOTS ( ( 4, 4 ),
 ( 2.284377558085215920, 3.141592653589793116 ),
 .UNSPECIFIED. ) 
 CURVE ( )  GEOMETRIC_REPRESENTATION_ITEM ( )  RATIONAL_B_SPLINE_CURVE ( ( 1.000000000000000000, 0.9396968939772500917, 0.9396968939772500917, 1.000000000000000000 ) ) 
 REPRESENTATION_ITEM ( '' )  );
#18 = CARTESIAN_POINT ( 'NONE',  ( 63.10000000000001563, 1.900000000000012790, -16.00000000000000000 ) ) ;
#19 = LINE ( 'NONE', #518, #1230 ) ;
#20 = CARTESIAN_POINT ( 'NONE',  ( 57.50000000000000711, 7.499999999999999112, 6.000000000000000000 ) ) ;
#21 = ORIENTED_EDGE ( 'NONE', *, *, #299, .T. ) ;
#22 = EDGE_CURVE ( 'NONE', #166, #1079, #764, .T. ) ;
#23 = DIRECTION ( 'NONE',  ( -0.0000000000000000000, -0.0000000000000000000, 1.000000000000000000 ) ) ;
#24 = VERTEX_POINT ( 'NONE', #815 ) ;
#25 = DIRECTION ( 'NONE',  ( -1.000000000000000000, 0.0000000000000000000, -0.0000000000000000000 ) ) ;
#26 = CARTESIAN_POINT ( 'NONE',  ( 13.90000000000001990, 34.60000000000004405, -7.499999999999998224 ) ) ;
#27 = ORIENTED_EDGE ( 'NONE', *, *, #4, .T. ) ;
#28 = VERTEX_POINT ( 'NONE', #514 ) ;
#29 = APPROVAL_STATUS ( 'not_yet_approved' ) ;
#30 = ORIENTED_EDGE ( 'NONE', *, *, #950, .T. ) ;
#31 = CARTESIAN_POINT ( 'NONE',  ( 52.00000000000000711, 7.500000000000000000, 6.000000000000000000 ) ) ;
#32 = EDGE_CURVE ( 'NONE', #39, #1025, #1116, .T. ) ;
#33 = CARTESIAN_POINT ( 'NONE',  ( 54.50000000000000711, 7.499999999999999112, -0.9999999999999991118 ) ) ;
#34 = CC_DESIGN_SECURITY_CLASSIFICATION ( #99, ( #872 ) ) ;
#35 = DIRECTION ( 'NONE',  ( -1.000000000000000000, -3.784851220313034736E-15, 0.0000000000000000000 ) ) ;
#36 = CYLINDRICAL_SURFACE ( 'NONE', #558, 5.499999999999998224 ) ;
#37 = CYLINDRICAL_SURFACE ( 'NONE', #278, 3.000000000000004441 ) ;
#38 = LINE ( 'NONE', #878, #87 ) ;
#39 = VERTEX_POINT ( 'NONE', #1092 ) ;
#40 = AXIS2_PLACEMENT_3D ( 'NONE', #516, #804, #326 ) ;
#41 = DIRECTION ( 'NONE',  ( -1.000000000000000000, 0.0000000000000000000, 0.0000000000000000000 ) ) ;
#42 = VERTEX_POINT ( 'NONE', #1006 ) ;
#43 = EDGE_LOOP ( 'NONE', ( #134, #54, #1134, #209 ) ) ;
#44 = ORIENTED_EDGE ( 'NONE', *, *, #429, .T. ) ;
#45 = DIRECTION ( 'NONE',  ( -0.0000000000000000000, -0.0000000000000000000, 1.000000000000000000 ) ) ;
#46 = EDGE_CURVE ( 'NONE', #71, #1221, #689, .T. ) ;
#47 = CARTESIAN_POINT ( 'NONE',  ( 57.50000000000000711, 7.499999999999999112, 6.000000000000000000 ) ) ;
#48 = AXIS2_PLACEMENT_3D ( 'NONE', #26, #613, #1192 ) ;
#49 = CARTESIAN_POINT ( 'NONE',  ( 11.65812457725837170, 3.900000000000001243, 12.00000000000000000 ) ) ;
#50 = DATE_AND_TIME ( #911, #457 ) ;
#51 = VECTOR ( 'NONE', #469, 1000.000000000000000 ) ;
#52 = DIRECTION ( 'NONE',  ( -0.0000000000000000000, -0.0000000000000000000, 1.000000000000000000 ) ) ;
#53 = CIRCLE ( 'NONE', #8, 3.000000000000002665 ) ;
#54 = ORIENTED_EDGE ( 'NONE', *, *, #810, .T. ) ;
#55 = CARTESIAN_POINT ( 'NONE',  ( 7.500000000000007105, 7.499999999999992895, 6.000000000000000000 ) ) ;
#56 = VERTEX_POINT ( 'NONE', #133 ) ;
#57 = EDGE_CURVE ( 'NONE', #778, #1194, #7, .T. ) ;
#58 = ORIENTED_EDGE ( 'NONE', *, *, #1010, .F. ) ;
#59 = AXIS2_PLACEMENT_3D ( 'NONE', #392, #118, #877 ) ;
#60 = ORIENTED_EDGE ( 'NONE', *, *, #850, .F. ) ;
#61 = ORIENTED_EDGE ( 'NONE', *, *, #350, .F. ) ;
#62 = CARTESIAN_POINT ( 'NONE',  ( 60.50000000000001421, 7.499999999999999112, 0.0000000000000000000 ) ) ;
#63 = ORIENTED_EDGE ( 'NONE', *, *, #1108, .F. ) ;
#64 = DIRECTION ( 'NONE',  ( -1.000000000000000000, 0.0000000000000000000, 0.0000000000000000000 ) ) ;
#65 = AXIS2_PLACEMENT_3D ( 'NONE', #886, #1161, #1181 ) ;
#66 = CARTESIAN_POINT ( 'NONE',  ( 60.50000000000001421, 7.499999999999999112, -0.9999999999999991118 ) ) ;
#67 = VECTOR ( 'NONE', #1033, 1000.000000000000000 ) ;
#68 = CARTESIAN_POINT ( 'NONE',  ( 51.10000000000002274, 38.60000000000000853, 0.0000000000000000000 ) ) ;
#69 = LINE ( 'NONE', #628, #548 ) ;
#70 = FACE_OUTER_BOUND ( 'NONE', #381, .T. ) ;
#71 = VERTEX_POINT ( 'NONE', #505 ) ;
#72 = ADVANCED_FACE ( 'NONE', ( #256 ), #591, .T. ) ;
#73 = DIRECTION ( 'NONE',  ( 1.000000000000000000, 0.0000000000000000000, -0.0000000000000000000 ) ) ;
#74 = EDGE_CURVE ( 'NONE', #738, #234, #504, .T. ) ;
#75 = ORIENTED_EDGE ( 'NONE', *, *, #957, .F. ) ;
#76 = EDGE_LOOP ( 'NONE', ( #931, #595, #116 ) ) ;
#77 = VERTEX_POINT ( 'NONE', #1074 ) ;
#78 = CARTESIAN_POINT ( 'NONE',  ( 4.499999999999994671, 57.49999999999999289, 0.0000000000000000000 ) ) ;
#79 = CARTESIAN_POINT ( 'NONE',  ( 7.500000000000007105, 7.499999999999992895, 6.000000000000000000 ) ) ;
#80 = DIRECTION ( 'NONE',  ( 1.000000000000000000, 0.0000000000000000000, 0.0000000000000000000 ) ) ;
#81 = EDGE_CURVE ( 'NONE', #24, #1096, #1090, .T. ) ;
#82 = CARTESIAN_POINT ( 'NONE',  ( 7.500000000000007105, 7.499999999999992895, 6.000000000000000000 ) ) ;
#83 = AXIS2_PLACEMENT_3D ( 'NONE', #883, #399, #301 ) ;
#84 = FACE_OUTER_BOUND ( 'NONE', #402, .T. ) ;
#85 = VECTOR ( 'NONE', #623, 1000.000000000000000 ) ;
#86 = CARTESIAN_POINT ( 'NONE',  ( 87.90000000000000568, 34.60000000000004405, -7.500000000000007105 ) ) ;
#87 = VECTOR ( 'NONE', #601, 1000.000000000000000 ) ;
#88 = ORIENTED_EDGE ( 'NONE', *, *, #895, .T. ) ;
#89 = EDGE_LOOP ( 'NONE', ( #275, #193 ) ) ;
#90 = CARTESIAN_POINT ( 'NONE',  ( 2.565677315633875910, 60.34385190868590598, 10.66567731563387866 ) ) ;
#91 = CARTESIAN_POINT ( 'NONE',  ( 32.50000000000000000, 49.40000000000000568, -0.9999999999999991118 ) ) ;
#92 = ORIENTED_EDGE ( 'NONE', *, *, #288, .T. ) ;
#93 = CARTESIAN_POINT ( 'NONE',  ( 63.10000000000001563, 63.10000000000001563, 0.0000000000000000000 ) ) ;
#94 = ADVANCED_BREP_SHAPE_REPRESENTATION ( 'Cover2', ( #109, #899 ), #722 ) ;
#95 = DIRECTION ( 'NONE',  ( 1.000000000000000000, 0.0000000000000000000, 0.0000000000000000000 ) ) ;
#96 = EDGE_CURVE ( 'NONE', #234, #607, #1231, .T. ) ;
#97 = VECTOR ( 'NONE', #667, 1000.000000000000114 ) ;
#98 = VECTOR ( 'NONE', #1100, 1000.000000000000000 ) ;
#99 = SECURITY_CLASSIFICATION ( '', '', #398 ) ;
#100 = CARTESIAN_POINT ( 'NONE',  ( 7.500000000000000000, 57.49999999999999289, 6.000000000000000000 ) ) ;
#101 = CARTESIAN_POINT ( 'NONE',  ( 41.36666666666660319, 23.63333333333342878, 31.73333333333329520 ) ) ;
#102 = ORIENTED_EDGE ( 'NONE', *, *, #238, .T. ) ;
#103 = DIRECTION ( 'NONE',  ( 0.0000000000000000000, 0.0000000000000000000, -1.000000000000000000 ) ) ;
#104 = ORIENTED_EDGE ( 'NONE', *, *, #403, .F. ) ;
#105 = ORIENTED_EDGE ( 'NONE', *, *, #823, .F. ) ;
#106 = DIRECTION ( 'NONE',  ( -0.0000000000000000000, -0.0000000000000000000, 1.000000000000000000 ) ) ;
#107 = AXIS2_PLACEMENT_3D ( 'NONE', #594, #509, #600 ) ;
#108 = CARTESIAN_POINT ( 'NONE',  ( 13.90000000000002345, 30.60000000000008669, 0.0000000000000000000 ) ) ;
#109 = MANIFOLD_SOLID_BREP ( 'Chamfer3', #215 ) ;
#110 = VECTOR ( 'NONE', #1045, 1000.000000000000000 ) ;
#111 = AXIS2_PLACEMENT_3D ( 'NONE', #444, #64, #619 ) ;
#112 = CARTESIAN_POINT ( 'NONE',  ( 63.00000000000000000, 57.50000000000000000, 10.10000000000004050 ) ) ;
#113 = VECTOR ( 'NONE', #485, 1000.000000000000000 ) ;
#114 = ORIENTED_EDGE ( 'NONE', *, *, #138, .T. ) ;
#115 = AXIS2_PLACEMENT_3D ( 'NONE', #941, #840, #276 ) ;
#116 = ORIENTED_EDGE ( 'NONE', *, *, #976, .F. ) ;
#117 = DIRECTION ( 'NONE',  ( 0.0000000000000000000, 0.0000000000000000000, 1.000000000000000000 ) ) ;
#118 = DIRECTION ( 'NONE',  ( -0.0000000000000000000, -0.0000000000000000000, -1.000000000000000000 ) ) ;
#119 = ORIENTED_EDGE ( 'NONE', *, *, #410, .F. ) ;
#120 = ORIENTED_EDGE ( 'NONE', *, *, #895, .F. ) ;
#121 = ORIENTED_EDGE ( 'NONE', *, *, #1046, .F. ) ;
#122 = EDGE_CURVE ( 'NONE', #660, #780, #847, .T. ) ;
#123 = CARTESIAN_POINT ( 'NONE',  ( 63.00000000000001421, 7.499999999999999112, 10.10000000000002984 ) ) ;
#124 = DIRECTION ( 'NONE',  ( 1.000000000000000000, 0.0000000000000000000, -0.0000000000000000000 ) ) ;
#125 = CARTESIAN_POINT ( 'NONE',  ( 2.000000000000006217, 9.121676028219244614, 10.10000000000001386 ) ) ;
#126 = PLANE ( 'NONE',  #107 ) ;
#127 = PLANE ( 'NONE',  #1151 ) ;
#128 = LINE ( 'NONE', #717, #98 ) ;
#129 = CARTESIAN_POINT ( 'NONE',  ( 63.00000000000001421, 7.499999999999999112, 6.000000000000000000 ) ) ;
#130 = VECTOR ( 'NONE', #631, 1000.000000000000000 ) ;
#131 = ORIENTED_EDGE ( 'NONE', *, *, #317, .T. ) ;
#132 = ORIENTED_EDGE ( 'NONE', *, *, #1062, .F. ) ;
#133 = CARTESIAN_POINT ( 'NONE',  ( 12.99999999999999822, 57.49999999999999289, 12.00000000000000000 ) ) ;
#134 = ORIENTED_EDGE ( 'NONE', *, *, #841, .T. ) ;
#135 = ORIENTED_EDGE ( 'NONE', *, *, #1077, .F. ) ;
#136 = DIRECTION ( 'NONE',  ( 1.000000000000000000, 0.0000000000000000000, 0.0000000000000000000 ) ) ;
#137 = CARTESIAN_POINT ( 'NONE',  ( 7.500000000000000000, 57.49999999999999289, 0.0000000000000000000 ) ) ;
#138 = EDGE_CURVE ( 'NONE', #479, #947, #1102, .T. ) ;
#139 = AXIS2_PLACEMENT_3D ( 'NONE', #873, #1065, #185 ) ;
#140 = CARTESIAN_POINT ( 'NONE',  ( 57.50000000000000711, 7.499999999999999112, 6.000000000000000000 ) ) ;
#141 = ADVANCED_FACE ( 'NONE', ( #812, #401 ), #290, .F. ) ;
#142 = CALENDAR_DATE ( 2019, 20, 12 ) ;
#143 = CYLINDRICAL_SURFACE ( 'NONE', #1216, 8.900000000000005684 ) ;
#144 = EDGE_CURVE ( 'NONE', #334, #1036, #917, .T. ) ;
#145 = CIRCLE ( 'NONE', #1067, 5.499999999999998224 ) ;
#146 = ORIENTED_EDGE ( 'NONE', *, *, #285, .F. ) ;
#147 = CARTESIAN_POINT ( 'NONE',  ( 63.00000000000000000, 58.97818606135580666, 10.10000000000004228 ) ) ;
#148 = ADVANCED_FACE ( 'NONE', ( #834 ), #675, .T. ) ;
#149 = DIRECTION ( 'NONE',  ( 1.000000000000000000, 0.0000000000000000000, 0.0000000000000000000 ) ) ;
#150 = ORIENTED_EDGE ( 'NONE', *, *, #1211, .T. ) ;
#151 = EDGE_LOOP ( 'NONE', ( #491, #944 ) ) ;
#152 =( BOUNDED_CURVE ( )  B_SPLINE_CURVE ( 3, ( #210, #296, #217, #890 ),
 .UNSPECIFIED., .F., .F. ) 
 B_SPLINE_CURVE_WITH_KNOTS ( ( 4, 4 ),
 ( 3.141592653589793116, 3.926990816987240063 ),
 .UNSPECIFIED. ) 
 CURVE ( )  GEOMETRIC_REPRESENTATION_ITEM ( )  RATIONAL_B_SPLINE_CURVE ( ( 1.000000000000000000, 0.9492530216741912330, 0.9492530216741912330, 1.000000000000000000 ) ) 
 REPRESENTATION_ITEM ( '' )  );
#153 = EDGE_LOOP ( 'NONE', ( #405, #182 ) ) ;
#154 = ADVANCED_FACE ( 'NONE', ( #70, #1017, #622, #1061, #1073, #1156, #656 ), #308, .T. ) ;
#155 = AXIS2_PLACEMENT_3D ( 'NONE', #863, #1164, #786 ) ;
#156 = DIRECTION ( 'NONE',  ( -1.000000000000000000, 0.0000000000000000000, 0.0000000000000000000 ) ) ;
#157 = CIRCLE ( 'NONE', #162, 5.499999999999998224 ) ;
#158 = DIRECTION ( 'NONE',  ( -0.0000000000000000000, -0.0000000000000000000, 1.000000000000000000 ) ) ;
#159 = VECTOR ( 'NONE', #935, 1000.000000000000000 ) ;
#160 = FACE_OUTER_BOUND ( 'NONE', #870, .T. ) ;
#161 = ORIENTED_EDGE ( 'NONE', *, *, #46, .T. ) ;
#162 = AXIS2_PLACEMENT_3D ( 'NONE', #100, #767, #194 ) ;
#163 = ORIENTED_EDGE ( 'NONE', *, *, #391, .F. ) ;
#164 = EDGE_LOOP ( 'NONE', ( #1148, #58, #1131, #197, #359, #580, #766, #1235 ) ) ;
#165 = CARTESIAN_POINT ( 'NONE',  ( 10.50000000000000711, 7.499999999999992895, 6.000000000000000000 ) ) ;
#166 = VERTEX_POINT ( 'NONE', #389 ) ;
#167 = ORIENTED_EDGE ( 'NONE', *, *, #1010, .T. ) ;
#168 = CARTESIAN_POINT ( 'NONE',  ( 53.34187542274167271, 61.10000000000002984, 12.00000000000000000 ) ) ;
#169 = ADVANCED_FACE ( 'NONE', ( #552, #297 ), #967, .T. ) ;
#170 = DIRECTION ( 'NONE',  ( -1.000000000000000000, -0.0000000000000000000, -0.0000000000000000000 ) ) ;
#171 = DATE_AND_TIME ( #983, #684 ) ;
#172 = DIRECTION ( 'NONE',  ( 1.000000000000000000, 0.0000000000000000000, 0.0000000000000000000 ) ) ;
#173 = VECTOR ( 'NONE', #1219, 1000.000000000000000 ) ;
#174 = FACE_OUTER_BOUND ( 'NONE', #1163, .T. ) ;
#175 = VECTOR ( 'NONE', #903, 1000.000000000000000 ) ;
#176 = ORIENTED_EDGE ( 'NONE', *, *, #1168, .F. ) ;
#177 = PLANE ( 'NONE',  #829 ) ;
#178 = AXIS2_PLACEMENT_3D ( 'NONE', #483, #103, #201 ) ;
#179 = EDGE_LOOP ( 'NONE', ( #868, #838, #907, #1210 ) ) ;
#180 = ORIENTED_EDGE ( 'NONE', *, *, #810, .F. ) ;
#181 = AXIS2_PLACEMENT_3D ( 'NONE', #743, #555, #551 ) ;
#182 = ORIENTED_EDGE ( 'NONE', *, *, #429, .F. ) ;
#183 = CARTESIAN_POINT ( 'NONE',  ( 57.50000000000000000, 57.50000000000000000, -0.9999999999999991118 ) ) ;
#184 = CARTESIAN_POINT ( 'NONE',  ( 61.38908729652600726, 61.38908729652601437, 11.71091270347402435 ) ) ;
#185 = DIRECTION ( 'NONE',  ( -1.000000000000000000, 1.261617073437678048E-15, 0.0000000000000000000 ) ) ;
#186 = EDGE_CURVE ( 'NONE', #234, #738, #145, .T. ) ;
#187 = DIRECTION ( 'NONE',  ( -0.0000000000000000000, -0.0000000000000000000, 1.000000000000000000 ) ) ;
#188 = PRODUCT_DEFINITION ( 'UNKNOWN', '', #872, #189 ) ;
#189 = DESIGN_CONTEXT ( 'detailed design', #3, 'design' ) ;
#190 = LINE ( 'NONE', #1038, #67 ) ;
#191 = FACE_OUTER_BOUND ( 'NONE', #1238, .T. ) ;
#192 = ORIENTED_EDGE ( 'NONE', *, *, #942, .F. ) ;
#193 = ORIENTED_EDGE ( 'NONE', *, *, #144, .F. ) ;
#194 = DIRECTION ( 'NONE',  ( 1.000000000000000000, 0.0000000000000000000, 0.0000000000000000000 ) ) ;
#195 = EDGE_LOOP ( 'NONE', ( #1020, #614 ) ) ;
#196 = AXIS2_PLACEMENT_3D ( 'NONE', #668, #1056, #1142 ) ;
#197 = ORIENTED_EDGE ( 'NONE', *, *, #1211, .F. ) ;
#198 = ORIENTED_EDGE ( 'NONE', *, *, #876, .T. ) ;
#199 = CARTESIAN_POINT ( 'NONE',  ( 63.00000000000001421, 6.021813938644206665, 10.10000000000003162 ) ) ;
#200 = DIRECTION ( 'NONE',  ( -0.0000000000000000000, -0.0000000000000000000, 1.000000000000000000 ) ) ;
#201 = DIRECTION ( 'NONE',  ( -1.000000000000000000, 0.0000000000000000000, 0.0000000000000000000 ) ) ;
#202 = CARTESIAN_POINT ( 'NONE',  ( 51.10000000000002274, 30.60000000000008669, 0.0000000000000000000 ) ) ;
#203 = EDGE_CURVE ( 'NONE', #1201, #919, #1130, .T. ) ;
#204 = CARTESIAN_POINT ( 'NONE',  ( 0.0000000000000000000, 63.10000000000001563, 0.0000000000000000000 ) ) ;
#205 = LINE ( 'NONE', #344, #85 ) ;
#206 = CC_DESIGN_APPROVAL ( #1104, ( #188 ) ) ;
#207 = VECTOR ( 'NONE', #187, 1000.000000000000000 ) ;
#208 = VERTEX_POINT ( 'NONE', #990 ) ;
#209 = ORIENTED_EDGE ( 'NONE', *, *, #1168, .T. ) ;
#210 = CARTESIAN_POINT ( 'NONE',  ( 2.000000000000007105, 7.499999999999993783, 10.10000000000001208 ) ) ;
#211 = EDGE_CURVE ( 'NONE', #947, #960, #38, .T. ) ;
#212 = ORIENTED_EDGE ( 'NONE', *, *, #186, .F. ) ;
#213 = PERSON_AND_ORGANIZATION_ROLE ( 'classification_officer' ) ;
#214 = CARTESIAN_POINT ( 'NONE',  ( 23.59999999999999432, 49.40000000000000568, 0.0000000000000000000 ) ) ;
#215 = CLOSED_SHELL ( 'NONE', ( #729, #1098, #828, #1167, #550, #1110, #1012, #1198, #616, #1113, #643, #154, #445, #532, #742, #248, #265, #913, #339, #456, #406, #1028, #253, #169, #1084, #630, #544, #360, #636, #141, #1119, #316, #1018, #148, #72, #820 ) ) ;
#216 = DIRECTION ( 'NONE',  ( 0.0000000000000000000, 0.0000000000000000000, -1.000000000000000000 ) ) ;
#217 = CARTESIAN_POINT ( 'NONE',  ( 2.565677315633872801, 4.656148091314106452, 10.66567731563387333 ) ) ;
#218 = COORDINATED_UNIVERSAL_TIME_OFFSET ( 0, 0, .AHEAD. ) ;
#219 = DIRECTION ( 'NONE',  ( -0.0000000000000000000, -0.0000000000000000000, 1.000000000000000000 ) ) ;
#220 = CARTESIAN_POINT ( 'NONE',  ( 6.021001555009026340, 63.79917614806102222, 9.300823851939025388 ) ) ;
#221 = EDGE_CURVE ( 'NONE', #1079, #754, #881, .T. ) ;
#222 = DIRECTION ( 'NONE',  ( 1.000000000000000000, 0.0000000000000000000, 0.0000000000000000000 ) ) ;
#223 = CYLINDRICAL_SURFACE ( 'NONE', #484, 3.000000000000002665 ) ;
#224 = DIRECTION ( 'NONE',  ( 0.0000000000000000000, 0.0000000000000000000, 1.000000000000000000 ) ) ;
#225 = CIRCLE ( 'NONE', #908, 8.900000000000005684 ) ;
#226 = CARTESIAN_POINT ( 'NONE',  ( 52.00000000000000711, 57.50000000000000000, 6.000000000000000000 ) ) ;
#227 = CARTESIAN_POINT ( 'NONE',  ( 9.427184718110346751, 1.323187261469794818, 9.423187261469811560 ) ) ;
#228 = ORIENTED_EDGE ( 'NONE', *, *, #367, .F. ) ;
#229 = ORIENTED_EDGE ( 'NONE', *, *, #203, .T. ) ;
#230 = CARTESIAN_POINT ( 'NONE',  ( 57.50000000000000711, 7.499999999999999112, 6.000000000000000000 ) ) ;
#231 = DIRECTION ( 'NONE',  ( -0.0000000000000000000, -0.0000000000000000000, 1.000000000000000000 ) ) ;
#232 = DIRECTION ( 'NONE',  ( 0.0000000000000000000, 0.0000000000000000000, 1.000000000000000000 ) ) ;
#233 = ORIENTED_EDGE ( 'NONE', *, *, #1157, .T. ) ;
#234 = VERTEX_POINT ( 'NONE', #612 ) ;
#235 = DIRECTION ( 'NONE',  ( 1.000000000000000000, 0.0000000000000000000, 0.0000000000000000000 ) ) ;
#236 =( BOUNDED_CURVE ( )  B_SPLINE_CURVE ( 3, ( #294, #693, #220, #880 ),
 .UNSPECIFIED., .F., .F. ) 
 B_SPLINE_CURVE_WITH_KNOTS ( ( 4, 4 ),
 ( 2.284377558085217252, 3.926990816987236510 ),
 .UNSPECIFIED. ) 
 CURVE ( )  GEOMETRIC_REPRESENTATION_ITEM ( )  RATIONAL_B_SPLINE_CURVE ( ( 1.000000000000000000, 0.7875101923426270911, 0.7875101923426270911, 1.000000000000000000 ) ) 
 REPRESENTATION_ITEM ( '' )  );
#237 = CARTESIAN_POINT ( 'NONE',  ( 3.610912703473990959, 3.610912703473986518, 11.71091270347398350 ) ) ;
#238 = EDGE_CURVE ( 'NONE', #629, #673, #343, .T. ) ;
#239 = VECTOR ( 'NONE', #793, 1000.000000000000114 ) ;
#240 = CIRCLE ( 'NONE', #83, 3.000000000000002665 ) ;
#241 = AXIS2_PLACEMENT_3D ( 'NONE', #1162, #23, #495 ) ;
#242 = CYLINDRICAL_SURFACE ( 'NONE', #1239, 3.000000000000002665 ) ;
#243 = CARTESIAN_POINT ( 'NONE',  ( 57.50000000000000000, 57.50000000000000000, 6.000000000000000000 ) ) ;
#244 = ORIENTED_EDGE ( 'NONE', *, *, #633, .T. ) ;
#245 = CARTESIAN_POINT ( 'NONE',  ( 3.900000000000007461, 11.65812457725835039, 12.00000000000000000 ) ) ;
#246 = CARTESIAN_POINT ( 'NONE',  ( 57.50000000000000000, 57.50000000000000000, 0.0000000000000000000 ) ) ;
#247 = ORIENTED_EDGE ( 'NONE', *, *, #57, .T. ) ;
#248 = ADVANCED_FACE ( 'NONE', ( #749 ), #242, .F. ) ;
#249 = EDGE_CURVE ( 'NONE', #660, #386, #776, .T. ) ;
#250 =( BOUNDED_CURVE ( )  B_SPLINE_CURVE ( 3, ( #891, #305, #125, #707 ),
 .UNSPECIFIED., .F., .T. ) 
 B_SPLINE_CURVE_WITH_KNOTS ( ( 4, 4 ),
 ( 2.284377558085208815, 3.141592653589793116 ),
 .UNSPECIFIED. ) 
 CURVE ( )  GEOMETRIC_REPRESENTATION_ITEM ( )  RATIONAL_B_SPLINE_CURVE ( ( 1.000000000000000000, 0.9396968939772489815, 0.9396968939772489815, 1.000000000000000000 ) ) 
 REPRESENTATION_ITEM ( '' )  );
#251 = APPROVAL_PERSON_ORGANIZATION ( #396, #394, #1153 ) ;
#252 = DATE_AND_TIME ( #499, #1206 ) ;
#253 = ADVANCED_FACE ( 'NONE', ( #366 ), #1047, .F. ) ;
#254 = LINE ( 'NONE', #682, #239 ) ;
#255 = EDGE_CURVE ( 'NONE', #450, #464, #489, .T. ) ;
#256 = FACE_OUTER_BOUND ( 'NONE', #164, .T. ) ;
#257 = ORIENTED_EDGE ( 'NONE', *, *, #391, .T. ) ;
#258 = CC_DESIGN_PERSON_AND_ORGANIZATION_ASSIGNMENT ( #574, #785, ( #188 ) ) ;
#259 = CARTESIAN_POINT ( 'NONE',  ( 53.34187542274167271, 61.10000000000002984, 12.00000000000000000 ) ) ;
#260 = VERTEX_POINT ( 'NONE', #93 ) ;
#261 = ORIENTED_EDGE ( 'NONE', *, *, #679, .F. ) ;
#262 = DIRECTION ( 'NONE',  ( -1.000000000000000000, 1.734723475976807094E-15, 0.0000000000000000000 ) ) ;
#263 = ORIENTED_EDGE ( 'NONE', *, *, #1000, .F. ) ;
#264 = AXIS2_PLACEMENT_3D ( 'NONE', #1222, #158, #262 ) ;
#265 = ADVANCED_FACE ( 'NONE', ( #281 ), #6, .F. ) ;
#266 = CARTESIAN_POINT ( 'NONE',  ( 57.50000000000000711, 7.499999999999999112, 6.000000000000000000 ) ) ;
#267 = CIRCLE ( 'NONE', #264, 5.500000000000000000 ) ;
#268 = CARTESIAN_POINT ( 'NONE',  ( 7.500000000000007105, 7.499999999999992895, -0.9999999999999991118 ) ) ;
#269 = VECTOR ( 'NONE', #892, 1000.000000000000000 ) ;
#270 = CIRCLE ( 'NONE', #599, 5.500000000000005329 ) ;
#271 = EDGE_CURVE ( 'NONE', #1201, #260, #1220, .T. ) ;
#272 = AXIS2_PLACEMENT_3D ( 'NONE', #1009, #511, #909 ) ;
#273 = CARTESIAN_POINT ( 'NONE',  ( 54.50000000000000711, 7.499999999999999112, 6.000000000000000000 ) ) ;
#274 = ORIENTED_EDGE ( 'NONE', *, *, #32, .F. ) ;
#275 = ORIENTED_EDGE ( 'NONE', *, *, #299, .F. ) ;
#276 = DIRECTION ( 'NONE',  ( 0.0000000000000000000, 0.0000000000000000000, -1.000000000000000000 ) ) ;
#277 = EDGE_CURVE ( 'NONE', #921, #466, #620, .T. ) ;
#278 = AXIS2_PLACEMENT_3D ( 'NONE', #997, #421, #519 ) ;
#279 = DIRECTION ( 'NONE',  ( -0.0000000000000000000, -0.0000000000000000000, 1.000000000000000000 ) ) ;
#280 = LINE ( 'NONE', #866, #97 ) ;
#281 = FACE_OUTER_BOUND ( 'NONE', #526, .T. ) ;
#282 = ORIENTED_EDGE ( 'NONE', *, *, #81, .F. ) ;
#283 = CARTESIAN_POINT ( 'NONE',  ( 57.50000000000000711, 7.499999999999999112, 12.00000000000000000 ) ) ;
#284 = DIRECTION ( 'NONE',  ( 0.5773502691896270633, -0.5773502691896270633, -0.5773502691896230665 ) ) ;
#285 = EDGE_CURVE ( 'NONE', #588, #56, #1128, .T. ) ;
#286 = ORIENTED_EDGE ( 'NONE', *, *, #271, .T. ) ;
#287 = EDGE_LOOP ( 'NONE', ( #88, #27 ) ) ;
#288 = EDGE_CURVE ( 'NONE', #466, #1118, #577, .T. ) ;
#289 = CARTESIAN_POINT ( 'NONE',  ( 7.500000000000007105, 7.499999999999992895, 0.0000000000000000000 ) ) ;
#290 = PLANE ( 'NONE',  #562 ) ;
#291 = CC_DESIGN_PERSON_AND_ORGANIZATION_ASSIGNMENT ( #772, #1070, ( #872 ) ) ;
#292 = FACE_OUTER_BOUND ( 'NONE', #384, .T. ) ;
#293 =( NAMED_UNIT ( * ) SI_UNIT ( $, .STERADIAN. ) SOLID_ANGLE_UNIT ( ) );
#294 = CARTESIAN_POINT ( 'NONE',  ( 11.65812457725832729, 61.10000000000002984, 12.00000000000000000 ) ) ;
#295 = FACE_OUTER_BOUND ( 'NONE', #991, .T. ) ;
#296 = CARTESIAN_POINT ( 'NONE',  ( 2.000000000000006217, 6.021813938644198672, 10.10000000000001208 ) ) ;
#297 = FACE_BOUND ( 'NONE', #571, .T. ) ;
#298 = PLANE ( 'NONE',  #1183 ) ;
#299 = EDGE_CURVE ( 'NONE', #1036, #334, #225, .T. ) ;
#300 = ORIENTED_EDGE ( 'NONE', *, *, #22, .F. ) ;
#301 = DIRECTION ( 'NONE',  ( -1.000000000000000000, 0.0000000000000000000, 0.0000000000000000000 ) ) ;
#302 = EDGE_LOOP ( 'NONE', ( #180, #737, #373, #1023 ) ) ;
#303 = ORIENTED_EDGE ( 'NONE', *, *, #285, .T. ) ;
#304 = CARTESIAN_POINT ( 'NONE',  ( 61.10000000000002984, 11.65812457725834506, 12.00000000000000000 ) ) ;
#305 = CARTESIAN_POINT ( 'NONE',  ( 2.673976191038332839, 10.59666390424211357, 10.77397619103833293 ) ) ;
#306 = EDGE_CURVE ( 'NONE', #481, #733, #354, .T. ) ;
#307 = DIRECTION ( 'NONE',  ( -0.0000000000000000000, -0.0000000000000000000, 1.000000000000000000 ) ) ;
#308 = PLANE ( 'NONE',  #470 ) ;
#309 = VECTOR ( 'NONE', #172, 1000.000000000000000 ) ;
#310 = AXIS2_PLACEMENT_3D ( 'NONE', #922, #352, #1203 ) ;
#311 = VECTOR ( 'NONE', #758, 1000.000000000000000 ) ;
#312 = CARTESIAN_POINT ( 'NONE',  ( 7.500000000000007105, 7.499999999999992895, 0.0000000000000000000 ) ) ;
#313 = ORIENTED_EDGE ( 'NONE', *, *, #650, .F. ) ;
#314 = CARTESIAN_POINT ( 'NONE',  ( 62.32602380896170757, 10.59666390424210469, 10.77397619103834714 ) ) ;
#315 = ORIENTED_EDGE ( 'NONE', *, *, #788, .F. ) ;
#316 = ADVANCED_FACE ( 'NONE', ( #487 ), #573, .T. ) ;
#317 = EDGE_CURVE ( 'NONE', #1221, #1196, #938, .T. ) ;
#318 = EDGE_LOOP ( 'NONE', ( #1008, #1146, #768, #102, #703 ) ) ;
#319 = DIRECTION ( 'NONE',  ( -0.0000000000000000000, -0.0000000000000000000, 1.000000000000000000 ) ) ;
#320 = ORIENTED_EDGE ( 'NONE', *, *, #720, .T. ) ;
#321 = CC_DESIGN_PERSON_AND_ORGANIZATION_ASSIGNMENT ( #498, #501, ( #872 ) ) ;
#322 = CARTESIAN_POINT ( 'NONE',  ( 1.900000000000019673, 1.900000000000012790, 10.00000000000002665 ) ) ;
#323 = CARTESIAN_POINT ( 'NONE',  ( 4.500000000000004441, 7.499999999999992895, 0.0000000000000000000 ) ) ;
#324 = CARTESIAN_POINT ( 'NONE',  ( 57.50000000000000000, 57.50000000000000000, 6.000000000000000000 ) ) ;
#325 = COORDINATED_UNIVERSAL_TIME_OFFSET ( 0, 0, .AHEAD. ) ;
#326 = DIRECTION ( 'NONE',  ( 1.000000000000000000, 0.0000000000000000000, 0.0000000000000000000 ) ) ;
#327 = AXIS2_PLACEMENT_3D ( 'NONE', #91, #949, #862 ) ;
#328 = PLANE ( 'NONE',  #1171 ) ;
#329 = CIRCLE ( 'NONE', #1226, 8.900000000000005684 ) ;
#330 = CIRCLE ( 'NONE', #589, 5.499999999999998224 ) ;
#331 = CARTESIAN_POINT ( 'NONE',  ( 57.50000000000000000, 57.50000000000000000, -0.9999999999999991118 ) ) ;
#332 = CARTESIAN_POINT ( 'NONE',  ( 58.97899844499098521, 1.200823851938948916, 9.300823851938964992 ) ) ;
#333 = ORIENTED_EDGE ( 'NONE', *, *, #1101, .T. ) ;
#334 = VERTEX_POINT ( 'NONE', #214 ) ;
#335 = EDGE_CURVE ( 'NONE', #962, #673, #342, .T. ) ;
#336 = CARTESIAN_POINT ( 'NONE',  ( 63.10000000000001563, 1.900000000000012790, 10.00000000000002665 ) ) ;
#337 = DIRECTION ( 'NONE',  ( 1.000000000000000000, 0.0000000000000000000, 0.0000000000000000000 ) ) ;
#338 = AXIS2_PLACEMENT_3D ( 'NONE', #472, #579, #95 ) ;
#339 = ADVANCED_FACE ( 'NONE', ( #1031 ), #748, .F. ) ;
#340 = CARTESIAN_POINT ( 'NONE',  ( 57.50000000000000711, 7.499999999999999112, -0.9999999999999991118 ) ) ;
#341 = DATE_AND_TIME ( #1228, #547 ) ;
#342 = LINE ( 'NONE', #1138, #269 ) ;
#343 = CIRCLE ( 'NONE', #835, 5.500000000000000000 ) ;
#344 = CARTESIAN_POINT ( 'NONE',  ( 41.40000000000000568, 49.40000000000000568, -0.9999999999999991118 ) ) ;
#345 = ORIENTED_EDGE ( 'NONE', *, *, #442, .F. ) ;
#346 = EDGE_LOOP ( 'NONE', ( #506, #705 ) ) ;
#347 = ORIENTED_EDGE ( 'NONE', *, *, #1039, .T. ) ;
#348 = ORIENTED_EDGE ( 'NONE', *, *, #937, .F. ) ;
#349 = ORIENTED_EDGE ( 'NONE', *, *, #556, .F. ) ;
#350 = EDGE_CURVE ( 'NONE', #921, #28, #1208, .T. ) ;
#351 = FACE_OUTER_BOUND ( 'NONE', #933, .T. ) ;
#352 = DIRECTION ( 'NONE',  ( 1.000000000000000000, 0.0000000000000000000, 0.0000000000000000000 ) ) ;
#353 = EDGE_CURVE ( 'NONE', #28, #1118, #654, .T. ) ;
#354 = CIRCLE ( 'NONE', #404, 5.499999999999998224 ) ;
#355 = ORIENTED_EDGE ( 'NONE', *, *, #1224, .T. ) ;
#356 = AXIS2_PLACEMENT_3D ( 'NONE', #1188, #713, #893 ) ;
#357 = DIRECTION ( 'NONE',  ( -0.0000000000000000000, -0.0000000000000000000, 1.000000000000000000 ) ) ;
#358 = ORIENTED_EDGE ( 'NONE', *, *, #1229, .T. ) ;
#359 = ORIENTED_EDGE ( 'NONE', *, *, #1085, .F. ) ;
#360 = ADVANCED_FACE ( 'NONE', ( #1060 ), #126, .T. ) ;
#361 = EDGE_CURVE ( 'NONE', #645, #1021, #240, .T. ) ;
#362 = AXIS2_PLACEMENT_3D ( 'NONE', #517, #1184, #337 ) ;
#363 = CARTESIAN_POINT ( 'NONE',  ( 61.10000000000002984, 53.34187542274167271, 12.00000000000000000 ) ) ;
#364 = VECTOR ( 'NONE', #1132, 1000.000000000000000 ) ;
#365 = CIRCLE ( 'NONE', #492, 3.000000000000004441 ) ;
#366 = FACE_OUTER_BOUND ( 'NONE', #318, .T. ) ;
#367 = EDGE_CURVE ( 'NONE', #588, #1109, #330, .T. ) ;
#368 = CARTESIAN_POINT ( 'NONE',  ( 1.900000000000019673, -1.899999999999999023, 12.00000000000000000 ) ) ;
#369 = ORIENTED_EDGE ( 'NONE', *, *, #929, .F. ) ;
#370 = AXIS2_PLACEMENT_3D ( 'NONE', #55, #918, #740 ) ;
#371 = CARTESIAN_POINT ( 'NONE',  ( 52.00000000000000711, 57.50000000000000000, 12.00000000000000000 ) ) ;
#372 = VERTEX_POINT ( 'NONE', #1154 ) ;
#373 = ORIENTED_EDGE ( 'NONE', *, *, #1062, .T. ) ;
#374 = CARTESIAN_POINT ( 'NONE',  ( 32.50000000000000000, 49.40000000000000568, 12.00000000000000000 ) ) ;
#375 = AXIS2_PLACEMENT_3D ( 'NONE', #140, #798, #428 ) ;
#376 = DIRECTION ( 'NONE',  ( -0.0000000000000000000, -0.0000000000000000000, 1.000000000000000000 ) ) ;
#377 = CARTESIAN_POINT ( 'NONE',  ( 62.43432268436615118, 4.656148091314117110, 10.66567731563389643 ) ) ;
#378 = CARTESIAN_POINT ( 'NONE',  ( 61.10000000000002984, 11.65812457725834506, 12.00000000000000000 ) ) ;
#379 = LINE ( 'NONE', #545, #696 ) ;
#380 = CIRCLE ( 'NONE', #611, 3.000000000000002665 ) ;
#381 = EDGE_LOOP ( 'NONE', ( #769, #286, #525, #333 ) ) ;
#382 = DIRECTION ( 'NONE',  ( 0.0000000000000000000, 0.0000000000000000000, 1.000000000000000000 ) ) ;
#383 = CARTESIAN_POINT ( 'NONE',  ( 12.99999999999999822, 57.49999999999999289, 6.000000000000000000 ) ) ;
#384 = EDGE_LOOP ( 'NONE', ( #513, #247, #824, #930, #955, #1209 ) ) ;
#385 = AXIS2_PLACEMENT_3D ( 'NONE', #82, #936, #455 ) ;
#386 = VERTEX_POINT ( 'NONE', #977 ) ;
#387 = ORIENTED_EDGE ( 'NONE', *, *, #306, .F. ) ;
#388 = CARTESIAN_POINT ( 'NONE',  ( 57.50000000000000000, 57.50000000000000000, 6.000000000000000000 ) ) ;
#389 = CARTESIAN_POINT ( 'NONE',  ( 10.50000000000000533, 57.49999999999999289, 0.0000000000000000000 ) ) ;
#390 = DIRECTION ( 'NONE',  ( 1.000000000000000000, 0.0000000000000000000, 0.0000000000000000000 ) ) ;
#391 = EDGE_CURVE ( 'NONE', #904, #754, #431, .T. ) ;
#392 = CARTESIAN_POINT ( 'NONE',  ( 7.500000000000000000, 57.49999999999999289, 6.000000000000000000 ) ) ;
#393 = DIRECTION ( 'NONE',  ( 1.000000000000000000, 0.0000000000000000000, -0.0000000000000000000 ) ) ;
#394 = APPROVAL ( #490, 'UNSPECIFIED' ) ;
#395 = DIRECTION ( 'NONE',  ( 1.000000000000000000, 0.0000000000000000000, 0.0000000000000000000 ) ) ;
#396 = PERSON_AND_ORGANIZATION ( #787, #397 ) ;
#397 = ORGANIZATION ( 'UNSPECIFIED', 'UNSPECIFIED', '' ) ;
#398 = SECURITY_CLASSIFICATION_LEVEL ( 'unclassified' ) ;
#399 = DIRECTION ( 'NONE',  ( 0.0000000000000000000, 0.0000000000000000000, -1.000000000000000000 ) ) ;
#400 = FACE_OUTER_BOUND ( 'NONE', #741, .T. ) ;
#401 = FACE_BOUND ( 'NONE', #709, .T. ) ;
#402 = EDGE_LOOP ( 'NONE', ( #14, #661, #674, #540 ) ) ;
#403 = EDGE_CURVE ( 'NONE', #1196, #733, #1218, .T. ) ;
#404 = AXIS2_PLACEMENT_3D ( 'NONE', #1234, #478, #5 ) ;
#405 = ORIENTED_EDGE ( 'NONE', *, *, #981, .F. ) ;
#406 = ADVANCED_FACE ( 'NONE', ( #687 ), #524, .F. ) ;
#407 = CARTESIAN_POINT ( 'NONE',  ( 12.99999999999999822, 57.49999999999999289, 6.000000000000000000 ) ) ;
#408 = DIRECTION ( 'NONE',  ( -0.0000000000000000000, -0.0000000000000000000, -1.000000000000000000 ) ) ;
#409 = DIRECTION ( 'NONE',  ( -1.000000000000000000, 0.0000000000000000000, 0.0000000000000000000 ) ) ;
#410 = EDGE_CURVE ( 'NONE', #733, #607, #17, .T. ) ;
#411 = DIRECTION ( 'NONE',  ( -0.0000000000000000000, -0.0000000000000000000, -1.000000000000000000 ) ) ;
#412 = DIRECTION ( 'NONE',  ( -0.0000000000000000000, -0.0000000000000000000, 1.000000000000000000 ) ) ;
#413 = COORDINATED_UNIVERSAL_TIME_OFFSET ( 0, 0, .AHEAD. ) ;
#414 = DIRECTION ( 'NONE',  ( 0.0000000000000000000, 0.0000000000000000000, -1.000000000000000000 ) ) ;
#415 = LINE ( 'NONE', #496, #1143 ) ;
#416 = CARTESIAN_POINT ( 'NONE',  ( 32.50000000000000000, 49.40000000000000568, -0.9999999999999991118 ) ) ;
#417 = ORIENTED_EDGE ( 'NONE', *, *, #751, .F. ) ;
#418 = CARTESIAN_POINT ( 'NONE',  ( 41.40000000000000568, 49.40000000000000568, 12.00000000000000000 ) ) ;
#419 = EDGE_LOOP ( 'NONE', ( #610, #1111, #1149, #1213 ) ) ;
#420 = ORIENTED_EDGE ( 'NONE', *, *, #211, .F. ) ;
#421 = DIRECTION ( 'NONE',  ( -0.0000000000000000000, -0.0000000000000000000, 1.000000000000000000 ) ) ;
#422 = ORIENTED_EDGE ( 'NONE', *, *, #659, .F. ) ;
#423 = ORIENTED_EDGE ( 'NONE', *, *, #74, .T. ) ;
#424 = AXIS2_PLACEMENT_3D ( 'NONE', #452, #45, #441 ) ;
#425 = CARTESIAN_POINT ( 'NONE',  ( 55.57281528188968167, 1.323187261469794151, 9.423187261469811560 ) ) ;
#426 = CARTESIAN_POINT ( 'NONE',  ( 57.50000000000000711, 7.499999999999999112, 0.0000000000000000000 ) ) ;
#427 = CARTESIAN_POINT ( 'NONE',  ( 6.021001555009026340, 1.200823851938945808, 9.300823851938963216 ) ) ;
#428 = DIRECTION ( 'NONE',  ( 1.000000000000000000, 0.0000000000000000000, 0.0000000000000000000 ) ) ;
#429 = EDGE_CURVE ( 'NONE', #948, #1120, #1005, .T. ) ;
#430 = LOCAL_TIME ( 14, 32, 54.00000000000000000, #325 ) ;
#431 = CIRCLE ( 'NONE', #59, 3.000000000000004441 ) ;
#432 = VECTOR ( 'NONE', #706, 1000.000000000000000 ) ;
#433 = DIRECTION ( 'NONE',  ( -0.0000000000000000000, -0.0000000000000000000, 1.000000000000000000 ) ) ;
#434 = EDGE_LOOP ( 'NONE', ( #992, #120, #161, #131, #885 ) ) ;
#435 = CARTESIAN_POINT ( 'NONE',  ( 63.00000000000000000, 57.50000000000000000, 10.10000000000004050 ) ) ;
#436 = CARTESIAN_POINT ( 'NONE',  ( 2.000000000000000888, 57.49999999999999289, 10.10000000000000853 ) ) ;
#437 = VERTEX_POINT ( 'NONE', #888 ) ;
#438 = VERTEX_POINT ( 'NONE', #791 ) ;
#439 = ORIENTED_EDGE ( 'NONE', *, *, #255, .T. ) ;
#440 = DIRECTION ( 'NONE',  ( -1.000000000000000000, 0.0000000000000000000, 0.0000000000000000000 ) ) ;
#441 = DIRECTION ( 'NONE',  ( -1.000000000000000000, 0.0000000000000000000, 0.0000000000000000000 ) ) ;
#442 = EDGE_CURVE ( 'NONE', #468, #208, #701, .T. ) ;
#443 = FACE_OUTER_BOUND ( 'NONE', #76, .T. ) ;
#444 = CARTESIAN_POINT ( 'NONE',  ( 13.90000000000001990, 34.60000000000004405, -7.499999999999998224 ) ) ;
#445 = ADVANCED_FACE ( 'NONE', ( #448 ), #718, .F. ) ;
#446 = VECTOR ( 'NONE', #433, 1000.000000000000000 ) ;
#447 = AXIS2_PLACEMENT_3D ( 'NONE', #910, #232, #695 ) ;
#448 = FACE_OUTER_BOUND ( 'NONE', #419, .T. ) ;
#449 = EDGE_LOOP ( 'NONE', ( #1063, #423 ) ) ;
#450 = VERTEX_POINT ( 'NONE', #621 ) ;
#451 = ORIENTED_EDGE ( 'NONE', *, *, #700, .T. ) ;
#452 = CARTESIAN_POINT ( 'NONE',  ( 57.50000000000000711, 7.499999999999999112, 12.00000000000000000 ) ) ;
#453 =( BOUNDED_CURVE ( )  B_SPLINE_CURVE ( 3, ( #905, #425, #332, #637 ),
 .UNSPECIFIED., .F., .F. ) 
 B_SPLINE_CURVE_WITH_KNOTS ( ( 4, 4 ),
 ( 2.284377558085207927, 3.926990816987244060 ),
 .UNSPECIFIED. ) 
 CURVE ( )  GEOMETRIC_REPRESENTATION_ITEM ( )  RATIONAL_B_SPLINE_CURVE ( ( 1.000000000000000000, 0.7875101923426229833, 0.7875101923426229833, 1.000000000000000000 ) ) 
 REPRESENTATION_ITEM ( '' )  );
#454 = CARTESIAN_POINT ( 'NONE',  ( 13.90000000000002345, 38.60000000000000853, 0.0000000000000000000 ) ) ;
#455 = DIRECTION ( 'NONE',  ( 1.000000000000000000, 0.0000000000000000000, 0.0000000000000000000 ) ) ;
#456 = ADVANCED_FACE ( 'NONE', ( #1179, #1089 ), #328, .T. ) ;
#457 = LOCAL_TIME ( 14, 32, 54.00000000000000000, #560 ) ;
#458 = CARTESIAN_POINT ( 'NONE',  ( 1.900000000000019673, 63.10000000000001563, 10.00000000000002665 ) ) ;
#459 = DIRECTION ( 'NONE',  ( 0.0000000000000000000, 0.0000000000000000000, -1.000000000000000000 ) ) ;
#460 = CIRCLE ( 'NONE', #447, 5.500000000000005329 ) ;
#461 = EDGE_CURVE ( 'NONE', #607, #479, #902, .T. ) ;
#462 = ORIENTED_EDGE ( 'NONE', *, *, #138, .F. ) ;
#463 = AXIS2_PLACEMENT_3D ( 'NONE', #1050, #200, #390 ) ;
#464 = VERTEX_POINT ( 'NONE', #1095 ) ;
#465 = CARTESIAN_POINT ( 'NONE',  ( 58.97899844499099942, 63.79917614806103643, 9.300823851939021836 ) ) ;
#466 = VERTEX_POINT ( 'NONE', #843 ) ;
#467 =( BOUNDED_CURVE ( )  B_SPLINE_CURVE ( 3, ( #575, #377, #199, #1237 ),
 .UNSPECIFIED., .F., .F. ) 
 B_SPLINE_CURVE_WITH_KNOTS ( ( 4, 4 ),
 ( 2.356194490192347946, 3.141592653589793116 ),
 .UNSPECIFIED. ) 
 CURVE ( )  GEOMETRIC_REPRESENTATION_ITEM ( )  RATIONAL_B_SPLINE_CURVE ( ( 1.000000000000000000, 0.9492530216741915661, 0.9492530216741915661, 1.000000000000000000 ) ) 
 REPRESENTATION_ITEM ( '' )  );
#468 = VERTEX_POINT ( 'NONE', #273 ) ;
#469 = DIRECTION ( 'NONE',  ( -0.0000000000000000000, -0.0000000000000000000, 1.000000000000000000 ) ) ;
#470 = AXIS2_PLACEMENT_3D ( 'NONE', #681, #1172, #25 ) ;
#471 = CIRCLE ( 'NONE', #370, 3.000000000000000888 ) ;
#472 = CARTESIAN_POINT ( 'NONE',  ( 7.500000000000000000, 57.49999999999999289, 6.000000000000000000 ) ) ;
#473 = LINE ( 'NONE', #597, #794 ) ;
#474 = EDGE_CURVE ( 'NONE', #386, #660, #940, .T. ) ;
#475 = EDGE_LOOP ( 'NONE', ( #827, #1232, #569, #626, #451, #1212 ) ) ;
#476 = ORIENTED_EDGE ( 'NONE', *, *, #937, .T. ) ;
#477 = CARTESIAN_POINT ( 'NONE',  ( 3.610912703474008278, 61.38908729652602148, 11.71091270347400304 ) ) ;
#478 = DIRECTION ( 'NONE',  ( -0.0000000000000000000, -0.0000000000000000000, 1.000000000000000000 ) ) ;
#479 = VERTEX_POINT ( 'NONE', #184 ) ;
#480 = ORIENTED_EDGE ( 'NONE', *, *, #1108, .T. ) ;
#481 = VERTEX_POINT ( 'NONE', #371 ) ;
#482 = CARTESIAN_POINT ( 'NONE',  ( 63.00000000000001421, 7.499999999999999112, 10.10000000000002984 ) ) ;
#483 = CARTESIAN_POINT ( 'NONE',  ( 32.50000000000000000, 49.40000000000000568, 0.0000000000000000000 ) ) ;
#484 = AXIS2_PLACEMENT_3D ( 'NONE', #340, #1011, #149 ) ;
#485 = DIRECTION ( 'NONE',  ( -0.0000000000000000000, -0.0000000000000000000, 1.000000000000000000 ) ) ;
#486 = LINE ( 'NONE', #1178, #716 ) ;
#487 = FACE_OUTER_BOUND ( 'NONE', #593, .T. ) ;
#488 = EDGE_CURVE ( 'NONE', #906, #570, #901, .T. ) ;
#489 = LINE ( 'NONE', #101, #974 ) ;
#490 = APPROVAL_STATUS ( 'not_yet_approved' ) ;
#491 = ORIENTED_EDGE ( 'NONE', *, *, #608, .T. ) ;
#492 = AXIS2_PLACEMENT_3D ( 'NONE', #1191, #459, #1071 ) ;
#493 = DIRECTION ( 'NONE',  ( -0.0000000000000000000, -0.0000000000000000000, 1.000000000000000000 ) ) ;
#494 = ORIENTED_EDGE ( 'NONE', *, *, #15, .T. ) ;
#495 = DIRECTION ( 'NONE',  ( 1.000000000000000000, 0.0000000000000000000, 0.0000000000000000000 ) ) ;
#496 = CARTESIAN_POINT ( 'NONE',  ( 2.000000000000000888, 57.49999999999999289, 6.000000000000000000 ) ) ;
#497 = CARTESIAN_POINT ( 'NONE',  ( 63.00000000000001421, 9.121676028219242838, 10.10000000000003162 ) ) ;
#498 = PERSON_AND_ORGANIZATION ( #787, #397 ) ;
#499 = CALENDAR_DATE ( 2019, 20, 12 ) ;
#500 = CARTESIAN_POINT ( 'NONE',  ( 54.50000000000000711, 7.499999999999999112, 0.0000000000000000000 ) ) ;
#501 = PERSON_AND_ORGANIZATION_ROLE ( 'creator' ) ;
#502 = DIRECTION ( 'NONE',  ( -0.0000000000000000000, -0.0000000000000000000, 1.000000000000000000 ) ) ;
#503 = LINE ( 'NONE', #1121, #953 ) ;
#504 = CIRCLE ( 'NONE', #782, 5.499999999999998224 ) ;
#505 = CARTESIAN_POINT ( 'NONE',  ( 63.00000000000001421, 7.499999999999999112, 6.000000000000000000 ) ) ;
#506 = ORIENTED_EDGE ( 'NONE', *, *, #474, .T. ) ;
#507 = DIRECTION ( 'NONE',  ( 0.0000000000000000000, 0.0000000000000000000, -1.000000000000000000 ) ) ;
#508 = ORIENTED_EDGE ( 'NONE', *, *, #887, .F. ) ;
#509 = DIRECTION ( 'NONE',  ( -1.000000000000000000, 0.0000000000000000000, 0.0000000000000000000 ) ) ;
#510 = AXIS2_PLACEMENT_3D ( 'NONE', #596, #224, #124 ) ;
#511 = DIRECTION ( 'NONE',  ( -0.0000000000000000000, -0.0000000000000000000, 1.000000000000000000 ) ) ;
#512 = ORIENTED_EDGE ( 'NONE', *, *, #255, .F. ) ;
#513 = ORIENTED_EDGE ( 'NONE', *, *, #4, .F. ) ;
#514 = CARTESIAN_POINT ( 'NONE',  ( 4.500000000000004441, 7.499999999999992895, 6.000000000000000000 ) ) ;
#515 = ORIENTED_EDGE ( 'NONE', *, *, #442, .T. ) ;
#516 = CARTESIAN_POINT ( 'NONE',  ( 57.50000000000000000, 57.50000000000000000, 6.000000000000000000 ) ) ;
#517 = CARTESIAN_POINT ( 'NONE',  ( 7.500000000000000000, 57.49999999999999289, -0.9999999999999991118 ) ) ;
#518 = CARTESIAN_POINT ( 'NONE',  ( 1.900000000000019673, 0.0000000000000000000, -0.0000000000000000000 ) ) ;
#519 = DIRECTION ( 'NONE',  ( 1.000000000000000000, 0.0000000000000000000, 0.0000000000000000000 ) ) ;
#520 = CARTESIAN_POINT ( 'NONE',  ( 7.500000000000007105, 7.499999999999992895, 12.00000000000000000 ) ) ;
#521 = CARTESIAN_POINT ( 'NONE',  ( 57.50000000000000000, 57.50000000000000000, 12.00000000000000000 ) ) ;
#522 = DIRECTION ( 'NONE',  ( -1.000000000000000000, 0.0000000000000000000, 0.0000000000000000000 ) ) ;
#523 = CIRCLE ( 'NONE', #310, 8.500000000000017764 ) ;
#524 = CYLINDRICAL_SURFACE ( 'NONE', #241, 5.500000000000005329 ) ;
#525 = ORIENTED_EDGE ( 'NONE', *, *, #859, .T. ) ;
#526 = EDGE_LOOP ( 'NONE', ( #348, #750, #30, #1136 ) ) ;
#527 = AXIS2_PLACEMENT_3D ( 'NONE', #1174, #602, #699 ) ;
#528 = ORIENTED_EDGE ( 'NONE', *, *, #271, .F. ) ;
#529 = DIRECTION ( 'NONE',  ( 1.000000000000000000, 0.0000000000000000000, 0.0000000000000000000 ) ) ;
#530 = ORIENTED_EDGE ( 'NONE', *, *, #887, .T. ) ;
#531 = PRODUCT_RELATED_PRODUCT_CATEGORY ( 'detail', '', ( #697 ) ) ;
#532 = ADVANCED_FACE ( 'NONE', ( #160 ), #972, .F. ) ;
#533 = PLANE ( 'NONE',  #510 ) ;
#534 = CARTESIAN_POINT ( 'NONE',  ( 2.000000000000007105, 7.499999999999993783, 6.000000000000000000 ) ) ;
#535 = CIRCLE ( 'NONE', #813, 5.500000000000005329 ) ;
#536 = FACE_OUTER_BOUND ( 'NONE', #1093, .T. ) ;
#537 = ORIENTED_EDGE ( 'NONE', *, *, #96, .T. ) ;
#538 = ORIENTED_EDGE ( 'NONE', *, *, #335, .T. ) ;
#539 = DIRECTION ( 'NONE',  ( -1.000000000000000000, 0.0000000000000000000, 0.0000000000000000000 ) ) ;
#540 = ORIENTED_EDGE ( 'NONE', *, *, #1157, .F. ) ;
#541 = EDGE_LOOP ( 'NONE', ( #315, #121, #512, #369, #1052, #274 ) ) ;
#542 = EDGE_CURVE ( 'NONE', #450, #1221, #467, .T. ) ;
#543 = ORIENTED_EDGE ( 'NONE', *, *, #942, .T. ) ;
#544 = ADVANCED_FACE ( 'NONE', ( #811 ), #298, .T. ) ;
#545 = CARTESIAN_POINT ( 'NONE',  ( 0.0000000000000000000, 1.900000000000012790, 0.0000000000000000000 ) ) ;
#546 = EDGE_CURVE ( 'NONE', #853, #989, #833, .T. ) ;
#547 = LOCAL_TIME ( 14, 32, 54.00000000000000000, #218 ) ;
#548 = VECTOR ( 'NONE', #1195, 1000.000000000000000 ) ;
#549 = AXIS2_PLACEMENT_3D ( 'NONE', #730, #1205, #156 ) ;
#550 = ADVANCED_FACE ( 'NONE', ( #400 ), #143, .F. ) ;
#551 = DIRECTION ( 'NONE',  ( 1.000000000000000000, 0.0000000000000000000, 0.0000000000000000000 ) ) ;
#552 = FACE_OUTER_BOUND ( 'NONE', #641, .T. ) ;
#553 = ORIENTED_EDGE ( 'NONE', *, *, #572, .F. ) ;
#554 = ORIENTED_EDGE ( 'NONE', *, *, #277, .F. ) ;
#555 = DIRECTION ( 'NONE',  ( -0.0000000000000000000, -0.0000000000000000000, 1.000000000000000000 ) ) ;
#556 = EDGE_CURVE ( 'NONE', #1079, #166, #365, .T. ) ;
#557 = ORIENTED_EDGE ( 'NONE', *, *, #350, .T. ) ;
#558 = AXIS2_PLACEMENT_3D ( 'NONE', #1145, #376, #753 ) ;
#559 = CARTESIAN_POINT ( 'NONE',  ( 60.50000000000000711, 57.50000000000000000, -0.9999999999999991118 ) ) ;
#560 = COORDINATED_UNIVERSAL_TIME_OFFSET ( 0, 0, .AHEAD. ) ;
#561 = FACE_OUTER_BOUND ( 'NONE', #975, .T. ) ;
#562 = AXIS2_PLACEMENT_3D ( 'NONE', #368, #665, #1057 ) ;
#563 = CIRCLE ( 'NONE', #424, 5.500000000000005329 ) ;
#564 = VECTOR ( 'NONE', #664, 1000.000000000000000 ) ;
#565 = DIRECTION ( 'NONE',  ( -1.000000000000000000, 0.0000000000000000000, 0.0000000000000000000 ) ) ;
#566 = EDGE_LOOP ( 'NONE', ( #851, #1048, #719, #345 ) ) ;
#567 =( LENGTH_UNIT ( ) NAMED_UNIT ( * ) SI_UNIT ( .MILLI., .METRE. ) );
#568 = CARTESIAN_POINT ( 'NONE',  ( 32.50000000000000000, 49.40000000000000568, 0.0000000000000000000 ) ) ;
#569 = ORIENTED_EDGE ( 'NONE', *, *, #759, .T. ) ;
#570 = VERTEX_POINT ( 'NONE', #894 ) ;
#571 = EDGE_LOOP ( 'NONE', ( #257, #355 ) ) ;
#572 = EDGE_CURVE ( 'NONE', #960, #438, #236, .T. ) ;
#573 = PLANE ( 'NONE',  #196 ) ;
#574 = PERSON_AND_ORGANIZATION ( #787, #397 ) ;
#575 = CARTESIAN_POINT ( 'NONE',  ( 61.38908729652603569, 3.610912703473995844, 11.71091270347399771 ) ) ;
#576 = APPLICATION_PROTOCOL_DEFINITION ( 'international standard', 'config_control_design', 1994, #3 ) ;
#577 = LINE ( 'NONE', #857, #113 ) ;
#578 = VECTOR ( 'NONE', #52, 1000.000000000000000 ) ;
#579 = DIRECTION ( 'NONE',  ( -0.0000000000000000000, -0.0000000000000000000, -1.000000000000000000 ) ) ;
#580 = ORIENTED_EDGE ( 'NONE', *, *, #788, .T. ) ;
#581 = EDGE_CURVE ( 'NONE', #1109, #848, #415, .T. ) ;
#582 = CARTESIAN_POINT ( 'NONE',  ( 63.00000000000001421, 55.87832397178076604, 10.10000000000004228 ) ) ;
#583 = CYLINDRICAL_SURFACE ( 'NONE', #745, 5.499999999999998224 ) ;
#584 = VECTOR ( 'NONE', #603, 1000.000000000000000 ) ;
#585 = EDGE_CURVE ( 'NONE', #673, #780, #250, .T. ) ;
#586 = VECTOR ( 'NONE', #493, 1000.000000000000000 ) ;
#587 = CARTESIAN_POINT ( 'NONE',  ( 61.10000000000002984, 53.34187542274167271, 12.00000000000000000 ) ) ;
#588 = VERTEX_POINT ( 'NONE', #407 ) ;
#589 = AXIS2_PLACEMENT_3D ( 'NONE', #694, #1066, #980 ) ;
#590 = EDGE_LOOP ( 'NONE', ( #543, #1223 ) ) ;
#591 = PLANE ( 'NONE',  #527 ) ;
#592 = ORIENTED_EDGE ( 'NONE', *, *, #1141, .T. ) ;
#593 = EDGE_LOOP ( 'NONE', ( #1182, #657, #282 ) ) ;
#594 = CARTESIAN_POINT ( 'NONE',  ( 1.900000000000019673, 1.900000000000012790, -16.00000000000000000 ) ) ;
#595 = ORIENTED_EDGE ( 'NONE', *, *, #1123, .F. ) ;
#596 = CARTESIAN_POINT ( 'NONE',  ( 57.50000000000000000, 57.50000000000000000, 6.000000000000000000 ) ) ;
#597 = CARTESIAN_POINT ( 'NONE',  ( 13.90000000000001990, 38.60000000000000853, 0.0000000000000000000 ) ) ;
#598 = DIRECTION ( 'NONE',  ( -0.0000000000000000000, -0.0000000000000000000, 1.000000000000000000 ) ) ;
#599 = AXIS2_PLACEMENT_3D ( 'NONE', #20, #1083, #987 ) ;
#600 = DIRECTION ( 'NONE',  ( 0.0000000000000000000, 0.0000000000000000000, 1.000000000000000000 ) ) ;
#601 = DIRECTION ( 'NONE',  ( -1.000000000000000000, 0.0000000000000000000, 0.0000000000000000000 ) ) ;
#602 = DIRECTION ( 'NONE',  ( -0.7071067811865450192, 0.0000000000000000000, 0.7071067811865500152 ) ) ;
#603 = DIRECTION ( 'NONE',  ( -0.0000000000000000000, -0.0000000000000000000, 1.000000000000000000 ) ) ;
#604 = DIRECTION ( 'NONE',  ( 1.000000000000000000, 0.0000000000000000000, -0.0000000000000000000 ) ) ;
#605 = FACE_BOUND ( 'NONE', #151, .T. ) ;
#606 = FACE_OUTER_BOUND ( 'NONE', #302, .T. ) ;
#607 = VERTEX_POINT ( 'NONE', #979 ) ;
#608 = EDGE_CURVE ( 'NONE', #989, #853, #928, .T. ) ;
#609 = CARTESIAN_POINT ( 'NONE',  ( 63.10000000000001563, 1.900000000000012790, -16.00000000000000000 ) ) ;
#610 = ORIENTED_EDGE ( 'NONE', *, *, #221, .F. ) ;
#611 = AXIS2_PLACEMENT_3D ( 'NONE', #266, #655, #80 ) ;
#612 = CARTESIAN_POINT ( 'NONE',  ( 63.00000000000000000, 57.50000000000000000, 6.000000000000000000 ) ) ;
#613 = DIRECTION ( 'NONE',  ( -1.000000000000000000, 0.0000000000000000000, 0.0000000000000000000 ) ) ;
#614 = ORIENTED_EDGE ( 'NONE', *, *, #361, .F. ) ;
#615 = ORIENTED_EDGE ( 'NONE', *, *, #859, .F. ) ;
#616 = ADVANCED_FACE ( 'NONE', ( #295 ), #37, .F. ) ;
#617 = AXIS2_PLACEMENT_3D ( 'NONE', #993, #982, #117 ) ;
#618 = PERSON_AND_ORGANIZATION ( #787, #397 ) ;
#619 = DIRECTION ( 'NONE',  ( 0.0000000000000000000, 0.0000000000000000000, -1.000000000000000000 ) ) ;
#620 = CIRCLE ( 'NONE', #1129, 3.000000000000000888 ) ;
#621 = CARTESIAN_POINT ( 'NONE',  ( 61.38908729652603569, 3.610912703473995844, 11.71091270347399771 ) ) ;
#622 = FACE_BOUND ( 'NONE', #692, .T. ) ;
#623 = DIRECTION ( 'NONE',  ( -0.0000000000000000000, -0.0000000000000000000, 1.000000000000000000 ) ) ;
#624 = EDGE_LOOP ( 'NONE', ( #439, #871, #508, #1054, #119, #104, #1075, #627 ) ) ;
#625 = EDGE_LOOP ( 'NONE', ( #978, #554 ) ) ;
#626 = ORIENTED_EDGE ( 'NONE', *, *, #32, .T. ) ;
#627 = ORIENTED_EDGE ( 'NONE', *, *, #542, .F. ) ;
#628 = CARTESIAN_POINT ( 'NONE',  ( 23.59999999999999432, 49.40000000000000568, -0.9999999999999991118 ) ) ;
#629 = VERTEX_POINT ( 'NONE', #790 ) ;
#630 = ADVANCED_FACE ( 'NONE', ( #174 ), #711, .T. ) ;
#631 = DIRECTION ( 'NONE',  ( -0.0000000000000000000, -0.0000000000000000000, 1.000000000000000000 ) ) ;
#632 = CARTESIAN_POINT ( 'NONE',  ( 60.50000000000000711, 57.50000000000000000, 6.000000000000000000 ) ) ;
#633 = EDGE_CURVE ( 'NONE', #466, #921, #846, .T. ) ;
#634 = AXIS2_PLACEMENT_3D ( 'NONE', #388, #1233, #1055 ) ;
#635 = LINE ( 'NONE', #458, #110 ) ;
#636 = ADVANCED_FACE ( 'NONE', ( #191 ), #803, .T. ) ;
#637 = CARTESIAN_POINT ( 'NONE',  ( 61.38908729652603569, 3.610912703473995844, 11.71091270347399771 ) ) ;
#638 = FACE_OUTER_BOUND ( 'NONE', #179, .T. ) ;
#639 = LINE ( 'NONE', #33, #130 ) ;
#640 = ORIENTED_EDGE ( 'NONE', *, *, #1229, .F. ) ;
#641 = EDGE_LOOP ( 'NONE', ( #1159, #358 ) ) ;
#642 = DIRECTION ( 'NONE',  ( -1.000000000000000000, 0.0000000000000000000, 0.0000000000000000000 ) ) ;
#643 = ADVANCED_FACE ( 'NONE', ( #606 ), #1193, .F. ) ;
#644 = AXIS2_PLACEMENT_3D ( 'NONE', #521, #1097, #35 ) ;
#645 = VERTEX_POINT ( 'NONE', #500 ) ;
#646 = ORIENTED_EDGE ( 'NONE', *, *, #277, .T. ) ;
#647 = PLANE ( 'NONE',  #115 ) ;
#648 = DIRECTION ( 'NONE',  ( 1.000000000000000000, 0.0000000000000000000, 0.0000000000000000000 ) ) ;
#649 = CARTESIAN_POINT ( 'NONE',  ( 1.900000000000019673, 1.900000000000012790, -16.00000000000000000 ) ) ;
#650 = EDGE_CURVE ( 'NONE', #739, #464, #879, .T. ) ;
#651 = APPROVAL_PERSON_ORGANIZATION ( #807, #959, #1170 ) ;
#652 = VECTOR ( 'NONE', #856, 1000.000000000000000 ) ;
#653 = AXIS2_PLACEMENT_3D ( 'NONE', #86, #170, #1227 ) ;
#654 = CIRCLE ( 'NONE', #712, 3.000000000000000888 ) ;
#655 = DIRECTION ( 'NONE',  ( -0.0000000000000000000, -0.0000000000000000000, -1.000000000000000000 ) ) ;
#656 = FACE_BOUND ( 'NONE', #625, .T. ) ;
#657 = ORIENTED_EDGE ( 'NONE', *, *, #15, .F. ) ;
#658 = CARTESIAN_POINT ( 'NONE',  ( 53.34187542274164429, 3.900000000000001243, 12.00000000000000000 ) ) ;
#659 = EDGE_CURVE ( 'NONE', #166, #904, #775, .T. ) ;
#660 = VERTEX_POINT ( 'NONE', #1169 ) ;
#661 = ORIENTED_EDGE ( 'NONE', *, *, #679, .T. ) ;
#662 = AXIS2_PLACEMENT_3D ( 'NONE', #230, #916, #529 ) ;
#663 =( NAMED_UNIT ( * ) PLANE_ANGLE_UNIT ( ) SI_UNIT ( $, .RADIAN. ) );
#664 = DIRECTION ( 'NONE',  ( 1.000000000000000000, 0.0000000000000000000, 0.0000000000000000000 ) ) ;
#665 = DIRECTION ( 'NONE',  ( 0.0000000000000000000, 0.0000000000000000000, -1.000000000000000000 ) ) ;
#666 = DIRECTION ( 'NONE',  ( -0.0000000000000000000, -0.0000000000000000000, 1.000000000000000000 ) ) ;
#667 = DIRECTION ( 'NONE',  ( 0.5773502691896270633, -0.5773502691896270633, 0.5773502691896230665 ) ) ;
#668 = CARTESIAN_POINT ( 'NONE',  ( 13.90000000000001990, 34.60000000000004405, -7.499999999999998224 ) ) ;
#669 = LINE ( 'NONE', #68, #364 ) ;
#670 = EDGE_CURVE ( 'NONE', #645, #468, #639, .T. ) ;
#671 = CIRCLE ( 'NONE', #48, 8.499999999999982236 ) ;
#672 = VECTOR ( 'NONE', #319, 1000.000000000000000 ) ;
#673 = VERTEX_POINT ( 'NONE', #245 ) ;
#674 = ORIENTED_EDGE ( 'NONE', *, *, #608, .F. ) ;
#675 = PLANE ( 'NONE',  #155 ) ;
#676 = ORIENTED_EDGE ( 'NONE', *, *, #1141, .F. ) ;
#677 = ORIENTED_EDGE ( 'NONE', *, *, #288, .F. ) ;
#678 = CARTESIAN_POINT ( 'NONE',  ( 87.90000000000000568, 38.60000000000000853, 0.0000000000000000000 ) ) ;
#679 = EDGE_CURVE ( 'NONE', #948, #853, #1044, .T. ) ;
#680 = CC_DESIGN_DATE_AND_TIME_ASSIGNMENT ( #760, #898, ( #188 ) ) ;
#681 = CARTESIAN_POINT ( 'NONE',  ( 0.0000000000000000000, 0.0000000000000000000, 0.0000000000000000000 ) ) ;
#682 = CARTESIAN_POINT ( 'NONE',  ( 1.900000000000019673, 1.900000000000012790, 10.00000000000002665 ) ) ;
#683 = CARTESIAN_POINT ( 'NONE',  ( 52.00000000000000711, 57.50000000000000000, 6.000000000000000000 ) ) ;
#684 = LOCAL_TIME ( 14, 32, 54.00000000000000000, #1173 ) ;
#685 = DIRECTION ( 'NONE',  ( 0.0000000000000000000, -0.0000000000000000000, -1.000000000000000000 ) ) ;
#686 = SHAPE_DEFINITION_REPRESENTATION ( #756, #94 ) ;
#687 = FACE_OUTER_BOUND ( 'NONE', #434, .T. ) ;
#688 = AXIS2_PLACEMENT_3D ( 'NONE', #1040, #9, #395 ) ;
#689 = LINE ( 'NONE', #129, #1105 ) ;
#690 = ORIENTED_EDGE ( 'NONE', *, *, #581, .F. ) ;
#691 = APPROVAL_ROLE ( '' ) ;
#692 = EDGE_LOOP ( 'NONE', ( #300, #349 ) ) ;
#693 = CARTESIAN_POINT ( 'NONE',  ( 9.427184718110304118, 63.67681273853017387, 9.423187261469868403 ) ) ;
#694 = CARTESIAN_POINT ( 'NONE',  ( 7.500000000000000000, 57.49999999999999289, 6.000000000000000000 ) ) ;
#695 = DIRECTION ( 'NONE',  ( 1.000000000000000000, 0.0000000000000000000, 0.0000000000000000000 ) ) ;
#696 = VECTOR ( 'NONE', #642, 1000.000000000000000 ) ;
#697 = PRODUCT ( 'Cover2', 'Cover2', '', ( #1147 ) ) ;
#698 = FACE_OUTER_BOUND ( 'NONE', #346, .T. ) ;
#699 = DIRECTION ( 'NONE',  ( 0.0000000000000000000, -1.000000000000000000, 0.0000000000000000000 ) ) ;
#700 = EDGE_CURVE ( 'NONE', #1025, #629, #267, .T. ) ;
#701 = CIRCLE ( 'NONE', #662, 3.000000000000002665 ) ;
#702 = DIRECTION ( 'NONE',  ( 1.000000000000000000, 0.0000000000000000000, 0.0000000000000000000 ) ) ;
#703 = ORIENTED_EDGE ( 'NONE', *, *, #585, .T. ) ;
#704 = DIRECTION ( 'NONE',  ( 0.5773502691896270633, 0.5773502691896270633, -0.5773502691896230665 ) ) ;
#705 = ORIENTED_EDGE ( 'NONE', *, *, #249, .T. ) ;
#706 = DIRECTION ( 'NONE',  ( -0.0000000000000000000, -0.0000000000000000000, 1.000000000000000000 ) ) ;
#707 = CARTESIAN_POINT ( 'NONE',  ( 2.000000000000007105, 7.499999999999993783, 10.10000000000001208 ) ) ;
#708 = CARTESIAN_POINT ( 'NONE',  ( 57.50000000000000000, 57.50000000000000000, 6.000000000000000000 ) ) ;
#709 = EDGE_LOOP ( 'NONE', ( #864, #75 ) ) ;
#710 = CARTESIAN_POINT ( 'NONE',  ( 2.000000000000000888, 57.49999999999999289, 10.10000000000000853 ) ) ;
#711 = PLANE ( 'NONE',  #1094 ) ;
#712 = AXIS2_PLACEMENT_3D ( 'NONE', #1158, #411, #702 ) ;
#713 = DIRECTION ( 'NONE',  ( 1.000000000000000000, 0.0000000000000000000, 0.0000000000000000000 ) ) ;
#714 =( BOUNDED_CURVE ( )  B_SPLINE_CURVE ( 3, ( #436, #724, #1114, #932 ),
 .UNSPECIFIED., .F., .F. ) 
 B_SPLINE_CURVE_WITH_KNOTS ( ( 4, 4 ),
 ( 3.141592653589793116, 3.998807749094378750 ),
 .UNSPECIFIED. ) 
 CURVE ( )  GEOMETRIC_REPRESENTATION_ITEM ( )  RATIONAL_B_SPLINE_CURVE ( ( 1.000000000000000000, 0.9396968939772488705, 0.9396968939772488705, 1.000000000000000000 ) ) 
 REPRESENTATION_ITEM ( '' )  );
#715 = APPROVAL_DATE_TIME ( #341, #959 ) ;
#716 = VECTOR ( 'NONE', #704, 1000.000000000000114 ) ;
#717 = CARTESIAN_POINT ( 'NONE',  ( 63.10000000000001563, 0.0000000000000000000, 0.0000000000000000000 ) ) ;
#718 = CYLINDRICAL_SURFACE ( 'NONE', #362, 3.000000000000004441 ) ;
#719 = ORIENTED_EDGE ( 'NONE', *, *, #727, .T. ) ;
#720 = EDGE_CURVE ( 'NONE', #77, #464, #860, .T. ) ;
#721 = ORIENTED_EDGE ( 'NONE', *, *, #1123, .T. ) ;
#722 =( GEOMETRIC_REPRESENTATION_CONTEXT ( 3 ) GLOBAL_UNCERTAINTY_ASSIGNED_CONTEXT ( ( #808 ) ) GLOBAL_UNIT_ASSIGNED_CONTEXT ( ( #567, #663, #293 ) ) REPRESENTATION_CONTEXT ( 'NONE', 'WORKASPACE' ) );
#723 = DIRECTION ( 'NONE',  ( 0.0000000000000000000, 0.0000000000000000000, 1.000000000000000000 ) ) ;
#724 = CARTESIAN_POINT ( 'NONE',  ( 2.000000000000000000, 55.87832397178073762, 10.10000000000001030 ) ) ;
#725 = ORIENTED_EDGE ( 'NONE', *, *, #546, .F. ) ;
#726 = CARTESIAN_POINT ( 'NONE',  ( 57.50000000000000000, 57.50000000000000000, 0.0000000000000000000 ) ) ;
#727 = EDGE_CURVE ( 'NONE', #1021, #208, #1176, .T. ) ;
#728 = AXIS2_PLACEMENT_3D ( 'NONE', #268, #1049, #1037 ) ;
#729 = ADVANCED_FACE ( 'NONE', ( #927 ), #36, .F. ) ;
#730 = CARTESIAN_POINT ( 'NONE',  ( 1.900000000000019673, 3.900000000000000799, 12.00000000000000000 ) ) ;
#731 = CIRCLE ( 'NONE', #338, 3.000000000000004441 ) ;
#732 = LINE ( 'NONE', #1185, #1088 ) ;
#733 = VERTEX_POINT ( 'NONE', #363 ) ;
#734 = CARTESIAN_POINT ( 'NONE',  ( 32.50000000000000000, 49.40000000000000568, 12.00000000000000000 ) ) ;
#735 = ORIENTED_EDGE ( 'NONE', *, *, #751, .T. ) ;
#736 = EDGE_CURVE ( 'NONE', #386, #629, #1117, .T. ) ;
#737 = ORIENTED_EDGE ( 'NONE', *, *, #976, .T. ) ;
#738 = VERTEX_POINT ( 'NONE', #683 ) ;
#739 = VERTEX_POINT ( 'NONE', #1068 ) ;
#740 = DIRECTION ( 'NONE',  ( 1.000000000000000000, 0.0000000000000000000, 0.0000000000000000000 ) ) ;
#741 = EDGE_LOOP ( 'NONE', ( #21, #476, #923, #988 ) ) ;
#742 = ADVANCED_FACE ( 'NONE', ( #832 ), #1217, .F. ) ;
#743 = CARTESIAN_POINT ( 'NONE',  ( 7.500000000000007105, 7.499999999999992895, 6.000000000000000000 ) ) ;
#744 = EDGE_CURVE ( 'NONE', #1021, #645, #809, .T. ) ;
#745 = AXIS2_PLACEMENT_3D ( 'NONE', #757, #357, #1029 ) ;
#746 = DIRECTION ( 'NONE',  ( 1.000000000000000000, 0.0000000000000000000, 0.0000000000000000000 ) ) ;
#747 = CIRCLE ( 'NONE', #272, 5.499999999999999112 ) ;
#748 = CYLINDRICAL_SURFACE ( 'NONE', #966, 5.499999999999998224 ) ;
#749 = FACE_OUTER_BOUND ( 'NONE', #826, .T. ) ;
#750 = ORIENTED_EDGE ( 'NONE', *, *, #144, .T. ) ;
#751 = EDGE_CURVE ( 'NONE', #738, #481, #969, .T. ) ;
#752 = AXIS2_PLACEMENT_3D ( 'NONE', #426, #414, #522 ) ;
#753 = DIRECTION ( 'NONE',  ( 1.000000000000000000, 0.0000000000000000000, 0.0000000000000000000 ) ) ;
#754 = VERTEX_POINT ( 'NONE', #998 ) ;
#755 = CARTESIAN_POINT ( 'NONE',  ( 62.43432268436612276, 60.34385190868589177, 10.66567731563391064 ) ) ;
#756 = PRODUCT_DEFINITION_SHAPE ( 'NONE', 'NONE',  #188 ) ;
#757 = CARTESIAN_POINT ( 'NONE',  ( 7.500000000000000000, 57.49999999999999289, 6.000000000000000000 ) ) ;
#758 = DIRECTION ( 'NONE',  ( -0.0000000000000000000, -0.0000000000000000000, 1.000000000000000000 ) ) ;
#759 = EDGE_CURVE ( 'NONE', #780, #39, #152, .T. ) ;
#760 = DATE_AND_TIME ( #142, #430 ) ;
#761 = APPROVAL_PERSON_ORGANIZATION ( #821, #1104, #691 ) ;
#762 = DIRECTION ( 'NONE',  ( 0.0000000000000000000, 0.0000000000000000000, 1.000000000000000000 ) ) ;
#763 = DIRECTION ( 'NONE',  ( 0.0000000000000000000, 0.0000000000000000000, -1.000000000000000000 ) ) ;
#764 = CIRCLE ( 'NONE', #1015, 3.000000000000004441 ) ;
#765 = ORIENTED_EDGE ( 'NONE', *, *, #1085, .T. ) ;
#766 = ORIENTED_EDGE ( 'NONE', *, *, #759, .F. ) ;
#767 = DIRECTION ( 'NONE',  ( 0.0000000000000000000, 0.0000000000000000000, 1.000000000000000000 ) ) ;
#768 = ORIENTED_EDGE ( 'NONE', *, *, #736, .T. ) ;
#769 = ORIENTED_EDGE ( 'NONE', *, *, #914, .T. ) ;
#770 = APPLICATION_PROTOCOL_DEFINITION ( 'international standard', 'config_control_design', 1994, #858 ) ;
#771 = CARTESIAN_POINT ( 'NONE',  ( 2.000000000000000888, 57.49999999999999289, 10.10000000000000853 ) ) ;
#772 = PERSON_AND_ORGANIZATION ( #787, #397 ) ;
#773 = AXIS2_PLACEMENT_3D ( 'NONE', #874, #973, #393 ) ;
#774 = CIRCLE ( 'NONE', #356, 8.500000000000017764 ) ;
#775 = LINE ( 'NONE', #796, #584 ) ;
#776 = CIRCLE ( 'NONE', #385, 5.500000000000000000 ) ;
#777 = DIRECTION ( 'NONE',  ( -1.000000000000000000, 0.0000000000000000000, 0.0000000000000000000 ) ) ;
#778 = VERTEX_POINT ( 'NONE', #13 ) ;
#779 = DIRECTION ( 'NONE',  ( -0.0000000000000000000, -0.0000000000000000000, 1.000000000000000000 ) ) ;
#780 = VERTEX_POINT ( 'NONE', #869 ) ;
#781 = EDGE_LOOP ( 'NONE', ( #884, #735, #1180, #854, #1186 ) ) ;
#782 = AXIS2_PLACEMENT_3D ( 'NONE', #324, #996, #924 ) ;
#783 = DIRECTION ( 'NONE',  ( 0.0000000000000000000, 1.000000000000000000, 0.0000000000000000000 ) ) ;
#784 = CC_DESIGN_APPROVAL ( #959, ( #872 ) ) ;
#785 = PERSON_AND_ORGANIZATION_ROLE ( 'creator' ) ;
#786 = DIRECTION ( 'NONE',  ( 0.0000000000000000000, -1.000000000000000000, 0.0000000000000000000 ) ) ;
#787 = PERSON ( 'UNSPECIFIED', 'UNSPECIFIED', 'UNSPECIFIED', ('UNSPECIFIED'), ('UNSPECIFIED'), ('UNSPECIFIED') ) ;
#788 = EDGE_CURVE ( 'NONE', #836, #39, #254, .T. ) ;
#789 = FACE_OUTER_BOUND ( 'NONE', #475, .T. ) ;
#790 = CARTESIAN_POINT ( 'NONE',  ( 13.00000000000000711, 7.499999999999992895, 12.00000000000000000 ) ) ;
#791 = CARTESIAN_POINT ( 'NONE',  ( 3.610912703474008278, 61.38908729652602148, 11.71091270347400304 ) ) ;
#792 = VECTOR ( 'NONE', #839, 1000.000000000000000 ) ;
#793 = DIRECTION ( 'NONE',  ( 0.5773502691896270633, 0.5773502691896270633, 0.5773502691896230665 ) ) ;
#794 = VECTOR ( 'NONE', #999, 1000.000000000000000 ) ;
#795 = ORIENTED_EDGE ( 'NONE', *, *, #1101, .F. ) ;
#796 = CARTESIAN_POINT ( 'NONE',  ( 10.50000000000000355, 57.49999999999999289, -0.9999999999999991118 ) ) ;
#797 = CARTESIAN_POINT ( 'NONE',  ( 57.50000000000000000, 57.50000000000000000, 6.000000000000000000 ) ) ;
#798 = DIRECTION ( 'NONE',  ( -0.0000000000000000000, -0.0000000000000000000, 1.000000000000000000 ) ) ;
#799 = EDGE_LOOP ( 'NONE', ( #640, #946, #167, #592, #146 ) ) ;
#800 = EDGE_LOOP ( 'NONE', ( #994, #1144, #135, #795 ) ) ;
#801 = CARTESIAN_POINT ( 'NONE',  ( 63.00000000000000000, 57.50000000000000000, 6.000000000000000000 ) ) ;
#802 = ORIENTED_EDGE ( 'NONE', *, *, #850, .T. ) ;
#803 = PLANE ( 'NONE',  #65 ) ;
#804 = DIRECTION ( 'NONE',  ( -0.0000000000000000000, -0.0000000000000000000, -1.000000000000000000 ) ) ;
#805 = DIRECTION ( 'NONE',  ( -1.000000000000000000, -9.462128050782584868E-16, 0.0000000000000000000 ) ) ;
#806 = DIRECTION ( 'NONE',  ( 0.0000000000000000000, 1.000000000000000000, 0.0000000000000000000 ) ) ;
#807 = PERSON_AND_ORGANIZATION ( #787, #397 ) ;
#808 = UNCERTAINTY_MEASURE_WITH_UNIT (LENGTH_MEASURE( 1.000000000000000082E-05 ), #567, 'distance_accuracy_value', 'NONE');
#809 = CIRCLE ( 'NONE', #752, 3.000000000000002665 ) ;
#810 = EDGE_CURVE ( 'NONE', #437, #24, #1059, .T. ) ;
#811 = FACE_OUTER_BOUND ( 'NONE', #800, .T. ) ;
#812 = FACE_OUTER_BOUND ( 'NONE', #1106, .T. ) ;
#813 = AXIS2_PLACEMENT_3D ( 'NONE', #283, #106, #777 ) ;
#814 = CARTESIAN_POINT ( 'NONE',  ( 54.50000000000000000, 57.50000000000000000, 6.000000000000000000 ) ) ;
#815 = CARTESIAN_POINT ( 'NONE',  ( 13.90000000000001990, 34.60000000000004405, 0.9999999999999817923 ) ) ;
#816 = DIRECTION ( 'NONE',  ( 0.0000000000000000000, 0.0000000000000000000, 1.000000000000000000 ) ) ;
#817 = VERTEX_POINT ( 'NONE', #108 ) ;
#818 = CARTESIAN_POINT ( 'NONE',  ( 10.50000000000000355, 57.49999999999999289, 6.000000000000000000 ) ) ;
#819 = AXIS2_PLACEMENT_3D ( 'NONE', #1133, #1202, #648 ) ;
#820 = ADVANCED_FACE ( 'NONE', ( #536 ), #127, .T. ) ;
#821 = PERSON_AND_ORGANIZATION ( #787, #397 ) ;
#822 = FACE_BOUND ( 'NONE', #590, .T. ) ;
#823 = EDGE_CURVE ( 'NONE', #947, #481, #1072, .T. ) ;
#824 = ORIENTED_EDGE ( 'NONE', *, *, #1000, .T. ) ;
#825 = ORIENTED_EDGE ( 'NONE', *, *, #403, .T. ) ;
#826 = EDGE_LOOP ( 'NONE', ( #261, #44, #233, #725 ) ) ;
#827 = ORIENTED_EDGE ( 'NONE', *, *, #249, .F. ) ;
#828 = ADVANCED_FACE ( 'NONE', ( #292 ), #1002, .F. ) ;
#829 = AXIS2_PLACEMENT_3D ( 'NONE', #1126, #1125, #73 ) ;
#830 = CARTESIAN_POINT ( 'NONE',  ( 3.900000000000007461, 53.34187542274163008, 12.00000000000000000 ) ) ;
#831 = CYLINDRICAL_SURFACE ( 'NONE', #463, 3.000000000000000888 ) ;
#832 = FACE_OUTER_BOUND ( 'NONE', #566, .T. ) ;
#833 = CIRCLE ( 'NONE', #16, 3.000000000000002665 ) ;
#834 = FACE_OUTER_BOUND ( 'NONE', #624, .T. ) ;
#835 = AXIS2_PLACEMENT_3D ( 'NONE', #520, #231, #805 ) ;
#836 = VERTEX_POINT ( 'NONE', #322 ) ;
#837 = CARTESIAN_POINT ( 'NONE',  ( 60.50000000000000711, 57.50000000000000000, 0.0000000000000000000 ) ) ;
#838 = ORIENTED_EDGE ( 'NONE', *, *, #670, .T. ) ;
#839 = DIRECTION ( 'NONE',  ( -0.0000000000000000000, -1.000000000000000000, 0.0000000000000000000 ) ) ;
#840 = DIRECTION ( 'NONE',  ( 1.000000000000000000, 0.0000000000000000000, 0.0000000000000000000 ) ) ;
#841 = EDGE_CURVE ( 'NONE', #42, #437, #774, .T. ) ;
#842 = CC_DESIGN_DATE_AND_TIME_ASSIGNMENT ( #171, #1081, ( #99 ) ) ;
#843 = CARTESIAN_POINT ( 'NONE',  ( 10.50000000000000888, 7.499999999999992895, 0.0000000000000000000 ) ) ;
#844 = APPROVAL_DATE_TIME ( #50, #394 ) ;
#845 = CARTESIAN_POINT ( 'NONE',  ( 2.000000000000000888, 57.49999999999999289, 6.000000000000000000 ) ) ;
#846 = CIRCLE ( 'NONE', #1112, 3.000000000000000888 ) ;
#847 = LINE ( 'NONE', #534, #578 ) ;
#848 = VERTEX_POINT ( 'NONE', #710 ) ;
#849 = CARTESIAN_POINT ( 'NONE',  ( 1.900000000000019673, 1.900000000000012790, 10.00000000000002665 ) ) ;
#850 = EDGE_CURVE ( 'NONE', #56, #960, #747, .T. ) ;
#851 = ORIENTED_EDGE ( 'NONE', *, *, #670, .F. ) ;
#852 = AXIS2_PLACEMENT_3D ( 'NONE', #79, #762, #1137 ) ;
#853 = VERTEX_POINT ( 'NONE', #814 ) ;
#854 = ORIENTED_EDGE ( 'NONE', *, *, #410, .T. ) ;
#855 = ORIENTED_EDGE ( 'NONE', *, *, #1077, .T. ) ;
#856 = DIRECTION ( 'NONE',  ( 1.000000000000000000, 0.0000000000000000000, 0.0000000000000000000 ) ) ;
#857 = CARTESIAN_POINT ( 'NONE',  ( 10.50000000000000711, 7.499999999999992895, -0.9999999999999991118 ) ) ;
#858 = APPLICATION_CONTEXT ( 'configuration controlled 3d designs of mechanical parts and assemblies' ) ;
#859 = EDGE_CURVE ( 'NONE', #260, #739, #128, .T. ) ;
#860 = LINE ( 'NONE', #336, #792 ) ;
#861 = CARTESIAN_POINT ( 'NONE',  ( 1.900000000000019673, 63.10000000000001563, 0.0000000000000000000 ) ) ;
#862 = DIRECTION ( 'NONE',  ( 1.000000000000000000, 0.0000000000000000000, 0.0000000000000000000 ) ) ;
#863 = CARTESIAN_POINT ( 'NONE',  ( 61.10000000000002984, -1.899999999999999023, 12.00000000000000000 ) ) ;
#864 = ORIENTED_EDGE ( 'NONE', *, *, #488, .F. ) ;
#865 = ORIENTED_EDGE ( 'NONE', *, *, #353, .F. ) ;
#866 = CARTESIAN_POINT ( 'NONE',  ( 22.30000000000011795, 42.69999999999991758, 30.39999999999998082 ) ) ;
#867 = EDGE_CURVE ( 'NONE', #817, #24, #671, .T. ) ;
#868 = ORIENTED_EDGE ( 'NONE', *, *, #744, .T. ) ;
#869 = CARTESIAN_POINT ( 'NONE',  ( 2.000000000000007105, 7.499999999999993783, 10.10000000000001208 ) ) ;
#870 = EDGE_LOOP ( 'NONE', ( #61, #646, #92, #865 ) ) ;
#871 = ORIENTED_EDGE ( 'NONE', *, *, #720, .F. ) ;
#872 = PRODUCT_DEFINITION_FORMATION_WITH_SPECIFIED_SOURCE ( 'ANY', '', #697, .NOT_KNOWN. ) ;
#873 = CARTESIAN_POINT ( 'NONE',  ( 7.500000000000000000, 57.49999999999999289, 12.00000000000000000 ) ) ;
#874 = CARTESIAN_POINT ( 'NONE',  ( 7.500000000000000000, 57.49999999999999289, 6.000000000000000000 ) ) ;
#875 = DIRECTION ( 'NONE',  ( -1.000000000000000000, -0.0000000000000000000, -0.0000000000000000000 ) ) ;
#876 = EDGE_CURVE ( 'NONE', #260, #77, #732, .T. ) ;
#877 = DIRECTION ( 'NONE',  ( 1.000000000000000000, 0.0000000000000000000, 0.0000000000000000000 ) ) ;
#878 = CARTESIAN_POINT ( 'NONE',  ( 1.900000000000019673, 61.10000000000002984, 12.00000000000000000 ) ) ;
#879 = LINE ( 'NONE', #609, #672 ) ;
#880 = CARTESIAN_POINT ( 'NONE',  ( 3.610912703474008278, 61.38908729652602148, 11.71091270347400304 ) ) ;
#881 = LINE ( 'NONE', #1177, #1007 ) ;
#882 = DIRECTION ( 'NONE',  ( -0.0000000000000000000, -0.0000000000000000000, 1.000000000000000000 ) ) ;
#883 = CARTESIAN_POINT ( 'NONE',  ( 57.50000000000000711, 7.499999999999999112, 0.0000000000000000000 ) ) ;
#884 = ORIENTED_EDGE ( 'NONE', *, *, #74, .F. ) ;
#885 = ORIENTED_EDGE ( 'NONE', *, *, #1190, .T. ) ;
#886 = CARTESIAN_POINT ( 'NONE',  ( 1.900000000000019673, 63.10000000000001563, -16.00000000000000000 ) ) ;
#887 = EDGE_CURVE ( 'NONE', #479, #77, #486, .T. ) ;
#888 = CARTESIAN_POINT ( 'NONE',  ( 51.10000000000002274, 34.60000000000004405, 0.9999999999999774625 ) ) ;
#889 = ORIENTED_EDGE ( 'NONE', *, *, #876, .F. ) ;
#890 = CARTESIAN_POINT ( 'NONE',  ( 3.610912703473990959, 3.610912703473986518, 11.71091270347398350 ) ) ;
#891 = CARTESIAN_POINT ( 'NONE',  ( 3.900000000000007461, 11.65812457725835039, 12.00000000000000000 ) ) ;
#892 = DIRECTION ( 'NONE',  ( 0.0000000000000000000, -1.000000000000000000, 0.0000000000000000000 ) ) ;
#893 = DIRECTION ( 'NONE',  ( 0.0000000000000000000, 0.0000000000000000000, -1.000000000000000000 ) ) ;
#894 = CARTESIAN_POINT ( 'NONE',  ( 23.59999999999999432, 49.40000000000000568, 12.00000000000000000 ) ) ;
#895 = EDGE_CURVE ( 'NONE', #71, #778, #460, .T. ) ;
#896 = CIRCLE ( 'NONE', #139, 5.499999999999999112 ) ;
#897 = DIRECTION ( 'NONE',  ( -1.000000000000000000, 0.0000000000000000000, 0.0000000000000000000 ) ) ;
#898 = DATE_TIME_ROLE ( 'creation_date' ) ;
#899 = AXIS2_PLACEMENT_3D ( 'NONE', #963, #382, #1058 ) ;
#900 = CARTESIAN_POINT ( 'NONE',  ( 1.900000000000019673, 63.10000000000001563, 10.00000000000002665 ) ) ;
#901 = CIRCLE ( 'NONE', #984, 8.900000000000005684 ) ;
#902 =( BOUNDED_CURVE ( )  B_SPLINE_CURVE ( 3, ( #435, #147, #755, #939 ),
 .UNSPECIFIED., .F., .T. ) 
 B_SPLINE_CURVE_WITH_KNOTS ( ( 4, 4 ),
 ( 3.141592653589793116, 3.926990816987242283 ),
 .UNSPECIFIED. ) 
 CURVE ( )  GEOMETRIC_REPRESENTATION_ITEM ( )  RATIONAL_B_SPLINE_CURVE ( ( 1.000000000000000000, 0.9492530216741910110, 0.9492530216741910110, 1.000000000000000000 ) ) 
 REPRESENTATION_ITEM ( '' )  );
#903 = DIRECTION ( 'NONE',  ( -0.0000000000000000000, -0.0000000000000000000, 1.000000000000000000 ) ) ;
#904 = VERTEX_POINT ( 'NONE', #818 ) ;
#905 = CARTESIAN_POINT ( 'NONE',  ( 53.34187542274164429, 3.900000000000001243, 12.00000000000000000 ) ) ;
#906 = VERTEX_POINT ( 'NONE', #418 ) ;
#907 = ORIENTED_EDGE ( 'NONE', *, *, #1026, .F. ) ;
#908 = AXIS2_PLACEMENT_3D ( 'NONE', #568, #763, #1051 ) ;
#909 = DIRECTION ( 'NONE',  ( -1.000000000000000000, 0.0000000000000000000, 0.0000000000000000000 ) ) ;
#910 = CARTESIAN_POINT ( 'NONE',  ( 57.50000000000000711, 7.499999999999999112, 6.000000000000000000 ) ) ;
#911 = CALENDAR_DATE ( 2019, 20, 12 ) ;
#912 = CYLINDRICAL_SURFACE ( 'NONE', #1027, 3.000000000000002665 ) ;
#913 = ADVANCED_FACE ( 'NONE', ( #1030, #605 ), #533, .T. ) ;
#914 = EDGE_CURVE ( 'NONE', #372, #1201, #19, .T. ) ;
#915 = VECTOR ( 'NONE', #502, 1000.000000000000000 ) ;
#916 = DIRECTION ( 'NONE',  ( -0.0000000000000000000, -0.0000000000000000000, -1.000000000000000000 ) ) ;
#917 = CIRCLE ( 'NONE', #178, 8.900000000000005684 ) ;
#918 = DIRECTION ( 'NONE',  ( -0.0000000000000000000, -0.0000000000000000000, -1.000000000000000000 ) ) ;
#919 = VERTEX_POINT ( 'NONE', #900 ) ;
#920 = DIRECTION ( 'NONE',  ( 1.000000000000000000, 0.0000000000000000000, 0.0000000000000000000 ) ) ;
#921 = VERTEX_POINT ( 'NONE', #323 ) ;
#922 = CARTESIAN_POINT ( 'NONE',  ( 51.10000000000002274, 34.60000000000004405, -7.500000000000040856 ) ) ;
#923 = ORIENTED_EDGE ( 'NONE', *, *, #957, .T. ) ;
#924 = DIRECTION ( 'NONE',  ( 1.000000000000000000, 0.0000000000000000000, 0.0000000000000000000 ) ) ;
#925 = LINE ( 'NONE', #649, #51 ) ;
#926 = CARTESIAN_POINT ( 'NONE',  ( 54.50000000000000000, 57.50000000000000000, 0.0000000000000000000 ) ) ;
#927 = FACE_OUTER_BOUND ( 'NONE', #799, .T. ) ;
#928 = CIRCLE ( 'NONE', #40, 3.000000000000002665 ) ;
#929 = EDGE_CURVE ( 'NONE', #1076, #450, #453, .T. ) ;
#930 = ORIENTED_EDGE ( 'NONE', *, *, #929, .T. ) ;
#931 = ORIENTED_EDGE ( 'NONE', *, *, #841, .F. ) ;
#932 = CARTESIAN_POINT ( 'NONE',  ( 3.900000000000007461, 53.34187542274163008, 12.00000000000000000 ) ) ;
#933 = EDGE_LOOP ( 'NONE', ( #244, #557, #192, #677 ) ) ;
#934 = ORIENTED_EDGE ( 'NONE', *, *, #22, .T. ) ;
#935 = DIRECTION ( 'NONE',  ( -1.000000000000000000, 0.0000000000000000000, 0.0000000000000000000 ) ) ;
#936 = DIRECTION ( 'NONE',  ( 0.0000000000000000000, 0.0000000000000000000, 1.000000000000000000 ) ) ;
#937 = EDGE_CURVE ( 'NONE', #334, #570, #69, .T. ) ;
#938 =( BOUNDED_CURVE ( )  B_SPLINE_CURVE ( 3, ( #123, #497, #314, #304 ),
 .UNSPECIFIED., .F., .F. ) 
 B_SPLINE_CURVE_WITH_KNOTS ( ( 4, 4 ),
 ( 3.141592653589793116, 3.998807749094372976 ),
 .UNSPECIFIED. ) 
 CURVE ( )  GEOMETRIC_REPRESENTATION_ITEM ( )  RATIONAL_B_SPLINE_CURVE ( ( 1.000000000000000000, 0.9396968939772496476, 0.9396968939772496476, 1.000000000000000000 ) ) 
 REPRESENTATION_ITEM ( '' )  );
#939 = CARTESIAN_POINT ( 'NONE',  ( 61.38908729652600726, 61.38908729652601437, 11.71091270347402435 ) ) ;
#940 = CIRCLE ( 'NONE', #852, 5.500000000000000000 ) ;
#941 = CARTESIAN_POINT ( 'NONE',  ( 51.10000000000002274, 34.60000000000004405, -7.500000000000040856 ) ) ;
#942 = EDGE_CURVE ( 'NONE', #1118, #28, #471, .T. ) ;
#943 = EDGE_LOOP ( 'NONE', ( #1022, #515 ) ) ;
#944 = ORIENTED_EDGE ( 'NONE', *, *, #546, .T. ) ;
#945 = CARTESIAN_POINT ( 'NONE',  ( 63.10000000000001563, 63.10000000000001563, 10.00000000000002665 ) ) ;
#946 = ORIENTED_EDGE ( 'NONE', *, *, #581, .T. ) ;
#947 = VERTEX_POINT ( 'NONE', #259 ) ;
#948 = VERTEX_POINT ( 'NONE', #926 ) ;
#949 = DIRECTION ( 'NONE',  ( -0.0000000000000000000, -0.0000000000000000000, 1.000000000000000000 ) ) ;
#950 = EDGE_CURVE ( 'NONE', #1036, #906, #205, .T. ) ;
#951 = DIRECTION ( 'NONE',  ( -1.000000000000000000, 0.0000000000000000000, 0.0000000000000000000 ) ) ;
#952 = APPROVAL_DATE_TIME ( #252, #1104 ) ;
#953 = VECTOR ( 'NONE', #746, 1000.000000000000000 ) ;
#954 = VECTOR ( 'NONE', #783, 1000.000000000000000 ) ;
#955 = ORIENTED_EDGE ( 'NONE', *, *, #542, .T. ) ;
#956 = CARTESIAN_POINT ( 'NONE',  ( 52.00000000000000711, 7.500000000000000000, 12.00000000000000000 ) ) ;
#957 = EDGE_CURVE ( 'NONE', #570, #906, #329, .T. ) ;
#958 = ORIENTED_EDGE ( 'NONE', *, *, #221, .T. ) ;
#959 = APPROVAL ( #29, 'UNSPECIFIED' ) ;
#960 = VERTEX_POINT ( 'NONE', #1013 ) ;
#961 = ORIENTED_EDGE ( 'NONE', *, *, #823, .T. ) ;
#962 = VERTEX_POINT ( 'NONE', #830 ) ;
#963 = CARTESIAN_POINT ( 'NONE',  ( 0.0000000000000000000, 0.0000000000000000000, 0.0000000000000000000 ) ) ;
#964 = DIRECTION ( 'NONE',  ( 0.0000000000000000000, 0.0000000000000000000, -1.000000000000000000 ) ) ;
#965 = APPROVAL_STATUS ( 'not_yet_approved' ) ;
#966 = AXIS2_PLACEMENT_3D ( 'NONE', #797, #307, #222 ) ;
#967 = PLANE ( 'NONE',  #773 ) ;
#968 = CARTESIAN_POINT ( 'NONE',  ( 1.900000000000019673, 1.900000000000012790, -16.00000000000000000 ) ) ;
#969 = LINE ( 'NONE', #226, #2 ) ;
#970 = PERSON_AND_ORGANIZATION_ROLE ( 'design_owner' ) ;
#971 = CARTESIAN_POINT ( 'NONE',  ( 61.10000000000002984, 63.10000000000001563, 12.00000000000000000 ) ) ;
#972 = CYLINDRICAL_SURFACE ( 'NONE', #728, 3.000000000000000888 ) ;
#973 = DIRECTION ( 'NONE',  ( 0.0000000000000000000, 0.0000000000000000000, 1.000000000000000000 ) ) ;
#974 = VECTOR ( 'NONE', #284, 1000.000000000000114 ) ;
#975 = EDGE_LOOP ( 'NONE', ( #690, #228, #303, #802, #1236, #1091 ) ) ;
#976 = EDGE_CURVE ( 'NONE', #437, #1204, #523, .T. ) ;
#977 = CARTESIAN_POINT ( 'NONE',  ( 13.00000000000000711, 7.499999999999992895, 6.000000000000000000 ) ) ;
#978 = ORIENTED_EDGE ( 'NONE', *, *, #633, .F. ) ;
#979 = CARTESIAN_POINT ( 'NONE',  ( 63.00000000000000000, 57.50000000000000000, 10.10000000000004050 ) ) ;
#980 = DIRECTION ( 'NONE',  ( 1.000000000000000000, 0.0000000000000000000, 0.0000000000000000000 ) ) ;
#981 = EDGE_CURVE ( 'NONE', #1120, #948, #53, .T. ) ;
#982 = DIRECTION ( 'NONE',  ( -1.000000000000000000, -0.0000000000000000000, -0.0000000000000000000 ) ) ;
#983 = CALENDAR_DATE ( 2019, 20, 12 ) ;
#984 = AXIS2_PLACEMENT_3D ( 'NONE', #374, #1135, #565 ) ;
#985 = LINE ( 'NONE', #559, #173 ) ;
#986 = VECTOR ( 'NONE', #875, 1000.000000000000000 ) ;
#987 = DIRECTION ( 'NONE',  ( 1.000000000000000000, 0.0000000000000000000, 0.0000000000000000000 ) ) ;
#988 = ORIENTED_EDGE ( 'NONE', *, *, #950, .F. ) ;
#989 = VERTEX_POINT ( 'NONE', #632 ) ;
#990 = CARTESIAN_POINT ( 'NONE',  ( 60.50000000000001421, 7.499999999999999112, 6.000000000000000000 ) ) ;
#991 = EDGE_LOOP ( 'NONE', ( #934, #958, #163, #422 ) ) ;
#992 = ORIENTED_EDGE ( 'NONE', *, *, #57, .F. ) ;
#993 = CARTESIAN_POINT ( 'NONE',  ( 87.90000000000000568, 34.60000000000004405, -7.500000000000007105 ) ) ;
#994 = ORIENTED_EDGE ( 'NONE', *, *, #650, .T. ) ;
#995 = DIRECTION ( 'NONE',  ( 1.000000000000000000, 0.0000000000000000000, 0.0000000000000000000 ) ) ;
#996 = DIRECTION ( 'NONE',  ( 0.0000000000000000000, 0.0000000000000000000, 1.000000000000000000 ) ) ;
#997 = CARTESIAN_POINT ( 'NONE',  ( 7.500000000000000000, 57.49999999999999289, -0.9999999999999991118 ) ) ;
#998 = CARTESIAN_POINT ( 'NONE',  ( 4.499999999999994671, 57.49999999999999289, 6.000000000000000000 ) ) ;
#999 = DIRECTION ( 'NONE',  ( 0.0000000000000000000, -1.000000000000000000, 0.0000000000000000000 ) ) ;
#1000 = EDGE_CURVE ( 'NONE', #1194, #1076, #563, .T. ) ;
#1001 = CARTESIAN_POINT ( 'NONE',  ( 54.50000000000000000, 57.50000000000000000, -0.9999999999999991118 ) ) ;
#1002 = CYLINDRICAL_SURFACE ( 'NONE', #375, 5.500000000000005329 ) ;
#1003 = DIRECTION ( 'NONE',  ( -0.0000000000000000000, -0.0000000000000000000, 1.000000000000000000 ) ) ;
#1004 = CARTESIAN_POINT ( 'NONE',  ( 1.900000000000019673, 61.10000000000002984, 12.00000000000000000 ) ) ;
#1005 = CIRCLE ( 'NONE', #1199, 3.000000000000002665 ) ;
#1006 = CARTESIAN_POINT ( 'NONE',  ( 51.10000000000002274, 38.60000000000000853, 0.0000000000000000000 ) ) ;
#1007 = VECTOR ( 'NONE', #1003, 1000.000000000000000 ) ;
#1008 = ORIENTED_EDGE ( 'NONE', *, *, #122, .F. ) ;
#1009 = CARTESIAN_POINT ( 'NONE',  ( 7.500000000000000000, 57.49999999999999289, 12.00000000000000000 ) ) ;
#1010 = EDGE_CURVE ( 'NONE', #848, #962, #714, .T. ) ;
#1011 = DIRECTION ( 'NONE',  ( -0.0000000000000000000, -0.0000000000000000000, 1.000000000000000000 ) ) ;
#1012 = ADVANCED_FACE ( 'NONE', ( #638 ), #223, .F. ) ;
#1013 = CARTESIAN_POINT ( 'NONE',  ( 11.65812457725832729, 61.10000000000002984, 12.00000000000000000 ) ) ;
#1014 = PERSON_AND_ORGANIZATION ( #787, #397 ) ;
#1015 = AXIS2_PLACEMENT_3D ( 'NONE', #137, #1166, #409 ) ;
#1016 = LINE ( 'NONE', #849, #159 ) ;
#1017 = FACE_BOUND ( 'NONE', #1053, .T. ) ;
#1018 = ADVANCED_FACE ( 'NONE', ( #1207 ), #1107, .T. ) ;
#1019 = DIRECTION ( 'NONE',  ( 0.0000000000000000000, 0.0000000000000000000, -1.000000000000000000 ) ) ;
#1020 = ORIENTED_EDGE ( 'NONE', *, *, #744, .F. ) ;
#1021 = VERTEX_POINT ( 'NONE', #62 ) ;
#1022 = ORIENTED_EDGE ( 'NONE', *, *, #1026, .T. ) ;
#1023 = ORIENTED_EDGE ( 'NONE', *, *, #867, .T. ) ;
#1024 = DIRECTION ( 'NONE',  ( -0.0000000000000000000, -0.0000000000000000000, 1.000000000000000000 ) ) ;
#1025 = VERTEX_POINT ( 'NONE', #49 ) ;
#1026 = EDGE_CURVE ( 'NONE', #208, #468, #380, .T. ) ;
#1027 = AXIS2_PLACEMENT_3D ( 'NONE', #183, #279, #1215 ) ;
#1028 = ADVANCED_FACE ( 'NONE', ( #698, #822 ), #177, .T. ) ;
#1029 = DIRECTION ( 'NONE',  ( 1.000000000000000000, 0.0000000000000000000, 0.0000000000000000000 ) ) ;
#1030 = FACE_OUTER_BOUND ( 'NONE', #449, .T. ) ;
#1031 = FACE_OUTER_BOUND ( 'NONE', #1032, .T. ) ;
#1032 = EDGE_LOOP ( 'NONE', ( #417, #212, #537, #1064, #114, #961 ) ) ;
#1033 = DIRECTION ( 'NONE',  ( -1.000000000000000000, -0.0000000000000000000, -0.0000000000000000000 ) ) ;
#1034 = ORIENTED_EDGE ( 'NONE', *, *, #1190, .F. ) ;
#1035 = ORIENTED_EDGE ( 'NONE', *, *, #238, .F. ) ;
#1036 = VERTEX_POINT ( 'NONE', #1042 ) ;
#1037 = DIRECTION ( 'NONE',  ( 1.000000000000000000, 0.0000000000000000000, 0.0000000000000000000 ) ) ;
#1038 = CARTESIAN_POINT ( 'NONE',  ( 87.90000000000000568, 30.60000000000008669, 0.0000000000000000000 ) ) ;
#1039 = EDGE_CURVE ( 'NONE', #1025, #1076, #503, .T. ) ;
#1040 = CARTESIAN_POINT ( 'NONE',  ( 57.50000000000000711, 7.499999999999999112, -0.9999999999999991118 ) ) ;
#1041 = CC_DESIGN_PERSON_AND_ORGANIZATION_ASSIGNMENT ( #618, #970, ( #697 ) ) ;
#1042 = CARTESIAN_POINT ( 'NONE',  ( 41.40000000000000568, 49.40000000000000568, 0.0000000000000000000 ) ) ;
#1043 = CYLINDRICAL_SURFACE ( 'NONE', #653, 8.499999999999989342 ) ;
#1044 = LINE ( 'NONE', #1001, #446 ) ;
#1045 = DIRECTION ( 'NONE',  ( 0.0000000000000000000, 1.000000000000000000, 0.0000000000000000000 ) ) ;
#1046 = EDGE_CURVE ( 'NONE', #464, #836, #1016, .T. ) ;
#1047 = CYLINDRICAL_SURFACE ( 'NONE', #819, 5.500000000000000000 ) ;
#1048 = ORIENTED_EDGE ( 'NONE', *, *, #361, .T. ) ;
#1049 = DIRECTION ( 'NONE',  ( -0.0000000000000000000, -0.0000000000000000000, 1.000000000000000000 ) ) ;
#1050 = CARTESIAN_POINT ( 'NONE',  ( 7.500000000000007105, 7.499999999999992895, -0.9999999999999991118 ) ) ;
#1051 = DIRECTION ( 'NONE',  ( -1.000000000000000000, 0.0000000000000000000, 0.0000000000000000000 ) ) ;
#1052 = ORIENTED_EDGE ( 'NONE', *, *, #1039, .F. ) ;
#1053 = EDGE_LOOP ( 'NONE', ( #176, #494, #132, #721 ) ) ;
#1054 = ORIENTED_EDGE ( 'NONE', *, *, #461, .F. ) ;
#1055 = DIRECTION ( 'NONE',  ( 1.000000000000000000, 0.0000000000000000000, 0.0000000000000000000 ) ) ;
#1056 = DIRECTION ( 'NONE',  ( 1.000000000000000000, 0.0000000000000000000, -0.0000000000000000000 ) ) ;
#1057 = DIRECTION ( 'NONE',  ( -1.000000000000000000, 0.0000000000000000000, -0.0000000000000000000 ) ) ;
#1058 = DIRECTION ( 'NONE',  ( 1.000000000000000000, 0.0000000000000000000, 0.0000000000000000000 ) ) ;
#1059 = LINE ( 'NONE', #1, #986 ) ;
#1060 = FACE_OUTER_BOUND ( 'NONE', #1080, .T. ) ;
#1061 = FACE_BOUND ( 'NONE', #153, .T. ) ;
#1062 = EDGE_CURVE ( 'NONE', #1204, #817, #190, .T. ) ;
#1063 = ORIENTED_EDGE ( 'NONE', *, *, #186, .T. ) ;
#1064 = ORIENTED_EDGE ( 'NONE', *, *, #461, .T. ) ;
#1065 = DIRECTION ( 'NONE',  ( -0.0000000000000000000, -0.0000000000000000000, 1.000000000000000000 ) ) ;
#1066 = DIRECTION ( 'NONE',  ( 0.0000000000000000000, 0.0000000000000000000, 1.000000000000000000 ) ) ;
#1067 = AXIS2_PLACEMENT_3D ( 'NONE', #243, #723, #136 ) ;
#1068 = CARTESIAN_POINT ( 'NONE',  ( 63.10000000000001563, 1.900000000000012790, 0.0000000000000000000 ) ) ;
#1069 = FACE_OUTER_BOUND ( 'NONE', #781, .T. ) ;
#1070 = PERSON_AND_ORGANIZATION_ROLE ( 'design_supplier' ) ;
#1071 = DIRECTION ( 'NONE',  ( -1.000000000000000000, 0.0000000000000000000, 0.0000000000000000000 ) ) ;
#1072 = CIRCLE ( 'NONE', #644, 5.499999999999998224 ) ;
#1073 = FACE_BOUND ( 'NONE', #89, .T. ) ;
#1074 = CARTESIAN_POINT ( 'NONE',  ( 63.10000000000001563, 63.10000000000001563, 10.00000000000002665 ) ) ;
#1075 = ORIENTED_EDGE ( 'NONE', *, *, #317, .F. ) ;
#1076 = VERTEX_POINT ( 'NONE', #658 ) ;
#1077 = EDGE_CURVE ( 'NONE', #372, #836, #925, .T. ) ;
#1078 = CARTESIAN_POINT ( 'NONE',  ( 4.500000000000005329, 7.499999999999992895, -0.9999999999999991118 ) ) ;
#1079 = VERTEX_POINT ( 'NONE', #78 ) ;
#1080 = EDGE_LOOP ( 'NONE', ( #855, #765, #1150, #11 ) ) ;
#1081 = DATE_TIME_ROLE ( 'classification_date' ) ;
#1082 = DIRECTION ( 'NONE',  ( 1.000000000000000000, 0.0000000000000000000, 0.0000000000000000000 ) ) ;
#1083 = DIRECTION ( 'NONE',  ( 0.0000000000000000000, 0.0000000000000000000, 1.000000000000000000 ) ) ;
#1084 = ADVANCED_FACE ( 'NONE', ( #561 ), #583, .F. ) ;
#1085 = EDGE_CURVE ( 'NONE', #836, #919, #635, .T. ) ;
#1086 = CC_DESIGN_PERSON_AND_ORGANIZATION_ASSIGNMENT ( #1014, #213, ( #99 ) ) ;
#1087 = DIRECTION ( 'NONE',  ( -0.0000000000000000000, 0.7071067811865450192, 0.7071067811865500152 ) ) ;
#1088 = VECTOR ( 'NONE', #412, 1000.000000000000000 ) ;
#1089 = FACE_BOUND ( 'NONE', #943, .T. ) ;
#1090 = CIRCLE ( 'NONE', #111, 8.499999999999982236 ) ;
#1091 = ORIENTED_EDGE ( 'NONE', *, *, #1197, .T. ) ;
#1092 = CARTESIAN_POINT ( 'NONE',  ( 3.610912703473990959, 3.610912703473986518, 11.71091270347398350 ) ) ;
#1093 = EDGE_LOOP ( 'NONE', ( #530, #63, #150, #553, #420, #462 ) ) ;
#1094 = AXIS2_PLACEMENT_3D ( 'NONE', #18, #1187, #507 ) ;
#1095 = CARTESIAN_POINT ( 'NONE',  ( 63.10000000000001563, 1.900000000000012790, 10.00000000000002665 ) ) ;
#1096 = VERTEX_POINT ( 'NONE', #454 ) ;
#1097 = DIRECTION ( 'NONE',  ( -0.0000000000000000000, -0.0000000000000000000, 1.000000000000000000 ) ) ;
#1098 = ADVANCED_FACE ( 'NONE', ( #789 ), #1103, .F. ) ;
#1099 = DIRECTION ( 'NONE',  ( -0.0000000000000000000, -0.0000000000000000000, 1.000000000000000000 ) ) ;
#1100 = DIRECTION ( 'NONE',  ( 0.0000000000000000000, -1.000000000000000000, 0.0000000000000000000 ) ) ;
#1101 = EDGE_CURVE ( 'NONE', #739, #372, #379, .T. ) ;
#1102 =( BOUNDED_CURVE ( )  B_SPLINE_CURVE ( 3, ( #1124, #465, #1225, #168 ),
 .UNSPECIFIED., .F., .F. ) 
 B_SPLINE_CURVE_WITH_KNOTS ( ( 4, 4 ),
 ( 2.356194490192345281, 3.998807749094370312 ),
 .UNSPECIFIED. ) 
 CURVE ( )  GEOMETRIC_REPRESENTATION_ITEM ( )  RATIONAL_B_SPLINE_CURVE ( ( 1.000000000000000000, 0.7875101923426257589, 0.7875101923426257589, 1.000000000000000000 ) ) 
 REPRESENTATION_ITEM ( '' )  );
#1103 = CYLINDRICAL_SURFACE ( 'NONE', #181, 5.500000000000000000 ) ;
#1104 = APPROVAL ( #965, 'UNSPECIFIED' ) ;
#1105 = VECTOR ( 'NONE', #219, 1000.000000000000000 ) ;
#1106 = EDGE_LOOP ( 'NONE', ( #105, #1160, #60, #676, #538, #1035, #1122, #347, #263, #1034, #825, #387 ) ) ;
#1107 = PLANE ( 'NONE',  #549 ) ;
#1108 = EDGE_CURVE ( 'NONE', #919, #77, #1127, .T. ) ;
#1109 = VERTEX_POINT ( 'NONE', #845 ) ;
#1110 = ADVANCED_FACE ( 'NONE', ( #84 ), #912, .F. ) ;
#1111 = ORIENTED_EDGE ( 'NONE', *, *, #556, .T. ) ;
#1112 = AXIS2_PLACEMENT_3D ( 'NONE', #312, #216, #897 ) ;
#1113 = ADVANCED_FACE ( 'NONE', ( #1155 ), #1043, .F. ) ;
#1114 = CARTESIAN_POINT ( 'NONE',  ( 2.673976191038329731, 54.40333609575788643, 10.77397619103833293 ) ) ;
#1115 = LINE ( 'NONE', #678, #652 ) ;
#1116 =( BOUNDED_CURVE ( )  B_SPLINE_CURVE ( 3, ( #237, #427, #227, #1189 ),
 .UNSPECIFIED., .F., .F. ) 
 B_SPLINE_CURVE_WITH_KNOTS ( ( 4, 4 ),
 ( 2.356194490192343949, 3.998807749094379194 ),
 .UNSPECIFIED. ) 
 CURVE ( )  GEOMETRIC_REPRESENTATION_ITEM ( )  RATIONAL_B_SPLINE_CURVE ( ( 1.000000000000000000, 0.7875101923426230943, 0.7875101923426230943, 1.000000000000000000 ) ) 
 REPRESENTATION_ITEM ( '' )  );
#1117 = LINE ( 'NONE', #1240, #311 ) ;
#1118 = VERTEX_POINT ( 'NONE', #165 ) ;
#1119 = ADVANCED_FACE ( 'NONE', ( #443 ), #647, .F. ) ;
#1120 = VERTEX_POINT ( 'NONE', #837 ) ;
#1121 = CARTESIAN_POINT ( 'NONE',  ( 63.10000000000001563, 3.900000000000000799, 12.00000000000000000 ) ) ;
#1122 = ORIENTED_EDGE ( 'NONE', *, *, #700, .F. ) ;
#1123 = EDGE_CURVE ( 'NONE', #1204, #42, #669, .T. ) ;
#1124 = CARTESIAN_POINT ( 'NONE',  ( 61.38908729652600726, 61.38908729652601437, 11.71091270347402435 ) ) ;
#1125 = DIRECTION ( 'NONE',  ( 0.0000000000000000000, 0.0000000000000000000, 1.000000000000000000 ) ) ;
#1126 = CARTESIAN_POINT ( 'NONE',  ( 7.500000000000007105, 7.499999999999992895, 6.000000000000000000 ) ) ;
#1127 = LINE ( 'NONE', #945, #309 ) ;
#1128 = LINE ( 'NONE', #383, #207 ) ;
#1129 = AXIS2_PLACEMENT_3D ( 'NONE', #289, #964, #951 ) ;
#1130 = LINE ( 'NONE', #1152, #586 ) ;
#1131 = ORIENTED_EDGE ( 'NONE', *, *, #1197, .F. ) ;
#1132 = DIRECTION ( 'NONE',  ( -0.0000000000000000000, 1.000000000000000000, -0.0000000000000000000 ) ) ;
#1133 = CARTESIAN_POINT ( 'NONE',  ( 7.500000000000007105, 7.499999999999992895, 6.000000000000000000 ) ) ;
#1134 = ORIENTED_EDGE ( 'NONE', *, *, #81, .T. ) ;
#1135 = DIRECTION ( 'NONE',  ( -0.0000000000000000000, -0.0000000000000000000, 1.000000000000000000 ) ) ;
#1136 = ORIENTED_EDGE ( 'NONE', *, *, #488, .T. ) ;
#1137 = DIRECTION ( 'NONE',  ( 1.000000000000000000, 0.0000000000000000000, 0.0000000000000000000 ) ) ;
#1138 = CARTESIAN_POINT ( 'NONE',  ( 3.900000000000007461, 1.900000000000012790, 12.00000000000000000 ) ) ;
#1139 = VECTOR ( 'NONE', #666, 1000.000000000000000 ) ;
#1140 = CARTESIAN_POINT ( 'NONE',  ( 2.000000000000000000, 58.97818606135579955, 10.10000000000000853 ) ) ;
#1141 = EDGE_CURVE ( 'NONE', #962, #56, #896, .T. ) ;
#1142 = DIRECTION ( 'NONE',  ( -0.0000000000000000000, 0.0000000000000000000, -1.000000000000000000 ) ) ;
#1143 = VECTOR ( 'NONE', #598, 1000.000000000000000 ) ;
#1144 = ORIENTED_EDGE ( 'NONE', *, *, #1046, .T. ) ;
#1145 = CARTESIAN_POINT ( 'NONE',  ( 7.500000000000000000, 57.49999999999999289, 6.000000000000000000 ) ) ;
#1146 = ORIENTED_EDGE ( 'NONE', *, *, #474, .F. ) ;
#1147 = MECHANICAL_CONTEXT ( 'NONE', #858, 'mechanical' ) ;
#1148 = ORIENTED_EDGE ( 'NONE', *, *, #335, .F. ) ;
#1149 = ORIENTED_EDGE ( 'NONE', *, *, #659, .T. ) ;
#1150 = ORIENTED_EDGE ( 'NONE', *, *, #203, .F. ) ;
#1151 = AXIS2_PLACEMENT_3D ( 'NONE', #1004, #1087, #995 ) ;
#1152 = CARTESIAN_POINT ( 'NONE',  ( 1.900000000000019673, 63.10000000000001563, -16.00000000000000000 ) ) ;
#1153 = APPROVAL_ROLE ( '' ) ;
#1154 = CARTESIAN_POINT ( 'NONE',  ( 1.900000000000019673, 1.900000000000012790, 0.0000000000000000000 ) ) ;
#1155 = FACE_OUTER_BOUND ( 'NONE', #43, .T. ) ;
#1156 = FACE_BOUND ( 'NONE', #195, .T. ) ;
#1157 = EDGE_CURVE ( 'NONE', #1120, #989, #985, .T. ) ;
#1158 = CARTESIAN_POINT ( 'NONE',  ( 7.500000000000007105, 7.499999999999992895, 6.000000000000000000 ) ) ;
#1159 = ORIENTED_EDGE ( 'NONE', *, *, #367, .T. ) ;
#1160 = ORIENTED_EDGE ( 'NONE', *, *, #211, .T. ) ;
#1161 = DIRECTION ( 'NONE',  ( -0.0000000000000000000, 1.000000000000000000, 0.0000000000000000000 ) ) ;
#1162 = CARTESIAN_POINT ( 'NONE',  ( 57.50000000000000711, 7.499999999999999112, 6.000000000000000000 ) ) ;
#1163 = EDGE_LOOP ( 'NONE', ( #198, #320, #313, #615 ) ) ;
#1164 = DIRECTION ( 'NONE',  ( 0.7071067811865450192, 0.0000000000000000000, 0.7071067811865500152 ) ) ;
#1165 =( BOUNDED_CURVE ( )  B_SPLINE_CURVE ( 3, ( #477, #90, #1140, #771 ),
 .UNSPECIFIED., .F., .F. ) 
 B_SPLINE_CURVE_WITH_KNOTS ( ( 4, 4 ),
 ( 2.356194490192340840, 3.141592653589793116 ),
 .UNSPECIFIED. ) 
 CURVE ( )  GEOMETRIC_REPRESENTATION_ITEM ( )  RATIONAL_B_SPLINE_CURVE ( ( 1.000000000000000000, 0.9492530216741906779, 0.9492530216741906779, 1.000000000000000000 ) ) 
 REPRESENTATION_ITEM ( '' )  );
#1166 = DIRECTION ( 'NONE',  ( 0.0000000000000000000, 0.0000000000000000000, -1.000000000000000000 ) ) ;
#1167 = ADVANCED_FACE ( 'NONE', ( #1069 ), #1175, .F. ) ;
#1168 = EDGE_CURVE ( 'NONE', #1096, #42, #1115, .T. ) ;
#1169 = CARTESIAN_POINT ( 'NONE',  ( 2.000000000000007105, 7.499999999999993783, 6.000000000000000000 ) ) ;
#1170 = APPROVAL_ROLE ( '' ) ;
#1171 = AXIS2_PLACEMENT_3D ( 'NONE', #47, #816, #604 ) ;
#1172 = DIRECTION ( 'NONE',  ( 0.0000000000000000000, 0.0000000000000000000, -1.000000000000000000 ) ) ;
#1173 = COORDINATED_UNIVERSAL_TIME_OFFSET ( 0, 0, .AHEAD. ) ;
#1174 = CARTESIAN_POINT ( 'NONE',  ( 1.900000000000019673, 1.900000000000012790, 10.00000000000002665 ) ) ;
#1175 = CYLINDRICAL_SURFACE ( 'NONE', #634, 5.499999999999998224 ) ;
#1176 = LINE ( 'NONE', #66, #1139 ) ;
#1177 = CARTESIAN_POINT ( 'NONE',  ( 4.499999999999995559, 57.49999999999999289, -0.9999999999999991118 ) ) ;
#1178 = CARTESIAN_POINT ( 'NONE',  ( 40.09999999999991616, 40.09999999999993037, 32.99999999999995737 ) ) ;
#1179 = FACE_OUTER_BOUND ( 'NONE', #287, .T. ) ;
#1180 = ORIENTED_EDGE ( 'NONE', *, *, #306, .T. ) ;
#1181 = DIRECTION ( 'NONE',  ( 0.0000000000000000000, -0.0000000000000000000, 1.000000000000000000 ) ) ;
#1182 = ORIENTED_EDGE ( 'NONE', *, *, #867, .F. ) ;
#1183 = AXIS2_PLACEMENT_3D ( 'NONE', #968, #10, #685 ) ;
#1184 = DIRECTION ( 'NONE',  ( -0.0000000000000000000, -0.0000000000000000000, 1.000000000000000000 ) ) ;
#1185 = CARTESIAN_POINT ( 'NONE',  ( 63.10000000000001563, 63.10000000000001563, -16.00000000000000000 ) ) ;
#1186 = ORIENTED_EDGE ( 'NONE', *, *, #96, .F. ) ;
#1187 = DIRECTION ( 'NONE',  ( 1.000000000000000000, -0.0000000000000000000, 0.0000000000000000000 ) ) ;
#1188 = CARTESIAN_POINT ( 'NONE',  ( 51.10000000000002274, 34.60000000000004405, -7.500000000000040856 ) ) ;
#1189 = CARTESIAN_POINT ( 'NONE',  ( 11.65812457725837170, 3.900000000000001243, 12.00000000000000000 ) ) ;
#1190 = EDGE_CURVE ( 'NONE', #1196, #1194, #535, .T. ) ;
#1191 = CARTESIAN_POINT ( 'NONE',  ( 7.500000000000000000, 57.49999999999999289, 0.0000000000000000000 ) ) ;
#1192 = DIRECTION ( 'NONE',  ( 0.0000000000000000000, 0.0000000000000000000, -1.000000000000000000 ) ) ;
#1193 = CYLINDRICAL_SURFACE ( 'NONE', #617, 8.499999999999989342 ) ;
#1194 = VERTEX_POINT ( 'NONE', #956 ) ;
#1195 = DIRECTION ( 'NONE',  ( -0.0000000000000000000, -0.0000000000000000000, 1.000000000000000000 ) ) ;
#1196 = VERTEX_POINT ( 'NONE', #378 ) ;
#1197 = EDGE_CURVE ( 'NONE', #438, #848, #1165, .T. ) ;
#1198 = ADVANCED_FACE ( 'NONE', ( #351 ), #831, .F. ) ;
#1199 = AXIS2_PLACEMENT_3D ( 'NONE', #246, #1200, #41 ) ;
#1200 = DIRECTION ( 'NONE',  ( 0.0000000000000000000, 0.0000000000000000000, -1.000000000000000000 ) ) ;
#1201 = VERTEX_POINT ( 'NONE', #861 ) ;
#1202 = DIRECTION ( 'NONE',  ( -0.0000000000000000000, -0.0000000000000000000, 1.000000000000000000 ) ) ;
#1203 = DIRECTION ( 'NONE',  ( 0.0000000000000000000, 0.0000000000000000000, -1.000000000000000000 ) ) ;
#1204 = VERTEX_POINT ( 'NONE', #202 ) ;
#1205 = DIRECTION ( 'NONE',  ( 0.0000000000000000000, -0.7071067811865450192, 0.7071067811865500152 ) ) ;
#1206 = LOCAL_TIME ( 14, 32, 54.00000000000000000, #413 ) ;
#1207 = FACE_OUTER_BOUND ( 'NONE', #541, .T. ) ;
#1208 = LINE ( 'NONE', #1078, #915 ) ;
#1209 = ORIENTED_EDGE ( 'NONE', *, *, #46, .F. ) ;
#1210 = ORIENTED_EDGE ( 'NONE', *, *, #727, .F. ) ;
#1211 = EDGE_CURVE ( 'NONE', #919, #438, #280, .T. ) ;
#1212 = ORIENTED_EDGE ( 'NONE', *, *, #736, .F. ) ;
#1213 = ORIENTED_EDGE ( 'NONE', *, *, #1224, .F. ) ;
#1214 = CC_DESIGN_APPROVAL ( #394, ( #99 ) ) ;
#1215 = DIRECTION ( 'NONE',  ( 1.000000000000000000, 0.0000000000000000000, 0.0000000000000000000 ) ) ;
#1216 = AXIS2_PLACEMENT_3D ( 'NONE', #416, #882, #920 ) ;
#1217 = CYLINDRICAL_SURFACE ( 'NONE', #688, 3.000000000000002665 ) ;
#1218 = LINE ( 'NONE', #971, #954 ) ;
#1219 = DIRECTION ( 'NONE',  ( -0.0000000000000000000, -0.0000000000000000000, 1.000000000000000000 ) ) ;
#1220 = LINE ( 'NONE', #204, #564 ) ;
#1221 = VERTEX_POINT ( 'NONE', #482 ) ;
#1222 = CARTESIAN_POINT ( 'NONE',  ( 7.500000000000007105, 7.499999999999992895, 12.00000000000000000 ) ) ;
#1223 = ORIENTED_EDGE ( 'NONE', *, *, #353, .T. ) ;
#1224 = EDGE_CURVE ( 'NONE', #754, #904, #731, .T. ) ;
#1225 = CARTESIAN_POINT ( 'NONE',  ( 55.57281528188969588, 63.67681273853019519, 9.423187261469855969 ) ) ;
#1226 = AXIS2_PLACEMENT_3D ( 'NONE', #734, #1024, #539 ) ;
#1227 = DIRECTION ( 'NONE',  ( 0.0000000000000000000, 0.0000000000000000000, 1.000000000000000000 ) ) ;
#1228 = CALENDAR_DATE ( 2019, 20, 12 ) ;
#1229 = EDGE_CURVE ( 'NONE', #1109, #588, #157, .T. ) ;
#1230 = VECTOR ( 'NONE', #806, 1000.000000000000000 ) ;
#1231 = LINE ( 'NONE', #801, #175 ) ;
#1232 = ORIENTED_EDGE ( 'NONE', *, *, #122, .T. ) ;
#1233 = DIRECTION ( 'NONE',  ( -0.0000000000000000000, -0.0000000000000000000, 1.000000000000000000 ) ) ;
#1234 = CARTESIAN_POINT ( 'NONE',  ( 57.50000000000000000, 57.50000000000000000, 12.00000000000000000 ) ) ;
#1235 = ORIENTED_EDGE ( 'NONE', *, *, #585, .F. ) ;
#1236 = ORIENTED_EDGE ( 'NONE', *, *, #572, .T. ) ;
#1237 = CARTESIAN_POINT ( 'NONE',  ( 63.00000000000001421, 7.499999999999999112, 10.10000000000002984 ) ) ;
#1238 = EDGE_LOOP ( 'NONE', ( #229, #480, #889, #528 ) ) ;
#1239 = AXIS2_PLACEMENT_3D ( 'NONE', #331, #1099, #1082 ) ;
#1240 = CARTESIAN_POINT ( 'NONE',  ( 13.00000000000000711, 7.499999999999992895, 6.000000000000000000 ) ) ;
ENDSEC;
END-ISO-10303-21;
