G04 EAGLE Gerber RS-274X export*
G75*
%MOMM*%
%FSLAX34Y34*%
%LPD*%
%INBottom Copper*%
%IPPOS*%
%AMOC8*
5,1,8,0,0,1.08239X$1,22.5*%
G01*
%ADD10C,1.676400*%
%ADD11P,1.649562X8X22.500000*%
%ADD12P,1.429621X8X22.500000*%
%ADD13P,1.429621X8X202.500000*%
%ADD14C,0.406400*%

G36*
X697997Y610728D02*
X697997Y610728D01*
X698015Y610727D01*
X698197Y610750D01*
X698379Y610769D01*
X698396Y610775D01*
X698414Y610777D01*
X698588Y610835D01*
X698763Y610891D01*
X698779Y610900D01*
X698796Y610905D01*
X698954Y610997D01*
X699115Y611086D01*
X699129Y611097D01*
X699144Y611106D01*
X699397Y611321D01*
X700696Y612620D01*
X703369Y613727D01*
X707512Y615443D01*
X711658Y615443D01*
X711685Y615445D01*
X711712Y615443D01*
X711885Y615465D01*
X712059Y615483D01*
X712084Y615490D01*
X712111Y615494D01*
X712277Y615549D01*
X712444Y615601D01*
X712467Y615614D01*
X712493Y615622D01*
X712644Y615709D01*
X712798Y615793D01*
X712818Y615810D01*
X712842Y615823D01*
X713095Y616038D01*
X713278Y616221D01*
X716993Y619937D01*
X721475Y621793D01*
X743408Y621793D01*
X743435Y621795D01*
X743462Y621793D01*
X743635Y621815D01*
X743809Y621833D01*
X743834Y621840D01*
X743861Y621844D01*
X744027Y621899D01*
X744194Y621951D01*
X744217Y621964D01*
X744243Y621972D01*
X744394Y622059D01*
X744548Y622143D01*
X744568Y622160D01*
X744592Y622173D01*
X744845Y622388D01*
X761912Y639455D01*
X761929Y639476D01*
X761950Y639494D01*
X762057Y639632D01*
X762167Y639767D01*
X762180Y639791D01*
X762196Y639812D01*
X762274Y639969D01*
X762356Y640123D01*
X762364Y640148D01*
X762376Y640172D01*
X762421Y640342D01*
X762471Y640509D01*
X762473Y640535D01*
X762480Y640561D01*
X762507Y640892D01*
X762507Y654508D01*
X762505Y654535D01*
X762507Y654562D01*
X762485Y654735D01*
X762467Y654909D01*
X762460Y654934D01*
X762456Y654961D01*
X762401Y655127D01*
X762349Y655294D01*
X762336Y655317D01*
X762328Y655343D01*
X762241Y655494D01*
X762157Y655648D01*
X762140Y655668D01*
X762127Y655692D01*
X761912Y655945D01*
X747619Y670238D01*
X747605Y670249D01*
X747594Y670263D01*
X747450Y670377D01*
X747308Y670493D01*
X747292Y670501D01*
X747278Y670512D01*
X747114Y670595D01*
X746952Y670681D01*
X746935Y670686D01*
X746919Y670695D01*
X746742Y670744D01*
X746566Y670796D01*
X746548Y670798D01*
X746531Y670803D01*
X746348Y670816D01*
X746165Y670833D01*
X746147Y670831D01*
X746130Y670832D01*
X745947Y670809D01*
X745765Y670789D01*
X745748Y670784D01*
X745730Y670782D01*
X745556Y670723D01*
X745381Y670668D01*
X745365Y670659D01*
X745348Y670653D01*
X745190Y670562D01*
X745029Y670473D01*
X745015Y670461D01*
X745000Y670452D01*
X744747Y670238D01*
X743544Y669035D01*
X729656Y669035D01*
X725679Y673012D01*
X725658Y673029D01*
X725641Y673050D01*
X725503Y673157D01*
X725367Y673267D01*
X725344Y673280D01*
X725322Y673296D01*
X725166Y673374D01*
X725012Y673456D01*
X724986Y673464D01*
X724962Y673476D01*
X724793Y673521D01*
X724626Y673571D01*
X724599Y673573D01*
X724573Y673580D01*
X724242Y673607D01*
X723558Y673607D01*
X723531Y673605D01*
X723504Y673607D01*
X723330Y673585D01*
X723157Y673567D01*
X723131Y673560D01*
X723105Y673556D01*
X722939Y673501D01*
X722772Y673449D01*
X722748Y673436D01*
X722723Y673428D01*
X722571Y673341D01*
X722418Y673257D01*
X722398Y673240D01*
X722374Y673227D01*
X722121Y673012D01*
X718144Y669035D01*
X704256Y669035D01*
X694435Y678856D01*
X694435Y692744D01*
X704256Y702565D01*
X718144Y702565D01*
X722121Y698588D01*
X722142Y698571D01*
X722159Y698550D01*
X722297Y698443D01*
X722433Y698333D01*
X722456Y698320D01*
X722478Y698304D01*
X722634Y698226D01*
X722788Y698144D01*
X722814Y698136D01*
X722838Y698124D01*
X723007Y698079D01*
X723174Y698029D01*
X723201Y698027D01*
X723227Y698020D01*
X723558Y697993D01*
X724242Y697993D01*
X724269Y697995D01*
X724296Y697993D01*
X724470Y698015D01*
X724643Y698033D01*
X724669Y698040D01*
X724695Y698044D01*
X724861Y698099D01*
X725028Y698151D01*
X725052Y698164D01*
X725077Y698172D01*
X725229Y698259D01*
X725382Y698343D01*
X725402Y698360D01*
X725426Y698373D01*
X725679Y698588D01*
X729656Y702565D01*
X735788Y702565D01*
X735797Y702566D01*
X735806Y702565D01*
X735999Y702586D01*
X736189Y702605D01*
X736197Y702607D01*
X736206Y702608D01*
X736390Y702666D01*
X736574Y702723D01*
X736582Y702727D01*
X736590Y702730D01*
X736758Y702822D01*
X736928Y702915D01*
X736935Y702920D01*
X736943Y702925D01*
X737090Y703049D01*
X737237Y703172D01*
X737243Y703179D01*
X737250Y703185D01*
X737369Y703337D01*
X737489Y703486D01*
X737494Y703494D01*
X737499Y703501D01*
X737587Y703674D01*
X737675Y703843D01*
X737677Y703852D01*
X737681Y703860D01*
X737733Y704046D01*
X737786Y704230D01*
X737787Y704239D01*
X737789Y704248D01*
X737804Y704441D01*
X737819Y704632D01*
X737818Y704640D01*
X737819Y704649D01*
X737795Y704842D01*
X737772Y705031D01*
X737770Y705040D01*
X737768Y705049D01*
X737707Y705232D01*
X737647Y705414D01*
X737643Y705422D01*
X737640Y705430D01*
X737544Y705597D01*
X737450Y705765D01*
X737444Y705772D01*
X737439Y705779D01*
X737225Y706032D01*
X725033Y718224D01*
X725012Y718241D01*
X724994Y718262D01*
X724856Y718369D01*
X724721Y718479D01*
X724697Y718492D01*
X724676Y718508D01*
X724519Y718586D01*
X724365Y718668D01*
X724340Y718676D01*
X724316Y718688D01*
X724146Y718733D01*
X723979Y718783D01*
X723953Y718785D01*
X723927Y718792D01*
X723596Y718819D01*
X716535Y718819D01*
X706119Y729235D01*
X706119Y743965D01*
X716535Y754381D01*
X731265Y754381D01*
X741681Y743965D01*
X741681Y736904D01*
X741683Y736877D01*
X741681Y736850D01*
X741703Y736677D01*
X741721Y736503D01*
X741728Y736478D01*
X741732Y736451D01*
X741787Y736285D01*
X741839Y736118D01*
X741852Y736095D01*
X741860Y736069D01*
X741947Y735918D01*
X742031Y735764D01*
X742048Y735744D01*
X742061Y735720D01*
X742276Y735467D01*
X759698Y718045D01*
X759701Y718042D01*
X759704Y718039D01*
X759858Y717914D01*
X760010Y717790D01*
X760013Y717788D01*
X760017Y717785D01*
X760195Y717692D01*
X760365Y717601D01*
X760369Y717600D01*
X760373Y717598D01*
X760564Y717542D01*
X760751Y717487D01*
X760756Y717486D01*
X760760Y717485D01*
X760952Y717468D01*
X761152Y717450D01*
X761157Y717451D01*
X761161Y717450D01*
X761351Y717472D01*
X761552Y717494D01*
X761557Y717495D01*
X761561Y717496D01*
X761744Y717554D01*
X761936Y717615D01*
X761940Y717617D01*
X761944Y717619D01*
X762117Y717715D01*
X762289Y717810D01*
X762292Y717813D01*
X762296Y717815D01*
X762448Y717945D01*
X762596Y718070D01*
X762598Y718074D01*
X762602Y718077D01*
X762724Y718232D01*
X762845Y718386D01*
X762847Y718390D01*
X762850Y718394D01*
X762939Y718571D01*
X763028Y718745D01*
X763029Y718750D01*
X763031Y718754D01*
X763083Y718944D01*
X763136Y719133D01*
X763136Y719138D01*
X763137Y719142D01*
X763150Y719334D01*
X763165Y719535D01*
X763164Y719539D01*
X763165Y719544D01*
X763139Y719736D01*
X763114Y719934D01*
X763113Y719938D01*
X763112Y719943D01*
X763011Y720259D01*
X762507Y721475D01*
X762507Y722806D01*
X762505Y722832D01*
X762507Y722859D01*
X762485Y723033D01*
X762467Y723206D01*
X762460Y723232D01*
X762456Y723258D01*
X762400Y723424D01*
X762349Y723591D01*
X762336Y723615D01*
X762328Y723640D01*
X762241Y723792D01*
X762157Y723945D01*
X762140Y723966D01*
X762127Y723989D01*
X761912Y724242D01*
X756919Y729235D01*
X756919Y743965D01*
X767335Y754381D01*
X782065Y754381D01*
X792481Y743965D01*
X792481Y729235D01*
X790981Y727735D01*
X790969Y727721D01*
X790956Y727710D01*
X790842Y727565D01*
X790726Y727424D01*
X790717Y727408D01*
X790706Y727394D01*
X790623Y727230D01*
X790537Y727068D01*
X790532Y727051D01*
X790524Y727035D01*
X790475Y726858D01*
X790422Y726682D01*
X790421Y726664D01*
X790416Y726647D01*
X790402Y726464D01*
X790386Y726281D01*
X790388Y726263D01*
X790386Y726245D01*
X790409Y726063D01*
X790429Y725881D01*
X790435Y725864D01*
X790437Y725846D01*
X790495Y725672D01*
X790551Y725497D01*
X790559Y725481D01*
X790565Y725464D01*
X790657Y725305D01*
X790746Y725144D01*
X790757Y725131D01*
X790766Y725115D01*
X790981Y724862D01*
X812683Y703160D01*
X812704Y703143D01*
X812722Y703122D01*
X812860Y703015D01*
X812995Y702905D01*
X813019Y702892D01*
X813040Y702876D01*
X813197Y702798D01*
X813351Y702716D01*
X813376Y702708D01*
X813400Y702696D01*
X813570Y702651D01*
X813737Y702601D01*
X813763Y702599D01*
X813789Y702592D01*
X814120Y702565D01*
X819744Y702565D01*
X824372Y697937D01*
X824379Y697931D01*
X824384Y697925D01*
X824534Y697804D01*
X824683Y697682D01*
X824691Y697678D01*
X824698Y697672D01*
X824868Y697584D01*
X825039Y697493D01*
X825048Y697491D01*
X825055Y697487D01*
X825240Y697434D01*
X825425Y697379D01*
X825434Y697378D01*
X825442Y697375D01*
X825634Y697360D01*
X825826Y697342D01*
X825835Y697343D01*
X825844Y697343D01*
X826033Y697365D01*
X826226Y697386D01*
X826235Y697388D01*
X826243Y697389D01*
X826425Y697449D01*
X826610Y697507D01*
X826618Y697512D01*
X826626Y697514D01*
X826795Y697609D01*
X826962Y697702D01*
X826969Y697708D01*
X826977Y697712D01*
X827123Y697838D01*
X827269Y697963D01*
X827275Y697970D01*
X827282Y697975D01*
X827399Y698127D01*
X827519Y698278D01*
X827523Y698286D01*
X827528Y698293D01*
X827614Y698466D01*
X827701Y698637D01*
X827704Y698646D01*
X827708Y698654D01*
X827758Y698840D01*
X827809Y699025D01*
X827810Y699034D01*
X827812Y699043D01*
X827839Y699373D01*
X827839Y759208D01*
X827837Y759226D01*
X827839Y759244D01*
X827818Y759426D01*
X827799Y759609D01*
X827794Y759626D01*
X827792Y759643D01*
X827735Y759818D01*
X827681Y759994D01*
X827673Y760009D01*
X827667Y760026D01*
X827577Y760186D01*
X827489Y760348D01*
X827478Y760361D01*
X827469Y760377D01*
X827349Y760516D01*
X827232Y760657D01*
X827218Y760668D01*
X827206Y760682D01*
X827061Y760794D01*
X826918Y760909D01*
X826902Y760917D01*
X826888Y760928D01*
X826723Y761010D01*
X826561Y761095D01*
X826544Y761100D01*
X826528Y761108D01*
X826349Y761155D01*
X826174Y761206D01*
X826156Y761208D01*
X826139Y761212D01*
X825808Y761239D01*
X662926Y761239D01*
X662853Y761232D01*
X662779Y761234D01*
X662653Y761212D01*
X662525Y761199D01*
X662455Y761178D01*
X662383Y761165D01*
X662263Y761119D01*
X662140Y761081D01*
X662076Y761046D01*
X662007Y761020D01*
X661899Y760951D01*
X661786Y760889D01*
X661730Y760843D01*
X661668Y760803D01*
X661576Y760714D01*
X661477Y760632D01*
X661431Y760575D01*
X661378Y760524D01*
X661305Y760418D01*
X661225Y760318D01*
X661191Y760253D01*
X661149Y760193D01*
X661098Y760074D01*
X661039Y759961D01*
X661019Y759890D01*
X660990Y759823D01*
X660963Y759697D01*
X660928Y759574D01*
X660922Y759501D01*
X660906Y759429D01*
X660905Y759301D01*
X660895Y759172D01*
X660903Y759100D01*
X660903Y759026D01*
X660927Y758900D01*
X660942Y758773D01*
X660964Y758703D01*
X660978Y758631D01*
X661027Y758512D01*
X661066Y758390D01*
X661103Y758326D01*
X661130Y758258D01*
X661201Y758151D01*
X661264Y758039D01*
X661312Y757984D01*
X661353Y757923D01*
X661444Y757832D01*
X661528Y757735D01*
X661585Y757690D01*
X661637Y757638D01*
X661777Y757541D01*
X661846Y757488D01*
X661875Y757473D01*
X661910Y757449D01*
X663149Y756734D01*
X667834Y752049D01*
X671146Y746312D01*
X672861Y739912D01*
X672861Y733288D01*
X671146Y726888D01*
X667834Y721151D01*
X663149Y716466D01*
X657412Y713154D01*
X651012Y711439D01*
X644388Y711439D01*
X637988Y713154D01*
X632251Y716466D01*
X627566Y721151D01*
X624254Y726888D01*
X623754Y728754D01*
X623706Y728882D01*
X623665Y729014D01*
X623634Y729071D01*
X623612Y729131D01*
X623539Y729247D01*
X623473Y729368D01*
X623432Y729417D01*
X623398Y729472D01*
X623304Y729572D01*
X623216Y729677D01*
X623166Y729717D01*
X623121Y729764D01*
X623009Y729843D01*
X622902Y729930D01*
X622845Y729959D01*
X622792Y729996D01*
X622666Y730052D01*
X622545Y730115D01*
X622483Y730133D01*
X622424Y730159D01*
X622290Y730188D01*
X622158Y730226D01*
X622094Y730232D01*
X622031Y730246D01*
X621893Y730248D01*
X621756Y730259D01*
X621693Y730252D01*
X621628Y730253D01*
X621493Y730228D01*
X621357Y730212D01*
X621295Y730192D01*
X621232Y730181D01*
X621105Y730130D01*
X620974Y730088D01*
X620918Y730056D01*
X620858Y730032D01*
X620743Y729957D01*
X620623Y729890D01*
X620574Y729848D01*
X620521Y729812D01*
X620422Y729716D01*
X620318Y729627D01*
X620279Y729576D01*
X620233Y729531D01*
X620156Y729417D01*
X620072Y729308D01*
X620043Y729251D01*
X620007Y729198D01*
X619954Y729071D01*
X619892Y728948D01*
X619876Y728886D01*
X619851Y728826D01*
X619824Y728692D01*
X619788Y728559D01*
X619782Y728485D01*
X619771Y728432D01*
X619771Y728352D01*
X619761Y728228D01*
X619761Y699173D01*
X619762Y699165D01*
X619761Y699156D01*
X619782Y698964D01*
X619801Y698773D01*
X619803Y698764D01*
X619804Y698755D01*
X619862Y698573D01*
X619919Y698388D01*
X619923Y698380D01*
X619926Y698372D01*
X620019Y698203D01*
X620111Y698034D01*
X620116Y698027D01*
X620121Y698019D01*
X620245Y697872D01*
X620368Y697725D01*
X620375Y697719D01*
X620381Y697712D01*
X620532Y697593D01*
X620682Y697472D01*
X620690Y697468D01*
X620697Y697463D01*
X620870Y697375D01*
X621039Y697287D01*
X621048Y697284D01*
X621056Y697280D01*
X621242Y697228D01*
X621426Y697175D01*
X621435Y697175D01*
X621444Y697172D01*
X621637Y697158D01*
X621828Y697143D01*
X621836Y697144D01*
X621845Y697143D01*
X622038Y697167D01*
X622227Y697189D01*
X622236Y697192D01*
X622245Y697193D01*
X622428Y697255D01*
X622610Y697314D01*
X622618Y697319D01*
X622626Y697322D01*
X622793Y697418D01*
X622961Y697512D01*
X622968Y697518D01*
X622975Y697522D01*
X623228Y697737D01*
X628056Y702565D01*
X641944Y702565D01*
X651765Y692744D01*
X651765Y687120D01*
X651767Y687093D01*
X651765Y687066D01*
X651787Y686892D01*
X651805Y686719D01*
X651812Y686694D01*
X651816Y686667D01*
X651872Y686501D01*
X651923Y686334D01*
X651936Y686311D01*
X651944Y686285D01*
X652031Y686134D01*
X652115Y685980D01*
X652132Y685960D01*
X652145Y685936D01*
X652360Y685683D01*
X667021Y671022D01*
X670737Y667307D01*
X672593Y662825D01*
X672593Y613742D01*
X672594Y613734D01*
X672593Y613725D01*
X672614Y613532D01*
X672633Y613342D01*
X672635Y613333D01*
X672636Y613324D01*
X672694Y613142D01*
X672751Y612957D01*
X672755Y612949D01*
X672758Y612940D01*
X672851Y612772D01*
X672943Y612603D01*
X672948Y612596D01*
X672953Y612588D01*
X673077Y612441D01*
X673200Y612294D01*
X673207Y612288D01*
X673213Y612281D01*
X673364Y612162D01*
X673514Y612041D01*
X673522Y612037D01*
X673529Y612032D01*
X673702Y611944D01*
X673871Y611856D01*
X673880Y611853D01*
X673888Y611849D01*
X674074Y611797D01*
X674258Y611744D01*
X674267Y611744D01*
X674276Y611741D01*
X674469Y611727D01*
X674660Y611711D01*
X674668Y611712D01*
X674677Y611712D01*
X674870Y611736D01*
X675059Y611758D01*
X675068Y611761D01*
X675077Y611762D01*
X675260Y611824D01*
X675442Y611883D01*
X675450Y611888D01*
X675458Y611890D01*
X675624Y611986D01*
X675793Y612081D01*
X675800Y612087D01*
X675807Y612091D01*
X676060Y612306D01*
X678435Y614681D01*
X693165Y614681D01*
X696525Y611321D01*
X696539Y611310D01*
X696550Y611296D01*
X696695Y611182D01*
X696836Y611066D01*
X696852Y611057D01*
X696866Y611046D01*
X697030Y610963D01*
X697192Y610877D01*
X697209Y610872D01*
X697225Y610864D01*
X697402Y610815D01*
X697578Y610762D01*
X697596Y610761D01*
X697613Y610756D01*
X697796Y610743D01*
X697979Y610726D01*
X697997Y610728D01*
G37*
G36*
X653501Y378462D02*
X653501Y378462D01*
X653510Y378461D01*
X653702Y378482D01*
X653893Y378501D01*
X653901Y378503D01*
X653910Y378504D01*
X654093Y378562D01*
X654278Y378619D01*
X654286Y378623D01*
X654294Y378626D01*
X654463Y378719D01*
X654632Y378811D01*
X654639Y378816D01*
X654647Y378821D01*
X654794Y378946D01*
X654941Y379068D01*
X654947Y379075D01*
X654954Y379081D01*
X655073Y379232D01*
X655193Y379382D01*
X655198Y379390D01*
X655203Y379397D01*
X655290Y379568D01*
X655379Y379739D01*
X655381Y379748D01*
X655385Y379756D01*
X655437Y379941D01*
X655490Y380126D01*
X655491Y380135D01*
X655493Y380144D01*
X655508Y380336D01*
X655523Y380528D01*
X655522Y380536D01*
X655523Y380545D01*
X655499Y380736D01*
X655476Y380927D01*
X655474Y380936D01*
X655472Y380945D01*
X655412Y381126D01*
X655351Y381310D01*
X655347Y381318D01*
X655344Y381326D01*
X655249Y381492D01*
X655154Y381661D01*
X655148Y381668D01*
X655143Y381675D01*
X654929Y381928D01*
X653779Y383078D01*
X650063Y386793D01*
X648207Y391275D01*
X648207Y446925D01*
X650063Y451407D01*
X653779Y455122D01*
X675178Y476521D01*
X678893Y480237D01*
X682416Y481696D01*
X682820Y481863D01*
X682831Y481869D01*
X682844Y481873D01*
X683008Y481964D01*
X683174Y482053D01*
X683185Y482061D01*
X683197Y482068D01*
X683339Y482189D01*
X683485Y482309D01*
X683493Y482320D01*
X683503Y482328D01*
X683620Y482476D01*
X683739Y482622D01*
X683745Y482634D01*
X683753Y482644D01*
X683839Y482813D01*
X683926Y482979D01*
X683929Y482991D01*
X683935Y483003D01*
X683986Y483185D01*
X684039Y483365D01*
X684040Y483378D01*
X684043Y483391D01*
X684057Y483580D01*
X684073Y483766D01*
X684072Y483779D01*
X684073Y483793D01*
X684049Y483981D01*
X684028Y484166D01*
X684024Y484179D01*
X684022Y484192D01*
X683962Y484371D01*
X683905Y484549D01*
X683898Y484561D01*
X683894Y484574D01*
X683800Y484737D01*
X683709Y484901D01*
X683700Y484911D01*
X683693Y484923D01*
X683479Y485176D01*
X680719Y487935D01*
X680719Y502665D01*
X685712Y507658D01*
X685729Y507679D01*
X685750Y507696D01*
X685857Y507834D01*
X685967Y507970D01*
X685980Y507993D01*
X685996Y508014D01*
X686074Y508171D01*
X686156Y508325D01*
X686164Y508351D01*
X686176Y508375D01*
X686221Y508544D01*
X686271Y508711D01*
X686273Y508738D01*
X686280Y508764D01*
X686307Y509094D01*
X686307Y532306D01*
X686305Y532332D01*
X686307Y532359D01*
X686285Y532533D01*
X686267Y532706D01*
X686260Y532732D01*
X686256Y532758D01*
X686200Y532924D01*
X686149Y533091D01*
X686136Y533115D01*
X686128Y533140D01*
X686041Y533292D01*
X685957Y533445D01*
X685940Y533466D01*
X685927Y533489D01*
X685712Y533742D01*
X680719Y538735D01*
X680719Y545796D01*
X680717Y545823D01*
X680719Y545850D01*
X680697Y546023D01*
X680679Y546197D01*
X680672Y546222D01*
X680668Y546249D01*
X680613Y546415D01*
X680561Y546582D01*
X680548Y546605D01*
X680540Y546631D01*
X680453Y546782D01*
X680369Y546936D01*
X680352Y546956D01*
X680339Y546980D01*
X680124Y547233D01*
X675463Y551893D01*
X674977Y553069D01*
X674972Y553077D01*
X674970Y553085D01*
X674876Y553256D01*
X674786Y553424D01*
X674781Y553430D01*
X674776Y553438D01*
X674652Y553587D01*
X674530Y553734D01*
X674523Y553740D01*
X674517Y553747D01*
X674367Y553866D01*
X674217Y553988D01*
X674209Y553992D01*
X674202Y553998D01*
X674031Y554086D01*
X673861Y554175D01*
X673852Y554177D01*
X673844Y554181D01*
X673659Y554234D01*
X673474Y554288D01*
X673466Y554289D01*
X673457Y554291D01*
X673264Y554306D01*
X673073Y554323D01*
X673064Y554322D01*
X673056Y554322D01*
X672864Y554299D01*
X672673Y554277D01*
X672665Y554275D01*
X672656Y554274D01*
X672474Y554213D01*
X672290Y554154D01*
X672282Y554150D01*
X672274Y554147D01*
X672107Y554052D01*
X671938Y553958D01*
X671932Y553952D01*
X671924Y553948D01*
X671779Y553821D01*
X671633Y553696D01*
X671627Y553689D01*
X671620Y553683D01*
X671502Y553530D01*
X671384Y553379D01*
X671380Y553371D01*
X671375Y553364D01*
X671223Y553069D01*
X670736Y551893D01*
X666076Y547233D01*
X666059Y547212D01*
X666038Y547194D01*
X665931Y547056D01*
X665821Y546921D01*
X665808Y546897D01*
X665792Y546876D01*
X665714Y546720D01*
X665632Y546565D01*
X665624Y546540D01*
X665612Y546516D01*
X665567Y546347D01*
X665517Y546179D01*
X665515Y546153D01*
X665508Y546127D01*
X665481Y545796D01*
X665481Y538735D01*
X660488Y533742D01*
X660471Y533721D01*
X660450Y533704D01*
X660343Y533566D01*
X660233Y533430D01*
X660220Y533407D01*
X660204Y533386D01*
X660126Y533229D01*
X660044Y533075D01*
X660036Y533049D01*
X660024Y533025D01*
X659979Y532856D01*
X659929Y532689D01*
X659927Y532662D01*
X659920Y532636D01*
X659893Y532306D01*
X659893Y509094D01*
X659895Y509068D01*
X659893Y509041D01*
X659915Y508867D01*
X659933Y508694D01*
X659940Y508668D01*
X659944Y508642D01*
X659999Y508476D01*
X660051Y508309D01*
X660064Y508285D01*
X660072Y508260D01*
X660159Y508108D01*
X660243Y507955D01*
X660260Y507934D01*
X660273Y507911D01*
X660488Y507658D01*
X665481Y502665D01*
X665481Y487935D01*
X655065Y477519D01*
X640335Y477519D01*
X629919Y487935D01*
X629919Y502665D01*
X634912Y507658D01*
X634929Y507679D01*
X634950Y507696D01*
X635057Y507834D01*
X635167Y507970D01*
X635180Y507993D01*
X635196Y508014D01*
X635274Y508171D01*
X635356Y508325D01*
X635364Y508351D01*
X635376Y508375D01*
X635421Y508544D01*
X635471Y508711D01*
X635473Y508738D01*
X635480Y508764D01*
X635507Y509094D01*
X635507Y532306D01*
X635505Y532332D01*
X635507Y532359D01*
X635485Y532533D01*
X635467Y532706D01*
X635460Y532732D01*
X635456Y532758D01*
X635401Y532924D01*
X635349Y533091D01*
X635336Y533115D01*
X635328Y533140D01*
X635241Y533292D01*
X635157Y533445D01*
X635140Y533466D01*
X635127Y533489D01*
X634912Y533742D01*
X629919Y538735D01*
X629919Y553465D01*
X640335Y563881D01*
X646176Y563881D01*
X646194Y563883D01*
X646212Y563881D01*
X646394Y563902D01*
X646577Y563921D01*
X646594Y563926D01*
X646611Y563928D01*
X646786Y563985D01*
X646962Y564039D01*
X646977Y564047D01*
X646994Y564053D01*
X647154Y564143D01*
X647316Y564231D01*
X647329Y564242D01*
X647345Y564251D01*
X647484Y564371D01*
X647625Y564488D01*
X647636Y564502D01*
X647650Y564514D01*
X647762Y564659D01*
X647877Y564802D01*
X647885Y564818D01*
X647896Y564832D01*
X647978Y564997D01*
X648063Y565159D01*
X648068Y565176D01*
X648076Y565192D01*
X648123Y565371D01*
X648174Y565546D01*
X648176Y565564D01*
X648180Y565581D01*
X648207Y565912D01*
X648207Y577088D01*
X648205Y577106D01*
X648207Y577124D01*
X648186Y577306D01*
X648167Y577489D01*
X648162Y577506D01*
X648160Y577523D01*
X648103Y577698D01*
X648049Y577874D01*
X648041Y577889D01*
X648035Y577906D01*
X647945Y578066D01*
X647857Y578228D01*
X647846Y578241D01*
X647837Y578257D01*
X647717Y578396D01*
X647600Y578537D01*
X647586Y578548D01*
X647574Y578562D01*
X647429Y578674D01*
X647286Y578789D01*
X647270Y578797D01*
X647256Y578808D01*
X647091Y578890D01*
X646929Y578975D01*
X646912Y578980D01*
X646896Y578988D01*
X646717Y579035D01*
X646542Y579086D01*
X646524Y579088D01*
X646507Y579092D01*
X646176Y579119D01*
X640335Y579119D01*
X629919Y589535D01*
X629919Y596596D01*
X629917Y596623D01*
X629919Y596650D01*
X629897Y596823D01*
X629879Y596997D01*
X629872Y597022D01*
X629868Y597049D01*
X629813Y597215D01*
X629761Y597382D01*
X629748Y597405D01*
X629740Y597431D01*
X629653Y597582D01*
X629569Y597736D01*
X629552Y597756D01*
X629539Y597780D01*
X629324Y598033D01*
X624663Y602693D01*
X623669Y605095D01*
X623667Y605099D01*
X623665Y605104D01*
X623572Y605276D01*
X623478Y605450D01*
X623476Y605454D01*
X623473Y605458D01*
X623349Y605606D01*
X623222Y605761D01*
X623219Y605763D01*
X623216Y605767D01*
X623063Y605890D01*
X622909Y606014D01*
X622905Y606016D01*
X622902Y606019D01*
X622729Y606109D01*
X622553Y606201D01*
X622549Y606203D01*
X622545Y606205D01*
X622356Y606259D01*
X622166Y606314D01*
X622162Y606315D01*
X622158Y606316D01*
X621960Y606332D01*
X621765Y606349D01*
X621761Y606349D01*
X621756Y606349D01*
X621562Y606326D01*
X621365Y606304D01*
X621361Y606303D01*
X621357Y606302D01*
X621171Y606241D01*
X620982Y606181D01*
X620978Y606179D01*
X620974Y606177D01*
X620802Y606080D01*
X620630Y605984D01*
X620627Y605981D01*
X620623Y605979D01*
X620475Y605851D01*
X620325Y605723D01*
X620322Y605719D01*
X620318Y605716D01*
X620198Y605561D01*
X620076Y605406D01*
X620074Y605402D01*
X620072Y605398D01*
X619983Y605220D01*
X619896Y605046D01*
X619894Y605042D01*
X619892Y605037D01*
X619841Y604846D01*
X619789Y604657D01*
X619789Y604653D01*
X619788Y604649D01*
X619761Y604318D01*
X619761Y380492D01*
X619763Y380474D01*
X619761Y380456D01*
X619782Y380274D01*
X619801Y380091D01*
X619806Y380074D01*
X619808Y380057D01*
X619865Y379882D01*
X619919Y379706D01*
X619927Y379691D01*
X619933Y379674D01*
X620023Y379514D01*
X620111Y379352D01*
X620122Y379339D01*
X620131Y379323D01*
X620251Y379184D01*
X620368Y379043D01*
X620382Y379032D01*
X620394Y379018D01*
X620539Y378906D01*
X620682Y378791D01*
X620698Y378783D01*
X620712Y378772D01*
X620877Y378690D01*
X621039Y378605D01*
X621056Y378600D01*
X621072Y378592D01*
X621251Y378545D01*
X621426Y378494D01*
X621444Y378492D01*
X621461Y378488D01*
X621792Y378461D01*
X653492Y378461D01*
X653501Y378462D01*
G37*
G36*
X850918Y353571D02*
X850918Y353571D01*
X850936Y353569D01*
X851118Y353590D01*
X851301Y353609D01*
X851318Y353614D01*
X851335Y353616D01*
X851510Y353673D01*
X851686Y353727D01*
X851701Y353735D01*
X851718Y353741D01*
X851878Y353831D01*
X852040Y353919D01*
X852053Y353930D01*
X852069Y353939D01*
X852208Y354059D01*
X852349Y354176D01*
X852360Y354190D01*
X852374Y354202D01*
X852486Y354347D01*
X852601Y354490D01*
X852609Y354506D01*
X852620Y354520D01*
X852702Y354685D01*
X852787Y354847D01*
X852792Y354864D01*
X852800Y354881D01*
X852847Y355059D01*
X852898Y355234D01*
X852900Y355252D01*
X852904Y355269D01*
X852931Y355600D01*
X852931Y774700D01*
X852929Y774718D01*
X852931Y774736D01*
X852910Y774918D01*
X852891Y775101D01*
X852886Y775118D01*
X852884Y775135D01*
X852827Y775310D01*
X852773Y775486D01*
X852765Y775501D01*
X852759Y775518D01*
X852669Y775678D01*
X852581Y775840D01*
X852570Y775853D01*
X852561Y775869D01*
X852441Y776008D01*
X852324Y776149D01*
X852310Y776160D01*
X852298Y776174D01*
X852153Y776286D01*
X852010Y776401D01*
X851994Y776409D01*
X851980Y776420D01*
X851815Y776502D01*
X851653Y776587D01*
X851636Y776592D01*
X851620Y776600D01*
X851441Y776647D01*
X851266Y776698D01*
X851248Y776700D01*
X851231Y776704D01*
X850900Y776731D01*
X849830Y776731D01*
X849816Y776730D01*
X849803Y776731D01*
X849616Y776710D01*
X849429Y776691D01*
X849416Y776687D01*
X849403Y776686D01*
X849224Y776628D01*
X849044Y776573D01*
X849032Y776567D01*
X849019Y776563D01*
X848856Y776471D01*
X848690Y776381D01*
X848680Y776373D01*
X848668Y776366D01*
X848525Y776244D01*
X848381Y776124D01*
X848372Y776113D01*
X848362Y776105D01*
X848246Y775956D01*
X848128Y775810D01*
X848122Y775798D01*
X848114Y775788D01*
X848030Y775619D01*
X847943Y775453D01*
X847939Y775440D01*
X847933Y775428D01*
X847883Y775246D01*
X847832Y775066D01*
X847830Y775052D01*
X847827Y775039D01*
X847814Y774853D01*
X847799Y774664D01*
X847800Y774651D01*
X847799Y774638D01*
X847824Y774452D01*
X847846Y774265D01*
X847850Y774252D01*
X847851Y774239D01*
X847953Y773923D01*
X848161Y773421D01*
X848161Y366279D01*
X846614Y362544D01*
X843756Y359686D01*
X840021Y358139D01*
X607579Y358139D01*
X603844Y359686D01*
X600986Y362544D01*
X599439Y366279D01*
X599439Y773421D01*
X599647Y773923D01*
X599651Y773936D01*
X599657Y773947D01*
X599709Y774128D01*
X599763Y774308D01*
X599765Y774321D01*
X599768Y774334D01*
X599784Y774523D01*
X599802Y774709D01*
X599800Y774722D01*
X599801Y774736D01*
X599779Y774922D01*
X599760Y775109D01*
X599756Y775122D01*
X599754Y775135D01*
X599696Y775313D01*
X599640Y775494D01*
X599634Y775505D01*
X599630Y775518D01*
X599537Y775682D01*
X599447Y775847D01*
X599438Y775857D01*
X599432Y775869D01*
X599309Y776011D01*
X599188Y776155D01*
X599177Y776163D01*
X599169Y776174D01*
X599020Y776289D01*
X598873Y776406D01*
X598861Y776412D01*
X598850Y776420D01*
X598682Y776504D01*
X598515Y776590D01*
X598502Y776594D01*
X598490Y776600D01*
X598308Y776649D01*
X598127Y776700D01*
X598114Y776701D01*
X598101Y776704D01*
X597770Y776731D01*
X596900Y776731D01*
X596882Y776729D01*
X596864Y776731D01*
X596682Y776710D01*
X596499Y776691D01*
X596482Y776686D01*
X596465Y776684D01*
X596290Y776627D01*
X596114Y776573D01*
X596099Y776565D01*
X596082Y776559D01*
X595922Y776469D01*
X595760Y776381D01*
X595747Y776370D01*
X595731Y776361D01*
X595592Y776241D01*
X595451Y776124D01*
X595440Y776110D01*
X595427Y776098D01*
X595314Y775953D01*
X595199Y775810D01*
X595191Y775794D01*
X595180Y775780D01*
X595098Y775615D01*
X595013Y775453D01*
X595008Y775436D01*
X595000Y775420D01*
X594953Y775241D01*
X594902Y775066D01*
X594900Y775048D01*
X594896Y775031D01*
X594869Y774700D01*
X594869Y355600D01*
X594871Y355582D01*
X594869Y355564D01*
X594890Y355382D01*
X594909Y355199D01*
X594914Y355182D01*
X594916Y355165D01*
X594973Y354990D01*
X595027Y354814D01*
X595035Y354799D01*
X595041Y354782D01*
X595131Y354622D01*
X595219Y354460D01*
X595230Y354447D01*
X595239Y354431D01*
X595359Y354292D01*
X595476Y354151D01*
X595490Y354140D01*
X595502Y354127D01*
X595647Y354014D01*
X595790Y353899D01*
X595806Y353891D01*
X595820Y353880D01*
X595985Y353798D01*
X596147Y353713D01*
X596164Y353708D01*
X596181Y353700D01*
X596359Y353653D01*
X596534Y353602D01*
X596552Y353600D01*
X596569Y353596D01*
X596900Y353569D01*
X850900Y353569D01*
X850918Y353571D01*
G37*
G36*
X825826Y378463D02*
X825826Y378463D01*
X825844Y378461D01*
X826026Y378482D01*
X826209Y378501D01*
X826226Y378506D01*
X826243Y378508D01*
X826418Y378565D01*
X826594Y378619D01*
X826609Y378627D01*
X826626Y378633D01*
X826786Y378723D01*
X826948Y378811D01*
X826961Y378822D01*
X826977Y378831D01*
X827116Y378951D01*
X827257Y379068D01*
X827268Y379082D01*
X827282Y379094D01*
X827394Y379239D01*
X827509Y379382D01*
X827517Y379398D01*
X827528Y379412D01*
X827610Y379577D01*
X827695Y379739D01*
X827700Y379756D01*
X827708Y379772D01*
X827755Y379950D01*
X827806Y380126D01*
X827808Y380144D01*
X827812Y380161D01*
X827839Y380492D01*
X827839Y409982D01*
X827826Y410119D01*
X827821Y410256D01*
X827806Y410319D01*
X827799Y410383D01*
X827759Y410514D01*
X827727Y410648D01*
X827700Y410706D01*
X827681Y410768D01*
X827616Y410888D01*
X827558Y411013D01*
X827520Y411065D01*
X827489Y411122D01*
X827402Y411227D01*
X827320Y411338D01*
X827273Y411381D01*
X827232Y411431D01*
X827125Y411517D01*
X827023Y411610D01*
X826968Y411643D01*
X826918Y411683D01*
X826796Y411746D01*
X826678Y411817D01*
X826618Y411839D01*
X826561Y411869D01*
X826429Y411907D01*
X826299Y411953D01*
X826236Y411962D01*
X826174Y411980D01*
X826037Y411991D01*
X825901Y412011D01*
X825837Y412008D01*
X825772Y412013D01*
X825636Y411997D01*
X825499Y411990D01*
X825436Y411974D01*
X825373Y411966D01*
X825242Y411923D01*
X825109Y411889D01*
X825051Y411861D01*
X824990Y411841D01*
X824870Y411774D01*
X824747Y411714D01*
X824695Y411675D01*
X824639Y411643D01*
X824535Y411553D01*
X824426Y411470D01*
X824383Y411422D01*
X824335Y411380D01*
X824250Y411272D01*
X824159Y411169D01*
X824127Y411113D01*
X824088Y411062D01*
X824027Y410939D01*
X823958Y410820D01*
X823933Y410751D01*
X823908Y410701D01*
X823888Y410624D01*
X823846Y410508D01*
X823546Y409388D01*
X820234Y403651D01*
X815549Y398966D01*
X809812Y395654D01*
X803412Y393939D01*
X796788Y393939D01*
X790388Y395654D01*
X784651Y398966D01*
X779966Y403651D01*
X776654Y409388D01*
X774939Y415788D01*
X774939Y422412D01*
X776654Y428812D01*
X779966Y434549D01*
X784651Y439234D01*
X790388Y442546D01*
X796788Y444261D01*
X803412Y444261D01*
X809812Y442546D01*
X815549Y439234D01*
X820234Y434549D01*
X823546Y428812D01*
X823846Y427692D01*
X823895Y427564D01*
X823935Y427432D01*
X823965Y427376D01*
X823988Y427316D01*
X824061Y427199D01*
X824127Y427078D01*
X824168Y427029D01*
X824202Y426974D01*
X824296Y426875D01*
X824384Y426769D01*
X824434Y426729D01*
X824479Y426682D01*
X824591Y426603D01*
X824698Y426517D01*
X824755Y426487D01*
X824808Y426450D01*
X824934Y426395D01*
X825055Y426331D01*
X825117Y426314D01*
X825176Y426288D01*
X825310Y426258D01*
X825442Y426220D01*
X825506Y426215D01*
X825569Y426201D01*
X825707Y426198D01*
X825844Y426187D01*
X825907Y426195D01*
X825972Y426193D01*
X826107Y426218D01*
X826243Y426234D01*
X826305Y426254D01*
X826368Y426265D01*
X826496Y426316D01*
X826626Y426359D01*
X826682Y426390D01*
X826742Y426414D01*
X826857Y426489D01*
X826977Y426557D01*
X827026Y426599D01*
X827079Y426634D01*
X827178Y426730D01*
X827282Y426820D01*
X827321Y426871D01*
X827367Y426916D01*
X827444Y427030D01*
X827528Y427138D01*
X827557Y427195D01*
X827593Y427249D01*
X827646Y427376D01*
X827708Y427499D01*
X827724Y427561D01*
X827749Y427620D01*
X827776Y427754D01*
X827812Y427887D01*
X827818Y427961D01*
X827829Y428015D01*
X827829Y428094D01*
X827839Y428218D01*
X827839Y489535D01*
X827839Y489540D01*
X827839Y489544D01*
X827819Y489738D01*
X827799Y489936D01*
X827798Y489940D01*
X827798Y489945D01*
X827739Y490132D01*
X827681Y490321D01*
X827679Y490325D01*
X827678Y490329D01*
X827582Y490503D01*
X827489Y490675D01*
X827487Y490678D01*
X827484Y490682D01*
X827356Y490835D01*
X827232Y490984D01*
X827228Y490987D01*
X827225Y490990D01*
X827069Y491115D01*
X826918Y491236D01*
X826914Y491238D01*
X826911Y491241D01*
X826730Y491334D01*
X826561Y491422D01*
X826556Y491423D01*
X826552Y491425D01*
X826362Y491479D01*
X826174Y491533D01*
X826169Y491534D01*
X826165Y491535D01*
X825973Y491550D01*
X825772Y491566D01*
X825768Y491566D01*
X825764Y491566D01*
X825570Y491542D01*
X825373Y491519D01*
X825368Y491518D01*
X825364Y491517D01*
X825179Y491456D01*
X824990Y491394D01*
X824986Y491392D01*
X824982Y491391D01*
X824813Y491294D01*
X824639Y491196D01*
X824636Y491193D01*
X824632Y491191D01*
X824485Y491063D01*
X824335Y490933D01*
X824332Y490930D01*
X824328Y490927D01*
X824208Y490770D01*
X824088Y490615D01*
X824086Y490611D01*
X824083Y490608D01*
X823931Y490312D01*
X823137Y488393D01*
X765581Y430838D01*
X765569Y430824D01*
X765556Y430812D01*
X765442Y430668D01*
X765326Y430526D01*
X765317Y430510D01*
X765306Y430496D01*
X765223Y430332D01*
X765137Y430170D01*
X765132Y430153D01*
X765124Y430137D01*
X765074Y429960D01*
X765022Y429784D01*
X765021Y429767D01*
X765016Y429750D01*
X765002Y429566D01*
X764986Y429384D01*
X764988Y429366D01*
X764986Y429348D01*
X765009Y429166D01*
X765029Y428983D01*
X765035Y428966D01*
X765037Y428949D01*
X765095Y428775D01*
X765151Y428599D01*
X765159Y428584D01*
X765165Y428567D01*
X765257Y428408D01*
X765346Y428247D01*
X765357Y428233D01*
X765366Y428218D01*
X765581Y427965D01*
X767081Y426465D01*
X767081Y411735D01*
X762088Y406742D01*
X762071Y406721D01*
X762050Y406704D01*
X761943Y406566D01*
X761833Y406430D01*
X761820Y406407D01*
X761804Y406386D01*
X761726Y406229D01*
X761644Y406075D01*
X761636Y406049D01*
X761624Y406025D01*
X761579Y405856D01*
X761529Y405689D01*
X761527Y405662D01*
X761520Y405636D01*
X761493Y405306D01*
X761493Y403975D01*
X759637Y399493D01*
X742071Y381928D01*
X742066Y381921D01*
X742059Y381916D01*
X741939Y381766D01*
X741816Y381617D01*
X741812Y381609D01*
X741807Y381602D01*
X741718Y381432D01*
X741628Y381261D01*
X741625Y381252D01*
X741621Y381245D01*
X741568Y381060D01*
X741513Y380875D01*
X741512Y380866D01*
X741510Y380858D01*
X741494Y380666D01*
X741477Y380474D01*
X741477Y380465D01*
X741477Y380456D01*
X741499Y380267D01*
X741520Y380074D01*
X741523Y380065D01*
X741524Y380057D01*
X741583Y379875D01*
X741641Y379690D01*
X741646Y379682D01*
X741649Y379674D01*
X741744Y379505D01*
X741836Y379338D01*
X741842Y379331D01*
X741846Y379323D01*
X741972Y379177D01*
X742097Y379031D01*
X742104Y379025D01*
X742110Y379018D01*
X742261Y378901D01*
X742413Y378781D01*
X742421Y378777D01*
X742428Y378772D01*
X742600Y378686D01*
X742772Y378599D01*
X742780Y378596D01*
X742788Y378592D01*
X742975Y378542D01*
X743159Y378491D01*
X743168Y378490D01*
X743177Y378488D01*
X743508Y378461D01*
X825808Y378461D01*
X825826Y378463D01*
G37*
G36*
X717586Y553039D02*
X717586Y553039D01*
X717603Y553038D01*
X717785Y553061D01*
X717968Y553081D01*
X717985Y553086D01*
X718003Y553088D01*
X718176Y553146D01*
X718352Y553202D01*
X718368Y553211D01*
X718384Y553216D01*
X718544Y553308D01*
X718704Y553397D01*
X718718Y553408D01*
X718733Y553417D01*
X718986Y553632D01*
X729235Y563881D01*
X743965Y563881D01*
X748958Y558888D01*
X748979Y558871D01*
X748996Y558850D01*
X749134Y558743D01*
X749270Y558633D01*
X749293Y558620D01*
X749314Y558604D01*
X749471Y558526D01*
X749625Y558444D01*
X749651Y558436D01*
X749675Y558424D01*
X749844Y558379D01*
X750011Y558329D01*
X750038Y558327D01*
X750064Y558320D01*
X750394Y558293D01*
X760906Y558293D01*
X760932Y558295D01*
X760959Y558293D01*
X761133Y558315D01*
X761306Y558333D01*
X761332Y558340D01*
X761358Y558344D01*
X761524Y558399D01*
X761691Y558451D01*
X761715Y558464D01*
X761740Y558472D01*
X761892Y558559D01*
X762045Y558643D01*
X762066Y558660D01*
X762089Y558673D01*
X762342Y558888D01*
X767335Y563881D01*
X774319Y563881D01*
X774332Y563882D01*
X774345Y563881D01*
X774532Y563902D01*
X774719Y563921D01*
X774732Y563925D01*
X774745Y563926D01*
X774924Y563983D01*
X775104Y564039D01*
X775116Y564045D01*
X775129Y564049D01*
X775293Y564141D01*
X775458Y564231D01*
X775468Y564239D01*
X775480Y564246D01*
X775624Y564369D01*
X775768Y564488D01*
X775776Y564499D01*
X775786Y564507D01*
X775902Y564656D01*
X776020Y564802D01*
X776026Y564814D01*
X776034Y564824D01*
X776119Y564994D01*
X776205Y565159D01*
X776209Y565172D01*
X776215Y565184D01*
X776265Y565366D01*
X776317Y565546D01*
X776318Y565560D01*
X776321Y565573D01*
X776334Y565759D01*
X776350Y565948D01*
X776348Y565961D01*
X776349Y565974D01*
X776325Y566161D01*
X776303Y566347D01*
X776299Y566360D01*
X776297Y566373D01*
X776195Y566689D01*
X775207Y569075D01*
X775207Y613360D01*
X775206Y613369D01*
X775207Y613378D01*
X775187Y613569D01*
X775167Y613761D01*
X775165Y613769D01*
X775164Y613778D01*
X775106Y613962D01*
X775049Y614146D01*
X775045Y614154D01*
X775042Y614162D01*
X774950Y614330D01*
X774857Y614500D01*
X774852Y614507D01*
X774847Y614515D01*
X774723Y614662D01*
X774600Y614809D01*
X774593Y614815D01*
X774587Y614822D01*
X774435Y614941D01*
X774286Y615061D01*
X774278Y615066D01*
X774271Y615071D01*
X774098Y615159D01*
X773929Y615247D01*
X773920Y615249D01*
X773912Y615253D01*
X773726Y615305D01*
X773542Y615358D01*
X773533Y615359D01*
X773524Y615361D01*
X773331Y615376D01*
X773140Y615391D01*
X773132Y615390D01*
X773123Y615391D01*
X772930Y615367D01*
X772741Y615344D01*
X772732Y615342D01*
X772723Y615340D01*
X772540Y615279D01*
X772358Y615219D01*
X772350Y615215D01*
X772342Y615212D01*
X772175Y615116D01*
X772007Y615022D01*
X772000Y615016D01*
X771993Y615011D01*
X771740Y614797D01*
X756207Y599263D01*
X756034Y599192D01*
X751725Y597407D01*
X731774Y597407D01*
X731756Y597405D01*
X731738Y597407D01*
X731556Y597386D01*
X731373Y597367D01*
X731356Y597362D01*
X731339Y597360D01*
X731164Y597303D01*
X730988Y597249D01*
X730973Y597241D01*
X730956Y597235D01*
X730796Y597145D01*
X730634Y597057D01*
X730621Y597046D01*
X730605Y597037D01*
X730466Y596917D01*
X730325Y596800D01*
X730314Y596786D01*
X730300Y596774D01*
X730188Y596629D01*
X730073Y596486D01*
X730065Y596470D01*
X730054Y596456D01*
X729972Y596291D01*
X729887Y596129D01*
X729882Y596112D01*
X729874Y596096D01*
X729827Y595917D01*
X729776Y595742D01*
X729774Y595724D01*
X729770Y595707D01*
X729743Y595376D01*
X729743Y593212D01*
X726920Y586396D01*
X721704Y581180D01*
X721053Y580911D01*
X716149Y578880D01*
X716149Y578879D01*
X714888Y578357D01*
X707512Y578357D01*
X700801Y581137D01*
X700788Y581141D01*
X700777Y581147D01*
X700596Y581199D01*
X700416Y581253D01*
X700403Y581255D01*
X700390Y581258D01*
X700202Y581274D01*
X700015Y581291D01*
X700002Y581290D01*
X699988Y581291D01*
X699801Y581269D01*
X699615Y581250D01*
X699602Y581246D01*
X699589Y581244D01*
X699409Y581186D01*
X699230Y581130D01*
X699219Y581123D01*
X699206Y581119D01*
X699041Y581026D01*
X698877Y580937D01*
X698867Y580928D01*
X698855Y580921D01*
X698713Y580798D01*
X698569Y580677D01*
X698561Y580667D01*
X698550Y580658D01*
X698435Y580510D01*
X698318Y580363D01*
X698312Y580351D01*
X698304Y580340D01*
X698220Y580171D01*
X698134Y580005D01*
X698130Y579992D01*
X698124Y579980D01*
X698075Y579797D01*
X698024Y579617D01*
X698023Y579604D01*
X698020Y579591D01*
X697993Y579260D01*
X697993Y565912D01*
X697995Y565894D01*
X697993Y565876D01*
X698014Y565694D01*
X698033Y565511D01*
X698038Y565494D01*
X698040Y565477D01*
X698097Y565302D01*
X698151Y565126D01*
X698159Y565111D01*
X698165Y565094D01*
X698255Y564934D01*
X698343Y564772D01*
X698354Y564759D01*
X698363Y564743D01*
X698483Y564604D01*
X698600Y564463D01*
X698614Y564452D01*
X698626Y564438D01*
X698771Y564326D01*
X698914Y564211D01*
X698930Y564203D01*
X698944Y564192D01*
X699109Y564110D01*
X699271Y564025D01*
X699288Y564020D01*
X699304Y564012D01*
X699483Y563965D01*
X699658Y563914D01*
X699676Y563912D01*
X699693Y563908D01*
X700024Y563881D01*
X705865Y563881D01*
X716114Y553632D01*
X716127Y553621D01*
X716139Y553607D01*
X716283Y553493D01*
X716425Y553377D01*
X716441Y553369D01*
X716455Y553358D01*
X716619Y553274D01*
X716781Y553188D01*
X716798Y553183D01*
X716814Y553175D01*
X716991Y553126D01*
X717167Y553074D01*
X717185Y553072D01*
X717202Y553067D01*
X717385Y553054D01*
X717568Y553037D01*
X717586Y553039D01*
G37*
%LPC*%
G36*
X704256Y630935D02*
X704256Y630935D01*
X694435Y640756D01*
X694435Y654644D01*
X704256Y664465D01*
X718144Y664465D01*
X722121Y660488D01*
X722142Y660471D01*
X722159Y660450D01*
X722297Y660343D01*
X722433Y660233D01*
X722456Y660220D01*
X722478Y660204D01*
X722634Y660126D01*
X722788Y660044D01*
X722814Y660036D01*
X722838Y660024D01*
X723007Y659979D01*
X723174Y659929D01*
X723201Y659927D01*
X723227Y659920D01*
X723558Y659893D01*
X724242Y659893D01*
X724269Y659895D01*
X724296Y659893D01*
X724470Y659915D01*
X724643Y659933D01*
X724669Y659940D01*
X724695Y659944D01*
X724861Y659999D01*
X725028Y660051D01*
X725052Y660064D01*
X725077Y660072D01*
X725229Y660159D01*
X725382Y660243D01*
X725402Y660260D01*
X725426Y660273D01*
X725679Y660488D01*
X729656Y664465D01*
X743544Y664465D01*
X753365Y654644D01*
X753365Y640756D01*
X743544Y630935D01*
X729656Y630935D01*
X725679Y634912D01*
X725658Y634929D01*
X725641Y634950D01*
X725503Y635057D01*
X725367Y635167D01*
X725344Y635180D01*
X725322Y635196D01*
X725166Y635274D01*
X725012Y635356D01*
X724986Y635364D01*
X724962Y635376D01*
X724793Y635421D01*
X724626Y635471D01*
X724599Y635473D01*
X724573Y635480D01*
X724242Y635507D01*
X723558Y635507D01*
X723531Y635505D01*
X723504Y635507D01*
X723330Y635485D01*
X723157Y635467D01*
X723131Y635460D01*
X723105Y635456D01*
X722939Y635401D01*
X722772Y635349D01*
X722748Y635336D01*
X722723Y635328D01*
X722571Y635241D01*
X722418Y635157D01*
X722398Y635140D01*
X722374Y635127D01*
X722121Y634912D01*
X718144Y630935D01*
X704256Y630935D01*
G37*
%LPD*%
G36*
X756456Y495098D02*
X756456Y495098D01*
X756465Y495097D01*
X756658Y495121D01*
X756847Y495144D01*
X756856Y495146D01*
X756865Y495148D01*
X757047Y495209D01*
X757230Y495269D01*
X757238Y495273D01*
X757246Y495276D01*
X757413Y495372D01*
X757581Y495466D01*
X757588Y495472D01*
X757595Y495477D01*
X757848Y495691D01*
X787312Y525155D01*
X787329Y525176D01*
X787350Y525194D01*
X787457Y525332D01*
X787567Y525467D01*
X787580Y525491D01*
X787596Y525512D01*
X787674Y525669D01*
X787756Y525823D01*
X787764Y525848D01*
X787776Y525872D01*
X787821Y526042D01*
X787871Y526209D01*
X787873Y526235D01*
X787880Y526261D01*
X787907Y526592D01*
X787907Y529258D01*
X787906Y529266D01*
X787907Y529275D01*
X787886Y529467D01*
X787867Y529658D01*
X787865Y529667D01*
X787864Y529676D01*
X787806Y529858D01*
X787749Y530043D01*
X787745Y530051D01*
X787742Y530060D01*
X787649Y530228D01*
X787557Y530397D01*
X787552Y530404D01*
X787547Y530412D01*
X787423Y530559D01*
X787300Y530706D01*
X787293Y530712D01*
X787287Y530719D01*
X787136Y530838D01*
X786986Y530959D01*
X786978Y530963D01*
X786971Y530968D01*
X786798Y531056D01*
X786629Y531144D01*
X786620Y531147D01*
X786612Y531151D01*
X786426Y531203D01*
X786242Y531256D01*
X786233Y531256D01*
X786224Y531259D01*
X786031Y531273D01*
X785840Y531289D01*
X785832Y531288D01*
X785823Y531288D01*
X785630Y531264D01*
X785441Y531242D01*
X785432Y531239D01*
X785423Y531238D01*
X785240Y531176D01*
X785058Y531117D01*
X785050Y531112D01*
X785042Y531110D01*
X784876Y531014D01*
X784707Y530919D01*
X784700Y530913D01*
X784693Y530909D01*
X784440Y530694D01*
X782065Y528319D01*
X767335Y528319D01*
X762342Y533312D01*
X762321Y533329D01*
X762304Y533350D01*
X762166Y533457D01*
X762030Y533567D01*
X762007Y533580D01*
X761986Y533596D01*
X761829Y533674D01*
X761675Y533756D01*
X761649Y533764D01*
X761625Y533776D01*
X761456Y533821D01*
X761289Y533871D01*
X761262Y533873D01*
X761236Y533880D01*
X760906Y533907D01*
X750824Y533907D01*
X750806Y533905D01*
X750788Y533907D01*
X750606Y533886D01*
X750423Y533867D01*
X750406Y533862D01*
X750389Y533860D01*
X750214Y533803D01*
X750038Y533749D01*
X750023Y533741D01*
X750006Y533735D01*
X749846Y533645D01*
X749684Y533557D01*
X749671Y533546D01*
X749655Y533537D01*
X749516Y533417D01*
X749375Y533300D01*
X749364Y533286D01*
X749350Y533274D01*
X749238Y533129D01*
X749123Y532986D01*
X749115Y532970D01*
X749104Y532956D01*
X749022Y532791D01*
X748937Y532629D01*
X748932Y532612D01*
X748924Y532596D01*
X748877Y532417D01*
X748826Y532242D01*
X748824Y532224D01*
X748820Y532207D01*
X748793Y531876D01*
X748793Y509094D01*
X748795Y509068D01*
X748793Y509041D01*
X748815Y508867D01*
X748833Y508694D01*
X748840Y508668D01*
X748844Y508642D01*
X748899Y508476D01*
X748951Y508309D01*
X748964Y508285D01*
X748972Y508260D01*
X749059Y508108D01*
X749143Y507955D01*
X749160Y507934D01*
X749173Y507911D01*
X749388Y507658D01*
X754381Y502665D01*
X754381Y497128D01*
X754382Y497119D01*
X754381Y497110D01*
X754402Y496917D01*
X754421Y496727D01*
X754423Y496719D01*
X754424Y496710D01*
X754483Y496525D01*
X754539Y496342D01*
X754543Y496334D01*
X754546Y496326D01*
X754639Y496158D01*
X754731Y495988D01*
X754736Y495981D01*
X754741Y495973D01*
X754865Y495826D01*
X754988Y495679D01*
X754995Y495673D01*
X755001Y495666D01*
X755153Y495547D01*
X755302Y495427D01*
X755310Y495422D01*
X755317Y495417D01*
X755490Y495329D01*
X755659Y495241D01*
X755668Y495239D01*
X755676Y495235D01*
X755862Y495183D01*
X756046Y495130D01*
X756055Y495129D01*
X756064Y495127D01*
X756257Y495112D01*
X756448Y495097D01*
X756456Y495098D01*
G37*
G36*
X717586Y502239D02*
X717586Y502239D01*
X717603Y502238D01*
X717785Y502261D01*
X717968Y502281D01*
X717985Y502286D01*
X718003Y502288D01*
X718176Y502346D01*
X718352Y502402D01*
X718368Y502411D01*
X718384Y502416D01*
X718544Y502508D01*
X718704Y502597D01*
X718718Y502608D01*
X718733Y502617D01*
X718986Y502832D01*
X723812Y507658D01*
X723829Y507679D01*
X723850Y507696D01*
X723957Y507834D01*
X724067Y507970D01*
X724080Y507993D01*
X724096Y508014D01*
X724174Y508171D01*
X724256Y508325D01*
X724264Y508351D01*
X724276Y508375D01*
X724321Y508544D01*
X724371Y508711D01*
X724373Y508738D01*
X724380Y508764D01*
X724407Y509094D01*
X724407Y532306D01*
X724405Y532332D01*
X724407Y532359D01*
X724385Y532533D01*
X724367Y532706D01*
X724360Y532732D01*
X724356Y532758D01*
X724301Y532924D01*
X724249Y533091D01*
X724236Y533115D01*
X724228Y533140D01*
X724141Y533292D01*
X724057Y533445D01*
X724040Y533466D01*
X724027Y533489D01*
X723812Y533742D01*
X718986Y538568D01*
X718972Y538579D01*
X718961Y538593D01*
X718817Y538707D01*
X718675Y538823D01*
X718659Y538831D01*
X718645Y538842D01*
X718481Y538926D01*
X718319Y539012D01*
X718302Y539017D01*
X718286Y539025D01*
X718109Y539074D01*
X717933Y539126D01*
X717915Y539128D01*
X717898Y539133D01*
X717715Y539146D01*
X717532Y539163D01*
X717514Y539161D01*
X717497Y539162D01*
X717315Y539139D01*
X717132Y539119D01*
X717115Y539114D01*
X717097Y539112D01*
X716924Y539054D01*
X716748Y538998D01*
X716732Y538989D01*
X716716Y538984D01*
X716556Y538892D01*
X716396Y538803D01*
X716382Y538792D01*
X716367Y538783D01*
X716114Y538568D01*
X711288Y533742D01*
X711271Y533721D01*
X711250Y533704D01*
X711143Y533566D01*
X711033Y533430D01*
X711020Y533407D01*
X711004Y533386D01*
X710926Y533229D01*
X710844Y533075D01*
X710836Y533049D01*
X710824Y533025D01*
X710779Y532856D01*
X710729Y532689D01*
X710727Y532662D01*
X710720Y532636D01*
X710693Y532306D01*
X710693Y509094D01*
X710695Y509068D01*
X710693Y509041D01*
X710715Y508867D01*
X710733Y508694D01*
X710740Y508668D01*
X710744Y508642D01*
X710799Y508476D01*
X710851Y508309D01*
X710864Y508285D01*
X710872Y508260D01*
X710959Y508108D01*
X711043Y507955D01*
X711060Y507934D01*
X711073Y507911D01*
X711288Y507658D01*
X716114Y502832D01*
X716127Y502821D01*
X716139Y502807D01*
X716283Y502693D01*
X716425Y502577D01*
X716441Y502569D01*
X716455Y502558D01*
X716619Y502474D01*
X716781Y502388D01*
X716798Y502383D01*
X716814Y502375D01*
X716991Y502326D01*
X717167Y502274D01*
X717185Y502272D01*
X717202Y502267D01*
X717385Y502254D01*
X717568Y502237D01*
X717586Y502239D01*
G37*
G36*
X788968Y641910D02*
X788968Y641910D01*
X788977Y641909D01*
X789170Y641933D01*
X789359Y641956D01*
X789368Y641958D01*
X789377Y641960D01*
X789559Y642021D01*
X789742Y642081D01*
X789750Y642085D01*
X789758Y642088D01*
X789925Y642184D01*
X790093Y642278D01*
X790100Y642284D01*
X790107Y642289D01*
X790360Y642503D01*
X795440Y647583D01*
X795457Y647604D01*
X795478Y647622D01*
X795585Y647760D01*
X795695Y647895D01*
X795708Y647919D01*
X795724Y647940D01*
X795802Y648097D01*
X795884Y648251D01*
X795892Y648276D01*
X795904Y648300D01*
X795949Y648470D01*
X795999Y648637D01*
X796001Y648663D01*
X796008Y648689D01*
X796035Y649020D01*
X796035Y654644D01*
X798831Y657440D01*
X798837Y657447D01*
X798843Y657452D01*
X798964Y657602D01*
X799086Y657751D01*
X799090Y657759D01*
X799096Y657766D01*
X799184Y657936D01*
X799275Y658107D01*
X799277Y658116D01*
X799281Y658123D01*
X799334Y658308D01*
X799389Y658493D01*
X799390Y658502D01*
X799393Y658510D01*
X799408Y658701D01*
X799426Y658894D01*
X799425Y658903D01*
X799425Y658912D01*
X799403Y659101D01*
X799382Y659294D01*
X799380Y659303D01*
X799379Y659311D01*
X799319Y659493D01*
X799261Y659678D01*
X799256Y659686D01*
X799254Y659694D01*
X799159Y659863D01*
X799066Y660030D01*
X799060Y660037D01*
X799056Y660045D01*
X798930Y660191D01*
X798805Y660337D01*
X798798Y660343D01*
X798793Y660350D01*
X798641Y660467D01*
X798490Y660587D01*
X798482Y660591D01*
X798475Y660596D01*
X798302Y660682D01*
X798131Y660769D01*
X798122Y660772D01*
X798114Y660776D01*
X797928Y660826D01*
X797743Y660877D01*
X797734Y660878D01*
X797725Y660880D01*
X797395Y660907D01*
X788924Y660907D01*
X788906Y660905D01*
X788888Y660907D01*
X788706Y660886D01*
X788523Y660867D01*
X788506Y660862D01*
X788489Y660860D01*
X788314Y660803D01*
X788138Y660749D01*
X788123Y660741D01*
X788106Y660735D01*
X787946Y660645D01*
X787784Y660557D01*
X787771Y660546D01*
X787755Y660537D01*
X787616Y660417D01*
X787475Y660300D01*
X787464Y660286D01*
X787450Y660274D01*
X787338Y660129D01*
X787223Y659986D01*
X787215Y659970D01*
X787204Y659956D01*
X787122Y659791D01*
X787037Y659629D01*
X787032Y659612D01*
X787024Y659596D01*
X786977Y659417D01*
X786926Y659242D01*
X786924Y659224D01*
X786920Y659207D01*
X786893Y658876D01*
X786893Y643940D01*
X786894Y643931D01*
X786893Y643922D01*
X786914Y643729D01*
X786933Y643539D01*
X786935Y643531D01*
X786936Y643522D01*
X786995Y643337D01*
X787051Y643154D01*
X787055Y643146D01*
X787058Y643138D01*
X787151Y642970D01*
X787243Y642800D01*
X787248Y642793D01*
X787253Y642785D01*
X787377Y642638D01*
X787500Y642491D01*
X787507Y642485D01*
X787513Y642478D01*
X787665Y642359D01*
X787814Y642239D01*
X787822Y642234D01*
X787829Y642229D01*
X788002Y642141D01*
X788171Y642053D01*
X788180Y642051D01*
X788188Y642047D01*
X788374Y641995D01*
X788558Y641942D01*
X788567Y641941D01*
X788576Y641939D01*
X788769Y641924D01*
X788960Y641909D01*
X788968Y641910D01*
G37*
G36*
X621964Y742957D02*
X621964Y742957D01*
X622101Y742964D01*
X622164Y742980D01*
X622227Y742988D01*
X622358Y743030D01*
X622491Y743064D01*
X622549Y743092D01*
X622610Y743112D01*
X622730Y743180D01*
X622853Y743240D01*
X622905Y743279D01*
X622961Y743310D01*
X623065Y743400D01*
X623174Y743483D01*
X623217Y743531D01*
X623265Y743573D01*
X623350Y743682D01*
X623441Y743785D01*
X623473Y743841D01*
X623512Y743892D01*
X623573Y744015D01*
X623642Y744133D01*
X623667Y744203D01*
X623692Y744252D01*
X623712Y744329D01*
X623754Y744446D01*
X624254Y746312D01*
X627566Y752049D01*
X632251Y756734D01*
X633490Y757449D01*
X633549Y757492D01*
X633614Y757527D01*
X633712Y757609D01*
X633817Y757684D01*
X633867Y757737D01*
X633923Y757784D01*
X634004Y757884D01*
X634091Y757978D01*
X634130Y758041D01*
X634175Y758098D01*
X634235Y758212D01*
X634302Y758322D01*
X634327Y758390D01*
X634361Y758455D01*
X634396Y758579D01*
X634441Y758699D01*
X634452Y758772D01*
X634472Y758842D01*
X634483Y758970D01*
X634503Y759097D01*
X634499Y759170D01*
X634505Y759244D01*
X634490Y759371D01*
X634485Y759500D01*
X634467Y759571D01*
X634458Y759643D01*
X634419Y759766D01*
X634388Y759890D01*
X634356Y759957D01*
X634334Y760026D01*
X634270Y760138D01*
X634215Y760254D01*
X634172Y760313D01*
X634136Y760377D01*
X634052Y760474D01*
X633975Y760577D01*
X633920Y760626D01*
X633872Y760682D01*
X633771Y760760D01*
X633675Y760846D01*
X633612Y760883D01*
X633554Y760928D01*
X633439Y760986D01*
X633329Y761051D01*
X633259Y761075D01*
X633194Y761108D01*
X633070Y761141D01*
X632948Y761183D01*
X632876Y761193D01*
X632805Y761212D01*
X632636Y761226D01*
X632550Y761238D01*
X632517Y761236D01*
X632474Y761239D01*
X621792Y761239D01*
X621774Y761237D01*
X621756Y761239D01*
X621574Y761218D01*
X621391Y761199D01*
X621374Y761194D01*
X621357Y761192D01*
X621182Y761135D01*
X621006Y761081D01*
X620991Y761073D01*
X620974Y761067D01*
X620814Y760977D01*
X620652Y760889D01*
X620639Y760878D01*
X620623Y760869D01*
X620484Y760749D01*
X620343Y760632D01*
X620332Y760618D01*
X620318Y760606D01*
X620206Y760461D01*
X620091Y760318D01*
X620083Y760302D01*
X620072Y760288D01*
X619990Y760123D01*
X619905Y759961D01*
X619900Y759944D01*
X619892Y759928D01*
X619845Y759749D01*
X619794Y759574D01*
X619792Y759556D01*
X619788Y759539D01*
X619761Y759208D01*
X619761Y744972D01*
X619774Y744835D01*
X619779Y744698D01*
X619794Y744635D01*
X619801Y744571D01*
X619841Y744440D01*
X619873Y744306D01*
X619900Y744248D01*
X619919Y744186D01*
X619984Y744065D01*
X620042Y743941D01*
X620080Y743889D01*
X620111Y743832D01*
X620198Y743727D01*
X620280Y743616D01*
X620327Y743572D01*
X620368Y743523D01*
X620475Y743437D01*
X620577Y743344D01*
X620632Y743311D01*
X620682Y743270D01*
X620804Y743207D01*
X620922Y743136D01*
X620982Y743115D01*
X621039Y743085D01*
X621171Y743047D01*
X621301Y743001D01*
X621364Y742991D01*
X621426Y742974D01*
X621563Y742962D01*
X621699Y742942D01*
X621763Y742946D01*
X621828Y742941D01*
X621964Y742957D01*
G37*
G36*
X621836Y659044D02*
X621836Y659044D01*
X621845Y659043D01*
X622038Y659067D01*
X622227Y659089D01*
X622236Y659092D01*
X622245Y659093D01*
X622428Y659155D01*
X622610Y659214D01*
X622618Y659219D01*
X622626Y659222D01*
X622793Y659318D01*
X622961Y659412D01*
X622968Y659418D01*
X622975Y659422D01*
X623228Y659637D01*
X628056Y664465D01*
X634188Y664465D01*
X634197Y664466D01*
X634206Y664465D01*
X634399Y664486D01*
X634589Y664505D01*
X634597Y664507D01*
X634606Y664508D01*
X634791Y664567D01*
X634974Y664623D01*
X634982Y664627D01*
X634990Y664630D01*
X635158Y664723D01*
X635328Y664815D01*
X635335Y664820D01*
X635343Y664825D01*
X635490Y664949D01*
X635637Y665072D01*
X635643Y665079D01*
X635650Y665085D01*
X635769Y665237D01*
X635889Y665386D01*
X635894Y665394D01*
X635899Y665401D01*
X635987Y665574D01*
X636075Y665743D01*
X636077Y665752D01*
X636081Y665760D01*
X636133Y665946D01*
X636186Y666130D01*
X636187Y666139D01*
X636189Y666148D01*
X636204Y666341D01*
X636219Y666532D01*
X636218Y666540D01*
X636219Y666549D01*
X636195Y666742D01*
X636172Y666931D01*
X636170Y666940D01*
X636168Y666949D01*
X636107Y667131D01*
X636047Y667314D01*
X636043Y667322D01*
X636040Y667330D01*
X635944Y667497D01*
X635850Y667665D01*
X635844Y667672D01*
X635839Y667679D01*
X635625Y667932D01*
X635117Y668440D01*
X635096Y668457D01*
X635078Y668478D01*
X634940Y668585D01*
X634805Y668695D01*
X634781Y668708D01*
X634760Y668724D01*
X634603Y668802D01*
X634449Y668884D01*
X634424Y668892D01*
X634400Y668904D01*
X634230Y668949D01*
X634063Y668999D01*
X634037Y669001D01*
X634011Y669008D01*
X633680Y669035D01*
X628056Y669035D01*
X623228Y673863D01*
X623221Y673869D01*
X623216Y673875D01*
X623066Y673996D01*
X622917Y674118D01*
X622909Y674122D01*
X622902Y674128D01*
X622732Y674216D01*
X622561Y674307D01*
X622552Y674309D01*
X622545Y674313D01*
X622360Y674366D01*
X622175Y674421D01*
X622166Y674422D01*
X622158Y674425D01*
X621966Y674440D01*
X621774Y674458D01*
X621765Y674457D01*
X621756Y674457D01*
X621567Y674435D01*
X621374Y674414D01*
X621365Y674412D01*
X621357Y674411D01*
X621175Y674351D01*
X620990Y674293D01*
X620982Y674288D01*
X620974Y674286D01*
X620805Y674191D01*
X620638Y674098D01*
X620631Y674092D01*
X620623Y674088D01*
X620477Y673962D01*
X620331Y673837D01*
X620325Y673830D01*
X620318Y673825D01*
X620201Y673673D01*
X620081Y673522D01*
X620077Y673514D01*
X620072Y673507D01*
X619986Y673334D01*
X619899Y673163D01*
X619896Y673154D01*
X619892Y673146D01*
X619842Y672960D01*
X619791Y672775D01*
X619790Y672766D01*
X619788Y672757D01*
X619761Y672427D01*
X619761Y661073D01*
X619762Y661065D01*
X619761Y661056D01*
X619782Y660864D01*
X619801Y660673D01*
X619803Y660664D01*
X619804Y660655D01*
X619862Y660473D01*
X619919Y660288D01*
X619923Y660280D01*
X619926Y660272D01*
X620019Y660103D01*
X620111Y659934D01*
X620116Y659927D01*
X620121Y659919D01*
X620245Y659772D01*
X620368Y659625D01*
X620375Y659619D01*
X620381Y659612D01*
X620532Y659493D01*
X620682Y659372D01*
X620690Y659368D01*
X620697Y659363D01*
X620870Y659275D01*
X621039Y659187D01*
X621048Y659184D01*
X621056Y659180D01*
X621242Y659128D01*
X621426Y659075D01*
X621435Y659075D01*
X621444Y659072D01*
X621637Y659058D01*
X621828Y659043D01*
X621836Y659044D01*
G37*
G36*
X801673Y612510D02*
X801673Y612510D01*
X801686Y612510D01*
X801874Y612534D01*
X802059Y612556D01*
X802072Y612560D01*
X802085Y612562D01*
X802401Y612663D01*
X804969Y613727D01*
X809112Y615443D01*
X811276Y615443D01*
X811294Y615445D01*
X811312Y615443D01*
X811494Y615464D01*
X811677Y615483D01*
X811694Y615488D01*
X811711Y615490D01*
X811886Y615547D01*
X812062Y615601D01*
X812077Y615609D01*
X812094Y615615D01*
X812254Y615705D01*
X812416Y615793D01*
X812429Y615804D01*
X812445Y615813D01*
X812584Y615933D01*
X812725Y616050D01*
X812736Y616064D01*
X812750Y616076D01*
X812862Y616221D01*
X812977Y616364D01*
X812985Y616380D01*
X812996Y616394D01*
X813078Y616559D01*
X813163Y616721D01*
X813168Y616738D01*
X813176Y616754D01*
X813223Y616933D01*
X813274Y617108D01*
X813276Y617126D01*
X813280Y617143D01*
X813307Y617474D01*
X813307Y626060D01*
X813306Y626069D01*
X813307Y626078D01*
X813286Y626271D01*
X813267Y626461D01*
X813265Y626469D01*
X813264Y626478D01*
X813206Y626662D01*
X813149Y626846D01*
X813145Y626854D01*
X813142Y626862D01*
X813050Y627030D01*
X812957Y627200D01*
X812952Y627207D01*
X812947Y627215D01*
X812823Y627362D01*
X812700Y627509D01*
X812693Y627515D01*
X812687Y627522D01*
X812535Y627641D01*
X812386Y627761D01*
X812378Y627766D01*
X812371Y627771D01*
X812198Y627859D01*
X812029Y627947D01*
X812020Y627949D01*
X812012Y627953D01*
X811826Y628005D01*
X811642Y628058D01*
X811633Y628059D01*
X811624Y628061D01*
X811431Y628076D01*
X811240Y628091D01*
X811232Y628090D01*
X811223Y628091D01*
X811030Y628067D01*
X810841Y628044D01*
X810832Y628042D01*
X810823Y628040D01*
X810640Y627979D01*
X810458Y627919D01*
X810450Y627915D01*
X810442Y627912D01*
X810275Y627816D01*
X810107Y627722D01*
X810100Y627716D01*
X810093Y627711D01*
X809840Y627497D01*
X800188Y617845D01*
X800171Y617824D01*
X800150Y617806D01*
X800043Y617668D01*
X799933Y617533D01*
X799920Y617509D01*
X799904Y617488D01*
X799826Y617331D01*
X799744Y617177D01*
X799736Y617152D01*
X799724Y617128D01*
X799679Y616958D01*
X799629Y616791D01*
X799627Y616765D01*
X799620Y616739D01*
X799593Y616408D01*
X799593Y614540D01*
X799594Y614526D01*
X799593Y614513D01*
X799614Y614327D01*
X799633Y614139D01*
X799637Y614126D01*
X799638Y614113D01*
X799696Y613934D01*
X799751Y613754D01*
X799757Y613743D01*
X799761Y613730D01*
X799853Y613565D01*
X799943Y613400D01*
X799951Y613390D01*
X799958Y613378D01*
X800080Y613235D01*
X800200Y613091D01*
X800211Y613083D01*
X800219Y613072D01*
X800368Y612956D01*
X800514Y612839D01*
X800526Y612833D01*
X800536Y612824D01*
X800705Y612739D01*
X800871Y612653D01*
X800884Y612650D01*
X800896Y612643D01*
X801078Y612594D01*
X801258Y612542D01*
X801272Y612541D01*
X801285Y612537D01*
X801473Y612524D01*
X801660Y612509D01*
X801673Y612510D01*
G37*
D10*
X812800Y596900D03*
X711200Y596900D03*
D11*
X698500Y546100D03*
X698500Y419100D03*
X723900Y419100D03*
X698500Y495300D03*
X647700Y596900D03*
X749300Y419100D03*
X736600Y495300D03*
X647700Y495300D03*
X774700Y736600D03*
X736600Y546100D03*
X685800Y596900D03*
X647700Y546100D03*
X774700Y546100D03*
X723900Y736600D03*
D12*
X736600Y685800D03*
X812800Y685800D03*
D13*
X711200Y685800D03*
X635000Y685800D03*
X812800Y647700D03*
X736600Y647700D03*
X711200Y647700D03*
X635000Y647700D03*
D14*
X774700Y723900D02*
X774700Y736600D01*
X774700Y723900D02*
X812800Y685800D01*
X749300Y419100D02*
X749300Y406400D01*
X723900Y381000D01*
X673100Y381000D01*
X660400Y393700D01*
X660400Y444500D01*
X685800Y469900D01*
X711200Y469900D01*
X736600Y495300D01*
X736600Y546100D01*
X774700Y546100D01*
X660400Y660400D02*
X635000Y685800D01*
X660400Y660400D02*
X660400Y558800D01*
X647700Y546100D01*
X647700Y495300D01*
X647700Y596900D02*
X635000Y609600D01*
X635000Y647700D01*
X787400Y622300D02*
X812800Y647700D01*
X787400Y622300D02*
X787400Y571500D01*
X800100Y558800D01*
X800100Y520700D01*
X723900Y444500D01*
X685800Y444500D01*
X673100Y431800D01*
X673100Y406400D01*
X685800Y393700D01*
X711200Y393700D01*
X723900Y406400D01*
X723900Y419100D01*
X787400Y673100D02*
X723900Y736600D01*
X825500Y609600D02*
X812800Y596900D01*
X812800Y495300D01*
X749300Y431800D01*
X711200Y431800D01*
X698500Y419100D01*
X825500Y662068D02*
X814468Y673100D01*
X787400Y673100D01*
X825500Y662068D02*
X825500Y609600D01*
X698500Y546100D02*
X698500Y495300D01*
X698500Y546100D02*
X685800Y558800D01*
X685800Y596900D01*
X711200Y596900D01*
X723900Y609600D01*
X749300Y609600D01*
X774700Y635000D01*
X774700Y660400D01*
X749300Y685800D01*
X736600Y685800D01*
X711200Y685800D01*
X711200Y647700D02*
X736600Y647700D01*
M02*
