G04 EAGLE Gerber RS-274X export*
G75*
%MOMM*%
%FSLAX34Y34*%
%LPD*%
%IN*%
%IPPOS*%
%AMOC8*
5,1,8,0,0,1.08239X$1,22.5*%
G01*
%ADD10C,0.254000*%


D10*
X609600Y368300D02*
X838000Y368300D01*
X838000Y771400D01*
X609600Y771400D01*
X609600Y368300D01*
X662700Y736064D02*
X662624Y734996D01*
X662471Y733935D01*
X662243Y732888D01*
X661941Y731860D01*
X661567Y730856D01*
X661122Y729881D01*
X660608Y728941D01*
X660029Y728040D01*
X659387Y727182D01*
X658685Y726372D01*
X657928Y725615D01*
X657118Y724913D01*
X656260Y724271D01*
X655359Y723692D01*
X654419Y723178D01*
X653444Y722733D01*
X652440Y722359D01*
X651412Y722057D01*
X650365Y721829D01*
X649304Y721676D01*
X648236Y721600D01*
X647164Y721600D01*
X646096Y721676D01*
X645035Y721829D01*
X643988Y722057D01*
X642960Y722359D01*
X641956Y722733D01*
X640981Y723178D01*
X640041Y723692D01*
X639140Y724271D01*
X638282Y724913D01*
X637472Y725615D01*
X636715Y726372D01*
X636013Y727182D01*
X635371Y728040D01*
X634792Y728941D01*
X634278Y729881D01*
X633833Y730856D01*
X633459Y731860D01*
X633157Y732888D01*
X632929Y733935D01*
X632776Y734996D01*
X632700Y736064D01*
X632700Y737136D01*
X632776Y738204D01*
X632929Y739265D01*
X633157Y740312D01*
X633459Y741340D01*
X633833Y742344D01*
X634278Y743319D01*
X634792Y744259D01*
X635371Y745160D01*
X636013Y746018D01*
X636715Y746828D01*
X637472Y747585D01*
X638282Y748287D01*
X639140Y748929D01*
X640041Y749508D01*
X640981Y750022D01*
X641956Y750467D01*
X642960Y750841D01*
X643988Y751143D01*
X645035Y751371D01*
X646096Y751524D01*
X647164Y751600D01*
X648236Y751600D01*
X649304Y751524D01*
X650365Y751371D01*
X651412Y751143D01*
X652440Y750841D01*
X653444Y750467D01*
X654419Y750022D01*
X655359Y749508D01*
X656260Y748929D01*
X657118Y748287D01*
X657928Y747585D01*
X658685Y746828D01*
X659387Y746018D01*
X660029Y745160D01*
X660608Y744259D01*
X661122Y743319D01*
X661567Y742344D01*
X661941Y741340D01*
X662243Y740312D01*
X662471Y739265D01*
X662624Y738204D01*
X662700Y737136D01*
X662700Y736064D01*
X815100Y418564D02*
X815024Y417496D01*
X814871Y416435D01*
X814643Y415388D01*
X814341Y414360D01*
X813967Y413356D01*
X813522Y412381D01*
X813008Y411441D01*
X812429Y410540D01*
X811787Y409682D01*
X811085Y408872D01*
X810328Y408115D01*
X809518Y407413D01*
X808660Y406771D01*
X807759Y406192D01*
X806819Y405678D01*
X805844Y405233D01*
X804840Y404859D01*
X803812Y404557D01*
X802765Y404329D01*
X801704Y404176D01*
X800636Y404100D01*
X799564Y404100D01*
X798496Y404176D01*
X797435Y404329D01*
X796388Y404557D01*
X795360Y404859D01*
X794356Y405233D01*
X793381Y405678D01*
X792441Y406192D01*
X791540Y406771D01*
X790682Y407413D01*
X789872Y408115D01*
X789115Y408872D01*
X788413Y409682D01*
X787771Y410540D01*
X787192Y411441D01*
X786678Y412381D01*
X786233Y413356D01*
X785859Y414360D01*
X785557Y415388D01*
X785329Y416435D01*
X785176Y417496D01*
X785100Y418564D01*
X785100Y419636D01*
X785176Y420704D01*
X785329Y421765D01*
X785557Y422812D01*
X785859Y423840D01*
X786233Y424844D01*
X786678Y425819D01*
X787192Y426759D01*
X787771Y427660D01*
X788413Y428518D01*
X789115Y429328D01*
X789872Y430085D01*
X790682Y430787D01*
X791540Y431429D01*
X792441Y432008D01*
X793381Y432522D01*
X794356Y432967D01*
X795360Y433341D01*
X796388Y433643D01*
X797435Y433871D01*
X798496Y434024D01*
X799564Y434100D01*
X800636Y434100D01*
X801704Y434024D01*
X802765Y433871D01*
X803812Y433643D01*
X804840Y433341D01*
X805844Y432967D01*
X806819Y432522D01*
X807759Y432008D01*
X808660Y431429D01*
X809518Y430787D01*
X810328Y430085D01*
X811085Y429328D01*
X811787Y428518D01*
X812429Y427660D01*
X813008Y426759D01*
X813522Y425819D01*
X813967Y424844D01*
X814341Y423840D01*
X814643Y422812D01*
X814871Y421765D01*
X815024Y420704D01*
X815100Y419636D01*
X815100Y418564D01*
M02*
