G04 EAGLE Gerber RS-274X export*
G75*
%MOMM*%
%FSLAX34Y34*%
%LPD*%
%INSoldermask Top*%
%IPPOS*%
%AMOC8*
5,1,8,0,0,1.08239X$1,22.5*%
G01*
%ADD10C,3.203200*%
%ADD11C,1.611200*%
%ADD12C,2.203200*%
%ADD13P,1.869504X8X22.500000*%
%ADD14C,1.727200*%
%ADD15C,1.625600*%


D10*
X1422400Y812800D03*
X1422400Y63500D03*
X279400Y63500D03*
X279400Y812800D03*
D11*
X139700Y762000D03*
X139700Y736600D03*
D12*
X88900Y711200D03*
X88900Y812800D03*
D11*
X139700Y596900D03*
X139700Y571500D03*
D12*
X88900Y546100D03*
X88900Y647700D03*
D11*
X139700Y431800D03*
X139700Y406400D03*
D12*
X88900Y381000D03*
X88900Y482600D03*
D11*
X139700Y266700D03*
X139700Y241300D03*
D12*
X88900Y215900D03*
X88900Y317500D03*
D11*
X139700Y101600D03*
X139700Y76200D03*
D12*
X88900Y50800D03*
X88900Y152400D03*
D13*
X1282700Y571500D03*
X1219200Y571500D03*
X1155700Y571500D03*
D14*
X838200Y589280D02*
X838200Y604520D01*
X812800Y604520D02*
X812800Y589280D01*
X787400Y589280D02*
X787400Y604520D01*
X762000Y604520D02*
X762000Y589280D01*
X736600Y589280D02*
X736600Y604520D01*
X711200Y604520D02*
X711200Y589280D01*
X685800Y589280D02*
X685800Y604520D01*
X660400Y604520D02*
X660400Y589280D01*
X635000Y589280D02*
X635000Y604520D01*
X609600Y604520D02*
X609600Y589280D01*
X584200Y589280D02*
X584200Y604520D01*
X558800Y604520D02*
X558800Y589280D01*
X533400Y589280D02*
X533400Y604520D01*
X508000Y604520D02*
X508000Y589280D01*
X482600Y589280D02*
X482600Y604520D01*
X457200Y604520D02*
X457200Y589280D01*
X431800Y589280D02*
X431800Y604520D01*
X406400Y604520D02*
X406400Y589280D01*
X381000Y589280D02*
X381000Y604520D01*
X355600Y604520D02*
X355600Y589280D01*
X330200Y589280D02*
X330200Y604520D01*
X304800Y604520D02*
X304800Y589280D01*
X279400Y589280D02*
X279400Y604520D01*
X254000Y604520D02*
X254000Y589280D01*
X254000Y452120D02*
X254000Y436880D01*
X279400Y436880D02*
X279400Y452120D01*
X304800Y452120D02*
X304800Y436880D01*
X330200Y436880D02*
X330200Y452120D01*
X355600Y452120D02*
X355600Y436880D01*
X381000Y436880D02*
X381000Y452120D01*
X406400Y452120D02*
X406400Y436880D01*
X431800Y436880D02*
X431800Y452120D01*
X457200Y452120D02*
X457200Y436880D01*
X482600Y436880D02*
X482600Y452120D01*
X508000Y452120D02*
X508000Y436880D01*
X533400Y436880D02*
X533400Y452120D01*
X558800Y452120D02*
X558800Y436880D01*
X584200Y436880D02*
X584200Y452120D01*
X609600Y452120D02*
X609600Y436880D01*
X635000Y436880D02*
X635000Y452120D01*
X660400Y452120D02*
X660400Y436880D01*
X685800Y436880D02*
X685800Y452120D01*
X711200Y452120D02*
X711200Y436880D01*
X736600Y436880D02*
X736600Y452120D01*
X762000Y452120D02*
X762000Y436880D01*
X787400Y436880D02*
X787400Y452120D01*
X812800Y452120D02*
X812800Y436880D01*
X838200Y436880D02*
X838200Y452120D01*
D15*
X1295400Y223012D02*
X1295400Y208788D01*
X1270000Y208788D02*
X1270000Y223012D01*
X1244600Y223012D02*
X1244600Y208788D01*
X1219200Y208788D02*
X1219200Y223012D01*
X1193800Y223012D02*
X1193800Y208788D01*
X1168400Y208788D02*
X1168400Y223012D01*
X1143000Y223012D02*
X1143000Y208788D01*
X1117600Y208788D02*
X1117600Y223012D01*
D14*
X1003300Y424180D02*
X1003300Y439420D01*
X1028700Y439420D02*
X1028700Y424180D01*
X1054100Y424180D02*
X1054100Y439420D01*
X1079500Y439420D02*
X1079500Y424180D01*
X1104900Y424180D02*
X1104900Y439420D01*
X1130300Y439420D02*
X1130300Y424180D01*
X1130300Y312420D02*
X1130300Y297180D01*
X1104900Y297180D02*
X1104900Y312420D01*
X1079500Y312420D02*
X1079500Y297180D01*
X1054100Y297180D02*
X1054100Y312420D01*
X1028700Y312420D02*
X1028700Y297180D01*
X1003300Y297180D02*
X1003300Y312420D01*
X1219200Y424180D02*
X1219200Y439420D01*
X1244600Y439420D02*
X1244600Y424180D01*
X1270000Y424180D02*
X1270000Y439420D01*
X1295400Y439420D02*
X1295400Y424180D01*
X1320800Y424180D02*
X1320800Y439420D01*
X1346200Y439420D02*
X1346200Y424180D01*
X1346200Y312420D02*
X1346200Y297180D01*
X1320800Y297180D02*
X1320800Y312420D01*
X1295400Y312420D02*
X1295400Y297180D01*
X1270000Y297180D02*
X1270000Y312420D01*
X1244600Y312420D02*
X1244600Y297180D01*
X1219200Y297180D02*
X1219200Y312420D01*
X825500Y223520D02*
X825500Y208280D01*
X850900Y208280D02*
X850900Y223520D01*
X876300Y223520D02*
X876300Y208280D01*
X901700Y208280D02*
X901700Y223520D01*
X927100Y223520D02*
X927100Y208280D01*
X952500Y208280D02*
X952500Y223520D01*
X533400Y223520D02*
X533400Y208280D01*
X558800Y208280D02*
X558800Y223520D01*
X584200Y223520D02*
X584200Y208280D01*
X609600Y208280D02*
X609600Y223520D01*
X635000Y223520D02*
X635000Y208280D01*
X660400Y208280D02*
X660400Y223520D01*
X254000Y223520D02*
X254000Y208280D01*
X279400Y208280D02*
X279400Y223520D01*
X304800Y223520D02*
X304800Y208280D01*
X330200Y208280D02*
X330200Y223520D01*
X355600Y223520D02*
X355600Y208280D01*
X381000Y208280D02*
X381000Y223520D01*
D13*
X977900Y571500D03*
X914400Y571500D03*
X1041400Y571500D03*
X1092200Y571500D03*
M02*
