ISO-10303-21;
HEADER;
FILE_DESCRIPTION (( 'STEP AP203' ),
    '1' );
FILE_NAME ('camera link left.STEP',
    '2019-12-12T17:13:25',
    ( '' ),
    ( '' ),
    'SwSTEP 2.0',
    'SolidWorks 2018',
    '' );
FILE_SCHEMA (( 'CONFIG_CONTROL_DESIGN' ));
ENDSEC;

DATA;
#1 = EDGE_LOOP ( 'NONE', ( #545, #875, #431, #806 ) ) ;
#2 = DIRECTION ( 'NONE',  ( -1.000000000000000000, 0.0000000000000000000, 0.0000000000000000000 ) ) ;
#3 = ORIENTED_EDGE ( 'NONE', *, *, #396, .T. ) ;
#4 = VERTEX_POINT ( 'NONE', #734 ) ;
#5 = AXIS2_PLACEMENT_3D ( 'NONE', #525, #445, #1030 ) ;
#6 = CARTESIAN_POINT ( 'NONE',  ( 29.69999999999999218, 0.0000000000000000000, 23.00000000000000000 ) ) ;
#7 = CARTESIAN_POINT ( 'NONE',  ( 20.40000000000000924, 0.0000000000000000000, 29.50000000000000000 ) ) ;
#8 = DIRECTION ( 'NONE',  ( 1.000000000000000000, 1.700709290173340409E-17, -0.0000000000000000000 ) ) ;
#9 = PRODUCT_DEFINITION_SHAPE ( 'NONE', 'NONE',  #1018 ) ;
#10 = DIRECTION ( 'NONE',  ( 1.261617073437677999E-16, 1.000000000000000000, -0.0000000000000000000 ) ) ;
#11 = EDGE_CURVE ( 'NONE', #1035, #678, #956, .T. ) ;
#12 = PERSON_AND_ORGANIZATION ( #400, #674 ) ;
#13 = DIRECTION ( 'NONE',  ( 0.0000000000000000000, 1.000000000000000000, 0.0000000000000000000 ) ) ;
#14 =( GEOMETRIC_REPRESENTATION_CONTEXT ( 3 ) GLOBAL_UNCERTAINTY_ASSIGNED_CONTEXT ( ( #66 ) ) GLOBAL_UNIT_ASSIGNED_CONTEXT ( ( #598, #359, #277 ) ) REPRESENTATION_CONTEXT ( 'NONE', 'WORKASPACE' ) );
#15 = CIRCLE ( 'NONE', #382, 2.000000000000000000 ) ;
#16 = DIRECTION ( 'NONE',  ( -1.000000000000000000, 0.0000000000000000000, -0.0000000000000000000 ) ) ;
#17 = FACE_OUTER_BOUND ( 'NONE', #64, .T. ) ;
#18 = VERTEX_POINT ( 'NONE', #818 ) ;
#19 = ORIENTED_EDGE ( 'NONE', *, *, #558, .F. ) ;
#20 = CARTESIAN_POINT ( 'NONE',  ( -7.000000000000002665, -12.00000000000000178, 38.00000000000000000 ) ) ;
#21 = EDGE_LOOP ( 'NONE', ( #1080, #192 ) ) ;
#22 = DIRECTION ( 'NONE',  ( 0.0000000000000000000, 1.000000000000000000, 0.0000000000000000000 ) ) ;
#23 = EDGE_CURVE ( 'NONE', #740, #1035, #137, .T. ) ;
#24 = ORIENTED_EDGE ( 'NONE', *, *, #263, .F. ) ;
#25 = AXIS2_PLACEMENT_3D ( 'NONE', #915, #676, #1005 ) ;
#26 = DIRECTION ( 'NONE',  ( 0.0000000000000000000, 0.0000000000000000000, -1.000000000000000000 ) ) ;
#27 = SECURITY_CLASSIFICATION_LEVEL ( 'unclassified' ) ;
#28 = DIRECTION ( 'NONE',  ( -0.0000000000000000000, 1.000000000000000000, -0.0000000000000000000 ) ) ;
#29 = LINE ( 'NONE', #433, #812 ) ;
#30 = AXIS2_PLACEMENT_3D ( 'NONE', #1017, #251, #589 ) ;
#31 = VECTOR ( 'NONE', #887, 1000.000000000000000 ) ;
#32 = CARTESIAN_POINT ( 'NONE',  ( 29.69999999999999929, -42.00000000000000000, 23.00000000000000000 ) ) ;
#33 = ORIENTED_EDGE ( 'NONE', *, *, #826, .F. ) ;
#34 = ORIENTED_EDGE ( 'NONE', *, *, #865, .T. ) ;
#35 = ORIENTED_EDGE ( 'NONE', *, *, #223, .F. ) ;
#36 = VERTEX_POINT ( 'NONE', #567 ) ;
#37 = CARTESIAN_POINT ( 'NONE',  ( 8.548926069425396059E-16, -10.60000000000000497, 8.000000000000000000 ) ) ;
#38 = CC_DESIGN_APPROVAL ( #264, ( #150 ) ) ;
#39 = DIRECTION ( 'NONE',  ( -1.000000000000000000, 0.0000000000000000000, 0.0000000000000000000 ) ) ;
#40 = CARTESIAN_POINT ( 'NONE',  ( 0.0000000000000000000, 0.0000000000000000000, -17.00000000000000000 ) ) ;
#41 = LOCAL_TIME ( 17, 13, 25.00000000000000000, #106 ) ;
#42 = LINE ( 'NONE', #626, #294 ) ;
#43 = AXIS2_PLACEMENT_3D ( 'NONE', #216, #464, #958 ) ;
#44 = FACE_BOUND ( 'NONE', #21, .T. ) ;
#45 = CARTESIAN_POINT ( 'NONE',  ( 8.673617379884035472E-16, -12.00000000000000178, 8.000000000000000000 ) ) ;
#46 = ORIENTED_EDGE ( 'NONE', *, *, #1031, .F. ) ;
#47 = EDGE_LOOP ( 'NONE', ( #712, #352 ) ) ;
#48 = ORIENTED_EDGE ( 'NONE', *, *, #782, .F. ) ;
#49 = DIRECTION ( 'NONE',  ( -0.0000000000000000000, 1.000000000000000000, -0.0000000000000000000 ) ) ;
#50 = ORIENTED_EDGE ( 'NONE', *, *, #1053, .F. ) ;
#51 = CARTESIAN_POINT ( 'NONE',  ( -7.000000000000001776, -36.00000000000000000, 2.000000000000001776 ) ) ;
#52 = EDGE_CURVE ( 'NONE', #652, #530, #664, .T. ) ;
#53 = CARTESIAN_POINT ( 'NONE',  ( 2.000000000000000000, -2.000000000000001776, 46.00000000000000000 ) ) ;
#54 = CC_DESIGN_APPROVAL ( #906, ( #61 ) ) ;
#55 = CARTESIAN_POINT ( 'NONE',  ( 4.000000000000000888, -38.00000000000000000, 2.000000000000001776 ) ) ;
#56 = PERSON_AND_ORGANIZATION ( #400, #674 ) ;
#57 = CIRCLE ( 'NONE', #322, 1.399999999999995026 ) ;
#58 = DIRECTION ( 'NONE',  ( 1.261617073437677999E-16, 1.000000000000000000, -0.0000000000000000000 ) ) ;
#59 = LINE ( 'NONE', #471, #374 ) ;
#60 = FACE_OUTER_BOUND ( 'NONE', #508, .T. ) ;
#61 = PRODUCT_DEFINITION_FORMATION_WITH_SPECIFIED_SOURCE ( 'ANY', '', #931, .NOT_KNOWN. ) ;
#62 = ORIENTED_EDGE ( 'NONE', *, *, #364, .T. ) ;
#63 = ADVANCED_FACE ( 'NONE', ( #1010 ), #886, .F. ) ;
#64 = EDGE_LOOP ( 'NONE', ( #592, #154, #916, #1000, #127, #639 ) ) ;
#65 = ORIENTED_EDGE ( 'NONE', *, *, #509, .T. ) ;
#66 = UNCERTAINTY_MEASURE_WITH_UNIT (LENGTH_MEASURE( 1.000000000000000082E-05 ), #598, 'distance_accuracy_value', 'NONE');
#67 = DIRECTION ( 'NONE',  ( 1.000000000000000000, 0.0000000000000000000, 0.0000000000000000000 ) ) ;
#68 = DIRECTION ( 'NONE',  ( 1.000000000000000000, 1.700709290173340409E-17, 0.0000000000000000000 ) ) ;
#69 = ADVANCED_FACE ( 'NONE', ( #830 ), #218, .F. ) ;
#70 = PERSON_AND_ORGANIZATION ( #400, #674 ) ;
#71 = VECTOR ( 'NONE', #1042, 1000.000000000000000 ) ;
#72 = VECTOR ( 'NONE', #341, 1000.000000000000000 ) ;
#73 = EDGE_CURVE ( 'NONE', #430, #999, #858, .T. ) ;
#74 = ORIENTED_EDGE ( 'NONE', *, *, #1025, .F. ) ;
#75 = CARTESIAN_POINT ( 'NONE',  ( 37.60909824161262804, -3.999999999999997335, 44.00000000000000000 ) ) ;
#76 = EDGE_LOOP ( 'NONE', ( #481, #653 ) ) ;
#77 = CC_DESIGN_APPROVAL ( #1039, ( #1018 ) ) ;
#78 = DIRECTION ( 'NONE',  ( 0.0000000000000000000, 0.0000000000000000000, -1.000000000000000000 ) ) ;
#79 = ORIENTED_EDGE ( 'NONE', *, *, #965, .F. ) ;
#80 = EDGE_LOOP ( 'NONE', ( #459, #1012, #273, #48 ) ) ;
#81 = ADVANCED_BREP_SHAPE_REPRESENTATION ( 'camera link left', ( #1079, #1004 ), #14 ) ;
#82 = DIRECTION ( 'NONE',  ( -1.000000000000000000, -1.700709290173340409E-17, -0.0000000000000000000 ) ) ;
#83 = CARTESIAN_POINT ( 'NONE',  ( 21.80000000000001137, -42.00000000000000000, 16.50000000000000000 ) ) ;
#84 = DIRECTION ( 'NONE',  ( 1.000000000000000000, 1.700709290173340409E-17, -0.0000000000000000000 ) ) ;
#85 = AXIS2_PLACEMENT_3D ( 'NONE', #181, #524, #852 ) ;
#86 = CYLINDRICAL_SURFACE ( 'NONE', #1044, 1.399999999999995026 ) ;
#87 = DIRECTION ( 'NONE',  ( 0.0000000000000000000, 1.000000000000000000, 0.0000000000000000000 ) ) ;
#88 = CYLINDRICAL_SURFACE ( 'NONE', #755, 2.000000000000000000 ) ;
#89 = ORIENTED_EDGE ( 'NONE', *, *, #705, .F. ) ;
#90 = ORIENTED_EDGE ( 'NONE', *, *, #924, .T. ) ;
#91 = VERTEX_POINT ( 'NONE', #144 ) ;
#92 = DIRECTION ( 'NONE',  ( -0.0000000000000000000, 1.000000000000000000, -0.0000000000000000000 ) ) ;
#93 = CARTESIAN_POINT ( 'NONE',  ( 4.000000000000000000, -10.60000000000000497, 38.00000000000000000 ) ) ;
#94 = CARTESIAN_POINT ( 'NONE',  ( -7.000000000000001776, -30.60000000000000497, 8.000000000000007105 ) ) ;
#95 = DIRECTION ( 'NONE',  ( -1.000000000000000000, -8.906522175617109500E-18, 0.0000000000000000000 ) ) ;
#96 = LINE ( 'NONE', #731, #515 ) ;
#97 = VECTOR ( 'NONE', #921, 1000.000000000000000 ) ;
#98 = CARTESIAN_POINT ( 'NONE',  ( 21.80000000000001137, -42.00000000000000000, 29.50000000000000000 ) ) ;
#99 = VERTEX_POINT ( 'NONE', #496 ) ;
#100 = ORIENTED_EDGE ( 'NONE', *, *, #805, .F. ) ;
#101 = AXIS2_PLACEMENT_3D ( 'NONE', #803, #308, #895 ) ;
#102 = ORIENTED_EDGE ( 'NONE', *, *, #142, .T. ) ;
#103 = DIRECTION ( 'NONE',  ( -1.000000000000000000, -8.906522175617109500E-18, 0.0000000000000000000 ) ) ;
#104 = CARTESIAN_POINT ( 'NONE',  ( -7.000000000000001776, -32.00000000000000000, 8.000000000000007105 ) ) ;
#105 = EDGE_CURVE ( 'NONE', #530, #667, #414, .T. ) ;
#106 = COORDINATED_UNIVERSAL_TIME_OFFSET ( 0, 0, .AHEAD. ) ;
#107 = CARTESIAN_POINT ( 'NONE',  ( 8.673617379884035472E-16, -32.00000000000000000, 8.000000000000007105 ) ) ;
#108 = VECTOR ( 'NONE', #655, 1000.000000000000000 ) ;
#109 = CYLINDRICAL_SURFACE ( 'NONE', #693, 2.000000000000000000 ) ;
#110 = EDGE_LOOP ( 'NONE', ( #74, #637, #971, #779 ) ) ;
#111 = ORIENTED_EDGE ( 'NONE', *, *, #447, .T. ) ;
#112 = DIRECTION ( 'NONE',  ( 1.000000000000000000, -1.261617073437677999E-16, 0.0000000000000000000 ) ) ;
#113 = ORIENTED_EDGE ( 'NONE', *, *, #778, .F. ) ;
#114 = PERSON_AND_ORGANIZATION_ROLE ( 'design_supplier' ) ;
#115 = EDGE_CURVE ( 'NONE', #248, #125, #479, .T. ) ;
#116 = ORIENTED_EDGE ( 'NONE', *, *, #857, .T. ) ;
#117 = DIRECTION ( 'NONE',  ( -0.0000000000000000000, 1.000000000000000000, -0.0000000000000000000 ) ) ;
#118 = APPLICATION_CONTEXT ( 'configuration controlled 3d designs of mechanical parts and assemblies' ) ;
#119 = CARTESIAN_POINT ( 'NONE',  ( 8.798308690342673899E-16, -13.39999999999999858, 8.000000000000000000 ) ) ;
#120 = CIRCLE ( 'NONE', #790, 1.399999999999995026 ) ;
#121 = AXIS2_PLACEMENT_3D ( 'NONE', #225, #719, #384 ) ;
#122 = FACE_OUTER_BOUND ( 'NONE', #302, .T. ) ;
#123 = DIRECTION ( 'NONE',  ( 0.0000000000000000000, -1.000000000000000000, 0.0000000000000000000 ) ) ;
#124 = FACE_BOUND ( 'NONE', #76, .T. ) ;
#125 = VERTEX_POINT ( 'NONE', #575 ) ;
#126 = DIRECTION ( 'NONE',  ( 0.0000000000000000000, 0.0000000000000000000, 1.000000000000000000 ) ) ;
#127 = ORIENTED_EDGE ( 'NONE', *, *, #227, .T. ) ;
#128 = ORIENTED_EDGE ( 'NONE', *, *, #73, .F. ) ;
#129 = ORIENTED_EDGE ( 'NONE', *, *, #1077, .T. ) ;
#130 = EDGE_CURVE ( 'NONE', #678, #365, #634, .T. ) ;
#131 = CC_DESIGN_PERSON_AND_ORGANIZATION_ASSIGNMENT ( #825, #458, ( #1018 ) ) ;
#132 = ADVANCED_FACE ( 'NONE', ( #1062 ), #775, .F. ) ;
#133 = CARTESIAN_POINT ( 'NONE',  ( 15.30000000000000071, -3.999999999999994227, 23.00000000000000000 ) ) ;
#134 = LINE ( 'NONE', #724, #720 ) ;
#135 = AXIS2_PLACEMENT_3D ( 'NONE', #304, #642, #974 ) ;
#136 = FACE_OUTER_BOUND ( 'NONE', #407, .T. ) ;
#137 = CIRCLE ( 'NONE', #611, 2.000000000000000000 ) ;
#138 = ORIENTED_EDGE ( 'NONE', *, *, #392, .F. ) ;
#139 = VERTEX_POINT ( 'NONE', #247 ) ;
#140 = CARTESIAN_POINT ( 'NONE',  ( 15.30000000000000071, 0.0000000000000000000, 23.00000000000000000 ) ) ;
#141 = ORIENTED_EDGE ( 'NONE', *, *, #841, .F. ) ;
#142 = EDGE_CURVE ( 'NONE', #457, #1021, #389, .T. ) ;
#143 = DIRECTION ( 'NONE',  ( 1.261617073437677999E-16, 1.000000000000000000, -0.0000000000000000000 ) ) ;
#144 = CARTESIAN_POINT ( 'NONE',  ( 8.798308690342673899E-16, -33.39999999999999858, 37.99999999999999289 ) ) ;
#145 = DIRECTION ( 'NONE',  ( -0.0000000000000000000, 1.000000000000000000, -0.0000000000000000000 ) ) ;
#146 = CIRCLE ( 'NONE', #25, 1.399999999999998579 ) ;
#147 = ADVANCED_FACE ( 'NONE', ( #60 ), #1091, .F. ) ;
#148 = VECTOR ( 'NONE', #318, 1000.000000000000000 ) ;
#149 = FACE_OUTER_BOUND ( 'NONE', #339, .T. ) ;
#150 = SECURITY_CLASSIFICATION ( '', '', #27 ) ;
#151 = CARTESIAN_POINT ( 'NONE',  ( 13.90000000000000213, 0.0000000000000000000, 23.00000000000000000 ) ) ;
#152 = VERTEX_POINT ( 'NONE', #402 ) ;
#153 = ORIENTED_EDGE ( 'NONE', *, *, #278, .T. ) ;
#154 = ORIENTED_EDGE ( 'NONE', *, *, #1025, .T. ) ;
#155 = DIRECTION ( 'NONE',  ( 0.0000000000000000000, 1.000000000000000000, 0.0000000000000000000 ) ) ;
#156 = ORIENTED_EDGE ( 'NONE', *, *, #663, .T. ) ;
#157 = CARTESIAN_POINT ( 'NONE',  ( 21.80000000000000426, -3.999999999999994671, 29.50000000000000000 ) ) ;
#158 = DIRECTION ( 'NONE',  ( 1.000000000000000000, 0.0000000000000000000, 0.0000000000000000000 ) ) ;
#159 = LINE ( 'NONE', #673, #200 ) ;
#160 = DIRECTION ( 'NONE',  ( 8.906522175617050951E-18, -1.000000000000000000, 0.0000000000000000000 ) ) ;
#161 = CYLINDRICAL_SURFACE ( 'NONE', #546, 1.399999999999995026 ) ;
#162 = EDGE_CURVE ( 'NONE', #36, #947, #268, .T. ) ;
#163 = VECTOR ( 'NONE', #82, 1000.000000000000000 ) ;
#164 = CARTESIAN_POINT ( 'NONE',  ( 39.60909824161262804, -3.999999999999997335, 44.00000000000000000 ) ) ;
#165 = EDGE_LOOP ( 'NONE', ( #831, #367 ) ) ;
#166 = PLANE ( 'NONE',  #366 ) ;
#167 = EDGE_LOOP ( 'NONE', ( #282, #787 ) ) ;
#168 = VERTEX_POINT ( 'NONE', #6 ) ;
#169 = CARTESIAN_POINT ( 'NONE',  ( 4.000000000000000888, -32.00000000000000000, 8.000000000000007105 ) ) ;
#170 = CARTESIAN_POINT ( 'NONE',  ( 0.0000000000000000000, 0.0000000000000000000, 46.00000000000000000 ) ) ;
#171 = DIRECTION ( 'NONE',  ( -0.0000000000000000000, 1.000000000000000000, -0.0000000000000000000 ) ) ;
#172 = CYLINDRICAL_SURFACE ( 'NONE', #919, 1.399999999999996803 ) ;
#173 = CARTESIAN_POINT ( 'NONE',  ( 21.80000000000000426, -3.999999999999994671, 16.50000000000000000 ) ) ;
#174 = CIRCLE ( 'NONE', #751, 1.399999999999996803 ) ;
#175 = CYLINDRICAL_SURFACE ( 'NONE', #43, 1.399999999999998579 ) ;
#176 = ORIENTED_EDGE ( 'NONE', *, *, #841, .T. ) ;
#177 = AXIS2_PLACEMENT_3D ( 'NONE', #488, #553, #478 ) ;
#178 = ORIENTED_EDGE ( 'NONE', *, *, #198, .F. ) ;
#179 = CARTESIAN_POINT ( 'NONE',  ( 59.00000000000000000, -4.000000000000000000, 46.00000000000000000 ) ) ;
#180 = EDGE_LOOP ( 'NONE', ( #311, #116, #889, #968 ) ) ;
#181 = CARTESIAN_POINT ( 'NONE',  ( 37.60909824161262804, -3.999999999999997335, 2.000000000000001776 ) ) ;
#182 = EDGE_LOOP ( 'NONE', ( #328, #543 ) ) ;
#183 = PLANE ( 'NONE',  #991 ) ;
#184 = CARTESIAN_POINT ( 'NONE',  ( 0.0000000000000000000, 0.0000000000000000000, 0.0000000000000000000 ) ) ;
#185 = EDGE_CURVE ( 'NONE', #18, #432, #870, .T. ) ;
#186 = LOCAL_TIME ( 17, 13, 25.00000000000000000, #335 ) ;
#187 = CARTESIAN_POINT ( 'NONE',  ( 4.000000000000000000, -5.999999999999992895, 0.0000000000000000000 ) ) ;
#188 = CIRCLE ( 'NONE', #1102, 1.399999999999998579 ) ;
#189 = LINE ( 'NONE', #281, #71 ) ;
#190 = VECTOR ( 'NONE', #822, 1000.000000000000000 ) ;
#191 = EDGE_CURVE ( 'NONE', #1068, #999, #217, .T. ) ;
#192 = ORIENTED_EDGE ( 'NONE', *, *, #1031, .T. ) ;
#193 = VERTEX_POINT ( 'NONE', #415 ) ;
#194 = AXIS2_PLACEMENT_3D ( 'NONE', #45, #1051, #388 ) ;
#195 = ORIENTED_EDGE ( 'NONE', *, *, #599, .T. ) ;
#196 = DIRECTION ( 'NONE',  ( -0.0000000000000000000, -1.000000000000000000, -0.0000000000000000000 ) ) ;
#197 = PERSON_AND_ORGANIZATION_ROLE ( 'creator' ) ;
#198 = EDGE_CURVE ( 'NONE', #1021, #652, #565, .T. ) ;
#199 = DIRECTION ( 'NONE',  ( 0.0000000000000000000, 0.0000000000000000000, -1.000000000000000000 ) ) ;
#200 = VECTOR ( 'NONE', #422, 1000.000000000000000 ) ;
#201 = FACE_OUTER_BOUND ( 'NONE', #749, .T. ) ;
#202 = LINE ( 'NONE', #514, #785 ) ;
#203 = VERTEX_POINT ( 'NONE', #427 ) ;
#204 = CARTESIAN_POINT ( 'NONE',  ( 26.90000000000000213, -3.999999999999995559, 23.00000000000000000 ) ) ;
#205 = VERTEX_POINT ( 'NONE', #510 ) ;
#206 = EDGE_CURVE ( 'NONE', #667, #932, #295, .T. ) ;
#207 = ORIENTED_EDGE ( 'NONE', *, *, #805, .T. ) ;
#208 = DIRECTION ( 'NONE',  ( 1.000000000000000000, 1.700709290173340409E-17, 0.0000000000000000000 ) ) ;
#209 = CC_DESIGN_PERSON_AND_ORGANIZATION_ASSIGNMENT ( #12, #535, ( #150 ) ) ;
#210 = CARTESIAN_POINT ( 'NONE',  ( 8.548926069425396059E-16, -30.60000000000000497, 37.99999999999999289 ) ) ;
#211 = DIRECTION ( 'NONE',  ( 0.0000000000000000000, -0.0000000000000000000, -1.000000000000000000 ) ) ;
#212 = APPROVAL_DATE_TIME ( #449, #906 ) ;
#213 = AXIS2_PLACEMENT_3D ( 'NONE', #979, #1058, #307 ) ;
#214 = CARTESIAN_POINT ( 'NONE',  ( 4.000000000000000000, -3.999999999999993339, 46.00000000000000000 ) ) ;
#215 = LINE ( 'NONE', #578, #503 ) ;
#216 = CARTESIAN_POINT ( 'NONE',  ( 15.30000000000000604, -42.00000000000000000, 23.00000000000000000 ) ) ;
#217 = CIRCLE ( 'NONE', #30, 1.399999999999996803 ) ;
#218 = CYLINDRICAL_SURFACE ( 'NONE', #1071, 1.399999999999996803 ) ;
#219 = DIRECTION ( 'NONE',  ( 0.0000000000000000000, 0.0000000000000000000, -1.000000000000000000 ) ) ;
#220 = ORIENTED_EDGE ( 'NONE', *, *, #342, .T. ) ;
#221 = ORIENTED_EDGE ( 'NONE', *, *, #52, .F. ) ;
#222 = EDGE_LOOP ( 'NONE', ( #847, #531 ) ) ;
#223 = EDGE_CURVE ( 'NONE', #259, #203, #375, .T. ) ;
#224 = CARTESIAN_POINT ( 'NONE',  ( 21.80000000000000426, 0.0000000000000000000, 16.50000000000000000 ) ) ;
#225 = CARTESIAN_POINT ( 'NONE',  ( 3.206347983222158865E-16, -36.00000000000000000, 44.00000000000000000 ) ) ;
#226 = COORDINATED_UNIVERSAL_TIME_OFFSET ( 0, 0, .AHEAD. ) ;
#227 = EDGE_CURVE ( 'NONE', #125, #152, #650, .T. ) ;
#228 = CIRCLE ( 'NONE', #177, 2.000000000000001776 ) ;
#229 = VECTOR ( 'NONE', #208, 1000.000000000000000 ) ;
#230 = DIRECTION ( 'NONE',  ( 0.0000000000000000000, 1.000000000000000000, 0.0000000000000000000 ) ) ;
#231 = VERTEX_POINT ( 'NONE', #93 ) ;
#232 = CARTESIAN_POINT ( 'NONE',  ( 6.122553444624024981E-16, -36.00000000000000000, 0.0000000000000000000 ) ) ;
#233 = ORIENTED_EDGE ( 'NONE', *, *, #130, .F. ) ;
#234 = CARTESIAN_POINT ( 'NONE',  ( 4.000000000000000888, -32.00000000000000000, 37.99999999999999289 ) ) ;
#235 = VERTEX_POINT ( 'NONE', #343 ) ;
#236 = CARTESIAN_POINT ( 'NONE',  ( -7.000000000000001776, -38.00000000000000000, 2.000000000000001776 ) ) ;
#237 = CARTESIAN_POINT ( 'NONE',  ( 4.000000000000000888, -33.39999999999999858, 37.99999999999999289 ) ) ;
#238 = DIRECTION ( 'NONE',  ( 0.0000000000000000000, 1.000000000000000000, 0.0000000000000000000 ) ) ;
#239 = PERSON_AND_ORGANIZATION ( #400, #674 ) ;
#240 = CIRCLE ( 'NONE', #891, 1.399999999999995026 ) ;
#241 = EDGE_CURVE ( 'NONE', #1023, #139, #429, .T. ) ;
#242 = CIRCLE ( 'NONE', #1001, 1.399999999999996803 ) ;
#243 = CARTESIAN_POINT ( 'NONE',  ( 8.673617379884035472E-16, -32.00000000000000000, 37.99999999999999289 ) ) ;
#244 = ORIENTED_EDGE ( 'NONE', *, *, #778, .T. ) ;
#245 = VERTEX_POINT ( 'NONE', #843 ) ;
#246 = ORIENTED_EDGE ( 'NONE', *, *, #410, .T. ) ;
#247 = CARTESIAN_POINT ( 'NONE',  ( 1.781304435123422208E-17, -2.000000000000001776, 46.00000000000000000 ) ) ;
#248 = VERTEX_POINT ( 'NONE', #164 ) ;
#249 = DIRECTION ( 'NONE',  ( 0.0000000000000000000, 1.000000000000000000, 0.0000000000000000000 ) ) ;
#250 = EDGE_CURVE ( 'NONE', #231, #905, #242, .T. ) ;
#251 = DIRECTION ( 'NONE',  ( -1.000000000000000000, -1.700709290173340101E-17, -0.0000000000000000000 ) ) ;
#252 = AXIS2_PLACEMENT_3D ( 'NONE', #706, #536, #633 ) ;
#253 = CARTESIAN_POINT ( 'NONE',  ( 4.000000000000000888, -30.60000000000000497, 37.99999999999999289 ) ) ;
#254 = DIRECTION ( 'NONE',  ( -1.000000000000000000, -1.700709290173340101E-17, -0.0000000000000000000 ) ) ;
#255 = CIRCLE ( 'NONE', #601, 1.399999999999996803 ) ;
#256 = AXIS2_PLACEMENT_3D ( 'NONE', #1098, #95, #1016 ) ;
#257 = EDGE_LOOP ( 'NONE', ( #297, #1078, #351, #944, #713, #506, #233, #65 ) ) ;
#258 = DIRECTION ( 'NONE',  ( 1.000000000000000000, 1.700709290173340409E-17, -0.0000000000000000000 ) ) ;
#259 = VERTEX_POINT ( 'NONE', #1100 ) ;
#260 = ORIENTED_EDGE ( 'NONE', *, *, #418, .F. ) ;
#261 = CARTESIAN_POINT ( 'NONE',  ( -7.000000000000001776, -33.39999999999999858, 8.000000000000007105 ) ) ;
#262 = CARTESIAN_POINT ( 'NONE',  ( 21.80000000000000426, -3.999999999999994671, 16.50000000000000000 ) ) ;
#263 = EDGE_CURVE ( 'NONE', #1094, #905, #1090, .T. ) ;
#264 = APPROVAL ( #776, 'UNSPECIFIED' ) ;
#265 = DIRECTION ( 'NONE',  ( 1.000000000000000000, 1.700709290173340409E-17, -0.0000000000000000000 ) ) ;
#266 = APPROVAL_DATE_TIME ( #629, #1039 ) ;
#267 = DIRECTION ( 'NONE',  ( -1.000000000000000000, -8.906522175617109500E-18, 0.0000000000000000000 ) ) ;
#268 = LINE ( 'NONE', #261, #773 ) ;
#269 = ORIENTED_EDGE ( 'NONE', *, *, #396, .F. ) ;
#270 = AXIS2_PLACEMENT_3D ( 'NONE', #133, #468, #973 ) ;
#271 = ORIENTED_EDGE ( 'NONE', *, *, #466, .T. ) ;
#272 = CARTESIAN_POINT ( 'NONE',  ( 59.00000000000000000, -4.000000000000000000, 46.00000000000000000 ) ) ;
#273 = ORIENTED_EDGE ( 'NONE', *, *, #371, .F. ) ;
#274 = DIRECTION ( 'NONE',  ( 1.000000000000000000, 1.700709290173340409E-17, -0.0000000000000000000 ) ) ;
#275 = VERTEX_POINT ( 'NONE', #583 ) ;
#276 = CARTESIAN_POINT ( 'NONE',  ( 4.000000000000000888, -35.99999999999999289, 46.00000000000000000 ) ) ;
#277 =( NAMED_UNIT ( * ) SI_UNIT ( $, .STERADIAN. ) SOLID_ANGLE_UNIT ( ) );
#278 = EDGE_CURVE ( 'NONE', #1023, #4, #1061, .T. ) ;
#279 = CARTESIAN_POINT ( 'NONE',  ( 8.673617379884035472E-16, -12.00000000000000178, 38.00000000000000000 ) ) ;
#280 = FACE_BOUND ( 'NONE', #699, .T. ) ;
#281 = CARTESIAN_POINT ( 'NONE',  ( -7.000000000000001776, -30.60000000000000497, 37.99999999999999289 ) ) ;
#282 = ORIENTED_EDGE ( 'NONE', *, *, #955, .F. ) ;
#283 = APPROVAL_STATUS ( 'not_yet_approved' ) ;
#284 = EDGE_CURVE ( 'NONE', #432, #203, #996, .T. ) ;
#285 = VERTEX_POINT ( 'NONE', #253 ) ;
#286 = ORIENTED_EDGE ( 'NONE', *, *, #250, .T. ) ;
#287 = ORIENTED_EDGE ( 'NONE', *, *, #631, .F. ) ;
#288 = CARTESIAN_POINT ( 'NONE',  ( 4.898587196589409870E-16, -55.00000000000000000, 0.0000000000000000000 ) ) ;
#289 = APPLICATION_PROTOCOL_DEFINITION ( 'international standard', 'config_control_design', 1994, #879 ) ;
#290 = AXIS2_PLACEMENT_3D ( 'NONE', #613, #58, #717 ) ;
#291 = PLANE ( 'NONE',  #807 ) ;
#292 = APPROVAL_DATE_TIME ( #938, #264 ) ;
#293 = APPROVAL_ROLE ( '' ) ;
#294 = VECTOR ( 'NONE', #549, 1000.000000000000000 ) ;
#295 = LINE ( 'NONE', #758, #72 ) ;
#296 = PLANE ( 'NONE',  #252 ) ;
#297 = ORIENTED_EDGE ( 'NONE', *, *, #227, .F. ) ;
#298 = ORIENTED_EDGE ( 'NONE', *, *, #880, .F. ) ;
#299 = EDGE_CURVE ( 'NONE', #1094, #446, #1104, .T. ) ;
#300 = ADVANCED_FACE ( 'NONE', ( #348, #403, #325, #964, #124 ), #754, .T. ) ;
#301 = ORIENTED_EDGE ( 'NONE', *, *, #767, .T. ) ;
#302 = EDGE_LOOP ( 'NONE', ( #100, #287, #3, #789 ) ) ;
#303 = DIRECTION ( 'NONE',  ( -1.261617073437677999E-16, 1.000000000000000000, -0.0000000000000000000 ) ) ;
#304 = CARTESIAN_POINT ( 'NONE',  ( 4.000000000000000888, -36.00000000000000000, 2.000000000000001776 ) ) ;
#305 = EDGE_CURVE ( 'NONE', #1002, #248, #202, .T. ) ;
#306 = AXIS2_PLACEMENT_3D ( 'NONE', #20, #8, #13 ) ;
#307 = DIRECTION ( 'NONE',  ( -1.000000000000000000, 0.0000000000000000000, 0.0000000000000000000 ) ) ;
#308 = DIRECTION ( 'NONE',  ( 1.000000000000000000, 1.700709290173340101E-17, 0.0000000000000000000 ) ) ;
#309 = CIRCLE ( 'NONE', #290, 1.399999999999995026 ) ;
#310 = ADVANCED_FACE ( 'NONE', ( #588 ), #1076, .F. ) ;
#311 = ORIENTED_EDGE ( 'NONE', *, *, #185, .F. ) ;
#312 = CARTESIAN_POINT ( 'NONE',  ( 5.999999999999998224, -5.999999999999992895, 46.00000000000000000 ) ) ;
#313 = ORIENTED_EDGE ( 'NONE', *, *, #880, .T. ) ;
#314 = ORIENTED_EDGE ( 'NONE', *, *, #949, .F. ) ;
#315 = EDGE_CURVE ( 'NONE', #679, #430, #828, .T. ) ;
#316 = ADVANCED_FACE ( 'NONE', ( #942 ), #577, .F. ) ;
#317 = DIRECTION ( 'NONE',  ( 1.000000000000000000, 0.0000000000000000000, 0.0000000000000000000 ) ) ;
#318 = DIRECTION ( 'NONE',  ( 0.0000000000000000000, 0.0000000000000000000, -1.000000000000000000 ) ) ;
#319 = AXIS2_PLACEMENT_3D ( 'NONE', #833, #423, #502 ) ;
#320 = DIRECTION ( 'NONE',  ( 0.0000000000000000000, 1.000000000000000000, 0.0000000000000000000 ) ) ;
#321 = ADVANCED_FACE ( 'NONE', ( #149 ), #161, .F. ) ;
#322 = AXIS2_PLACEMENT_3D ( 'NONE', #262, #345, #442 ) ;
#323 = FACE_OUTER_BOUND ( 'NONE', #752, .T. ) ;
#324 = CARTESIAN_POINT ( 'NONE',  ( 13.90000000000000213, -3.999999999999994227, 23.00000000000000000 ) ) ;
#325 = FACE_OUTER_BOUND ( 'NONE', #762, .T. ) ;
#326 = ORIENTED_EDGE ( 'NONE', *, *, #371, .T. ) ;
#327 = CARTESIAN_POINT ( 'NONE',  ( 5.999999999999998224, -5.999999999999992895, 0.0000000000000000000 ) ) ;
#328 = ORIENTED_EDGE ( 'NONE', *, *, #191, .T. ) ;
#329 = ORIENTED_EDGE ( 'NONE', *, *, #501, .F. ) ;
#330 = ORIENTED_EDGE ( 'NONE', *, *, #782, .T. ) ;
#331 = DIRECTION ( 'NONE',  ( 1.700709290173340101E-17, -1.000000000000000000, 0.0000000000000000000 ) ) ;
#332 = AXIS2_PLACEMENT_3D ( 'NONE', #279, #943, #435 ) ;
#333 = DIRECTION ( 'NONE',  ( -1.000000000000000000, 0.0000000000000000000, 0.0000000000000000000 ) ) ;
#334 = DIRECTION ( 'NONE',  ( -1.000000000000000000, 0.0000000000000000000, 0.0000000000000000000 ) ) ;
#335 = COORDINATED_UNIVERSAL_TIME_OFFSET ( 0, 0, .AHEAD. ) ;
#336 = EDGE_CURVE ( 'NONE', #152, #740, #539, .T. ) ;
#337 = CIRCLE ( 'NONE', #270, 1.399999999999998579 ) ;
#338 = VECTOR ( 'NONE', #331, 1000.000000000000000 ) ;
#339 = EDGE_LOOP ( 'NONE', ( #46, #246, #469, #298 ) ) ;
#340 = ORIENTED_EDGE ( 'NONE', *, *, #342, .F. ) ;
#341 = DIRECTION ( 'NONE',  ( -1.000000000000000000, -1.700709290173340409E-17, -0.0000000000000000000 ) ) ;
#342 = EDGE_CURVE ( 'NONE', #788, #947, #516, .T. ) ;
#343 = CARTESIAN_POINT ( 'NONE',  ( 2.000000000000000000, 0.0000000000000000000, 0.0000000000000000000 ) ) ;
#344 = LINE ( 'NONE', #412, #838 ) ;
#345 = DIRECTION ( 'NONE',  ( 1.261617073437677999E-16, 1.000000000000000000, -0.0000000000000000000 ) ) ;
#346 = CIRCLE ( 'NONE', #497, 1.399999999999995026 ) ;
#347 = AXIS2_PLACEMENT_3D ( 'NONE', #372, #123, #704 ) ;
#348 = FACE_BOUND ( 'NONE', #222, .T. ) ;
#349 = DIRECTION ( 'NONE',  ( -1.261617073437677999E-16, 1.000000000000000000, -0.0000000000000000000 ) ) ;
#350 = VERTEX_POINT ( 'NONE', #597 ) ;
#351 = ORIENTED_EDGE ( 'NONE', *, *, #278, .F. ) ;
#352 = ORIENTED_EDGE ( 'NONE', *, *, #689, .T. ) ;
#353 = DIRECTION ( 'NONE',  ( 0.0000000000000000000, -0.0000000000000000000, -1.000000000000000000 ) ) ;
#354 = ORIENTED_EDGE ( 'NONE', *, *, #631, .T. ) ;
#355 = DIRECTION ( 'NONE',  ( -1.261617073437677999E-16, 1.000000000000000000, -0.0000000000000000000 ) ) ;
#356 = EDGE_CURVE ( 'NONE', #168, #99, #677, .T. ) ;
#357 = DIRECTION ( 'NONE',  ( 1.000000000000000000, 8.906522175617109500E-18, -0.0000000000000000000 ) ) ;
#358 = CC_DESIGN_PERSON_AND_ORGANIZATION_ASSIGNMENT ( #239, #114, ( #61 ) ) ;
#359 =( NAMED_UNIT ( * ) PLANE_ANGLE_UNIT ( ) SI_UNIT ( $, .RADIAN. ) );
#360 = APPROVAL_PERSON_ORGANIZATION ( #600, #1039, #951 ) ;
#361 = CARTESIAN_POINT ( 'NONE',  ( 37.60909824161262804, -3.999999999999997335, 0.0000000000000000000 ) ) ;
#362 = FACE_OUTER_BOUND ( 'NONE', #983, .T. ) ;
#363 = FACE_OUTER_BOUND ( 'NONE', #493, .T. ) ;
#364 = EDGE_CURVE ( 'NONE', #1035, #457, #708, .T. ) ;
#365 = VERTEX_POINT ( 'NONE', #276 ) ;
#366 = AXIS2_PLACEMENT_3D ( 'NONE', #585, #16, #766 ) ;
#367 = ORIENTED_EDGE ( 'NONE', *, *, #489, .F. ) ;
#368 = VERTEX_POINT ( 'NONE', #361 ) ;
#369 = ORIENTED_EDGE ( 'NONE', *, *, #1084, .T. ) ;
#370 = DIRECTION ( 'NONE',  ( -8.906522175617109500E-18, 1.000000000000000000, 0.0000000000000000000 ) ) ;
#371 = EDGE_CURVE ( 'NONE', #193, #235, #492, .T. ) ;
#372 = CARTESIAN_POINT ( 'NONE',  ( 37.60909824161262804, 0.0000000000000000000, 44.00000000000000000 ) ) ;
#373 = APPLICATION_PROTOCOL_DEFINITION ( 'international standard', 'config_control_design', 1994, #118 ) ;
#374 = VECTOR ( 'NONE', #976, 1000.000000000000000 ) ;
#375 = CIRCLE ( 'NONE', #319, 1.399999999999995026 ) ;
#376 = EDGE_CURVE ( 'NONE', #542, #36, #842, .T. ) ;
#377 = ORIENTED_EDGE ( 'NONE', *, *, #663, .F. ) ;
#378 = ORIENTED_EDGE ( 'NONE', *, *, #250, .F. ) ;
#379 = VERTEX_POINT ( 'NONE', #448 ) ;
#380 = DIRECTION ( 'NONE',  ( 0.0000000000000000000, 0.0000000000000000000, -1.000000000000000000 ) ) ;
#381 = ADVANCED_FACE ( 'NONE', ( #17, #1020, #44, #799, #686 ), #183, .T. ) ;
#382 = AXIS2_PLACEMENT_3D ( 'NONE', #544, #877, #219 ) ;
#383 = CARTESIAN_POINT ( 'NONE',  ( 4.000000000000000888, -38.00000000000000000, 44.00000000000000000 ) ) ;
#384 = DIRECTION ( 'NONE',  ( 8.906522175617103337E-18, -1.000000000000000000, 0.0000000000000000000 ) ) ;
#385 = CALENDAR_DATE ( 2019, 12, 12 ) ;
#386 = CIRCLE ( 'NONE', #1063, 2.000000000000001776 ) ;
#387 = CYLINDRICAL_SURFACE ( 'NONE', #347, 2.000000000000001776 ) ;
#388 = DIRECTION ( 'NONE',  ( 8.906522175617061737E-18, -1.000000000000000000, 0.0000000000000000000 ) ) ;
#389 = LINE ( 'NONE', #232, #163 ) ;
#390 = CARTESIAN_POINT ( 'NONE',  ( 23.19999999999999929, 0.0000000000000000000, 29.50000000000000000 ) ) ;
#391 = EDGE_LOOP ( 'NONE', ( #1052, #636 ) ) ;
#392 = EDGE_CURVE ( 'NONE', #1021, #193, #618, .T. ) ;
#393 = EDGE_LOOP ( 'NONE', ( #455, #34, #933, #566, #62, #102, #668, #326 ) ) ;
#394 = ORIENTED_EDGE ( 'NONE', *, *, #130, .T. ) ;
#395 = ADVANCED_FACE ( 'NONE', ( #662 ), #465, .F. ) ;
#396 = EDGE_CURVE ( 'NONE', #763, #832, #632, .T. ) ;
#397 = DIRECTION ( 'NONE',  ( 1.000000000000000000, 0.0000000000000000000, 0.0000000000000000000 ) ) ;
#398 = ADVANCED_FACE ( 'NONE', ( #363 ), #387, .T. ) ;
#399 = DIRECTION ( 'NONE',  ( -1.000000000000000000, -1.700709290173340101E-17, -0.0000000000000000000 ) ) ;
#400 = PERSON ( 'UNSPECIFIED', 'UNSPECIFIED', 'UNSPECIFIED', ('UNSPECIFIED'), ('UNSPECIFIED'), ('UNSPECIFIED') ) ;
#401 = FACE_OUTER_BOUND ( 'NONE', #554, .T. ) ;
#402 = CARTESIAN_POINT ( 'NONE',  ( 5.999999999999998224, -3.999999999999993339, 46.00000000000000000 ) ) ;
#403 = FACE_BOUND ( 'NONE', #47, .T. ) ;
#404 = VERTEX_POINT ( 'NONE', #204 ) ;
#405 = ADVANCED_FACE ( 'NONE', ( #136 ), #175, .F. ) ;
#406 = EDGE_LOOP ( 'NONE', ( #970, #1065 ) ) ;
#407 = EDGE_LOOP ( 'NONE', ( #728, #207, #495, #269 ) ) ;
#408 = AXIS2_PLACEMENT_3D ( 'NONE', #107, #692, #774 ) ;
#409 = DIRECTION ( 'NONE',  ( -1.261617073437677999E-16, -1.000000000000000000, 0.0000000000000000000 ) ) ;
#410 = EDGE_CURVE ( 'NONE', #1047, #168, #454, .T. ) ;
#411 = FACE_OUTER_BOUND ( 'NONE', #913, .T. ) ;
#412 = CARTESIAN_POINT ( 'NONE',  ( 39.60909824161262804, -10.00000000000000000, 2.000000000000001776 ) ) ;
#413 = VECTOR ( 'NONE', #960, 1000.000000000000000 ) ;
#414 = LINE ( 'NONE', #990, #190 ) ;
#415 = CARTESIAN_POINT ( 'NONE',  ( 1.781304435123422208E-17, -2.000000000000001776, 0.0000000000000000000 ) ) ;
#416 = VERTEX_POINT ( 'NONE', #210 ) ;
#417 = DIRECTION ( 'NONE',  ( 0.0000000000000000000, 1.000000000000000000, 0.0000000000000000000 ) ) ;
#418 = EDGE_CURVE ( 'NONE', #416, #285, #189, .T. ) ;
#419 = ORIENTED_EDGE ( 'NONE', *, *, #509, .F. ) ;
#420 = DIRECTION ( 'NONE',  ( 1.000000000000000000, 1.700709290173340101E-17, 0.0000000000000000000 ) ) ;
#421 = AXIS2_PLACEMENT_3D ( 'NONE', #461, #874, #39 ) ;
#422 = DIRECTION ( 'NONE',  ( 0.0000000000000000000, 1.000000000000000000, -0.0000000000000000000 ) ) ;
#423 = DIRECTION ( 'NONE',  ( -0.0000000000000000000, 1.000000000000000000, -0.0000000000000000000 ) ) ;
#424 = DATE_AND_TIME ( #385, #41 ) ;
#425 = FACE_OUTER_BOUND ( 'NONE', #393, .T. ) ;
#426 = AXIS2_PLACEMENT_3D ( 'NONE', #811, #730, #317 ) ;
#427 = CARTESIAN_POINT ( 'NONE',  ( 20.40000000000000924, 0.0000000000000000000, 16.50000000000000000 ) ) ;
#428 = CIRCLE ( 'NONE', #194, 1.399999999999996803 ) ;
#429 = CIRCLE ( 'NONE', #761, 2.000000000000000000 ) ;
#430 = VERTEX_POINT ( 'NONE', #119 ) ;
#431 = ORIENTED_EDGE ( 'NONE', *, *, #1093, .T. ) ;
#432 = VERTEX_POINT ( 'NONE', #1048 ) ;
#433 = CARTESIAN_POINT ( 'NONE',  ( 39.60909824161262804, -3.999999999999997335, 46.00000000000000000 ) ) ;
#434 = EDGE_CURVE ( 'NONE', #350, #139, #439, .T. ) ;
#435 = DIRECTION ( 'NONE',  ( 8.906522175617061737E-18, -1.000000000000000000, 0.0000000000000000000 ) ) ;
#436 = DIRECTION ( 'NONE',  ( 8.906522175617050951E-18, -1.000000000000000000, 0.0000000000000000000 ) ) ;
#437 = EDGE_CURVE ( 'NONE', #871, #1002, #723, .T. ) ;
#438 = FACE_OUTER_BOUND ( 'NONE', #180, .T. ) ;
#439 = LINE ( 'NONE', #878, #856 ) ;
#440 = CARTESIAN_POINT ( 'NONE',  ( 28.30000000000000426, -42.00000000000000000, 23.00000000000000000 ) ) ;
#441 = VECTOR ( 'NONE', #68, 1000.000000000000000 ) ;
#442 = DIRECTION ( 'NONE',  ( -1.000000000000000000, 0.0000000000000000000, 0.0000000000000000000 ) ) ;
#443 = ORIENTED_EDGE ( 'NONE', *, *, #522, .F. ) ;
#444 = ORIENTED_EDGE ( 'NONE', *, *, #689, .F. ) ;
#445 = DIRECTION ( 'NONE',  ( -1.000000000000000000, -1.700709290173340101E-17, -0.0000000000000000000 ) ) ;
#446 = VERTEX_POINT ( 'NONE', #622 ) ;
#447 = EDGE_CURVE ( 'NONE', #275, #379, #605, .T. ) ;
#448 = CARTESIAN_POINT ( 'NONE',  ( 23.19999999999999929, -3.999999999999994671, 29.50000000000000000 ) ) ;
#449 = DATE_AND_TIME ( #770, #512 ) ;
#450 = SHAPE_DEFINITION_REPRESENTATION ( #9, #81 ) ;
#451 = MECHANICAL_CONTEXT ( 'NONE', #879, 'mechanical' ) ;
#452 = FACE_BOUND ( 'NONE', #165, .T. ) ;
#453 = EDGE_CURVE ( 'NONE', #446, #1094, #174, .T. ) ;
#454 = LINE ( 'NONE', #32, #1045 ) ;
#455 = ORIENTED_EDGE ( 'NONE', *, *, #826, .T. ) ;
#456 = DIRECTION ( 'NONE',  ( 0.0000000000000000000, -1.000000000000000000, 0.0000000000000000000 ) ) ;
#457 = VERTEX_POINT ( 'NONE', #1040 ) ;
#458 = PERSON_AND_ORGANIZATION_ROLE ( 'creator' ) ;
#459 = ORIENTED_EDGE ( 'NONE', *, *, #241, .F. ) ;
#460 = AXIS2_PLACEMENT_3D ( 'NONE', #98, #608, #612 ) ;
#461 = CARTESIAN_POINT ( 'NONE',  ( 21.80000000000000426, -3.999999999999994671, 29.50000000000000000 ) ) ;
#462 = DIRECTION ( 'NONE',  ( 1.000000000000000000, 1.700709290173340409E-17, -0.0000000000000000000 ) ) ;
#463 = CIRCLE ( 'NONE', #827, 1.399999999999996803 ) ;
#464 = DIRECTION ( 'NONE',  ( -1.261617073437677999E-16, 1.000000000000000000, -0.0000000000000000000 ) ) ;
#465 = CYLINDRICAL_SURFACE ( 'NONE', #460, 1.399999999999995026 ) ;
#466 = EDGE_CURVE ( 'NONE', #905, #231, #255, .T. ) ;
#467 = ORIENTED_EDGE ( 'NONE', *, *, #857, .F. ) ;
#468 = DIRECTION ( 'NONE',  ( 1.261617073437677999E-16, 1.000000000000000000, -0.0000000000000000000 ) ) ;
#469 = ORIENTED_EDGE ( 'NONE', *, *, #356, .T. ) ;
#470 = CC_DESIGN_SECURITY_CLASSIFICATION ( #150, ( #61 ) ) ;
#471 = CARTESIAN_POINT ( 'NONE',  ( 23.20000000000000639, -42.00000000000000000, 29.50000000000000000 ) ) ;
#472 = ORIENTED_EDGE ( 'NONE', *, *, #904, .T. ) ;
#473 = ORIENTED_EDGE ( 'NONE', *, *, #981, .F. ) ;
#474 = AXIS2_PLACEMENT_3D ( 'NONE', #920, #839, #1008 ) ;
#475 = DIRECTION ( 'NONE',  ( -1.700709290173340409E-17, 1.000000000000000000, 0.0000000000000000000 ) ) ;
#476 = CYLINDRICAL_SURFACE ( 'NONE', #1054, 1.399999999999995026 ) ;
#477 = FACE_OUTER_BOUND ( 'NONE', #725, .T. ) ;
#478 = DIRECTION ( 'NONE',  ( 0.0000000000000000000, 1.000000000000000000, 0.0000000000000000000 ) ) ;
#479 = CIRCLE ( 'NONE', #552, 2.000000000000001776 ) ;
#480 = ADVANCED_FACE ( 'NONE', ( #675, #280, #201, #1075, #452 ), #291, .F. ) ;
#481 = ORIENTED_EDGE ( 'NONE', *, *, #453, .F. ) ;
#482 = DIRECTION ( 'NONE',  ( 1.000000000000000000, 1.700709290173340409E-17, -0.0000000000000000000 ) ) ;
#483 = AXIS2_PLACEMENT_3D ( 'NONE', #173, #936, #670 ) ;
#484 = ORIENTED_EDGE ( 'NONE', *, *, #305, .T. ) ;
#485 = DIRECTION ( 'NONE',  ( -1.261617073437677999E-16, 1.000000000000000000, -0.0000000000000000000 ) ) ;
#486 = ORIENTED_EDGE ( 'NONE', *, *, #23, .F. ) ;
#487 = CARTESIAN_POINT ( 'NONE',  ( -7.000000000000001776, -32.00000000000000000, 8.000000000000007105 ) ) ;
#488 = CARTESIAN_POINT ( 'NONE',  ( 4.000000000000000888, -36.00000000000000000, 44.00000000000000000 ) ) ;
#489 = EDGE_CURVE ( 'NONE', #792, #832, #1043, .T. ) ;
#490 = CARTESIAN_POINT ( 'NONE',  ( -7.000000000000001776, -32.00000000000000000, 37.99999999999999289 ) ) ;
#491 = LINE ( 'NONE', #786, #940 ) ;
#492 = CIRCLE ( 'NONE', #1085, 2.000000000000000000 ) ;
#493 = EDGE_LOOP ( 'NONE', ( #739, #727, #1092, #498 ) ) ;
#494 = ORIENTED_EDGE ( 'NONE', *, *, #437, .T. ) ;
#495 = ORIENTED_EDGE ( 'NONE', *, *, #489, .T. ) ;
#496 = CARTESIAN_POINT ( 'NONE',  ( 26.90000000000000213, 0.0000000000000000000, 23.00000000000000000 ) ) ;
#497 = AXIS2_PLACEMENT_3D ( 'NONE', #985, #145, #645 ) ;
#498 = ORIENTED_EDGE ( 'NONE', *, *, #918, .F. ) ;
#499 = DIRECTION ( 'NONE',  ( -1.261617073437677999E-16, 1.000000000000000000, -0.0000000000000000000 ) ) ;
#500 = CARTESIAN_POINT ( 'NONE',  ( 4.000000000000000000, -12.00000000000000178, 38.00000000000000000 ) ) ;
#501 = EDGE_CURVE ( 'NONE', #404, #1047, #309, .T. ) ;
#502 = DIRECTION ( 'NONE',  ( 0.0000000000000000000, 0.0000000000000000000, -1.000000000000000000 ) ) ;
#503 = VECTOR ( 'NONE', #258, 1000.000000000000000 ) ;
#504 = FACE_OUTER_BOUND ( 'NONE', #257, .T. ) ;
#505 = VECTOR ( 'NONE', #665, 1000.000000000000000 ) ;
#506 = ORIENTED_EDGE ( 'NONE', *, *, #657, .T. ) ;
#507 = CARTESIAN_POINT ( 'NONE',  ( 4.000000000000000888, -33.39999999999999858, 8.000000000000007105 ) ) ;
#508 = EDGE_LOOP ( 'NONE', ( #419, #781, #486, #1067 ) ) ;
#509 = EDGE_CURVE ( 'NONE', #678, #152, #910, .T. ) ;
#510 = CARTESIAN_POINT ( 'NONE',  ( 39.60909824161262804, -3.999999999999997335, 2.000000000000001776 ) ) ;
#511 = CARTESIAN_POINT ( 'NONE',  ( 29.69999999999999218, -3.999999999999995559, 23.00000000000000000 ) ) ;
#512 = LOCAL_TIME ( 17, 13, 25.00000000000000000, #226 ) ;
#513 = AXIS2_PLACEMENT_3D ( 'NONE', #711, #303, #975 ) ;
#514 = CARTESIAN_POINT ( 'NONE',  ( 39.60909824161262804, -3.999999999999998224, 44.00000000000000000 ) ) ;
#515 = VECTOR ( 'NONE', #911, 1000.000000000000000 ) ;
#516 = CIRCLE ( 'NONE', #5, 1.399999999999995026 ) ;
#517 = ORIENTED_EDGE ( 'NONE', *, *, #105, .T. ) ;
#518 = ORIENTED_EDGE ( 'NONE', *, *, #558, .T. ) ;
#519 = DIRECTION ( 'NONE',  ( 1.700709290173340101E-17, -1.000000000000000000, 0.0000000000000000000 ) ) ;
#520 = ORIENTED_EDGE ( 'NONE', *, *, #376, .F. ) ;
#521 = ORIENTED_EDGE ( 'NONE', *, *, #315, .F. ) ;
#522 = EDGE_CURVE ( 'NONE', #530, #457, #1019, .T. ) ;
#523 = CARTESIAN_POINT ( 'NONE',  ( 8.673617379884035472E-16, -12.00000000000000178, 8.000000000000000000 ) ) ;
#524 = DIRECTION ( 'NONE',  ( -1.261617073437677999E-16, -1.000000000000000000, 0.0000000000000000000 ) ) ;
#525 = CARTESIAN_POINT ( 'NONE',  ( 4.000000000000000888, -32.00000000000000000, 8.000000000000007105 ) ) ;
#526 = EDGE_CURVE ( 'NONE', #368, #740, #814, .T. ) ;
#527 = VECTOR ( 'NONE', #485, 1000.000000000000000 ) ;
#528 = AXIS2_PLACEMENT_3D ( 'NONE', #627, #117, #199 ) ;
#529 = VECTOR ( 'NONE', #617, 1000.000000000000000 ) ;
#530 = VERTEX_POINT ( 'NONE', #55 ) ;
#531 = ORIENTED_EDGE ( 'NONE', *, *, #949, .T. ) ;
#532 = EDGE_LOOP ( 'NONE', ( #220, #845 ) ) ;
#533 = CARTESIAN_POINT ( 'NONE',  ( 8.673617379884035472E-16, -12.00000000000000178, 38.00000000000000000 ) ) ;
#534 = DIRECTION ( 'NONE',  ( -1.261617073437677999E-16, 1.000000000000000000, -0.0000000000000000000 ) ) ;
#535 = PERSON_AND_ORGANIZATION_ROLE ( 'classification_officer' ) ;
#536 = DIRECTION ( 'NONE',  ( -0.0000000000000000000, 0.0000000000000000000, 1.000000000000000000 ) ) ;
#537 = FACE_OUTER_BOUND ( 'NONE', #110, .T. ) ;
#538 = EDGE_CURVE ( 'NONE', #379, #607, #59, .T. ) ;
#539 = LINE ( 'NONE', #937, #1009 ) ;
#540 = EDGE_LOOP ( 'NONE', ( #129, #873 ) ) ;
#541 = DIRECTION ( 'NONE',  ( 8.906522175617061737E-18, -1.000000000000000000, 0.0000000000000000000 ) ) ;
#542 = VERTEX_POINT ( 'NONE', #1066 ) ;
#543 = ORIENTED_EDGE ( 'NONE', *, *, #741, .T. ) ;
#544 = CARTESIAN_POINT ( 'NONE',  ( 37.60909824161262804, 0.0000000000000000000, 2.000000000000001776 ) ) ;
#545 = ORIENTED_EDGE ( 'NONE', *, *, #538, .F. ) ;
#546 = AXIS2_PLACEMENT_3D ( 'NONE', #602, #349, #780 ) ;
#547 = PLANE ( 'NONE',  #768 ) ;
#548 = DIRECTION ( 'NONE',  ( 1.000000000000000000, 1.700709290173340409E-17, 0.0000000000000000000 ) ) ;
#549 = DIRECTION ( 'NONE',  ( 0.0000000000000000000, 0.0000000000000000000, -1.000000000000000000 ) ) ;
#550 = CARTESIAN_POINT ( 'NONE',  ( -7.000000000000001776, -32.00000000000000000, 37.99999999999999289 ) ) ;
#551 = CIRCLE ( 'NONE', #101, 1.399999999999995026 ) ;
#552 = AXIS2_PLACEMENT_3D ( 'NONE', #75, #409, #987 ) ;
#553 = DIRECTION ( 'NONE',  ( 1.000000000000000000, 1.700709290173340101E-17, -0.0000000000000000000 ) ) ;
#554 = EDGE_LOOP ( 'NONE', ( #581, #903, #917, #1036, #394, #176 ) ) ;
#555 = DIRECTION ( 'NONE',  ( 1.000000000000000000, 0.0000000000000000000, 0.0000000000000000000 ) ) ;
#556 = ORIENTED_EDGE ( 'NONE', *, *, #1093, .F. ) ;
#557 = CARTESIAN_POINT ( 'NONE',  ( 16.69999999999999929, 0.0000000000000000000, 23.00000000000000000 ) ) ;
#558 = EDGE_CURVE ( 'NONE', #932, #350, #784, .T. ) ;
#559 = DIRECTION ( 'NONE',  ( -0.0000000000000000000, 1.000000000000000000, -0.0000000000000000000 ) ) ;
#560 = ADVANCED_FACE ( 'NONE', ( #685 ), #726, .F. ) ;
#561 = CARTESIAN_POINT ( 'NONE',  ( 4.000000000000000000, -5.999999999999992895, 46.00000000000000000 ) ) ;
#562 = LINE ( 'NONE', #820, #977 ) ;
#563 = FACE_BOUND ( 'NONE', #182, .T. ) ;
#564 = DIRECTION ( 'NONE',  ( -1.000000000000000000, -1.700709290173340409E-17, 0.0000000000000000000 ) ) ;
#565 = CIRCLE ( 'NONE', #256, 2.000000000000001776 ) ;
#566 = ORIENTED_EDGE ( 'NONE', *, *, #23, .T. ) ;
#567 = CARTESIAN_POINT ( 'NONE',  ( 8.798308690342673899E-16, -33.39999999999999858, 8.000000000000007105 ) ) ;
#568 = AXIS2_PLACEMENT_3D ( 'NONE', #860, #28, #26 ) ;
#569 = ADVANCED_FACE ( 'NONE', ( #477 ), #962, .T. ) ;
#570 = ORIENTED_EDGE ( 'NONE', *, *, #1077, .F. ) ;
#571 = CARTESIAN_POINT ( 'NONE',  ( 0.0000000000000000000, 0.0000000000000000000, 0.0000000000000000000 ) ) ;
#572 = ORIENTED_EDGE ( 'NONE', *, *, #1014, .F. ) ;
#573 = DIRECTION ( 'NONE',  ( 1.000000000000000000, 1.700709290173340409E-17, -0.0000000000000000000 ) ) ;
#574 = DIRECTION ( 'NONE',  ( -0.0000000000000000000, 0.0000000000000000000, 1.000000000000000000 ) ) ;
#575 = CARTESIAN_POINT ( 'NONE',  ( 37.60909824161262804, -3.999999999999997335, 46.00000000000000000 ) ) ;
#576 = DIRECTION ( 'NONE',  ( 1.000000000000000000, 0.0000000000000000000, 0.0000000000000000000 ) ) ;
#577 = CYLINDRICAL_SURFACE ( 'NONE', #306, 1.399999999999996803 ) ;
#578 = CARTESIAN_POINT ( 'NONE',  ( -7.000000000000002665, -10.60000000000000497, 8.000000000000000000 ) ) ;
#579 = ORIENTED_EDGE ( 'NONE', *, *, #705, .T. ) ;
#580 = EDGE_CURVE ( 'NONE', #285, #859, #551, .T. ) ;
#581 = ORIENTED_EDGE ( 'NONE', *, *, #105, .F. ) ;
#582 = ORIENTED_EDGE ( 'NONE', *, *, #437, .F. ) ;
#583 = CARTESIAN_POINT ( 'NONE',  ( 20.40000000000000924, -3.999999999999994671, 29.50000000000000000 ) ) ;
#584 = AXIS2_PLACEMENT_3D ( 'NONE', #51, #548, #635 ) ;
#585 = CARTESIAN_POINT ( 'NONE',  ( 39.60909824161262804, -10.00000000000000000, 46.00000000000000000 ) ) ;
#586 = LINE ( 'NONE', #684, #1059 ) ;
#587 = LINE ( 'NONE', #620, #229 ) ;
#588 = FACE_OUTER_BOUND ( 'NONE', #1050, .T. ) ;
#589 = DIRECTION ( 'NONE',  ( 0.0000000000000000000, 1.000000000000000000, 0.0000000000000000000 ) ) ;
#590 = ORIENTED_EDGE ( 'NONE', *, *, #284, .T. ) ;
#591 = DIRECTION ( 'NONE',  ( -1.000000000000000000, 0.0000000000000000000, 0.0000000000000000000 ) ) ;
#592 = ORIENTED_EDGE ( 'NONE', *, *, #526, .F. ) ;
#593 = EDGE_LOOP ( 'NONE', ( #354, #619 ) ) ;
#594 = DIRECTION ( 'NONE',  ( 0.0000000000000000000, 0.0000000000000000000, -1.000000000000000000 ) ) ;
#595 = ORIENTED_EDGE ( 'NONE', *, *, #657, .F. ) ;
#596 = CARTESIAN_POINT ( 'NONE',  ( 21.80000000000001137, -42.00000000000000000, 29.50000000000000000 ) ) ;
#597 = CARTESIAN_POINT ( 'NONE',  ( 3.206347983222158865E-16, -36.00000000000000000, 46.00000000000000000 ) ) ;
#598 =( LENGTH_UNIT ( ) NAMED_UNIT ( * ) SI_UNIT ( .MILLI., .METRE. ) );
#599 = EDGE_CURVE ( 'NONE', #203, #259, #900, .T. ) ;
#600 = PERSON_AND_ORGANIZATION ( #400, #674 ) ;
#601 = AXIS2_PLACEMENT_3D ( 'NONE', #698, #866, #1055 ) ;
#602 = CARTESIAN_POINT ( 'NONE',  ( 28.30000000000000426, -42.00000000000000000, 23.00000000000000000 ) ) ;
#603 = CYLINDRICAL_SURFACE ( 'NONE', #967, 1.399999999999995026 ) ;
#604 = CARTESIAN_POINT ( 'NONE',  ( 2.000000000000000000, -8.673617379884035472E-16, 46.00000000000000000 ) ) ;
#605 = CIRCLE ( 'NONE', #421, 1.399999999999995026 ) ;
#606 = VECTOR ( 'NONE', #907, 1000.000000000000000 ) ;
#607 = VERTEX_POINT ( 'NONE', #390 ) ;
#608 = DIRECTION ( 'NONE',  ( -1.261617073437677999E-16, 1.000000000000000000, -0.0000000000000000000 ) ) ;
#609 = DIRECTION ( 'NONE',  ( 1.000000000000000000, 0.0000000000000000000, 0.0000000000000000000 ) ) ;
#610 = EDGE_LOOP ( 'NONE', ( #111, #244 ) ) ;
#611 = AXIS2_PLACEMENT_3D ( 'NONE', #327, #995, #397 ) ;
#612 = DIRECTION ( 'NONE',  ( -1.000000000000000000, 0.0000000000000000000, 0.0000000000000000000 ) ) ;
#613 = CARTESIAN_POINT ( 'NONE',  ( 28.29999999999999716, -3.999999999999995559, 23.00000000000000000 ) ) ;
#614 = EDGE_CURVE ( 'NONE', #1038, #607, #869, .T. ) ;
#615 = CIRCLE ( 'NONE', #844, 1.399999999999995026 ) ;
#616 = FACE_BOUND ( 'NONE', #532, .T. ) ;
#617 = DIRECTION ( 'NONE',  ( -0.0000000000000000000, -0.0000000000000000000, 1.000000000000000000 ) ) ;
#618 = LINE ( 'NONE', #288, #884 ) ;
#619 = ORIENTED_EDGE ( 'NONE', *, *, #721, .T. ) ;
#620 = CARTESIAN_POINT ( 'NONE',  ( 4.000000000000000888, -36.00000000000000000, 46.00000000000000000 ) ) ;
#621 = EDGE_LOOP ( 'NONE', ( #113, #966, #301, #556 ) ) ;
#622 = CARTESIAN_POINT ( 'NONE',  ( 8.548926069425396059E-16, -10.60000000000000497, 38.00000000000000000 ) ) ;
#623 = ORIENTED_EDGE ( 'NONE', *, *, #191, .F. ) ;
#624 = PERSON_AND_ORGANIZATION_ROLE ( 'design_owner' ) ;
#625 = AXIS2_PLACEMENT_3D ( 'NONE', #312, #795, #555 ) ;
#626 = CARTESIAN_POINT ( 'NONE',  ( 3.384478426734501024E-16, -38.00000000000000000, 46.00000000000000000 ) ) ;
#627 = CARTESIAN_POINT ( 'NONE',  ( 15.30000000000000071, 0.0000000000000000000, 23.00000000000000000 ) ) ;
#628 = ADVANCED_FACE ( 'NONE', ( #647 ), #748, .F. ) ;
#629 = DATE_AND_TIME ( #1057, #923 ) ;
#630 = CYLINDRICAL_SURFACE ( 'NONE', #1081, 1.399999999999995026 ) ;
#631 = EDGE_CURVE ( 'NONE', #763, #738, #840, .T. ) ;
#632 = LINE ( 'NONE', #703, #413 ) ;
#633 = DIRECTION ( 'NONE',  ( 1.000000000000000000, 0.0000000000000000000, 0.0000000000000000000 ) ) ;
#634 = LINE ( 'NONE', #659, #338 ) ;
#635 = DIRECTION ( 'NONE',  ( 0.0000000000000000000, 1.000000000000000000, 0.0000000000000000000 ) ) ;
#636 = ORIENTED_EDGE ( 'NONE', *, *, #796, .F. ) ;
#637 = ORIENTED_EDGE ( 'NONE', *, *, #865, .F. ) ;
#638 = DIRECTION ( 'NONE',  ( 0.0000000000000000000, 1.000000000000000000, 0.0000000000000000000 ) ) ;
#639 = ORIENTED_EDGE ( 'NONE', *, *, #336, .T. ) ;
#640 = DIRECTION ( 'NONE',  ( 1.000000000000000000, 1.700709290173340409E-17, -0.0000000000000000000 ) ) ;
#641 = DIRECTION ( 'NONE',  ( 0.0000000000000000000, 0.0000000000000000000, -1.000000000000000000 ) ) ;
#642 = DIRECTION ( 'NONE',  ( 1.000000000000000000, 1.700709290173340101E-17, -0.0000000000000000000 ) ) ;
#643 = ADVANCED_FACE ( 'NONE', ( #928 ), #88, .T. ) ;
#644 = PERSON_AND_ORGANIZATION ( #400, #674 ) ;
#645 = DIRECTION ( 'NONE',  ( 0.0000000000000000000, 0.0000000000000000000, -1.000000000000000000 ) ) ;
#646 = FACE_OUTER_BOUND ( 'NONE', #982, .T. ) ;
#647 = FACE_OUTER_BOUND ( 'NONE', #1049, .T. ) ;
#648 = CARTESIAN_POINT ( 'NONE',  ( -7.000000000000002665, -13.39999999999999858, 8.000000000000000000 ) ) ;
#649 = AXIS2_PLACEMENT_3D ( 'NONE', #1097, #574, #158 ) ;
#650 = LINE ( 'NONE', #179, #1032 ) ;
#651 = CARTESIAN_POINT ( 'NONE',  ( 5.999999999999998224, -3.999999999999993339, 0.0000000000000000000 ) ) ;
#652 = VERTEX_POINT ( 'NONE', #716 ) ;
#653 = ORIENTED_EDGE ( 'NONE', *, *, #299, .F. ) ;
#654 = ORIENTED_EDGE ( 'NONE', *, *, #466, .F. ) ;
#655 = DIRECTION ( 'NONE',  ( -1.261617073437677999E-16, 1.000000000000000000, -0.0000000000000000000 ) ) ;
#656 = ADVANCED_FACE ( 'NONE', ( #504 ), #296, .T. ) ;
#657 = EDGE_CURVE ( 'NONE', #350, #365, #587, .T. ) ;
#658 = CARTESIAN_POINT ( 'NONE',  ( 1.781304435123422208E-17, -2.000000000000001776, 46.00000000000000000 ) ) ;
#659 = CARTESIAN_POINT ( 'NONE',  ( 4.000000000000000000, -3.999999999999993339, 46.00000000000000000 ) ) ;
#660 = CYLINDRICAL_SURFACE ( 'NONE', #950, 2.000000000000001776 ) ;
#661 = CARTESIAN_POINT ( 'NONE',  ( 4.000000000000000000, -13.39999999999999858, 38.00000000000000000 ) ) ;
#662 = FACE_OUTER_BOUND ( 'NONE', #621, .T. ) ;
#663 = EDGE_CURVE ( 'NONE', #932, #652, #42, .T. ) ;
#664 = LINE ( 'NONE', #236, #441 ) ;
#665 = DIRECTION ( 'NONE',  ( -0.0000000000000000000, -0.0000000000000000000, 1.000000000000000000 ) ) ;
#666 = AXIS2_PLACEMENT_3D ( 'NONE', #718, #49, #380 ) ;
#667 = VERTEX_POINT ( 'NONE', #383 ) ;
#668 = ORIENTED_EDGE ( 'NONE', *, *, #392, .T. ) ;
#669 = ORIENTED_EDGE ( 'NONE', *, *, #263, .T. ) ;
#670 = DIRECTION ( 'NONE',  ( -1.000000000000000000, 0.0000000000000000000, 0.0000000000000000000 ) ) ;
#671 = EDGE_CURVE ( 'NONE', #871, #245, #15, .T. ) ;
#672 = CARTESIAN_POINT ( 'NONE',  ( 20.40000000000001634, -42.00000000000000000, 16.50000000000000000 ) ) ;
#673 = CARTESIAN_POINT ( 'NONE',  ( 37.60909824161262804, 0.0000000000000000000, 46.00000000000000000 ) ) ;
#674 = ORGANIZATION ( 'UNSPECIFIED', 'UNSPECIFIED', '' ) ;
#675 = FACE_BOUND ( 'NONE', #406, .T. ) ;
#676 = DIRECTION ( 'NONE',  ( 1.000000000000000000, 8.906522175617109500E-18, -0.0000000000000000000 ) ) ;
#677 = CIRCLE ( 'NONE', #568, 1.399999999999995026 ) ;
#678 = VERTEX_POINT ( 'NONE', #894 ) ;
#679 = VERTEX_POINT ( 'NONE', #37 ) ;
#680 = ORIENTED_EDGE ( 'NONE', *, *, #418, .T. ) ;
#681 = CARTESIAN_POINT ( 'NONE',  ( 28.29999999999999716, -3.999999999999995559, 23.00000000000000000 ) ) ;
#682 = CARTESIAN_POINT ( 'NONE',  ( 4.000000000000000000, -10.60000000000000497, 8.000000000000000000 ) ) ;
#683 = AXIS2_PLACEMENT_3D ( 'NONE', #140, #559, #641 ) ;
#684 = CARTESIAN_POINT ( 'NONE',  ( 20.40000000000001634, -42.00000000000000000, 29.50000000000000000 ) ) ;
#685 = FACE_OUTER_BOUND ( 'NONE', #946, .T. ) ;
#686 = FACE_BOUND ( 'NONE', #593, .T. ) ;
#687 = ORIENTED_EDGE ( 'NONE', *, *, #981, .T. ) ;
#688 = ORIENTED_EDGE ( 'NONE', *, *, #453, .T. ) ;
#689 = EDGE_CURVE ( 'NONE', #430, #679, #428, .T. ) ;
#690 = DIRECTION ( 'NONE',  ( -1.261617073437677999E-16, -1.000000000000000000, 0.0000000000000000000 ) ) ;
#691 = CARTESIAN_POINT ( 'NONE',  ( -7.000000000000002665, -12.00000000000000178, 8.000000000000000000 ) ) ;
#692 = DIRECTION ( 'NONE',  ( 1.000000000000000000, 8.906522175617109500E-18, -0.0000000000000000000 ) ) ;
#693 = AXIS2_PLACEMENT_3D ( 'NONE', #892, #638, #126 ) ;
#694 = CYLINDRICAL_SURFACE ( 'NONE', #474, 1.399999999999996803 ) ;
#695 = VECTOR ( 'NONE', #67, 1000.000000000000000 ) ;
#696 = DESIGN_CONTEXT ( 'detailed design', #118, 'design' ) ;
#697 = EDGE_LOOP ( 'NONE', ( #314, #1003, #340, #572 ) ) ;
#698 = CARTESIAN_POINT ( 'NONE',  ( 4.000000000000000000, -12.00000000000000178, 38.00000000000000000 ) ) ;
#699 = EDGE_LOOP ( 'NONE', ( #848, #35 ) ) ;
#700 = DATE_TIME_ROLE ( 'classification_date' ) ;
#701 = ORIENTED_EDGE ( 'NONE', *, *, #888, .F. ) ;
#702 = AXIS2_PLACEMENT_3D ( 'NONE', #550, #640, #801 ) ;
#703 = CARTESIAN_POINT ( 'NONE',  ( 13.90000000000000746, -42.00000000000000000, 23.00000000000000000 ) ) ;
#704 = DIRECTION ( 'NONE',  ( 0.0000000000000000000, 0.0000000000000000000, -1.000000000000000000 ) ) ;
#705 = EDGE_CURVE ( 'NONE', #91, #859, #491, .T. ) ;
#706 = CARTESIAN_POINT ( 'NONE',  ( 0.0000000000000000000, 0.0000000000000000000, 46.00000000000000000 ) ) ;
#707 = FACE_BOUND ( 'NONE', #391, .T. ) ;
#708 = LINE ( 'NONE', #851, #816 ) ;
#709 = EDGE_LOOP ( 'NONE', ( #369, #914, #494, #484 ) ) ;
#710 = ADVANCED_FACE ( 'NONE', ( #537 ), #109, .T. ) ;
#711 = CARTESIAN_POINT ( 'NONE',  ( 15.30000000000000604, -42.00000000000000000, 23.00000000000000000 ) ) ;
#712 = ORIENTED_EDGE ( 'NONE', *, *, #315, .T. ) ;
#713 = ORIENTED_EDGE ( 'NONE', *, *, #434, .F. ) ;
#714 = EDGE_LOOP ( 'NONE', ( #24, #986, #1033, #286 ) ) ;
#715 = AXIS2_PLACEMENT_3D ( 'NONE', #980, #475, #1060 ) ;
#716 = CARTESIAN_POINT ( 'NONE',  ( 3.384478426734501024E-16, -38.00000000000000000, 2.000000000000001776 ) ) ;
#717 = DIRECTION ( 'NONE',  ( -1.000000000000000000, 0.0000000000000000000, 0.0000000000000000000 ) ) ;
#718 = CARTESIAN_POINT ( 'NONE',  ( 21.80000000000000426, 0.0000000000000000000, 29.50000000000000000 ) ) ;
#719 = DIRECTION ( 'NONE',  ( -1.000000000000000000, -8.906522175617109500E-18, 0.0000000000000000000 ) ) ;
#720 = VECTOR ( 'NONE', #1072, 1000.000000000000000 ) ;
#721 = EDGE_CURVE ( 'NONE', #738, #763, #337, .T. ) ;
#722 = ADVANCED_FACE ( 'NONE', ( #616, #563, #401, #707, #954 ), #547, .T. ) ;
#723 = LINE ( 'NONE', #881, #529 ) ;
#724 = CARTESIAN_POINT ( 'NONE',  ( 37.60909824161262804, 0.0000000000000000000, 0.0000000000000000000 ) ) ;
#725 = EDGE_LOOP ( 'NONE', ( #178, #893, #443, #221 ) ) ;
#726 = PLANE ( 'NONE',  #715 ) ;
#727 = ORIENTED_EDGE ( 'NONE', *, *, #305, .F. ) ;
#728 = ORIENTED_EDGE ( 'NONE', *, *, #721, .F. ) ;
#729 = ADVANCED_FACE ( 'NONE', ( #122 ), #733, .F. ) ;
#730 = DIRECTION ( 'NONE',  ( 0.0000000000000000000, 0.0000000000000000000, 1.000000000000000000 ) ) ;
#731 = CARTESIAN_POINT ( 'NONE',  ( 16.70000000000000639, -42.00000000000000000, 23.00000000000000000 ) ) ;
#732 = PERSON_AND_ORGANIZATION ( #400, #674 ) ;
#733 = CYLINDRICAL_SURFACE ( 'NONE', #513, 1.399999999999998579 ) ;
#734 = CARTESIAN_POINT ( 'NONE',  ( 37.60909824161261383, 0.0000000000000000000, 46.00000000000000000 ) ) ;
#735 = AXIS2_PLACEMENT_3D ( 'NONE', #440, #769, #1028 ) ;
#736 = VECTOR ( 'NONE', #744, 1000.000000000000000 ) ;
#737 = DIRECTION ( 'NONE',  ( -1.000000000000000000, 0.0000000000000000000, 0.0000000000000000000 ) ) ;
#738 = VERTEX_POINT ( 'NONE', #1083 ) ;
#739 = ORIENTED_EDGE ( 'NONE', *, *, #115, .F. ) ;
#740 = VERTEX_POINT ( 'NONE', #651 ) ;
#741 = EDGE_CURVE ( 'NONE', #999, #1068, #463, .T. ) ;
#742 = DIRECTION ( 'NONE',  ( 1.000000000000000000, 1.700709290173340409E-17, -0.0000000000000000000 ) ) ;
#743 = CC_DESIGN_DATE_AND_TIME_ASSIGNMENT ( #424, #1034, ( #1018 ) ) ;
#744 = DIRECTION ( 'NONE',  ( 1.000000000000000000, 0.0000000000000000000, 0.0000000000000000000 ) ) ;
#745 = CALENDAR_DATE ( 2019, 12, 12 ) ;
#746 = CIRCLE ( 'NONE', #872, 1.399999999999998579 ) ;
#747 = CARTESIAN_POINT ( 'NONE',  ( 4.000000000000000000, -13.39999999999999858, 8.000000000000000000 ) ) ;
#748 = CYLINDRICAL_SURFACE ( 'NONE', #702, 1.399999999999995026 ) ;
#749 = EDGE_LOOP ( 'NONE', ( #582, #959, #33, #701, #153, #472 ) ) ;
#750 = CARTESIAN_POINT ( 'NONE',  ( 2.000000000000000000, -2.000000000000001776, 46.00000000000000000 ) ) ;
#751 = AXIS2_PLACEMENT_3D ( 'NONE', #533, #963, #541 ) ;
#752 = EDGE_LOOP ( 'NONE', ( #19, #1011, #141, #595 ) ) ;
#753 = ORIENTED_EDGE ( 'NONE', *, *, #1099, .F. ) ;
#754 = PLANE ( 'NONE',  #1027 ) ;
#755 = AXIS2_PLACEMENT_3D ( 'NONE', #53, #791, #1046 ) ;
#756 = CARTESIAN_POINT ( 'NONE',  ( -7.000000000000002665, -10.60000000000000497, 38.00000000000000000 ) ) ;
#757 = CIRCLE ( 'NONE', #850, 1.399999999999995026 ) ;
#758 = CARTESIAN_POINT ( 'NONE',  ( 3.384478426734501024E-16, -38.00000000000000000, 44.00000000000000000 ) ) ;
#759 = CIRCLE ( 'NONE', #1007, 1.399999999999995026 ) ;
#760 = DIRECTION ( 'NONE',  ( 1.000000000000000000, 1.700709290173340409E-17, -0.0000000000000000000 ) ) ;
#761 = AXIS2_PLACEMENT_3D ( 'NONE', #750, #1095, #576 ) ;
#762 = EDGE_LOOP ( 'NONE', ( #138, #930, #377, #518, #804, #330 ) ) ;
#763 = VERTEX_POINT ( 'NONE', #324 ) ;
#764 = ORIENTED_EDGE ( 'NONE', *, *, #741, .F. ) ;
#765 = DIRECTION ( 'NONE',  ( 0.0000000000000000000, 0.0000000000000000000, 1.000000000000000000 ) ) ;
#766 = DIRECTION ( 'NONE',  ( -0.0000000000000000000, 0.0000000000000000000, 1.000000000000000000 ) ) ;
#767 = EDGE_CURVE ( 'NONE', #607, #1038, #346, .T. ) ;
#768 = AXIS2_PLACEMENT_3D ( 'NONE', #214, #794, #797 ) ;
#769 = DIRECTION ( 'NONE',  ( -1.261617073437677999E-16, 1.000000000000000000, -0.0000000000000000000 ) ) ;
#770 = CALENDAR_DATE ( 2019, 12, 12 ) ;
#771 = DIRECTION ( 'NONE',  ( 0.0000000000000000000, 1.000000000000000000, 0.0000000000000000000 ) ) ;
#772 = FACE_OUTER_BOUND ( 'NONE', #1, .T. ) ;
#773 = VECTOR ( 'NONE', #84, 1000.000000000000000 ) ;
#774 = DIRECTION ( 'NONE',  ( 8.906522175617050951E-18, -1.000000000000000000, 0.0000000000000000000 ) ) ;
#775 = CYLINDRICAL_SURFACE ( 'NONE', #821, 1.399999999999995026 ) ;
#776 = APPROVAL_STATUS ( 'not_yet_approved' ) ;
#777 = ORIENTED_EDGE ( 'NONE', *, *, #1099, .T. ) ;
#778 = EDGE_CURVE ( 'NONE', #379, #275, #240, .T. ) ;
#779 = ORIENTED_EDGE ( 'NONE', *, *, #941, .F. ) ;
#780 = DIRECTION ( 'NONE',  ( -1.000000000000000000, 0.0000000000000000000, 0.0000000000000000000 ) ) ;
#781 = ORIENTED_EDGE ( 'NONE', *, *, #11, .F. ) ;
#782 = EDGE_CURVE ( 'NONE', #139, #193, #978, .T. ) ;
#783 = VECTOR ( 'NONE', #760, 1000.000000000000000 ) ;
#784 = CIRCLE ( 'NONE', #121, 2.000000000000001776 ) ;
#785 = VECTOR ( 'NONE', #196, 1000.000000000000000 ) ;
#786 = CARTESIAN_POINT ( 'NONE',  ( -7.000000000000001776, -33.39999999999999858, 37.99999999999999289 ) ) ;
#787 = ORIENTED_EDGE ( 'NONE', *, *, #356, .F. ) ;
#788 = VERTEX_POINT ( 'NONE', #810 ) ;
#789 = ORIENTED_EDGE ( 'NONE', *, *, #836, .T. ) ;
#790 = AXIS2_PLACEMENT_3D ( 'NONE', #835, #171, #922 ) ;
#791 = DIRECTION ( 'NONE',  ( 0.0000000000000000000, 0.0000000000000000000, -1.000000000000000000 ) ) ;
#792 = VERTEX_POINT ( 'NONE', #557 ) ;
#793 = ADVANCED_FACE ( 'NONE', ( #323 ), #660, .T. ) ;
#794 = DIRECTION ( 'NONE',  ( 1.000000000000000000, 1.700709290173340101E-17, -0.0000000000000000000 ) ) ;
#795 = DIRECTION ( 'NONE',  ( 0.0000000000000000000, -0.0000000000000000000, -1.000000000000000000 ) ) ;
#796 = EDGE_CURVE ( 'NONE', #859, #285, #759, .T. ) ;
#797 = DIRECTION ( 'NONE',  ( -1.700709290173340101E-17, 1.000000000000000000, 0.0000000000000000000 ) ) ;
#798 = CC_DESIGN_DATE_AND_TIME_ASSIGNMENT ( #867, #700, ( #150 ) ) ;
#799 = FACE_BOUND ( 'NONE', #610, .T. ) ;
#800 = ORIENTED_EDGE ( 'NONE', *, *, #52, .T. ) ;
#801 = DIRECTION ( 'NONE',  ( 0.0000000000000000000, 1.000000000000000000, 0.0000000000000000000 ) ) ;
#802 = ORIENTED_EDGE ( 'NONE', *, *, #924, .F. ) ;
#803 = CARTESIAN_POINT ( 'NONE',  ( 4.000000000000000888, -32.00000000000000000, 37.99999999999999289 ) ) ;
#804 = ORIENTED_EDGE ( 'NONE', *, *, #434, .T. ) ;
#805 = EDGE_CURVE ( 'NONE', #738, #792, #96, .T. ) ;
#806 = ORIENTED_EDGE ( 'NONE', *, *, #614, .T. ) ;
#807 = AXIS2_PLACEMENT_3D ( 'NONE', #40, #456, #211 ) ;
#808 = CARTESIAN_POINT ( 'NONE',  ( 4.000000000000000000, -12.00000000000000178, 8.000000000000000000 ) ) ;
#809 = CARTESIAN_POINT ( 'NONE',  ( 59.00000000000000000, -4.000000000000000000, 0.0000000000000000000 ) ) ;
#810 = CARTESIAN_POINT ( 'NONE',  ( 4.000000000000000888, -30.60000000000000497, 8.000000000000007105 ) ) ;
#811 = CARTESIAN_POINT ( 'NONE',  ( 5.999999999999998224, -5.999999999999992895, 46.00000000000000000 ) ) ;
#812 = VECTOR ( 'NONE', #939, 1000.000000000000000 ) ;
#813 = AXIS2_PLACEMENT_3D ( 'NONE', #224, #885, #1064 ) ;
#814 = LINE ( 'NONE', #809, #31 ) ;
#815 = CARTESIAN_POINT ( 'NONE',  ( 23.20000000000000639, -42.00000000000000000, 16.50000000000000000 ) ) ;
#816 = VECTOR ( 'NONE', #519, 1000.000000000000000 ) ;
#817 = ORIENTED_EDGE ( 'NONE', *, *, #796, .T. ) ;
#818 = CARTESIAN_POINT ( 'NONE',  ( 23.19999999999999929, -3.999999999999994671, 16.50000000000000000 ) ) ;
#819 = ORIENTED_EDGE ( 'NONE', *, *, #206, .T. ) ;
#820 = CARTESIAN_POINT ( 'NONE',  ( 2.000000000000000000, 0.0000000000000000000, 46.00000000000000000 ) ) ;
#821 = AXIS2_PLACEMENT_3D ( 'NONE', #487, #742, #824 ) ;
#822 = DIRECTION ( 'NONE',  ( -0.0000000000000000000, -0.0000000000000000000, 1.000000000000000000 ) ) ;
#823 = DIRECTION ( 'NONE',  ( 1.700709290173337636E-17, -1.000000000000000000, 0.0000000000000000000 ) ) ;
#824 = DIRECTION ( 'NONE',  ( 0.0000000000000000000, 1.000000000000000000, 0.0000000000000000000 ) ) ;
#825 = PERSON_AND_ORGANIZATION ( #400, #674 ) ;
#826 = EDGE_CURVE ( 'NONE', #235, #245, #994, .T. ) ;
#827 = AXIS2_PLACEMENT_3D ( 'NONE', #808, #399, #238 ) ;
#828 = CIRCLE ( 'NONE', #935, 1.399999999999996803 ) ;
#829 = CARTESIAN_POINT ( 'NONE',  ( 3.384478426734501024E-16, -38.00000000000000000, 44.00000000000000000 ) ) ;
#830 = FACE_OUTER_BOUND ( 'NONE', #1013, .T. ) ;
#831 = ORIENTED_EDGE ( 'NONE', *, *, #836, .F. ) ;
#832 = VERTEX_POINT ( 'NONE', #151 ) ;
#833 = CARTESIAN_POINT ( 'NONE',  ( 21.80000000000000426, 0.0000000000000000000, 16.50000000000000000 ) ) ;
#834 = ORIENTED_EDGE ( 'NONE', *, *, #162, .F. ) ;
#835 = CARTESIAN_POINT ( 'NONE',  ( 28.29999999999999716, 0.0000000000000000000, 23.00000000000000000 ) ) ;
#836 = EDGE_CURVE ( 'NONE', #832, #792, #883, .T. ) ;
#837 = DIRECTION ( 'NONE',  ( -1.261617073437677999E-16, 1.000000000000000000, -0.0000000000000000000 ) ) ;
#838 = VECTOR ( 'NONE', #249, 1000.000000000000000 ) ;
#839 = DIRECTION ( 'NONE',  ( 1.000000000000000000, 1.700709290173340409E-17, -0.0000000000000000000 ) ) ;
#840 = CIRCLE ( 'NONE', #213, 1.399999999999998579 ) ;
#841 = EDGE_CURVE ( 'NONE', #365, #667, #228, .T. ) ;
#842 = CIRCLE ( 'NONE', #408, 1.399999999999998579 ) ;
#843 = CARTESIAN_POINT ( 'NONE',  ( 37.60909824161262804, 0.0000000000000000000, 0.0000000000000000000 ) ) ;
#844 = AXIS2_PLACEMENT_3D ( 'NONE', #681, #10, #2 ) ;
#845 = ORIENTED_EDGE ( 'NONE', *, *, #965, .T. ) ;
#846 = CARTESIAN_POINT ( 'NONE',  ( 8.798308690342673899E-16, -13.39999999999999858, 38.00000000000000000 ) ) ;
#847 = ORIENTED_EDGE ( 'NONE', *, *, #376, .T. ) ;
#848 = ORIENTED_EDGE ( 'NONE', *, *, #599, .F. ) ;
#849 = DIRECTION ( 'NONE',  ( 8.906522175617061737E-18, -1.000000000000000000, 0.0000000000000000000 ) ) ;
#850 = AXIS2_PLACEMENT_3D ( 'NONE', #169, #254, #417 ) ;
#851 = CARTESIAN_POINT ( 'NONE',  ( 4.000000000000000000, -3.999999999999993339, 0.0000000000000000000 ) ) ;
#852 = DIRECTION ( 'NONE',  ( 1.000000000000000000, 0.0000000000000000000, 0.0000000000000000000 ) ) ;
#853 = APPROVAL_PERSON_ORGANIZATION ( #644, #264, #876 ) ;
#854 = LINE ( 'NONE', #756, #783 ) ;
#855 = DIRECTION ( 'NONE',  ( 1.000000000000000000, 1.700709290173340409E-17, -0.0000000000000000000 ) ) ;
#856 = VECTOR ( 'NONE', #969, 1000.000000000000000 ) ;
#857 = EDGE_CURVE ( 'NONE', #18, #259, #953, .T. ) ;
#858 = LINE ( 'NONE', #648, #606 ) ;
#859 = VERTEX_POINT ( 'NONE', #237 ) ;
#860 = CARTESIAN_POINT ( 'NONE',  ( 28.29999999999999716, 0.0000000000000000000, 23.00000000000000000 ) ) ;
#861 = CC_DESIGN_PERSON_AND_ORGANIZATION_ASSIGNMENT ( #70, #624, ( #931 ) ) ;
#862 = EDGE_LOOP ( 'NONE', ( #128, #521, #687, #764 ) ) ;
#863 = CARTESIAN_POINT ( 'NONE',  ( 39.60909824161262804, 0.0000000000000000000, 44.00000000000000000 ) ) ;
#864 = DIRECTION ( 'NONE',  ( 8.906522175617109500E-18, -1.000000000000000000, 0.0000000000000000000 ) ) ;
#865 = EDGE_CURVE ( 'NONE', #245, #368, #134, .T. ) ;
#866 = DIRECTION ( 'NONE',  ( 1.000000000000000000, 1.700709290173340101E-17, 0.0000000000000000000 ) ) ;
#867 = DATE_AND_TIME ( #745, #186 ) ;
#868 = LINE ( 'NONE', #897, #527 ) ;
#869 = CIRCLE ( 'NONE', #666, 1.399999999999995026 ) ;
#870 = CIRCLE ( 'NONE', #483, 1.399999999999995026 ) ;
#871 = VERTEX_POINT ( 'NONE', #992 ) ;
#872 = AXIS2_PLACEMENT_3D ( 'NONE', #243, #1103, #160 ) ;
#873 = ORIENTED_EDGE ( 'NONE', *, *, #185, .T. ) ;
#874 = DIRECTION ( 'NONE',  ( 1.261617073437677999E-16, 1.000000000000000000, -0.0000000000000000000 ) ) ;
#875 = ORIENTED_EDGE ( 'NONE', *, *, #447, .F. ) ;
#876 = APPROVAL_ROLE ( '' ) ;
#877 = DIRECTION ( 'NONE',  ( -0.0000000000000000000, 1.000000000000000000, -0.0000000000000000000 ) ) ;
#878 = CARTESIAN_POINT ( 'NONE',  ( 4.898587196589409870E-16, -55.00000000000000000, 46.00000000000000000 ) ) ;
#879 = APPLICATION_CONTEXT ( 'configuration controlled 3d designs of mechanical parts and assemblies' ) ;
#880 = EDGE_CURVE ( 'NONE', #404, #99, #868, .T. ) ;
#881 = CARTESIAN_POINT ( 'NONE',  ( 39.60909824161262804, 0.0000000000000000000, 46.00000000000000000 ) ) ;
#882 = LOCAL_TIME ( 17, 13, 25.00000000000000000, #961 ) ;
#883 = CIRCLE ( 'NONE', #683, 1.399999999999998579 ) ;
#884 = VECTOR ( 'NONE', #370, 1000.000000000000000 ) ;
#885 = DIRECTION ( 'NONE',  ( -0.0000000000000000000, 1.000000000000000000, -0.0000000000000000000 ) ) ;
#886 = CYLINDRICAL_SURFACE ( 'NONE', #896, 1.399999999999995026 ) ;
#887 = DIRECTION ( 'NONE',  ( -1.000000000000000000, 1.261617073437677999E-16, 0.0000000000000000000 ) ) ;
#888 = EDGE_CURVE ( 'NONE', #1023, #235, #562, .T. ) ;
#889 = ORIENTED_EDGE ( 'NONE', *, *, #223, .T. ) ;
#890 = EDGE_LOOP ( 'NONE', ( #378, #654 ) ) ;
#891 = AXIS2_PLACEMENT_3D ( 'NONE', #157, #143, #737 ) ;
#892 = CARTESIAN_POINT ( 'NONE',  ( 37.60909824161262804, -10.00000000000000000, 2.000000000000001776 ) ) ;
#893 = ORIENTED_EDGE ( 'NONE', *, *, #142, .F. ) ;
#894 = CARTESIAN_POINT ( 'NONE',  ( 4.000000000000000000, -5.999999999999992895, 46.00000000000000000 ) ) ;
#895 = DIRECTION ( 'NONE',  ( 0.0000000000000000000, 1.000000000000000000, 0.0000000000000000000 ) ) ;
#896 = AXIS2_PLACEMENT_3D ( 'NONE', #490, #482, #155 ) ;
#897 = CARTESIAN_POINT ( 'NONE',  ( 26.90000000000000924, -42.00000000000000000, 23.00000000000000000 ) ) ;
#898 = CIRCLE ( 'NONE', #85, 2.000000000000001776 ) ;
#899 = ADVANCED_FACE ( 'NONE', ( #425 ), #988, .F. ) ;
#900 = CIRCLE ( 'NONE', #813, 1.399999999999995026 ) ;
#901 = ORIENTED_EDGE ( 'NONE', *, *, #580, .T. ) ;
#902 = ORIENTED_EDGE ( 'NONE', *, *, #1014, .T. ) ;
#903 = ORIENTED_EDGE ( 'NONE', *, *, #522, .T. ) ;
#904 = EDGE_CURVE ( 'NONE', #4, #1002, #386, .T. ) ;
#905 = VERTEX_POINT ( 'NONE', #661 ) ;
#906 = APPROVAL ( #283, 'UNSPECIFIED' ) ;
#907 = DIRECTION ( 'NONE',  ( 1.000000000000000000, 1.700709290173340409E-17, -0.0000000000000000000 ) ) ;
#908 = ADVANCED_FACE ( 'NONE', ( #362 ), #603, .F. ) ;
#909 = CALENDAR_DATE ( 2019, 12, 12 ) ;
#910 = CIRCLE ( 'NONE', #625, 2.000000000000000000 ) ;
#911 = DIRECTION ( 'NONE',  ( -1.261617073437677999E-16, 1.000000000000000000, -0.0000000000000000000 ) ) ;
#912 = VECTOR ( 'NONE', #837, 1000.000000000000000 ) ;
#913 = EDGE_LOOP ( 'NONE', ( #834, #520, #902, #79 ) ) ;
#914 = ORIENTED_EDGE ( 'NONE', *, *, #941, .T. ) ;
#915 = CARTESIAN_POINT ( 'NONE',  ( 8.673617379884035472E-16, -32.00000000000000000, 8.000000000000007105 ) ) ;
#916 = ORIENTED_EDGE ( 'NONE', *, *, #1084, .F. ) ;
#917 = ORIENTED_EDGE ( 'NONE', *, *, #364, .F. ) ;
#918 = EDGE_CURVE ( 'NONE', #125, #4, #159, .T. ) ;
#919 = AXIS2_PLACEMENT_3D ( 'NONE', #691, #265, #771 ) ;
#920 = CARTESIAN_POINT ( 'NONE',  ( -7.000000000000002665, -12.00000000000000178, 8.000000000000000000 ) ) ;
#921 = DIRECTION ( 'NONE',  ( 1.000000000000000000, 1.700709290173340409E-17, -0.0000000000000000000 ) ) ;
#922 = DIRECTION ( 'NONE',  ( 0.0000000000000000000, 0.0000000000000000000, -1.000000000000000000 ) ) ;
#923 = LOCAL_TIME ( 17, 13, 25.00000000000000000, #1087 ) ;
#924 = EDGE_CURVE ( 'NONE', #416, #91, #746, .T. ) ;
#925 = FACE_OUTER_BOUND ( 'NONE', #862, .T. ) ;
#926 = CARTESIAN_POINT ( 'NONE',  ( 4.898587196589409870E-16, -55.00000000000000000, 46.00000000000000000 ) ) ;
#927 = CC_DESIGN_PERSON_AND_ORGANIZATION_ASSIGNMENT ( #56, #197, ( #61 ) ) ;
#928 = FACE_OUTER_BOUND ( 'NONE', #80, .T. ) ;
#929 = CARTESIAN_POINT ( 'NONE',  ( 21.80000000000001137, -42.00000000000000000, 16.50000000000000000 ) ) ;
#930 = ORIENTED_EDGE ( 'NONE', *, *, #198, .T. ) ;
#931 = PRODUCT ( 'camera link left', 'camera link left', '', ( #451 ) ) ;
#932 = VERTEX_POINT ( 'NONE', #829 ) ;
#933 = ORIENTED_EDGE ( 'NONE', *, *, #526, .T. ) ;
#934 = CARTESIAN_POINT ( 'NONE',  ( 37.60909824161262804, 0.0000000000000000000, 44.00000000000000000 ) ) ;
#935 = AXIS2_PLACEMENT_3D ( 'NONE', #523, #357, #849 ) ;
#936 = DIRECTION ( 'NONE',  ( 1.261617073437677999E-16, 1.000000000000000000, -0.0000000000000000000 ) ) ;
#937 = CARTESIAN_POINT ( 'NONE',  ( 5.999999999999998224, -3.999999999999993339, 0.0000000000000000000 ) ) ;
#938 = DATE_AND_TIME ( #909, #882 ) ;
#939 = DIRECTION ( 'NONE',  ( 0.0000000000000000000, 0.0000000000000000000, -1.000000000000000000 ) ) ;
#940 = VECTOR ( 'NONE', #462, 1000.000000000000000 ) ;
#941 = EDGE_CURVE ( 'NONE', #205, #871, #344, .T. ) ;
#942 = FACE_OUTER_BOUND ( 'NONE', #714, .T. ) ;
#943 = DIRECTION ( 'NONE',  ( -1.000000000000000000, -8.906522175617109500E-18, 0.0000000000000000000 ) ) ;
#944 = ORIENTED_EDGE ( 'NONE', *, *, #241, .T. ) ;
#945 = CARTESIAN_POINT ( 'NONE',  ( 8.673617379884035472E-16, -32.00000000000000000, 37.99999999999999289 ) ) ;
#946 = EDGE_LOOP ( 'NONE', ( #156, #800, #517, #819 ) ) ;
#947 = VERTEX_POINT ( 'NONE', #507 ) ;
#948 = CLOSED_SHELL ( 'NONE', ( #132, #989, #63, #69, #972, #321, #395, #405, #656, #899, #729, #1056, #310, #908, #381, #722, #300, #147, #643, #480, #997, #316, #628, #560, #569, #793, #710, #398, #1074, #1070 ) ) ;
#949 = EDGE_CURVE ( 'NONE', #36, #542, #146, .T. ) ;
#950 = AXIS2_PLACEMENT_3D ( 'NONE', #998, #564, #823 ) ;
#951 = APPROVAL_ROLE ( '' ) ;
#952 = DIRECTION ( 'NONE',  ( 1.000000000000000000, 0.0000000000000000000, 0.0000000000000000000 ) ) ;
#953 = LINE ( 'NONE', #815, #108 ) ;
#954 = FACE_BOUND ( 'NONE', #890, .T. ) ;
#955 = EDGE_CURVE ( 'NONE', #99, #168, #120, .T. ) ;
#956 = LINE ( 'NONE', #561, #505 ) ;
#957 = ORIENTED_EDGE ( 'NONE', *, *, #73, .T. ) ;
#958 = DIRECTION ( 'NONE',  ( -1.000000000000000000, 0.0000000000000000000, 0.0000000000000000000 ) ) ;
#959 = ORIENTED_EDGE ( 'NONE', *, *, #671, .T. ) ;
#960 = DIRECTION ( 'NONE',  ( -1.261617073437677999E-16, 1.000000000000000000, -0.0000000000000000000 ) ) ;
#961 = COORDINATED_UNIVERSAL_TIME_OFFSET ( 0, 0, .AHEAD. ) ;
#962 = CYLINDRICAL_SURFACE ( 'NONE', #584, 2.000000000000001776 ) ;
#963 = DIRECTION ( 'NONE',  ( -1.000000000000000000, -8.906522175617109500E-18, 0.0000000000000000000 ) ) ;
#964 = FACE_BOUND ( 'NONE', #1022, .T. ) ;
#965 = EDGE_CURVE ( 'NONE', #947, #788, #757, .T. ) ;
#966 = ORIENTED_EDGE ( 'NONE', *, *, #538, .T. ) ;
#967 = AXIS2_PLACEMENT_3D ( 'NONE', #929, #1086, #333 ) ;
#968 = ORIENTED_EDGE ( 'NONE', *, *, #284, .F. ) ;
#969 = DIRECTION ( 'NONE',  ( -8.906522175617109500E-18, 1.000000000000000000, 0.0000000000000000000 ) ) ;
#970 = ORIENTED_EDGE ( 'NONE', *, *, #614, .F. ) ;
#971 = ORIENTED_EDGE ( 'NONE', *, *, #671, .F. ) ;
#972 = ADVANCED_FACE ( 'NONE', ( #438 ), #86, .F. ) ;
#973 = DIRECTION ( 'NONE',  ( -1.000000000000000000, 0.0000000000000000000, 0.0000000000000000000 ) ) ;
#974 = DIRECTION ( 'NONE',  ( 0.0000000000000000000, 1.000000000000000000, 0.0000000000000000000 ) ) ;
#975 = DIRECTION ( 'NONE',  ( -1.000000000000000000, 0.0000000000000000000, 0.0000000000000000000 ) ) ;
#976 = DIRECTION ( 'NONE',  ( -1.261617073437677999E-16, 1.000000000000000000, -0.0000000000000000000 ) ) ;
#977 = VECTOR ( 'NONE', #1015, 1000.000000000000000 ) ;
#978 = LINE ( 'NONE', #658, #148 ) ;
#979 = CARTESIAN_POINT ( 'NONE',  ( 15.30000000000000071, -3.999999999999994227, 23.00000000000000000 ) ) ;
#980 = CARTESIAN_POINT ( 'NONE',  ( -7.000000000000001776, -38.00000000000000000, 46.00000000000000000 ) ) ;
#981 = EDGE_CURVE ( 'NONE', #679, #1068, #215, .T. ) ;
#982 = EDGE_LOOP ( 'NONE', ( #444, #957, #623, #473 ) ) ;
#983 = EDGE_LOOP ( 'NONE', ( #467, #570, #590, #195 ) ) ;
#984 = PRODUCT_RELATED_PRODUCT_CATEGORY ( 'detail', '', ( #931 ) ) ;
#985 = CARTESIAN_POINT ( 'NONE',  ( 21.80000000000000426, 0.0000000000000000000, 29.50000000000000000 ) ) ;
#986 = ORIENTED_EDGE ( 'NONE', *, *, #299, .T. ) ;
#987 = DIRECTION ( 'NONE',  ( 1.000000000000000000, 0.0000000000000000000, 0.0000000000000000000 ) ) ;
#988 = PLANE ( 'NONE',  #649 ) ;
#989 = ADVANCED_FACE ( 'NONE', ( #646 ), #694, .F. ) ;
#990 = CARTESIAN_POINT ( 'NONE',  ( 4.000000000000000888, -38.00000000000000000, 46.00000000000000000 ) ) ;
#991 = AXIS2_PLACEMENT_3D ( 'NONE', #272, #690, #112 ) ;
#992 = CARTESIAN_POINT ( 'NONE',  ( 39.60909824161262804, 0.0000000000000000000, 2.000000000000001776 ) ) ;
#993 = FACE_OUTER_BOUND ( 'NONE', #709, .T. ) ;
#994 = LINE ( 'NONE', #571, #695 ) ;
#995 = DIRECTION ( 'NONE',  ( -0.0000000000000000000, 0.0000000000000000000, 1.000000000000000000 ) ) ;
#996 = LINE ( 'NONE', #672, #912 ) ;
#997 = ADVANCED_FACE ( 'NONE', ( #993 ), #166, .F. ) ;
#998 = CARTESIAN_POINT ( 'NONE',  ( 6.122553444624024981E-16, -36.00000000000000000, 44.00000000000000000 ) ) ;
#999 = VERTEX_POINT ( 'NONE', #747 ) ;
#1000 = ORIENTED_EDGE ( 'NONE', *, *, #115, .T. ) ;
#1001 = AXIS2_PLACEMENT_3D ( 'NONE', #500, #420, #87 ) ;
#1002 = VERTEX_POINT ( 'NONE', #863 ) ;
#1003 = ORIENTED_EDGE ( 'NONE', *, *, #162, .T. ) ;
#1004 = AXIS2_PLACEMENT_3D ( 'NONE', #184, #765, #609 ) ;
#1005 = DIRECTION ( 'NONE',  ( 8.906522175617050951E-18, -1.000000000000000000, 0.0000000000000000000 ) ) ;
#1006 = DIRECTION ( 'NONE',  ( -1.000000000000000000, 1.261617073437677999E-16, 0.0000000000000000000 ) ) ;
#1007 = AXIS2_PLACEMENT_3D ( 'NONE', #234, #1069, #230 ) ;
#1008 = DIRECTION ( 'NONE',  ( 0.0000000000000000000, 1.000000000000000000, 0.0000000000000000000 ) ) ;
#1009 = VECTOR ( 'NONE', #594, 1000.000000000000000 ) ;
#1010 = FACE_OUTER_BOUND ( 'NONE', #1026, .T. ) ;
#1011 = ORIENTED_EDGE ( 'NONE', *, *, #206, .F. ) ;
#1012 = ORIENTED_EDGE ( 'NONE', *, *, #888, .T. ) ;
#1013 = EDGE_LOOP ( 'NONE', ( #688, #669, #271, #50 ) ) ;
#1014 = EDGE_CURVE ( 'NONE', #542, #788, #1088, .T. ) ;
#1015 = DIRECTION ( 'NONE',  ( 0.0000000000000000000, 0.0000000000000000000, -1.000000000000000000 ) ) ;
#1016 = DIRECTION ( 'NONE',  ( 8.906522175617103337E-18, -1.000000000000000000, 0.0000000000000000000 ) ) ;
#1017 = CARTESIAN_POINT ( 'NONE',  ( 4.000000000000000000, -12.00000000000000178, 8.000000000000000000 ) ) ;
#1018 = PRODUCT_DEFINITION ( 'UNKNOWN', '', #61, #696 ) ;
#1019 = CIRCLE ( 'NONE', #135, 2.000000000000001776 ) ;
#1020 = FACE_BOUND ( 'NONE', #540, .T. ) ;
#1021 = VERTEX_POINT ( 'NONE', #1029 ) ;
#1022 = EDGE_LOOP ( 'NONE', ( #802, #753 ) ) ;
#1023 = VERTEX_POINT ( 'NONE', #604 ) ;
#1024 = DIRECTION ( 'NONE',  ( -1.261617073437677999E-16, 1.000000000000000000, -0.0000000000000000000 ) ) ;
#1025 = EDGE_CURVE ( 'NONE', #368, #205, #898, .T. ) ;
#1026 = EDGE_LOOP ( 'NONE', ( #90, #579, #817, #260 ) ) ;
#1027 = AXIS2_PLACEMENT_3D ( 'NONE', #926, #103, #864 ) ;
#1028 = DIRECTION ( 'NONE',  ( -1.000000000000000000, 0.0000000000000000000, 0.0000000000000000000 ) ) ;
#1029 = CARTESIAN_POINT ( 'NONE',  ( 3.206347983222158865E-16, -36.00000000000000000, 0.0000000000000000000 ) ) ;
#1030 = DIRECTION ( 'NONE',  ( 0.0000000000000000000, 1.000000000000000000, 0.0000000000000000000 ) ) ;
#1031 = EDGE_CURVE ( 'NONE', #1047, #404, #615, .T. ) ;
#1032 = VECTOR ( 'NONE', #1006, 1000.000000000000000 ) ;
#1033 = ORIENTED_EDGE ( 'NONE', *, *, #1053, .T. ) ;
#1034 = DATE_TIME_ROLE ( 'creation_date' ) ;
#1035 = VERTEX_POINT ( 'NONE', #187 ) ;
#1036 = ORIENTED_EDGE ( 'NONE', *, *, #11, .T. ) ;
#1037 = CARTESIAN_POINT ( 'NONE',  ( 2.000000000000000000, -2.000000000000001776, 0.0000000000000000000 ) ) ;
#1038 = VERTEX_POINT ( 'NONE', #7 ) ;
#1039 = APPROVAL ( #1041, 'UNSPECIFIED' ) ;
#1040 = CARTESIAN_POINT ( 'NONE',  ( 4.000000000000000888, -35.99999999999999289, 0.0000000000000000000 ) ) ;
#1041 = APPROVAL_STATUS ( 'not_yet_approved' ) ;
#1042 = DIRECTION ( 'NONE',  ( 1.000000000000000000, 1.700709290173340409E-17, -0.0000000000000000000 ) ) ;
#1043 = CIRCLE ( 'NONE', #528, 1.399999999999998579 ) ;
#1044 = AXIS2_PLACEMENT_3D ( 'NONE', #83, #499, #334 ) ;
#1045 = VECTOR ( 'NONE', #534, 1000.000000000000000 ) ;
#1046 = DIRECTION ( 'NONE',  ( -1.000000000000000000, 0.0000000000000000000, 0.0000000000000000000 ) ) ;
#1047 = VERTEX_POINT ( 'NONE', #511 ) ;
#1048 = CARTESIAN_POINT ( 'NONE',  ( 20.40000000000000924, -3.999999999999994671, 16.50000000000000000 ) ) ;
#1049 = EDGE_LOOP ( 'NONE', ( #89, #777, #680, #901 ) ) ;
#1050 = EDGE_LOOP ( 'NONE', ( #1082, #329, #313, #1096 ) ) ;
#1051 = DIRECTION ( 'NONE',  ( 1.000000000000000000, 8.906522175617109500E-18, -0.0000000000000000000 ) ) ;
#1052 = ORIENTED_EDGE ( 'NONE', *, *, #580, .F. ) ;
#1053 = EDGE_CURVE ( 'NONE', #446, #231, #854, .T. ) ;
#1054 = AXIS2_PLACEMENT_3D ( 'NONE', #104, #274, #22 ) ;
#1055 = DIRECTION ( 'NONE',  ( 0.0000000000000000000, 1.000000000000000000, 0.0000000000000000000 ) ) ;
#1056 = ADVANCED_FACE ( 'NONE', ( #772 ), #630, .F. ) ;
#1057 = CALENDAR_DATE ( 2019, 12, 12 ) ;
#1058 = DIRECTION ( 'NONE',  ( 1.261617073437677999E-16, 1.000000000000000000, -0.0000000000000000000 ) ) ;
#1059 = VECTOR ( 'NONE', #1024, 1000.000000000000000 ) ;
#1060 = DIRECTION ( 'NONE',  ( -1.000000000000000000, -1.700709290173340409E-17, 0.0000000000000000000 ) ) ;
#1061 = LINE ( 'NONE', #170, #736 ) ;
#1062 = FACE_OUTER_BOUND ( 'NONE', #697, .T. ) ;
#1063 = AXIS2_PLACEMENT_3D ( 'NONE', #934, #92, #78 ) ;
#1064 = DIRECTION ( 'NONE',  ( 0.0000000000000000000, 0.0000000000000000000, -1.000000000000000000 ) ) ;
#1065 = ORIENTED_EDGE ( 'NONE', *, *, #767, .F. ) ;
#1066 = CARTESIAN_POINT ( 'NONE',  ( 8.548926069425396059E-16, -30.60000000000000497, 8.000000000000007105 ) ) ;
#1067 = ORIENTED_EDGE ( 'NONE', *, *, #336, .F. ) ;
#1068 = VERTEX_POINT ( 'NONE', #682 ) ;
#1069 = DIRECTION ( 'NONE',  ( 1.000000000000000000, 1.700709290173340101E-17, 0.0000000000000000000 ) ) ;
#1070 = ADVANCED_FACE ( 'NONE', ( #411 ), #476, .F. ) ;
#1071 = AXIS2_PLACEMENT_3D ( 'NONE', #1089, #573, #320 ) ;
#1072 = DIRECTION ( 'NONE',  ( -0.0000000000000000000, -1.000000000000000000, -0.0000000000000000000 ) ) ;
#1073 = VECTOR ( 'NONE', #855, 1000.000000000000000 ) ;
#1074 = ADVANCED_FACE ( 'NONE', ( #925 ), #172, .F. ) ;
#1075 = FACE_BOUND ( 'NONE', #167, .T. ) ;
#1076 = CYLINDRICAL_SURFACE ( 'NONE', #735, 1.399999999999995026 ) ;
#1077 = EDGE_CURVE ( 'NONE', #432, #18, #57, .T. ) ;
#1078 = ORIENTED_EDGE ( 'NONE', *, *, #918, .T. ) ;
#1079 = MANIFOLD_SOLID_BREP ( 'Mirror2', #948 ) ;
#1080 = ORIENTED_EDGE ( 'NONE', *, *, #501, .T. ) ;
#1081 = AXIS2_PLACEMENT_3D ( 'NONE', #596, #355, #591 ) ;
#1082 = ORIENTED_EDGE ( 'NONE', *, *, #410, .F. ) ;
#1083 = CARTESIAN_POINT ( 'NONE',  ( 16.69999999999999929, -3.999999999999994227, 23.00000000000000000 ) ) ;
#1084 = EDGE_CURVE ( 'NONE', #248, #205, #29, .T. ) ;
#1085 = AXIS2_PLACEMENT_3D ( 'NONE', #1037, #353, #952 ) ;
#1086 = DIRECTION ( 'NONE',  ( -1.261617073437677999E-16, 1.000000000000000000, -0.0000000000000000000 ) ) ;
#1087 = COORDINATED_UNIVERSAL_TIME_OFFSET ( 0, 0, .AHEAD. ) ;
#1088 = LINE ( 'NONE', #94, #1073 ) ;
#1089 = CARTESIAN_POINT ( 'NONE',  ( -7.000000000000002665, -12.00000000000000178, 38.00000000000000000 ) ) ;
#1090 = LINE ( 'NONE', #1105, #97 ) ;
#1091 = CYLINDRICAL_SURFACE ( 'NONE', #426, 2.000000000000000000 ) ;
#1092 = ORIENTED_EDGE ( 'NONE', *, *, #904, .F. ) ;
#1093 = EDGE_CURVE ( 'NONE', #275, #1038, #586, .T. ) ;
#1094 = VERTEX_POINT ( 'NONE', #846 ) ;
#1095 = DIRECTION ( 'NONE',  ( -0.0000000000000000000, 0.0000000000000000000, 1.000000000000000000 ) ) ;
#1096 = ORIENTED_EDGE ( 'NONE', *, *, #955, .T. ) ;
#1097 = CARTESIAN_POINT ( 'NONE',  ( 0.0000000000000000000, 0.0000000000000000000, 0.0000000000000000000 ) ) ;
#1098 = CARTESIAN_POINT ( 'NONE',  ( 8.673617379884035472E-16, -36.00000000000000000, 2.000000000000001776 ) ) ;
#1099 = EDGE_CURVE ( 'NONE', #91, #416, #188, .T. ) ;
#1100 = CARTESIAN_POINT ( 'NONE',  ( 23.19999999999999929, 0.0000000000000000000, 16.50000000000000000 ) ) ;
#1101 = APPROVAL_PERSON_ORGANIZATION ( #732, #906, #293 ) ;
#1102 = AXIS2_PLACEMENT_3D ( 'NONE', #945, #267, #436 ) ;
#1103 = DIRECTION ( 'NONE',  ( -1.000000000000000000, -8.906522175617109500E-18, 0.0000000000000000000 ) ) ;
#1104 = CIRCLE ( 'NONE', #332, 1.399999999999996803 ) ;
#1105 = CARTESIAN_POINT ( 'NONE',  ( -7.000000000000002665, -13.39999999999999858, 38.00000000000000000 ) ) ;
ENDSEC;
END-ISO-10303-21;
