ISO-10303-21;
HEADER;
FILE_DESCRIPTION (( 'STEP AP203' ),
    '1' );
FILE_NAME ('camera link.STEP',
    '2019-12-12T17:13:38',
    ( '' ),
    ( '' ),
    'SwSTEP 2.0',
    'SolidWorks 2018',
    '' );
FILE_SCHEMA (( 'CONFIG_CONTROL_DESIGN' ));
ENDSEC;

DATA;
#1 = CARTESIAN_POINT ( 'NONE',  ( 1.781304435123422208E-17, 2.000000000000001776, 0.0000000000000000000 ) ) ;
#2 = DIRECTION ( 'NONE',  ( 0.0000000000000000000, 1.000000000000000000, 0.0000000000000000000 ) ) ;
#3 = EDGE_LOOP ( 'NONE', ( #255, #436, #151, #871 ) ) ;
#4 = ORIENTED_EDGE ( 'NONE', *, *, #630, .T. ) ;
#5 = ORIENTED_EDGE ( 'NONE', *, *, #157, .T. ) ;
#6 = EDGE_CURVE ( 'NONE', #491, #226, #944, .T. ) ;
#7 = CARTESIAN_POINT ( 'NONE',  ( 31.50000000000002132, -42.00000000000000000, 29.49999999999998934 ) ) ;
#8 = VERTEX_POINT ( 'NONE', #1081 ) ;
#9 = CARTESIAN_POINT ( 'NONE',  ( 25.00000000000000711, 3.999999999999995559, 22.99999999999999289 ) ) ;
#10 = AXIS2_PLACEMENT_3D ( 'NONE', #1032, #434, #280 ) ;
#11 = VECTOR ( 'NONE', #837, 1000.000000000000000 ) ;
#12 = CARTESIAN_POINT ( 'NONE',  ( 2.000000000000000000, 2.000000000000000000, 46.00000000000000000 ) ) ;
#13 = CC_DESIGN_APPROVAL ( #529, ( #991 ) ) ;
#14 = CYLINDRICAL_SURFACE ( 'NONE', #950, 1.349999999999996980 ) ;
#15 = PLANE ( 'NONE',  #783 ) ;
#16 = EDGE_LOOP ( 'NONE', ( #1024, #713 ) ) ;
#17 = FACE_BOUND ( 'NONE', #117, .T. ) ;
#18 = VERTEX_POINT ( 'NONE', #655 ) ;
#19 = VERTEX_POINT ( 'NONE', #131 ) ;
#20 = AXIS2_PLACEMENT_3D ( 'NONE', #1070, #52, #314 ) ;
#21 = DIRECTION ( 'NONE',  ( 8.906522175617097174E-18, 1.000000000000000000, 0.0000000000000000000 ) ) ;
#22 = FACE_BOUND ( 'NONE', #1027, .T. ) ;
#23 = CARTESIAN_POINT ( 'NONE',  ( 6.000000000000000000, 5.999999999999992895, 46.00000000000000000 ) ) ;
#24 = LINE ( 'NONE', #62, #94 ) ;
#25 = DIRECTION ( 'NONE',  ( 0.0000000000000000000, 0.0000000000000000000, -1.000000000000000000 ) ) ;
#26 = CARTESIAN_POINT ( 'NONE',  ( -41.99999999999999289, 29.50000000000000355, 25.84999999999999787 ) ) ;
#27 = EDGE_CURVE ( 'NONE', #19, #737, #877, .T. ) ;
#28 = DIRECTION ( 'NONE',  ( 0.0000000000000000000, 0.0000000000000000000, 1.000000000000000000 ) ) ;
#29 = VECTOR ( 'NONE', #432, 1000.000000000000000 ) ;
#30 = ORIENTED_EDGE ( 'NONE', *, *, #227, .F. ) ;
#31 = DIRECTION ( 'NONE',  ( 1.000000000000000000, 0.0000000000000000000, 0.0000000000000000000 ) ) ;
#32 = VERTEX_POINT ( 'NONE', #913 ) ;
#33 = VERTEX_POINT ( 'NONE', #643 ) ;
#34 = APPROVAL_DATE_TIME ( #577, #1069 ) ;
#35 = AXIS2_PLACEMENT_3D ( 'NONE', #664, #322, #1089 ) ;
#36 = DIRECTION ( 'NONE',  ( -1.261617073437677999E-16, 1.000000000000000000, -0.0000000000000000000 ) ) ;
#37 = CIRCLE ( 'NONE', #1050, 1.350000000000000533 ) ;
#38 = EDGE_CURVE ( 'NONE', #786, #858, #599, .T. ) ;
#39 = ORIENTED_EDGE ( 'NONE', *, *, #624, .F. ) ;
#40 = ORIENTED_EDGE ( 'NONE', *, *, #471, .F. ) ;
#41 = VECTOR ( 'NONE', #214, 1000.000000000000000 ) ;
#42 = ORIENTED_EDGE ( 'NONE', *, *, #308, .F. ) ;
#43 = CARTESIAN_POINT ( 'NONE',  ( 59.00000000000000000, 4.000000000000000000, 46.00000000000000000 ) ) ;
#44 = PERSON_AND_ORGANIZATION ( #1088, #245 ) ;
#45 = LINE ( 'NONE', #579, #11 ) ;
#46 = CARTESIAN_POINT ( 'NONE',  ( -41.99999999999999289, 29.50000000000000355, 11.50000000000000000 ) ) ;
#47 = ADVANCED_FACE ( 'NONE', ( #720 ), #503, .F. ) ;
#48 = DIRECTION ( 'NONE',  ( 0.0000000000000000000, 0.0000000000000000000, -1.000000000000000000 ) ) ;
#49 = EDGE_CURVE ( 'NONE', #558, #525, #799, .T. ) ;
#50 = AXIS2_PLACEMENT_3D ( 'NONE', #244, #336, #928 ) ;
#51 = ORIENTED_EDGE ( 'NONE', *, *, #383, .T. ) ;
#52 = DIRECTION ( 'NONE',  ( 1.000000000000000000, 0.0000000000000000000, 0.0000000000000000000 ) ) ;
#53 = EDGE_LOOP ( 'NONE', ( #696, #1074, #684, #540 ) ) ;
#54 = EDGE_LOOP ( 'NONE', ( #895, #998, #381, #882 ) ) ;
#55 = APPLICATION_PROTOCOL_DEFINITION ( 'international standard', 'config_control_design', 1994, #496 ) ;
#56 = ORIENTED_EDGE ( 'NONE', *, *, #267, .T. ) ;
#57 = DIRECTION ( 'NONE',  ( 8.906522175617120285E-18, 1.000000000000000000, 0.0000000000000000000 ) ) ;
#58 = CIRCLE ( 'NONE', #597, 2.000000000000001776 ) ;
#59 = LINE ( 'NONE', #929, #989 ) ;
#60 = EDGE_CURVE ( 'NONE', #186, #859, #709, .T. ) ;
#61 = DIRECTION ( 'NONE',  ( 0.0000000000000000000, 0.0000000000000000000, -1.000000000000000000 ) ) ;
#62 = CARTESIAN_POINT ( 'NONE',  ( 0.0000000000000000000, 0.0000000000000000000, 0.0000000000000000000 ) ) ;
#63 = DIRECTION ( 'NONE',  ( -0.0000000000000000000, 0.0000000000000000000, 1.000000000000000000 ) ) ;
#64 = APPROVAL_ROLE ( '' ) ;
#65 = PLANE ( 'NONE',  #466 ) ;
#66 = DIRECTION ( 'NONE',  ( 1.000000000000000000, 0.0000000000000000000, 0.0000000000000000000 ) ) ;
#67 = CIRCLE ( 'NONE', #220, 2.000000000000000000 ) ;
#68 = ORIENTED_EDGE ( 'NONE', *, *, #204, .T. ) ;
#69 = AXIS2_PLACEMENT_3D ( 'NONE', #506, #692, #167 ) ;
#70 = LINE ( 'NONE', #717, #362 ) ;
#71 = DIRECTION ( 'NONE',  ( 1.000000000000000000, 0.0000000000000000000, 0.0000000000000000000 ) ) ;
#72 = ORIENTED_EDGE ( 'NONE', *, *, #1068, .T. ) ;
#73 = ORIENTED_EDGE ( 'NONE', *, *, #494, .T. ) ;
#74 = CARTESIAN_POINT ( 'NONE',  ( 39.35000000000000142, -42.00000000000000000, 22.99999999999999289 ) ) ;
#75 = ADVANCED_FACE ( 'NONE', ( #321 ), #652, .F. ) ;
#76 = PERSON_AND_ORGANIZATION_ROLE ( 'creator' ) ;
#77 = DIRECTION ( 'NONE',  ( 1.000000000000000000, -0.0000000000000000000, -0.0000000000000000000 ) ) ;
#78 = DIRECTION ( 'NONE',  ( 0.0000000000000000000, 0.0000000000000000000, -1.000000000000000000 ) ) ;
#79 = AXIS2_PLACEMENT_3D ( 'NONE', #559, #564, #994 ) ;
#80 = DIRECTION ( 'NONE',  ( -0.0000000000000000000, -0.0000000000000000000, -1.000000000000000000 ) ) ;
#81 = DIRECTION ( 'NONE',  ( -8.906522175617109500E-18, -1.000000000000000000, 0.0000000000000000000 ) ) ;
#82 = DIRECTION ( 'NONE',  ( 1.000000000000000000, 0.0000000000000000000, 0.0000000000000000000 ) ) ;
#83 = CARTESIAN_POINT ( 'NONE',  ( 1.781304435123422208E-17, 2.000000000000001776, 46.00000000000000000 ) ) ;
#84 = ORIENTED_EDGE ( 'NONE', *, *, #6, .F. ) ;
#85 = FACE_BOUND ( 'NONE', #605, .T. ) ;
#86 = EDGE_CURVE ( 'NONE', #449, #768, #67, .T. ) ;
#87 = ORIENTED_EDGE ( 'NONE', *, *, #483, .T. ) ;
#88 = DIRECTION ( 'NONE',  ( -8.906522175617109500E-18, -1.000000000000000000, 0.0000000000000000000 ) ) ;
#89 = AXIS2_PLACEMENT_3D ( 'NONE', #1101, #931, #594 ) ;
#90 = ORIENTED_EDGE ( 'NONE', *, *, #809, .F. ) ;
#91 = VERTEX_POINT ( 'NONE', #235 ) ;
#92 = CARTESIAN_POINT ( 'NONE',  ( 30.15000000000001634, 0.0000000000000000000, 29.49999999999998934 ) ) ;
#93 = APPROVAL_PERSON_ORGANIZATION ( #311, #529, #64 ) ;
#94 = VECTOR ( 'NONE', #392, 1000.000000000000000 ) ;
#95 = CARTESIAN_POINT ( 'NONE',  ( 4.000000000000000888, 52.99999999999999289, 0.0000000000000000000 ) ) ;
#96 = DIRECTION ( 'NONE',  ( 1.000000000000000000, -0.0000000000000000000, -0.0000000000000000000 ) ) ;
#97 = AXIS2_PLACEMENT_3D ( 'NONE', #401, #484, #406 ) ;
#98 = DIRECTION ( 'NONE',  ( 1.000000000000000000, -0.0000000000000000000, -0.0000000000000000000 ) ) ;
#99 = DIRECTION ( 'NONE',  ( 0.0000000000000000000, 0.0000000000000000000, 1.000000000000000000 ) ) ;
#100 = DIRECTION ( 'NONE',  ( 0.0000000000000000000, 0.0000000000000000000, 1.000000000000000000 ) ) ;
#101 = FACE_OUTER_BOUND ( 'NONE', #1000, .T. ) ;
#102 = EDGE_LOOP ( 'NONE', ( #613, #415, #285, #536, #843, #462, #637, #113 ) ) ;
#103 = FACE_OUTER_BOUND ( 'NONE', #493, .T. ) ;
#104 = ORIENTED_EDGE ( 'NONE', *, *, #981, .T. ) ;
#105 = EDGE_CURVE ( 'NONE', #934, #890, #253, .T. ) ;
#106 = DIRECTION ( 'NONE',  ( -1.000000000000000000, 0.0000000000000000000, 0.0000000000000000000 ) ) ;
#107 = FACE_BOUND ( 'NONE', #1009, .T. ) ;
#108 = CARTESIAN_POINT ( 'NONE',  ( 25.00000000000000711, 0.0000000000000000000, 22.99999999999999289 ) ) ;
#109 = CARTESIAN_POINT ( 'NONE',  ( 4.000000000000000000, 3.999999999999993339, 46.00000000000000000 ) ) ;
#110 = DIRECTION ( 'NONE',  ( -1.261617073437677999E-16, 1.000000000000000000, 0.0000000000000000000 ) ) ;
#111 =( GEOMETRIC_REPRESENTATION_CONTEXT ( 3 ) GLOBAL_UNCERTAINTY_ASSIGNED_CONTEXT ( ( #975 ) ) GLOBAL_UNIT_ASSIGNED_CONTEXT ( ( #473, #747, #563 ) ) REPRESENTATION_CONTEXT ( 'NONE', 'WORKASPACE' ) );
#112 = DIRECTION ( 'NONE',  ( 0.0000000000000000000, -1.000000000000000000, 0.0000000000000000000 ) ) ;
#113 = ORIENTED_EDGE ( 'NONE', *, *, #745, .T. ) ;
#114 = VECTOR ( 'NONE', #729, 1000.000000000000000 ) ;
#115 = EDGE_LOOP ( 'NONE', ( #1028, #922, #361, #860, #903, #673 ) ) ;
#116 = CARTESIAN_POINT ( 'NONE',  ( 4.000000000000000000, 29.50000000000000355, 24.49999999999999645 ) ) ;
#117 = EDGE_LOOP ( 'NONE', ( #470, #841 ) ) ;
#118 = DATE_AND_TIME ( #644, #1018 ) ;
#119 = FACE_OUTER_BOUND ( 'NONE', #53, .T. ) ;
#120 = CARTESIAN_POINT ( 'NONE',  ( -41.99999999999999289, 29.50000000000000355, 24.49999999999999645 ) ) ;
#121 = EDGE_CURVE ( 'NONE', #18, #1054, #448, .T. ) ;
#122 = CARTESIAN_POINT ( 'NONE',  ( 4.000000000000000000, 5.999999999999992895, 0.0000000000000000000 ) ) ;
#123 = VERTEX_POINT ( 'NONE', #330 ) ;
#124 = EDGE_LOOP ( 'NONE', ( #438, #639 ) ) ;
#125 = FACE_OUTER_BOUND ( 'NONE', #3, .T. ) ;
#126 = CARTESIAN_POINT ( 'NONE',  ( 4.898587196589409870E-16, 55.00000000000000000, 46.00000000000000000 ) ) ;
#127 = ORIENTED_EDGE ( 'NONE', *, *, #1021, .F. ) ;
#128 = EDGE_LOOP ( 'NONE', ( #697, #450, #223, #199, #1039, #5 ) ) ;
#129 = CYLINDRICAL_SURFACE ( 'NONE', #145, 1.350000000000000533 ) ;
#130 = CARTESIAN_POINT ( 'NONE',  ( 6.000000000000000000, 5.999999999999992895, 0.0000000000000000000 ) ) ;
#131 = CARTESIAN_POINT ( 'NONE',  ( 4.000000000000000000, 29.50000000000000355, 10.14999999999999858 ) ) ;
#132 = AXIS2_PLACEMENT_3D ( 'NONE', #1082, #839, #331 ) ;
#133 = ADVANCED_FACE ( 'NONE', ( #373 ), #422, .F. ) ;
#134 = ORIENTED_EDGE ( 'NONE', *, *, #650, .F. ) ;
#135 = CIRCLE ( 'NONE', #706, 2.000000000000001776 ) ;
#136 = VERTEX_POINT ( 'NONE', #92 ) ;
#137 = CARTESIAN_POINT ( 'NONE',  ( 0.0000000000000000000, 0.0000000000000000000, 46.00000000000000000 ) ) ;
#138 = ORIENTED_EDGE ( 'NONE', *, *, #344, .T. ) ;
#139 = ORIENTED_EDGE ( 'NONE', *, *, #693, .F. ) ;
#140 = EDGE_CURVE ( 'NONE', #919, #1053, #281, .T. ) ;
#141 = COORDINATED_UNIVERSAL_TIME_OFFSET ( 0, 0, .AHEAD. ) ;
#142 = ADVANCED_FACE ( 'NONE', ( #101 ), #351, .T. ) ;
#143 = DATE_TIME_ROLE ( 'classification_date' ) ;
#144 = CYLINDRICAL_SURFACE ( 'NONE', #195, 1.350000000000000533 ) ;
#145 = AXIS2_PLACEMENT_3D ( 'NONE', #182, #782, #785 ) ;
#146 = CARTESIAN_POINT ( 'NONE',  ( 32.85000000000000853, 3.999999999999996447, 29.49999999999998934 ) ) ;
#147 = PERSON_AND_ORGANIZATION_ROLE ( 'design_supplier' ) ;
#148 = DIRECTION ( 'NONE',  ( 1.000000000000000000, 0.0000000000000000000, 0.0000000000000000000 ) ) ;
#149 = VECTOR ( 'NONE', #864, 1000.000000000000000 ) ;
#150 = CARTESIAN_POINT ( 'NONE',  ( 56.99999999999999289, 4.000000000000000000, 44.00000000000000000 ) ) ;
#151 = ORIENTED_EDGE ( 'NONE', *, *, #390, .F. ) ;
#152 = VECTOR ( 'NONE', #719, 1000.000000000000000 ) ;
#153 = ORIENTED_EDGE ( 'NONE', *, *, #121, .T. ) ;
#154 = EDGE_LOOP ( 'NONE', ( #657, #90 ) ) ;
#155 = CARTESIAN_POINT ( 'NONE',  ( 59.00000000000000000, 0.0000000000000000000, 44.00000000000000000 ) ) ;
#156 = FACE_BOUND ( 'NONE', #16, .T. ) ;
#157 = EDGE_CURVE ( 'NONE', #602, #33, #918, .T. ) ;
#158 = CARTESIAN_POINT ( 'NONE',  ( 0.0000000000000000000, 53.00000000000000000, 0.0000000000000000000 ) ) ;
#159 = CARTESIAN_POINT ( 'NONE',  ( 56.99999999999999289, 4.000000000000000000, 46.00000000000000000 ) ) ;
#160 = DIRECTION ( 'NONE',  ( 1.000000000000000000, -0.0000000000000000000, -0.0000000000000000000 ) ) ;
#161 = CARTESIAN_POINT ( 'NONE',  ( 0.0000000000000000000, 29.50000000000000355, 12.84999999999999964 ) ) ;
#162 = ORIENTED_EDGE ( 'NONE', *, *, #904, .T. ) ;
#163 = CC_DESIGN_PERSON_AND_ORGANIZATION_ASSIGNMENT ( #44, #147, ( #991 ) ) ;
#164 = VECTOR ( 'NONE', #798, 1000.000000000000000 ) ;
#165 = VERTEX_POINT ( 'NONE', #1020 ) ;
#166 = VERTEX_POINT ( 'NONE', #866 ) ;
#167 = DIRECTION ( 'NONE',  ( 0.0000000000000000000, 0.0000000000000000000, 1.000000000000000000 ) ) ;
#168 = VECTOR ( 'NONE', #88, 1000.000000000000000 ) ;
#169 = FACE_OUTER_BOUND ( 'NONE', #960, .T. ) ;
#170 = DIRECTION ( 'NONE',  ( -1.261617073437677999E-16, 1.000000000000000000, 0.0000000000000000000 ) ) ;
#171 = ORIENTED_EDGE ( 'NONE', *, *, #49, .T. ) ;
#172 = EDGE_CURVE ( 'NONE', #283, #374, #1023, .T. ) ;
#173 = ORIENTED_EDGE ( 'NONE', *, *, #121, .F. ) ;
#174 = FACE_OUTER_BOUND ( 'NONE', #984, .T. ) ;
#175 = CARTESIAN_POINT ( 'NONE',  ( 4.898587196589409870E-16, 55.00000000000000000, 0.0000000000000000000 ) ) ;
#176 = VERTEX_POINT ( 'NONE', #1 ) ;
#177 = DIRECTION ( 'NONE',  ( 0.0000000000000000000, 0.0000000000000000000, -1.000000000000000000 ) ) ;
#178 = VECTOR ( 'NONE', #744, 1000.000000000000000 ) ;
#179 = CARTESIAN_POINT ( 'NONE',  ( 0.0000000000000000000, 29.50000000000000355, 11.50000000000000000 ) ) ;
#180 = CARTESIAN_POINT ( 'NONE',  ( 4.720456753077067711E-16, 53.00000000000000000, 44.00000000000000000 ) ) ;
#181 = AXIS2_PLACEMENT_3D ( 'NONE', #653, #243, #486 ) ;
#182 = CARTESIAN_POINT ( 'NONE',  ( -41.99999999999999289, 36.00000000000000000, 18.00000000000000000 ) ) ;
#183 = CYLINDRICAL_SURFACE ( 'NONE', #855, 1.350000000000000533 ) ;
#184 = ORIENTED_EDGE ( 'NONE', *, *, #878, .F. ) ;
#185 = LINE ( 'NONE', #804, #670 ) ;
#186 = VERTEX_POINT ( 'NONE', #603 ) ;
#187 = AXIS2_PLACEMENT_3D ( 'NONE', #511, #854, #99 ) ;
#188 = CARTESIAN_POINT ( 'NONE',  ( 38.00000000000000711, -42.00000000000000000, 22.99999999999999289 ) ) ;
#189 = ORIENTED_EDGE ( 'NONE', *, *, #454, .T. ) ;
#190 = PERSON_AND_ORGANIZATION ( #1088, #245 ) ;
#191 = DIRECTION ( 'NONE',  ( -1.000000000000000000, 1.700709290173340101E-17, 0.0000000000000000000 ) ) ;
#192 = CIRCLE ( 'NONE', #893, 1.350000000000004086 ) ;
#193 = DIRECTION ( 'NONE',  ( 1.700709290173340101E-17, 1.000000000000000000, 0.0000000000000000000 ) ) ;
#194 = EDGE_CURVE ( 'NONE', #226, #491, #748, .T. ) ;
#195 = AXIS2_PLACEMENT_3D ( 'NONE', #915, #98, #686 ) ;
#196 = DIRECTION ( 'NONE',  ( -0.0000000000000000000, -0.0000000000000000000, -1.000000000000000000 ) ) ;
#197 = VECTOR ( 'NONE', #757, 1000.000000000000000 ) ;
#198 = ORIENTED_EDGE ( 'NONE', *, *, #267, .F. ) ;
#199 = ORIENTED_EDGE ( 'NONE', *, *, #878, .T. ) ;
#200 = AXIS2_PLACEMENT_3D ( 'NONE', #999, #906, #61 ) ;
#201 = DIRECTION ( 'NONE',  ( 1.261617073437677999E-16, -1.000000000000000000, 0.0000000000000000000 ) ) ;
#202 = EDGE_LOOP ( 'NONE', ( #426, #477 ) ) ;
#203 = FACE_OUTER_BOUND ( 'NONE', #869, .T. ) ;
#204 = EDGE_CURVE ( 'NONE', #91, #283, #682, .T. ) ;
#205 = CARTESIAN_POINT ( 'NONE',  ( 59.00000000000000000, 4.000000000000000000, 46.00000000000000000 ) ) ;
#206 = ORIENTED_EDGE ( 'NONE', *, *, #1103, .T. ) ;
#207 = ORIENTED_EDGE ( 'NONE', *, *, #441, .F. ) ;
#208 = CIRCLE ( 'NONE', #817, 2.000000000000000000 ) ;
#209 = CARTESIAN_POINT ( 'NONE',  ( 56.99999999999999289, 4.000000000000000000, 2.000000000000001776 ) ) ;
#210 = ORIENTED_EDGE ( 'NONE', *, *, #400, .F. ) ;
#211 = ORIENTED_EDGE ( 'NONE', *, *, #822, .T. ) ;
#212 = EDGE_CURVE ( 'NONE', #384, #890, #456, .T. ) ;
#213 = CALENDAR_DATE ( 2019, 12, 12 ) ;
#214 = DIRECTION ( 'NONE',  ( -1.000000000000000000, -1.261617073437677999E-16, 0.0000000000000000000 ) ) ;
#215 = FACE_BOUND ( 'NONE', #792, .T. ) ;
#216 = LINE ( 'NONE', #584, #1100 ) ;
#217 = DIRECTION ( 'NONE',  ( 8.906522175617089470E-18, 1.000000000000000000, 0.0000000000000000000 ) ) ;
#218 = ADVANCED_FACE ( 'NONE', ( #567 ), #14, .F. ) ;
#219 = EDGE_CURVE ( 'NONE', #33, #574, #970, .T. ) ;
#220 = AXIS2_PLACEMENT_3D ( 'NONE', #340, #1087, #404 ) ;
#221 = ORIENTED_EDGE ( 'NONE', *, *, #38, .F. ) ;
#222 = CARTESIAN_POINT ( 'NONE',  ( 59.00000000000000000, 0.0000000000000000000, 2.000000000000001776 ) ) ;
#223 = ORIENTED_EDGE ( 'NONE', *, *, #914, .T. ) ;
#224 = CARTESIAN_POINT ( 'NONE',  ( 0.0000000000000000000, 29.50000000000000355, 24.49999999999999645 ) ) ;
#225 = ORIENTED_EDGE ( 'NONE', *, *, #494, .F. ) ;
#226 = VERTEX_POINT ( 'NONE', #683 ) ;
#227 = EDGE_CURVE ( 'NONE', #901, #136, #983, .T. ) ;
#228 = VECTOR ( 'NONE', #596, 1000.000000000000000 ) ;
#229 = CARTESIAN_POINT ( 'NONE',  ( 0.0000000000000000000, 36.00000000000000000, 18.00000000000000000 ) ) ;
#230 = ADVANCED_FACE ( 'NONE', ( #174 ), #946, .F. ) ;
#231 = DIRECTION ( 'NONE',  ( 0.0000000000000000000, 0.0000000000000000000, 1.000000000000000000 ) ) ;
#232 = DIRECTION ( 'NONE',  ( -1.000000000000000000, 0.0000000000000000000, 0.0000000000000000000 ) ) ;
#233 = DATE_TIME_ROLE ( 'creation_date' ) ;
#234 = CARTESIAN_POINT ( 'NONE',  ( 4.898587196589409870E-16, 55.00000000000000000, 46.00000000000000000 ) ) ;
#235 = CARTESIAN_POINT ( 'NONE',  ( 0.0000000000000000000, 23.00000000000000000, 19.34999999999999787 ) ) ;
#236 = CARTESIAN_POINT ( 'NONE',  ( 32.85000000000000853, 3.999999999999996447, 16.49999999999998934 ) ) ;
#237 = AXIS2_PLACEMENT_3D ( 'NONE', #363, #1034, #359 ) ;
#238 = ADVANCED_FACE ( 'NONE', ( #375 ), #787, .F. ) ;
#239 = DIRECTION ( 'NONE',  ( 0.0000000000000000000, 0.0000000000000000000, -1.000000000000000000 ) ) ;
#240 = VERTEX_POINT ( 'NONE', #794 ) ;
#241 = CIRCLE ( 'NONE', #417, 1.350000000000004086 ) ;
#242 = ORIENTED_EDGE ( 'NONE', *, *, #315, .F. ) ;
#243 = DIRECTION ( 'NONE',  ( -1.261617073437677999E-16, 1.000000000000000000, 0.0000000000000000000 ) ) ;
#244 = CARTESIAN_POINT ( 'NONE',  ( 38.00000000000000000, 0.0000000000000000000, 22.99999999999999289 ) ) ;
#245 = ORGANIZATION ( 'UNSPECIFIED', 'UNSPECIFIED', '' ) ;
#246 = AXIS2_PLACEMENT_3D ( 'NONE', #234, #1001, #487 ) ;
#247 = LINE ( 'NONE', #1005, #178 ) ;
#248 = CARTESIAN_POINT ( 'NONE',  ( 31.50000000000001421, 0.0000000000000000000, 16.49999999999998934 ) ) ;
#249 = CARTESIAN_POINT ( 'NONE',  ( 59.00000000000000000, 4.000000000000000000, 44.00000000000000000 ) ) ;
#250 = EDGE_CURVE ( 'NONE', #935, #32, #1052, .T. ) ;
#251 = DIRECTION ( 'NONE',  ( -1.000000000000000000, 0.0000000000000000000, 0.0000000000000000000 ) ) ;
#252 = CARTESIAN_POINT ( 'NONE',  ( 0.0000000000000000000, 23.00000000000000000, 18.00000000000000000 ) ) ;
#253 = LINE ( 'NONE', #158, #197 ) ;
#254 = APPROVAL ( #834, 'UNSPECIFIED' ) ;
#255 = ORIENTED_EDGE ( 'NONE', *, *, #796, .T. ) ;
#256 = EDGE_LOOP ( 'NONE', ( #800, #699 ) ) ;
#257 = CARTESIAN_POINT ( 'NONE',  ( 25.00000000000001421, -42.00000000000000000, 22.99999999999999289 ) ) ;
#258 = DIRECTION ( 'NONE',  ( 0.0000000000000000000, 1.000000000000000000, 0.0000000000000000000 ) ) ;
#259 = EDGE_CURVE ( 'NONE', #1054, #18, #589, .T. ) ;
#260 = LINE ( 'NONE', #659, #849 ) ;
#261 = DIRECTION ( 'NONE',  ( -1.261617073437677999E-16, 1.000000000000000000, 0.0000000000000000000 ) ) ;
#262 = AXIS2_PLACEMENT_3D ( 'NONE', #9, #170, #591 ) ;
#263 = PLANE ( 'NONE',  #69 ) ;
#264 = CARTESIAN_POINT ( 'NONE',  ( -41.99999999999999289, 23.00000000000000000, 19.34999999999999787 ) ) ;
#265 = CARTESIAN_POINT ( 'NONE',  ( 26.35000000000001208, -42.00000000000000000, 22.99999999999999289 ) ) ;
#266 = ORIENTED_EDGE ( 'NONE', *, *, #335, .F. ) ;
#267 = EDGE_CURVE ( 'NONE', #858, #754, #411, .T. ) ;
#268 = CARTESIAN_POINT ( 'NONE',  ( 38.00000000000000000, 3.999999999999997335, 22.99999999999999289 ) ) ;
#269 = ORIENTED_EDGE ( 'NONE', *, *, #863, .F. ) ;
#270 = FACE_BOUND ( 'NONE', #202, .T. ) ;
#271 = DIRECTION ( 'NONE',  ( 1.000000000000000000, -0.0000000000000000000, -0.0000000000000000000 ) ) ;
#272 = ORIENTED_EDGE ( 'NONE', *, *, #335, .T. ) ;
#273 = DIRECTION ( 'NONE',  ( -1.700709290173340101E-17, -1.000000000000000000, 0.0000000000000000000 ) ) ;
#274 = COORDINATED_UNIVERSAL_TIME_OFFSET ( 0, 0, .AHEAD. ) ;
#275 = SHAPE_DEFINITION_REPRESENTATION ( #848, #642 ) ;
#276 = CARTESIAN_POINT ( 'NONE',  ( 4.000000000000000888, 53.00000000000000000, 44.00000000000000000 ) ) ;
#277 = FACE_OUTER_BOUND ( 'NONE', #769, .T. ) ;
#278 = EDGE_CURVE ( 'NONE', #374, #283, #295, .T. ) ;
#279 = DIRECTION ( 'NONE',  ( 0.0000000000000000000, 1.000000000000000000, 0.0000000000000000000 ) ) ;
#280 = DIRECTION ( 'NONE',  ( 0.0000000000000000000, -0.0000000000000000000, 1.000000000000000000 ) ) ;
#281 = CIRCLE ( 'NONE', #875, 1.349999999999996980 ) ;
#282 = CIRCLE ( 'NONE', #534, 2.000000000000001776 ) ;
#283 = VERTEX_POINT ( 'NONE', #953 ) ;
#284 = AXIS2_PLACEMENT_3D ( 'NONE', #1042, #31, #612 ) ;
#285 = ORIENTED_EDGE ( 'NONE', *, *, #212, .F. ) ;
#286 = EDGE_LOOP ( 'NONE', ( #881, #721, #789, #1049 ) ) ;
#287 = VECTOR ( 'NONE', #193, 1000.000000000000000 ) ;
#288 = CARTESIAN_POINT ( 'NONE',  ( 4.000000000000000888, 53.00000000000000000, 2.000000000000001776 ) ) ;
#289 = CIRCLE ( 'NONE', #741, 1.349999999999996980 ) ;
#290 = EDGE_CURVE ( 'NONE', #774, #557, #382, .T. ) ;
#291 = CARTESIAN_POINT ( 'NONE',  ( 1.781304435123422208E-17, 2.000000000000001776, 46.00000000000000000 ) ) ;
#292 = CARTESIAN_POINT ( 'NONE',  ( 32.85000000000001563, -42.00000000000000000, 29.49999999999998934 ) ) ;
#293 = VECTOR ( 'NONE', #96, 1000.000000000000000 ) ;
#294 = VERTEX_POINT ( 'NONE', #1046 ) ;
#295 = CIRCLE ( 'NONE', #284, 1.350000000000000533 ) ;
#296 = EDGE_LOOP ( 'NONE', ( #936, #538, #210, #826 ) ) ;
#297 = CC_DESIGN_DATE_AND_TIME_ASSIGNMENT ( #528, #143, ( #1037 ) ) ;
#298 = CARTESIAN_POINT ( 'NONE',  ( 0.0000000000000000000, 53.00000000000000000, 44.00000000000000000 ) ) ;
#299 = VECTOR ( 'NONE', #355, 1000.000000000000000 ) ;
#300 = DIRECTION ( 'NONE',  ( -1.261617073437677999E-16, 1.000000000000000000, -0.0000000000000000000 ) ) ;
#301 = AXIS2_PLACEMENT_3D ( 'NONE', #320, #581, #66 ) ;
#302 = DIRECTION ( 'NONE',  ( 1.000000000000000000, 0.0000000000000000000, 0.0000000000000000000 ) ) ;
#303 = ADVANCED_FACE ( 'NONE', ( #17, #973, #636, #870, #555 ), #15, .F. ) ;
#304 = ORIENTED_EDGE ( 'NONE', *, *, #454, .F. ) ;
#305 = DIRECTION ( 'NONE',  ( 1.000000000000000000, -0.0000000000000000000, -0.0000000000000000000 ) ) ;
#306 = VERTEX_POINT ( 'NONE', #1036 ) ;
#307 = ORIENTED_EDGE ( 'NONE', *, *, #618, .F. ) ;
#308 = EDGE_CURVE ( 'NONE', #240, #91, #638, .T. ) ;
#309 = ORIENTED_EDGE ( 'NONE', *, *, #745, .F. ) ;
#310 = AXIS2_PLACEMENT_3D ( 'NONE', #179, #531, #954 ) ;
#311 = PERSON_AND_ORGANIZATION ( #1088, #245 ) ;
#312 = ADVANCED_FACE ( 'NONE', ( #842 ), #1040, .F. ) ;
#313 = CARTESIAN_POINT ( 'NONE',  ( 38.00000000000000000, 3.999999999999997335, 22.99999999999999289 ) ) ;
#314 = DIRECTION ( 'NONE',  ( 0.0000000000000000000, 0.0000000000000000000, -1.000000000000000000 ) ) ;
#315 = EDGE_CURVE ( 'NONE', #396, #972, #766, .T. ) ;
#316 = CARTESIAN_POINT ( 'NONE',  ( 2.000000000000000000, 2.000000000000000000, 0.0000000000000000000 ) ) ;
#317 = AXIS2_PLACEMENT_3D ( 'NONE', #316, #753, #586 ) ;
#318 = ADVANCED_FACE ( 'NONE', ( #1093 ), #437, .F. ) ;
#319 = MECHANICAL_CONTEXT ( 'NONE', #496, 'mechanical' ) ;
#320 = CARTESIAN_POINT ( 'NONE',  ( 0.0000000000000000000, 0.0000000000000000000, 0.0000000000000000000 ) ) ;
#321 = FACE_OUTER_BOUND ( 'NONE', #986, .T. ) ;
#322 = DIRECTION ( 'NONE',  ( 0.0000000000000000000, 1.000000000000000000, 0.0000000000000000000 ) ) ;
#323 = ORIENTED_EDGE ( 'NONE', *, *, #1013, .F. ) ;
#324 = VECTOR ( 'NONE', #969, 1000.000000000000000 ) ;
#325 = CARTESIAN_POINT ( 'NONE',  ( 4.000000000000000888, 55.00000000000000000, 2.000000000000001776 ) ) ;
#326 = ORIENTED_EDGE ( 'NONE', *, *, #990, .F. ) ;
#327 = DIRECTION ( 'NONE',  ( -1.261617073437677999E-16, 1.000000000000000000, -0.0000000000000000000 ) ) ;
#328 = EDGE_CURVE ( 'NONE', #786, #166, #722, .T. ) ;
#329 = CIRCLE ( 'NONE', #759, 2.000000000000001776 ) ;
#330 = CARTESIAN_POINT ( 'NONE',  ( 0.0000000000000000000, 29.50000000000000355, 10.14999999999999858 ) ) ;
#331 = DIRECTION ( 'NONE',  ( 0.0000000000000000000, 0.0000000000000000000, -1.000000000000000000 ) ) ;
#332 = ADVANCED_FACE ( 'NONE', ( #522 ), #414, .T. ) ;
#333 = MANIFOLD_SOLID_BREP ( 'Fillet2', #1080 ) ;
#334 = CARTESIAN_POINT ( 'NONE',  ( 4.000000000000000000, 36.00000000000000000, 18.00000000000000000 ) ) ;
#335 = EDGE_CURVE ( 'NONE', #136, #294, #339, .T. ) ;
#336 = DIRECTION ( 'NONE',  ( 0.0000000000000000000, 1.000000000000000000, 0.0000000000000000000 ) ) ;
#337 = DIRECTION ( 'NONE',  ( -0.0000000000000000000, -1.000000000000000000, -0.0000000000000000000 ) ) ;
#338 = ORIENTED_EDGE ( 'NONE', *, *, #1035, .F. ) ;
#339 = LINE ( 'NONE', #868, #164 ) ;
#340 = CARTESIAN_POINT ( 'NONE',  ( 2.000000000000000000, 2.000000000000000000, 46.00000000000000000 ) ) ;
#341 = ORIENTED_EDGE ( 'NONE', *, *, #502, .T. ) ;
#342 = DIRECTION ( 'NONE',  ( 1.000000000000000000, -8.906522175617109500E-18, 0.0000000000000000000 ) ) ;
#343 = ORIENTED_EDGE ( 'NONE', *, *, #194, .F. ) ;
#344 = EDGE_CURVE ( 'NONE', #921, #737, #614, .T. ) ;
#345 = CIRCLE ( 'NONE', #132, 1.350000000000000533 ) ;
#346 = CARTESIAN_POINT ( 'NONE',  ( 26.35000000000000497, 0.0000000000000000000, 22.99999999999999289 ) ) ;
#347 = DIRECTION ( 'NONE',  ( -1.000000000000000000, 0.0000000000000000000, 0.0000000000000000000 ) ) ;
#348 = EDGE_CURVE ( 'NONE', #859, #557, #70, .T. ) ;
#349 = CARTESIAN_POINT ( 'NONE',  ( 25.00000000000000711, 3.999999999999995559, 22.99999999999999289 ) ) ;
#350 = CARTESIAN_POINT ( 'NONE',  ( 31.50000000000001421, 0.0000000000000000000, 16.49999999999998934 ) ) ;
#351 = CYLINDRICAL_SURFACE ( 'NONE', #625, 2.000000000000000000 ) ;
#352 = EDGE_LOOP ( 'NONE', ( #1011, #189 ) ) ;
#353 = LINE ( 'NONE', #888, #41 ) ;
#354 = ORIENTED_EDGE ( 'NONE', *, *, #368, .T. ) ;
#355 = DIRECTION ( 'NONE',  ( 1.000000000000000000, -0.0000000000000000000, -0.0000000000000000000 ) ) ;
#356 = LINE ( 'NONE', #175, #168 ) ;
#357 = DIRECTION ( 'NONE',  ( 1.000000000000000000, 0.0000000000000000000, 0.0000000000000000000 ) ) ;
#358 = CARTESIAN_POINT ( 'NONE',  ( 4.000000000000000888, 53.00000000000000000, 2.000000000000001776 ) ) ;
#359 = DIRECTION ( 'NONE',  ( -1.000000000000000000, 0.0000000000000000000, 0.0000000000000000000 ) ) ;
#360 = AXIS2_PLACEMENT_3D ( 'NONE', #1048, #962, #28 ) ;
#361 = ORIENTED_EDGE ( 'NONE', *, *, #328, .F. ) ;
#362 = VECTOR ( 'NONE', #640, 1000.000000000000000 ) ;
#363 = CARTESIAN_POINT ( 'NONE',  ( 31.50000000000001421, 3.999999999999996447, 16.49999999999998934 ) ) ;
#364 = ORIENTED_EDGE ( 'NONE', *, *, #259, .T. ) ;
#365 = COORDINATED_UNIVERSAL_TIME_OFFSET ( 0, 0, .AHEAD. ) ;
#366 = DIRECTION ( 'NONE',  ( -1.000000000000000000, -1.261617073437677999E-16, 0.0000000000000000000 ) ) ;
#367 = VECTOR ( 'NONE', #517, 1000.000000000000000 ) ;
#368 = EDGE_CURVE ( 'NONE', #945, #376, #1010, .T. ) ;
#369 = CARTESIAN_POINT ( 'NONE',  ( 31.50000000000001421, 3.999999999999996447, 16.49999999999998934 ) ) ;
#370 = AXIS2_PLACEMENT_3D ( 'NONE', #350, #2, #100 ) ;
#371 = DIRECTION ( 'NONE',  ( -1.000000000000000000, 0.0000000000000000000, 0.0000000000000000000 ) ) ;
#372 = EDGE_CURVE ( 'NONE', #1076, #934, #135, .T. ) ;
#373 = FACE_OUTER_BOUND ( 'NONE', #521, .T. ) ;
#374 = VERTEX_POINT ( 'NONE', #810 ) ;
#375 = FACE_OUTER_BOUND ( 'NONE', #765, .T. ) ;
#376 = VERTEX_POINT ( 'NONE', #455 ) ;
#377 = PERSON_AND_ORGANIZATION ( #1088, #245 ) ;
#378 = FACE_OUTER_BOUND ( 'NONE', #296, .T. ) ;
#379 = EDGE_CURVE ( 'NONE', #425, #602, #891, .T. ) ;
#380 = DIRECTION ( 'NONE',  ( -1.261617073437677999E-16, 1.000000000000000000, 0.0000000000000000000 ) ) ;
#381 = ORIENTED_EDGE ( 'NONE', *, *, #140, .T. ) ;
#382 = CIRCLE ( 'NONE', #685, 1.349999999999996980 ) ;
#383 = EDGE_CURVE ( 'NONE', #396, #1053, #185, .T. ) ;
#384 = VERTEX_POINT ( 'NONE', #122 ) ;
#385 = CARTESIAN_POINT ( 'NONE',  ( 4.898587196589409870E-16, 53.00000000000000000, 46.00000000000000000 ) ) ;
#386 = ORIENTED_EDGE ( 'NONE', *, *, #86, .T. ) ;
#387 = ADVANCED_FACE ( 'NONE', ( #103 ), #183, .F. ) ;
#388 = CYLINDRICAL_SURFACE ( 'NONE', #978, 1.349999999999996980 ) ;
#389 = CARTESIAN_POINT ( 'NONE',  ( 25.00000000000000711, 0.0000000000000000000, 22.99999999999999289 ) ) ;
#390 = EDGE_CURVE ( 'NONE', #33, #1076, #1061, .T. ) ;
#391 = AXIS2_PLACEMENT_3D ( 'NONE', #205, #201, #1057 ) ;
#392 = DIRECTION ( 'NONE',  ( 1.000000000000000000, 0.0000000000000000000, 0.0000000000000000000 ) ) ;
#393 = CARTESIAN_POINT ( 'NONE',  ( 2.000000000000000000, 0.0000000000000000000, 46.00000000000000000 ) ) ;
#394 = ORIENTED_EDGE ( 'NONE', *, *, #446, .T. ) ;
#395 = DIRECTION ( 'NONE',  ( -1.261617073437677999E-16, 1.000000000000000000, -0.0000000000000000000 ) ) ;
#396 = VERTEX_POINT ( 'NONE', #459 ) ;
#397 = ADVANCED_FACE ( 'NONE', ( #840 ), #458, .T. ) ;
#398 = VECTOR ( 'NONE', #1062, 1000.000000000000000 ) ;
#399 = ORIENTED_EDGE ( 'NONE', *, *, #348, .F. ) ;
#400 = EDGE_CURVE ( 'NONE', #384, #805, #208, .T. ) ;
#401 = CARTESIAN_POINT ( 'NONE',  ( 0.0000000000000000000, 29.50000000000000355, 24.49999999999999645 ) ) ;
#402 = ORIENTED_EDGE ( 'NONE', *, *, #278, .F. ) ;
#403 = DIRECTION ( 'NONE',  ( 8.906522175617089470E-18, 1.000000000000000000, 0.0000000000000000000 ) ) ;
#404 = DIRECTION ( 'NONE',  ( 1.000000000000000000, 0.0000000000000000000, 0.0000000000000000000 ) ) ;
#405 = VECTOR ( 'NONE', #479, 1000.000000000000000 ) ;
#406 = DIRECTION ( 'NONE',  ( 8.906522175617120285E-18, 1.000000000000000000, 0.0000000000000000000 ) ) ;
#407 = CARTESIAN_POINT ( 'NONE',  ( 4.000000000000000888, 55.00000000000000000, 46.00000000000000000 ) ) ;
#408 = DIRECTION ( 'NONE',  ( 0.0000000000000000000, 0.0000000000000000000, 1.000000000000000000 ) ) ;
#409 = DIRECTION ( 'NONE',  ( 0.0000000000000000000, 0.0000000000000000000, -1.000000000000000000 ) ) ;
#410 = ADVANCED_FACE ( 'NONE', ( #492, #776, #270, #829, #801 ), #808, .F. ) ;
#411 = LINE ( 'NONE', #619, #698 ) ;
#412 = CARTESIAN_POINT ( 'NONE',  ( 0.0000000000000000000, 0.0000000000000000000, 46.00000000000000000 ) ) ;
#413 = ORIENTED_EDGE ( 'NONE', *, *, #278, .T. ) ;
#414 = CYLINDRICAL_SURFACE ( 'NONE', #967, 2.000000000000000000 ) ;
#415 = ORIENTED_EDGE ( 'NONE', *, *, #105, .T. ) ;
#416 = ORIENTED_EDGE ( 'NONE', *, *, #483, .F. ) ;
#417 = AXIS2_PLACEMENT_3D ( 'NONE', #573, #649, #217 ) ;
#418 = APPROVAL_DATE_TIME ( #118, #254 ) ;
#419 = FACE_OUTER_BOUND ( 'NONE', #667, .T. ) ;
#420 = AXIS2_PLACEMENT_3D ( 'NONE', #313, #380, #552 ) ;
#421 = DIRECTION ( 'NONE',  ( 8.906522175617103337E-18, 1.000000000000000000, 0.0000000000000000000 ) ) ;
#422 = CYLINDRICAL_SURFACE ( 'NONE', #551, 1.349999999999996980 ) ;
#423 = ORIENTED_EDGE ( 'NONE', *, *, #730, .F. ) ;
#424 = CARTESIAN_POINT ( 'NONE',  ( 30.15000000000001634, 0.0000000000000000000, 16.49999999999998934 ) ) ;
#425 = VERTEX_POINT ( 'NONE', #727 ) ;
#426 = ORIENTED_EDGE ( 'NONE', *, *, #1103, .F. ) ;
#427 = EDGE_CURVE ( 'NONE', #754, #558, #353, .T. ) ;
#428 = PERSON_AND_ORGANIZATION ( #1088, #245 ) ;
#429 = AXIS2_PLACEMENT_3D ( 'NONE', #956, #712, #700 ) ;
#430 = CIRCLE ( 'NONE', #317, 2.000000000000000000 ) ;
#431 = DIRECTION ( 'NONE',  ( 8.906522175617097174E-18, 1.000000000000000000, 0.0000000000000000000 ) ) ;
#432 = DIRECTION ( 'NONE',  ( 1.700709290173340101E-17, 1.000000000000000000, 0.0000000000000000000 ) ) ;
#433 = EDGE_CURVE ( 'NONE', #901, #556, #812, .T. ) ;
#434 = DIRECTION ( 'NONE',  ( 0.0000000000000000000, 1.000000000000000000, 0.0000000000000000000 ) ) ;
#435 = ORIENTED_EDGE ( 'NONE', *, *, #624, .T. ) ;
#436 = ORIENTED_EDGE ( 'NONE', *, *, #1035, .T. ) ;
#437 = CYLINDRICAL_SURFACE ( 'NONE', #429, 1.349999999999996980 ) ;
#438 = ORIENTED_EDGE ( 'NONE', *, *, #846, .F. ) ;
#439 = DIRECTION ( 'NONE',  ( 0.0000000000000000000, 0.0000000000000000000, 1.000000000000000000 ) ) ;
#440 = ORIENTED_EDGE ( 'NONE', *, *, #788, .T. ) ;
#441 = EDGE_CURVE ( 'NONE', #376, #165, #996, .T. ) ;
#442 = LINE ( 'NONE', #265, #464 ) ;
#443 = DIRECTION ( 'NONE',  ( 1.000000000000000000, 0.0000000000000000000, 0.0000000000000000000 ) ) ;
#444 = CIRCLE ( 'NONE', #797, 1.350000000000000533 ) ;
#445 = CARTESIAN_POINT ( 'NONE',  ( 0.0000000000000000000, 23.00000000000000000, 18.00000000000000000 ) ) ;
#446 = EDGE_CURVE ( 'NONE', #805, #558, #611, .T. ) ;
#447 = AXIS2_PLACEMENT_3D ( 'NONE', #116, #443, #968 ) ;
#448 = CIRCLE ( 'NONE', #50, 1.349999999999996980 ) ;
#449 = VERTEX_POINT ( 'NONE', #291 ) ;
#450 = ORIENTED_EDGE ( 'NONE', *, *, #372, .T. ) ;
#451 = DIRECTION ( 'NONE',  ( 0.0000000000000000000, 0.0000000000000000000, 1.000000000000000000 ) ) ;
#452 = ORIENTED_EDGE ( 'NONE', *, *, #433, .F. ) ;
#453 = VECTOR ( 'NONE', #917, 1000.000000000000000 ) ;
#454 = EDGE_CURVE ( 'NONE', #509, #306, #241, .T. ) ;
#455 = CARTESIAN_POINT ( 'NONE',  ( 59.00000000000000000, 4.000000000000000000, 2.000000000000001776 ) ) ;
#456 = LINE ( 'NONE', #1033, #29 ) ;
#457 = ORIENTED_EDGE ( 'NONE', *, *, #955, .F. ) ;
#458 = CYLINDRICAL_SURFACE ( 'NONE', #668, 2.000000000000001776 ) ;
#459 = CARTESIAN_POINT ( 'NONE',  ( 23.65000000000001279, 0.0000000000000000000, 22.99999999999999289 ) ) ;
#460 = ORIENTED_EDGE ( 'NONE', *, *, #427, .T. ) ;
#461 = DIRECTION ( 'NONE',  ( 1.000000000000000000, -0.0000000000000000000, -0.0000000000000000000 ) ) ;
#462 = ORIENTED_EDGE ( 'NONE', *, *, #681, .T. ) ;
#463 = DIRECTION ( 'NONE',  ( 1.000000000000000000, 0.0000000000000000000, 0.0000000000000000000 ) ) ;
#464 = VECTOR ( 'NONE', #943, 1000.000000000000000 ) ;
#465 = CYLINDRICAL_SURFACE ( 'NONE', #35, 2.000000000000000000 ) ;
#466 = AXIS2_PLACEMENT_3D ( 'NONE', #407, #662, #749 ) ;
#467 = ADVANCED_FACE ( 'NONE', ( #1058 ), #959, .F. ) ;
#468 = DIRECTION ( 'NONE',  ( -1.000000000000000000, 8.906522175617109500E-18, -0.0000000000000000000 ) ) ;
#469 = ADVANCED_FACE ( 'NONE', ( #125 ), #65, .F. ) ;
#470 = ORIENTED_EDGE ( 'NONE', *, *, #250, .F. ) ;
#471 = EDGE_CURVE ( 'NONE', #750, #8, #734, .T. ) ;
#472 = ORIENTED_EDGE ( 'NONE', *, *, #580, .F. ) ;
#473 =( LENGTH_UNIT ( ) NAMED_UNIT ( * ) SI_UNIT ( .MILLI., .METRE. ) );
#474 = CC_DESIGN_PERSON_AND_ORGANIZATION_ASSIGNMENT ( #780, #76, ( #991 ) ) ;
#475 = CARTESIAN_POINT ( 'NONE',  ( 39.34999999999999432, 3.999999999999997335, 22.99999999999999289 ) ) ;
#476 = ORIENTED_EDGE ( 'NONE', *, *, #308, .T. ) ;
#477 = ORIENTED_EDGE ( 'NONE', *, *, #898, .F. ) ;
#478 = VECTOR ( 'NONE', #876, 1000.000000000000000 ) ;
#479 = DIRECTION ( 'NONE',  ( -1.261617073437677999E-16, 1.000000000000000000, -0.0000000000000000000 ) ) ;
#480 = PERSON_AND_ORGANIZATION_ROLE ( 'design_owner' ) ;
#481 = FACE_OUTER_BOUND ( 'NONE', #879, .T. ) ;
#482 = DIRECTION ( 'NONE',  ( 0.0000000000000000000, 1.000000000000000000, 0.0000000000000000000 ) ) ;
#483 = EDGE_CURVE ( 'NONE', #754, #945, #282, .T. ) ;
#484 = DIRECTION ( 'NONE',  ( 1.000000000000000000, -8.906522175617109500E-18, 0.0000000000000000000 ) ) ;
#485 = AXIS2_PLACEMENT_3D ( 'NONE', #773, #258, #856 ) ;
#486 = DIRECTION ( 'NONE',  ( -1.000000000000000000, 0.0000000000000000000, 0.0000000000000000000 ) ) ;
#487 = DIRECTION ( 'NONE',  ( 8.906522175617109500E-18, 1.000000000000000000, 0.0000000000000000000 ) ) ;
#488 = ADVANCED_FACE ( 'NONE', ( #537, #691, #508, #85, #606 ), #647, .F. ) ;
#489 = DIRECTION ( 'NONE',  ( 0.0000000000000000000, 1.000000000000000000, 0.0000000000000000000 ) ) ;
#490 = EDGE_LOOP ( 'NONE', ( #828, #269, #669, #654 ) ) ;
#491 = VERTEX_POINT ( 'NONE', #475 ) ;
#492 = FACE_BOUND ( 'NONE', #256, .T. ) ;
#493 = EDGE_LOOP ( 'NONE', ( #844, #138, #507, #139 ) ) ;
#494 = EDGE_CURVE ( 'NONE', #945, #786, #677, .T. ) ;
#495 = CARTESIAN_POINT ( 'NONE',  ( 56.99999999999999289, 0.0000000000000000000, 46.00000000000000000 ) ) ;
#496 = APPLICATION_CONTEXT ( 'configuration controlled 3d designs of mechanical parts and assemblies' ) ;
#497 = ORIENTED_EDGE ( 'NONE', *, *, #846, .T. ) ;
#498 = CARTESIAN_POINT ( 'NONE',  ( 4.000000000000000000, 36.00000000000000000, 18.00000000000000000 ) ) ;
#499 = LOCAL_TIME ( 17, 13, 38.00000000000000000, #365 ) ;
#500 = CIRCLE ( 'NONE', #645, 1.350000000000000533 ) ;
#501 = CARTESIAN_POINT ( 'NONE',  ( 59.00000000000000000, 0.0000000000000000000, 44.00000000000000000 ) ) ;
#502 = EDGE_CURVE ( 'NONE', #972, #396, #289, .T. ) ;
#503 = PLANE ( 'NONE',  #301 ) ;
#504 = CARTESIAN_POINT ( 'NONE',  ( 4.720456753077067711E-16, 53.00000000000000000, 0.0000000000000000000 ) ) ;
#505 = DIRECTION ( 'NONE',  ( -1.000000000000000000, 0.0000000000000000000, 0.0000000000000000000 ) ) ;
#506 = CARTESIAN_POINT ( 'NONE',  ( 59.00000000000000000, 0.0000000000000000000, 46.00000000000000000 ) ) ;
#507 = ORIENTED_EDGE ( 'NONE', *, *, #809, .T. ) ;
#508 = FACE_BOUND ( 'NONE', #352, .T. ) ;
#509 = VERTEX_POINT ( 'NONE', #743 ) ;
#510 = ORIENTED_EDGE ( 'NONE', *, *, #580, .T. ) ;
#511 = CARTESIAN_POINT ( 'NONE',  ( 31.50000000000001421, 0.0000000000000000000, 29.49999999999998934 ) ) ;
#512 = AXIS2_PLACEMENT_3D ( 'NONE', #46, #305, #48 ) ;
#513 = ORIENTED_EDGE ( 'NONE', *, *, #730, .T. ) ;
#514 = CIRCLE ( 'NONE', #370, 1.350000000000000533 ) ;
#515 = LINE ( 'NONE', #845, #874 ) ;
#516 = CARTESIAN_POINT ( 'NONE',  ( 4.000000000000000888, 55.00000000000000000, 44.00000000000000000 ) ) ;
#517 = DIRECTION ( 'NONE',  ( 0.0000000000000000000, 0.0000000000000000000, -1.000000000000000000 ) ) ;
#518 = EDGE_CURVE ( 'NONE', #1091, #957, #24, .T. ) ;
#519 = CARTESIAN_POINT ( 'NONE',  ( 56.99999999999999289, 0.0000000000000000000, 0.0000000000000000000 ) ) ;
#520 = DIRECTION ( 'NONE',  ( -1.000000000000000000, 0.0000000000000000000, 0.0000000000000000000 ) ) ;
#521 = EDGE_LOOP ( 'NONE', ( #767, #725, #867, #399 ) ) ;
#522 = FACE_OUTER_BOUND ( 'NONE', #627, .T. ) ;
#523 = DIRECTION ( 'NONE',  ( 0.0000000000000000000, -1.000000000000000000, 0.0000000000000000000 ) ) ;
#524 = ORIENTED_EDGE ( 'NONE', *, *, #898, .T. ) ;
#525 = VERTEX_POINT ( 'NONE', #1073 ) ;
#526 = EDGE_CURVE ( 'NONE', #768, #858, #1019, .T. ) ;
#527 = DIRECTION ( 'NONE',  ( 0.0000000000000000000, 0.0000000000000000000, -1.000000000000000000 ) ) ;
#528 = DATE_AND_TIME ( #674, #756 ) ;
#529 = APPROVAL ( #583, 'UNSPECIFIED' ) ;
#530 = LINE ( 'NONE', #535, #299 ) ;
#531 = DIRECTION ( 'NONE',  ( 1.000000000000000000, -8.906522175617109500E-18, 0.0000000000000000000 ) ) ;
#532 = CARTESIAN_POINT ( 'NONE',  ( 4.000000000000000000, 3.999999999999993339, 46.00000000000000000 ) ) ;
#533 = CARTESIAN_POINT ( 'NONE',  ( 4.898587196589409870E-16, 55.00000000000000000, 2.000000000000001776 ) ) ;
#534 = AXIS2_PLACEMENT_3D ( 'NONE', #150, #395, #148 ) ;
#535 = CARTESIAN_POINT ( 'NONE',  ( -41.99999999999999289, 36.00000000000000000, 16.64999999999999858 ) ) ;
#536 = ORIENTED_EDGE ( 'NONE', *, *, #400, .T. ) ;
#537 = FACE_BOUND ( 'NONE', #1097, .T. ) ;
#538 = ORIENTED_EDGE ( 'NONE', *, *, #446, .F. ) ;
#539 = EDGE_LOOP ( 'NONE', ( #30, #672, #524, #266 ) ) ;
#540 = ORIENTED_EDGE ( 'NONE', *, *, #194, .T. ) ;
#541 = AXIS2_PLACEMENT_3D ( 'NONE', #997, #82, #1095 ) ;
#542 = LOCAL_TIME ( 17, 13, 38.00000000000000000, #964 ) ;
#543 = CIRCLE ( 'NONE', #485, 1.350000000000000533 ) ;
#544 = DESIGN_CONTEXT ( 'detailed design', #1090, 'design' ) ;
#545 = AXIS2_PLACEMENT_3D ( 'NONE', #120, #623, #25 ) ;
#546 = DIRECTION ( 'NONE',  ( -0.0000000000000000000, -0.0000000000000000000, -1.000000000000000000 ) ) ;
#547 = ORIENTED_EDGE ( 'NONE', *, *, #86, .F. ) ;
#548 = EDGE_LOOP ( 'NONE', ( #221, #225, #416, #198 ) ) ;
#549 = VERTEX_POINT ( 'NONE', #824 ) ;
#550 = DIRECTION ( 'NONE',  ( -0.0000000000000000000, 0.0000000000000000000, 1.000000000000000000 ) ) ;
#551 = AXIS2_PLACEMENT_3D ( 'NONE', #761, #327, #1014 ) ;
#552 = DIRECTION ( 'NONE',  ( -1.000000000000000000, 0.0000000000000000000, 0.0000000000000000000 ) ) ;
#553 = EDGE_CURVE ( 'NONE', #32, #935, #742, .T. ) ;
#554 = ORIENTED_EDGE ( 'NONE', *, *, #853, .T. ) ;
#555 = FACE_OUTER_BOUND ( 'NONE', #617, .T. ) ;
#556 = VERTEX_POINT ( 'NONE', #146 ) ;
#557 = VERTEX_POINT ( 'NONE', #830 ) ;
#558 = VERTEX_POINT ( 'NONE', #736 ) ;
#559 = CARTESIAN_POINT ( 'NONE',  ( 56.99999999999999289, 0.0000000000000000000, 44.00000000000000000 ) ) ;
#560 = CIRCLE ( 'NONE', #237, 1.349999999999996980 ) ;
#561 = VECTOR ( 'NONE', #337, 1000.000000000000000 ) ;
#562 = AXIS2_PLACEMENT_3D ( 'NONE', #180, #851, #421 ) ;
#563 =( NAMED_UNIT ( * ) SI_UNIT ( $, .STERADIAN. ) SOLID_ANGLE_UNIT ( ) );
#564 = DIRECTION ( 'NONE',  ( 0.0000000000000000000, -1.000000000000000000, 0.0000000000000000000 ) ) ;
#565 = PLANE ( 'NONE',  #718 ) ;
#566 = CARTESIAN_POINT ( 'NONE',  ( 0.0000000000000000000, 0.0000000000000000000, 0.0000000000000000000 ) ) ;
#567 = FACE_OUTER_BOUND ( 'NONE', #539, .T. ) ;
#568 = EDGE_CURVE ( 'NONE', #306, #509, #192, .T. ) ;
#569 = CARTESIAN_POINT ( 'NONE',  ( -41.99999999999999289, 23.00000000000000000, 16.64999999999999858 ) ) ;
#570 = ORIENTED_EDGE ( 'NONE', *, *, #796, .F. ) ;
#571 = ADVANCED_FACE ( 'NONE', ( #1056 ), #835, .T. ) ;
#572 = PERSON_AND_ORGANIZATION_ROLE ( 'classification_officer' ) ;
#573 = CARTESIAN_POINT ( 'NONE',  ( 0.0000000000000000000, 36.00000000000000000, 18.00000000000000000 ) ) ;
#574 = VERTEX_POINT ( 'NONE', #1084 ) ;
#575 = ORIENTED_EDGE ( 'NONE', *, *, #157, .F. ) ;
#576 = DIRECTION ( 'NONE',  ( 0.0000000000000000000, 0.0000000000000000000, 1.000000000000000000 ) ) ;
#577 = DATE_AND_TIME ( #213, #499 ) ;
#578 = CIRCLE ( 'NONE', #181, 1.349999999999996980 ) ;
#579 = CARTESIAN_POINT ( 'NONE',  ( 36.65000000000000568, -42.00000000000000000, 22.99999999999999289 ) ) ;
#580 = EDGE_CURVE ( 'NONE', #816, #549, #500, .T. ) ;
#581 = DIRECTION ( 'NONE',  ( -0.0000000000000000000, 0.0000000000000000000, 1.000000000000000000 ) ) ;
#582 = CC_DESIGN_PERSON_AND_ORGANIZATION_ASSIGNMENT ( #428, #572, ( #1037 ) ) ;
#583 = APPROVAL_STATUS ( 'not_yet_approved' ) ;
#584 = CARTESIAN_POINT ( 'NONE',  ( 4.898587196589409870E-16, 55.00000000000000000, 46.00000000000000000 ) ) ;
#585 = DIRECTION ( 'NONE',  ( 0.0000000000000000000, 1.000000000000000000, 0.0000000000000000000 ) ) ;
#586 = DIRECTION ( 'NONE',  ( 1.000000000000000000, 0.0000000000000000000, 0.0000000000000000000 ) ) ;
#587 = DIRECTION ( 'NONE',  ( 0.0000000000000000000, 0.0000000000000000000, 1.000000000000000000 ) ) ;
#588 = VERTEX_POINT ( 'NONE', #325 ) ;
#589 = CIRCLE ( 'NONE', #360, 1.349999999999996980 ) ;
#590 = EDGE_LOOP ( 'NONE', ( #402, #600 ) ) ;
#591 = DIRECTION ( 'NONE',  ( -1.000000000000000000, 0.0000000000000000000, 0.0000000000000000000 ) ) ;
#592 = ORIENTED_EDGE ( 'NONE', *, *, #971, .F. ) ;
#593 = LINE ( 'NONE', #1026, #367 ) ;
#594 = DIRECTION ( 'NONE',  ( -1.000000000000000000, 0.0000000000000000000, 0.0000000000000000000 ) ) ;
#595 = AXIS2_PLACEMENT_3D ( 'NONE', #1007, #1003, #231 ) ;
#596 = DIRECTION ( 'NONE',  ( -0.0000000000000000000, -0.0000000000000000000, 1.000000000000000000 ) ) ;
#597 = AXIS2_PLACEMENT_3D ( 'NONE', #276, #865, #523 ) ;
#598 = DIRECTION ( 'NONE',  ( -1.261617073437677999E-16, 1.000000000000000000, -0.0000000000000000000 ) ) ;
#599 = CIRCLE ( 'NONE', #595, 2.000000000000001776 ) ;
#600 = ORIENTED_EDGE ( 'NONE', *, *, #172, .F. ) ;
#601 = VECTOR ( 'NONE', #546, 1000.000000000000000 ) ;
#602 = VERTEX_POINT ( 'NONE', #1086 ) ;
#603 = CARTESIAN_POINT ( 'NONE',  ( 32.85000000000000853, 0.0000000000000000000, 16.49999999999998934 ) ) ;
#604 = AXIS2_PLACEMENT_3D ( 'NONE', #268, #933, #106 ) ;
#605 = EDGE_LOOP ( 'NONE', ( #476, #1064 ) ) ;
#606 = FACE_OUTER_BOUND ( 'NONE', #128, .T. ) ;
#607 = DIRECTION ( 'NONE',  ( -1.261617073437677999E-16, 1.000000000000000000, -0.0000000000000000000 ) ) ;
#608 = CARTESIAN_POINT ( 'NONE',  ( 4.000000000000000888, 55.00000000000000000, 2.000000000000001776 ) ) ;
#609 = AXIS2_PLACEMENT_3D ( 'NONE', #694, #357, #177 ) ;
#610 = DIRECTION ( 'NONE',  ( -1.000000000000000000, 0.0000000000000000000, 0.0000000000000000000 ) ) ;
#611 = LINE ( 'NONE', #976, #398 ) ;
#612 = DIRECTION ( 'NONE',  ( 0.0000000000000000000, 0.0000000000000000000, -1.000000000000000000 ) ) ;
#613 = ORIENTED_EDGE ( 'NONE', *, *, #914, .F. ) ;
#614 = LINE ( 'NONE', #980, #324 ) ;
#615 = DIRECTION ( 'NONE',  ( 1.000000000000000000, -0.0000000000000000000, -0.0000000000000000000 ) ) ;
#616 = ORIENTED_EDGE ( 'NONE', *, *, #427, .F. ) ;
#617 = EDGE_LOOP ( 'NONE', ( #710, #104, #570, #1043, #326, #162 ) ) ;
#618 = EDGE_CURVE ( 'NONE', #1054, #226, #45, .T. ) ;
#619 = CARTESIAN_POINT ( 'NONE',  ( 56.99999999999999289, 4.000000000000000000, 46.00000000000000000 ) ) ;
#620 = APPROVAL_PERSON_ORGANIZATION ( #873, #254, #988 ) ;
#621 = DIRECTION ( 'NONE',  ( 1.000000000000000000, 0.0000000000000000000, 0.0000000000000000000 ) ) ;
#622 = VECTOR ( 'NONE', #489, 1000.000000000000000 ) ;
#623 = DIRECTION ( 'NONE',  ( 1.000000000000000000, -0.0000000000000000000, -0.0000000000000000000 ) ) ;
#624 = EDGE_CURVE ( 'NONE', #549, #816, #444, .T. ) ;
#625 = AXIS2_PLACEMENT_3D ( 'NONE', #12, #527, #1030 ) ;
#626 = EDGE_LOOP ( 'NONE', ( #892, #932 ) ) ;
#627 = EDGE_LOOP ( 'NONE', ( #982, #628, #993, #338 ) ) ;
#628 = ORIENTED_EDGE ( 'NONE', *, *, #105, .F. ) ;
#629 = ORIENTED_EDGE ( 'NONE', *, *, #315, .T. ) ;
#630 = EDGE_CURVE ( 'NONE', #602, #449, #216, .T. ) ;
#631 = LOCAL_TIME ( 17, 13, 38.00000000000000000, #274 ) ;
#632 = DIRECTION ( 'NONE',  ( -1.261617073437677999E-16, 1.000000000000000000, -0.0000000000000000000 ) ) ;
#633 = CYLINDRICAL_SURFACE ( 'NONE', #1059, 1.349999999999996980 ) ;
#634 = DIRECTION ( 'NONE',  ( 0.0000000000000000000, 0.0000000000000000000, -1.000000000000000000 ) ) ;
#635 = PRODUCT_RELATED_PRODUCT_CATEGORY ( 'detail', '', ( #1008 ) ) ;
#636 = FACE_BOUND ( 'NONE', #974, .T. ) ;
#637 = ORIENTED_EDGE ( 'NONE', *, *, #518, .F. ) ;
#638 = CIRCLE ( 'NONE', #1104, 1.350000000000004086 ) ;
#639 = ORIENTED_EDGE ( 'NONE', *, *, #140, .F. ) ;
#640 = DIRECTION ( 'NONE',  ( -1.261617073437677999E-16, 1.000000000000000000, -0.0000000000000000000 ) ) ;
#641 = ORIENTED_EDGE ( 'NONE', *, *, #822, .F. ) ;
#642 = ADVANCED_BREP_SHAPE_REPRESENTATION ( 'camera link', ( #333, #958 ), #111 ) ;
#643 = CARTESIAN_POINT ( 'NONE',  ( 4.898587196589409870E-16, 55.00000000000000000, 44.00000000000000000 ) ) ;
#644 = CALENDAR_DATE ( 2019, 12, 12 ) ;
#645 = AXIS2_PLACEMENT_3D ( 'NONE', #334, #1006, #1102 ) ;
#646 = CIRCLE ( 'NONE', #262, 1.349999999999996980 ) ;
#647 = PLANE ( 'NONE',  #246 ) ;
#648 = ADVANCED_FACE ( 'NONE', ( #277 ), #966, .F. ) ;
#649 = DIRECTION ( 'NONE',  ( 1.000000000000000000, -8.906522175617109500E-18, 0.0000000000000000000 ) ) ;
#650 = EDGE_CURVE ( 'NONE', #957, #166, #927, .T. ) ;
#651 = APPLICATION_PROTOCOL_DEFINITION ( 'international standard', 'config_control_design', 1994, #1090 ) ;
#652 = CYLINDRICAL_SURFACE ( 'NONE', #833, 1.350000000000000533 ) ;
#653 = CARTESIAN_POINT ( 'NONE',  ( 31.50000000000001421, 3.999999999999996447, 29.49999999999998934 ) ) ;
#654 = ORIENTED_EDGE ( 'NONE', *, *, #27, .T. ) ;
#655 = CARTESIAN_POINT ( 'NONE',  ( 39.34999999999999432, 0.0000000000000000000, 22.99999999999999289 ) ) ;
#656 = ORIENTED_EDGE ( 'NONE', *, *, #379, .T. ) ;
#657 = ORIENTED_EDGE ( 'NONE', *, *, #27, .F. ) ;
#658 = FACE_OUTER_BOUND ( 'NONE', #687, .T. ) ;
#659 = CARTESIAN_POINT ( 'NONE',  ( 4.000000000000000888, 55.00000000000000000, 46.00000000000000000 ) ) ;
#660 = AXIS2_PLACEMENT_3D ( 'NONE', #108, #279, #439 ) ;
#661 = PERSON_AND_ORGANIZATION_ROLE ( 'creator' ) ;
#662 = DIRECTION ( 'NONE',  ( 0.0000000000000000000, -1.000000000000000000, 0.0000000000000000000 ) ) ;
#663 = CARTESIAN_POINT ( 'NONE',  ( -41.99999999999999289, 23.00000000000000000, 18.00000000000000000 ) ) ;
#664 = CARTESIAN_POINT ( 'NONE',  ( 56.99999999999999289, 0.0000000000000000000, 2.000000000000001776 ) ) ;
#665 = ADVANCED_FACE ( 'NONE', ( #795 ), #633, .F. ) ;
#666 = DIRECTION ( 'NONE',  ( 1.000000000000000000, 0.0000000000000000000, 0.0000000000000000000 ) ) ;
#667 = EDGE_LOOP ( 'NONE', ( #134, #1063, #207, #641 ) ) ;
#668 = AXIS2_PLACEMENT_3D ( 'NONE', #298, #302, #634 ) ;
#669 = ORIENTED_EDGE ( 'NONE', *, *, #693, .T. ) ;
#670 = VECTOR ( 'NONE', #632, 1000.000000000000000 ) ;
#671 = CARTESIAN_POINT ( 'NONE',  ( 56.99999999999999289, 0.0000000000000000000, 0.0000000000000000000 ) ) ;
#672 = ORIENTED_EDGE ( 'NONE', *, *, #433, .T. ) ;
#673 = ORIENTED_EDGE ( 'NONE', *, *, #678, .T. ) ;
#674 = CALENDAR_DATE ( 2019, 12, 12 ) ;
#675 = CYLINDRICAL_SURFACE ( 'NONE', #850, 2.000000000000000000 ) ;
#676 = DIRECTION ( 'NONE',  ( 0.0000000000000000000, 0.0000000000000000000, -1.000000000000000000 ) ) ;
#677 = LINE ( 'NONE', #155, #862 ) ;
#678 = EDGE_CURVE ( 'NONE', #768, #1091, #515, .T. ) ;
#679 = CARTESIAN_POINT ( 'NONE',  ( 31.50000000000001421, 3.999999999999996447, 29.49999999999998934 ) ) ;
#680 = CARTESIAN_POINT ( 'NONE',  ( -41.99999999999999289, 29.50000000000000355, 23.14999999999999858 ) ) ;
#681 = EDGE_CURVE ( 'NONE', #165, #957, #1067, .T. ) ;
#682 = LINE ( 'NONE', #264, #149 ) ;
#683 = CARTESIAN_POINT ( 'NONE',  ( 36.64999999999999858, 3.999999999999997335, 22.99999999999999289 ) ) ;
#684 = ORIENTED_EDGE ( 'NONE', *, *, #618, .T. ) ;
#685 = AXIS2_PLACEMENT_3D ( 'NONE', #369, #110, #707 ) ;
#686 = DIRECTION ( 'NONE',  ( 0.0000000000000000000, 0.0000000000000000000, -1.000000000000000000 ) ) ;
#687 = EDGE_LOOP ( 'NONE', ( #811, #656, #4, #386, #1060, #56, #460, #171 ) ) ;
#688 = EDGE_LOOP ( 'NONE', ( #304, #1015, #435, #323 ) ) ;
#689 = DIRECTION ( 'NONE',  ( -1.000000000000000000, 0.0000000000000000000, 0.0000000000000000000 ) ) ;
#690 = APPROVAL_PERSON_ORGANIZATION ( #377, #1069, #916 ) ;
#691 = FACE_BOUND ( 'NONE', #626, .T. ) ;
#692 = DIRECTION ( 'NONE',  ( -1.000000000000000000, 0.0000000000000000000, 0.0000000000000000000 ) ) ;
#693 = EDGE_CURVE ( 'NONE', #123, #19, #59, .T. ) ;
#694 = CARTESIAN_POINT ( 'NONE',  ( 4.000000000000000000, 23.00000000000000000, 18.00000000000000000 ) ) ;
#695 = CARTESIAN_POINT ( 'NONE',  ( 36.64999999999999858, 0.0000000000000000000, 22.99999999999999289 ) ) ;
#696 = ORIENTED_EDGE ( 'NONE', *, *, #803, .F. ) ;
#697 = ORIENTED_EDGE ( 'NONE', *, *, #390, .T. ) ;
#698 = VECTOR ( 'NONE', #784, 1000.000000000000000 ) ;
#699 = ORIENTED_EDGE ( 'NONE', *, *, #290, .F. ) ;
#700 = DIRECTION ( 'NONE',  ( -1.000000000000000000, 0.0000000000000000000, 0.0000000000000000000 ) ) ;
#701 = ORIENTED_EDGE ( 'NONE', *, *, #250, .T. ) ;
#702 = CARTESIAN_POINT ( 'NONE',  ( -41.99999999999999289, 36.00000000000000000, 19.34999999999999787 ) ) ;
#703 = CIRCLE ( 'NONE', #310, 1.350000000000000533 ) ;
#704 = VECTOR ( 'NONE', #992, 1000.000000000000000 ) ;
#705 = DIRECTION ( 'NONE',  ( 0.0000000000000000000, 0.0000000000000000000, 1.000000000000000000 ) ) ;
#706 = AXIS2_PLACEMENT_3D ( 'NONE', #884, #468, #813 ) ;
#707 = DIRECTION ( 'NONE',  ( -1.000000000000000000, 0.0000000000000000000, 0.0000000000000000000 ) ) ;
#708 = CARTESIAN_POINT ( 'NONE',  ( 2.000000000000000000, 0.0000000000000000000, 0.0000000000000000000 ) ) ;
#709 = CIRCLE ( 'NONE', #764, 1.350000000000000533 ) ;
#710 = ORIENTED_EDGE ( 'NONE', *, *, #212, .T. ) ;
#711 = ORIENTED_EDGE ( 'NONE', *, *, #204, .F. ) ;
#712 = DIRECTION ( 'NONE',  ( -1.261617073437677999E-16, 1.000000000000000000, -0.0000000000000000000 ) ) ;
#713 = ORIENTED_EDGE ( 'NONE', *, *, #60, .T. ) ;
#714 = CC_DESIGN_SECURITY_CLASSIFICATION ( #1037, ( #991 ) ) ;
#715 = LINE ( 'NONE', #702, #781 ) ;
#716 = CYLINDRICAL_SURFACE ( 'NONE', #200, 1.350000000000000533 ) ;
#717 = CARTESIAN_POINT ( 'NONE',  ( 30.15000000000002345, -42.00000000000000000, 16.49999999999998934 ) ) ;
#718 = AXIS2_PLACEMENT_3D ( 'NONE', #412, #63, #836 ) ;
#719 = DIRECTION ( 'NONE',  ( -1.000000000000000000, 0.0000000000000000000, 0.0000000000000000000 ) ) ;
#720 = FACE_OUTER_BOUND ( 'NONE', #102, .T. ) ;
#721 = ORIENTED_EDGE ( 'NONE', *, *, #1094, .T. ) ;
#722 = LINE ( 'NONE', #1044, #751 ) ;
#723 = CARTESIAN_POINT ( 'NONE',  ( -41.99999999999999289, 29.50000000000000355, 11.50000000000000000 ) ) ;
#724 = EDGE_LOOP ( 'NONE', ( #343, #84 ) ) ;
#725 = ORIENTED_EDGE ( 'NONE', *, *, #738, .T. ) ;
#726 = AXIS2_PLACEMENT_3D ( 'NONE', #188, #951, #610 ) ;
#727 = CARTESIAN_POINT ( 'NONE',  ( 4.000000000000000888, 52.99999999999999289, 46.00000000000000000 ) ) ;
#728 = VECTOR ( 'NONE', #461, 1000.000000000000000 ) ;
#729 = DIRECTION ( 'NONE',  ( -0.0000000000000000000, -0.0000000000000000000, -1.000000000000000000 ) ) ;
#730 = EDGE_CURVE ( 'NONE', #240, #374, #897, .T. ) ;
#731 = ADVANCED_FACE ( 'NONE', ( #419 ), #465, .T. ) ;
#732 = AXIS2_PLACEMENT_3D ( 'NONE', #252, #942, #431 ) ;
#733 = EDGE_LOOP ( 'NONE', ( #354, #778, #857, #394, #616, #87 ) ) ;
#734 = CIRCLE ( 'NONE', #1022, 1.350000000000000533 ) ;
#735 = ORIENTED_EDGE ( 'NONE', *, *, #853, .F. ) ;
#736 = CARTESIAN_POINT ( 'NONE',  ( 5.999999999999998224, 3.999999999999993339, 46.00000000000000000 ) ) ;
#737 = VERTEX_POINT ( 'NONE', #1075 ) ;
#738 = EDGE_CURVE ( 'NONE', #186, #774, #247, .T. ) ;
#739 = LINE ( 'NONE', #608, #478 ) ;
#740 = CARTESIAN_POINT ( 'NONE',  ( 4.000000000000000000, 36.00000000000000000, 16.64999999999999858 ) ) ;
#741 = AXIS2_PLACEMENT_3D ( 'NONE', #389, #482, #902 ) ;
#742 = CIRCLE ( 'NONE', #20, 1.350000000000000533 ) ;
#743 = CARTESIAN_POINT ( 'NONE',  ( 0.0000000000000000000, 36.00000000000000000, 19.34999999999999787 ) ) ;
#744 = DIRECTION ( 'NONE',  ( -1.261617073437677999E-16, 1.000000000000000000, -0.0000000000000000000 ) ) ;
#745 = EDGE_CURVE ( 'NONE', #1091, #176, #430, .T. ) ;
#746 = CARTESIAN_POINT ( 'NONE',  ( 5.999999999999998224, 3.999999999999993339, 0.0000000000000000000 ) ) ;
#747 =( NAMED_UNIT ( * ) PLANE_ANGLE_UNIT ( ) SI_UNIT ( $, .RADIAN. ) );
#748 = CIRCLE ( 'NONE', #604, 1.349999999999996980 ) ;
#749 = DIRECTION ( 'NONE',  ( 0.0000000000000000000, -0.0000000000000000000, -1.000000000000000000 ) ) ;
#750 = VERTEX_POINT ( 'NONE', #832 ) ;
#751 = VECTOR ( 'NONE', #196, 1000.000000000000000 ) ;
#752 = ORIENTED_EDGE ( 'NONE', *, *, #1094, .F. ) ;
#753 = DIRECTION ( 'NONE',  ( 0.0000000000000000000, -0.0000000000000000000, -1.000000000000000000 ) ) ;
#754 = VERTEX_POINT ( 'NONE', #159 ) ;
#755 = CARTESIAN_POINT ( 'NONE',  ( -41.99999999999999289, 23.00000000000000000, 18.00000000000000000 ) ) ;
#756 = LOCAL_TIME ( 17, 13, 38.00000000000000000, #1055 ) ;
#757 = DIRECTION ( 'NONE',  ( 1.000000000000000000, -0.0000000000000000000, 0.0000000000000000000 ) ) ;
#758 = LINE ( 'NONE', #109, #287 ) ;
#759 = AXIS2_PLACEMENT_3D ( 'NONE', #358, #949, #112 ) ;
#760 = CARTESIAN_POINT ( 'NONE',  ( 56.99999999999999289, 0.0000000000000000000, 2.000000000000001776 ) ) ;
#761 = CARTESIAN_POINT ( 'NONE',  ( 31.50000000000002132, -42.00000000000000000, 16.49999999999998934 ) ) ;
#762 = DIRECTION ( 'NONE',  ( -1.261617073437677999E-16, 1.000000000000000000, 0.0000000000000000000 ) ) ;
#763 = DIRECTION ( 'NONE',  ( 1.000000000000000000, -0.0000000000000000000, -0.0000000000000000000 ) ) ;
#764 = AXIS2_PLACEMENT_3D ( 'NONE', #248, #585, #576 ) ;
#765 = EDGE_LOOP ( 'NONE', ( #752, #40, #802, #701 ) ) ;
#766 = CIRCLE ( 'NONE', #660, 1.349999999999996980 ) ;
#767 = ORIENTED_EDGE ( 'NONE', *, *, #60, .F. ) ;
#768 = VERTEX_POINT ( 'NONE', #393 ) ;
#769 = EDGE_LOOP ( 'NONE', ( #711, #42, #513, #413 ) ) ;
#770 = DATE_AND_TIME ( #987, #542 ) ;
#771 = LINE ( 'NONE', #74, #405 ) ;
#772 = AXIS2_PLACEMENT_3D ( 'NONE', #923, #930, #666 ) ;
#773 = CARTESIAN_POINT ( 'NONE',  ( 31.50000000000001421, 0.0000000000000000000, 29.49999999999998934 ) ) ;
#774 = VERTEX_POINT ( 'NONE', #236 ) ;
#775 = ORIENTED_EDGE ( 'NONE', *, *, #803, .T. ) ;
#776 = FACE_BOUND ( 'NONE', #724, .T. ) ;
#777 = PLANE ( 'NONE',  #10 ) ;
#778 = ORIENTED_EDGE ( 'NONE', *, *, #441, .T. ) ;
#779 = ORIENTED_EDGE ( 'NONE', *, *, #471, .T. ) ;
#780 = PERSON_AND_ORGANIZATION ( #1088, #245 ) ;
#781 = VECTOR ( 'NONE', #615, 1000.000000000000000 ) ;
#782 = DIRECTION ( 'NONE',  ( 1.000000000000000000, -0.0000000000000000000, -0.0000000000000000000 ) ) ;
#783 = AXIS2_PLACEMENT_3D ( 'NONE', #532, #191, #273 ) ;
#784 = DIRECTION ( 'NONE',  ( 0.0000000000000000000, 1.000000000000000000, -0.0000000000000000000 ) ) ;
#785 = DIRECTION ( 'NONE',  ( 0.0000000000000000000, 0.0000000000000000000, -1.000000000000000000 ) ) ;
#786 = VERTEX_POINT ( 'NONE', #501 ) ;
#787 = CYLINDRICAL_SURFACE ( 'NONE', #545, 1.350000000000000533 ) ;
#788 = EDGE_CURVE ( 'NONE', #8, #750, #820, .T. ) ;
#789 = ORIENTED_EDGE ( 'NONE', *, *, #553, .T. ) ;
#790 = DIRECTION ( 'NONE',  ( 1.000000000000000000, -8.906522175617109500E-18, 0.0000000000000000000 ) ) ;
#791 = AXIS2_PLACEMENT_3D ( 'NONE', #679, #762, #347 ) ;
#792 = EDGE_LOOP ( 'NONE', ( #364, #153 ) ) ;
#793 = VECTOR ( 'NONE', #366, 1000.000000000000000 ) ;
#794 = CARTESIAN_POINT ( 'NONE',  ( 0.0000000000000000000, 23.00000000000000000, 16.64999999999999858 ) ) ;
#795 = FACE_OUTER_BOUND ( 'NONE', #872, .T. ) ;
#796 = EDGE_CURVE ( 'NONE', #574, #588, #260, .T. ) ;
#797 = AXIS2_PLACEMENT_3D ( 'NONE', #498, #71, #676 ) ;
#798 = DIRECTION ( 'NONE',  ( -1.261617073437677999E-16, 1.000000000000000000, -0.0000000000000000000 ) ) ;
#799 = CIRCLE ( 'NONE', #772, 2.000000000000000000 ) ;
#800 = ORIENTED_EDGE ( 'NONE', *, *, #1068, .F. ) ;
#801 = FACE_OUTER_BOUND ( 'NONE', #733, .T. ) ;
#802 = ORIENTED_EDGE ( 'NONE', *, *, #965, .T. ) ;
#803 = EDGE_CURVE ( 'NONE', #18, #491, #771, .T. ) ;
#804 = CARTESIAN_POINT ( 'NONE',  ( 23.65000000000001990, -42.00000000000000000, 22.99999999999999289 ) ) ;
#805 = VERTEX_POINT ( 'NONE', #746 ) ;
#806 = CALENDAR_DATE ( 2019, 12, 12 ) ;
#807 = FACE_OUTER_BOUND ( 'NONE', #688, .T. ) ;
#808 = PLANE ( 'NONE',  #391 ) ;
#809 = EDGE_CURVE ( 'NONE', #737, #19, #345, .T. ) ;
#810 = CARTESIAN_POINT ( 'NONE',  ( 4.000000000000000000, 23.00000000000000000, 16.64999999999999858 ) ) ;
#811 = ORIENTED_EDGE ( 'NONE', *, *, #990, .T. ) ;
#812 = LINE ( 'NONE', #292, #1025 ) ;
#813 = DIRECTION ( 'NONE',  ( 8.906522175617103337E-18, 1.000000000000000000, 0.0000000000000000000 ) ) ;
#814 = ORIENTED_EDGE ( 'NONE', *, *, #1029, .F. ) ;
#815 = ADVANCED_FACE ( 'NONE', ( #939 ), #716, .F. ) ;
#816 = VERTEX_POINT ( 'NONE', #740 ) ;
#817 = AXIS2_PLACEMENT_3D ( 'NONE', #130, #550, #463 ) ;
#818 = DIRECTION ( 'NONE',  ( 1.000000000000000000, -8.906522175617109500E-18, 0.0000000000000000000 ) ) ;
#819 = CIRCLE ( 'NONE', #732, 1.350000000000004086 ) ;
#820 = CIRCLE ( 'NONE', #97, 1.350000000000000533 ) ;
#821 = ADVANCED_FACE ( 'NONE', ( #658 ), #565, .T. ) ;
#822 = EDGE_CURVE ( 'NONE', #166, #376, #1045, .T. ) ;
#823 = CC_DESIGN_APPROVAL ( #1069, ( #1037 ) ) ;
#824 = CARTESIAN_POINT ( 'NONE',  ( 4.000000000000000000, 36.00000000000000000, 19.34999999999999787 ) ) ;
#825 = ADVANCED_FACE ( 'NONE', ( #481 ), #388, .F. ) ;
#826 = ORIENTED_EDGE ( 'NONE', *, *, #904, .F. ) ;
#827 = CARTESIAN_POINT ( 'NONE',  ( 31.50000000000002132, -42.00000000000000000, 16.49999999999998934 ) ) ;
#828 = ORIENTED_EDGE ( 'NONE', *, *, #344, .F. ) ;
#829 = FACE_BOUND ( 'NONE', #124, .T. ) ;
#830 = CARTESIAN_POINT ( 'NONE',  ( 30.15000000000001634, 3.999999999999996447, 16.49999999999998934 ) ) ;
#831 = EDGE_LOOP ( 'NONE', ( #127, #1096, #575, #1041 ) ) ;
#832 = CARTESIAN_POINT ( 'NONE',  ( 0.0000000000000000000, 29.50000000000000355, 23.14999999999999858 ) ) ;
#833 = AXIS2_PLACEMENT_3D ( 'NONE', #663, #763, #78 ) ;
#834 = APPROVAL_STATUS ( 'not_yet_approved' ) ;
#835 = CYLINDRICAL_SURFACE ( 'NONE', #79, 2.000000000000001776 ) ;
#836 = DIRECTION ( 'NONE',  ( 1.000000000000000000, 0.0000000000000000000, 0.0000000000000000000 ) ) ;
#837 = DIRECTION ( 'NONE',  ( -1.261617073437677999E-16, 1.000000000000000000, -0.0000000000000000000 ) ) ;
#838 = AXIS2_PLACEMENT_3D ( 'NONE', #209, #300, #894 ) ;
#839 = DIRECTION ( 'NONE',  ( 1.000000000000000000, 0.0000000000000000000, 0.0000000000000000000 ) ) ;
#840 = FACE_OUTER_BOUND ( 'NONE', #831, .T. ) ;
#841 = ORIENTED_EDGE ( 'NONE', *, *, #553, .F. ) ;
#842 = FACE_OUTER_BOUND ( 'NONE', #947, .T. ) ;
#843 = ORIENTED_EDGE ( 'NONE', *, *, #1085, .F. ) ;
#844 = ORIENTED_EDGE ( 'NONE', *, *, #1047, .F. ) ;
#845 = CARTESIAN_POINT ( 'NONE',  ( 2.000000000000000000, 0.0000000000000000000, 46.00000000000000000 ) ) ;
#846 = EDGE_CURVE ( 'NONE', #1053, #919, #646, .T. ) ;
#847 = LINE ( 'NONE', #680, #977 ) ;
#848 = PRODUCT_DEFINITION_SHAPE ( 'NONE', 'NONE',  #925 ) ;
#849 = VECTOR ( 'NONE', #80, 1000.000000000000000 ) ;
#850 = AXIS2_PLACEMENT_3D ( 'NONE', #23, #705, #621 ) ;
#851 = DIRECTION ( 'NONE',  ( -1.000000000000000000, 8.906522175617109500E-18, -0.0000000000000000000 ) ) ;
#852 = CARTESIAN_POINT ( 'NONE',  ( 26.35000000000000497, 3.999999999999995559, 22.99999999999999289 ) ) ;
#853 = EDGE_CURVE ( 'NONE', #136, #901, #543, .T. ) ;
#854 = DIRECTION ( 'NONE',  ( 0.0000000000000000000, 1.000000000000000000, 0.0000000000000000000 ) ) ;
#855 = AXIS2_PLACEMENT_3D ( 'NONE', #723, #887, #979 ) ;
#856 = DIRECTION ( 'NONE',  ( 0.0000000000000000000, 0.0000000000000000000, 1.000000000000000000 ) ) ;
#857 = ORIENTED_EDGE ( 'NONE', *, *, #1085, .T. ) ;
#858 = VERTEX_POINT ( 'NONE', #495 ) ;
#859 = VERTEX_POINT ( 'NONE', #424 ) ;
#860 = ORIENTED_EDGE ( 'NONE', *, *, #38, .T. ) ;
#861 = CARTESIAN_POINT ( 'NONE',  ( 4.000000000000000000, 29.50000000000000355, 23.14999999999999858 ) ) ;
#862 = VECTOR ( 'NONE', #1078, 1000.000000000000000 ) ;
#863 = EDGE_CURVE ( 'NONE', #123, #921, #37, .T. ) ;
#864 = DIRECTION ( 'NONE',  ( 1.000000000000000000, -0.0000000000000000000, -0.0000000000000000000 ) ) ;
#865 = DIRECTION ( 'NONE',  ( 1.000000000000000000, -1.700709290173340101E-17, -0.0000000000000000000 ) ) ;
#866 = CARTESIAN_POINT ( 'NONE',  ( 59.00000000000000000, 0.0000000000000000000, 2.000000000000001776 ) ) ;
#867 = ORIENTED_EDGE ( 'NONE', *, *, #290, .T. ) ;
#868 = CARTESIAN_POINT ( 'NONE',  ( 30.15000000000002345, -42.00000000000000000, 29.49999999999998934 ) ) ;
#869 = EDGE_LOOP ( 'NONE', ( #814, #995, #908, #510 ) ) ;
#870 = FACE_BOUND ( 'NONE', #590, .T. ) ;
#871 = ORIENTED_EDGE ( 'NONE', *, *, #219, .T. ) ;
#872 = EDGE_LOOP ( 'NONE', ( #452, #735, #272, #206 ) ) ;
#873 = PERSON_AND_ORGANIZATION ( #1088, #245 ) ;
#874 = VECTOR ( 'NONE', #409, 1000.000000000000000 ) ;
#875 = AXIS2_PLACEMENT_3D ( 'NONE', #349, #261, #251 ) ;
#876 = DIRECTION ( 'NONE',  ( -1.000000000000000000, 0.0000000000000000000, 0.0000000000000000000 ) ) ;
#877 = CIRCLE ( 'NONE', #541, 1.350000000000000533 ) ;
#878 = EDGE_CURVE ( 'NONE', #176, #449, #909, .T. ) ;
#879 = EDGE_LOOP ( 'NONE', ( #948, #457, #905, #72 ) ) ;
#880 = CC_DESIGN_PERSON_AND_ORGANIZATION_ASSIGNMENT ( #896, #480, ( #1008 ) ) ;
#881 = ORIENTED_EDGE ( 'NONE', *, *, #788, .F. ) ;
#882 = ORIENTED_EDGE ( 'NONE', *, *, #383, .F. ) ;
#883 = APPROVAL_DATE_TIME ( #924, #529 ) ;
#884 = CARTESIAN_POINT ( 'NONE',  ( 8.673617379884035472E-16, 53.00000000000000000, 2.000000000000001776 ) ) ;
#885 = CIRCLE ( 'NONE', #791, 1.349999999999996980 ) ;
#886 = CC_DESIGN_APPROVAL ( #254, ( #925 ) ) ;
#887 = DIRECTION ( 'NONE',  ( 1.000000000000000000, -0.0000000000000000000, -0.0000000000000000000 ) ) ;
#888 = CARTESIAN_POINT ( 'NONE',  ( 59.00000000000000000, 4.000000000000000000, 46.00000000000000000 ) ) ;
#889 = ORIENTED_EDGE ( 'NONE', *, *, #678, .F. ) ;
#890 = VERTEX_POINT ( 'NONE', #95 ) ;
#891 = LINE ( 'NONE', #385, #152 ) ;
#892 = ORIENTED_EDGE ( 'NONE', *, *, #863, .T. ) ;
#893 = AXIS2_PLACEMENT_3D ( 'NONE', #229, #911, #403 ) ;
#894 = DIRECTION ( 'NONE',  ( 1.000000000000000000, 0.0000000000000000000, 0.0000000000000000000 ) ) ;
#895 = ORIENTED_EDGE ( 'NONE', *, *, #502, .F. ) ;
#896 = PERSON_AND_ORGANIZATION ( #1088, #245 ) ;
#897 = LINE ( 'NONE', #569, #704 ) ;
#898 = EDGE_CURVE ( 'NONE', #556, #294, #885, .T. ) ;
#899 = ADVANCED_FACE ( 'NONE', ( #203 ), #144, .F. ) ;
#900 = SECURITY_CLASSIFICATION_LEVEL ( 'unclassified' ) ;
#901 = VERTEX_POINT ( 'NONE', #1016 ) ;
#902 = DIRECTION ( 'NONE',  ( 0.0000000000000000000, 0.0000000000000000000, 1.000000000000000000 ) ) ;
#903 = ORIENTED_EDGE ( 'NONE', *, *, #526, .F. ) ;
#904 = EDGE_CURVE ( 'NONE', #525, #384, #593, .T. ) ;
#905 = ORIENTED_EDGE ( 'NONE', *, *, #348, .T. ) ;
#906 = DIRECTION ( 'NONE',  ( 1.000000000000000000, -0.0000000000000000000, -0.0000000000000000000 ) ) ;
#907 = AXIS2_PLACEMENT_3D ( 'NONE', #755, #77, #239 ) ;
#908 = ORIENTED_EDGE ( 'NONE', *, *, #1013, .T. ) ;
#909 = LINE ( 'NONE', #83, #228 ) ;
#910 = DIRECTION ( 'NONE',  ( -1.261617073437677999E-16, 1.000000000000000000, -0.0000000000000000000 ) ) ;
#911 = DIRECTION ( 'NONE',  ( 1.000000000000000000, -8.906522175617109500E-18, 0.0000000000000000000 ) ) ;
#912 = ADVANCED_FACE ( 'NONE', ( #169 ), #263, .F. ) ;
#913 = CARTESIAN_POINT ( 'NONE',  ( 4.000000000000000000, 29.50000000000000355, 25.84999999999999787 ) ) ;
#914 = EDGE_CURVE ( 'NONE', #934, #176, #356, .T. ) ;
#915 = CARTESIAN_POINT ( 'NONE',  ( -41.99999999999999289, 36.00000000000000000, 18.00000000000000000 ) ) ;
#916 = APPROVAL_ROLE ( '' ) ;
#917 = DIRECTION ( 'NONE',  ( 1.000000000000000000, 0.0000000000000000000, 0.0000000000000000000 ) ) ;
#918 = CIRCLE ( 'NONE', #562, 2.000000000000001776 ) ;
#919 = VERTEX_POINT ( 'NONE', #852 ) ;
#920 = ADVANCED_FACE ( 'NONE', ( #119 ), #938, .F. ) ;
#921 = VERTEX_POINT ( 'NONE', #161 ) ;
#922 = ORIENTED_EDGE ( 'NONE', *, *, #650, .T. ) ;
#923 = CARTESIAN_POINT ( 'NONE',  ( 6.000000000000000000, 5.999999999999992895, 46.00000000000000000 ) ) ;
#924 = DATE_AND_TIME ( #806, #631 ) ;
#925 = PRODUCT_DEFINITION ( 'UNKNOWN', '', #991, #544 ) ;
#926 = DIRECTION ( 'NONE',  ( -0.0000000000000000000, -1.000000000000000000, -0.0000000000000000000 ) ) ;
#927 = CIRCLE ( 'NONE', #1077, 2.000000000000000000 ) ;
#928 = DIRECTION ( 'NONE',  ( 0.0000000000000000000, 0.0000000000000000000, 1.000000000000000000 ) ) ;
#929 = CARTESIAN_POINT ( 'NONE',  ( -41.99999999999999289, 29.50000000000000355, 10.14999999999999858 ) ) ;
#930 = DIRECTION ( 'NONE',  ( 0.0000000000000000000, -0.0000000000000000000, -1.000000000000000000 ) ) ;
#931 = DIRECTION ( 'NONE',  ( -1.261617073437677999E-16, 1.000000000000000000, -0.0000000000000000000 ) ) ;
#932 = ORIENTED_EDGE ( 'NONE', *, *, #1047, .T. ) ;
#933 = DIRECTION ( 'NONE',  ( -1.261617073437677999E-16, 1.000000000000000000, 0.0000000000000000000 ) ) ;
#934 = VERTEX_POINT ( 'NONE', #504 ) ;
#935 = VERTEX_POINT ( 'NONE', #861 ) ;
#936 = ORIENTED_EDGE ( 'NONE', *, *, #49, .F. ) ;
#937 = EDGE_CURVE ( 'NONE', #91, #240, #819, .T. ) ;
#938 = CYLINDRICAL_SURFACE ( 'NONE', #89, 1.349999999999996980 ) ;
#939 = FACE_OUTER_BOUND ( 'NONE', #286, .T. ) ;
#940 = CARTESIAN_POINT ( 'NONE',  ( 0.0000000000000000000, 29.50000000000000355, 11.50000000000000000 ) ) ;
#941 = CC_DESIGN_PERSON_AND_ORGANIZATION_ASSIGNMENT ( #190, #661, ( #925 ) ) ;
#942 = DIRECTION ( 'NONE',  ( 1.000000000000000000, -8.906522175617109500E-18, 0.0000000000000000000 ) ) ;
#943 = DIRECTION ( 'NONE',  ( -1.261617073437677999E-16, 1.000000000000000000, -0.0000000000000000000 ) ) ;
#944 = CIRCLE ( 'NONE', #420, 1.349999999999996980 ) ;
#945 = VERTEX_POINT ( 'NONE', #249 ) ;
#946 = CYLINDRICAL_SURFACE ( 'NONE', #985, 1.349999999999996980 ) ;
#947 = EDGE_LOOP ( 'NONE', ( #173, #775, #1079, #307 ) ) ;
#948 = ORIENTED_EDGE ( 'NONE', *, *, #738, .F. ) ;
#949 = DIRECTION ( 'NONE',  ( 1.000000000000000000, -1.700709290173340101E-17, -0.0000000000000000000 ) ) ;
#950 = AXIS2_PLACEMENT_3D ( 'NONE', #7, #598, #520 ) ;
#951 = DIRECTION ( 'NONE',  ( -1.261617073437677999E-16, 1.000000000000000000, -0.0000000000000000000 ) ) ;
#952 = CARTESIAN_POINT ( 'NONE',  ( 23.65000000000001279, 3.999999999999995559, 22.99999999999999289 ) ) ;
#953 = CARTESIAN_POINT ( 'NONE',  ( 4.000000000000000000, 23.00000000000000000, 19.34999999999999787 ) ) ;
#954 = DIRECTION ( 'NONE',  ( 8.906522175617109500E-18, 1.000000000000000000, 0.0000000000000000000 ) ) ;
#955 = EDGE_CURVE ( 'NONE', #859, #186, #514, .T. ) ;
#956 = CARTESIAN_POINT ( 'NONE',  ( 25.00000000000001421, -42.00000000000000000, 22.99999999999999289 ) ) ;
#957 = VERTEX_POINT ( 'NONE', #519 ) ;
#958 = AXIS2_PLACEMENT_3D ( 'NONE', #566, #408, #1072 ) ;
#959 = CYLINDRICAL_SURFACE ( 'NONE', #512, 1.350000000000000533 ) ;
#960 = EDGE_LOOP ( 'NONE', ( #1092, #211, #1051, #73 ) ) ;
#961 = ORIENTED_EDGE ( 'NONE', *, *, #227, .T. ) ;
#962 = DIRECTION ( 'NONE',  ( 0.0000000000000000000, 1.000000000000000000, 0.0000000000000000000 ) ) ;
#963 = ORIENTED_EDGE ( 'NONE', *, *, #937, .F. ) ;
#964 = COORDINATED_UNIVERSAL_TIME_OFFSET ( 0, 0, .AHEAD. ) ;
#965 = EDGE_CURVE ( 'NONE', #750, #935, #847, .T. ) ;
#966 = CYLINDRICAL_SURFACE ( 'NONE', #907, 1.350000000000000533 ) ;
#967 = AXIS2_PLACEMENT_3D ( 'NONE', #288, #371, #451 ) ;
#968 = DIRECTION ( 'NONE',  ( 0.0000000000000000000, 0.0000000000000000000, -1.000000000000000000 ) ) ;
#969 = DIRECTION ( 'NONE',  ( 1.000000000000000000, -0.0000000000000000000, -0.0000000000000000000 ) ) ;
#970 = LINE ( 'NONE', #516, #293 ) ;
#971 = EDGE_CURVE ( 'NONE', #972, #919, #442, .T. ) ;
#972 = VERTEX_POINT ( 'NONE', #346 ) ;
#973 = FACE_BOUND ( 'NONE', #154, .T. ) ;
#974 = EDGE_LOOP ( 'NONE', ( #472, #39 ) ) ;
#975 = UNCERTAINTY_MEASURE_WITH_UNIT (LENGTH_MEASURE( 1.000000000000000082E-05 ), #473, 'distance_accuracy_value', 'NONE');
#976 = CARTESIAN_POINT ( 'NONE',  ( 6.000000000000000000, 3.999999999999993339, 46.00000000000000000 ) ) ;
#977 = VECTOR ( 'NONE', #271, 1000.000000000000000 ) ;
#978 = AXIS2_PLACEMENT_3D ( 'NONE', #827, #910, #232 ) ;
#979 = DIRECTION ( 'NONE',  ( 0.0000000000000000000, 0.0000000000000000000, -1.000000000000000000 ) ) ;
#980 = CARTESIAN_POINT ( 'NONE',  ( -41.99999999999999289, 29.50000000000000355, 12.84999999999999964 ) ) ;
#981 = EDGE_CURVE ( 'NONE', #890, #588, #329, .T. ) ;
#982 = ORIENTED_EDGE ( 'NONE', *, *, #981, .F. ) ;
#983 = CIRCLE ( 'NONE', #187, 1.350000000000000533 ) ;
#984 = EDGE_LOOP ( 'NONE', ( #592, #242, #51, #497 ) ) ;
#985 = AXIS2_PLACEMENT_3D ( 'NONE', #257, #607, #689 ) ;
#986 = EDGE_LOOP ( 'NONE', ( #963, #68, #1012, #423 ) ) ;
#987 = CALENDAR_DATE ( 2019, 12, 12 ) ;
#988 = APPROVAL_ROLE ( '' ) ;
#989 = VECTOR ( 'NONE', #160, 1000.000000000000000 ) ;
#990 = EDGE_CURVE ( 'NONE', #525, #425, #758, .T. ) ;
#991 = PRODUCT_DEFINITION_FORMATION_WITH_SPECIFIED_SOURCE ( 'ANY', '', #1008, .NOT_KNOWN. ) ;
#992 = DIRECTION ( 'NONE',  ( 1.000000000000000000, -0.0000000000000000000, -0.0000000000000000000 ) ) ;
#993 = ORIENTED_EDGE ( 'NONE', *, *, #372, .F. ) ;
#994 = DIRECTION ( 'NONE',  ( 0.0000000000000000000, 0.0000000000000000000, -1.000000000000000000 ) ) ;
#995 = ORIENTED_EDGE ( 'NONE', *, *, #568, .F. ) ;
#996 = CIRCLE ( 'NONE', #838, 2.000000000000001776 ) ;
#997 = CARTESIAN_POINT ( 'NONE',  ( 4.000000000000000000, 29.50000000000000355, 11.50000000000000000 ) ) ;
#998 = ORIENTED_EDGE ( 'NONE', *, *, #971, .T. ) ;
#999 = CARTESIAN_POINT ( 'NONE',  ( -41.99999999999999289, 29.50000000000000355, 24.49999999999999645 ) ) ;
#1000 = EDGE_LOOP ( 'NONE', ( #547, #184, #309, #889 ) ) ;
#1001 = DIRECTION ( 'NONE',  ( 1.000000000000000000, -8.906522175617109500E-18, 0.0000000000000000000 ) ) ;
#1002 = ADVANCED_FACE ( 'NONE', ( #156, #215, #107, #22, #1099 ), #777, .F. ) ;
#1003 = DIRECTION ( 'NONE',  ( -0.0000000000000000000, -1.000000000000000000, -0.0000000000000000000 ) ) ;
#1004 = DIRECTION ( 'NONE',  ( -1.261617073437677999E-16, 1.000000000000000000, -0.0000000000000000000 ) ) ;
#1005 = CARTESIAN_POINT ( 'NONE',  ( 32.85000000000001563, -42.00000000000000000, 16.49999999999998934 ) ) ;
#1006 = DIRECTION ( 'NONE',  ( 1.000000000000000000, 0.0000000000000000000, 0.0000000000000000000 ) ) ;
#1007 = CARTESIAN_POINT ( 'NONE',  ( 56.99999999999999289, 0.0000000000000000000, 44.00000000000000000 ) ) ;
#1008 = PRODUCT ( 'camera link', 'camera link', '', ( #319 ) ) ;
#1009 = EDGE_LOOP ( 'NONE', ( #554, #961 ) ) ;
#1010 = LINE ( 'NONE', #43, #601 ) ;
#1011 = ORIENTED_EDGE ( 'NONE', *, *, #568, .T. ) ;
#1012 = ORIENTED_EDGE ( 'NONE', *, *, #172, .T. ) ;
#1013 = EDGE_CURVE ( 'NONE', #306, #816, #530, .T. ) ;
#1014 = DIRECTION ( 'NONE',  ( -1.000000000000000000, 0.0000000000000000000, 0.0000000000000000000 ) ) ;
#1015 = ORIENTED_EDGE ( 'NONE', *, *, #1029, .T. ) ;
#1016 = CARTESIAN_POINT ( 'NONE',  ( 32.85000000000000853, 0.0000000000000000000, 29.49999999999998934 ) ) ;
#1017 = CC_DESIGN_DATE_AND_TIME_ASSIGNMENT ( #770, #233, ( #925 ) ) ;
#1018 = LOCAL_TIME ( 17, 13, 38.00000000000000000, #141 ) ;
#1019 = LINE ( 'NONE', #137, #453 ) ;
#1020 = CARTESIAN_POINT ( 'NONE',  ( 56.99999999999999289, 4.000000000000000000, 0.0000000000000000000 ) ) ;
#1021 = EDGE_CURVE ( 'NONE', #574, #425, #58, .T. ) ;
#1022 = AXIS2_PLACEMENT_3D ( 'NONE', #224, #818, #57 ) ;
#1023 = CIRCLE ( 'NONE', #609, 1.350000000000000533 ) ;
#1024 = ORIENTED_EDGE ( 'NONE', *, *, #955, .T. ) ;
#1025 = VECTOR ( 'NONE', #36, 1000.000000000000000 ) ;
#1026 = CARTESIAN_POINT ( 'NONE',  ( 4.000000000000000000, 5.999999999999992895, 0.0000000000000000000 ) ) ;
#1027 = EDGE_LOOP ( 'NONE', ( #629, #341 ) ) ;
#1028 = ORIENTED_EDGE ( 'NONE', *, *, #518, .T. ) ;
#1029 = EDGE_CURVE ( 'NONE', #509, #549, #715, .T. ) ;
#1030 = DIRECTION ( 'NONE',  ( -1.000000000000000000, 0.0000000000000000000, 0.0000000000000000000 ) ) ;
#1031 = LINE ( 'NONE', #26, #728 ) ;
#1032 = CARTESIAN_POINT ( 'NONE',  ( 0.0000000000000000000, 0.0000000000000000000, 46.00000000000000000 ) ) ;
#1033 = CARTESIAN_POINT ( 'NONE',  ( 4.000000000000000000, 3.999999999999993339, 0.0000000000000000000 ) ) ;
#1034 = DIRECTION ( 'NONE',  ( -1.261617073437677999E-16, 1.000000000000000000, 0.0000000000000000000 ) ) ;
#1035 = EDGE_CURVE ( 'NONE', #588, #1076, #739, .T. ) ;
#1036 = CARTESIAN_POINT ( 'NONE',  ( 0.0000000000000000000, 36.00000000000000000, 16.64999999999999858 ) ) ;
#1037 = SECURITY_CLASSIFICATION ( '', '', #900 ) ;
#1038 = CARTESIAN_POINT ( 'NONE',  ( 59.00000000000000000, 4.000000000000000000, 0.0000000000000000000 ) ) ;
#1039 = ORIENTED_EDGE ( 'NONE', *, *, #630, .F. ) ;
#1040 = CYLINDRICAL_SURFACE ( 'NONE', #726, 1.349999999999996980 ) ;
#1041 = ORIENTED_EDGE ( 'NONE', *, *, #379, .F. ) ;
#1042 = CARTESIAN_POINT ( 'NONE',  ( 4.000000000000000000, 23.00000000000000000, 18.00000000000000000 ) ) ;
#1043 = ORIENTED_EDGE ( 'NONE', *, *, #1021, .T. ) ;
#1044 = CARTESIAN_POINT ( 'NONE',  ( 59.00000000000000000, 0.0000000000000000000, 46.00000000000000000 ) ) ;
#1045 = LINE ( 'NONE', #222, #622 ) ;
#1046 = CARTESIAN_POINT ( 'NONE',  ( 30.15000000000001634, 3.999999999999996447, 29.49999999999998934 ) ) ;
#1047 = EDGE_CURVE ( 'NONE', #921, #123, #703, .T. ) ;
#1048 = CARTESIAN_POINT ( 'NONE',  ( 38.00000000000000000, 0.0000000000000000000, 22.99999999999999289 ) ) ;
#1049 = ORIENTED_EDGE ( 'NONE', *, *, #965, .F. ) ;
#1050 = AXIS2_PLACEMENT_3D ( 'NONE', #940, #342, #1105 ) ;
#1051 = ORIENTED_EDGE ( 'NONE', *, *, #368, .F. ) ;
#1052 = CIRCLE ( 'NONE', #447, 1.350000000000000533 ) ;
#1053 = VERTEX_POINT ( 'NONE', #952 ) ;
#1054 = VERTEX_POINT ( 'NONE', #695 ) ;
#1055 = COORDINATED_UNIVERSAL_TIME_OFFSET ( 0, 0, .AHEAD. ) ;
#1056 = FACE_OUTER_BOUND ( 'NONE', #548, .T. ) ;
#1057 = DIRECTION ( 'NONE',  ( 1.000000000000000000, 1.261617073437677999E-16, 0.0000000000000000000 ) ) ;
#1058 = FACE_OUTER_BOUND ( 'NONE', #490, .T. ) ;
#1059 = AXIS2_PLACEMENT_3D ( 'NONE', #1098, #1004, #505 ) ;
#1060 = ORIENTED_EDGE ( 'NONE', *, *, #526, .T. ) ;
#1061 = LINE ( 'NONE', #126, #114 ) ;
#1062 = DIRECTION ( 'NONE',  ( -0.0000000000000000000, -0.0000000000000000000, 1.000000000000000000 ) ) ;
#1063 = ORIENTED_EDGE ( 'NONE', *, *, #681, .F. ) ;
#1064 = ORIENTED_EDGE ( 'NONE', *, *, #937, .T. ) ;
#1065 = LINE ( 'NONE', #1038, #793 ) ;
#1066 = ADVANCED_FACE ( 'NONE', ( #378 ), #675, .F. ) ;
#1067 = LINE ( 'NONE', #671, #561 ) ;
#1068 = EDGE_CURVE ( 'NONE', #557, #774, #560, .T. ) ;
#1069 = APPROVAL ( #1083, 'UNSPECIFIED' ) ;
#1070 = CARTESIAN_POINT ( 'NONE',  ( 4.000000000000000000, 29.50000000000000355, 24.49999999999999645 ) ) ;
#1071 = ADVANCED_FACE ( 'NONE', ( #807 ), #129, .F. ) ;
#1072 = DIRECTION ( 'NONE',  ( 1.000000000000000000, 0.0000000000000000000, 0.0000000000000000000 ) ) ;
#1073 = CARTESIAN_POINT ( 'NONE',  ( 4.000000000000000000, 5.999999999999992895, 46.00000000000000000 ) ) ;
#1074 = ORIENTED_EDGE ( 'NONE', *, *, #259, .F. ) ;
#1075 = CARTESIAN_POINT ( 'NONE',  ( 4.000000000000000000, 29.50000000000000355, 12.84999999999999964 ) ) ;
#1076 = VERTEX_POINT ( 'NONE', #533 ) ;
#1077 = AXIS2_PLACEMENT_3D ( 'NONE', #760, #926, #587 ) ;
#1078 = DIRECTION ( 'NONE',  ( -0.0000000000000000000, -1.000000000000000000, -0.0000000000000000000 ) ) ;
#1079 = ORIENTED_EDGE ( 'NONE', *, *, #6, .T. ) ;
#1080 = CLOSED_SHELL ( 'NONE', ( #815, #387, #1071, #75, #133, #312, #218, #318, #488, #1002, #912, #410, #303, #469, #821, #47, #230, #665, #920, #825, #648, #899, #467, #238, #332, #397, #731, #571, #1066, #142 ) ) ;
#1081 = CARTESIAN_POINT ( 'NONE',  ( 0.0000000000000000000, 29.50000000000000355, 25.84999999999999787 ) ) ;
#1082 = CARTESIAN_POINT ( 'NONE',  ( 4.000000000000000000, 29.50000000000000355, 11.50000000000000000 ) ) ;
#1083 = APPROVAL_STATUS ( 'not_yet_approved' ) ;
#1084 = CARTESIAN_POINT ( 'NONE',  ( 4.000000000000000888, 55.00000000000000000, 44.00000000000000000 ) ) ;
#1085 = EDGE_CURVE ( 'NONE', #165, #805, #1065, .T. ) ;
#1086 = CARTESIAN_POINT ( 'NONE',  ( 4.720456753077067711E-16, 53.00000000000000000, 46.00000000000000000 ) ) ;
#1087 = DIRECTION ( 'NONE',  ( -0.0000000000000000000, 0.0000000000000000000, 1.000000000000000000 ) ) ;
#1088 = PERSON ( 'UNSPECIFIED', 'UNSPECIFIED', 'UNSPECIFIED', ('UNSPECIFIED'), ('UNSPECIFIED'), ('UNSPECIFIED') ) ;
#1089 = DIRECTION ( 'NONE',  ( 0.0000000000000000000, 0.0000000000000000000, 1.000000000000000000 ) ) ;
#1090 = APPLICATION_CONTEXT ( 'configuration controlled 3d designs of mechanical parts and assemblies' ) ;
#1091 = VERTEX_POINT ( 'NONE', #708 ) ;
#1092 = ORIENTED_EDGE ( 'NONE', *, *, #328, .T. ) ;
#1093 = FACE_OUTER_BOUND ( 'NONE', #54, .T. ) ;
#1094 = EDGE_CURVE ( 'NONE', #8, #32, #1031, .T. ) ;
#1095 = DIRECTION ( 'NONE',  ( 0.0000000000000000000, 0.0000000000000000000, -1.000000000000000000 ) ) ;
#1096 = ORIENTED_EDGE ( 'NONE', *, *, #219, .F. ) ;
#1097 = EDGE_LOOP ( 'NONE', ( #779, #440 ) ) ;
#1098 = CARTESIAN_POINT ( 'NONE',  ( 31.50000000000002132, -42.00000000000000000, 29.49999999999998934 ) ) ;
#1099 = FACE_OUTER_BOUND ( 'NONE', #115, .T. ) ;
#1100 = VECTOR ( 'NONE', #81, 1000.000000000000000 ) ;
#1101 = CARTESIAN_POINT ( 'NONE',  ( 38.00000000000000711, -42.00000000000000000, 22.99999999999999289 ) ) ;
#1102 = DIRECTION ( 'NONE',  ( 0.0000000000000000000, 0.0000000000000000000, -1.000000000000000000 ) ) ;
#1103 = EDGE_CURVE ( 'NONE', #294, #556, #578, .T. ) ;
#1104 = AXIS2_PLACEMENT_3D ( 'NONE', #445, #790, #21 ) ;
#1105 = DIRECTION ( 'NONE',  ( 8.906522175617109500E-18, 1.000000000000000000, 0.0000000000000000000 ) ) ;
ENDSEC;
END-ISO-10303-21;
