ISO-10303-21;
HEADER;
FILE_DESCRIPTION (( 'STEP AP203' ),
    '1' );
FILE_NAME ('circle 3 variant.STEP',
    '2019-12-12T17:07:33',
    ( '' ),
    ( '' ),
    'SwSTEP 2.0',
    'SolidWorks 2018',
    '' );
FILE_SCHEMA (( 'CONFIG_CONTROL_DESIGN' ));
ENDSEC;

DATA;
#1 = EDGE_CURVE ( 'NONE', #1027, #32, #764, .T. ) ;
#2 = DIRECTION ( 'NONE',  ( 0.0000000000000000000, 0.0000000000000000000, 1.000000000000000000 ) ) ;
#3 = DIRECTION ( 'NONE',  ( -0.0000000000000000000, -1.000000000000000000, -0.0000000000000000000 ) ) ;
#4 = CARTESIAN_POINT ( 'NONE',  ( -6.500000000000000888, 5.000000000000000000, 0.0000000000000000000 ) ) ;
#5 = ADVANCED_FACE ( 'NONE', ( #208 ), #150, .F. ) ;
#6 = CARTESIAN_POINT ( 'NONE',  ( 0.0000000000000000000, 0.0000000000000000000, -9.400000000000000355 ) ) ;
#7 = FACE_OUTER_BOUND ( 'NONE', #59, .T. ) ;
#8 = CALENDAR_DATE ( 2019, 12, 12 ) ;
#9 = AXIS2_PLACEMENT_3D ( 'NONE', #992, #623, #704 ) ;
#10 = LINE ( 'NONE', #1058, #501 ) ;
#11 = CIRCLE ( 'NONE', #260, 1.400000000000001021 ) ;
#12 = PLANE ( 'NONE',  #723 ) ;
#13 = ORIENTED_EDGE ( 'NONE', *, *, #820, .T. ) ;
#14 = CC_DESIGN_DATE_AND_TIME_ASSIGNMENT ( #575, #547, ( #328 ) ) ;
#15 = ORIENTED_EDGE ( 'NONE', *, *, #1224, .T. ) ;
#16 = CARTESIAN_POINT ( 'NONE',  ( 1.408343819019456176E-15, 5.000000000000000000, 11.50000000000000000 ) ) ;
#17 = CARTESIAN_POINT ( 'NONE',  ( 3.673940397442058389E-16, 9.870000000000000995, 9.500000000000001776 ) ) ;
#18 = ORIENTED_EDGE ( 'NONE', *, *, #877, .F. ) ;
#19 = ADVANCED_FACE ( 'NONE', ( #218 ), #301, .F. ) ;
#20 = DIRECTION ( 'NONE',  ( 0.0000000000000000000, 0.0000000000000000000, 1.000000000000000000 ) ) ;
#21 = EDGE_CURVE ( 'NONE', #784, #303, #927, .T. ) ;
#22 = DIRECTION ( 'NONE',  ( 0.0000000000000000000, 0.0000000000000000000, -1.000000000000000000 ) ) ;
#23 = CC_DESIGN_PERSON_AND_ORGANIZATION_ASSIGNMENT ( #654, #438, ( #1087 ) ) ;
#24 = DIRECTION ( 'NONE',  ( 0.0000000000000000000, 1.000000000000000000, 0.0000000000000000000 ) ) ;
#25 = CIRCLE ( 'NONE', #786, 1.399999999999999911 ) ;
#26 = VECTOR ( 'NONE', #752, 1000.000000000000000 ) ;
#27 = FACE_OUTER_BOUND ( 'NONE', #772, .T. ) ;
#28 = DIRECTION ( 'NONE',  ( 0.0000000000000000000, 0.0000000000000000000, -1.000000000000000000 ) ) ;
#29 = FACE_OUTER_BOUND ( 'NONE', #967, .T. ) ;
#30 = AXIS2_PLACEMENT_3D ( 'NONE', #511, #307, #885 ) ;
#31 = DIRECTION ( 'NONE',  ( 0.0000000000000000000, 0.0000000000000000000, -1.000000000000000000 ) ) ;
#32 = VERTEX_POINT ( 'NONE', #134 ) ;
#33 = ORIENTED_EDGE ( 'NONE', *, *, #1164, .F. ) ;
#34 = ORIENTED_EDGE ( 'NONE', *, *, #424, .T. ) ;
#35 = CARTESIAN_POINT ( 'NONE',  ( 0.0000000000000000000, 3.000000000000000000, 0.0000000000000000000 ) ) ;
#36 = ORIENTED_EDGE ( 'NONE', *, *, #1214, .T. ) ;
#37 = CARTESIAN_POINT ( 'NONE',  ( 3.612708057484692590E-16, 5.000000000000000000, -2.950000000000000622 ) ) ;
#38 = DIRECTION ( 'NONE',  ( 0.0000000000000000000, 0.0000000000000000000, 1.000000000000000000 ) ) ;
#39 = AXIS2_PLACEMENT_3D ( 'NONE', #276, #741, #938 ) ;
#40 = CARTESIAN_POINT ( 'NONE',  ( -6.500000000000000888, 3.500000000000009326, 1.400000000000000133 ) ) ;
#41 = PERSON_AND_ORGANIZATION_ROLE ( 'design_supplier' ) ;
#42 = FACE_OUTER_BOUND ( 'NONE', #228, .T. ) ;
#43 = DATE_AND_TIME ( #8, #1065 ) ;
#44 = CIRCLE ( 'NONE', #952, 2.899999999999999911 ) ;
#45 = CARTESIAN_POINT ( 'NONE',  ( 6.500000000000000888, 10.00000000000000000, 0.0000000000000000000 ) ) ;
#46 = ORIENTED_EDGE ( 'NONE', *, *, #374, .F. ) ;
#47 = APPLICATION_PROTOCOL_DEFINITION ( 'international standard', 'config_control_design', 1994, #728 ) ;
#48 = ORIENTED_EDGE ( 'NONE', *, *, #592, .T. ) ;
#49 = CARTESIAN_POINT ( 'NONE',  ( 0.0000000000000000000, 3.000000000000000000, 2.950000000000000622 ) ) ;
#50 = ORIENTED_EDGE ( 'NONE', *, *, #347, .F. ) ;
#51 = EDGE_CURVE ( 'NONE', #321, #607, #487, .T. ) ;
#52 = APPLICATION_CONTEXT ( 'configuration controlled 3d designs of mechanical parts and assemblies' ) ;
#53 = AXIS2_PLACEMENT_3D ( 'NONE', #263, #1213, #558 ) ;
#54 = VECTOR ( 'NONE', #361, 1000.000000000000000 ) ;
#55 = CYLINDRICAL_SURFACE ( 'NONE', #364, 1.400000000000000133 ) ;
#56 = CIRCLE ( 'NONE', #1001, 1.399999999999999911 ) ;
#57 = CARTESIAN_POINT ( 'NONE',  ( 0.0000000000000000000, 5.000000000000000000, 0.0000000000000000000 ) ) ;
#58 = ORIENTED_EDGE ( 'NONE', *, *, #1143, .T. ) ;
#59 = EDGE_LOOP ( 'NONE', ( #599, #36, #634, #62 ) ) ;
#60 = DIRECTION ( 'NONE',  ( 0.0000000000000000000, 0.0000000000000000000, 1.000000000000000000 ) ) ;
#61 = EDGE_CURVE ( 'NONE', #966, #928, #551, .T. ) ;
#62 = ORIENTED_EDGE ( 'NONE', *, *, #332, .T. ) ;
#63 = ORIENTED_EDGE ( 'NONE', *, *, #100, .T. ) ;
#64 = ADVANCED_FACE ( 'NONE', ( #562 ), #657, .F. ) ;
#65 = AXIS2_PLACEMENT_3D ( 'NONE', #969, #304, #409 ) ;
#66 = ORIENTED_EDGE ( 'NONE', *, *, #290, .T. ) ;
#67 = DIRECTION ( 'NONE',  ( -0.0000000000000000000, -1.000000000000000000, -0.0000000000000000000 ) ) ;
#68 = DIRECTION ( 'NONE',  ( -0.0000000000000000000, -1.000000000000000000, -0.0000000000000000000 ) ) ;
#69 = EDGE_CURVE ( 'NONE', #726, #1040, #1166, .T. ) ;
#70 = CARTESIAN_POINT ( 'NONE',  ( 0.0000000000000000000, 3.000000000000000000, 2.950000000000000622 ) ) ;
#71 = ADVANCED_FACE ( 'NONE', ( #429, #1205, #164, #1152, #519, #910 ), #219, .T. ) ;
#72 = CONICAL_SURFACE ( 'NONE', #312, 1.400000000000001021, 0.7853981633974511656 ) ;
#73 = DIRECTION ( 'NONE',  ( -0.0000000000000000000, 1.000000000000000000, -0.0000000000000000000 ) ) ;
#74 = FACE_OUTER_BOUND ( 'NONE', #355, .T. ) ;
#75 = VERTEX_POINT ( 'NONE', #437 ) ;
#76 = CARTESIAN_POINT ( 'NONE',  ( 3.673940397442059868E-16, 9.870000000000000995, 9.500000000000001776 ) ) ;
#77 = EDGE_LOOP ( 'NONE', ( #900, #1084 ) ) ;
#78 = AXIS2_PLACEMENT_3D ( 'NONE', #1142, #1229, #948 ) ;
#79 = ORIENTED_EDGE ( 'NONE', *, *, #130, .T. ) ;
#80 = DIRECTION ( 'NONE',  ( -0.0000000000000000000, -1.000000000000000000, -0.0000000000000000000 ) ) ;
#81 = APPROVAL ( #715, 'UNSPECIFIED' ) ;
#82 = CARTESIAN_POINT ( 'NONE',  ( 0.0000000000000000000, 0.0000000000000000000, 0.0000000000000000000 ) ) ;
#83 = EDGE_CURVE ( 'NONE', #850, #292, #334, .T. ) ;
#84 = CIRCLE ( 'NONE', #890, 0.5000000000000004441 ) ;
#85 = DATE_AND_TIME ( #396, #315 ) ;
#86 = CYLINDRICAL_SURFACE ( 'NONE', #497, 1.400000000000000133 ) ;
#87 = CIRCLE ( 'NONE', #626, 3.000000000000000000 ) ;
#88 = ORIENTED_EDGE ( 'NONE', *, *, #466, .F. ) ;
#89 = CARTESIAN_POINT ( 'NONE',  ( 0.0000000000000000000, 5.500000000000000000, -3.000000000000000444 ) ) ;
#90 = VERTEX_POINT ( 'NONE', #1189 ) ;
#91 = DIRECTION ( 'NONE',  ( 8.659560562354950115E-17, -0.7071067811865462405, 0.7071067811865489050 ) ) ;
#92 = EDGE_CURVE ( 'NONE', #1036, #1040, #319, .T. ) ;
#93 = ORIENTED_EDGE ( 'NONE', *, *, #970, .F. ) ;
#94 = VERTEX_POINT ( 'NONE', #736 ) ;
#95 = AXIS2_PLACEMENT_3D ( 'NONE', #876, #191, #785 ) ;
#96 = ADVANCED_FACE ( 'NONE', ( #29, #397 ), #1194, .T. ) ;
#97 = CARTESIAN_POINT ( 'NONE',  ( 0.0000000000000000000, 9.870000000000000995, 3.500000000000000444 ) ) ;
#98 = ADVANCED_FACE ( 'NONE', ( #416, #74 ), #706, .T. ) ;
#99 = DIRECTION ( 'NONE',  ( 0.0000000000000000000, -1.000000000000000000, 0.0000000000000000000 ) ) ;
#100 = EDGE_CURVE ( 'NONE', #1168, #1112, #823, .T. ) ;
#101 = VECTOR ( 'NONE', #1207, 999.9999999999998863 ) ;
#102 = LINE ( 'NONE', #378, #881 ) ;
#103 = DIRECTION ( 'NONE',  ( 0.0000000000000000000, 0.0000000000000000000, 1.000000000000000000 ) ) ;
#104 = ORIENTED_EDGE ( 'NONE', *, *, #815, .T. ) ;
#105 = ADVANCED_FACE ( 'NONE', ( #257 ), #958, .F. ) ;
#106 = EDGE_LOOP ( 'NONE', ( #262, #563 ) ) ;
#107 = ORIENTED_EDGE ( 'NONE', *, *, #305, .F. ) ;
#108 = CARTESIAN_POINT ( 'NONE',  ( 0.0000000000000000000, 5.500000000000000000, -6.500000000000000888 ) ) ;
#109 = ORIENTED_EDGE ( 'NONE', *, *, #297, .F. ) ;
#110 = DIRECTION ( 'NONE',  ( 0.0000000000000000000, -1.000000000000000000, 0.0000000000000000000 ) ) ;
#111 = DIRECTION ( 'NONE',  ( 0.0000000000000000000, 1.000000000000000000, 0.0000000000000000000 ) ) ;
#112 = DIRECTION ( 'NONE',  ( 0.0000000000000000000, 1.000000000000000000, 0.0000000000000000000 ) ) ;
#113 = CIRCLE ( 'NONE', #1018, 3.499999999999999556 ) ;
#114 = AXIS2_PLACEMENT_3D ( 'NONE', #259, #731, #637 ) ;
#115 = FACE_OUTER_BOUND ( 'NONE', #432, .T. ) ;
#116 = VECTOR ( 'NONE', #1239, 1000.000000000000000 ) ;
#117 = DIRECTION ( 'NONE',  ( 0.0000000000000000000, 0.0000000000000000000, 1.000000000000000000 ) ) ;
#118 = ORIENTED_EDGE ( 'NONE', *, *, #92, .T. ) ;
#119 = DIRECTION ( 'NONE',  ( 0.0000000000000000000, 0.0000000000000000000, 1.000000000000000000 ) ) ;
#120 = ORIENTED_EDGE ( 'NONE', *, *, #693, .F. ) ;
#121 = ORIENTED_EDGE ( 'NONE', *, *, #1179, .F. ) ;
#122 = CARTESIAN_POINT ( 'NONE',  ( 0.0000000000000000000, 0.0000000000000000000, 6.500000000000000888 ) ) ;
#123 = VERTEX_POINT ( 'NONE', #49 ) ;
#124 = CARTESIAN_POINT ( 'NONE',  ( 0.0000000000000000000, 3.000000000000000000, 0.0000000000000000000 ) ) ;
#125 = AXIS2_PLACEMENT_3D ( 'NONE', #545, #1113, #638 ) ;
#126 = AXIS2_PLACEMENT_3D ( 'NONE', #428, #980, #697 ) ;
#127 = CARTESIAN_POINT ( 'NONE',  ( 6.500000000000000888, 1.499999999999999556, -1.400000000000001021 ) ) ;
#128 = DIRECTION ( 'NONE',  ( -0.0000000000000000000, -1.000000000000000000, -0.0000000000000000000 ) ) ;
#129 = CYLINDRICAL_SURFACE ( 'NONE', #679, 1.400000000000000133 ) ;
#130 = EDGE_CURVE ( 'NONE', #707, #1128, #985, .T. ) ;
#131 = COORDINATED_UNIVERSAL_TIME_OFFSET ( 0, 0, .AHEAD. ) ;
#132 = FACE_OUTER_BOUND ( 'NONE', #1007, .T. ) ;
#133 = ORIENTED_EDGE ( 'NONE', *, *, #901, .F. ) ;
#134 = CARTESIAN_POINT ( 'NONE',  ( 3.673940397442059868E-16, 5.500000000000000000, -3.500000000000000444 ) ) ;
#135 = ORIENTED_EDGE ( 'NONE', *, *, #504, .F. ) ;
#136 = ORIENTED_EDGE ( 'NONE', *, *, #892, .T. ) ;
#137 = CARTESIAN_POINT ( 'NONE',  ( 1.714505518806294145E-16, 9.870000000000000995, 7.900000000000000355 ) ) ;
#138 = ORIENTED_EDGE ( 'NONE', *, *, #988, .T. ) ;
#139 = DIRECTION ( 'NONE',  ( 0.0000000000000000000, 1.000000000000000000, 0.0000000000000000000 ) ) ;
#140 = AXIS2_PLACEMENT_3D ( 'NONE', #962, #589, #673 ) ;
#141 = DIRECTION ( 'NONE',  ( 0.0000000000000000000, 1.000000000000000000, 0.0000000000000000000 ) ) ;
#142 = PRODUCT_RELATED_PRODUCT_CATEGORY ( 'detail', '', ( #754 ) ) ;
#143 = DATE_TIME_ROLE ( 'classification_date' ) ;
#144 = CONICAL_SURFACE ( 'NONE', #472, 1.400000000000000133, 0.7853981633974500554 ) ;
#145 = APPROVAL_DATE_TIME ( #549, #796 ) ;
#146 = DIRECTION ( 'NONE',  ( 0.0000000000000000000, 1.000000000000000000, 0.0000000000000000000 ) ) ;
#147 = LINE ( 'NONE', #945, #216 ) ;
#148 = CYLINDRICAL_SURFACE ( 'NONE', #539, 1.400000000000000133 ) ;
#149 = DIRECTION ( 'NONE',  ( 0.0000000000000000000, 1.000000000000000000, 0.0000000000000000000 ) ) ;
#150 = CYLINDRICAL_SURFACE ( 'NONE', #567, 1.400000000000001021 ) ;
#151 =( LENGTH_UNIT ( ) NAMED_UNIT ( * ) SI_UNIT ( .MILLI., .METRE. ) );
#152 = ORIENTED_EDGE ( 'NONE', *, *, #1160, .T. ) ;
#153 = EDGE_LOOP ( 'NONE', ( #419, #324, #895, #947 ) ) ;
#154 = CARTESIAN_POINT ( 'NONE',  ( -6.500000000000000888, 1.500000000000001332, 1.400000000000000133 ) ) ;
#155 = ORIENTED_EDGE ( 'NONE', *, *, #192, .F. ) ;
#156 = ORIENTED_EDGE ( 'NONE', *, *, #1, .T. ) ;
#157 = DIRECTION ( 'NONE',  ( 0.0000000000000000000, 0.0000000000000000000, -1.000000000000000000 ) ) ;
#158 = DIRECTION ( 'NONE',  ( 0.0000000000000000000, 1.000000000000000000, 0.0000000000000000000 ) ) ;
#159 = ADVANCED_FACE ( 'NONE', ( #579 ), #644, .F. ) ;
#160 = CIRCLE ( 'NONE', #755, 11.50000000000000000 ) ;
#161 = CIRCLE ( 'NONE', #1175, 2.950000000000000622 ) ;
#162 = ADVANCED_FACE ( 'NONE', ( #132 ), #629, .F. ) ;
#163 = DIRECTION ( 'NONE',  ( 0.0000000000000000000, 1.000000000000000000, 0.0000000000000000000 ) ) ;
#164 = FACE_BOUND ( 'NONE', #841, .T. ) ;
#165 = ORIENTED_EDGE ( 'NONE', *, *, #1164, .T. ) ;
#166 = DIRECTION ( 'NONE',  ( 0.0000000000000000000, 0.0000000000000000000, -1.000000000000000000 ) ) ;
#167 = AXIS2_PLACEMENT_3D ( 'NONE', #571, #280, #652 ) ;
#168 = EDGE_LOOP ( 'NONE', ( #222, #152 ) ) ;
#169 = ORIENTED_EDGE ( 'NONE', *, *, #1015, .F. ) ;
#170 = VERTEX_POINT ( 'NONE', #154 ) ;
#171 = DIRECTION ( 'NONE',  ( -0.0000000000000000000, -1.000000000000000000, -0.0000000000000000000 ) ) ;
#172 = EDGE_CURVE ( 'NONE', #944, #372, #1233, .T. ) ;
#173 = AXIS2_PLACEMENT_3D ( 'NONE', #476, #1228, #851 ) ;
#174 = LINE ( 'NONE', #570, #314 ) ;
#175 = FACE_BOUND ( 'NONE', #931, .T. ) ;
#176 = FACE_OUTER_BOUND ( 'NONE', #224, .T. ) ;
#177 = DIRECTION ( 'NONE',  ( -0.0000000000000000000, -1.000000000000000000, -0.0000000000000000000 ) ) ;
#178 = EDGE_CURVE ( 'NONE', #406, #244, #866, .T. ) ;
#179 = DIRECTION ( 'NONE',  ( 0.0000000000000000000, 1.000000000000000000, 0.0000000000000000000 ) ) ;
#180 = AXIS2_PLACEMENT_3D ( 'NONE', #1236, #666, #771 ) ;
#181 = ORIENTED_EDGE ( 'NONE', *, *, #504, .T. ) ;
#182 = DIRECTION ( 'NONE',  ( -0.0000000000000000000, -1.000000000000000000, -0.0000000000000000000 ) ) ;
#183 = AXIS2_PLACEMENT_3D ( 'NONE', #822, #926, #60 ) ;
#184 = AXIS2_PLACEMENT_3D ( 'NONE', #325, #701, #28 ) ;
#185 = CARTESIAN_POINT ( 'NONE',  ( 0.0000000000000000000, 5.000000000000000000, -11.50000000000000000 ) ) ;
#186 = LINE ( 'NONE', #492, #200 ) ;
#187 = CIRCLE ( 'NONE', #95, 1.400000000000001021 ) ;
#188 = ORIENTED_EDGE ( 'NONE', *, *, #264, .T. ) ;
#189 = ADVANCED_FACE ( 'NONE', ( #884 ), #1091, .T. ) ;
#190 = VERTEX_POINT ( 'NONE', #1204 ) ;
#191 = DIRECTION ( 'NONE',  ( 0.0000000000000000000, -1.000000000000000000, 0.0000000000000000000 ) ) ;
#192 = EDGE_CURVE ( 'NONE', #690, #75, #1123, .T. ) ;
#193 = ORIENTED_EDGE ( 'NONE', *, *, #981, .T. ) ;
#194 = EDGE_LOOP ( 'NONE', ( #58, #475 ) ) ;
#195 = ADVANCED_FACE ( 'NONE', ( #366 ), #86, .F. ) ;
#196 = CARTESIAN_POINT ( 'NONE',  ( 6.500000000000000888, 3.500000000000010214, 0.0000000000000000000 ) ) ;
#197 = AXIS2_PLACEMENT_3D ( 'NONE', #709, #342, #535 ) ;
#198 = LINE ( 'NONE', #613, #54 ) ;
#199 = COORDINATED_UNIVERSAL_TIME_OFFSET ( 0, 0, .AHEAD. ) ;
#200 = VECTOR ( 'NONE', #391, 1000.000000000000000 ) ;
#201 = APPROVAL_PERSON_ORGANIZATION ( #688, #1069, #243 ) ;
#202 = CARTESIAN_POINT ( 'NONE',  ( 0.0000000000000000000, 4.999999999999999112, 10.00000000000000000 ) ) ;
#203 = ORIENTED_EDGE ( 'NONE', *, *, #861, .F. ) ;
#204 = ORIENTED_EDGE ( 'NONE', *, *, #381, .T. ) ;
#205 = EDGE_LOOP ( 'NONE', ( #1022, #735, #1235, #1209 ) ) ;
#206 = ADVANCED_FACE ( 'NONE', ( #616 ), #655, .F. ) ;
#207 = DIRECTION ( 'NONE',  ( 0.0000000000000000000, -1.000000000000000000, 0.0000000000000000000 ) ) ;
#208 = FACE_OUTER_BOUND ( 'NONE', #568, .T. ) ;
#209 = CARTESIAN_POINT ( 'NONE',  ( 0.0000000000000000000, 9.870000000000000995, 6.500000000000000888 ) ) ;
#210 = CC_DESIGN_SECURITY_CLASSIFICATION ( #1131, ( #1087 ) ) ;
#211 = DIRECTION ( 'NONE',  ( 0.0000000000000000000, 0.0000000000000000000, 1.000000000000000000 ) ) ;
#212 = CARTESIAN_POINT ( 'NONE',  ( 0.0000000000000000000, 5.000000000000000000, 0.0000000000000000000 ) ) ;
#213 = DIRECTION ( 'NONE',  ( 0.0000000000000000000, -1.000000000000000000, 0.0000000000000000000 ) ) ;
#214 = EDGE_CURVE ( 'NONE', #1023, #303, #102, .T. ) ;
#215 = DIRECTION ( 'NONE',  ( 0.0000000000000000000, 0.0000000000000000000, 1.000000000000000000 ) ) ;
#216 = VECTOR ( 'NONE', #1042, 1000.000000000000000 ) ;
#217 = TOROIDAL_SURFACE ( 'NONE', #242, 3.500000000000000000, 0.5000000000000000000 ) ;
#218 = FACE_OUTER_BOUND ( 'NONE', #1006, .T. ) ;
#219 = PLANE ( 'NONE',  #961 ) ;
#220 = EDGE_LOOP ( 'NONE', ( #1238, #649, #1108, #855 ) ) ;
#221 = CARTESIAN_POINT ( 'NONE',  ( -6.500000000000000888, 3.500000000000009326, 0.0000000000000000000 ) ) ;
#222 = ORIENTED_EDGE ( 'NONE', *, *, #1094, .T. ) ;
#223 = CARTESIAN_POINT ( 'NONE',  ( -6.500000000000000888, 0.0000000000000000000, -2.900000000000006573 ) ) ;
#224 = EDGE_LOOP ( 'NONE', ( #1184, #674, #620, #597 ) ) ;
#225 = DIRECTION ( 'NONE',  ( 8.659560562354957510E-17, 0.7071067811865454633, -0.7071067811865495711 ) ) ;
#226 = ORIENTED_EDGE ( 'NONE', *, *, #1115, .T. ) ;
#227 = DIRECTION ( 'NONE',  ( -0.0000000000000000000, 1.000000000000000000, -0.0000000000000000000 ) ) ;
#228 = EDGE_LOOP ( 'NONE', ( #738, #1055, #650, #322 ) ) ;
#229 = EDGE_CURVE ( 'NONE', #372, #828, #577, .T. ) ;
#230 = DIRECTION ( 'NONE',  ( 0.0000000000000000000, 0.0000000000000000000, 1.000000000000000000 ) ) ;
#231 = DIRECTION ( 'NONE',  ( -0.0000000000000000000, -1.000000000000000000, -0.0000000000000000000 ) ) ;
#232 = CARTESIAN_POINT ( 'NONE',  ( 6.500000000000000888, 3.500000000000010214, 1.400000000000001021 ) ) ;
#233 = DIRECTION ( 'NONE',  ( -0.0000000000000000000, -1.000000000000000000, -0.0000000000000000000 ) ) ;
#234 = FACE_OUTER_BOUND ( 'NONE', #929, .T. ) ;
#235 = EDGE_CURVE ( 'NONE', #552, #949, #286, .T. ) ;
#236 = APPROVAL_PERSON_ORGANIZATION ( #894, #81, #1004 ) ;
#237 = PERSON_AND_ORGANIZATION_ROLE ( 'classification_officer' ) ;
#238 = FACE_OUTER_BOUND ( 'NONE', #555, .T. ) ;
#239 = CIRCLE ( 'NONE', #352, 1.400000000000000133 ) ;
#240 = DIRECTION ( 'NONE',  ( 0.0000000000000000000, 1.000000000000000000, 0.0000000000000000000 ) ) ;
#241 = ORIENTED_EDGE ( 'NONE', *, *, #660, .F. ) ;
#242 = AXIS2_PLACEMENT_3D ( 'NONE', #295, #971, #496 ) ;
#243 = APPROVAL_ROLE ( '' ) ;
#244 = VERTEX_POINT ( 'NONE', #743 ) ;
#245 = DIRECTION ( 'NONE',  ( -0.0000000000000000000, -1.000000000000000000, -0.0000000000000000000 ) ) ;
#246 = EDGE_CURVE ( 'NONE', #1092, #566, #1163, .T. ) ;
#247 = DIRECTION ( 'NONE',  ( 0.0000000000000000000, 1.000000000000000000, 0.0000000000000000000 ) ) ;
#248 = APPROVAL_STATUS ( 'not_yet_approved' ) ;
#249 = AXIS2_PLACEMENT_3D ( 'NONE', #274, #936, #1132 ) ;
#250 = DIRECTION ( 'NONE',  ( 0.0000000000000000000, 0.0000000000000000000, 1.000000000000000000 ) ) ;
#251 = DIRECTION ( 'NONE',  ( 0.0000000000000000000, -0.7071067811865462405, -0.7071067811865489050 ) ) ;
#252 = DIRECTION ( 'NONE',  ( 0.0000000000000000000, 1.000000000000000000, 0.0000000000000000000 ) ) ;
#253 = FACE_OUTER_BOUND ( 'NONE', #106, .T. ) ;
#254 = CIRCLE ( 'NONE', #807, 3.000000000000000000 ) ;
#255 = DIRECTION ( 'NONE',  ( 0.0000000000000000000, 0.0000000000000000000, -1.000000000000000000 ) ) ;
#256 = AXIS2_PLACEMENT_3D ( 'NONE', #636, #247, #554 ) ;
#257 = FACE_OUTER_BOUND ( 'NONE', #811, .T. ) ;
#258 = EDGE_LOOP ( 'NONE', ( #46, #459, #897, #896 ) ) ;
#259 = CARTESIAN_POINT ( 'NONE',  ( 0.0000000000000000000, 5.500000000000000000, 6.500000000000000888 ) ) ;
#260 = AXIS2_PLACEMENT_3D ( 'NONE', #722, #139, #1109 ) ;
#261 = ORIENTED_EDGE ( 'NONE', *, *, #1, .F. ) ;
#262 = ORIENTED_EDGE ( 'NONE', *, *, #83, .T. ) ;
#263 = CARTESIAN_POINT ( 'NONE',  ( 0.0000000000000000000, 0.0000000000000000000, 6.500000000000000888 ) ) ;
#264 = EDGE_CURVE ( 'NONE', #975, #690, #147, .T. ) ;
#265 = DIRECTION ( 'NONE',  ( 0.0000000000000000000, -1.000000000000000000, 0.0000000000000000000 ) ) ;
#266 = DIRECTION ( 'NONE',  ( 0.0000000000000000000, 0.0000000000000000000, 1.000000000000000000 ) ) ;
#267 = CIRCLE ( 'NONE', #78, 3.000000000000000000 ) ;
#268 = PERSON_AND_ORGANIZATION ( #1217, #719 ) ;
#269 = CARTESIAN_POINT ( 'NONE',  ( 6.500000000000000888, 3.500000000000010214, 1.400000000000001021 ) ) ;
#270 = CIRCLE ( 'NONE', #1145, 2.950000000000000622 ) ;
#271 = ORIENTED_EDGE ( 'NONE', *, *, #611, .F. ) ;
#272 = AXIS2_PLACEMENT_3D ( 'NONE', #82, #1218, #842 ) ;
#273 = ORIENTED_EDGE ( 'NONE', *, *, #886, .T. ) ;
#274 = CARTESIAN_POINT ( 'NONE',  ( 0.0000000000000000000, 9.870000000000000995, -6.500000000000000888 ) ) ;
#275 = EDGE_LOOP ( 'NONE', ( #1140, #1039, #756, #800 ) ) ;
#276 = CARTESIAN_POINT ( 'NONE',  ( 6.500000000000000888, 1.499999999999999556, 0.0000000000000000000 ) ) ;
#277 = ORIENTED_EDGE ( 'NONE', *, *, #592, .F. ) ;
#278 = CARTESIAN_POINT ( 'NONE',  ( -6.500000000000000888, 5.000000000000000000, -2.899999999999999911 ) ) ;
#279 = EDGE_CURVE ( 'NONE', #944, #989, #699, .T. ) ;
#280 = DIRECTION ( 'NONE',  ( 0.0000000000000000000, 1.000000000000000000, 0.0000000000000000000 ) ) ;
#281 = CARTESIAN_POINT ( 'NONE',  ( 0.0000000000000000000, 5.000000000000000000, -1.399999999999999911 ) ) ;
#282 = LINE ( 'NONE', #1116, #1149 ) ;
#283 = APPROVAL_DATE_TIME ( #43, #81 ) ;
#284 = CARTESIAN_POINT ( 'NONE',  ( 0.0000000000000000000, 5.000000000000000000, -6.500000000000000888 ) ) ;
#285 = ADVANCED_FACE ( 'NONE', ( #1019 ), #55, .F. ) ;
#286 = CIRCLE ( 'NONE', #1086, 1.400000000000000133 ) ;
#287 = CONICAL_SURFACE ( 'NONE', #443, 2.899999999999999911, 0.7853981633974466137 ) ;
#288 = VECTOR ( 'NONE', #1016, 1000.000000000000000 ) ;
#289 = DIRECTION ( 'NONE',  ( 0.0000000000000000000, -1.000000000000000000, 0.0000000000000000000 ) ) ;
#290 = EDGE_CURVE ( 'NONE', #1168, #90, #942, .T. ) ;
#291 = ORIENTED_EDGE ( 'NONE', *, *, #924, .F. ) ;
#292 = VERTEX_POINT ( 'NONE', #1034 ) ;
#293 = ORIENTED_EDGE ( 'NONE', *, *, #639, .F. ) ;
#294 = VERTEX_POINT ( 'NONE', #1222 ) ;
#295 = CARTESIAN_POINT ( 'NONE',  ( 0.0000000000000000000, 5.500000000000000000, -6.500000000000000888 ) ) ;
#296 = DIRECTION ( 'NONE',  ( 0.0000000000000000000, -0.0000000000000000000, 1.000000000000000000 ) ) ;
#297 = EDGE_CURVE ( 'NONE', #1128, #707, #762, .T. ) ;
#298 = AXIS2_PLACEMENT_3D ( 'NONE', #510, #119, #816 ) ;
#299 = DIRECTION ( 'NONE',  ( 0.0000000000000000000, 0.0000000000000000000, -1.000000000000000000 ) ) ;
#300 = FACE_OUTER_BOUND ( 'NONE', #336, .T. ) ;
#301 = CONICAL_SURFACE ( 'NONE', #624, 1.400000000000000133, 0.7853981633974511656 ) ;
#302 = CARTESIAN_POINT ( 'NONE',  ( 0.0000000000000000000, 5.000000000000000000, 0.0000000000000000000 ) ) ;
#303 = VERTEX_POINT ( 'NONE', #830 ) ;
#304 = DIRECTION ( 'NONE',  ( -0.0000000000000000000, -1.000000000000000000, -0.0000000000000000000 ) ) ;
#305 = EDGE_CURVE ( 'NONE', #809, #689, #270, .T. ) ;
#306 = EDGE_LOOP ( 'NONE', ( #708, #889, #63, #986 ) ) ;
#307 = DIRECTION ( 'NONE',  ( -0.0000000000000000000, -1.000000000000000000, -0.0000000000000000000 ) ) ;
#308 = ORIENTED_EDGE ( 'NONE', *, *, #693, .T. ) ;
#309 = AXIS2_PLACEMENT_3D ( 'NONE', #922, #468, #250 ) ;
#310 = CARTESIAN_POINT ( 'NONE',  ( 1.714505518806294145E-16, 9.870000000000000995, -5.100000000000000533 ) ) ;
#311 = EDGE_CURVE ( 'NONE', #123, #809, #1049, .T. ) ;
#312 = AXIS2_PLACEMENT_3D ( 'NONE', #458, #252, #464 ) ;
#313 = DIRECTION ( 'NONE',  ( 0.0000000000000000000, 0.0000000000000000000, -1.000000000000000000 ) ) ;
#314 = VECTOR ( 'NONE', #750, 1000.000000000000000 ) ;
#315 = LOCAL_TIME ( 17, 7, 33.00000000000000000, #879 ) ;
#316 = FACE_BOUND ( 'NONE', #608, .T. ) ;
#317 = PERSON_AND_ORGANIZATION ( #1217, #719 ) ;
#318 = CARTESIAN_POINT ( 'NONE',  ( 0.0000000000000000000, 9.870000000000000995, -6.500000000000000888 ) ) ;
#319 = LINE ( 'NONE', #797, #288 ) ;
#320 = DIRECTION ( 'NONE',  ( 0.0000000000000000000, -1.000000000000000000, 0.0000000000000000000 ) ) ;
#321 = VERTEX_POINT ( 'NONE', #930 ) ;
#322 = ORIENTED_EDGE ( 'NONE', *, *, #21, .F. ) ;
#323 = DIRECTION ( 'NONE',  ( 0.0000000000000000000, 0.7071067811865454633, 0.7071067811865495711 ) ) ;
#324 = ORIENTED_EDGE ( 'NONE', *, *, #374, .T. ) ;
#325 = CARTESIAN_POINT ( 'NONE',  ( 0.0000000000000000000, 9.870000000000000995, 6.500000000000000888 ) ) ;
#326 = AXIS2_PLACEMENT_3D ( 'NONE', #1013, #149, #542 ) ;
#327 = ORIENTED_EDGE ( 'NONE', *, *, #647, .F. ) ;
#328 = PRODUCT_DEFINITION ( 'UNKNOWN', '', #1087, #919 ) ;
#329 = DIRECTION ( 'NONE',  ( -0.0000000000000000000, -1.000000000000000000, -0.0000000000000000000 ) ) ;
#330 = CARTESIAN_POINT ( 'NONE',  ( 0.0000000000000000000, 9.870000000000000995, -7.900000000000000355 ) ) ;
#331 = CARTESIAN_POINT ( 'NONE',  ( 0.0000000000000000000, 1.500000000000004885, 6.500000000000000888 ) ) ;
#332 = EDGE_CURVE ( 'NONE', #372, #944, #534, .T. ) ;
#333 = VECTOR ( 'NONE', #128, 1000.000000000000000 ) ;
#334 = CIRCLE ( 'NONE', #853, 11.50000000000000000 ) ;
#335 = DIRECTION ( 'NONE',  ( 0.0000000000000000000, 0.0000000000000000000, 1.000000000000000000 ) ) ;
#336 = EDGE_LOOP ( 'NONE', ( #703, #978, #33, #798 ) ) ;
#337 = DIRECTION ( 'NONE',  ( 0.0000000000000000000, 0.0000000000000000000, -1.000000000000000000 ) ) ;
#338 = DIRECTION ( 'NONE',  ( 0.0000000000000000000, -1.000000000000000000, 0.0000000000000000000 ) ) ;
#339 = DIRECTION ( 'NONE',  ( 0.0000000000000000000, 1.000000000000000000, 0.0000000000000000000 ) ) ;
#340 = ORIENTED_EDGE ( 'NONE', *, *, #758, .T. ) ;
#341 = AXIS2_PLACEMENT_3D ( 'NONE', #995, #448, #903 ) ;
#342 = DIRECTION ( 'NONE',  ( -0.0000000000000000000, -1.000000000000000000, -0.0000000000000000000 ) ) ;
#343 = DIRECTION ( 'NONE',  ( 0.0000000000000000000, 0.0000000000000000000, -1.000000000000000000 ) ) ;
#344 = DIRECTION ( 'NONE',  ( 0.0000000000000000000, 0.0000000000000000000, -1.000000000000000000 ) ) ;
#345 = DIRECTION ( 'NONE',  ( 0.0000000000000000000, 1.000000000000000000, 0.0000000000000000000 ) ) ;
#346 = VECTOR ( 'NONE', #91, 1000.000000000000000 ) ;
#347 = EDGE_CURVE ( 'NONE', #928, #607, #1202, .T. ) ;
#348 = CONICAL_SURFACE ( 'NONE', #976, 1.400000000000001021, 0.7853981633974502774 ) ;
#349 = LINE ( 'NONE', #681, #578 ) ;
#350 = DIRECTION ( 'NONE',  ( 0.0000000000000000000, 0.0000000000000000000, -1.000000000000000000 ) ) ;
#351 = VERTEX_POINT ( 'NONE', #1127 ) ;
#352 = AXIS2_PLACEMENT_3D ( 'NONE', #221, #990, #804 ) ;
#353 = CARTESIAN_POINT ( 'NONE',  ( 0.0000000000000000000, 9.870000000000000995, -6.500000000000000888 ) ) ;
#354 = ORIENTED_EDGE ( 'NONE', *, *, #835, .F. ) ;
#355 = EDGE_LOOP ( 'NONE', ( #1196, #932 ) ) ;
#356 = CARTESIAN_POINT ( 'NONE',  ( 0.0000000000000000000, 1.500000000000004885, -7.900000000000000355 ) ) ;
#357 = ORIENTED_EDGE ( 'NONE', *, *, #1033, .T. ) ;
#358 = EDGE_CURVE ( 'NONE', #321, #170, #10, .T. ) ;
#359 = CARTESIAN_POINT ( 'NONE',  ( 1.714505518806294391E-16, 1.500000000000004885, 7.900000000000000355 ) ) ;
#360 = CARTESIAN_POINT ( 'NONE',  ( 0.0000000000000000000, 8.000000000000000000, 6.500000000000000888 ) ) ;
#361 = DIRECTION ( 'NONE',  ( 0.0000000000000000000, -1.000000000000000000, 0.0000000000000000000 ) ) ;
#362 = LINE ( 'NONE', #359, #101 ) ;
#363 = DIRECTION ( 'NONE',  ( 0.0000000000000000000, 0.0000000000000000000, 1.000000000000000000 ) ) ;
#364 = AXIS2_PLACEMENT_3D ( 'NONE', #847, #171, #166 ) ;
#365 = ADVANCED_FACE ( 'NONE', ( #238 ), #348, .F. ) ;
#366 = FACE_OUTER_BOUND ( 'NONE', #540, .T. ) ;
#367 = EDGE_LOOP ( 'NONE', ( #403, #659 ) ) ;
#368 = DIRECTION ( 'NONE',  ( 0.0000000000000000000, 1.000000000000000000, 0.0000000000000000000 ) ) ;
#369 = CC_DESIGN_PERSON_AND_ORGANIZATION_ASSIGNMENT ( #268, #41, ( #1087 ) ) ;
#370 = DIRECTION ( 'NONE',  ( -1.000000000000000000, 0.0000000000000000000, 0.0000000000000000000 ) ) ;
#371 = ORIENTED_EDGE ( 'NONE', *, *, #573, .T. ) ;
#372 = VERTEX_POINT ( 'NONE', #1153 ) ;
#373 = VERTEX_POINT ( 'NONE', #585 ) ;
#374 = EDGE_CURVE ( 'NONE', #244, #1092, #186, .T. ) ;
#375 = MANIFOLD_SOLID_BREP ( 'Chamfer5', #1170 ) ;
#376 = AXIS2_PLACEMENT_3D ( 'NONE', #1100, #338, #725 ) ;
#377 = DIRECTION ( 'NONE',  ( 0.0000000000000000000, 0.0000000000000000000, 1.000000000000000000 ) ) ;
#378 = CARTESIAN_POINT ( 'NONE',  ( 0.0000000000000000000, 1.500000000000004885, 5.100000000000000533 ) ) ;
#379 = FACE_OUTER_BOUND ( 'NONE', #489, .T. ) ;
#380 = FACE_OUTER_BOUND ( 'NONE', #887, .T. ) ;
#381 = EDGE_CURVE ( 'NONE', #872, #1036, #1136, .T. ) ;
#382 = CIRCLE ( 'NONE', #870, 2.950000000000000622 ) ;
#383 = ORIENTED_EDGE ( 'NONE', *, *, #924, .T. ) ;
#384 = DIRECTION ( 'NONE',  ( 1.224646799147352468E-16, 0.0000000000000000000, -1.000000000000000000 ) ) ;
#385 = AXIS2_PLACEMENT_3D ( 'NONE', #845, #80, #377 ) ;
#386 = EDGE_LOOP ( 'NONE', ( #48, #912, #869, #241 ) ) ;
#387 = ORIENTED_EDGE ( 'NONE', *, *, #712, .T. ) ;
#388 = ORIENTED_EDGE ( 'NONE', *, *, #83, .F. ) ;
#389 = ORIENTED_EDGE ( 'NONE', *, *, #1119, .F. ) ;
#390 = AXIS2_PLACEMENT_3D ( 'NONE', #1199, #158, #826 ) ;
#391 = DIRECTION ( 'NONE',  ( -0.0000000000000000000, -1.000000000000000000, -0.0000000000000000000 ) ) ;
#392 = CC_DESIGN_PERSON_AND_ORGANIZATION_ASSIGNMENT ( #906, #911, ( #328 ) ) ;
#393 = CARTESIAN_POINT ( 'NONE',  ( 6.500000000000000888, 3.500000000000010214, -1.400000000000001021 ) ) ;
#394 = DIRECTION ( 'NONE',  ( 0.0000000000000000000, 0.0000000000000000000, 1.000000000000000000 ) ) ;
#395 = LINE ( 'NONE', #734, #1133 ) ;
#396 = CALENDAR_DATE ( 2019, 12, 12 ) ;
#397 = FACE_BOUND ( 'NONE', #991, .T. ) ;
#398 = ADVANCED_FACE ( 'NONE', ( #115 ), #923, .T. ) ;
#399 = DIRECTION ( 'NONE',  ( 0.0000000000000000000, -1.000000000000000000, 0.0000000000000000000 ) ) ;
#400 = EDGE_CURVE ( 'NONE', #622, #372, #687, .T. ) ;
#401 = CARTESIAN_POINT ( 'NONE',  ( 0.0000000000000000000, 0.0000000000000000000, 0.0000000000000000000 ) ) ;
#402 = ORIENTED_EDGE ( 'NONE', *, *, #791, .T. ) ;
#403 = ORIENTED_EDGE ( 'NONE', *, *, #553, .F. ) ;
#404 = ORIENTED_EDGE ( 'NONE', *, *, #1071, .T. ) ;
#405 = CARTESIAN_POINT ( 'NONE',  ( -6.500000000000000888, 3.500000000000009326, -1.400000000000000133 ) ) ;
#406 = VERTEX_POINT ( 'NONE', #765 ) ;
#407 = DIRECTION ( 'NONE',  ( -0.0000000000000000000, -1.000000000000000000, -0.0000000000000000000 ) ) ;
#408 = ADVANCED_FACE ( 'NONE', ( #819, #316, #175, #908, #974, #253 ), #776, .F. ) ;
#409 = DIRECTION ( 'NONE',  ( 0.0000000000000000000, 0.0000000000000000000, -1.000000000000000000 ) ) ;
#410 = AXIS2_PLACEMENT_3D ( 'NONE', #418, #1085, #313 ) ;
#411 = ADVANCED_FACE ( 'NONE', ( #718 ), #1231, .F. ) ;
#412 = CARTESIAN_POINT ( 'NONE',  ( 1.714505518806294391E-16, 8.000000000000000000, 7.900000000000000355 ) ) ;
#413 = FACE_OUTER_BOUND ( 'NONE', #463, .T. ) ;
#414 = CIRCLE ( 'NONE', #1043, 2.950000000000000622 ) ;
#415 = LINE ( 'NONE', #185, #1192 ) ;
#416 = FACE_BOUND ( 'NONE', #194, .T. ) ;
#417 = EDGE_CURVE ( 'NONE', #595, #993, #1000, .T. ) ;
#418 = CARTESIAN_POINT ( 'NONE',  ( 0.0000000000000000000, 9.870000000000000995, -6.500000000000000888 ) ) ;
#419 = ORIENTED_EDGE ( 'NONE', *, *, #178, .T. ) ;
#420 = CC_DESIGN_APPROVAL ( #796, ( #1087 ) ) ;
#421 = ORIENTED_EDGE ( 'NONE', *, *, #981, .F. ) ;
#422 = DIRECTION ( 'NONE',  ( -0.0000000000000000000, -1.000000000000000000, -0.0000000000000000000 ) ) ;
#423 = DIRECTION ( 'NONE',  ( -0.0000000000000000000, -1.000000000000000000, -0.0000000000000000000 ) ) ;
#424 = EDGE_CURVE ( 'NONE', #94, #801, #1219, .T. ) ;
#425 = DIRECTION ( 'NONE',  ( 0.0000000000000000000, 1.000000000000000000, 0.0000000000000000000 ) ) ;
#426 = DIRECTION ( 'NONE',  ( 0.0000000000000000000, -1.000000000000000000, 0.0000000000000000000 ) ) ;
#427 = CIRCLE ( 'NONE', #1167, 3.000000000000000000 ) ;
#428 = CARTESIAN_POINT ( 'NONE',  ( 0.0000000000000000000, 9.870000000000000995, 6.500000000000000888 ) ) ;
#429 = FACE_BOUND ( 'NONE', #1059, .T. ) ;
#430 = CARTESIAN_POINT ( 'NONE',  ( 0.0000000000000000000, 0.0000000000000000000, -9.400000000000000355 ) ) ;
#431 = ORIENTED_EDGE ( 'NONE', *, *, #480, .F. ) ;
#432 = EDGE_LOOP ( 'NONE', ( #609, #308, #388, #525 ) ) ;
#433 = EDGE_CURVE ( 'NONE', #828, #989, #628, .T. ) ;
#434 = ORIENTED_EDGE ( 'NONE', *, *, #1143, .F. ) ;
#435 = ORIENTED_EDGE ( 'NONE', *, *, #702, .T. ) ;
#436 = CC_DESIGN_APPROVAL ( #1069, ( #328 ) ) ;
#437 = CARTESIAN_POINT ( 'NONE',  ( -6.500000000000000888, 0.0000000000000000000, 2.900000000000006573 ) ) ;
#438 = PERSON_AND_ORGANIZATION_ROLE ( 'creator' ) ;
#439 = DIRECTION ( 'NONE',  ( 0.0000000000000000000, -0.0000000000000000000, 1.000000000000000000 ) ) ;
#440 = CARTESIAN_POINT ( 'NONE',  ( 3.673940397442059868E-16, 9.870000000000000995, -3.500000000000000444 ) ) ;
#441 = CIRCLE ( 'NONE', #249, 1.400000000000000133 ) ;
#442 = CARTESIAN_POINT ( 'NONE',  ( -6.500000000000000888, 5.000000000000000000, 2.899999999999999911 ) ) ;
#443 = AXIS2_PLACEMENT_3D ( 'NONE', #860, #1060, #490 ) ;
#444 = FACE_OUTER_BOUND ( 'NONE', #153, .T. ) ;
#445 = CIRCLE ( 'NONE', #856, 3.000000000000000000 ) ;
#446 = DIRECTION ( 'NONE',  ( -0.0000000000000000000, -1.000000000000000000, -0.0000000000000000000 ) ) ;
#447 = EDGE_LOOP ( 'NONE', ( #383, #461 ) ) ;
#448 = DIRECTION ( 'NONE',  ( 0.0000000000000000000, -1.000000000000000000, 0.0000000000000000000 ) ) ;
#449 = ORIENTED_EDGE ( 'NONE', *, *, #1051, .F. ) ;
#450 = EDGE_CURVE ( 'NONE', #32, #993, #1191, .T. ) ;
#451 = ORIENTED_EDGE ( 'NONE', *, *, #988, .F. ) ;
#452 = AXIS2_PLACEMENT_3D ( 'NONE', #488, #580, #499 ) ;
#453 = DIRECTION ( 'NONE',  ( -0.0000000000000000000, -1.000000000000000000, -0.0000000000000000000 ) ) ;
#454 = CARTESIAN_POINT ( 'NONE',  ( 0.0000000000000000000, 1.300000000000006928, 0.0000000000000000000 ) ) ;
#455 = AXIS2_PLACEMENT_3D ( 'NONE', #1024, #345, #630 ) ;
#456 = CYLINDRICAL_SURFACE ( 'NONE', #410, 3.000000000000000888 ) ;
#457 = FACE_OUTER_BOUND ( 'NONE', #766, .T. ) ;
#458 = CARTESIAN_POINT ( 'NONE',  ( 6.500000000000000888, 3.500000000000010214, 0.0000000000000000000 ) ) ;
#459 = ORIENTED_EDGE ( 'NONE', *, *, #1173, .T. ) ;
#460 = CC_DESIGN_DATE_AND_TIME_ASSIGNMENT ( #85, #143, ( #1131 ) ) ;
#461 = ORIENTED_EDGE ( 'NONE', *, *, #433, .T. ) ;
#462 = VERTEX_POINT ( 'NONE', #1068 ) ;
#463 = EDGE_LOOP ( 'NONE', ( #740, #721, #524, #749 ) ) ;
#464 = DIRECTION ( 'NONE',  ( 0.0000000000000000000, 0.0000000000000000000, 1.000000000000000000 ) ) ;
#465 = EDGE_LOOP ( 'NONE', ( #389, #357, #676, #813 ) ) ;
#466 = EDGE_CURVE ( 'NONE', #689, #809, #414, .T. ) ;
#467 = ORIENTED_EDGE ( 'NONE', *, *, #279, .F. ) ;
#468 = DIRECTION ( 'NONE',  ( 0.0000000000000000000, 1.000000000000000000, 0.0000000000000000000 ) ) ;
#469 = LINE ( 'NONE', #1130, #604 ) ;
#470 = LOCAL_TIME ( 17, 7, 33.00000000000000000, #199 ) ;
#471 = DIRECTION ( 'NONE',  ( 0.0000000000000000000, -0.7071067811865462405, -0.7071067811865489050 ) ) ;
#472 = AXIS2_PLACEMENT_3D ( 'NONE', #1122, #265, #157 ) ;
#473 = VECTOR ( 'NONE', #862, 1000.000000000000000 ) ;
#474 = COORDINATED_UNIVERSAL_TIME_OFFSET ( 0, 0, .AHEAD. ) ;
#475 = ORIENTED_EDGE ( 'NONE', *, *, #1119, .T. ) ;
#476 = CARTESIAN_POINT ( 'NONE',  ( 6.500000000000000888, 10.00000000000000000, 0.0000000000000000000 ) ) ;
#477 = DIRECTION ( 'NONE',  ( 1.000000000000000000, -0.0000000000000000000, 1.224646799147353207E-16 ) ) ;
#478 = ORIENTED_EDGE ( 'NONE', *, *, #1078, .T. ) ;
#479 = DIRECTION ( 'NONE',  ( 1.224646799147351482E-16, 0.0000000000000000000, -1.000000000000000000 ) ) ;
#480 = EDGE_CURVE ( 'NONE', #75, #690, #793, .T. ) ;
#481 = CARTESIAN_POINT ( 'NONE',  ( 0.0000000000000000000, 5.500000000000000000, 10.00000000000000000 ) ) ;
#482 = CC_DESIGN_PERSON_AND_ORGANIZATION_ASSIGNMENT ( #973, #237, ( #1131 ) ) ;
#483 = DIRECTION ( 'NONE',  ( 0.0000000000000000000, 0.0000000000000000000, -1.000000000000000000 ) ) ;
#484 = ADVANCED_FACE ( 'NONE', ( #983 ), #956, .F. ) ;
#485 = CYLINDRICAL_SURFACE ( 'NONE', #817, 1.399999999999999911 ) ;
#486 = CYLINDRICAL_SURFACE ( 'NONE', #173, 1.400000000000001021 ) ;
#487 = LINE ( 'NONE', #40, #795 ) ;
#488 = CARTESIAN_POINT ( 'NONE',  ( 0.0000000000000000000, 5.000000000000000000, 6.500000000000000888 ) ) ;
#489 = EDGE_LOOP ( 'NONE', ( #646, #914, #1114, #135 ) ) ;
#490 = DIRECTION ( 'NONE',  ( 0.0000000000000000000, 0.0000000000000000000, -1.000000000000000000 ) ) ;
#491 = VERTEX_POINT ( 'NONE', #17 ) ;
#492 = CARTESIAN_POINT ( 'NONE',  ( 1.714505518806294391E-16, 5.000000000000000000, 1.399999999999999911 ) ) ;
#493 = EDGE_LOOP ( 'NONE', ( #1124, #340, #34, #121 ) ) ;
#494 = ADVANCED_FACE ( 'NONE', ( #444 ), #485, .F. ) ;
#495 = EDGE_LOOP ( 'NONE', ( #965, #596 ) ) ;
#496 = DIRECTION ( 'NONE',  ( 0.0000000000000000000, 0.0000000000000000000, 1.000000000000000000 ) ) ;
#497 = AXIS2_PLACEMENT_3D ( 'NONE', #920, #67, #1028 ) ;
#498 = ADVANCED_FACE ( 'NONE', ( #380 ), #456, .T. ) ;
#499 = DIRECTION ( 'NONE',  ( 0.0000000000000000000, 0.0000000000000000000, 1.000000000000000000 ) ) ;
#500 = CONICAL_SURFACE ( 'NONE', #1102, 2.700000000000001066, 0.7853981633974460586 ) ;
#501 = VECTOR ( 'NONE', #955, 1000.000000000000000 ) ;
#502 = CYLINDRICAL_SURFACE ( 'NONE', #1234, 2.950000000000000622 ) ;
#503 = DIRECTION ( 'NONE',  ( -0.0000000000000000000, -1.000000000000000000, -0.0000000000000000000 ) ) ;
#504 = EDGE_CURVE ( 'NONE', #294, #1158, #1176, .T. ) ;
#505 = ORIENTED_EDGE ( 'NONE', *, *, #970, .T. ) ;
#506 = CARTESIAN_POINT ( 'NONE',  ( 0.0000000000000000000, 0.0000000000000000000, -2.700000000000001066 ) ) ;
#507 = AXIS2_PLACEMENT_3D ( 'NONE', #588, #1148, #773 ) ;
#508 = ORIENTED_EDGE ( 'NONE', *, *, #51, .F. ) ;
#509 = ORIENTED_EDGE ( 'NONE', *, *, #791, .F. ) ;
#510 = CARTESIAN_POINT ( 'NONE',  ( 0.0000000000000000000, 0.0000000000000000000, 0.0000000000000000000 ) ) ;
#511 = CARTESIAN_POINT ( 'NONE',  ( -6.500000000000000888, 5.000000000000000000, 0.0000000000000000000 ) ) ;
#512 = EDGE_CURVE ( 'NONE', #170, #975, #848, .T. ) ;
#513 = DIRECTION ( 'NONE',  ( 0.0000000000000000000, 0.0000000000000000000, 1.000000000000000000 ) ) ;
#514 = AXIS2_PLACEMENT_3D ( 'NONE', #212, #696, #602 ) ;
#515 = CARTESIAN_POINT ( 'NONE',  ( 3.306546357697854719E-16, 0.0000000000000000000, 2.700000000000001066 ) ) ;
#516 = VECTOR ( 'NONE', #73, 1000.000000000000000 ) ;
#517 = VECTOR ( 'NONE', #503, 1000.000000000000000 ) ;
#518 = CARTESIAN_POINT ( 'NONE',  ( 0.0000000000000000000, 1.500000000000004885, 6.500000000000000888 ) ) ;
#519 = FACE_BOUND ( 'NONE', #1156, .T. ) ;
#520 = ORIENTED_EDGE ( 'NONE', *, *, #69, .F. ) ;
#521 = CARTESIAN_POINT ( 'NONE',  ( 6.500000000000000888, 0.0000000000000000000, 2.900000000000006573 ) ) ;
#522 = AXIS2_PLACEMENT_3D ( 'NONE', #1120, #557, #1208 ) ;
#523 = ORIENTED_EDGE ( 'NONE', *, *, #712, .F. ) ;
#524 = ORIENTED_EDGE ( 'NONE', *, *, #279, .T. ) ;
#525 = ORIENTED_EDGE ( 'NONE', *, *, #1008, .F. ) ;
#526 = DIRECTION ( 'NONE',  ( -0.0000000000000000000, -1.000000000000000000, -0.0000000000000000000 ) ) ;
#527 = DIRECTION ( 'NONE',  ( 0.0000000000000000000, 1.000000000000000000, 0.0000000000000000000 ) ) ;
#528 = EDGE_CURVE ( 'NONE', #94, #1128, #1075, .T. ) ;
#529 = CARTESIAN_POINT ( 'NONE',  ( 0.0000000000000000000, 3.000000000000000000, 0.0000000000000000000 ) ) ;
#530 = DIRECTION ( 'NONE',  ( 0.0000000000000000000, 1.000000000000000000, 0.0000000000000000000 ) ) ;
#531 = CIRCLE ( 'NONE', #1188, 1.400000000000000133 ) ;
#532 = PERSON_AND_ORGANIZATION ( #1217, #719 ) ;
#533 = APPLICATION_PROTOCOL_DEFINITION ( 'international standard', 'config_control_design', 1994, #52 ) ;
#534 = CIRCLE ( 'NONE', #844, 3.000000000000000888 ) ;
#535 = DIRECTION ( 'NONE',  ( 0.0000000000000000000, 0.0000000000000000000, 1.000000000000000000 ) ) ;
#536 = ORIENTED_EDGE ( 'NONE', *, *, #584, .F. ) ;
#537 = ORIENTED_EDGE ( 'NONE', *, *, #61, .T. ) ;
#538 = ORIENTED_EDGE ( 'NONE', *, *, #1198, .F. ) ;
#539 = AXIS2_PLACEMENT_3D ( 'NONE', #1041, #177, #1044 ) ;
#540 = EDGE_LOOP ( 'NONE', ( #583, #1010, #898, #1095 ) ) ;
#541 = DIRECTION ( 'NONE',  ( 0.0000000000000000000, 1.000000000000000000, 0.0000000000000000000 ) ) ;
#542 = DIRECTION ( 'NONE',  ( 0.0000000000000000000, -0.0000000000000000000, 1.000000000000000000 ) ) ;
#543 = MECHANICAL_CONTEXT ( 'NONE', #52, 'mechanical' ) ;
#544 = CARTESIAN_POINT ( 'NONE',  ( 0.0000000000000000000, 0.0000000000000000000, -11.50000000000000000 ) ) ;
#545 = CARTESIAN_POINT ( 'NONE',  ( 6.500000000000000888, 3.500000000000010214, 0.0000000000000000000 ) ) ;
#546 = AXIS2_PLACEMENT_3D ( 'NONE', #1083, #426, #994 ) ;
#547 = DATE_TIME_ROLE ( 'creation_date' ) ;
#548 = LINE ( 'NONE', #232, #1046 ) ;
#549 = DATE_AND_TIME ( #593, #1090 ) ;
#550 = VECTOR ( 'NONE', #1171, 1000.000000000000000 ) ;
#551 = LINE ( 'NONE', #982, #670 ) ;
#552 = VERTEX_POINT ( 'NONE', #310 ) ;
#553 = EDGE_CURVE ( 'NONE', #462, #1097, #160, .T. ) ;
#554 = DIRECTION ( 'NONE',  ( 0.0000000000000000000, 0.0000000000000000000, 1.000000000000000000 ) ) ;
#555 = EDGE_LOOP ( 'NONE', ( #451, #136, #449, #1126 ) ) ;
#556 = ORIENTED_EDGE ( 'NONE', *, *, #1094, .F. ) ;
#557 = DIRECTION ( 'NONE',  ( 0.0000000000000000000, 1.000000000000000000, 0.0000000000000000000 ) ) ;
#558 = DIRECTION ( 'NONE',  ( 0.0000000000000000000, 0.0000000000000000000, 1.000000000000000000 ) ) ;
#559 = UNCERTAINTY_MEASURE_WITH_UNIT (LENGTH_MEASURE( 1.000000000000000082E-05 ), #151, 'distance_accuracy_value', 'NONE');
#560 = EDGE_CURVE ( 'NONE', #1040, #726, #44, .T. ) ;
#561 = CARTESIAN_POINT ( 'NONE',  ( 0.0000000000000000000, 9.870000000000000995, -7.900000000000000355 ) ) ;
#562 = FACE_OUTER_BOUND ( 'NONE', #767, .T. ) ;
#563 = ORIENTED_EDGE ( 'NONE', *, *, #618, .T. ) ;
#564 = EDGE_LOOP ( 'NONE', ( #387, #857 ) ) ;
#565 = DIRECTION ( 'NONE',  ( 0.0000000000000000000, -1.000000000000000000, 0.0000000000000000000 ) ) ;
#566 = VERTEX_POINT ( 'NONE', #515 ) ;
#567 = AXIS2_PLACEMENT_3D ( 'NONE', #45, #233, #1088 ) ;
#568 = EDGE_LOOP ( 'NONE', ( #15, #273, #138, #93 ) ) ;
#569 = AXIS2_PLACEMENT_3D ( 'NONE', #57, #1014, #350 ) ;
#570 = CARTESIAN_POINT ( 'NONE',  ( 6.500000000000000888, 10.00000000000000000, 1.400000000000001021 ) ) ;
#571 = CARTESIAN_POINT ( 'NONE',  ( 0.0000000000000000000, 0.0000000000000000000, -6.500000000000000888 ) ) ;
#572 = DIRECTION ( 'NONE',  ( 0.0000000000000000000, 0.0000000000000000000, 1.000000000000000000 ) ) ;
#573 = EDGE_CURVE ( 'NONE', #622, #491, #427, .T. ) ;
#574 = LINE ( 'NONE', #805, #333 ) ;
#575 = DATE_AND_TIME ( #778, #470 ) ;
#576 = AXIS2_PLACEMENT_3D ( 'NONE', #691, #112, #117 ) ;
#577 = CIRCLE ( 'NONE', #1029, 0.5000000000000000000 ) ;
#578 = VECTOR ( 'NONE', #3, 1000.000000000000000 ) ;
#579 = FACE_OUTER_BOUND ( 'NONE', #220, .T. ) ;
#580 = DIRECTION ( 'NONE',  ( -0.0000000000000000000, -1.000000000000000000, -0.0000000000000000000 ) ) ;
#581 = ORIENTED_EDGE ( 'NONE', *, *, #297, .T. ) ;
#582 = ORIENTED_EDGE ( 'NONE', *, *, #775, .T. ) ;
#583 = ORIENTED_EDGE ( 'NONE', *, *, #758, .F. ) ;
#584 = EDGE_CURVE ( 'NONE', #607, #928, #1035, .T. ) ;
#585 = CARTESIAN_POINT ( 'NONE',  ( 3.612708057484692590E-16, 3.000000000000000000, -2.950000000000000622 ) ) ;
#586 = CC_DESIGN_APPROVAL ( #81, ( #1131 ) ) ;
#587 = ADVANCED_FACE ( 'NONE', ( #779 ), #806, .F. ) ;
#588 = CARTESIAN_POINT ( 'NONE',  ( 6.500000000000000888, 0.0000000000000000000, 0.0000000000000000000 ) ) ;
#589 = DIRECTION ( 'NONE',  ( 0.0000000000000000000, 1.000000000000000000, 0.0000000000000000000 ) ) ;
#590 = CARTESIAN_POINT ( 'NONE',  ( 3.673940397442059868E-16, 9.870000000000000995, -3.500000000000000444 ) ) ;
#591 = FACE_OUTER_BOUND ( 'NONE', #493, .T. ) ;
#592 = EDGE_CURVE ( 'NONE', #966, #321, #1105, .T. ) ;
#593 = CALENDAR_DATE ( 2019, 12, 12 ) ;
#594 = ADVANCED_FACE ( 'NONE', ( #668, #1103 ), #12, .T. ) ;
#595 = VERTEX_POINT ( 'NONE', #619 ) ;
#596 = ORIENTED_EDGE ( 'NONE', *, *, #480, .T. ) ;
#597 = ORIENTED_EDGE ( 'NONE', *, *, #1071, .F. ) ;
#598 = DIRECTION ( 'NONE',  ( -0.0000000000000000000, -1.000000000000000000, -0.0000000000000000000 ) ) ;
#599 = ORIENTED_EDGE ( 'NONE', *, *, #916, .F. ) ;
#600 = AXIS2_PLACEMENT_3D ( 'NONE', #1182, #146, #230 ) ;
#601 = CARTESIAN_POINT ( 'NONE',  ( 0.0000000000000000000, 1.500000000000004885, 6.500000000000000888 ) ) ;
#602 = DIRECTION ( 'NONE',  ( 0.0000000000000000000, 0.0000000000000000000, -1.000000000000000000 ) ) ;
#603 = ADVANCED_FACE ( 'NONE', ( #300 ), #747, .F. ) ;
#604 = VECTOR ( 'NONE', #651, 1000.000000000000000 ) ;
#605 = DIRECTION ( 'NONE',  ( 0.0000000000000000000, 0.0000000000000000000, 1.000000000000000000 ) ) ;
#606 = DIRECTION ( 'NONE',  ( 0.0000000000000000000, 0.0000000000000000000, -1.000000000000000000 ) ) ;
#607 = VERTEX_POINT ( 'NONE', #442 ) ;
#608 = EDGE_LOOP ( 'NONE', ( #648, #435 ) ) ;
#609 = ORIENTED_EDGE ( 'NONE', *, *, #553, .T. ) ;
#610 = CARTESIAN_POINT ( 'NONE',  ( 0.0000000000000000000, 5.000000000000000000, 0.0000000000000000000 ) ) ;
#611 = EDGE_CURVE ( 'NONE', #1057, #1023, #531, .T. ) ;
#612 = DIRECTION ( 'NONE',  ( 0.0000000000000000000, 0.0000000000000000000, 1.000000000000000000 ) ) ;
#613 = CARTESIAN_POINT ( 'NONE',  ( 1.408343819019456176E-15, 5.000000000000000000, 11.50000000000000000 ) ) ;
#614 = CIRCLE ( 'NONE', #935, 2.700000000000001066 ) ;
#615 = DIRECTION ( 'NONE',  ( 0.0000000000000000000, 0.7071067811865454633, 0.7071067811865495711 ) ) ;
#616 = FACE_OUTER_BOUND ( 'NONE', #465, .T. ) ;
#617 = ORIENTED_EDGE ( 'NONE', *, *, #400, .F. ) ;
#618 = EDGE_CURVE ( 'NONE', #292, #850, #1089, .T. ) ;
#619 = CARTESIAN_POINT ( 'NONE',  ( 4.286263797015737088E-16, 4.999999999999999112, -10.00000000000000000 ) ) ;
#620 = ORIENTED_EDGE ( 'NONE', *, *, #130, .F. ) ;
#621 = EDGE_LOOP ( 'NONE', ( #782, #434, #852, #1110 ) ) ;
#622 = VERTEX_POINT ( 'NONE', #714 ) ;
#623 = DIRECTION ( 'NONE',  ( -0.0000000000000000000, -1.000000000000000000, -0.0000000000000000000 ) ) ;
#624 = AXIS2_PLACEMENT_3D ( 'NONE', #1002, #527, #335 ) ;
#625 = DIRECTION ( 'NONE',  ( 0.0000000000000000000, 0.0000000000000000000, 1.000000000000000000 ) ) ;
#626 = AXIS2_PLACEMENT_3D ( 'NONE', #108, #678, #103 ) ;
#627 = CIRCLE ( 'NONE', #309, 2.700000000000001066 ) ;
#628 = CIRCLE ( 'NONE', #452, 3.499999999999999556 ) ;
#629 = CONICAL_SURFACE ( 'NONE', #125, 1.400000000000001021, 0.7853981633974511656 ) ;
#630 = DIRECTION ( 'NONE',  ( 0.0000000000000000000, 0.0000000000000000000, -1.000000000000000000 ) ) ;
#631 = ORIENTED_EDGE ( 'NONE', *, *, #172, .T. ) ;
#632 = APPROVAL_STATUS ( 'not_yet_approved' ) ;
#633 = AXIS2_PLACEMENT_3D ( 'NONE', #913, #68, #739 ) ;
#634 = ORIENTED_EDGE ( 'NONE', *, *, #400, .T. ) ;
#635 = DIRECTION ( 'NONE',  ( 0.0000000000000000000, 0.0000000000000000000, 1.000000000000000000 ) ) ;
#636 = CARTESIAN_POINT ( 'NONE',  ( 0.0000000000000000000, 5.500000000000000000, 6.500000000000000888 ) ) ;
#637 = DIRECTION ( 'NONE',  ( 0.0000000000000000000, 0.0000000000000000000, 1.000000000000000000 ) ) ;
#638 = DIRECTION ( 'NONE',  ( 0.0000000000000000000, 0.0000000000000000000, 1.000000000000000000 ) ) ;
#639 = EDGE_CURVE ( 'NONE', #294, #1092, #685, .T. ) ;
#640 = ADVANCED_FACE ( 'NONE', ( #7 ), #832, .T. ) ;
#641 = CARTESIAN_POINT ( 'NONE',  ( 3.551475717527337144E-16, 0.0000000000000000000, 9.400000000000011013 ) ) ;
#642 = TOROIDAL_SURFACE ( 'NONE', #114, 3.500000000000000000, 0.5000000000000000000 ) ;
#643 = DIRECTION ( 'NONE',  ( 0.0000000000000000000, 0.0000000000000000000, 1.000000000000000000 ) ) ;
#644 = CYLINDRICAL_SURFACE ( 'NONE', #829, 2.950000000000000622 ) ;
#645 = VERTEX_POINT ( 'NONE', #137 ) ;
#646 = ORIENTED_EDGE ( 'NONE', *, *, #730, .F. ) ;
#647 = EDGE_CURVE ( 'NONE', #872, #726, #548, .T. ) ;
#648 = ORIENTED_EDGE ( 'NONE', *, *, #1051, .T. ) ;
#649 = ORIENTED_EDGE ( 'NONE', *, *, #1015, .T. ) ;
#650 = ORIENTED_EDGE ( 'NONE', *, *, #214, .T. ) ;
#651 = DIRECTION ( 'NONE',  ( -0.0000000000000000000, -1.000000000000000000, -0.0000000000000000000 ) ) ;
#652 = DIRECTION ( 'NONE',  ( 0.0000000000000000000, 0.0000000000000000000, 1.000000000000000000 ) ) ;
#653 = VECTOR ( 'NONE', #954, 1000.000000000000000 ) ;
#654 = PERSON_AND_ORGANIZATION ( #1217, #719 ) ;
#655 = CYLINDRICAL_SURFACE ( 'NONE', #1151, 1.400000000000000133 ) ;
#656 = DATE_AND_TIME ( #1165, #794 ) ;
#657 = CONICAL_SURFACE ( 'NONE', #546, 1.400000000000000133, 0.7853981633974500554 ) ;
#658 = DIRECTION ( 'NONE',  ( 0.0000000000000000000, 0.0000000000000000000, -1.000000000000000000 ) ) ;
#659 = ORIENTED_EDGE ( 'NONE', *, *, #751, .F. ) ;
#660 = EDGE_CURVE ( 'NONE', #966, #975, #574, .T. ) ;
#661 = DIRECTION ( 'NONE',  ( -0.0000000000000000000, -1.000000000000000000, -0.0000000000000000000 ) ) ;
#662 = VERTEX_POINT ( 'NONE', #902 ) ;
#663 = CARTESIAN_POINT ( 'NONE',  ( 0.0000000000000000000, 1.500000000000004885, 6.500000000000000888 ) ) ;
#664 = CARTESIAN_POINT ( 'NONE',  ( 0.0000000000000000000, 1.500000000000004885, -6.500000000000000888 ) ) ;
#665 = EDGE_CURVE ( 'NONE', #975, #170, #790, .T. ) ;
#666 = DIRECTION ( 'NONE',  ( 0.0000000000000000000, -1.000000000000000000, 0.0000000000000000000 ) ) ;
#667 = ADVANCED_FACE ( 'NONE', ( #846 ), #1216, .F. ) ;
#668 = FACE_BOUND ( 'NONE', #1082, .T. ) ;
#669 = CIRCLE ( 'NONE', #937, 3.000000000000000000 ) ;
#670 = VECTOR ( 'NONE', #225, 1000.000000000000000 ) ;
#671 = CARTESIAN_POINT ( 'NONE',  ( 0.0000000000000000000, 1.500000000000004885, 5.100000000000000533 ) ) ;
#672 = ORIENTED_EDGE ( 'NONE', *, *, #1078, .F. ) ;
#673 = DIRECTION ( 'NONE',  ( 0.0000000000000000000, 0.0000000000000000000, 1.000000000000000000 ) ) ;
#674 = ORIENTED_EDGE ( 'NONE', *, *, #528, .T. ) ;
#675 = ORIENTED_EDGE ( 'NONE', *, *, #528, .F. ) ;
#676 = ORIENTED_EDGE ( 'NONE', *, *, #611, .T. ) ;
#677 = ADVANCED_FACE ( 'NONE', ( #893 ), #129, .F. ) ;
#678 = DIRECTION ( 'NONE',  ( 0.0000000000000000000, 1.000000000000000000, 0.0000000000000000000 ) ) ;
#679 = AXIS2_PLACEMENT_3D ( 'NONE', #717, #245, #344 ) ;
#680 = AXIS2_PLACEMENT_3D ( 'NONE', #802, #422, #20 ) ;
#681 = CARTESIAN_POINT ( 'NONE',  ( 6.500000000000000888, 10.00000000000000000, -1.400000000000001021 ) ) ;
#682 = DIRECTION ( 'NONE',  ( 0.0000000000000000000, 0.0000000000000000000, 1.000000000000000000 ) ) ;
#683 = ADVANCED_FACE ( 'NONE', ( #1190 ), #500, .F. ) ;
#684 = CARTESIAN_POINT ( 'NONE',  ( 0.0000000000000000000, 5.500000000000000000, -6.500000000000000888 ) ) ;
#685 = CIRCLE ( 'NONE', #197, 1.399999999999999911 ) ;
#686 = AXIS2_PLACEMENT_3D ( 'NONE', #1099, #231, #996 ) ;
#687 = LINE ( 'NONE', #97, #473 ) ;
#688 = PERSON_AND_ORGANIZATION ( #1217, #719 ) ;
#689 = VERTEX_POINT ( 'NONE', #37 ) ;
#690 = VERTEX_POINT ( 'NONE', #223 ) ;
#691 = CARTESIAN_POINT ( 'NONE',  ( -6.500000000000000888, 0.0000000000000000000, 0.0000000000000000000 ) ) ;
#692 = ORIENTED_EDGE ( 'NONE', *, *, #417, .T. ) ;
#693 = EDGE_CURVE ( 'NONE', #1097, #292, #198, .T. ) ;
#694 = CARTESIAN_POINT ( 'NONE',  ( 0.0000000000000000000, 3.000000000000000000, 0.0000000000000000000 ) ) ;
#695 = AXIS2_PLACEMENT_3D ( 'NONE', #401, #871, #296 ) ;
#696 = DIRECTION ( 'NONE',  ( -0.0000000000000000000, -1.000000000000000000, -0.0000000000000000000 ) ) ;
#697 = DIRECTION ( 'NONE',  ( 0.0000000000000000000, 0.0000000000000000000, -1.000000000000000000 ) ) ;
#698 = DIRECTION ( 'NONE',  ( 0.0000000000000000000, -1.000000000000000000, 0.0000000000000000000 ) ) ;
#699 = CIRCLE ( 'NONE', #1210, 0.5000000000000004441 ) ;
#700 = CIRCLE ( 'NONE', #680, 3.500000000000000000 ) ;
#701 = DIRECTION ( 'NONE',  ( -0.0000000000000000000, -1.000000000000000000, -0.0000000000000000000 ) ) ;
#702 = EDGE_CURVE ( 'NONE', #1141, #1112, #972, .T. ) ;
#703 = ORIENTED_EDGE ( 'NONE', *, *, #1061, .F. ) ;
#704 = DIRECTION ( 'NONE',  ( 0.0000000000000000000, 0.0000000000000000000, -1.000000000000000000 ) ) ;
#705 = ORIENTED_EDGE ( 'NONE', *, *, #305, .T. ) ;
#706 = PLANE ( 'NONE',  #455 ) ;
#707 = VERTEX_POINT ( 'NONE', #430 ) ;
#708 = ORIENTED_EDGE ( 'NONE', *, *, #892, .F. ) ;
#709 = CARTESIAN_POINT ( 'NONE',  ( 0.0000000000000000000, 1.300000000000006928, 0.0000000000000000000 ) ) ;
#710 = ORIENTED_EDGE ( 'NONE', *, *, #69, .T. ) ;
#711 = DIRECTION ( 'NONE',  ( 0.0000000000000000000, 0.0000000000000000000, 1.000000000000000000 ) ) ;
#712 = EDGE_CURVE ( 'NONE', #303, #784, #939, .T. ) ;
#713 =( NAMED_UNIT ( * ) SI_UNIT ( $, .STERADIAN. ) SOLID_ANGLE_UNIT ( ) );
#714 = CARTESIAN_POINT ( 'NONE',  ( 0.0000000000000000000, 9.870000000000000995, 3.500000000000000444 ) ) ;
#715 = APPROVAL_STATUS ( 'not_yet_approved' ) ;
#716 = CONICAL_SURFACE ( 'NONE', #824, 1.400000000000000133, 0.7853981633974501664 ) ;
#717 = CARTESIAN_POINT ( 'NONE',  ( 0.0000000000000000000, 8.000000000000000000, 6.500000000000000888 ) ) ;
#718 = FACE_OUTER_BOUND ( 'NONE', #810, .T. ) ;
#719 = ORGANIZATION ( 'UNSPECIFIED', 'UNSPECIFIED', '' ) ;
#720 = CARTESIAN_POINT ( 'NONE',  ( 0.0000000000000000000, 0.0000000000000000000, -6.500000000000000888 ) ) ;
#721 = ORIENTED_EDGE ( 'NONE', *, *, #172, .F. ) ;
#722 = CARTESIAN_POINT ( 'NONE',  ( 6.500000000000000888, 3.500000000000010214, 0.0000000000000000000 ) ) ;
#723 = AXIS2_PLACEMENT_3D ( 'NONE', #529, #240, #439 ) ;
#724 = ORIENTED_EDGE ( 'NONE', *, *, #916, .T. ) ;
#725 = DIRECTION ( 'NONE',  ( 0.0000000000000000000, 0.0000000000000000000, -1.000000000000000000 ) ) ;
#726 = VERTEX_POINT ( 'NONE', #1201 ) ;
#727 = ORIENTED_EDGE ( 'NONE', *, *, #311, .T. ) ;
#728 = APPLICATION_CONTEXT ( 'configuration controlled 3d designs of mechanical parts and assemblies' ) ;
#729 = CARTESIAN_POINT ( 'NONE',  ( 6.500000000000000888, 0.0000000000000000000, 0.0000000000000000000 ) ) ;
#730 = EDGE_CURVE ( 'NONE', #1092, #294, #25, .T. ) ;
#731 = DIRECTION ( 'NONE',  ( 0.0000000000000000000, 1.000000000000000000, 0.0000000000000000000 ) ) ;
#732 = DIRECTION ( 'NONE',  ( 0.0000000000000000000, 0.0000000000000000000, 1.000000000000000000 ) ) ;
#733 = VECTOR ( 'NONE', #878, 999.9999999999998863 ) ;
#734 = CARTESIAN_POINT ( 'NONE',  ( -6.500000000000000888, 1.500000000000001332, 1.400000000000000133 ) ) ;
#735 = ORIENTED_EDGE ( 'NONE', *, *, #381, .F. ) ;
#736 = CARTESIAN_POINT ( 'NONE',  ( 1.714505518806294145E-16, 1.500000000000004885, -5.100000000000000533 ) ) ;
#737 = EDGE_LOOP ( 'NONE', ( #371, #724, #631, #617 ) ) ;
#738 = ORIENTED_EDGE ( 'NONE', *, *, #820, .F. ) ;
#739 = DIRECTION ( 'NONE',  ( 0.0000000000000000000, 0.0000000000000000000, -1.000000000000000000 ) ) ;
#740 = ORIENTED_EDGE ( 'NONE', *, *, #229, .F. ) ;
#741 = DIRECTION ( 'NONE',  ( 0.0000000000000000000, -1.000000000000000000, 0.0000000000000000000 ) ) ;
#742 = CARTESIAN_POINT ( 'NONE',  ( 4.286263797015736595E-16, 4.999999999999999112, 3.000000000000000444 ) ) ;
#743 = CARTESIAN_POINT ( 'NONE',  ( 1.714505518806294391E-16, 3.000000000000000000, 1.399999999999999911 ) ) ;
#744 = AXIS2_PLACEMENT_3D ( 'NONE', #868, #399, #299 ) ;
#745 = LINE ( 'NONE', #1125, #346 ) ;
#746 = DIRECTION ( 'NONE',  ( 0.0000000000000000000, 1.000000000000000000, 0.0000000000000000000 ) ) ;
#747 = TOROIDAL_SURFACE ( 'NONE', #600, 3.500000000000000000, 0.5000000000000000000 ) ;
#748 = CYLINDRICAL_SURFACE ( 'NONE', #65, 3.000000000000000000 ) ;
#749 = ORIENTED_EDGE ( 'NONE', *, *, #433, .F. ) ;
#750 = DIRECTION ( 'NONE',  ( -0.0000000000000000000, -1.000000000000000000, -0.0000000000000000000 ) ) ;
#751 = EDGE_CURVE ( 'NONE', #1097, #462, #1032, .T. ) ;
#752 = DIRECTION ( 'NONE',  ( 8.659560562354913137E-17, -0.7071067811865491270, 0.7071067811865459074 ) ) ;
#753 = ORIENTED_EDGE ( 'NONE', *, *, #1115, .F. ) ;
#754 = PRODUCT ( 'circle 3 variant', 'circle 3 variant', '', ( #543 ) ) ;
#755 = AXIS2_PLACEMENT_3D ( 'NONE', #977, #320, #22 ) ;
#756 = ORIENTED_EDGE ( 'NONE', *, *, #660, .T. ) ;
#757 = ADVANCED_BREP_SHAPE_REPRESENTATION ( 'circle 3 variant', ( #375, #298 ), #1117 ) ;
#758 = EDGE_CURVE ( 'NONE', #552, #94, #282, .T. ) ;
#759 = DIRECTION ( 'NONE',  ( 0.0000000000000000000, -1.000000000000000000, 0.0000000000000000000 ) ) ;
#760 = AXIS2_PLACEMENT_3D ( 'NONE', #1098, #141, #1005 ) ;
#761 = CARTESIAN_POINT ( 'NONE',  ( 3.673940397442058389E-16, 5.500000000000000000, 9.500000000000001776 ) ) ;
#762 = CIRCLE ( 'NONE', #167, 2.899999999999999911 ) ;
#763 = LINE ( 'NONE', #959, #517 ) ;
#764 = LINE ( 'NONE', #440, #1052 ) ;
#765 = CARTESIAN_POINT ( 'NONE',  ( 0.0000000000000000000, 3.000000000000000000, -1.399999999999999911 ) ) ;
#766 = EDGE_LOOP ( 'NONE', ( #1025, #204, #505, #66 ) ) ;
#767 = EDGE_LOOP ( 'NONE', ( #1183, #1070, #188, #431 ) ) ;
#768 = DIRECTION ( 'NONE',  ( -0.0000000000000000000, -1.000000000000000000, -0.0000000000000000000 ) ) ;
#769 = ORIENTED_EDGE ( 'NONE', *, *, #1173, .F. ) ;
#770 = AXIS2_PLACEMENT_3D ( 'NONE', #353, #446, #255 ) ;
#771 = DIRECTION ( 'NONE',  ( 0.0000000000000000000, 0.0000000000000000000, -1.000000000000000000 ) ) ;
#772 = EDGE_LOOP ( 'NONE', ( #133, #672, #836, #960 ) ) ;
#773 = DIRECTION ( 'NONE',  ( 0.0000000000000000000, 0.0000000000000000000, 1.000000000000000000 ) ) ;
#774 = ADVANCED_FACE ( 'NONE', ( #413 ), #642, .F. ) ;
#775 = EDGE_CURVE ( 'NONE', #170, #75, #395, .T. ) ;
#776 = PLANE ( 'NONE',  #695 ) ;
#777 = CYLINDRICAL_SURFACE ( 'NONE', #633, 1.400000000000000133 ) ;
#778 = CALENDAR_DATE ( 2019, 12, 12 ) ;
#779 = FACE_OUTER_BOUND ( 'NONE', #827, .T. ) ;
#780 = ADVANCED_FACE ( 'NONE', ( #1121 ), #72, .F. ) ;
#781 = DIRECTION ( 'NONE',  ( 0.0000000000000000000, -0.7071067811865487940, -0.7071067811865463515 ) ) ;
#782 = ORIENTED_EDGE ( 'NONE', *, *, #1033, .F. ) ;
#783 = ORIENTED_EDGE ( 'NONE', *, *, #229, .T. ) ;
#784 = VERTEX_POINT ( 'NONE', #641 ) ;
#785 = DIRECTION ( 'NONE',  ( 0.0000000000000000000, 0.0000000000000000000, 1.000000000000000000 ) ) ;
#786 = AXIS2_PLACEMENT_3D ( 'NONE', #454, #1111, #1030 ) ;
#787 = CARTESIAN_POINT ( 'NONE',  ( 6.500000000000000888, 5.000000000000000000, 0.0000000000000000000 ) ) ;
#788 = ADVANCED_FACE ( 'NONE', ( #865 ), #144, .F. ) ;
#789 = CARTESIAN_POINT ( 'NONE',  ( 3.551475717527323832E-16, 0.0000000000000000000, -3.600000000000000977 ) ) ;
#790 = CIRCLE ( 'NONE', #341, 1.400000000000000133 ) ;
#791 = EDGE_CURVE ( 'NONE', #566, #1158, #614, .T. ) ;
#792 = COORDINATED_UNIVERSAL_TIME_OFFSET ( 0, 0, .AHEAD. ) ;
#793 = CIRCLE ( 'NONE', #576, 2.900000000000006573 ) ;
#794 = LOCAL_TIME ( 17, 7, 33.00000000000000000, #474 ) ;
#795 = VECTOR ( 'NONE', #323, 1000.000000000000000 ) ;
#796 = APPROVAL ( #632, 'UNSPECIFIED' ) ;
#797 = CARTESIAN_POINT ( 'NONE',  ( 6.500000000000000888, 3.500000000000010214, -1.400000000000001021 ) ) ;
#798 = ORIENTED_EDGE ( 'NONE', *, *, #450, .F. ) ;
#799 = DIRECTION ( 'NONE',  ( 0.0000000000000000000, 0.0000000000000000000, 1.000000000000000000 ) ) ;
#800 = ORIENTED_EDGE ( 'NONE', *, *, #665, .T. ) ;
#801 = VERTEX_POINT ( 'NONE', #356 ) ;
#802 = CARTESIAN_POINT ( 'NONE',  ( 0.0000000000000000000, 5.000000000000000000, -6.500000000000000888 ) ) ;
#803 = CARTESIAN_POINT ( 'NONE',  ( 0.0000000000000000000, 5.500000000000000000, 6.500000000000000888 ) ) ;
#804 = DIRECTION ( 'NONE',  ( 0.0000000000000000000, 0.0000000000000000000, 1.000000000000000000 ) ) ;
#805 = CARTESIAN_POINT ( 'NONE',  ( -6.500000000000000888, 10.00000000000000000, -1.400000000000000133 ) ) ;
#806 = CONICAL_SURFACE ( 'NONE', #946, 1.400000000000000133, 0.7853981633974501664 ) ;
#807 = AXIS2_PLACEMENT_3D ( 'NONE', #684, #111, #612 ) ;
#808 = ORIENTED_EDGE ( 'NONE', *, *, #235, .F. ) ;
#809 = VERTEX_POINT ( 'NONE', #917 ) ;
#810 = EDGE_LOOP ( 'NONE', ( #277, #537, #536, #508 ) ) ;
#811 = EDGE_LOOP ( 'NONE', ( #675, #203, #404, #109 ) ) ;
#812 =( NAMED_UNIT ( * ) PLANE_ANGLE_UNIT ( ) SI_UNIT ( $, .RADIAN. ) );
#813 = ORIENTED_EDGE ( 'NONE', *, *, #951, .F. ) ;
#814 = DIRECTION ( 'NONE',  ( 0.0000000000000000000, 0.0000000000000000000, 1.000000000000000000 ) ) ;
#815 = EDGE_CURVE ( 'NONE', #1158, #566, #627, .T. ) ;
#816 = DIRECTION ( 'NONE',  ( 1.000000000000000000, 0.0000000000000000000, 0.0000000000000000000 ) ) ;
#817 = AXIS2_PLACEMENT_3D ( 'NONE', #302, #661, #606 ) ;
#818 = VECTOR ( 'NONE', #1037, 1000.000000000000000 ) ;
#819 = FACE_BOUND ( 'NONE', #495, .T. ) ;
#820 = EDGE_CURVE ( 'NONE', #1057, #784, #362, .T. ) ;
#821 = SHAPE_DEFINITION_REPRESENTATION ( #940, #757 ) ;
#822 = CARTESIAN_POINT ( 'NONE',  ( 0.0000000000000000000, 0.0000000000000000000, -6.500000000000000888 ) ) ;
#823 = LINE ( 'NONE', #1118, #1138 ) ;
#824 = AXIS2_PLACEMENT_3D ( 'NONE', #663, #289, #840 ) ;
#825 = ORIENTED_EDGE ( 'NONE', *, *, #877, .T. ) ;
#826 = DIRECTION ( 'NONE',  ( 0.0000000000000000000, 0.0000000000000000000, 1.000000000000000000 ) ) ;
#827 = EDGE_LOOP ( 'NONE', ( #271, #13, #523, #1077 ) ) ;
#828 = VERTEX_POINT ( 'NONE', #742 ) ;
#829 = AXIS2_PLACEMENT_3D ( 'NONE', #915, #1101, #732 ) ;
#830 = CARTESIAN_POINT ( 'NONE',  ( 0.0000000000000000000, 0.0000000000000000000, 3.599999999999990319 ) ) ;
#831 = ADVANCED_FACE ( 'NONE', ( #591 ), #777, .F. ) ;
#832 = CYLINDRICAL_SURFACE ( 'NONE', #9, 3.000000000000000000 ) ;
#833 = APPROVAL_PERSON_ORGANIZATION ( #532, #796, #1187 ) ;
#834 = DIRECTION ( 'NONE',  ( 8.659560562354948882E-17, -0.7071067811865463515, 0.7071067811865487940 ) ) ;
#835 = EDGE_CURVE ( 'NONE', #949, #552, #441, .T. ) ;
#836 = ORIENTED_EDGE ( 'NONE', *, *, #450, .T. ) ;
#837 = CARTESIAN_POINT ( 'NONE',  ( 0.0000000000000000000, 5.000000000000000000, 0.0000000000000000000 ) ) ;
#838 = ORIENTED_EDGE ( 'NONE', *, *, #246, .F. ) ;
#839 = ORIENTED_EDGE ( 'NONE', *, *, #512, .F. ) ;
#840 = DIRECTION ( 'NONE',  ( 0.0000000000000000000, 0.0000000000000000000, -1.000000000000000000 ) ) ;
#841 = EDGE_LOOP ( 'NONE', ( #107, #88 ) ) ;
#842 = DIRECTION ( 'NONE',  ( 0.0000000000000000000, 0.0000000000000000000, -1.000000000000000000 ) ) ;
#843 = CARTESIAN_POINT ( 'NONE',  ( 4.286263797015736595E-16, 5.500000000000000000, 3.000000000000000444 ) ) ;
#844 = AXIS2_PLACEMENT_3D ( 'NONE', #1031, #746, #363 ) ;
#845 = CARTESIAN_POINT ( 'NONE',  ( 0.0000000000000000000, 1.500000000000004885, -6.500000000000000888 ) ) ;
#846 = FACE_OUTER_BOUND ( 'NONE', #1154, .T. ) ;
#847 = CARTESIAN_POINT ( 'NONE',  ( -6.500000000000000888, 10.00000000000000000, 0.0000000000000000000 ) ) ;
#848 = CIRCLE ( 'NONE', #1012, 1.400000000000000133 ) ;
#849 = FACE_OUTER_BOUND ( 'NONE', #737, .T. ) ;
#850 = VERTEX_POINT ( 'NONE', #544 ) ;
#851 = DIRECTION ( 'NONE',  ( 0.0000000000000000000, 0.0000000000000000000, -1.000000000000000000 ) ) ;
#852 = ORIENTED_EDGE ( 'NONE', *, *, #951, .T. ) ;
#853 = AXIS2_PLACEMENT_3D ( 'NONE', #899, #213, #987 ) ;
#854 = DIRECTION ( 'NONE',  ( 0.0000000000000000000, 0.0000000000000000000, 1.000000000000000000 ) ) ;
#855 = ORIENTED_EDGE ( 'NONE', *, *, #311, .F. ) ;
#856 = AXIS2_PLACEMENT_3D ( 'NONE', #318, #1181, #215 ) ;
#857 = ORIENTED_EDGE ( 'NONE', *, *, #21, .T. ) ;
#858 = DIRECTION ( 'NONE',  ( 1.000000000000000000, -0.0000000000000000000, 1.224646799147353207E-16 ) ) ;
#859 = DIRECTION ( 'NONE',  ( 0.0000000000000000000, 1.000000000000000000, 0.0000000000000000000 ) ) ;
#860 = CARTESIAN_POINT ( 'NONE',  ( 0.0000000000000000000, 0.0000000000000000000, -6.500000000000000888 ) ) ;
#861 = EDGE_CURVE ( 'NONE', #801, #94, #1064, .T. ) ;
#862 = DIRECTION ( 'NONE',  ( -0.0000000000000000000, -1.000000000000000000, -0.0000000000000000000 ) ) ;
#863 = ADVANCED_FACE ( 'NONE', ( #42 ), #716, .F. ) ;
#864 = CARTESIAN_POINT ( 'NONE',  ( 3.612708057484692590E-16, 3.000000000000000000, -2.950000000000000622 ) ) ;
#865 = FACE_OUTER_BOUND ( 'NONE', #1139, .T. ) ;
#866 = CIRCLE ( 'NONE', #390, 1.399999999999999911 ) ;
#867 = EDGE_LOOP ( 'NONE', ( #838, #293, #181, #509 ) ) ;
#868 = CARTESIAN_POINT ( 'NONE',  ( 6.500000000000000888, 1.499999999999999556, 0.0000000000000000000 ) ) ;
#869 = ORIENTED_EDGE ( 'NONE', *, *, #512, .T. ) ;
#870 = AXIS2_PLACEMENT_3D ( 'NONE', #1169, #1172, #513 ) ;
#871 = DIRECTION ( 'NONE',  ( 0.0000000000000000000, 1.000000000000000000, 0.0000000000000000000 ) ) ;
#872 = VERTEX_POINT ( 'NONE', #269 ) ;
#873 = ADVANCED_FACE ( 'NONE', ( #234 ), #905, .T. ) ;
#874 = ORIENTED_EDGE ( 'NONE', *, *, #332, .F. ) ;
#875 = CARTESIAN_POINT ( 'NONE',  ( 1.714505518806294391E-16, 1.300000000000006928, 1.399999999999999911 ) ) ;
#876 = CARTESIAN_POINT ( 'NONE',  ( 6.500000000000000888, 1.499999999999999556, 0.0000000000000000000 ) ) ;
#877 = EDGE_CURVE ( 'NONE', #1027, #662, #267, .T. ) ;
#878 = DIRECTION ( 'NONE',  ( 8.659560562354919300E-17, -0.7071067811865487940, 0.7071067811865463515 ) ) ;
#879 = COORDINATED_UNIVERSAL_TIME_OFFSET ( 0, 0, .AHEAD. ) ;
#880 = AXIS2_PLACEMENT_3D ( 'NONE', #664, #407, #854 ) ;
#881 = VECTOR ( 'NONE', #471, 999.9999999999998863 ) ;
#882 = CIRCLE ( 'NONE', #1054, 1.400000000000000133 ) ;
#883 = DIRECTION ( 'NONE',  ( 0.0000000000000000000, 1.000000000000000000, 0.0000000000000000000 ) ) ;
#884 = FACE_OUTER_BOUND ( 'NONE', #1003, .T. ) ;
#885 = DIRECTION ( 'NONE',  ( 0.0000000000000000000, 0.0000000000000000000, 1.000000000000000000 ) ) ;
#886 = EDGE_CURVE ( 'NONE', #872, #90, #174, .T. ) ;
#887 = EDGE_LOOP ( 'NONE', ( #261, #753, #193, #1180 ) ) ;
#888 = CARTESIAN_POINT ( 'NONE',  ( 0.0000000000000000000, 9.870000000000000995, 6.500000000000000888 ) ) ;
#889 = ORIENTED_EDGE ( 'NONE', *, *, #290, .F. ) ;
#890 = AXIS2_PLACEMENT_3D ( 'NONE', #1223, #858, #479 ) ;
#891 = CARTESIAN_POINT ( 'NONE',  ( 3.551475717527323832E-16, 0.0000000000000000000, -3.600000000000000977 ) ) ;
#892 = EDGE_CURVE ( 'NONE', #90, #1141, #745, .T. ) ;
#893 = FACE_OUTER_BOUND ( 'NONE', #621, .T. ) ;
#894 = PERSON_AND_ORGANIZATION ( #1217, #719 ) ;
#895 = ORIENTED_EDGE ( 'NONE', *, *, #730, .T. ) ;
#896 = ORIENTED_EDGE ( 'NONE', *, *, #639, .T. ) ;
#897 = ORIENTED_EDGE ( 'NONE', *, *, #943, .T. ) ;
#898 = ORIENTED_EDGE ( 'NONE', *, *, #1179, .T. ) ;
#899 = CARTESIAN_POINT ( 'NONE',  ( 0.0000000000000000000, 0.0000000000000000000, 0.0000000000000000000 ) ) ;
#900 = ORIENTED_EDGE ( 'NONE', *, *, #584, .T. ) ;
#901 = EDGE_CURVE ( 'NONE', #190, #595, #84, .T. ) ;
#902 = CARTESIAN_POINT ( 'NONE',  ( 0.0000000000000000000, 9.870000000000000995, -9.500000000000001776 ) ) ;
#903 = DIRECTION ( 'NONE',  ( 0.0000000000000000000, 0.0000000000000000000, 1.000000000000000000 ) ) ;
#904 = DIRECTION ( 'NONE',  ( -0.0000000000000000000, -1.000000000000000000, -0.0000000000000000000 ) ) ;
#905 = CYLINDRICAL_SURFACE ( 'NONE', #1080, 11.50000000000000000 ) ;
#906 = PERSON_AND_ORGANIZATION ( #1217, #719 ) ;
#907 = AXIS2_PLACEMENT_3D ( 'NONE', #284, #1062, #1157 ) ;
#908 = FACE_BOUND ( 'NONE', #564, .T. ) ;
#909 = LINE ( 'NONE', #412, #1137 ) ;
#910 = FACE_OUTER_BOUND ( 'NONE', #367, .T. ) ;
#911 = PERSON_AND_ORGANIZATION_ROLE ( 'creator' ) ;
#912 = ORIENTED_EDGE ( 'NONE', *, *, #358, .T. ) ;
#913 = CARTESIAN_POINT ( 'NONE',  ( 0.0000000000000000000, 9.870000000000000995, -6.500000000000000888 ) ) ;
#914 = ORIENTED_EDGE ( 'NONE', *, *, #246, .T. ) ;
#915 = CARTESIAN_POINT ( 'NONE',  ( 0.0000000000000000000, 3.000000000000000000, 0.0000000000000000000 ) ) ;
#916 = EDGE_CURVE ( 'NONE', #491, #944, #1162, .T. ) ;
#917 = CARTESIAN_POINT ( 'NONE',  ( 0.0000000000000000000, 5.000000000000000000, 2.950000000000000622 ) ) ;
#918 = CC_DESIGN_PERSON_AND_ORGANIZATION_ASSIGNMENT ( #317, #997, ( #754 ) ) ;
#919 = DESIGN_CONTEXT ( 'detailed design', #728, 'design' ) ;
#920 = CARTESIAN_POINT ( 'NONE',  ( 0.0000000000000000000, 9.870000000000000995, -6.500000000000000888 ) ) ;
#921 = ADVANCED_FACE ( 'NONE', ( #379 ), #999, .F. ) ;
#922 = CARTESIAN_POINT ( 'NONE',  ( 0.0000000000000000000, 0.0000000000000000000, 0.0000000000000000000 ) ) ;
#923 = CYLINDRICAL_SURFACE ( 'NONE', #180, 11.50000000000000000 ) ;
#924 = EDGE_CURVE ( 'NONE', #989, #828, #113, .T. ) ;
#925 = LINE ( 'NONE', #330, #1150 ) ;
#926 = DIRECTION ( 'NONE',  ( 0.0000000000000000000, 1.000000000000000000, 0.0000000000000000000 ) ) ;
#927 = CIRCLE ( 'NONE', #1134, 2.900000000000010125 ) ;
#928 = VERTEX_POINT ( 'NONE', #278 ) ;
#929 = EDGE_LOOP ( 'NONE', ( #120, #1053, #1206, #963 ) ) ;
#930 = CARTESIAN_POINT ( 'NONE',  ( -6.500000000000000888, 3.500000000000009326, 1.400000000000000133 ) ) ;
#931 = EDGE_LOOP ( 'NONE', ( #104, #402 ) ) ;
#932 = ORIENTED_EDGE ( 'NONE', *, *, #1214, .F. ) ;
#933 = CARTESIAN_POINT ( 'NONE',  ( 0.0000000000000000000, 0.0000000000000000000, 0.0000000000000000000 ) ) ;
#934 = CARTESIAN_POINT ( 'NONE',  ( 6.500000000000000888, 1.499999999999999556, 0.0000000000000000000 ) ) ;
#935 = AXIS2_PLACEMENT_3D ( 'NONE', #933, #368, #1026 ) ;
#936 = DIRECTION ( 'NONE',  ( 0.0000000000000000000, 1.000000000000000000, 0.0000000000000000000 ) ) ;
#937 = AXIS2_PLACEMENT_3D ( 'NONE', #888, #1096, #337 ) ;
#938 = DIRECTION ( 'NONE',  ( 0.0000000000000000000, 0.0000000000000000000, 1.000000000000000000 ) ) ;
#939 = CIRCLE ( 'NONE', #53, 2.900000000000010125 ) ;
#940 = PRODUCT_DEFINITION_SHAPE ( 'NONE', 'NONE',  #328 ) ;
#941 = CARTESIAN_POINT ( 'NONE',  ( 0.0000000000000000000, 5.000000000000000000, 6.500000000000000888 ) ) ;
#942 = CIRCLE ( 'NONE', #39, 1.400000000000001021 ) ;
#943 = EDGE_CURVE ( 'NONE', #406, #294, #1074, .T. ) ;
#944 = VERTEX_POINT ( 'NONE', #761 ) ;
#945 = CARTESIAN_POINT ( 'NONE',  ( -6.500000000000000888, 1.500000000000001332, -1.400000000000000133 ) ) ;
#946 = AXIS2_PLACEMENT_3D ( 'NONE', #518, #110, #31 ) ;
#947 = ORIENTED_EDGE ( 'NONE', *, *, #943, .F. ) ;
#948 = DIRECTION ( 'NONE',  ( 0.0000000000000000000, 0.0000000000000000000, 1.000000000000000000 ) ) ;
#949 = VERTEX_POINT ( 'NONE', #561 ) ;
#950 = DIRECTION ( 'NONE',  ( 0.0000000000000000000, 0.0000000000000000000, 1.000000000000000000 ) ) ;
#951 = EDGE_CURVE ( 'NONE', #351, #1023, #469, .T. ) ;
#952 = AXIS2_PLACEMENT_3D ( 'NONE', #787, #423, #1081 ) ;
#953 = ADVANCED_FACE ( 'NONE', ( #1220 ), #148, .F. ) ;
#954 = DIRECTION ( 'NONE',  ( -0.0000000000000000000, -1.000000000000000000, -0.0000000000000000000 ) ) ;
#955 = DIRECTION ( 'NONE',  ( -0.0000000000000000000, -1.000000000000000000, -0.0000000000000000000 ) ) ;
#956 = CYLINDRICAL_SURFACE ( 'NONE', #514, 1.399999999999999911 ) ;
#957 = CONICAL_SURFACE ( 'NONE', #744, 1.400000000000001021, 0.7853981633974502774 ) ;
#958 = CONICAL_SURFACE ( 'NONE', #1230, 2.899999999999999911, 0.7853981633974466137 ) ;
#959 = CARTESIAN_POINT ( 'NONE',  ( 0.0000000000000000000, 9.870000000000000995, -9.500000000000001776 ) ) ;
#960 = ORIENTED_EDGE ( 'NONE', *, *, #417, .F. ) ;
#961 = AXIS2_PLACEMENT_3D ( 'NONE', #1093, #530, #1186 ) ;
#962 = CARTESIAN_POINT ( 'NONE',  ( -6.500000000000000888, 3.500000000000009326, 0.0000000000000000000 ) ) ;
#963 = ORIENTED_EDGE ( 'NONE', *, *, #618, .F. ) ;
#964 = ADVANCED_FACE ( 'NONE', ( #457 ), #486, .F. ) ;
#965 = ORIENTED_EDGE ( 'NONE', *, *, #192, .T. ) ;
#966 = VERTEX_POINT ( 'NONE', #405 ) ;
#967 = EDGE_LOOP ( 'NONE', ( #226, #825 ) ) ;
#968 = ADVANCED_FACE ( 'NONE', ( #27 ), #217, .F. ) ;
#969 = CARTESIAN_POINT ( 'NONE',  ( 0.0000000000000000000, 9.870000000000000995, 6.500000000000000888 ) ) ;
#970 = EDGE_CURVE ( 'NONE', #1036, #1168, #349, .T. ) ;
#971 = DIRECTION ( 'NONE',  ( 0.0000000000000000000, 1.000000000000000000, 0.0000000000000000000 ) ) ;
#972 = CIRCLE ( 'NONE', #1067, 2.900000000000006573 ) ;
#973 = PERSON_AND_ORGANIZATION ( #1217, #719 ) ;
#974 = FACE_BOUND ( 'NONE', #1221, .T. ) ;
#975 = VERTEX_POINT ( 'NONE', #1048 ) ;
#976 = AXIS2_PLACEMENT_3D ( 'NONE', #934, #759, #483 ) ;
#977 = CARTESIAN_POINT ( 'NONE',  ( 0.0000000000000000000, 5.000000000000000000, 0.0000000000000000000 ) ) ;
#978 = ORIENTED_EDGE ( 'NONE', *, *, #901, .T. ) ;
#979 = CARTESIAN_POINT ( 'NONE',  ( 0.0000000000000000000, 0.0000000000000000000, -2.700000000000001066 ) ) ;
#980 = DIRECTION ( 'NONE',  ( -0.0000000000000000000, -1.000000000000000000, -0.0000000000000000000 ) ) ;
#981 = EDGE_CURVE ( 'NONE', #662, #190, #763, .T. ) ;
#982 = CARTESIAN_POINT ( 'NONE',  ( -6.500000000000000888, 3.500000000000009326, -1.400000000000000133 ) ) ;
#983 = FACE_OUTER_BOUND ( 'NONE', #258, .T. ) ;
#984 = CIRCLE ( 'NONE', #126, 1.400000000000000133 ) ;
#985 = CIRCLE ( 'NONE', #183, 2.899999999999999911 ) ;
#986 = ORIENTED_EDGE ( 'NONE', *, *, #702, .F. ) ;
#987 = DIRECTION ( 'NONE',  ( 0.0000000000000000000, 0.0000000000000000000, -1.000000000000000000 ) ) ;
#988 = EDGE_CURVE ( 'NONE', #90, #1168, #187, .T. ) ;
#989 = VERTEX_POINT ( 'NONE', #202 ) ;
#990 = DIRECTION ( 'NONE',  ( 0.0000000000000000000, 1.000000000000000000, 0.0000000000000000000 ) ) ;
#991 = EDGE_LOOP ( 'NONE', ( #354, #808 ) ) ;
#992 = CARTESIAN_POINT ( 'NONE',  ( 0.0000000000000000000, 9.870000000000000995, 6.500000000000000888 ) ) ;
#993 = VERTEX_POINT ( 'NONE', #1159 ) ;
#994 = DIRECTION ( 'NONE',  ( 0.0000000000000000000, 0.0000000000000000000, -1.000000000000000000 ) ) ;
#995 = CARTESIAN_POINT ( 'NONE',  ( -6.500000000000000888, 1.500000000000001332, 0.0000000000000000000 ) ) ;
#996 = DIRECTION ( 'NONE',  ( 0.0000000000000000000, 0.0000000000000000000, 1.000000000000000000 ) ) ;
#997 = PERSON_AND_ORGANIZATION_ROLE ( 'design_owner' ) ;
#998 = AXIS2_PLACEMENT_3D ( 'NONE', #803, #541, #625 ) ;
#999 = CONICAL_SURFACE ( 'NONE', #272, 2.700000000000001066, 0.7853981633974460586 ) ;
#1000 = CIRCLE ( 'NONE', #907, 3.500000000000000000 ) ;
#1001 = AXIS2_PLACEMENT_3D ( 'NONE', #124, #883, #605 ) ;
#1002 = CARTESIAN_POINT ( 'NONE',  ( -6.500000000000000888, 3.500000000000009326, 0.0000000000000000000 ) ) ;
#1003 = EDGE_LOOP ( 'NONE', ( #18, #156, #478, #421 ) ) ;
#1004 = APPROVAL_ROLE ( '' ) ;
#1005 = DIRECTION ( 'NONE',  ( 0.0000000000000000000, 0.0000000000000000000, 1.000000000000000000 ) ) ;
#1006 = EDGE_LOOP ( 'NONE', ( #1211, #538, #1225, #50 ) ) ;
#1007 = EDGE_LOOP ( 'NONE', ( #1066, #118, #520, #327 ) ) ;
#1008 = EDGE_CURVE ( 'NONE', #462, #850, #415, .T. ) ;
#1009 = SECURITY_CLASSIFICATION_LEVEL ( 'unclassified' ) ;
#1010 = ORIENTED_EDGE ( 'NONE', *, *, #235, .T. ) ;
#1011 = DIRECTION ( 'NONE',  ( 0.0000000000000000000, 0.0000000000000000000, -1.000000000000000000 ) ) ;
#1012 = AXIS2_PLACEMENT_3D ( 'NONE', #1076, #698, #799 ) ;
#1013 = CARTESIAN_POINT ( 'NONE',  ( 0.0000000000000000000, 9.870000000000000995, -6.500000000000000888 ) ) ;
#1014 = DIRECTION ( 'NONE',  ( 0.0000000000000000000, -1.000000000000000000, 0.0000000000000000000 ) ) ;
#1015 = EDGE_CURVE ( 'NONE', #373, #689, #1106, .T. ) ;
#1016 = DIRECTION ( 'NONE',  ( 8.659560562354957510E-17, 0.7071067811865454633, -0.7071067811865495711 ) ) ;
#1017 = FACE_OUTER_BOUND ( 'NONE', #1237, .T. ) ;
#1018 = AXIS2_PLACEMENT_3D ( 'NONE', #941, #182, #572 ) ;
#1019 = FACE_OUTER_BOUND ( 'NONE', #386, .T. ) ;
#1020 = CIRCLE ( 'NONE', #507, 2.900000000000006573 ) ;
#1021 = ADVANCED_FACE ( 'NONE', ( #176 ), #287, .F. ) ;
#1022 = ORIENTED_EDGE ( 'NONE', *, *, #92, .F. ) ;
#1023 = VERTEX_POINT ( 'NONE', #671 ) ;
#1024 = CARTESIAN_POINT ( 'NONE',  ( 0.0000000000000000000, 9.870000000000000995, 6.500000000000000888 ) ) ;
#1025 = ORIENTED_EDGE ( 'NONE', *, *, #886, .F. ) ;
#1026 = DIRECTION ( 'NONE',  ( 0.0000000000000000000, 0.0000000000000000000, 1.000000000000000000 ) ) ;
#1027 = VERTEX_POINT ( 'NONE', #590 ) ;
#1028 = DIRECTION ( 'NONE',  ( 0.0000000000000000000, 0.0000000000000000000, -1.000000000000000000 ) ) ;
#1029 = AXIS2_PLACEMENT_3D ( 'NONE', #843, #477, #384 ) ;
#1030 = DIRECTION ( 'NONE',  ( 0.0000000000000000000, 0.0000000000000000000, 1.000000000000000000 ) ) ;
#1031 = CARTESIAN_POINT ( 'NONE',  ( 0.0000000000000000000, 5.500000000000000000, 6.500000000000000888 ) ) ;
#1032 = CIRCLE ( 'NONE', #569, 11.50000000000000000 ) ;
#1033 = EDGE_CURVE ( 'NONE', #645, #1057, #909, .T. ) ;
#1034 = CARTESIAN_POINT ( 'NONE',  ( 1.408343819019456176E-15, 0.0000000000000000000, 11.50000000000000000 ) ) ;
#1035 = CIRCLE ( 'NONE', #30, 2.899999999999999911 ) ;
#1036 = VERTEX_POINT ( 'NONE', #393 ) ;
#1037 = DIRECTION ( 'NONE',  ( -0.0000000000000000000, -1.000000000000000000, -0.0000000000000000000 ) ) ;
#1038 = ORIENTED_EDGE ( 'NONE', *, *, #560, .T. ) ;
#1039 = ORIENTED_EDGE ( 'NONE', *, *, #1198, .T. ) ;
#1040 = VERTEX_POINT ( 'NONE', #1146 ) ;
#1041 = CARTESIAN_POINT ( 'NONE',  ( -6.500000000000000888, 10.00000000000000000, 0.0000000000000000000 ) ) ;
#1042 = DIRECTION ( 'NONE',  ( 0.0000000000000000000, -0.7071067811865463515, -0.7071067811865487940 ) ) ;
#1043 = AXIS2_PLACEMENT_3D ( 'NONE', #610, #425, #1174 ) ;
#1044 = DIRECTION ( 'NONE',  ( 0.0000000000000000000, 0.0000000000000000000, -1.000000000000000000 ) ) ;
#1045 = DIRECTION ( 'NONE',  ( 0.0000000000000000000, 1.000000000000000000, 0.0000000000000000000 ) ) ;
#1046 = VECTOR ( 'NONE', #615, 1000.000000000000000 ) ;
#1047 = APPROVAL_DATE_TIME ( #656, #1069 ) ;
#1048 = CARTESIAN_POINT ( 'NONE',  ( -6.500000000000000888, 1.500000000000001332, -1.400000000000000133 ) ) ;
#1049 = LINE ( 'NONE', #70, #516 ) ;
#1050 = FACE_OUTER_BOUND ( 'NONE', #306, .T. ) ;
#1051 = EDGE_CURVE ( 'NONE', #1112, #1141, #1020, .T. ) ;
#1052 = VECTOR ( 'NONE', #329, 1000.000000000000000 ) ;
#1053 = ORIENTED_EDGE ( 'NONE', *, *, #751, .T. ) ;
#1054 = AXIS2_PLACEMENT_3D ( 'NONE', #601, #207, #211 ) ;
#1055 = ORIENTED_EDGE ( 'NONE', *, *, #1195, .F. ) ;
#1056 = CARTESIAN_POINT ( 'NONE',  ( 0.0000000000000000000, 5.000000000000000000, 0.0000000000000000000 ) ) ;
#1057 = VERTEX_POINT ( 'NONE', #1155 ) ;
#1058 = CARTESIAN_POINT ( 'NONE',  ( -6.500000000000000888, 10.00000000000000000, 1.400000000000000133 ) ) ;
#1059 = EDGE_LOOP ( 'NONE', ( #710, #1038 ) ) ;
#1060 = DIRECTION ( 'NONE',  ( -0.0000000000000000000, -1.000000000000000000, -0.0000000000000000000 ) ) ;
#1061 = EDGE_CURVE ( 'NONE', #190, #32, #87, .T. ) ;
#1062 = DIRECTION ( 'NONE',  ( -0.0000000000000000000, -1.000000000000000000, -0.0000000000000000000 ) ) ;
#1063 = ADVANCED_FACE ( 'NONE', ( #1050 ), #957, .F. ) ;
#1064 = CIRCLE ( 'NONE', #385, 1.400000000000000133 ) ;
#1065 = LOCAL_TIME ( 17, 7, 33.00000000000000000, #792 ) ;
#1066 = ORIENTED_EDGE ( 'NONE', *, *, #1224, .F. ) ;
#1067 = AXIS2_PLACEMENT_3D ( 'NONE', #729, #163, #635 ) ;
#1068 = CARTESIAN_POINT ( 'NONE',  ( 0.0000000000000000000, 5.000000000000000000, -11.50000000000000000 ) ) ;
#1069 = APPROVAL ( #248, 'UNSPECIFIED' ) ;
#1070 = ORIENTED_EDGE ( 'NONE', *, *, #665, .F. ) ;
#1071 = EDGE_CURVE ( 'NONE', #801, #707, #1232, .T. ) ;
#1072 = DIRECTION ( 'NONE',  ( 0.0000000000000000000, 0.0000000000000000000, -1.000000000000000000 ) ) ;
#1073 = ADVANCED_FACE ( 'NONE', ( #849 ), #748, .T. ) ;
#1074 = LINE ( 'NONE', #281, #818 ) ;
#1075 = LINE ( 'NONE', #891, #733 ) ;
#1076 = CARTESIAN_POINT ( 'NONE',  ( -6.500000000000000888, 1.500000000000001332, 0.0000000000000000000 ) ) ;
#1077 = ORIENTED_EDGE ( 'NONE', *, *, #214, .F. ) ;
#1078 = EDGE_CURVE ( 'NONE', #32, #190, #254, .T. ) ;
#1079 = DIRECTION ( 'NONE',  ( 0.0000000000000000000, 0.0000000000000000000, 1.000000000000000000 ) ) ;
#1080 = AXIS2_PLACEMENT_3D ( 'NONE', #1056, #565, #658 ) ;
#1081 = DIRECTION ( 'NONE',  ( 0.0000000000000000000, 0.0000000000000000000, 1.000000000000000000 ) ) ;
#1082 = EDGE_LOOP ( 'NONE', ( #1226, #769 ) ) ;
#1083 = CARTESIAN_POINT ( 'NONE',  ( -6.500000000000000888, 1.500000000000001332, 0.0000000000000000000 ) ) ;
#1084 = ORIENTED_EDGE ( 'NONE', *, *, #347, .T. ) ;
#1085 = DIRECTION ( 'NONE',  ( -0.0000000000000000000, -1.000000000000000000, -0.0000000000000000000 ) ) ;
#1086 = AXIS2_PLACEMENT_3D ( 'NONE', #1135, #1045, #266 ) ;
#1087 = PRODUCT_DEFINITION_FORMATION_WITH_SPECIFIED_SOURCE ( 'ANY', '', #754, .NOT_KNOWN. ) ;
#1088 = DIRECTION ( 'NONE',  ( 0.0000000000000000000, 0.0000000000000000000, -1.000000000000000000 ) ) ;
#1089 = CIRCLE ( 'NONE', #376, 11.50000000000000000 ) ;
#1090 = LOCAL_TIME ( 17, 7, 33.00000000000000000, #131 ) ;
#1091 = CYLINDRICAL_SURFACE ( 'NONE', #770, 3.000000000000000888 ) ;
#1092 = VERTEX_POINT ( 'NONE', #875 ) ;
#1093 = CARTESIAN_POINT ( 'NONE',  ( 0.0000000000000000000, 5.000000000000000000, 0.0000000000000000000 ) ) ;
#1094 = EDGE_CURVE ( 'NONE', #123, #373, #382, .T. ) ;
#1095 = ORIENTED_EDGE ( 'NONE', *, *, #861, .T. ) ;
#1096 = DIRECTION ( 'NONE',  ( -0.0000000000000000000, -1.000000000000000000, -0.0000000000000000000 ) ) ;
#1097 = VERTEX_POINT ( 'NONE', #16 ) ;
#1098 = CARTESIAN_POINT ( 'NONE',  ( -6.500000000000000888, 3.500000000000009326, 0.0000000000000000000 ) ) ;
#1099 = CARTESIAN_POINT ( 'NONE',  ( 6.500000000000000888, 5.000000000000000000, 0.0000000000000000000 ) ) ;
#1100 = CARTESIAN_POINT ( 'NONE',  ( 0.0000000000000000000, 0.0000000000000000000, 0.0000000000000000000 ) ) ;
#1101 = DIRECTION ( 'NONE',  ( -0.0000000000000000000, 1.000000000000000000, -0.0000000000000000000 ) ) ;
#1102 = AXIS2_PLACEMENT_3D ( 'NONE', #1104, #1178, #1011 ) ;
#1103 = FACE_OUTER_BOUND ( 'NONE', #168, .T. ) ;
#1104 = CARTESIAN_POINT ( 'NONE',  ( 0.0000000000000000000, 0.0000000000000000000, 0.0000000000000000000 ) ) ;
#1105 = CIRCLE ( 'NONE', #760, 1.400000000000000133 ) ;
#1106 = LINE ( 'NONE', #864, #116 ) ;
#1107 = DIRECTION ( 'NONE',  ( 0.0000000000000000000, 0.0000000000000000000, -1.000000000000000000 ) ) ;
#1108 = ORIENTED_EDGE ( 'NONE', *, *, #466, .T. ) ;
#1109 = DIRECTION ( 'NONE',  ( 0.0000000000000000000, 0.0000000000000000000, 1.000000000000000000 ) ) ;
#1110 = ORIENTED_EDGE ( 'NONE', *, *, #1195, .T. ) ;
#1111 = DIRECTION ( 'NONE',  ( -0.0000000000000000000, -1.000000000000000000, -0.0000000000000000000 ) ) ;
#1112 = VERTEX_POINT ( 'NONE', #1161 ) ;
#1113 = DIRECTION ( 'NONE',  ( 0.0000000000000000000, 1.000000000000000000, 0.0000000000000000000 ) ) ;
#1114 = ORIENTED_EDGE ( 'NONE', *, *, #815, .F. ) ;
#1115 = EDGE_CURVE ( 'NONE', #662, #1027, #445, .T. ) ;
#1116 = CARTESIAN_POINT ( 'NONE',  ( 1.714505518806294391E-16, 9.870000000000000995, -5.100000000000000533 ) ) ;
#1117 =( GEOMETRIC_REPRESENTATION_CONTEXT ( 3 ) GLOBAL_UNCERTAINTY_ASSIGNED_CONTEXT ( ( #559 ) ) GLOBAL_UNIT_ASSIGNED_CONTEXT ( ( #151, #812, #713 ) ) REPRESENTATION_CONTEXT ( 'NONE', 'WORKASPACE' ) );
#1118 = CARTESIAN_POINT ( 'NONE',  ( 6.500000000000000888, 1.499999999999999556, -1.400000000000001021 ) ) ;
#1119 = EDGE_CURVE ( 'NONE', #645, #351, #984, .T. ) ;
#1120 = CARTESIAN_POINT ( 'NONE',  ( -6.500000000000000888, 0.0000000000000000000, 0.0000000000000000000 ) ) ;
#1121 = FACE_OUTER_BOUND ( 'NONE', #205, .T. ) ;
#1122 = CARTESIAN_POINT ( 'NONE',  ( -6.500000000000000888, 1.500000000000001332, 0.0000000000000000000 ) ) ;
#1123 = CIRCLE ( 'NONE', #522, 2.900000000000006573 ) ;
#1124 = ORIENTED_EDGE ( 'NONE', *, *, #835, .T. ) ;
#1125 = CARTESIAN_POINT ( 'NONE',  ( 6.500000000000000888, 1.499999999999999556, 1.400000000000001021 ) ) ;
#1126 = ORIENTED_EDGE ( 'NONE', *, *, #100, .F. ) ;
#1127 = CARTESIAN_POINT ( 'NONE',  ( 0.0000000000000000000, 9.870000000000000995, 5.100000000000000533 ) ) ;
#1128 = VERTEX_POINT ( 'NONE', #789 ) ;
#1129 = AXIS2_PLACEMENT_3D ( 'NONE', #196, #859, #2 ) ;
#1130 = CARTESIAN_POINT ( 'NONE',  ( 0.0000000000000000000, 8.000000000000000000, 5.100000000000000533 ) ) ;
#1131 = SECURITY_CLASSIFICATION ( '', '', #1009 ) ;
#1132 = DIRECTION ( 'NONE',  ( 0.0000000000000000000, 0.0000000000000000000, 1.000000000000000000 ) ) ;
#1133 = VECTOR ( 'NONE', #834, 1000.000000000000000 ) ;
#1134 = AXIS2_PLACEMENT_3D ( 'NONE', #122, #339, #711 ) ;
#1135 = CARTESIAN_POINT ( 'NONE',  ( 0.0000000000000000000, 9.870000000000000995, -6.500000000000000888 ) ) ;
#1136 = CIRCLE ( 'NONE', #1129, 1.400000000000001021 ) ;
#1137 = VECTOR ( 'NONE', #768, 1000.000000000000000 ) ;
#1138 = VECTOR ( 'NONE', #251, 1000.000000000000000 ) ;
#1139 = EDGE_LOOP ( 'NONE', ( #839, #582, #155, #1193 ) ) ;
#1140 = ORIENTED_EDGE ( 'NONE', *, *, #358, .F. ) ;
#1141 = VERTEX_POINT ( 'NONE', #521 ) ;
#1142 = CARTESIAN_POINT ( 'NONE',  ( 0.0000000000000000000, 9.870000000000000995, -6.500000000000000888 ) ) ;
#1143 = EDGE_CURVE ( 'NONE', #351, #645, #1177, .T. ) ;
#1144 = DIRECTION ( 'NONE',  ( -1.000000000000000000, 0.0000000000000000000, 0.0000000000000000000 ) ) ;
#1145 = AXIS2_PLACEMENT_3D ( 'NONE', #837, #179, #643 ) ;
#1146 = CARTESIAN_POINT ( 'NONE',  ( 6.500000000000000888, 5.000000000000000000, -2.899999999999999911 ) ) ;
#1147 = DIRECTION ( 'NONE',  ( -0.0000000000000000000, -1.000000000000000000, -0.0000000000000000000 ) ) ;
#1148 = DIRECTION ( 'NONE',  ( 0.0000000000000000000, 1.000000000000000000, 0.0000000000000000000 ) ) ;
#1149 = VECTOR ( 'NONE', #1197, 1000.000000000000000 ) ;
#1150 = VECTOR ( 'NONE', #526, 1000.000000000000000 ) ;
#1151 = AXIS2_PLACEMENT_3D ( 'NONE', #360, #904, #343 ) ;
#1152 = FACE_BOUND ( 'NONE', #447, .T. ) ;
#1153 = CARTESIAN_POINT ( 'NONE',  ( 0.0000000000000000000, 5.500000000000000000, 3.500000000000000444 ) ) ;
#1154 = EDGE_LOOP ( 'NONE', ( #874, #783, #291, #467 ) ) ;
#1155 = CARTESIAN_POINT ( 'NONE',  ( 1.714505518806294145E-16, 1.500000000000004885, 7.900000000000000355 ) ) ;
#1156 = EDGE_LOOP ( 'NONE', ( #165, #692 ) ) ;
#1157 = DIRECTION ( 'NONE',  ( 0.0000000000000000000, 0.0000000000000000000, 1.000000000000000000 ) ) ;
#1158 = VERTEX_POINT ( 'NONE', #979 ) ;
#1159 = CARTESIAN_POINT ( 'NONE',  ( 0.0000000000000000000, 4.999999999999999112, -3.000000000000000444 ) ) ;
#1160 = EDGE_CURVE ( 'NONE', #373, #123, #161, .T. ) ;
#1161 = CARTESIAN_POINT ( 'NONE',  ( 6.500000000000000888, 0.0000000000000000000, -2.900000000000006573 ) ) ;
#1162 = LINE ( 'NONE', #76, #653 ) ;
#1163 = LINE ( 'NONE', #1215, #26 ) ;
#1164 = EDGE_CURVE ( 'NONE', #993, #595, #700, .T. ) ;
#1165 = CALENDAR_DATE ( 2019, 12, 12 ) ;
#1166 = CIRCLE ( 'NONE', #686, 2.899999999999999911 ) ;
#1167 = AXIS2_PLACEMENT_3D ( 'NONE', #209, #598, #1072 ) ;
#1168 = VERTEX_POINT ( 'NONE', #127 ) ;
#1169 = CARTESIAN_POINT ( 'NONE',  ( 0.0000000000000000000, 3.000000000000000000, 0.0000000000000000000 ) ) ;
#1170 = CLOSED_SHELL ( 'NONE', ( #411, #162, #159, #365, #788, #5, #285, #921, #603, #667, #1073, #398, #1021, #587, #206, #831, #189, #494, #484, #71, #408, #96, #498, #195, #677, #863, #105, #873, #640, #98, #774, #968, #683, #953, #964, #64, #1063, #1212, #594, #780, #19 ) ) ;
#1171 = DIRECTION ( 'NONE',  ( 0.0000000000000000000, -0.7071067811865491270, -0.7071067811865459074 ) ) ;
#1172 = DIRECTION ( 'NONE',  ( 0.0000000000000000000, 1.000000000000000000, 0.0000000000000000000 ) ) ;
#1173 = EDGE_CURVE ( 'NONE', #244, #406, #56, .T. ) ;
#1174 = DIRECTION ( 'NONE',  ( 0.0000000000000000000, 0.0000000000000000000, 1.000000000000000000 ) ) ;
#1175 = AXIS2_PLACEMENT_3D ( 'NONE', #35, #24, #1079 ) ;
#1176 = LINE ( 'NONE', #506, #550 ) ;
#1177 = CIRCLE ( 'NONE', #184, 1.400000000000000133 ) ;
#1178 = DIRECTION ( 'NONE',  ( -0.0000000000000000000, -1.000000000000000000, -0.0000000000000000000 ) ) ;
#1179 = EDGE_CURVE ( 'NONE', #949, #801, #925, .T. ) ;
#1180 = ORIENTED_EDGE ( 'NONE', *, *, #1061, .T. ) ;
#1181 = DIRECTION ( 'NONE',  ( 0.0000000000000000000, 1.000000000000000000, 0.0000000000000000000 ) ) ;
#1182 = CARTESIAN_POINT ( 'NONE',  ( 0.0000000000000000000, 5.500000000000000000, -6.500000000000000888 ) ) ;
#1183 = ORIENTED_EDGE ( 'NONE', *, *, #775, .F. ) ;
#1184 = ORIENTED_EDGE ( 'NONE', *, *, #424, .F. ) ;
#1185 = DIRECTION ( 'NONE',  ( 0.0000000000000000000, -1.000000000000000000, 0.0000000000000000000 ) ) ;
#1186 = DIRECTION ( 'NONE',  ( 0.0000000000000000000, -0.0000000000000000000, 1.000000000000000000 ) ) ;
#1187 = APPROVAL_ROLE ( '' ) ;
#1188 = AXIS2_PLACEMENT_3D ( 'NONE', #331, #1185, #814 ) ;
#1189 = CARTESIAN_POINT ( 'NONE',  ( 6.500000000000000888, 1.499999999999999556, 1.400000000000001021 ) ) ;
#1190 = FACE_OUTER_BOUND ( 'NONE', #867, .T. ) ;
#1191 = CIRCLE ( 'NONE', #1227, 0.5000000000000000000 ) ;
#1192 = VECTOR ( 'NONE', #99, 1000.000000000000000 ) ;
#1193 = ORIENTED_EDGE ( 'NONE', *, *, #264, .F. ) ;
#1194 = PLANE ( 'NONE',  #326 ) ;
#1195 = EDGE_CURVE ( 'NONE', #1023, #1057, #882, .T. ) ;
#1196 = ORIENTED_EDGE ( 'NONE', *, *, #573, .F. ) ;
#1197 = DIRECTION ( 'NONE',  ( -0.0000000000000000000, -1.000000000000000000, -0.0000000000000000000 ) ) ;
#1198 = EDGE_CURVE ( 'NONE', #321, #966, #239, .T. ) ;
#1199 = CARTESIAN_POINT ( 'NONE',  ( 0.0000000000000000000, 3.000000000000000000, 0.0000000000000000000 ) ) ;
#1200 = AXIS2_PLACEMENT_3D ( 'NONE', #4, #1147, #394 ) ;
#1201 = CARTESIAN_POINT ( 'NONE',  ( 6.500000000000000888, 5.000000000000000000, 2.899999999999999911 ) ) ;
#1202 = CIRCLE ( 'NONE', #1200, 2.899999999999999911 ) ;
#1203 = VECTOR ( 'NONE', #781, 999.9999999999998863 ) ;
#1204 = CARTESIAN_POINT ( 'NONE',  ( 0.0000000000000000000, 5.500000000000000000, -9.500000000000001776 ) ) ;
#1205 = FACE_BOUND ( 'NONE', #77, .T. ) ;
#1206 = ORIENTED_EDGE ( 'NONE', *, *, #1008, .T. ) ;
#1207 = DIRECTION ( 'NONE',  ( 8.659560562354950115E-17, -0.7071067811865462405, 0.7071067811865489050 ) ) ;
#1208 = DIRECTION ( 'NONE',  ( 0.0000000000000000000, 0.0000000000000000000, 1.000000000000000000 ) ) ;
#1209 = ORIENTED_EDGE ( 'NONE', *, *, #560, .F. ) ;
#1210 = AXIS2_PLACEMENT_3D ( 'NONE', #481, #370, #950 ) ;
#1211 = ORIENTED_EDGE ( 'NONE', *, *, #61, .F. ) ;
#1212 = ADVANCED_FACE ( 'NONE', ( #1017 ), #502, .F. ) ;
#1213 = DIRECTION ( 'NONE',  ( 0.0000000000000000000, 1.000000000000000000, 0.0000000000000000000 ) ) ;
#1214 = EDGE_CURVE ( 'NONE', #491, #622, #669, .T. ) ;
#1215 = CARTESIAN_POINT ( 'NONE',  ( 3.306546357697854719E-16, 0.0000000000000000000, 2.700000000000001066 ) ) ;
#1216 = TOROIDAL_SURFACE ( 'NONE', #998, 3.500000000000000000, 0.5000000000000000000 ) ;
#1217 = PERSON ( 'UNSPECIFIED', 'UNSPECIFIED', 'UNSPECIFIED', ('UNSPECIFIED'), ('UNSPECIFIED'), ('UNSPECIFIED') ) ;
#1218 = DIRECTION ( 'NONE',  ( -0.0000000000000000000, -1.000000000000000000, -0.0000000000000000000 ) ) ;
#1219 = CIRCLE ( 'NONE', #880, 1.400000000000000133 ) ;
#1220 = FACE_OUTER_BOUND ( 'NONE', #275, .T. ) ;
#1221 = EDGE_LOOP ( 'NONE', ( #79, #581 ) ) ;
#1222 = CARTESIAN_POINT ( 'NONE',  ( 0.0000000000000000000, 1.300000000000006928, -1.399999999999999911 ) ) ;
#1223 = CARTESIAN_POINT ( 'NONE',  ( 4.286263797015736595E-16, 5.500000000000000000, -10.00000000000000000 ) ) ;
#1224 = EDGE_CURVE ( 'NONE', #1036, #872, #11, .T. ) ;
#1225 = ORIENTED_EDGE ( 'NONE', *, *, #51, .T. ) ;
#1226 = ORIENTED_EDGE ( 'NONE', *, *, #178, .F. ) ;
#1227 = AXIS2_PLACEMENT_3D ( 'NONE', #89, #1144, #682 ) ;
#1228 = DIRECTION ( 'NONE',  ( -0.0000000000000000000, -1.000000000000000000, -0.0000000000000000000 ) ) ;
#1229 = DIRECTION ( 'NONE',  ( 0.0000000000000000000, 1.000000000000000000, 0.0000000000000000000 ) ) ;
#1230 = AXIS2_PLACEMENT_3D ( 'NONE', #720, #453, #1107 ) ;
#1231 = CONICAL_SURFACE ( 'NONE', #140, 1.400000000000000133, 0.7853981633974511656 ) ;
#1232 = LINE ( 'NONE', #6, #1203 ) ;
#1233 = CIRCLE ( 'NONE', #256, 3.000000000000000888 ) ;
#1234 = AXIS2_PLACEMENT_3D ( 'NONE', #694, #227, #38 ) ;
#1235 = ORIENTED_EDGE ( 'NONE', *, *, #647, .T. ) ;
#1236 = CARTESIAN_POINT ( 'NONE',  ( 0.0000000000000000000, 5.000000000000000000, 0.0000000000000000000 ) ) ;
#1237 = EDGE_LOOP ( 'NONE', ( #169, #556, #727, #705 ) ) ;
#1238 = ORIENTED_EDGE ( 'NONE', *, *, #1160, .F. ) ;
#1239 = DIRECTION ( 'NONE',  ( -0.0000000000000000000, 1.000000000000000000, -0.0000000000000000000 ) ) ;
ENDSEC;
END-ISO-10303-21;
