ISO-10303-21;
HEADER;
FILE_DESCRIPTION (( 'STEP AP203' ),
    '1' );
FILE_NAME ('Micrometer inner2.STEP',
    '2019-12-12T17:08:23',
    ( '' ),
    ( '' ),
    'SwSTEP 2.0',
    'SolidWorks 2018',
    '' );
FILE_SCHEMA (( 'CONFIG_CONTROL_DESIGN' ));
ENDSEC;

DATA;
#1 = EDGE_CURVE ( 'NONE', #159, #112, #326, .T. ) ;
#2 = PERSON_AND_ORGANIZATION ( #270, #314 ) ;
#3 = ORIENTED_EDGE ( 'NONE', *, *, #295, .T. ) ;
#4 = CLOSED_SHELL ( 'NONE', ( #271, #146, #53, #42, #403, #177, #343, #306, #80, #107, #47, #240, #16 ) ) ;
#5 = DIRECTION ( 'NONE',  ( -0.0000000000000000000, -0.0000000000000000000, -1.000000000000000000 ) ) ;
#6 = AXIS2_PLACEMENT_3D ( 'NONE', #142, #171, #106 ) ;
#7 = CARTESIAN_POINT ( 'NONE',  ( 0.0000000000000000000, 0.0000000000000000000, 9.500000000000000000 ) ) ;
#8 = EDGE_CURVE ( 'NONE', #151, #328, #422, .T. ) ;
#9 = PERSON_AND_ORGANIZATION ( #270, #314 ) ;
#10 = DIRECTION ( 'NONE',  ( -1.000000000000000000, 0.0000000000000000000, 0.0000000000000000000 ) ) ;
#11 = ORIENTED_EDGE ( 'NONE', *, *, #295, .F. ) ;
#12 = CARTESIAN_POINT ( 'NONE',  ( 0.0000000000000000000, 0.0000000000000000000, 9.500000000000000000 ) ) ;
#13 = EDGE_CURVE ( 'NONE', #405, #369, #78, .T. ) ;
#14 = DIRECTION ( 'NONE',  ( 1.000000000000000000, 0.0000000000000000000, -0.0000000000000000000 ) ) ;
#15 = DIRECTION ( 'NONE',  ( 0.0000000000000000000, 0.0000000000000000000, -1.000000000000000000 ) ) ;
#16 = ADVANCED_FACE ( 'NONE', ( #155 ), #333, .T. ) ;
#17 = LINE ( 'NONE', #294, #45 ) ;
#18 = DIRECTION ( 'NONE',  ( 1.000000000000000000, 0.0000000000000000000, 0.0000000000000000000 ) ) ;
#19 = ORIENTED_EDGE ( 'NONE', *, *, #327, .T. ) ;
#20 = DIRECTION ( 'NONE',  ( -0.0000000000000000000, -0.0000000000000000000, -1.000000000000000000 ) ) ;
#21 = DIRECTION ( 'NONE',  ( -1.000000000000000000, 0.0000000000000000000, 0.0000000000000000000 ) ) ;
#22 = CIRCLE ( 'NONE', #334, 2.500000000000000000 ) ;
#23 = VERTEX_POINT ( 'NONE', #130 ) ;
#24 = DIRECTION ( 'NONE',  ( -1.224646799147353207E-16, 1.000000000000000000, 0.0000000000000000000 ) ) ;
#25 = AXIS2_PLACEMENT_3D ( 'NONE', #172, #15, #73 ) ;
#26 = FACE_BOUND ( 'NONE', #355, .T. ) ;
#27 = CIRCLE ( 'NONE', #273, 4.950000000000000178 ) ;
#28 = EDGE_CURVE ( 'NONE', #321, #362, #206, .T. ) ;
#29 = VERTEX_POINT ( 'NONE', #158 ) ;
#30 = CARTESIAN_POINT ( 'NONE',  ( 0.0000000000000000000, 0.0000000000000000000, 9.500000000000000000 ) ) ;
#31 = CIRCLE ( 'NONE', #160, 4.950000000000000178 ) ;
#32 = EDGE_LOOP ( 'NONE', ( #284, #258, #351, #182 ) ) ;
#33 = DIRECTION ( 'NONE',  ( -1.000000000000000000, 0.0000000000000000000, 0.0000000000000000000 ) ) ;
#34 = CYLINDRICAL_SURFACE ( 'NONE', #412, 4.950000000000000178 ) ;
#35 = ORIENTED_EDGE ( 'NONE', *, *, #281, .F. ) ;
#36 = EDGE_LOOP ( 'NONE', ( #63, #279 ) ) ;
#37 = CC_DESIGN_SECURITY_CLASSIFICATION ( #244, ( #85 ) ) ;
#38 = DIRECTION ( 'NONE',  ( -0.0000000000000000000, -0.0000000000000000000, -1.000000000000000000 ) ) ;
#39 = PERSON_AND_ORGANIZATION ( #270, #314 ) ;
#40 = VERTEX_POINT ( 'NONE', #353 ) ;
#41 = DIRECTION ( 'NONE',  ( -0.0000000000000000000, -0.0000000000000000000, -1.000000000000000000 ) ) ;
#42 = ADVANCED_FACE ( 'NONE', ( #248 ), #150, .T. ) ;
#43 = APPROVAL ( #344, 'UNSPECIFIED' ) ;
#44 = FACE_OUTER_BOUND ( 'NONE', #32, .T. ) ;
#45 = VECTOR ( 'NONE', #255, 1000.000000000000000 ) ;
#46 = DIRECTION ( 'NONE',  ( 0.0000000000000000000, 0.0000000000000000000, 1.000000000000000000 ) ) ;
#47 = ADVANCED_FACE ( 'NONE', ( #245 ), #236, .F. ) ;
#48 =( NAMED_UNIT ( * ) SI_UNIT ( $, .STERADIAN. ) SOLID_ANGLE_UNIT ( ) );
#49 = CARTESIAN_POINT ( 'NONE',  ( 0.0000000000000000000, 0.0000000000000000000, 0.0000000000000000000 ) ) ;
#50 = AXIS2_PLACEMENT_3D ( 'NONE', #414, #24, #214 ) ;
#51 = EDGE_LOOP ( 'NONE', ( #276, #250 ) ) ;
#52 = DIRECTION ( 'NONE',  ( 0.0000000000000000000, 0.0000000000000000000, 1.000000000000000000 ) ) ;
#53 = ADVANCED_FACE ( 'NONE', ( #134 ), #170, .F. ) ;
#54 = ORIENTED_EDGE ( 'NONE', *, *, #87, .F. ) ;
#55 = LOCAL_TIME ( 17, 8, 23.00000000000000000, #330 ) ;
#56 = FACE_OUTER_BOUND ( 'NONE', #36, .T. ) ;
#57 = FACE_OUTER_BOUND ( 'NONE', #51, .T. ) ;
#58 = PRODUCT_RELATED_PRODUCT_CATEGORY ( 'detail', '', ( #215 ) ) ;
#59 = EDGE_LOOP ( 'NONE', ( #3, #411, #69, #84 ) ) ;
#60 = CARTESIAN_POINT ( 'NONE',  ( 2.500000000000000000, 0.0000000000000000000, 28.40000000000000213 ) ) ;
#61 = APPROVAL_DATE_TIME ( #299, #303 ) ;
#62 = VECTOR ( 'NONE', #373, 1000.000000000000000 ) ;
#63 = ORIENTED_EDGE ( 'NONE', *, *, #247, .T. ) ;
#64 = CC_DESIGN_APPROVAL ( #43, ( #85 ) ) ;
#65 = DIRECTION ( 'NONE',  ( -1.000000000000000000, 0.0000000000000000000, -0.0000000000000000000 ) ) ;
#66 = CARTESIAN_POINT ( 'NONE',  ( -5.450000000000000178, 0.0000000000000000000, 25.45825756949558283 ) ) ;
#67 = PLANE ( 'NONE',  #166 ) ;
#68 = LINE ( 'NONE', #231, #400 ) ;
#69 = ORIENTED_EDGE ( 'NONE', *, *, #28, .F. ) ;
#70 = DIRECTION ( 'NONE',  ( 0.0000000000000000000, 0.0000000000000000000, 1.000000000000000000 ) ) ;
#71 = AXIS2_PLACEMENT_3D ( 'NONE', #378, #209, #176 ) ;
#72 = CARTESIAN_POINT ( 'NONE',  ( 4.950000000000000178, 6.062001655779398511E-16, 28.40000000000000213 ) ) ;
#73 = DIRECTION ( 'NONE',  ( -1.000000000000000000, 0.0000000000000000000, 0.0000000000000000000 ) ) ;
#74 = DATE_AND_TIME ( #77, #309 ) ;
#75 = ORIENTED_EDGE ( 'NONE', *, *, #386, .T. ) ;
#76 = APPROVAL_ROLE ( '' ) ;
#77 = CALENDAR_DATE ( 2019, 12, 12 ) ;
#78 = CIRCLE ( 'NONE', #341, 2.500000000000000000 ) ;
#79 = PERSON_AND_ORGANIZATION_ROLE ( 'design_owner' ) ;
#80 = ADVANCED_FACE ( 'NONE', ( #144, #57 ), #67, .T. ) ;
#81 = MECHANICAL_CONTEXT ( 'NONE', #179, 'mechanical' ) ;
#82 = DIRECTION ( 'NONE',  ( 0.0000000000000000000, 0.0000000000000000000, -1.000000000000000000 ) ) ;
#83 = LOCAL_TIME ( 17, 8, 23.00000000000000000, #213 ) ;
#84 = ORIENTED_EDGE ( 'NONE', *, *, #122, .F. ) ;
#85 = PRODUCT_DEFINITION_FORMATION_WITH_SPECIFIED_SOURCE ( 'ANY', '', #215, .NOT_KNOWN. ) ;
#86 = DIRECTION ( 'NONE',  ( -1.000000000000000000, 0.0000000000000000000, 0.0000000000000000000 ) ) ;
#87 = EDGE_CURVE ( 'NONE', #151, #159, #242, .T. ) ;
#88 = CIRCLE ( 'NONE', #388, 4.525000000000000355 ) ;
#89 = VERTEX_POINT ( 'NONE', #60 ) ;
#90 = ORIENTED_EDGE ( 'NONE', *, *, #8, .T. ) ;
#91 = DIRECTION ( 'NONE',  ( 0.0000000000000000000, 0.0000000000000000000, -1.000000000000000000 ) ) ;
#92 = AXIS2_PLACEMENT_3D ( 'NONE', #100, #38, #260 ) ;
#93 = CARTESIAN_POINT ( 'NONE',  ( 0.0000000000000000000, 0.0000000000000000000, -1.599999999999997202 ) ) ;
#94 = CARTESIAN_POINT ( 'NONE',  ( 0.0000000000000000000, 0.0000000000000000000, 25.45825756949558283 ) ) ;
#95 = AXIS2_PLACEMENT_3D ( 'NONE', #382, #20, #181 ) ;
#96 = ORIENTED_EDGE ( 'NONE', *, *, #389, .T. ) ;
#97 = CARTESIAN_POINT ( 'NONE',  ( -2.500000000000000000, 3.061616997868383141E-16, 28.40000000000000213 ) ) ;
#98 = EDGE_CURVE ( 'NONE', #369, #220, #68, .T. ) ;
#99 = DIRECTION ( 'NONE',  ( -1.000000000000000000, 0.0000000000000000000, 0.0000000000000000000 ) ) ;
#100 = CARTESIAN_POINT ( 'NONE',  ( 0.0000000000000000000, 0.0000000000000000000, 25.45825756949558283 ) ) ;
#101 = LINE ( 'NONE', #243, #62 ) ;
#102 = EDGE_LOOP ( 'NONE', ( #272, #208, #257, #175 ) ) ;
#103 = DIRECTION ( 'NONE',  ( -1.000000000000000000, 0.0000000000000000000, 0.0000000000000000000 ) ) ;
#104 = CIRCLE ( 'NONE', #25, 5.250000000000000000 ) ;
#105 = ORIENTED_EDGE ( 'NONE', *, *, #389, .F. ) ;
#106 = DIRECTION ( 'NONE',  ( 1.000000000000000000, 0.0000000000000000000, 0.0000000000000000000 ) ) ;
#107 = ADVANCED_FACE ( 'NONE', ( #310 ), #393, .F. ) ;
#108 = CARTESIAN_POINT ( 'NONE',  ( 0.0000000000000000000, 0.0000000000000000000, 0.0000000000000000000 ) ) ;
#109 = CC_DESIGN_PERSON_AND_ORGANIZATION_ASSIGNMENT ( #9, #152, ( #85 ) ) ;
#110 = DIRECTION ( 'NONE',  ( 0.0000000000000000000, 0.0000000000000000000, 1.000000000000000000 ) ) ;
#111 = LINE ( 'NONE', #232, #374 ) ;
#112 = VERTEX_POINT ( 'NONE', #394 ) ;
#113 = CARTESIAN_POINT ( 'NONE',  ( 2.500000000000000000, 0.0000000000000000000, 0.0000000000000000000 ) ) ;
#114 = ORIENTED_EDGE ( 'NONE', *, *, #391, .F. ) ;
#115 = EDGE_CURVE ( 'NONE', #135, #186, #27, .T. ) ;
#116 = CARTESIAN_POINT ( 'NONE',  ( 0.0000000000000000000, 0.0000000000000000000, 28.40000000000000213 ) ) ;
#117 = PERSON_AND_ORGANIZATION_ROLE ( 'classification_officer' ) ;
#118 = AXIS2_PLACEMENT_3D ( 'NONE', #229, #164, #33 ) ;
#119 = DIRECTION ( 'NONE',  ( -1.000000000000000000, 0.0000000000000000000, 0.0000000000000000000 ) ) ;
#120 = LOCAL_TIME ( 17, 8, 23.00000000000000000, #199 ) ;
#121 = AXIS2_PLACEMENT_3D ( 'NONE', #305, #211, #339 ) ;
#122 = EDGE_CURVE ( 'NONE', #230, #321, #17, .T. ) ;
#123 = CIRCLE ( 'NONE', #178, 2.500000000000000000 ) ;
#124 = ORIENTED_EDGE ( 'NONE', *, *, #222, .F. ) ;
#125 = PRODUCT_DEFINITION_SHAPE ( 'NONE', 'NONE',  #227 ) ;
#126 = DIRECTION ( 'NONE',  ( -0.0000000000000000000, -0.0000000000000000000, -1.000000000000000000 ) ) ;
#127 = COORDINATED_UNIVERSAL_TIME_OFFSET ( 0, 0, .AHEAD. ) ;
#128 = DATE_AND_TIME ( #426, #83 ) ;
#129 = ORIENTED_EDGE ( 'NONE', *, *, #259, .T. ) ;
#130 = CARTESIAN_POINT ( 'NONE',  ( 5.250000000000000000, 6.429395695523604153E-16, 25.00000000000000000 ) ) ;
#131 = DIRECTION ( 'NONE',  ( 1.000000000000000000, 0.0000000000000000000, 0.0000000000000000000 ) ) ;
#132 = CIRCLE ( 'NONE', #316, 2.500000000000000000 ) ;
#133 = CC_DESIGN_PERSON_AND_ORGANIZATION_ASSIGNMENT ( #262, #216, ( #85 ) ) ;
#134 = FACE_OUTER_BOUND ( 'NONE', #138, .T. ) ;
#135 = VERTEX_POINT ( 'NONE', #323 ) ;
#136 = CARTESIAN_POINT ( 'NONE',  ( -4.950000000000000178, 0.0000000000000000000, 25.45825756949558283 ) ) ;
#137 = FACE_OUTER_BOUND ( 'NONE', #418, .T. ) ;
#138 = EDGE_LOOP ( 'NONE', ( #96, #157, #347, #54 ) ) ;
#139 = AXIS2_PLACEMENT_3D ( 'NONE', #108, #70, #14 ) ;
#140 = DIRECTION ( 'NONE',  ( -0.0000000000000000000, -0.0000000000000000000, -1.000000000000000000 ) ) ;
#141 = PLANE ( 'NONE',  #139 ) ;
#142 = CARTESIAN_POINT ( 'NONE',  ( 0.0000000000000000000, 0.0000000000000000000, 25.00000000000000000 ) ) ;
#143 = PERSON_AND_ORGANIZATION ( #270, #314 ) ;
#144 = FACE_BOUND ( 'NONE', #224, .T. ) ;
#145 = DIRECTION ( 'NONE',  ( 0.0000000000000000000, 0.0000000000000000000, -1.000000000000000000 ) ) ;
#146 = ADVANCED_FACE ( 'NONE', ( #137 ), #360, .F. ) ;
#147 = AXIS2_PLACEMENT_3D ( 'NONE', #66, #364, #292 ) ;
#148 = APPROVAL_STATUS ( 'not_yet_approved' ) ;
#149 = APPROVAL_DATE_TIME ( #154, #43 ) ;
#150 = CYLINDRICAL_SURFACE ( 'NONE', #202, 4.950000000000000178 ) ;
#151 = VERTEX_POINT ( 'NONE', #196 ) ;
#152 = PERSON_AND_ORGANIZATION_ROLE ( 'creator' ) ;
#153 =( NAMED_UNIT ( * ) PLANE_ANGLE_UNIT ( ) SI_UNIT ( $, .RADIAN. ) );
#154 = DATE_AND_TIME ( #217, #238 ) ;
#155 = FACE_OUTER_BOUND ( 'NONE', #167, .T. ) ;
#156 = AXIS2_PLACEMENT_3D ( 'NONE', #94, #187, #225 ) ;
#157 = ORIENTED_EDGE ( 'NONE', *, *, #377, .T. ) ;
#158 = CARTESIAN_POINT ( 'NONE',  ( 4.525000000000000355, 5.541526766141773934E-16, 9.500000000000000000 ) ) ;
#159 = VERTEX_POINT ( 'NONE', #136 ) ;
#160 = AXIS2_PLACEMENT_3D ( 'NONE', #379, #46, #409 ) ;
#161 = DIRECTION ( 'NONE',  ( -0.0000000000000000000, -0.0000000000000000000, 1.000000000000000000 ) ) ;
#162 = DATE_AND_TIME ( #246, #120 ) ;
#163 = VECTOR ( 'NONE', #427, 1000.000000000000000 ) ;
#164 = DIRECTION ( 'NONE',  ( 0.0000000000000000000, 0.0000000000000000000, -1.000000000000000000 ) ) ;
#165 = DIRECTION ( 'NONE',  ( -0.0000000000000000000, -0.0000000000000000000, -1.000000000000000000 ) ) ;
#166 = AXIS2_PLACEMENT_3D ( 'NONE', #431, #291, #397 ) ;
#167 = EDGE_LOOP ( 'NONE', ( #340, #410, #249, #363 ) ) ;
#168 = DIRECTION ( 'NONE',  ( -1.000000000000000000, 0.0000000000000000000, 0.0000000000000000000 ) ) ;
#169 = CARTESIAN_POINT ( 'NONE',  ( 2.500000000000000000, 0.0000000000000000000, -1.599999999999997202 ) ) ;
#170 = TOROIDAL_SURFACE ( 'NONE', #92, 5.450000000000000178, 0.5000000000000000000 ) ;
#171 = DIRECTION ( 'NONE',  ( 0.0000000000000000000, 0.0000000000000000000, 1.000000000000000000 ) ) ;
#172 = CARTESIAN_POINT ( 'NONE',  ( 0.0000000000000000000, 0.0000000000000000000, 9.500000000000000000 ) ) ;
#173 = LINE ( 'NONE', #329, #228 ) ;
#174 = ORIENTED_EDGE ( 'NONE', *, *, #259, .F. ) ;
#175 = ORIENTED_EDGE ( 'NONE', *, *, #1, .T. ) ;
#176 = DIRECTION ( 'NONE',  ( 1.000000000000000000, 0.0000000000000000000, 0.0000000000000000000 ) ) ;
#177 = ADVANCED_FACE ( 'NONE', ( #384 ), #263, .T. ) ;
#178 = AXIS2_PLACEMENT_3D ( 'NONE', #116, #312, #18 ) ;
#179 = APPLICATION_CONTEXT ( 'configuration controlled 3d designs of mechanical parts and assemblies' ) ;
#180 = CIRCLE ( 'NONE', #313, 4.950000000000000178 ) ;
#181 = DIRECTION ( 'NONE',  ( -1.000000000000000000, 0.0000000000000000000, 0.0000000000000000000 ) ) ;
#182 = ORIENTED_EDGE ( 'NONE', *, *, #8, .F. ) ;
#183 = AXIS2_PLACEMENT_3D ( 'NONE', #358, #399, #168 ) ;
#184 = VECTOR ( 'NONE', #140, 1000.000000000000000 ) ;
#185 = ORIENTED_EDGE ( 'NONE', *, *, #307, .F. ) ;
#186 = VERTEX_POINT ( 'NONE', #395 ) ;
#187 = DIRECTION ( 'NONE',  ( 0.0000000000000000000, 0.0000000000000000000, 1.000000000000000000 ) ) ;
#188 = CARTESIAN_POINT ( 'NONE',  ( 0.0000000000000000000, 0.0000000000000000000, 28.40000000000000213 ) ) ;
#189 = FACE_OUTER_BOUND ( 'NONE', #280, .T. ) ;
#190 =( GEOMETRIC_REPRESENTATION_CONTEXT ( 3 ) GLOBAL_UNCERTAINTY_ASSIGNED_CONTEXT ( ( #223 ) ) GLOBAL_UNIT_ASSIGNED_CONTEXT ( ( #212, #153, #48 ) ) REPRESENTATION_CONTEXT ( 'NONE', 'WORKASPACE' ) );
#191 = FACE_BOUND ( 'NONE', #385, .T. ) ;
#192 = ORIENTED_EDGE ( 'NONE', *, *, #13, .T. ) ;
#193 = PLANE ( 'NONE',  #266 ) ;
#194 = EDGE_CURVE ( 'NONE', #29, #362, #111, .T. ) ;
#195 = CARTESIAN_POINT ( 'NONE',  ( 0.0000000000000000000, 0.0000000000000000000, 28.40000000000000213 ) ) ;
#196 = CARTESIAN_POINT ( 'NONE',  ( -5.250000000000000000, 0.0000000000000000000, 25.00000000000000000 ) ) ;
#197 = CALENDAR_DATE ( 2019, 12, 12 ) ;
#198 = DIRECTION ( 'NONE',  ( 0.0000000000000000000, 0.0000000000000000000, 1.000000000000000000 ) ) ;
#199 = COORDINATED_UNIVERSAL_TIME_OFFSET ( 0, 0, .AHEAD. ) ;
#200 = ORIENTED_EDGE ( 'NONE', *, *, #415, .F. ) ;
#201 = DESIGN_CONTEXT ( 'detailed design', #275, 'design' ) ;
#202 = AXIS2_PLACEMENT_3D ( 'NONE', #188, #226, #424 ) ;
#203 = CARTESIAN_POINT ( 'NONE',  ( 0.0000000000000000000, 0.0000000000000000000, 0.0000000000000000000 ) ) ;
#204 = CARTESIAN_POINT ( 'NONE',  ( -5.250000000000000000, 0.0000000000000000000, 9.500000000000000000 ) ) ;
#205 = CIRCLE ( 'NONE', #118, 4.525000000000000355 ) ;
#206 = CIRCLE ( 'NONE', #221, 4.525000000000000355 ) ;
#207 = DIRECTION ( 'NONE',  ( -0.0000000000000000000, -0.0000000000000000000, 1.000000000000000000 ) ) ;
#208 = ORIENTED_EDGE ( 'NONE', *, *, #115, .F. ) ;
#209 = DIRECTION ( 'NONE',  ( 0.0000000000000000000, 0.0000000000000000000, 1.000000000000000000 ) ) ;
#210 = AXIS2_PLACEMENT_3D ( 'NONE', #365, #5, #99 ) ;
#211 = DIRECTION ( 'NONE',  ( 0.0000000000000000000, 0.0000000000000000000, 1.000000000000000000 ) ) ;
#212 =( LENGTH_UNIT ( ) NAMED_UNIT ( * ) SI_UNIT ( .MILLI., .METRE. ) );
#213 = COORDINATED_UNIVERSAL_TIME_OFFSET ( 0, 0, .AHEAD. ) ;
#214 = DIRECTION ( 'NONE',  ( -1.000000000000000000, -1.224646799147351482E-16, 0.0000000000000000000 ) ) ;
#215 = PRODUCT ( 'Micrometer inner2', 'Micrometer inner2', '', ( #81 ) ) ;
#216 = PERSON_AND_ORGANIZATION_ROLE ( 'design_supplier' ) ;
#217 = CALENDAR_DATE ( 2019, 12, 12 ) ;
#218 = APPROVAL_PERSON_ORGANIZATION ( #143, #43, #416 ) ;
#219 = ORIENTED_EDGE ( 'NONE', *, *, #13, .F. ) ;
#220 = VERTEX_POINT ( 'NONE', #97 ) ;
#221 = AXIS2_PLACEMENT_3D ( 'NONE', #390, #91, #86 ) ;
#222 = EDGE_CURVE ( 'NONE', #29, #230, #205, .T. ) ;
#223 = UNCERTAINTY_MEASURE_WITH_UNIT (LENGTH_MEASURE( 1.000000000000000082E-05 ), #212, 'distance_accuracy_value', 'NONE');
#224 = EDGE_LOOP ( 'NONE', ( #35, #315 ) ) ;
#225 = DIRECTION ( 'NONE',  ( -1.000000000000000000, 0.0000000000000000000, 0.0000000000000000000 ) ) ;
#226 = DIRECTION ( 'NONE',  ( -0.0000000000000000000, -0.0000000000000000000, -1.000000000000000000 ) ) ;
#227 = PRODUCT_DEFINITION ( 'UNKNOWN', '', #85, #201 ) ;
#228 = VECTOR ( 'NONE', #41, 1000.000000000000000 ) ;
#229 = CARTESIAN_POINT ( 'NONE',  ( 0.0000000000000000000, 0.0000000000000000000, 9.500000000000000000 ) ) ;
#230 = VERTEX_POINT ( 'NONE', #356 ) ;
#231 = CARTESIAN_POINT ( 'NONE',  ( -2.500000000000000000, 3.061616997868383141E-16, -1.599999999999997202 ) ) ;
#232 = CARTESIAN_POINT ( 'NONE',  ( 4.525000000000000355, 5.541526766141773934E-16, 9.500000000000000000 ) ) ;
#233 = DIRECTION ( 'NONE',  ( 0.0000000000000000000, 0.0000000000000000000, 1.000000000000000000 ) ) ;
#234 = AXIS2_PLACEMENT_3D ( 'NONE', #49, #82, #21 ) ;
#235 = PERSON_AND_ORGANIZATION ( #270, #314 ) ;
#236 = CYLINDRICAL_SURFACE ( 'NONE', #366, 2.500000000000000000 ) ;
#237 = ORIENTED_EDGE ( 'NONE', *, *, #98, .F. ) ;
#238 = LOCAL_TIME ( 17, 8, 23.00000000000000000, #127 ) ;
#239 = DIRECTION ( 'NONE',  ( 1.000000000000000000, 0.0000000000000000000, 0.0000000000000000000 ) ) ;
#240 = ADVANCED_FACE ( 'NONE', ( #191, #56 ), #193, .T. ) ;
#241 = CIRCLE ( 'NONE', #234, 4.525000000000000355 ) ;
#242 = CIRCLE ( 'NONE', #147, 0.5000000000000004441 ) ;
#243 = CARTESIAN_POINT ( 'NONE',  ( 5.250000000000000000, 6.429395695523604153E-16, 25.00000000000000000 ) ) ;
#244 = SECURITY_CLASSIFICATION ( '', '', #267 ) ;
#245 = FACE_OUTER_BOUND ( 'NONE', #338, .T. ) ;
#246 = CALENDAR_DATE ( 2019, 12, 12 ) ;
#247 = EDGE_CURVE ( 'NONE', #328, #40, #417, .T. ) ;
#248 = FACE_OUTER_BOUND ( 'NONE', #264, .T. ) ;
#249 = ORIENTED_EDGE ( 'NONE', *, *, #122, .T. ) ;
#250 = ORIENTED_EDGE ( 'NONE', *, *, #391, .T. ) ;
#251 = AXIS2_PLACEMENT_3D ( 'NONE', #30, #126, #425 ) ;
#252 = COORDINATED_UNIVERSAL_TIME_OFFSET ( 0, 0, .AHEAD. ) ;
#253 = CIRCLE ( 'NONE', #6, 5.250000000000000000 ) ;
#254 = ORIENTED_EDGE ( 'NONE', *, *, #345, .T. ) ;
#255 = DIRECTION ( 'NONE',  ( -0.0000000000000000000, -0.0000000000000000000, -1.000000000000000000 ) ) ;
#256 = CC_DESIGN_PERSON_AND_ORGANIZATION_ASSIGNMENT ( #398, #117, ( #244 ) ) ;
#257 = ORIENTED_EDGE ( 'NONE', *, *, #352, .T. ) ;
#258 = ORIENTED_EDGE ( 'NONE', *, *, #359, .T. ) ;
#259 = EDGE_CURVE ( 'NONE', #405, #89, #392, .T. ) ;
#260 = DIRECTION ( 'NONE',  ( -1.000000000000000000, 0.0000000000000000000, 0.0000000000000000000 ) ) ;
#261 = CARTESIAN_POINT ( 'NONE',  ( -2.500000000000000000, 3.061616997868383141E-16, 0.0000000000000000000 ) ) ;
#262 = PERSON_AND_ORGANIZATION ( #270, #314 ) ;
#263 = CYLINDRICAL_SURFACE ( 'NONE', #210, 5.250000000000000000 ) ;
#264 = EDGE_LOOP ( 'NONE', ( #114, #254, #301, #311 ) ) ;
#265 = CARTESIAN_POINT ( 'NONE',  ( 0.0000000000000000000, 0.0000000000000000000, 28.40000000000000213 ) ) ;
#266 = AXIS2_PLACEMENT_3D ( 'NONE', #322, #429, #65 ) ;
#267 = SECURITY_CLASSIFICATION_LEVEL ( 'unclassified' ) ;
#268 = CYLINDRICAL_SURFACE ( 'NONE', #287, 4.525000000000000355 ) ;
#269 = ORIENTED_EDGE ( 'NONE', *, *, #337, .T. ) ;
#270 = PERSON ( 'UNSPECIFIED', 'UNSPECIFIED', 'UNSPECIFIED', ('UNSPECIFIED'), ('UNSPECIFIED'), ('UNSPECIFIED') ) ;
#271 = ADVANCED_FACE ( 'NONE', ( #368 ), #268, .T. ) ;
#272 = ORIENTED_EDGE ( 'NONE', *, *, #345, .F. ) ;
#273 = AXIS2_PLACEMENT_3D ( 'NONE', #195, #233, #286 ) ;
#274 = APPROVAL_ROLE ( '' ) ;
#275 = APPLICATION_CONTEXT ( 'configuration controlled 3d designs of mechanical parts and assemblies' ) ;
#276 = ORIENTED_EDGE ( 'NONE', *, *, #115, .T. ) ;
#277 = FACE_OUTER_BOUND ( 'NONE', #102, .T. ) ;
#278 = CC_DESIGN_DATE_AND_TIME_ASSIGNMENT ( #74, #346, ( #244 ) ) ;
#279 = ORIENTED_EDGE ( 'NONE', *, *, #307, .T. ) ;
#280 = EDGE_LOOP ( 'NONE', ( #375, #75 ) ) ;
#281 = EDGE_CURVE ( 'NONE', #89, #220, #132, .T. ) ;
#282 = CARTESIAN_POINT ( 'NONE',  ( 0.0000000000000000000, 0.0000000000000000000, 0.0000000000000000000 ) ) ;
#283 = SHAPE_DEFINITION_REPRESENTATION ( #125, #371 ) ;
#284 = ORIENTED_EDGE ( 'NONE', *, *, #327, .F. ) ;
#285 = DIRECTION ( 'NONE',  ( 0.0000000000000000000, 0.0000000000000000000, 1.000000000000000000 ) ) ;
#286 = DIRECTION ( 'NONE',  ( 1.000000000000000000, 0.0000000000000000000, 0.0000000000000000000 ) ) ;
#287 = AXIS2_PLACEMENT_3D ( 'NONE', #12, #372, #402 ) ;
#288 = CIRCLE ( 'NONE', #71, 5.250000000000000000 ) ;
#289 = ORIENTED_EDGE ( 'NONE', *, *, #98, .T. ) ;
#290 = ORIENTED_EDGE ( 'NONE', *, *, #337, .F. ) ;
#291 = DIRECTION ( 'NONE',  ( 0.0000000000000000000, 0.0000000000000000000, 1.000000000000000000 ) ) ;
#292 = DIRECTION ( 'NONE',  ( 0.0000000000000000000, 0.0000000000000000000, -1.000000000000000000 ) ) ;
#293 = MANIFOLD_SOLID_BREP ( 'Cut-Extrude2', #4 ) ;
#294 = CARTESIAN_POINT ( 'NONE',  ( -4.525000000000000355, 0.0000000000000000000, 9.500000000000000000 ) ) ;
#295 = EDGE_CURVE ( 'NONE', #230, #29, #88, .T. ) ;
#296 = APPROVAL_PERSON_ORGANIZATION ( #2, #324, #274 ) ;
#297 = DIRECTION ( 'NONE',  ( 0.0000000000000000000, 0.0000000000000000000, -1.000000000000000000 ) ) ;
#298 = CARTESIAN_POINT ( 'NONE',  ( -4.525000000000000355, 0.0000000000000000000, 0.0000000000000000000 ) ) ;
#299 = DATE_AND_TIME ( #197, #55 ) ;
#300 = CYLINDRICAL_SURFACE ( 'NONE', #95, 5.250000000000000000 ) ;
#301 = ORIENTED_EDGE ( 'NONE', *, *, #415, .T. ) ;
#302 = ORIENTED_EDGE ( 'NONE', *, *, #359, .F. ) ;
#303 = APPROVAL ( #342, 'UNSPECIFIED' ) ;
#304 = CARTESIAN_POINT ( 'NONE',  ( 0.0000000000000000000, 0.0000000000000000000, 25.45825756949558283 ) ) ;
#305 = CARTESIAN_POINT ( 'NONE',  ( 0.0000000000000000000, 0.0000000000000000000, 0.0000000000000000000 ) ) ;
#306 = ADVANCED_FACE ( 'NONE', ( #277 ), #34, .T. ) ;
#307 = EDGE_CURVE ( 'NONE', #40, #328, #104, .T. ) ;
#308 = APPLICATION_PROTOCOL_DEFINITION ( 'international standard', 'config_control_design', 1994, #275 ) ;
#309 = LOCAL_TIME ( 17, 8, 23.00000000000000000, #252 ) ;
#310 = FACE_OUTER_BOUND ( 'NONE', #350, .T. ) ;
#311 = ORIENTED_EDGE ( 'NONE', *, *, #352, .F. ) ;
#312 = DIRECTION ( 'NONE',  ( 0.0000000000000000000, 0.0000000000000000000, 1.000000000000000000 ) ) ;
#313 = AXIS2_PLACEMENT_3D ( 'NONE', #304, #52, #119 ) ;
#314 = ORGANIZATION ( 'UNSPECIFIED', 'UNSPECIFIED', '' ) ;
#315 = ORIENTED_EDGE ( 'NONE', *, *, #407, .F. ) ;
#316 = AXIS2_PLACEMENT_3D ( 'NONE', #370, #110, #336 ) ;
#317 = ORIENTED_EDGE ( 'NONE', *, *, #407, .T. ) ;
#318 = DIRECTION ( 'NONE',  ( 1.000000000000000000, 0.0000000000000000000, 0.0000000000000000000 ) ) ;
#319 = VECTOR ( 'NONE', #207, 1000.000000000000000 ) ;
#320 = DIRECTION ( 'NONE',  ( -0.0000000000000000000, -0.0000000000000000000, 1.000000000000000000 ) ) ;
#321 = VERTEX_POINT ( 'NONE', #298 ) ;
#322 = CARTESIAN_POINT ( 'NONE',  ( 0.0000000000000000000, 0.0000000000000000000, 9.500000000000000000 ) ) ;
#323 = CARTESIAN_POINT ( 'NONE',  ( -4.950000000000000178, 0.0000000000000000000, 28.40000000000000213 ) ) ;
#324 = APPROVAL ( #148, 'UNSPECIFIED' ) ;
#325 = DIRECTION ( 'NONE',  ( -0.0000000000000000000, -0.0000000000000000000, 1.000000000000000000 ) ) ;
#326 = CIRCLE ( 'NONE', #156, 4.950000000000000178 ) ;
#327 = EDGE_CURVE ( 'NONE', #23, #151, #253, .T. ) ;
#328 = VERTEX_POINT ( 'NONE', #204 ) ;
#329 = CARTESIAN_POINT ( 'NONE',  ( -4.950000000000000178, 0.0000000000000000000, 28.40000000000000213 ) ) ;
#330 = COORDINATED_UNIVERSAL_TIME_OFFSET ( 0, 0, .AHEAD. ) ;
#331 = DIRECTION ( 'NONE',  ( -1.000000000000000000, 0.0000000000000000000, 0.0000000000000000000 ) ) ;
#332 = CIRCLE ( 'NONE', #50, 0.5000000000000004441 ) ;
#333 = CYLINDRICAL_SURFACE ( 'NONE', #251, 4.525000000000000355 ) ;
#334 = AXIS2_PLACEMENT_3D ( 'NONE', #203, #198, #239 ) ;
#335 = DIRECTION ( 'NONE',  ( -0.0000000000000000000, -0.0000000000000000000, -1.000000000000000000 ) ) ;
#336 = DIRECTION ( 'NONE',  ( 1.000000000000000000, 0.0000000000000000000, 0.0000000000000000000 ) ) ;
#337 = EDGE_CURVE ( 'NONE', #369, #405, #22, .T. ) ;
#338 = EDGE_LOOP ( 'NONE', ( #237, #219, #129, #423 ) ) ;
#339 = DIRECTION ( 'NONE',  ( 1.000000000000000000, 0.0000000000000000000, 0.0000000000000000000 ) ) ;
#340 = ORIENTED_EDGE ( 'NONE', *, *, #194, .F. ) ;
#341 = AXIS2_PLACEMENT_3D ( 'NONE', #282, #285, #387 ) ;
#342 = APPROVAL_STATUS ( 'not_yet_approved' ) ;
#343 = ADVANCED_FACE ( 'NONE', ( #26, #189 ), #141, .F. ) ;
#344 = APPROVAL_STATUS ( 'not_yet_approved' ) ;
#345 = EDGE_CURVE ( 'NONE', #186, #112, #354, .T. ) ;
#346 = DATE_TIME_ROLE ( 'classification_date' ) ;
#347 = ORIENTED_EDGE ( 'NONE', *, *, #1, .F. ) ;
#348 = CC_DESIGN_APPROVAL ( #303, ( #244 ) ) ;
#349 = PERSON_AND_ORGANIZATION ( #270, #314 ) ;
#350 = EDGE_LOOP ( 'NONE', ( #428, #19, #376, #200 ) ) ;
#351 = ORIENTED_EDGE ( 'NONE', *, *, #247, .F. ) ;
#352 = EDGE_CURVE ( 'NONE', #135, #159, #173, .T. ) ;
#353 = CARTESIAN_POINT ( 'NONE',  ( 5.250000000000000000, 6.429395695523604153E-16, 9.500000000000000000 ) ) ;
#354 = LINE ( 'NONE', #72, #184 ) ;
#355 = EDGE_LOOP ( 'NONE', ( #192, #269 ) ) ;
#356 = CARTESIAN_POINT ( 'NONE',  ( -4.525000000000000355, 0.0000000000000000000, 9.500000000000000000 ) ) ;
#357 = CC_DESIGN_APPROVAL ( #324, ( #227 ) ) ;
#358 = CARTESIAN_POINT ( 'NONE',  ( 0.0000000000000000000, 0.0000000000000000000, 25.45825756949558283 ) ) ;
#359 = EDGE_CURVE ( 'NONE', #23, #40, #101, .T. ) ;
#360 = CYLINDRICAL_SURFACE ( 'NONE', #430, 2.500000000000000000 ) ;
#361 = CARTESIAN_POINT ( 'NONE',  ( 0.0000000000000000000, 0.0000000000000000000, -1.599999999999997202 ) ) ;
#362 = VERTEX_POINT ( 'NONE', #367 ) ;
#363 = ORIENTED_EDGE ( 'NONE', *, *, #386, .F. ) ;
#364 = DIRECTION ( 'NONE',  ( 0.0000000000000000000, -1.000000000000000000, 0.0000000000000000000 ) ) ;
#365 = CARTESIAN_POINT ( 'NONE',  ( 0.0000000000000000000, 0.0000000000000000000, 25.00000000000000000 ) ) ;
#366 = AXIS2_PLACEMENT_3D ( 'NONE', #93, #161, #318 ) ;
#367 = CARTESIAN_POINT ( 'NONE',  ( 4.525000000000000355, 5.541526766141773934E-16, 0.0000000000000000000 ) ) ;
#368 = FACE_OUTER_BOUND ( 'NONE', #59, .T. ) ;
#369 = VERTEX_POINT ( 'NONE', #261 ) ;
#370 = CARTESIAN_POINT ( 'NONE',  ( 0.0000000000000000000, 0.0000000000000000000, 28.40000000000000213 ) ) ;
#371 = ADVANCED_BREP_SHAPE_REPRESENTATION ( 'Micrometer inner2', ( #293, #121 ), #190 ) ;
#372 = DIRECTION ( 'NONE',  ( -0.0000000000000000000, -0.0000000000000000000, -1.000000000000000000 ) ) ;
#373 = DIRECTION ( 'NONE',  ( -0.0000000000000000000, -0.0000000000000000000, -1.000000000000000000 ) ) ;
#374 = VECTOR ( 'NONE', #165, 1000.000000000000000 ) ;
#375 = ORIENTED_EDGE ( 'NONE', *, *, #28, .T. ) ;
#376 = ORIENTED_EDGE ( 'NONE', *, *, #87, .T. ) ;
#377 = EDGE_CURVE ( 'NONE', #23, #112, #332, .T. ) ;
#378 = CARTESIAN_POINT ( 'NONE',  ( 0.0000000000000000000, 0.0000000000000000000, 25.00000000000000000 ) ) ;
#379 = CARTESIAN_POINT ( 'NONE',  ( 0.0000000000000000000, 0.0000000000000000000, 28.40000000000000213 ) ) ;
#380 = APPROVAL_DATE_TIME ( #128, #324 ) ;
#381 = APPLICATION_PROTOCOL_DEFINITION ( 'international standard', 'config_control_design', 1994, #179 ) ;
#382 = CARTESIAN_POINT ( 'NONE',  ( 0.0000000000000000000, 0.0000000000000000000, 25.00000000000000000 ) ) ;
#383 = CC_DESIGN_PERSON_AND_ORGANIZATION_ASSIGNMENT ( #39, #408, ( #227 ) ) ;
#384 = FACE_OUTER_BOUND ( 'NONE', #401, .T. ) ;
#385 = EDGE_LOOP ( 'NONE', ( #11, #124 ) ) ;
#386 = EDGE_CURVE ( 'NONE', #362, #321, #241, .T. ) ;
#387 = DIRECTION ( 'NONE',  ( 1.000000000000000000, 0.0000000000000000000, 0.0000000000000000000 ) ) ;
#388 = AXIS2_PLACEMENT_3D ( 'NONE', #406, #145, #331 ) ;
#389 = EDGE_CURVE ( 'NONE', #151, #23, #288, .T. ) ;
#390 = CARTESIAN_POINT ( 'NONE',  ( 0.0000000000000000000, 0.0000000000000000000, 0.0000000000000000000 ) ) ;
#391 = EDGE_CURVE ( 'NONE', #186, #135, #31, .T. ) ;
#392 = LINE ( 'NONE', #169, #319 ) ;
#393 = TOROIDAL_SURFACE ( 'NONE', #183, 5.450000000000000178, 0.5000000000000000000 ) ;
#394 = CARTESIAN_POINT ( 'NONE',  ( 4.950000000000000178, 6.062001655779398511E-16, 25.45825756949558283 ) ) ;
#395 = CARTESIAN_POINT ( 'NONE',  ( 4.950000000000000178, 6.062001655779398511E-16, 28.40000000000000213 ) ) ;
#396 = AXIS2_PLACEMENT_3D ( 'NONE', #7, #297, #10 ) ;
#397 = DIRECTION ( 'NONE',  ( 1.000000000000000000, 0.0000000000000000000, -0.0000000000000000000 ) ) ;
#398 = PERSON_AND_ORGANIZATION ( #270, #314 ) ;
#399 = DIRECTION ( 'NONE',  ( -0.0000000000000000000, -0.0000000000000000000, -1.000000000000000000 ) ) ;
#400 = VECTOR ( 'NONE', #320, 1000.000000000000000 ) ;
#401 = EDGE_LOOP ( 'NONE', ( #302, #105, #90, #185 ) ) ;
#402 = DIRECTION ( 'NONE',  ( -1.000000000000000000, 0.0000000000000000000, 0.0000000000000000000 ) ) ;
#403 = ADVANCED_FACE ( 'NONE', ( #44 ), #300, .T. ) ;
#404 = CC_DESIGN_DATE_AND_TIME_ASSIGNMENT ( #162, #413, ( #227 ) ) ;
#405 = VERTEX_POINT ( 'NONE', #113 ) ;
#406 = CARTESIAN_POINT ( 'NONE',  ( 0.0000000000000000000, 0.0000000000000000000, 9.500000000000000000 ) ) ;
#407 = EDGE_CURVE ( 'NONE', #220, #89, #123, .T. ) ;
#408 = PERSON_AND_ORGANIZATION_ROLE ( 'creator' ) ;
#409 = DIRECTION ( 'NONE',  ( 1.000000000000000000, 0.0000000000000000000, 0.0000000000000000000 ) ) ;
#410 = ORIENTED_EDGE ( 'NONE', *, *, #222, .T. ) ;
#411 = ORIENTED_EDGE ( 'NONE', *, *, #194, .T. ) ;
#412 = AXIS2_PLACEMENT_3D ( 'NONE', #265, #335, #103 ) ;
#413 = DATE_TIME_ROLE ( 'creation_date' ) ;
#414 = CARTESIAN_POINT ( 'NONE',  ( 5.450000000000000178, 6.674325055353075238E-16, 25.45825756949558283 ) ) ;
#415 = EDGE_CURVE ( 'NONE', #112, #159, #180, .T. ) ;
#416 = APPROVAL_ROLE ( '' ) ;
#417 = CIRCLE ( 'NONE', #396, 5.250000000000000000 ) ;
#418 = EDGE_LOOP ( 'NONE', ( #290, #289, #317, #174 ) ) ;
#419 = CC_DESIGN_PERSON_AND_ORGANIZATION_ASSIGNMENT ( #349, #79, ( #215 ) ) ;
#420 = CARTESIAN_POINT ( 'NONE',  ( -5.250000000000000000, 0.0000000000000000000, 25.00000000000000000 ) ) ;
#421 = APPROVAL_PERSON_ORGANIZATION ( #235, #303, #76 ) ;
#422 = LINE ( 'NONE', #420, #163 ) ;
#423 = ORIENTED_EDGE ( 'NONE', *, *, #281, .T. ) ;
#424 = DIRECTION ( 'NONE',  ( -1.000000000000000000, 0.0000000000000000000, 0.0000000000000000000 ) ) ;
#425 = DIRECTION ( 'NONE',  ( -1.000000000000000000, 0.0000000000000000000, 0.0000000000000000000 ) ) ;
#426 = CALENDAR_DATE ( 2019, 12, 12 ) ;
#427 = DIRECTION ( 'NONE',  ( -0.0000000000000000000, -0.0000000000000000000, -1.000000000000000000 ) ) ;
#428 = ORIENTED_EDGE ( 'NONE', *, *, #377, .F. ) ;
#429 = DIRECTION ( 'NONE',  ( 0.0000000000000000000, 0.0000000000000000000, -1.000000000000000000 ) ) ;
#430 = AXIS2_PLACEMENT_3D ( 'NONE', #361, #325, #131 ) ;
#431 = CARTESIAN_POINT ( 'NONE',  ( 0.0000000000000000000, 0.0000000000000000000, 28.40000000000000213 ) ) ;
ENDSEC;
END-ISO-10303-21;
