ISO-10303-21;
HEADER;
FILE_DESCRIPTION (( 'STEP AP203' ),
    '1' );
FILE_NAME ('wheel.STEP',
    '2019-12-12T17:06:58',
    ( '' ),
    ( '' ),
    'SwSTEP 2.0',
    'SolidWorks 2018',
    '' );
FILE_SCHEMA (( 'CONFIG_CONTROL_DESIGN' ));
ENDSEC;

DATA;
#1 = CARTESIAN_POINT ( 'NONE',  ( -2.250000000000000000, 0.0000000000000000000, 0.0000000000000000000 ) ) ;
#2 = PRODUCT_RELATED_PRODUCT_CATEGORY ( 'detail', '', ( #107 ) ) ;
#3 = PERSON_AND_ORGANIZATION_ROLE ( 'design_owner' ) ;
#4 = CIRCLE ( 'NONE', #39, 3.450000000000000178 ) ;
#5 = DIRECTION ( 'NONE',  ( -0.0000000000000000000, -0.0000000000000000000, -1.000000000000000000 ) ) ;
#6 = EDGE_CURVE ( 'NONE', #74, #318, #175, .T. ) ;
#7 = DIRECTION ( 'NONE',  ( -0.0000000000000000000, -0.0000000000000000000, -1.000000000000000000 ) ) ;
#8 = DIRECTION ( 'NONE',  ( -0.0000000000000000000, -0.0000000000000000000, -1.000000000000000000 ) ) ;
#9 = PERSON_AND_ORGANIZATION ( #90, #180 ) ;
#10 = FACE_OUTER_BOUND ( 'NONE', #13, .T. ) ;
#11 = DIRECTION ( 'NONE',  ( 0.0000000000000000000, 0.0000000000000000000, 1.000000000000000000 ) ) ;
#12 = VERTEX_POINT ( 'NONE', #96 ) ;
#13 = EDGE_LOOP ( 'NONE', ( #317, #24 ) ) ;
#14 = CC_DESIGN_PERSON_AND_ORGANIZATION_ASSIGNMENT ( #271, #171, ( #40 ) ) ;
#15 = APPROVAL_PERSON_ORGANIZATION ( #137, #315, #62 ) ;
#16 = LINE ( 'NONE', #182, #316 ) ;
#17 = CALENDAR_DATE ( 2019, 12, 12 ) ;
#18 = APPROVAL ( #205, 'UNSPECIFIED' ) ;
#19 = EDGE_LOOP ( 'NONE', ( #164, #325 ) ) ;
#20 = AXIS2_PLACEMENT_3D ( 'NONE', #99, #275, #249 ) ;
#21 = DIRECTION ( 'NONE',  ( -1.000000000000000000, 0.0000000000000000000, 0.0000000000000000000 ) ) ;
#22 = CIRCLE ( 'NONE', #256, 3.450000000000000178 ) ;
#23 = PRODUCT_DEFINITION_SHAPE ( 'NONE', 'NONE',  #238 ) ;
#24 = ORIENTED_EDGE ( 'NONE', *, *, #115, .T. ) ;
#25 = DIRECTION ( 'NONE',  ( 0.0000000000000000000, 0.0000000000000000000, -1.000000000000000000 ) ) ;
#26 = DIRECTION ( 'NONE',  ( -1.000000000000000000, 0.0000000000000000000, 0.0000000000000000000 ) ) ;
#27 = AXIS2_PLACEMENT_3D ( 'NONE', #254, #152, #203 ) ;
#28 = DIRECTION ( 'NONE',  ( -0.0000000000000000000, -0.0000000000000000000, -1.000000000000000000 ) ) ;
#29 = CARTESIAN_POINT ( 'NONE',  ( 0.0000000000000000000, 0.0000000000000000000, 0.0000000000000000000 ) ) ;
#30 = LOCAL_TIME ( 17, 6, 58.00000000000000000, #224 ) ;
#31 = FACE_BOUND ( 'NONE', #188, .T. ) ;
#32 = CARTESIAN_POINT ( 'NONE',  ( -3.450000000000000178, 0.0000000000000000000, 2.399999999999999911 ) ) ;
#33 = ORIENTED_EDGE ( 'NONE', *, *, #111, .F. ) ;
#34 = EDGE_CURVE ( 'NONE', #215, #201, #192, .T. ) ;
#35 = APPLICATION_PROTOCOL_DEFINITION ( 'international standard', 'config_control_design', 1994, #255 ) ;
#36 = DIRECTION ( 'NONE',  ( 1.000000000000000000, 0.0000000000000000000, 0.0000000000000000000 ) ) ;
#37 = PERSON_AND_ORGANIZATION ( #90, #180 ) ;
#38 = ORIENTED_EDGE ( 'NONE', *, *, #310, .T. ) ;
#39 = AXIS2_PLACEMENT_3D ( 'NONE', #29, #294, #195 ) ;
#40 = PRODUCT_DEFINITION_FORMATION_WITH_SPECIFIED_SOURCE ( 'ANY', '', #107, .NOT_KNOWN. ) ;
#41 = LOCAL_TIME ( 17, 6, 58.00000000000000000, #312 ) ;
#42 = ORIENTED_EDGE ( 'NONE', *, *, #196, .T. ) ;
#43 =( GEOMETRIC_REPRESENTATION_CONTEXT ( 3 ) GLOBAL_UNCERTAINTY_ASSIGNED_CONTEXT ( ( #199 ) ) GLOBAL_UNIT_ASSIGNED_CONTEXT ( ( #66, #202, #278 ) ) REPRESENTATION_CONTEXT ( 'NONE', 'WORKASPACE' ) );
#44 = CYLINDRICAL_SURFACE ( 'NONE', #321, 2.250000000000000000 ) ;
#45 = EDGE_LOOP ( 'NONE', ( #64, #237, #48, #220 ) ) ;
#46 = CARTESIAN_POINT ( 'NONE',  ( 2.250000000000000000, 2.755455298081544285E-16, 1.399999999999999911 ) ) ;
#47 = ADVANCED_FACE ( 'NONE', ( #209 ), #140, .F. ) ;
#48 = ORIENTED_EDGE ( 'NONE', *, *, #229, .T. ) ;
#49 = AXIS2_PLACEMENT_3D ( 'NONE', #117, #313, #26 ) ;
#50 = ADVANCED_FACE ( 'NONE', ( #31, #214 ), #269, .F. ) ;
#51 = DIRECTION ( 'NONE',  ( 1.000000000000000000, 0.0000000000000000000, -0.0000000000000000000 ) ) ;
#52 = PERSON_AND_ORGANIZATION ( #90, #180 ) ;
#53 = ORIENTED_EDGE ( 'NONE', *, *, #94, .T. ) ;
#54 = DIRECTION ( 'NONE',  ( -1.000000000000000000, 0.0000000000000000000, 0.0000000000000000000 ) ) ;
#55 = ORIENTED_EDGE ( 'NONE', *, *, #34, .F. ) ;
#56 = DIRECTION ( 'NONE',  ( 1.000000000000000000, 0.0000000000000000000, 0.0000000000000000000 ) ) ;
#57 = AXIS2_PLACEMENT_3D ( 'NONE', #85, #5, #200 ) ;
#58 = DIRECTION ( 'NONE',  ( -1.000000000000000000, 0.0000000000000000000, -0.0000000000000000000 ) ) ;
#59 = EDGE_LOOP ( 'NONE', ( #33, #210, #53, #327 ) ) ;
#60 = EDGE_CURVE ( 'NONE', #12, #287, #285, .T. ) ;
#61 = CARTESIAN_POINT ( 'NONE',  ( -3.450000000000000178, 0.0000000000000000000, 2.399999999999999911 ) ) ;
#62 = APPROVAL_ROLE ( '' ) ;
#63 = PERSON_AND_ORGANIZATION_ROLE ( 'classification_officer' ) ;
#64 = ORIENTED_EDGE ( 'NONE', *, *, #6, .F. ) ;
#65 = EDGE_CURVE ( 'NONE', #222, #318, #79, .T. ) ;
#66 =( LENGTH_UNIT ( ) NAMED_UNIT ( * ) SI_UNIT ( .MILLI., .METRE. ) );
#67 = APPROVAL_ROLE ( '' ) ;
#68 = AXIS2_PLACEMENT_3D ( 'NONE', #141, #292, #21 ) ;
#69 = LINE ( 'NONE', #61, #172 ) ;
#70 = ORIENTED_EDGE ( 'NONE', *, *, #80, .T. ) ;
#71 = CC_DESIGN_APPROVAL ( #18, ( #238 ) ) ;
#72 = LOCAL_TIME ( 17, 6, 58.00000000000000000, #82 ) ;
#73 = CYLINDRICAL_SURFACE ( 'NONE', #291, 3.450000000000000178 ) ;
#74 = VERTEX_POINT ( 'NONE', #159 ) ;
#75 = CLOSED_SHELL ( 'NONE', ( #138, #314, #213, #266, #157, #50, #242, #47, #187 ) ) ;
#76 = AXIS2_PLACEMENT_3D ( 'NONE', #272, #191, #170 ) ;
#77 = CARTESIAN_POINT ( 'NONE',  ( -1.024999999999999911, 0.0000000000000000000, 2.399999999999999911 ) ) ;
#78 = DIRECTION ( 'NONE',  ( -0.0000000000000000000, -0.0000000000000000000, -1.000000000000000000 ) ) ;
#79 = CIRCLE ( 'NONE', #211, 3.450000000000000178 ) ;
#80 = EDGE_CURVE ( 'NONE', #264, #287, #132, .T. ) ;
#81 = CARTESIAN_POINT ( 'NONE',  ( -1.024999999999999911, 0.0000000000000000000, 2.399999999999999911 ) ) ;
#82 = COORDINATED_UNIVERSAL_TIME_OFFSET ( 0, 0, .AHEAD. ) ;
#83 = FACE_BOUND ( 'NONE', #19, .T. ) ;
#84 = ORIENTED_EDGE ( 'NONE', *, *, #212, .T. ) ;
#85 = CARTESIAN_POINT ( 'NONE',  ( 0.0000000000000000000, 0.0000000000000000000, 2.399999999999999911 ) ) ;
#86 = CARTESIAN_POINT ( 'NONE',  ( 0.0000000000000000000, 0.0000000000000000000, 0.0000000000000000000 ) ) ;
#87 = APPROVAL_DATE_TIME ( #246, #91 ) ;
#88 = ORIENTED_EDGE ( 'NONE', *, *, #196, .F. ) ;
#89 = ORIENTED_EDGE ( 'NONE', *, *, #328, .F. ) ;
#90 = PERSON ( 'UNSPECIFIED', 'UNSPECIFIED', 'UNSPECIFIED', ('UNSPECIFIED'), ('UNSPECIFIED'), ('UNSPECIFIED') ) ;
#91 = APPROVAL ( #174, 'UNSPECIFIED' ) ;
#92 = DATE_AND_TIME ( #103, #154 ) ;
#93 = ORIENTED_EDGE ( 'NONE', *, *, #328, .T. ) ;
#94 = EDGE_CURVE ( 'NONE', #273, #201, #16, .T. ) ;
#95 = CYLINDRICAL_SURFACE ( 'NONE', #204, 3.450000000000000178 ) ;
#96 = CARTESIAN_POINT ( 'NONE',  ( 1.024999999999999911, 1.255262969126036846E-16, 1.399999999999999911 ) ) ;
#97 = CC_DESIGN_PERSON_AND_ORGANIZATION_ASSIGNMENT ( #37, #302, ( #238 ) ) ;
#98 = ADVANCED_BREP_SHAPE_REPRESENTATION ( 'wheel', ( #185, #286 ), #43 ) ;
#99 = CARTESIAN_POINT ( 'NONE',  ( 0.0000000000000000000, 0.0000000000000000000, 2.399999999999999911 ) ) ;
#100 = ORIENTED_EDGE ( 'NONE', *, *, #115, .F. ) ;
#101 = CARTESIAN_POINT ( 'NONE',  ( 0.0000000000000000000, 0.0000000000000000000, 2.399999999999999911 ) ) ;
#102 = SECURITY_CLASSIFICATION ( '', '', #280 ) ;
#103 = CALENDAR_DATE ( 2019, 12, 12 ) ;
#104 = PERSON_AND_ORGANIZATION ( #90, #180 ) ;
#105 = CARTESIAN_POINT ( 'NONE',  ( -3.450000000000000178, 0.0000000000000000000, 0.0000000000000000000 ) ) ;
#106 = DIRECTION ( 'NONE',  ( 0.0000000000000000000, 0.0000000000000000000, -1.000000000000000000 ) ) ;
#107 = PRODUCT ( 'wheel', 'wheel', '', ( #228 ) ) ;
#108 = CARTESIAN_POINT ( 'NONE',  ( 0.0000000000000000000, 0.0000000000000000000, 1.399999999999999911 ) ) ;
#109 = APPLICATION_CONTEXT ( 'configuration controlled 3d designs of mechanical parts and assemblies' ) ;
#110 = VECTOR ( 'NONE', #218, 1000.000000000000000 ) ;
#111 = EDGE_CURVE ( 'NONE', #178, #215, #247, .T. ) ;
#112 = ORIENTED_EDGE ( 'NONE', *, *, #125, .T. ) ;
#113 = APPROVAL_ROLE ( '' ) ;
#114 = FACE_OUTER_BOUND ( 'NONE', #169, .T. ) ;
#115 = EDGE_CURVE ( 'NONE', #74, #133, #22, .T. ) ;
#116 = VECTOR ( 'NONE', #78, 1000.000000000000000 ) ;
#117 = CARTESIAN_POINT ( 'NONE',  ( 0.0000000000000000000, 0.0000000000000000000, 1.399999999999999911 ) ) ;
#118 = CC_DESIGN_PERSON_AND_ORGANIZATION_ASSIGNMENT ( #9, #63, ( #102 ) ) ;
#119 = AXIS2_PLACEMENT_3D ( 'NONE', #151, #303, #36 ) ;
#120 = PLANE ( 'NONE',  #176 ) ;
#121 = DIRECTION ( 'NONE',  ( -1.000000000000000000, 0.0000000000000000000, 0.0000000000000000000 ) ) ;
#122 = DATE_AND_TIME ( #167, #323 ) ;
#123 = DIRECTION ( 'NONE',  ( -0.0000000000000000000, -0.0000000000000000000, -1.000000000000000000 ) ) ;
#124 = CARTESIAN_POINT ( 'NONE',  ( 0.0000000000000000000, 0.0000000000000000000, 0.0000000000000000000 ) ) ;
#125 = EDGE_CURVE ( 'NONE', #287, #12, #277, .T. ) ;
#126 = LINE ( 'NONE', #245, #135 ) ;
#127 = CARTESIAN_POINT ( 'NONE',  ( -2.250000000000000000, 0.0000000000000000000, 1.399999999999999911 ) ) ;
#128 = DIRECTION ( 'NONE',  ( 1.000000000000000000, 0.0000000000000000000, 0.0000000000000000000 ) ) ;
#129 = CARTESIAN_POINT ( 'NONE',  ( 0.0000000000000000000, 0.0000000000000000000, 2.399999999999999911 ) ) ;
#130 = APPROVAL_STATUS ( 'not_yet_approved' ) ;
#131 = COORDINATED_UNIVERSAL_TIME_OFFSET ( 0, 0, .AHEAD. ) ;
#132 = LINE ( 'NONE', #77, #110 ) ;
#133 = VERTEX_POINT ( 'NONE', #32 ) ;
#134 = EDGE_CURVE ( 'NONE', #201, #215, #324, .T. ) ;
#135 = VECTOR ( 'NONE', #28, 1000.000000000000000 ) ;
#136 = ORIENTED_EDGE ( 'NONE', *, *, #134, .F. ) ;
#137 = PERSON_AND_ORGANIZATION ( #90, #180 ) ;
#138 = ADVANCED_FACE ( 'NONE', ( #289 ), #44, .F. ) ;
#139 = DATE_AND_TIME ( #148, #30 ) ;
#140 = CYLINDRICAL_SURFACE ( 'NONE', #49, 2.250000000000000000 ) ;
#141 = CARTESIAN_POINT ( 'NONE',  ( 0.0000000000000000000, 0.0000000000000000000, 1.399999999999999911 ) ) ;
#142 = ORIENTED_EDGE ( 'NONE', *, *, #235, .F. ) ;
#143 = AXIS2_PLACEMENT_3D ( 'NONE', #290, #189, #51 ) ;
#144 = DIRECTION ( 'NONE',  ( 1.000000000000000000, 0.0000000000000000000, 0.0000000000000000000 ) ) ;
#145 = CARTESIAN_POINT ( 'NONE',  ( 2.250000000000000000, 2.755455298081544285E-16, 1.399999999999999911 ) ) ;
#146 = PLANE ( 'NONE',  #261 ) ;
#147 = CC_DESIGN_DATE_AND_TIME_ASSIGNMENT ( #122, #230, ( #102 ) ) ;
#148 = CALENDAR_DATE ( 2019, 12, 12 ) ;
#149 = VECTOR ( 'NONE', #241, 1000.000000000000000 ) ;
#150 = VERTEX_POINT ( 'NONE', #326 ) ;
#151 = CARTESIAN_POINT ( 'NONE',  ( 0.0000000000000000000, 0.0000000000000000000, 2.399999999999999911 ) ) ;
#152 = DIRECTION ( 'NONE',  ( 0.0000000000000000000, 0.0000000000000000000, -1.000000000000000000 ) ) ;
#153 = ORIENTED_EDGE ( 'NONE', *, *, #229, .F. ) ;
#154 = LOCAL_TIME ( 17, 6, 58.00000000000000000, #156 ) ;
#155 = CYLINDRICAL_SURFACE ( 'NONE', #267, 1.024999999999999911 ) ;
#156 = COORDINATED_UNIVERSAL_TIME_OFFSET ( 0, 0, .AHEAD. ) ;
#157 = ADVANCED_FACE ( 'NONE', ( #10, #253 ), #120, .T. ) ;
#158 = AXIS2_PLACEMENT_3D ( 'NONE', #160, #25, #54 ) ;
#159 = CARTESIAN_POINT ( 'NONE',  ( 3.450000000000000178, 4.225031457058368824E-16, 2.399999999999999911 ) ) ;
#160 = CARTESIAN_POINT ( 'NONE',  ( 0.0000000000000000000, 0.0000000000000000000, 0.0000000000000000000 ) ) ;
#161 = DESIGN_CONTEXT ( 'detailed design', #109, 'design' ) ;
#162 = SHAPE_DEFINITION_REPRESENTATION ( #23, #98 ) ;
#163 = DIRECTION ( 'NONE',  ( 0.0000000000000000000, 0.0000000000000000000, 1.000000000000000000 ) ) ;
#164 = ORIENTED_EDGE ( 'NONE', *, *, #125, .F. ) ;
#165 = CARTESIAN_POINT ( 'NONE',  ( 0.0000000000000000000, 0.0000000000000000000, 1.399999999999999911 ) ) ;
#166 = DIRECTION ( 'NONE',  ( 0.0000000000000000000, 0.0000000000000000000, 1.000000000000000000 ) ) ;
#167 = CALENDAR_DATE ( 2019, 12, 12 ) ;
#168 = FACE_OUTER_BOUND ( 'NONE', #240, .T. ) ;
#169 = EDGE_LOOP ( 'NONE', ( #88, #263, #70, #112 ) ) ;
#170 = DIRECTION ( 'NONE',  ( -1.000000000000000000, 0.0000000000000000000, 0.0000000000000000000 ) ) ;
#171 = PERSON_AND_ORGANIZATION_ROLE ( 'design_supplier' ) ;
#172 = VECTOR ( 'NONE', #282, 1000.000000000000000 ) ;
#173 = DIRECTION ( 'NONE',  ( -1.000000000000000000, 0.0000000000000000000, 0.0000000000000000000 ) ) ;
#174 = APPROVAL_STATUS ( 'not_yet_approved' ) ;
#175 = LINE ( 'NONE', #217, #116 ) ;
#176 = AXIS2_PLACEMENT_3D ( 'NONE', #101, #166, #227 ) ;
#177 = CIRCLE ( 'NONE', #20, 1.024999999999999911 ) ;
#178 = VERTEX_POINT ( 'NONE', #145 ) ;
#179 = PERSON_AND_ORGANIZATION ( #90, #180 ) ;
#180 = ORGANIZATION ( 'UNSPECIFIED', 'UNSPECIFIED', '' ) ;
#181 = ORIENTED_EDGE ( 'NONE', *, *, #94, .F. ) ;
#182 = CARTESIAN_POINT ( 'NONE',  ( -2.250000000000000000, 0.0000000000000000000, 1.399999999999999911 ) ) ;
#183 = CC_DESIGN_SECURITY_CLASSIFICATION ( #102, ( #40 ) ) ;
#184 = FACE_OUTER_BOUND ( 'NONE', #232, .T. ) ;
#185 = MANIFOLD_SOLID_BREP ( 'Cut-Extrude1', #75 ) ;
#186 = EDGE_CURVE ( 'NONE', #264, #150, #177, .T. ) ;
#187 = ADVANCED_FACE ( 'NONE', ( #83, #268 ), #146, .T. ) ;
#188 = EDGE_LOOP ( 'NONE', ( #136, #55 ) ) ;
#189 = DIRECTION ( 'NONE',  ( 0.0000000000000000000, 0.0000000000000000000, 1.000000000000000000 ) ) ;
#190 = EDGE_CURVE ( 'NONE', #133, #74, #198, .T. ) ;
#191 = DIRECTION ( 'NONE',  ( 0.0000000000000000000, 0.0000000000000000000, -1.000000000000000000 ) ) ;
#192 = CIRCLE ( 'NONE', #158, 2.250000000000000000 ) ;
#193 = EDGE_LOOP ( 'NONE', ( #89, #288, #260, #181 ) ) ;
#194 = DIRECTION ( 'NONE',  ( -0.0000000000000000000, -0.0000000000000000000, -1.000000000000000000 ) ) ;
#195 = DIRECTION ( 'NONE',  ( 1.000000000000000000, 0.0000000000000000000, 0.0000000000000000000 ) ) ;
#196 = EDGE_CURVE ( 'NONE', #150, #12, #126, .T. ) ;
#197 = DIRECTION ( 'NONE',  ( -0.0000000000000000000, -0.0000000000000000000, -1.000000000000000000 ) ) ;
#198 = CIRCLE ( 'NONE', #270, 3.450000000000000178 ) ;
#199 = UNCERTAINTY_MEASURE_WITH_UNIT (LENGTH_MEASURE( 1.000000000000000082E-05 ), #66, 'distance_accuracy_value', 'NONE');
#200 = DIRECTION ( 'NONE',  ( -1.000000000000000000, 0.0000000000000000000, 0.0000000000000000000 ) ) ;
#201 = VERTEX_POINT ( 'NONE', #1 ) ;
#202 =( NAMED_UNIT ( * ) PLANE_ANGLE_UNIT ( ) SI_UNIT ( $, .RADIAN. ) );
#203 = DIRECTION ( 'NONE',  ( -1.000000000000000000, 0.0000000000000000000, 0.0000000000000000000 ) ) ;
#204 = AXIS2_PLACEMENT_3D ( 'NONE', #129, #7, #257 ) ;
#205 = APPROVAL_STATUS ( 'not_yet_approved' ) ;
#206 = APPROVAL_DATE_TIME ( #208, #18 ) ;
#207 = EDGE_LOOP ( 'NONE', ( #244, #142 ) ) ;
#208 = DATE_AND_TIME ( #311, #41 ) ;
#209 = FACE_OUTER_BOUND ( 'NONE', #59, .T. ) ;
#210 = ORIENTED_EDGE ( 'NONE', *, *, #310, .F. ) ;
#211 = AXIS2_PLACEMENT_3D ( 'NONE', #319, #163, #265 ) ;
#212 = EDGE_CURVE ( 'NONE', #318, #222, #4, .T. ) ;
#213 = ADVANCED_FACE ( 'NONE', ( #184 ), #155, .F. ) ;
#214 = FACE_OUTER_BOUND ( 'NONE', #234, .T. ) ;
#215 = VERTEX_POINT ( 'NONE', #248 ) ;
#216 = ORIENTED_EDGE ( 'NONE', *, *, #60, .T. ) ;
#217 = CARTESIAN_POINT ( 'NONE',  ( 3.450000000000000178, 4.225031457058368824E-16, 2.399999999999999911 ) ) ;
#218 = DIRECTION ( 'NONE',  ( -0.0000000000000000000, -0.0000000000000000000, -1.000000000000000000 ) ) ;
#219 = CC_DESIGN_PERSON_AND_ORGANIZATION_ASSIGNMENT ( #104, #3, ( #107 ) ) ;
#220 = ORIENTED_EDGE ( 'NONE', *, *, #65, .T. ) ;
#221 = DIRECTION ( 'NONE',  ( -1.000000000000000000, 0.0000000000000000000, 0.0000000000000000000 ) ) ;
#222 = VERTEX_POINT ( 'NONE', #105 ) ;
#223 = CARTESIAN_POINT ( 'NONE',  ( 0.0000000000000000000, 0.0000000000000000000, 2.399999999999999911 ) ) ;
#224 = COORDINATED_UNIVERSAL_TIME_OFFSET ( 0, 0, .AHEAD. ) ;
#225 = ORIENTED_EDGE ( 'NONE', *, *, #65, .F. ) ;
#226 = ORIENTED_EDGE ( 'NONE', *, *, #80, .F. ) ;
#227 = DIRECTION ( 'NONE',  ( 1.000000000000000000, 0.0000000000000000000, -0.0000000000000000000 ) ) ;
#228 = MECHANICAL_CONTEXT ( 'NONE', #255, 'mechanical' ) ;
#229 = EDGE_CURVE ( 'NONE', #133, #222, #69, .T. ) ;
#230 = DATE_TIME_ROLE ( 'classification_date' ) ;
#231 = PERSON_AND_ORGANIZATION ( #90, #180 ) ;
#232 = EDGE_LOOP ( 'NONE', ( #233, #42, #216, #226 ) ) ;
#233 = ORIENTED_EDGE ( 'NONE', *, *, #186, .T. ) ;
#234 = EDGE_LOOP ( 'NONE', ( #225, #308 ) ) ;
#235 = EDGE_CURVE ( 'NONE', #150, #264, #307, .T. ) ;
#236 = CIRCLE ( 'NONE', #281, 2.250000000000000000 ) ;
#237 = ORIENTED_EDGE ( 'NONE', *, *, #190, .F. ) ;
#238 = PRODUCT_DEFINITION ( 'UNKNOWN', '', #40, #161 ) ;
#239 = APPROVAL_PERSON_ORGANIZATION ( #179, #91, #67 ) ;
#240 = EDGE_LOOP ( 'NONE', ( #100, #293, #84, #153 ) ) ;
#241 = DIRECTION ( 'NONE',  ( -0.0000000000000000000, -0.0000000000000000000, -1.000000000000000000 ) ) ;
#242 = ADVANCED_FACE ( 'NONE', ( #259 ), #95, .T. ) ;
#243 = CIRCLE ( 'NONE', #27, 2.250000000000000000 ) ;
#244 = ORIENTED_EDGE ( 'NONE', *, *, #186, .F. ) ;
#245 = CARTESIAN_POINT ( 'NONE',  ( 1.024999999999999911, 1.255262969126036846E-16, 2.399999999999999911 ) ) ;
#246 = DATE_AND_TIME ( #17, #72 ) ;
#247 = LINE ( 'NONE', #46, #149 ) ;
#248 = CARTESIAN_POINT ( 'NONE',  ( 2.250000000000000000, 2.755455298081544285E-16, 0.0000000000000000000 ) ) ;
#249 = DIRECTION ( 'NONE',  ( 1.000000000000000000, 0.0000000000000000000, 0.0000000000000000000 ) ) ;
#250 = CC_DESIGN_PERSON_AND_ORGANIZATION_ASSIGNMENT ( #231, #284, ( #40 ) ) ;
#251 = CARTESIAN_POINT ( 'NONE',  ( -1.024999999999999911, 0.0000000000000000000, 1.399999999999999911 ) ) ;
#252 = APPLICATION_PROTOCOL_DEFINITION ( 'international standard', 'config_control_design', 1994, #109 ) ;
#253 = FACE_BOUND ( 'NONE', #207, .T. ) ;
#254 = CARTESIAN_POINT ( 'NONE',  ( 0.0000000000000000000, 0.0000000000000000000, 1.399999999999999911 ) ) ;
#255 = APPLICATION_CONTEXT ( 'configuration controlled 3d designs of mechanical parts and assemblies' ) ;
#256 = AXIS2_PLACEMENT_3D ( 'NONE', #295, #276, #144 ) ;
#257 = DIRECTION ( 'NONE',  ( -1.000000000000000000, 0.0000000000000000000, 0.0000000000000000000 ) ) ;
#258 = CC_DESIGN_APPROVAL ( #315, ( #102 ) ) ;
#259 = FACE_OUTER_BOUND ( 'NONE', #45, .T. ) ;
#260 = ORIENTED_EDGE ( 'NONE', *, *, #34, .T. ) ;
#261 = AXIS2_PLACEMENT_3D ( 'NONE', #274, #329, #58 ) ;
#262 = APPROVAL_DATE_TIME ( #92, #315 ) ;
#263 = ORIENTED_EDGE ( 'NONE', *, *, #235, .T. ) ;
#264 = VERTEX_POINT ( 'NONE', #81 ) ;
#265 = DIRECTION ( 'NONE',  ( 1.000000000000000000, 0.0000000000000000000, 0.0000000000000000000 ) ) ;
#266 = ADVANCED_FACE ( 'NONE', ( #114 ), #309, .F. ) ;
#267 = AXIS2_PLACEMENT_3D ( 'NONE', #223, #123, #221 ) ;
#268 = FACE_OUTER_BOUND ( 'NONE', #279, .T. ) ;
#269 = PLANE ( 'NONE',  #143 ) ;
#270 = AXIS2_PLACEMENT_3D ( 'NONE', #320, #296, #56 ) ;
#271 = PERSON_AND_ORGANIZATION ( #90, #180 ) ;
#272 = CARTESIAN_POINT ( 'NONE',  ( 0.0000000000000000000, 0.0000000000000000000, 1.399999999999999911 ) ) ;
#273 = VERTEX_POINT ( 'NONE', #127 ) ;
#274 = CARTESIAN_POINT ( 'NONE',  ( 0.0000000000000000000, 0.0000000000000000000, 1.399999999999999911 ) ) ;
#275 = DIRECTION ( 'NONE',  ( 0.0000000000000000000, 0.0000000000000000000, 1.000000000000000000 ) ) ;
#276 = DIRECTION ( 'NONE',  ( 0.0000000000000000000, 0.0000000000000000000, 1.000000000000000000 ) ) ;
#277 = CIRCLE ( 'NONE', #76, 1.024999999999999911 ) ;
#278 =( NAMED_UNIT ( * ) SI_UNIT ( $, .STERADIAN. ) SOLID_ANGLE_UNIT ( ) );
#279 = EDGE_LOOP ( 'NONE', ( #38, #93 ) ) ;
#280 = SECURITY_CLASSIFICATION_LEVEL ( 'unclassified' ) ;
#281 = AXIS2_PLACEMENT_3D ( 'NONE', #108, #106, #283 ) ;
#282 = DIRECTION ( 'NONE',  ( -0.0000000000000000000, -0.0000000000000000000, -1.000000000000000000 ) ) ;
#283 = DIRECTION ( 'NONE',  ( -1.000000000000000000, 0.0000000000000000000, 0.0000000000000000000 ) ) ;
#284 = PERSON_AND_ORGANIZATION_ROLE ( 'creator' ) ;
#285 = CIRCLE ( 'NONE', #68, 1.024999999999999911 ) ;
#286 = AXIS2_PLACEMENT_3D ( 'NONE', #86, #11, #128 ) ;
#287 = VERTEX_POINT ( 'NONE', #251 ) ;
#288 = ORIENTED_EDGE ( 'NONE', *, *, #111, .T. ) ;
#289 = FACE_OUTER_BOUND ( 'NONE', #193, .T. ) ;
#290 = CARTESIAN_POINT ( 'NONE',  ( 0.0000000000000000000, 0.0000000000000000000, 0.0000000000000000000 ) ) ;
#291 = AXIS2_PLACEMENT_3D ( 'NONE', #299, #8, #173 ) ;
#292 = DIRECTION ( 'NONE',  ( 0.0000000000000000000, 0.0000000000000000000, -1.000000000000000000 ) ) ;
#293 = ORIENTED_EDGE ( 'NONE', *, *, #6, .T. ) ;
#294 = DIRECTION ( 'NONE',  ( 0.0000000000000000000, 0.0000000000000000000, 1.000000000000000000 ) ) ;
#295 = CARTESIAN_POINT ( 'NONE',  ( 0.0000000000000000000, 0.0000000000000000000, 2.399999999999999911 ) ) ;
#296 = DIRECTION ( 'NONE',  ( 0.0000000000000000000, 0.0000000000000000000, 1.000000000000000000 ) ) ;
#297 = DIRECTION ( 'NONE',  ( 0.0000000000000000000, 0.0000000000000000000, -1.000000000000000000 ) ) ;
#298 = CC_DESIGN_APPROVAL ( #91, ( #40 ) ) ;
#299 = CARTESIAN_POINT ( 'NONE',  ( 0.0000000000000000000, 0.0000000000000000000, 2.399999999999999911 ) ) ;
#300 = CARTESIAN_POINT ( 'NONE',  ( 3.450000000000000178, 4.225031457058368824E-16, 0.0000000000000000000 ) ) ;
#301 = APPROVAL_PERSON_ORGANIZATION ( #52, #18, #113 ) ;
#302 = PERSON_AND_ORGANIZATION_ROLE ( 'creator' ) ;
#303 = DIRECTION ( 'NONE',  ( 0.0000000000000000000, 0.0000000000000000000, 1.000000000000000000 ) ) ;
#304 = AXIS2_PLACEMENT_3D ( 'NONE', #124, #297, #121 ) ;
#305 = DATE_TIME_ROLE ( 'creation_date' ) ;
#306 = CC_DESIGN_DATE_AND_TIME_ASSIGNMENT ( #139, #305, ( #238 ) ) ;
#307 = CIRCLE ( 'NONE', #119, 1.024999999999999911 ) ;
#308 = ORIENTED_EDGE ( 'NONE', *, *, #212, .F. ) ;
#309 = CYLINDRICAL_SURFACE ( 'NONE', #57, 1.024999999999999911 ) ;
#310 = EDGE_CURVE ( 'NONE', #273, #178, #236, .T. ) ;
#311 = CALENDAR_DATE ( 2019, 12, 12 ) ;
#312 = COORDINATED_UNIVERSAL_TIME_OFFSET ( 0, 0, .AHEAD. ) ;
#313 = DIRECTION ( 'NONE',  ( -0.0000000000000000000, -0.0000000000000000000, -1.000000000000000000 ) ) ;
#314 = ADVANCED_FACE ( 'NONE', ( #168 ), #73, .T. ) ;
#315 = APPROVAL ( #130, 'UNSPECIFIED' ) ;
#316 = VECTOR ( 'NONE', #197, 1000.000000000000000 ) ;
#317 = ORIENTED_EDGE ( 'NONE', *, *, #190, .T. ) ;
#318 = VERTEX_POINT ( 'NONE', #300 ) ;
#319 = CARTESIAN_POINT ( 'NONE',  ( 0.0000000000000000000, 0.0000000000000000000, 0.0000000000000000000 ) ) ;
#320 = CARTESIAN_POINT ( 'NONE',  ( 0.0000000000000000000, 0.0000000000000000000, 2.399999999999999911 ) ) ;
#321 = AXIS2_PLACEMENT_3D ( 'NONE', #165, #194, #322 ) ;
#322 = DIRECTION ( 'NONE',  ( -1.000000000000000000, 0.0000000000000000000, 0.0000000000000000000 ) ) ;
#323 = LOCAL_TIME ( 17, 6, 58.00000000000000000, #131 ) ;
#324 = CIRCLE ( 'NONE', #304, 2.250000000000000000 ) ;
#325 = ORIENTED_EDGE ( 'NONE', *, *, #60, .F. ) ;
#326 = CARTESIAN_POINT ( 'NONE',  ( 1.024999999999999911, 1.255262969126036846E-16, 2.399999999999999911 ) ) ;
#327 = ORIENTED_EDGE ( 'NONE', *, *, #134, .T. ) ;
#328 = EDGE_CURVE ( 'NONE', #178, #273, #243, .T. ) ;
#329 = DIRECTION ( 'NONE',  ( 0.0000000000000000000, 0.0000000000000000000, -1.000000000000000000 ) ) ;
ENDSEC;
END-ISO-10303-21;
