ISO-10303-21;
HEADER;
FILE_DESCRIPTION (( 'STEP AP203' ),
    '1' );
FILE_NAME ('Encoder wheel 2.STEP',
    '2019-12-12T16:21:19',
    ( '' ),
    ( '' ),
    'SwSTEP 2.0',
    'SolidWorks 2018',
    '' );
FILE_SCHEMA (( 'CONFIG_CONTROL_DESIGN' ));
ENDSEC;

DATA;
#1 = CARTESIAN_POINT ( 'NONE',  ( 0.0000000000000000000, 5.500000000000000000, 0.0000000000000000000 ) ) ;
#2 = ORIENTED_EDGE ( 'NONE', *, *, #292, .F. ) ;
#3 = DIRECTION ( 'NONE',  ( -0.0000000000000000000, -1.000000000000000000, -0.0000000000000000000 ) ) ;
#4 = CIRCLE ( 'NONE', #474, 13.00000000000000178 ) ;
#5 = CIRCLE ( 'NONE', #329, 13.00000000000000178 ) ;
#6 = AXIS2_PLACEMENT_3D ( 'NONE', #351, #3, #467 ) ;
#7 = CARTESIAN_POINT ( 'NONE',  ( 2.861397053862096751, 2.456142282451121872, 1.197773850087449965 ) ) ;
#8 = ADVANCED_FACE ( 'NONE', ( #241 ), #421, .F. ) ;
#9 = VERTEX_POINT ( 'NONE', #699 ) ;
#10 = ORIENTED_EDGE ( 'NONE', *, *, #418, .F. ) ;
#11 = CIRCLE ( 'NONE', #237, 3.100000000000000089 ) ;
#12 = EDGE_CURVE ( 'NONE', #518, #432, #5, .T. ) ;
#13 = DIRECTION ( 'NONE',  ( 0.0000000000000000000, 0.0000000000000000000, -1.000000000000000000 ) ) ;
#14 = TOROIDAL_SURFACE ( 'NONE', #119, 13.00000000000000178, 1.200000000000000400 ) ;
#15 = EDGE_LOOP ( 'NONE', ( #55, #677, #638, #222 ) ) ;
#16 = ORIENTED_EDGE ( 'NONE', *, *, #105, .F. ) ;
#17 = CARTESIAN_POINT ( 'NONE',  ( 33.00000000000001421, 4.000000000000000000, 1.950000000000001288 ) ) ;
#18 = CARTESIAN_POINT ( 'NONE',  ( 0.0000000000000000000, 0.0000000000000000000, 3.000000000000000444 ) ) ;
#19 = ORIENTED_EDGE ( 'NONE', *, *, #708, .T. ) ;
#20 = ORIENTED_EDGE ( 'NONE', *, *, #290, .T. ) ;
#21 = CARTESIAN_POINT ( 'NONE',  ( 0.0000000000000000000, 0.0000000000000000000, 3.100000000000000089 ) ) ;
#22 = EDGE_CURVE ( 'NONE', #706, #323, #223, .T. ) ;
#23 = CYLINDRICAL_SURFACE ( 'NONE', #669, 1.950000000000001288 ) ;
#24 = CARTESIAN_POINT ( 'NONE',  ( 2.940365857942671024, 5.685726718665456758, 0.9882478837236973179 ) ) ;
#25 = AXIS2_PLACEMENT_3D ( 'NONE', #1, #110, #735 ) ;
#26 = VERTEX_POINT ( 'NONE', #18 ) ;
#27 = DIRECTION ( 'NONE',  ( 0.0000000000000000000, 1.000000000000000000, 0.0000000000000000000 ) ) ;
#28 = CARTESIAN_POINT ( 'NONE',  ( 0.0000000000000000000, 0.0000000000000000000, 0.0000000000000000000 ) ) ;
#29 = CARTESIAN_POINT ( 'NONE',  ( 12.99811033010674954, 5.937516603763949519, 0.2543800631236978749 ) ) ;
#30 = CARTESIAN_POINT ( 'NONE',  ( 3.673940397442060361E-16, -5.000000000000000000, -3.000000000000000444 ) ) ;
#31 = CARTESIAN_POINT ( 'NONE',  ( 0.0000000000000000000, 5.500000000000000000, -13.00000000000000178 ) ) ;
#32 = CARTESIAN_POINT ( 'NONE',  ( 12.93615750270834219, 5.467877926634209906, -1.289955932216088730 ) ) ;
#33 = CIRCLE ( 'NONE', #226, 11.80000000000000071 ) ;
#34 = PRODUCT_RELATED_PRODUCT_CATEGORY ( 'detail', '', ( #339 ) ) ;
#35 = CARTESIAN_POINT ( 'NONE',  ( 12.93636625196964651, 2.530226517436314992, -1.287936180488931770 ) ) ;
#36 = LINE ( 'NONE', #43, #459 ) ;
#37 = DIRECTION ( 'NONE',  ( 0.0000000000000000000, 0.0000000000000000000, 1.000000000000000000 ) ) ;
#38 = VERTEX_POINT ( 'NONE', #21 ) ;
#39 = CARTESIAN_POINT ( 'NONE',  ( 12.86224528819916557, 3.494627132454128038, 1.887664209257362780 ) ) ;
#40 = DIRECTION ( 'NONE',  ( 0.0000000000000000000, 0.0000000000000000000, 1.000000000000000000 ) ) ;
#41 = CARTESIAN_POINT ( 'NONE',  ( 3.673940397442060361E-16, -5.000000000000000000, -3.000000000000000444 ) ) ;
#42 = EDGE_CURVE ( 'NONE', #576, #9, #364, .T. ) ;
#43 = CARTESIAN_POINT ( 'NONE',  ( 0.0000000000000000000, -5.000000000000000000, 3.000000000000000444 ) ) ;
#44 = DIRECTION ( 'NONE',  ( -0.0000000000000000000, 1.000000000000000000, -0.0000000000000000000 ) ) ;
#45 = ORIENTED_EDGE ( 'NONE', *, *, #127, .T. ) ;
#46 = CARTESIAN_POINT ( 'NONE',  ( 1.592040838891559293E-15, 5.500000000000000000, 13.00000000000000178 ) ) ;
#47 = ORIENTED_EDGE ( 'NONE', *, *, #394, .F. ) ;
#48 = CARTESIAN_POINT ( 'NONE',  ( 1.592040838891559293E-15, 13.69999999999999751, 13.00000000000000178 ) ) ;
#49 = DIRECTION ( 'NONE',  ( 0.0000000000000000000, -1.000000000000000000, 0.0000000000000000000 ) ) ;
#50 = FACE_OUTER_BOUND ( 'NONE', #309, .T. ) ;
#51 = DIRECTION ( 'NONE',  ( -0.0000000000000000000, 1.000000000000000000, -0.0000000000000000000 ) ) ;
#52 = DIRECTION ( 'NONE',  ( 0.0000000000000000000, 0.0000000000000000000, -1.000000000000000000 ) ) ;
#53 = DIRECTION ( 'NONE',  ( -0.0000000000000000000, -1.000000000000000000, -0.0000000000000000000 ) ) ;
#54 = SHAPE_DEFINITION_REPRESENTATION ( #221, #397 ) ;
#55 = ORIENTED_EDGE ( 'NONE', *, *, #300, .F. ) ;
#56 = EDGE_CURVE ( 'NONE', #181, #576, #210, .T. ) ;
#57 = DIRECTION ( 'NONE',  ( -1.224646799147353207E-16, 0.0000000000000000000, -1.000000000000000000 ) ) ;
#58 = ADVANCED_FACE ( 'NONE', ( #60, #75 ), #197, .T. ) ;
#59 = AXIS2_PLACEMENT_3D ( 'NONE', #355, #183, #619 ) ;
#60 = FACE_OUTER_BOUND ( 'NONE', #498, .T. ) ;
#61 = CARTESIAN_POINT ( 'NONE',  ( 2.409875515457178707, 4.000000000000001776, -1.950000000000001510 ) ) ;
#62 = PERSON_AND_ORGANIZATION_ROLE ( 'design_owner' ) ;
#63 = EDGE_LOOP ( 'NONE', ( #412, #246, #196, #298 ) ) ;
#64 = EDGE_LOOP ( 'NONE', ( #650, #10 ) ) ;
#65 = CARTESIAN_POINT ( 'NONE',  ( 2.818241309696913444, 2.536856629961710130, 1.295000261633841188 ) ) ;
#66 = ORIENTED_EDGE ( 'NONE', *, *, #56, .T. ) ;
#67 = VECTOR ( 'NONE', #259, 1000.000000000000000 ) ;
#68 = CARTESIAN_POINT ( 'NONE',  ( 2.974778200791693195, 2.255463855158399422, 0.8805329671613570941 ) ) ;
#69 = CC_DESIGN_PERSON_AND_ORGANIZATION_ASSIGNMENT ( #705, #569, ( #386 ) ) ;
#70 = EDGE_CURVE ( 'NONE', #391, #372, #108, .T. ) ;
#71 = PERSON_AND_ORGANIZATION ( #401, #733 ) ;
#72 = AXIS2_PLACEMENT_3D ( 'NONE', #398, #51, #678 ) ;
#73 = ORIENTED_EDGE ( 'NONE', *, *, #178, .F. ) ;
#74 = FACE_OUTER_BOUND ( 'NONE', #264, .T. ) ;
#75 = FACE_BOUND ( 'NONE', #64, .T. ) ;
#76 = AXIS2_PLACEMENT_3D ( 'NONE', #617, #456, #502 ) ;
#77 = EDGE_CURVE ( 'NONE', #707, #437, #477, .T. ) ;
#78 = EDGE_LOOP ( 'NONE', ( #144, #98 ) ) ;
#79 = AXIS2_PLACEMENT_3D ( 'NONE', #207, #717, #390 ) ;
#80 = CARTESIAN_POINT ( 'NONE',  ( 2.421258818363086096, 4.265950024012995279, 1.936132326563038797 ) ) ;
#81 = CARTESIAN_POINT ( 'NONE',  ( 1.530808498934191521E-15, -5.000000000000000000, -12.50000000000000000 ) ) ;
#82 = LOCAL_TIME ( 16, 21, 19.00000000000000000, #400 ) ;
#83 = ORIENTED_EDGE ( 'NONE', *, *, #22, .T. ) ;
#84 = DIRECTION ( 'NONE',  ( 0.0000000000000000000, 0.0000000000000000000, 1.000000000000000000 ) ) ;
#85 = TOROIDAL_SURFACE ( 'NONE', #687, 13.00000000000000178, 1.200000000000000400 ) ;
#86 = CARTESIAN_POINT ( 'NONE',  ( 0.0000000000000000000, 0.0000000000000000000, 0.0000000000000000000 ) ) ;
#87 = CARTESIAN_POINT ( 'NONE',  ( 12.90761749230928501, 5.200378014620838485, 1.557577671846769096 ) ) ;
#88 = ORIENTED_EDGE ( 'NONE', *, *, #251, .T. ) ;
#89 = CARTESIAN_POINT ( 'NONE',  ( 12.91698106672189006, 2.711954130086996262, -1.469677356449317740 ) ) ;
#90 = DIRECTION ( 'NONE',  ( -0.0000000000000000000, -1.000000000000000000, -0.0000000000000000000 ) ) ;
#91 = CARTESIAN_POINT ( 'NONE',  ( 12.97163261890930563, 5.751603625862229840, -0.8664525368875248823 ) ) ;
#92 = ORIENTED_EDGE ( 'NONE', *, *, #12, .T. ) ;
#93 = CARTESIAN_POINT ( 'NONE',  ( 12.85291795663537329, 3.872640640971427128, -1.950000000000001288 ) ) ;
#94 = EDGE_CURVE ( 'NONE', #576, #181, #528, .T. ) ;
#95 = CARTESIAN_POINT ( 'NONE',  ( 12.85487333908950625, 3.743260453040873958, -1.937232513197771011 ) ) ;
#96 = CARTESIAN_POINT ( 'NONE',  ( 0.0000000000000000000, 5.500000000000000000, 0.0000000000000000000 ) ) ;
#97 = CARTESIAN_POINT ( 'NONE',  ( 12.93634089269291287, 5.469479569273775432, 1.288116334397684026 ) ) ;
#98 = ORIENTED_EDGE ( 'NONE', *, *, #525, .F. ) ;
#99 = DIRECTION ( 'NONE',  ( 0.0000000000000000000, -0.0000000000000000000, -1.000000000000000000 ) ) ;
#100 = CARTESIAN_POINT ( 'NONE',  ( 12.99073936818011532, 2.112563140568170628, -0.5063195718723966232 ) ) ;
#101 = CARTESIAN_POINT ( 'NONE',  ( 2.731839827778457241, 2.711104532994497163, -1.468533684170975961 ) ) ;
#102 = DIRECTION ( 'NONE',  ( 0.0000000000000000000, 0.0000000000000000000, -1.000000000000000000 ) ) ;
#103 = EDGE_CURVE ( 'NONE', #716, #323, #380, .T. ) ;
#104 =( LENGTH_UNIT ( ) NAMED_UNIT ( * ) SI_UNIT ( .MILLI., .METRE. ) );
#105 = EDGE_CURVE ( 'NONE', #26, #470, #308, .T. ) ;
#106 = DIRECTION ( 'NONE',  ( -0.0000000000000000000, 1.000000000000000000, -0.0000000000000000000 ) ) ;
#107 = VECTOR ( 'NONE', #661, 1000.000000000000000 ) ;
#108 = CIRCLE ( 'NONE', #584, 3.100000000000000089 ) ;
#109 = ADVANCED_FACE ( 'NONE', ( #585, #663 ), #493, .F. ) ;
#110 = DIRECTION ( 'NONE',  ( -0.0000000000000000000, -1.000000000000000000, -0.0000000000000000000 ) ) ;
#111 = ORIENTED_EDGE ( 'NONE', *, *, #418, .T. ) ;
#112 = LOCAL_TIME ( 16, 21, 19.00000000000000000, #549 ) ;
#113 = CARTESIAN_POINT ( 'NONE',  ( 3.100361493686258019, 2.049425316891175353, -0.2599383000012300271 ) ) ;
#114 = APPROVAL_ROLE ( '' ) ;
#115 = FACE_BOUND ( 'NONE', #734, .T. ) ;
#116 = AXIS2_PLACEMENT_3D ( 'NONE', #529, #424, #13 ) ;
#117 = EDGE_CURVE ( 'NONE', #126, #629, #468, .T. ) ;
#118 = CARTESIAN_POINT ( 'NONE',  ( 0.0000000000000000000, 13.69999999999999751, 0.0000000000000000000 ) ) ;
#119 = AXIS2_PLACEMENT_3D ( 'NONE', #612, #668, #334 ) ;
#120 = CARTESIAN_POINT ( 'NONE',  ( 2.939546362352327691, 2.315708941838333867, 0.9906172214257139563 ) ) ;
#121 = CARTESIAN_POINT ( 'NONE',  ( 3.091049173752733914, 5.935847190640043181, -0.2677548370996246097 ) ) ;
#122 = LINE ( 'NONE', #439, #301 ) ;
#123 = ADVANCED_FACE ( 'NONE', ( #179, #403 ), #711, .F. ) ;
#124 = CARTESIAN_POINT ( 'NONE',  ( 2.686896309318000498, 5.191950600061219667, -1.548292813562483605 ) ) ;
#125 = EDGE_CURVE ( 'NONE', #618, #9, #190, .T. ) ;
#126 = VERTEX_POINT ( 'NONE', #730 ) ;
#127 = EDGE_CURVE ( 'NONE', #716, #136, #564, .T. ) ;
#128 = EDGE_CURVE ( 'NONE', #629, #707, #349, .T. ) ;
#129 = VECTOR ( 'NONE', #665, 1000.000000000000000 ) ;
#130 = CARTESIAN_POINT ( 'NONE',  ( 2.601963084644052682, 4.985670507730649348, -1.687130854351710729 ) ) ;
#131 = CARTESIAN_POINT ( 'NONE',  ( 2.409875515457176931, 4.000000000000000888, 1.950000000000001288 ) ) ;
#132 = CARTESIAN_POINT ( 'NONE',  ( 2.819535986783650472, 5.465650399950767735, 1.292229667054132003 ) ) ;
#133 = ORIENTED_EDGE ( 'NONE', *, *, #500, .T. ) ;
#134 = CC_DESIGN_SECURITY_CLASSIFICATION ( #286, ( #386 ) ) ;
#135 = EDGE_CURVE ( 'NONE', #372, #391, #446, .T. ) ;
#136 = VERTEX_POINT ( 'NONE', #659 ) ;
#137 = FACE_OUTER_BOUND ( 'NONE', #440, .T. ) ;
#138 = CARTESIAN_POINT ( 'NONE',  ( 0.0000000000000000000, 14.49999999999999822, 0.0000000000000000000 ) ) ;
#139 = AXIS2_PLACEMENT_3D ( 'NONE', #727, #44, #495 ) ;
#140 = ORIENTED_EDGE ( 'NONE', *, *, #103, .F. ) ;
#141 = CARTESIAN_POINT ( 'NONE',  ( 0.0000000000000000000, 14.49999999999999822, 0.0000000000000000000 ) ) ;
#142 = PLANE ( 'NONE',  #233 ) ;
#143 = DIRECTION ( 'NONE',  ( 0.0000000000000000000, 1.000000000000000000, 0.0000000000000000000 ) ) ;
#144 = ORIENTED_EDGE ( 'NONE', *, *, #127, .F. ) ;
#145 = DIRECTION ( 'NONE',  ( -1.000000000000000000, 0.0000000000000000000, 0.0000000000000000000 ) ) ;
#146 = CARTESIAN_POINT ( 'NONE',  ( 12.99998734433235903, 5.949915628864922645, -0.1301408354665347655 ) ) ;
#147 = FACE_OUTER_BOUND ( 'NONE', #625, .T. ) ;
#148 = CARTESIAN_POINT ( 'NONE',  ( 0.0000000000000000000, 12.49999999999999645, 0.0000000000000000000 ) ) ;
#149 = ORIENTED_EDGE ( 'NONE', *, *, #634, .F. ) ;
#150 = CARTESIAN_POINT ( 'NONE',  ( 0.0000000000000000000, -5.000000000000000000, 0.0000000000000000000 ) ) ;
#151 = CARTESIAN_POINT ( 'NONE',  ( 1.592040838891559293E-15, 5.500000000000000000, 13.00000000000000178 ) ) ;
#152 = ORIENTED_EDGE ( 'NONE', *, *, #279, .T. ) ;
#153 = CARTESIAN_POINT ( 'NONE',  ( 0.0000000000000000000, 0.0000000000000000000, -13.00000000000000178 ) ) ;
#154 = EDGE_CURVE ( 'NONE', #563, #26, #36, .T. ) ;
#155 = CARTESIAN_POINT ( 'NONE',  ( 12.91711828928086625, 2.710652749228954939, 1.468406194645231144 ) ) ;
#156 = EDGE_CURVE ( 'NONE', #425, #470, #484, .T. ) ;
#157 = DIRECTION ( 'NONE',  ( 0.0000000000000000000, 1.000000000000000000, 0.0000000000000000000 ) ) ;
#158 = CARTESIAN_POINT ( 'NONE',  ( 12.85291795663537151, 3.999999999999999112, 1.950000000000001288 ) ) ;
#159 = APPROVAL_PERSON_ORGANIZATION ( #343, #191, #690 ) ;
#160 = ORIENTED_EDGE ( 'NONE', *, *, #176, .T. ) ;
#161 = CARTESIAN_POINT ( 'NONE',  ( 3.065323985336281254, 2.103922668487382186, -0.5226120902879607399 ) ) ;
#162 = AXIS2_PLACEMENT_3D ( 'NONE', #216, #609, #99 ) ;
#163 = CARTESIAN_POINT ( 'NONE',  ( 1.592040838891559293E-15, 11.29999999999999716, 13.00000000000000178 ) ) ;
#164 = ORIENTED_EDGE ( 'NONE', *, *, #42, .F. ) ;
#165 = B_SPLINE_CURVE_WITH_KNOTS ( 'NONE', 3,
 ( #599, #451, #271, #260, #255, #32, #550, #597, #91, #672, #447, #492, #146, #320, #29, #547, #266, #604, #436, #263, #97, #87, #328, #721, #455, #342 ),
 .UNSPECIFIED., .F., .F.,
 ( 4, 2, 2, 2, 2, 2, 2, 2, 2, 2, 2, 2, 4 ),
 ( 0.006105199349126946493, 0.006868161874501460193, 0.007631124399875973893, 0.008012605662563230743, 0.008394086925250485859, 0.008775568187937742709, 0.009157049450624997824, 0.009538530713312252940, 0.009920011975999509790, 0.01030149323868676664, 0.01068297450137402176, 0.01144593702674853372, 0.01220889955212304569 ),
 .UNSPECIFIED. ) ;
#166 = CARTESIAN_POINT ( 'NONE',  ( 0.0000000000000000000, 0.0000000000000000000, 12.50000000000000000 ) ) ;
#167 = FACE_BOUND ( 'NONE', #78, .T. ) ;
#168 =( NAMED_UNIT ( * ) SI_UNIT ( $, .STERADIAN. ) SOLID_ANGLE_UNIT ( ) );
#169 = DIRECTION ( 'NONE',  ( 0.0000000000000000000, 0.0000000000000000000, -1.000000000000000000 ) ) ;
#170 = VERTEX_POINT ( 'NONE', #613 ) ;
#171 = CC_DESIGN_PERSON_AND_ORGANIZATION_ASSIGNMENT ( #472, #232, ( #386 ) ) ;
#172 = ADVANCED_FACE ( 'NONE', ( #50 ), #198, .T. ) ;
#173 = EDGE_CURVE ( 'NONE', #38, #204, #338, .T. ) ;
#174 = DIRECTION ( 'NONE',  ( -1.224646799147353207E-16, 0.0000000000000000000, -1.000000000000000000 ) ) ;
#175 = ADVANCED_FACE ( 'NONE', ( #419 ), #285, .F. ) ;
#176 = EDGE_CURVE ( 'NONE', #126, #631, #581, .T. ) ;
#177 = SECURITY_CLASSIFICATION_LEVEL ( 'unclassified' ) ;
#178 = EDGE_CURVE ( 'NONE', #204, #38, #11, .T. ) ;
#179 = FACE_BOUND ( 'NONE', #236, .T. ) ;
#180 = APPROVAL_STATUS ( 'not_yet_approved' ) ;
#181 = VERTEX_POINT ( 'NONE', #166 ) ;
#182 = DIRECTION ( 'NONE',  ( 0.0000000000000000000, 0.0000000000000000000, -1.000000000000000000 ) ) ;
#183 = DIRECTION ( 'NONE',  ( -1.000000000000000000, 0.0000000000000000000, 0.0000000000000000000 ) ) ;
#184 = EDGE_LOOP ( 'NONE', ( #365, #224, #375, #607 ) ) ;
#185 = CIRCLE ( 'NONE', #212, 3.000000000000000444 ) ;
#186 = CARTESIAN_POINT ( 'NONE',  ( 2.561776928069648296, 3.123926546123061865, -1.746694848019063384 ) ) ;
#187 = AXIS2_PLACEMENT_3D ( 'NONE', #217, #209, #559 ) ;
#188 = LOCAL_TIME ( 16, 21, 19.00000000000000000, #250 ) ;
#189 = CYLINDRICAL_SURFACE ( 'NONE', #6, 13.00000000000000178 ) ;
#190 = CIRCLE ( 'NONE', #478, 7.500000000000000000 ) ;
#191 = APPROVAL ( #291, 'UNSPECIFIED' ) ;
#192 = CARTESIAN_POINT ( 'NONE',  ( 2.409875515457176931, 4.132614329431418376, 1.950000000000001510 ) ) ;
#193 = AXIS2_PLACEMENT_3D ( 'NONE', #96, #270, #557 ) ;
#194 = CALENDAR_DATE ( 2019, 12, 12 ) ;
#195 = ORIENTED_EDGE ( 'NONE', *, *, #105, .T. ) ;
#196 = ORIENTED_EDGE ( 'NONE', *, *, #411, .T. ) ;
#197 = PLANE ( 'NONE',  #399 ) ;
#198 = CYLINDRICAL_SURFACE ( 'NONE', #187, 13.00000000000000178 ) ;
#199 = EDGE_CURVE ( 'NONE', #470, #26, #185, .T. ) ;
#200 = CARTESIAN_POINT ( 'NONE',  ( 0.0000000000000000000, 14.49999999999999822, 0.0000000000000000000 ) ) ;
#201 = DIRECTION ( 'NONE',  ( 0.0000000000000000000, 0.0000000000000000000, 1.000000000000000000 ) ) ;
#202 = DIRECTION ( 'NONE',  ( -1.000000000000000000, 0.0000000000000000000, 0.0000000000000000000 ) ) ;
#203 = APPROVAL_PERSON_ORGANIZATION ( #517, #362, #114 ) ;
#204 = VERTEX_POINT ( 'NONE', #324 ) ;
#205 = CC_DESIGN_PERSON_AND_ORGANIZATION_ASSIGNMENT ( #71, #573, ( #321 ) ) ;
#206 = DIRECTION ( 'NONE',  ( 0.0000000000000000000, 1.000000000000000000, 0.0000000000000000000 ) ) ;
#207 = CARTESIAN_POINT ( 'NONE',  ( 0.0000000000000000000, 11.29999999999999716, 0.0000000000000000000 ) ) ;
#208 = FACE_OUTER_BOUND ( 'NONE', #524, .T. ) ;
#209 = DIRECTION ( 'NONE',  ( -0.0000000000000000000, -1.000000000000000000, -0.0000000000000000000 ) ) ;
#210 = CIRCLE ( 'NONE', #551, 12.50000000000000000 ) ;
#211 = DIRECTION ( 'NONE',  ( 0.0000000000000000000, 0.0000000000000000000, 1.000000000000000000 ) ) ;
#212 = AXIS2_PLACEMENT_3D ( 'NONE', #714, #596, #327 ) ;
#213 = ORIENTED_EDGE ( 'NONE', *, *, #70, .F. ) ;
#214 = DIRECTION ( 'NONE',  ( 0.0000000000000000000, 1.000000000000000000, 0.0000000000000000000 ) ) ;
#215 = DIRECTION ( 'NONE',  ( 0.0000000000000000000, -1.000000000000000000, 0.0000000000000000000 ) ) ;
#216 = CARTESIAN_POINT ( 'NONE',  ( 0.0000000000000000000, 0.0000000000000000000, 0.0000000000000000000 ) ) ;
#217 = CARTESIAN_POINT ( 'NONE',  ( 0.0000000000000000000, 5.500000000000000000, 0.0000000000000000000 ) ) ;
#218 = CARTESIAN_POINT ( 'NONE',  ( 0.0000000000000000000, 0.0000000000000000000, 0.0000000000000000000 ) ) ;
#219 = LINE ( 'NONE', #31, #67 ) ;
#220 = CARTESIAN_POINT ( 'NONE',  ( 2.409875515457178707, 4.000000000000001776, -1.950000000000001510 ) ) ;
#221 = PRODUCT_DEFINITION_SHAPE ( 'NONE', 'NONE',  #321 ) ;
#222 = ORIENTED_EDGE ( 'NONE', *, *, #356, .F. ) ;
#223 = B_SPLINE_CURVE_WITH_KNOTS ( 'NONE', 3,
 ( #306, #702, #366, #417, #642, #479, #130, #124, #696, #361, #531, #641, #299, #121, #523, #245, #370, #647, #586, #431, #24, #249, #132, #649, #252, #594, #713, #533, #311, #80, #192, #131 ),
 .UNSPECIFIED., .F., .F.,
 ( 4, 2, 2, 2, 2, 2, 2, 2, 2, 2, 2, 2, 2, 2, 2, 4 ),
 ( 0.006271662775513867430, 0.006662583514580528929, 0.007053504253647190428, 0.007444424992713851927, 0.007835345731780513426, 0.008617187209913838158, 0.009008107948980499657, 0.009399028688047162891, 0.009789949427113824390, 0.01018087016618048762, 0.01057179090524714912, 0.01096271164431381062, 0.01135363238338047212, 0.01174455312244713535, 0.01213547386151379859, 0.01252639460058046009 ),
 .UNSPECIFIED. ) ;
#224 = ORIENTED_EDGE ( 'NONE', *, *, #42, .T. ) ;
#225 = ADVANCED_FACE ( 'NONE', ( #434 ), #565, .F. ) ;
#226 = AXIS2_PLACEMENT_3D ( 'NONE', #632, #575, #679 ) ;
#227 = DIRECTION ( 'NONE',  ( 0.0000000000000000000, 0.0000000000000000000, 1.000000000000000000 ) ) ;
#228 = CIRCLE ( 'NONE', #79, 13.00000000000000178 ) ;
#229 = VECTOR ( 'NONE', #480, 1000.000000000000000 ) ;
#230 = APPLICATION_PROTOCOL_DEFINITION ( 'international standard', 'config_control_design', 1994, #469 ) ;
#231 = CARTESIAN_POINT ( 'NONE',  ( 2.862383591285294848, 2.447920574009783135, -1.206200763167691425 ) ) ;
#232 = PERSON_AND_ORGANIZATION_ROLE ( 'creator' ) ;
#233 = AXIS2_PLACEMENT_3D ( 'NONE', #138, #555, #725 ) ;
#234 = EDGE_CURVE ( 'NONE', #126, #437, #621, .T. ) ;
#235 = ADVANCED_FACE ( 'NONE', ( #167, #371 ), #736, .T. ) ;
#236 = EDGE_LOOP ( 'NONE', ( #66, #587 ) ) ;
#237 = AXIS2_PLACEMENT_3D ( 'NONE', #86, #157, #385 ) ;
#238 = ADVANCED_FACE ( 'NONE', ( #501 ), #23, .F. ) ;
#239 = DATE_AND_TIME ( #648, #82 ) ;
#240 = ORIENTED_EDGE ( 'NONE', *, *, #644, .F. ) ;
#241 = FACE_OUTER_BOUND ( 'NONE', #473, .T. ) ;
#242 = ORIENTED_EDGE ( 'NONE', *, *, #356, .T. ) ;
#243 = AXIS2_PLACEMENT_3D ( 'NONE', #388, #671, #720 ) ;
#244 = ORIENTED_EDGE ( 'NONE', *, *, #300, .T. ) ;
#245 = CARTESIAN_POINT ( 'NONE',  ( 3.100154222623660694, 5.950245174692907035, 0.1281151084044458155 ) ) ;
#246 = ORIENTED_EDGE ( 'NONE', *, *, #173, .F. ) ;
#247 = DIRECTION ( 'NONE',  ( -0.0000000000000000000, 1.000000000000000000, -0.0000000000000000000 ) ) ;
#248 = CC_DESIGN_APPROVAL ( #310, ( #321 ) ) ;
#249 = CARTESIAN_POINT ( 'NONE',  ( 2.861932313967716635, 5.544855903053830026, 1.196548656974172786 ) ) ;
#250 = COORDINATED_UNIVERSAL_TIME_OFFSET ( 0, 0, .AHEAD. ) ;
#251 = EDGE_CURVE ( 'NONE', #9, #618, #675, .T. ) ;
#252 = CARTESIAN_POINT ( 'NONE',  ( 2.687321386498547682, 5.192872879580714418, 1.547542237595629588 ) ) ;
#253 = CARTESIAN_POINT ( 'NONE',  ( 33.00000000000001421, 4.000000000000000000, 0.0000000000000000000 ) ) ;
#254 = LINE ( 'NONE', #151, #107 ) ;
#255 = CARTESIAN_POINT ( 'NONE',  ( 12.90739980302130085, 5.198101984609365900, -1.559377854374233374 ) ) ;
#256 = AXIS2_PLACEMENT_3D ( 'NONE', #482, #247, #314 ) ;
#257 = VECTOR ( 'NONE', #449, 1000.000000000000000 ) ;
#258 = CARTESIAN_POINT ( 'NONE',  ( 0.0000000000000000000, 0.0000000000000000000, 0.0000000000000000000 ) ) ;
#259 = DIRECTION ( 'NONE',  ( -0.0000000000000000000, -1.000000000000000000, -0.0000000000000000000 ) ) ;
#260 = CARTESIAN_POINT ( 'NONE',  ( 12.88816585057902664, 4.980925405833283470, -1.704352196080000770 ) ) ;
#261 = ORIENTED_EDGE ( 'NONE', *, *, #77, .F. ) ;
#262 = DIRECTION ( 'NONE',  ( 0.0000000000000000000, 0.0000000000000000000, 1.000000000000000000 ) ) ;
#263 = CARTESIAN_POINT ( 'NONE',  ( 12.94604198745441082, 5.551588125920957850, 1.187989421684193969 ) ) ;
#264 = EDGE_LOOP ( 'NONE', ( #345, #532 ) ) ;
#265 = CARTESIAN_POINT ( 'NONE',  ( 12.85486006662763891, 3.744118750144022290, 1.937318427139664623 ) ) ;
#266 = CARTESIAN_POINT ( 'NONE',  ( 12.98535982326023053, 5.850516019937588297, 0.6280070020061292446 ) ) ;
#267 = ORIENTED_EDGE ( 'NONE', *, *, #394, .T. ) ;
#268 = CIRCLE ( 'NONE', #623, 13.00000000000000178 ) ;
#269 = CARTESIAN_POINT ( 'NONE',  ( 12.88142544883525709, 3.135420601144513597, -1.752517227794041954 ) ) ;
#270 = DIRECTION ( 'NONE',  ( -0.0000000000000000000, -1.000000000000000000, -0.0000000000000000000 ) ) ;
#271 = CARTESIAN_POINT ( 'NONE',  ( 12.86095942482890386, 4.511539819440552712, -1.898778047381694423 ) ) ;
#272 = AXIS2_PLACEMENT_3D ( 'NONE', #543, #442, #381 ) ;
#273 = ORIENTED_EDGE ( 'NONE', *, *, #70, .T. ) ;
#274 = CARTESIAN_POINT ( 'NONE',  ( 0.0000000000000000000, 14.49999999999999822, 0.0000000000000000000 ) ) ;
#275 = CARTESIAN_POINT ( 'NONE',  ( 2.596077351530002186, 3.009227476794186451, 1.698512396672531288 ) ) ;
#276 = DIRECTION ( 'NONE',  ( 0.0000000000000000000, 0.0000000000000000000, -1.000000000000000000 ) ) ;
#277 = CARTESIAN_POINT ( 'NONE',  ( 0.0000000000000000000, -5.500000000000001776, 3.100000000000000089 ) ) ;
#278 = CARTESIAN_POINT ( 'NONE',  ( 2.420914708350131672, 3.737340537811085106, 1.936555849575881449 ) ) ;
#279 = EDGE_CURVE ( 'NONE', #432, #518, #592, .T. ) ;
#280 = EDGE_LOOP ( 'NONE', ( #73, #519, #273, #530 ) ) ;
#281 = CARTESIAN_POINT ( 'NONE',  ( 0.0000000000000000000, 12.49999999999999645, -11.80000000000000071 ) ) ;
#282 = B_SPLINE_CURVE_WITH_KNOTS ( 'NONE', 3,
 ( #637, #358, #278, #408, #676, #275, #471, #65, #7, #120, #68, #694, #635, #514, #413, #113, #161, #571, #231, #101, #336, #415, #186, #560, #731, #395, #453, #220 ),
 .UNSPECIFIED., .F., .F.,
 ( 4, 2, 2, 2, 2, 2, 2, 2, 2, 2, 2, 2, 2, 4 ),
 ( 8.940560153363745023E-19, 0.0003919789234696174191, 0.0007839578469392339708, 0.001567915693878467074, 0.001959894617348083463, 0.002351873540817699636, 0.002743852464287316242, 0.003135831387756932848, 0.003919789234696166060, 0.004703747081635399271, 0.005095726005105016311, 0.005487704928574633351, 0.005879683852044250390, 0.006271662775513867430 ),
 .UNSPECIFIED. ) ;
#283 = DIRECTION ( 'NONE',  ( -1.000000000000000000, 0.0000000000000000000, 0.0000000000000000000 ) ) ;
#284 = CARTESIAN_POINT ( 'NONE',  ( 1.592040838891559293E-15, 12.49999999999999645, 13.00000000000000178 ) ) ;
#285 = CYLINDRICAL_SURFACE ( 'NONE', #72, 3.000000000000000444 ) ;
#286 = SECURITY_CLASSIFICATION ( '', '', #177 ) ;
#287 = ORIENTED_EDGE ( 'NONE', *, *, #176, .F. ) ;
#288 = ADVANCED_FACE ( 'NONE', ( #639 ), #316, .F. ) ;
#289 = CARTESIAN_POINT ( 'NONE',  ( 1.592040838891559293E-15, 12.49999999999999645, 13.00000000000000178 ) ) ;
#290 = EDGE_CURVE ( 'NONE', #437, #707, #700, .T. ) ;
#291 = APPROVAL_STATUS ( 'not_yet_approved' ) ;
#292 = EDGE_CURVE ( 'NONE', #518, #590, #219, .T. ) ;
#293 = FACE_OUTER_BOUND ( 'NONE', #728, .T. ) ;
#294 = DIRECTION ( 'NONE',  ( 0.0000000000000000000, 0.0000000000000000000, -1.000000000000000000 ) ) ;
#295 = DATE_TIME_ROLE ( 'classification_date' ) ;
#296 = ORIENTED_EDGE ( 'NONE', *, *, #156, .T. ) ;
#297 = LOCAL_TIME ( 16, 21, 19.00000000000000000, #416 ) ;
#298 = ORIENTED_EDGE ( 'NONE', *, *, #135, .T. ) ;
#299 = CARTESIAN_POINT ( 'NONE',  ( 3.058593277467130722, 5.883590238857326682, -0.5208500843626561183 ) ) ;
#300 = EDGE_CURVE ( 'NONE', #432, #384, #254, .T. ) ;
#301 = VECTOR ( 'NONE', #548, 1000.000000000000000 ) ;
#302 = AXIS2_PLACEMENT_3D ( 'NONE', #274, #206, #598 ) ;
#303 = ORIENTED_EDGE ( 'NONE', *, *, #535, .T. ) ;
#304 = CARTESIAN_POINT ( 'NONE',  ( 0.0000000000000000000, 14.49999999999999822, 0.0000000000000000000 ) ) ;
#305 = FACE_OUTER_BOUND ( 'NONE', #369, .T. ) ;
#306 = CARTESIAN_POINT ( 'NONE',  ( 2.409875515457178707, 4.000000000000001776, -1.950000000000001510 ) ) ;
#307 = CC_DESIGN_PERSON_AND_ORGANIZATION_ASSIGNMENT ( #680, #633, ( #286 ) ) ;
#308 = CIRCLE ( 'NONE', #315, 3.000000000000000444 ) ;
#309 = EDGE_LOOP ( 'NONE', ( #360, #244, #406, #2 ) ) ;
#310 = APPROVAL ( #180, 'UNSPECIFIED' ) ;
#311 = CARTESIAN_POINT ( 'NONE',  ( 2.462176937962175849, 4.520144617971098455, 1.883822544092362161 ) ) ;
#312 = EDGE_CURVE ( 'NONE', #204, #391, #122, .T. ) ;
#313 = ORIENTED_EDGE ( 'NONE', *, *, #341, .F. ) ;
#314 = DIRECTION ( 'NONE',  ( 0.0000000000000000000, 0.0000000000000000000, 1.000000000000000000 ) ) ;
#315 = AXIS2_PLACEMENT_3D ( 'NONE', #655, #317, #652 ) ;
#316 = TOROIDAL_SURFACE ( 'NONE', #272, 12.50000000000000000, 5.000000000000000000 ) ;
#317 = DIRECTION ( 'NONE',  ( 0.0000000000000000000, -1.000000000000000000, 0.0000000000000000000 ) ) ;
#318 = ORIENTED_EDGE ( 'NONE', *, *, #199, .T. ) ;
#319 = DIRECTION ( 'NONE',  ( 0.0000000000000000000, 1.000000000000000000, 0.0000000000000000000 ) ) ;
#320 = CARTESIAN_POINT ( 'NONE',  ( 13.00001253152066738, 5.950083543488516646, 0.1276000398231543209 ) ) ;
#321 = PRODUCT_DEFINITION ( 'UNKNOWN', '', #386, #593 ) ;
#322 = CARTESIAN_POINT ( 'NONE',  ( 12.94585896216762677, 2.441266538653037887, 1.198908811649439299 ) ) ;
#323 = VERTEX_POINT ( 'NONE', #546 ) ;
#324 = CARTESIAN_POINT ( 'NONE',  ( 3.796405077356794918E-16, 0.0000000000000000000, -3.100000000000000089 ) ) ;
#325 = CARTESIAN_POINT ( 'NONE',  ( 12.96357648863235745, 2.308339461052491437, -0.9782130476616089920 ) ) ;
#326 = CIRCLE ( 'NONE', #344, 3.000000000000000444 ) ;
#327 = DIRECTION ( 'NONE',  ( 0.0000000000000000000, 0.0000000000000000000, -1.000000000000000000 ) ) ;
#328 = CARTESIAN_POINT ( 'NONE',  ( 12.88834538689256703, 4.983224170025549071, 1.703010754292658024 ) ) ;
#329 = AXIS2_PLACEMENT_3D ( 'NONE', #304, #420, #646 ) ;
#330 = ORIENTED_EDGE ( 'NONE', *, *, #500, .F. ) ;
#331 = CARTESIAN_POINT ( 'NONE',  ( 12.88959114247409232, 3.022656469637836185, 1.692195973945569643 ) ) ;
#332 = CARTESIAN_POINT ( 'NONE',  ( 0.0000000000000000000, -5.000000000000000000, 0.0000000000000000000 ) ) ;
#333 = CARTESIAN_POINT ( 'NONE',  ( 12.99998571105918188, 2.050095259611968590, 0.2555027303940999306 ) ) ;
#334 = DIRECTION ( 'NONE',  ( 0.0000000000000000000, 0.0000000000000000000, -1.000000000000000000 ) ) ;
#335 = CARTESIAN_POINT ( 'NONE',  ( 12.97177739972552324, 2.247328463566506507, -0.8642912634007092754 ) ) ;
#336 = CARTESIAN_POINT ( 'NONE',  ( 2.686864148904645422, 2.808113442201929377, -1.548352479902759260 ) ) ;
#337 = EDGE_LOOP ( 'NONE', ( #465, #558, #242, #507 ) ) ;
#338 = CIRCLE ( 'NONE', #76, 3.100000000000000089 ) ;
#339 = PRODUCT ( 'Encoder wheel 2', 'Encoder wheel 2', '', ( #402 ) ) ;
#340 = DIRECTION ( 'NONE',  ( 0.0000000000000000000, 0.0000000000000000000, 1.000000000000000000 ) ) ;
#341 = EDGE_CURVE ( 'NONE', #136, #706, #712, .T. ) ;
#342 = CARTESIAN_POINT ( 'NONE',  ( 12.85291795663537151, 3.999999999999999112, 1.950000000000001288 ) ) ;
#343 = PERSON_AND_ORGANIZATION ( #401, #733 ) ;
#344 = AXIS2_PLACEMENT_3D ( 'NONE', #332, #496, #658 ) ;
#345 = ORIENTED_EDGE ( 'NONE', *, *, #173, .T. ) ;
#346 = ADVANCED_FACE ( 'NONE', ( #137 ), #574, .F. ) ;
#347 = DIRECTION ( 'NONE',  ( -1.000000000000000000, 0.0000000000000000000, 0.0000000000000000000 ) ) ;
#348 = TOROIDAL_SURFACE ( 'NONE', #580, 13.00000000000000178, 1.200000000000000400 ) ;
#349 = LINE ( 'NONE', #46, #257 ) ;
#350 = ADVANCED_FACE ( 'NONE', ( #466 ), #348, .F. ) ;
#351 = CARTESIAN_POINT ( 'NONE',  ( 0.0000000000000000000, 5.500000000000000000, 0.0000000000000000000 ) ) ;
#352 = CC_DESIGN_DATE_AND_TIME_ASSIGNMENT ( #505, #516, ( #321 ) ) ;
#353 = CARTESIAN_POINT ( 'NONE',  ( 3.796405077356794918E-16, 14.49999999999999822, -3.100000000000000089 ) ) ;
#354 = COORDINATED_UNIVERSAL_TIME_OFFSET ( 0, 0, .AHEAD. ) ;
#355 = CARTESIAN_POINT ( 'NONE',  ( 0.0000000000000000000, -5.000000000000000000, 12.50000000000000000 ) ) ;
#356 = EDGE_CURVE ( 'NONE', #384, #590, #4, .T. ) ;
#357 = VECTOR ( 'NONE', #544, 1000.000000000000000 ) ;
#358 = CARTESIAN_POINT ( 'NONE',  ( 2.409875515457177819, 3.867026696482563253, 1.950000000000001732 ) ) ;
#359 = AXIS2_PLACEMENT_3D ( 'NONE', #141, #319, #37 ) ;
#360 = ORIENTED_EDGE ( 'NONE', *, *, #279, .F. ) ;
#361 = CARTESIAN_POINT ( 'NONE',  ( 2.862390744739934600, 5.552187859414540405, -1.206340124097193378 ) ) ;
#362 = APPROVAL ( #410, 'UNSPECIFIED' ) ;
#363 = CIRCLE ( 'NONE', #463, 1.199999999999999734 ) ;
#364 = CIRCLE ( 'NONE', #515, 5.000000000000000888 ) ;
#365 = ORIENTED_EDGE ( 'NONE', *, *, #94, .F. ) ;
#366 = CARTESIAN_POINT ( 'NONE',  ( 2.420790087502281196, 4.261844276776297846, -1.936714589323267566 ) ) ;
#367 = EDGE_CURVE ( 'NONE', #181, #618, #509, .T. ) ;
#368 = PERSON_AND_ORGANIZATION ( #401, #733 ) ;
#369 = EDGE_LOOP ( 'NONE', ( #160, #511, #240, #133 ) ) ;
#370 = CARTESIAN_POINT ( 'NONE',  ( 3.091939209707160074, 5.937266120972884309, 0.2580761114612840079 ) ) ;
#371 = FACE_OUTER_BOUND ( 'NONE', #534, .T. ) ;
#372 = VERTEX_POINT ( 'NONE', #577 ) ;
#373 = EDGE_CURVE ( 'NONE', #631, #170, #33, .T. ) ;
#374 = APPROVAL_PERSON_ORGANIZATION ( #368, #310, #630 ) ;
#375 = ORIENTED_EDGE ( 'NONE', *, *, #125, .F. ) ;
#376 = DIRECTION ( 'NONE',  ( 0.0000000000000000000, -0.0000000000000000000, -1.000000000000000000 ) ) ;
#377 = CARTESIAN_POINT ( 'NONE',  ( 0.0000000000000000000, 14.49999999999999822, -13.00000000000000178 ) ) ;
#378 = AXIS2_PLACEMENT_3D ( 'NONE', #615, #49, #52 ) ;
#379 = LINE ( 'NONE', #277, #129 ) ;
#380 = LINE ( 'NONE', #17, #229 ) ;
#381 = DIRECTION ( 'NONE',  ( 0.0000000000000000000, 0.0000000000000000000, 1.000000000000000000 ) ) ;
#382 = CARTESIAN_POINT ( 'NONE',  ( 33.00000000000001421, 4.000000000000000000, 0.0000000000000000000 ) ) ;
#383 = CARTESIAN_POINT ( 'NONE',  ( 12.88148047407626073, 3.134595255058770569, 1.752114953727865743 ) ) ;
#384 = VERTEX_POINT ( 'NONE', #48 ) ;
#385 = DIRECTION ( 'NONE',  ( 0.0000000000000000000, 0.0000000000000000000, 1.000000000000000000 ) ) ;
#386 = PRODUCT_DEFINITION_FORMATION_WITH_SPECIFIED_SOURCE ( 'ANY', '', #339, .NOT_KNOWN. ) ;
#387 = DIRECTION ( 'NONE',  ( 0.0000000000000000000, 1.000000000000000000, 0.0000000000000000000 ) ) ;
#388 = CARTESIAN_POINT ( 'NONE',  ( 0.0000000000000000000, -5.000000000000000000, 0.0000000000000000000 ) ) ;
#389 = APPROVAL_DATE_TIME ( #537, #362 ) ;
#390 = DIRECTION ( 'NONE',  ( 0.0000000000000000000, 0.0000000000000000000, 1.000000000000000000 ) ) ;
#391 = VERTEX_POINT ( 'NONE', #353 ) ;
#392 = ORIENTED_EDGE ( 'NONE', *, *, #117, .T. ) ;
#393 = CARTESIAN_POINT ( 'NONE',  ( 12.88969680958485498, 3.021307078901586340, -1.691383268932866057 ) ) ;
#394 = EDGE_CURVE ( 'NONE', #323, #706, #282, .T. ) ;
#395 = CARTESIAN_POINT ( 'NONE',  ( 2.421057990130472071, 3.735830614692621676, -1.936381430071330012 ) ) ;
#396 = ORIENTED_EDGE ( 'NONE', *, *, #56, .F. ) ;
#397 = ADVANCED_BREP_SHAPE_REPRESENTATION ( 'Encoder wheel 2', ( #452, #664 ), #488 ) ;
#398 = CARTESIAN_POINT ( 'NONE',  ( 0.0000000000000000000, -5.000000000000000000, 0.0000000000000000000 ) ) ;
#399 = AXIS2_PLACEMENT_3D ( 'NONE', #486, #591, #376 ) ;
#400 = COORDINATED_UNIVERSAL_TIME_OFFSET ( 0, 0, .AHEAD. ) ;
#401 = PERSON ( 'UNSPECIFIED', 'UNSPECIFIED', 'UNSPECIFIED', ('UNSPECIFIED'), ('UNSPECIFIED'), ('UNSPECIFIED') ) ;
#402 = MECHANICAL_CONTEXT ( 'NONE', #624, 'mechanical' ) ;
#403 = FACE_OUTER_BOUND ( 'NONE', #457, .T. ) ;
#404 = CARTESIAN_POINT ( 'NONE',  ( 0.0000000000000000000, 13.69999999999999751, -13.00000000000000178 ) ) ;
#405 = CC_DESIGN_DATE_AND_TIME_ASSIGNMENT ( #691, #295, ( #286 ) ) ;
#406 = ORIENTED_EDGE ( 'NONE', *, *, #595, .F. ) ;
#407 = ADVANCED_FACE ( 'NONE', ( #723 ), #189, .T. ) ;
#408 = CARTESIAN_POINT ( 'NONE',  ( 2.461361940464244835, 3.483797936911051885, 1.884880362693252653 ) ) ;
#409 = AXIS2_PLACEMENT_3D ( 'NONE', #427, #709, #430 ) ;
#410 = APPROVAL_STATUS ( 'not_yet_approved' ) ;
#411 = EDGE_CURVE ( 'NONE', #38, #372, #379, .T. ) ;
#412 = ORIENTED_EDGE ( 'NONE', *, *, #312, .F. ) ;
#413 = CARTESIAN_POINT ( 'NONE',  ( 3.099814829633514179, 2.050294373827420635, 0.1363830994631201610 ) ) ;
#414 = ORIENTED_EDGE ( 'NONE', *, *, #128, .T. ) ;
#415 = CARTESIAN_POINT ( 'NONE',  ( 2.601848050943270874, 3.014622969524894724, -1.687311789946606355 ) ) ;
#416 = COORDINATED_UNIVERSAL_TIME_OFFSET ( 0, 0, .AHEAD. ) ;
#417 = CARTESIAN_POINT ( 'NONE',  ( 2.461452574027040541, 4.516804171534584356, -1.884765044790078115 ) ) ;
#418 = EDGE_CURVE ( 'NONE', #425, #563, #326, .T. ) ;
#419 = FACE_OUTER_BOUND ( 'NONE', #601, .T. ) ;
#420 = DIRECTION ( 'NONE',  ( 0.0000000000000000000, 1.000000000000000000, 0.0000000000000000000 ) ) ;
#421 = TOROIDAL_SURFACE ( 'NONE', #116, 13.00000000000000178, 1.200000000000000400 ) ;
#422 = AXIS2_PLACEMENT_3D ( 'NONE', #603, #724, #262 ) ;
#423 = EDGE_LOOP ( 'NONE', ( #92, #152 ) ) ;
#424 = DIRECTION ( 'NONE',  ( -0.0000000000000000000, -1.000000000000000000, -0.0000000000000000000 ) ) ;
#425 = VERTEX_POINT ( 'NONE', #41 ) ;
#426 = CYLINDRICAL_SURFACE ( 'NONE', #737, 1.950000000000001288 ) ;
#427 = CARTESIAN_POINT ( 'NONE',  ( 0.0000000000000000000, 0.0000000000000000000, 0.0000000000000000000 ) ) ;
#428 = ORIENTED_EDGE ( 'NONE', *, *, #595, .T. ) ;
#429 = CC_DESIGN_APPROVAL ( #191, ( #286 ) ) ;
#430 = DIRECTION ( 'NONE',  ( 0.0000000000000000000, 0.0000000000000000000, 1.000000000000000000 ) ) ;
#431 = CARTESIAN_POINT ( 'NONE',  ( 2.976317795898134833, 5.747155797636724017, 0.8753823473076903783 ) ) ;
#432 = VERTEX_POINT ( 'NONE', #540 ) ;
#433 = AXIS2_PLACEMENT_3D ( 'NONE', #622, #283, #340 ) ;
#434 = FACE_OUTER_BOUND ( 'NONE', #280, .T. ) ;
#435 = DIRECTION ( 'NONE',  ( 1.000000000000000000, -0.0000000000000000000, 1.224646799147353207E-16 ) ) ;
#436 = CARTESIAN_POINT ( 'NONE',  ( 12.96375355557971076, 5.693023573779097291, 0.9759179049288471131 ) ) ;
#437 = VERTEX_POINT ( 'NONE', #153 ) ;
#438 = CARTESIAN_POINT ( 'NONE',  ( 13.00000711388939045, 2.049952574067508415, -0.1266592755020609085 ) ) ;
#439 = CARTESIAN_POINT ( 'NONE',  ( 3.796405077356794918E-16, -5.500000000000001776, -3.100000000000000089 ) ) ;
#440 = EDGE_LOOP ( 'NONE', ( #164, #396, #689, #582 ) ) ;
#441 = CARTESIAN_POINT ( 'NONE',  ( 12.90743633673827695, 2.810265248999667786, -1.550209153145583718 ) ) ;
#442 = DIRECTION ( 'NONE',  ( 0.0000000000000000000, 1.000000000000000000, 0.0000000000000000000 ) ) ;
#443 = AXIS2_PLACEMENT_3D ( 'NONE', #541, #143, #552 ) ;
#444 = CIRCLE ( 'NONE', #654, 1.199999999999999734 ) ;
#445 = CARTESIAN_POINT ( 'NONE',  ( 12.86230638823994354, 3.492977065709412354, -1.887250049481173031 ) ) ;
#446 = CIRCLE ( 'NONE', #302, 3.100000000000000089 ) ;
#447 = CARTESIAN_POINT ( 'NONE',  ( 12.99072576295873915, 5.887342619028833823, -0.5065522502983823561 ) ) ;
#448 = ORIENTED_EDGE ( 'NONE', *, *, #125, .T. ) ;
#449 = DIRECTION ( 'NONE',  ( -0.0000000000000000000, -1.000000000000000000, -0.0000000000000000000 ) ) ;
#450 = CARTESIAN_POINT ( 'NONE',  ( 0.0000000000000000000, 5.500000000000000000, -13.00000000000000178 ) ) ;
#451 = CARTESIAN_POINT ( 'NONE',  ( 12.85291795663537151, 4.254656171273850873, -1.950000000000001510 ) ) ;
#452 = MANIFOLD_SOLID_BREP ( 'Fillet3', #673 ) ;
#453 = CARTESIAN_POINT ( 'NONE',  ( 2.409875515457176487, 3.867507125628467879, -1.950000000000001510 ) ) ;
#454 = ORIENTED_EDGE ( 'NONE', *, *, #199, .F. ) ;
#455 = CARTESIAN_POINT ( 'NONE',  ( 12.85291795663537506, 4.258011388385468443, 1.950000000000001288 ) ) ;
#456 = DIRECTION ( 'NONE',  ( 0.0000000000000000000, 1.000000000000000000, 0.0000000000000000000 ) ) ;
#457 = EDGE_LOOP ( 'NONE', ( #645, #261 ) ) ;
#458 = DIRECTION ( 'NONE',  ( 0.0000000000000000000, 0.0000000000000000000, 1.000000000000000000 ) ) ;
#459 = VECTOR ( 'NONE', #489, 1000.000000000000000 ) ;
#460 = CARTESIAN_POINT ( 'NONE',  ( 0.0000000000000000000, 12.49999999999999645, 0.0000000000000000000 ) ) ;
#461 = ADVANCED_FACE ( 'NONE', ( #605, #490 ), #142, .T. ) ;
#462 = ORIENTED_EDGE ( 'NONE', *, *, #553, .T. ) ;
#463 = AXIS2_PLACEMENT_3D ( 'NONE', #620, #347, #227 ) ;
#464 = DIRECTION ( 'NONE',  ( -0.0000000000000000000, -1.000000000000000000, -0.0000000000000000000 ) ) ;
#465 = ORIENTED_EDGE ( 'NONE', *, *, #535, .F. ) ;
#466 = FACE_OUTER_BOUND ( 'NONE', #337, .T. ) ;
#467 = DIRECTION ( 'NONE',  ( 0.0000000000000000000, 0.0000000000000000000, -1.000000000000000000 ) ) ;
#468 = CIRCLE ( 'NONE', #443, 13.00000000000000178 ) ;
#469 = APPLICATION_CONTEXT ( 'configuration controlled 3d designs of mechanical parts and assemblies' ) ;
#470 = VERTEX_POINT ( 'NONE', #729 ) ;
#471 = CARTESIAN_POINT ( 'NONE',  ( 2.687791786926474913, 2.800023976785898316, 1.556860411015112966 ) ) ;
#472 = PERSON_AND_ORGANIZATION ( #401, #733 ) ;
#473 = EDGE_LOOP ( 'NONE', ( #483, #303, #287, #392 ) ) ;
#474 = AXIS2_PLACEMENT_3D ( 'NONE', #118, #692, #294 ) ;
#475 = EDGE_LOOP ( 'NONE', ( #45, #682, #47, #140 ) ) ;
#476 = FACE_OUTER_BOUND ( 'NONE', #15, .T. ) ;
#477 = CIRCLE ( 'NONE', #409, 13.00000000000000178 ) ;
#478 = AXIS2_PLACEMENT_3D ( 'NONE', #150, #215, #499 ) ;
#479 = CARTESIAN_POINT ( 'NONE',  ( 2.561079290873485181, 4.874078348098773716, -1.747716920601914303 ) ) ;
#480 = DIRECTION ( 'NONE',  ( -1.000000000000000000, 0.0000000000000000000, 0.0000000000000000000 ) ) ;
#481 = CALENDAR_DATE ( 2019, 12, 12 ) ;
#482 = CARTESIAN_POINT ( 'NONE',  ( 0.0000000000000000000, -5.500000000000001776, 0.0000000000000000000 ) ) ;
#483 = ORIENTED_EDGE ( 'NONE', *, *, #644, .T. ) ;
#484 = LINE ( 'NONE', #30, #357 ) ;
#485 = CARTESIAN_POINT ( 'NONE',  ( 0.0000000000000000000, 0.0000000000000000000, 0.0000000000000000000 ) ) ;
#486 = CARTESIAN_POINT ( 'NONE',  ( 0.0000000000000000000, -5.000000000000000000, 0.0000000000000000000 ) ) ;
#487 = APPROVAL_DATE_TIME ( #636, #310 ) ;
#488 =( GEOMETRIC_REPRESENTATION_CONTEXT ( 3 ) GLOBAL_UNCERTAINTY_ASSIGNED_CONTEXT ( ( #538 ) ) GLOBAL_UNIT_ASSIGNED_CONTEXT ( ( #104, #504, #168 ) ) REPRESENTATION_CONTEXT ( 'NONE', 'WORKASPACE' ) );
#489 = DIRECTION ( 'NONE',  ( -0.0000000000000000000, 1.000000000000000000, -0.0000000000000000000 ) ) ;
#490 = FACE_OUTER_BOUND ( 'NONE', #423, .T. ) ;
#491 = CARTESIAN_POINT ( 'NONE',  ( 33.00000000000001421, 4.000000000000000000, -1.950000000000001288 ) ) ;
#492 = CARTESIAN_POINT ( 'NONE',  ( 12.99805263331757743, 5.937131531852344324, -0.2572523511814276409 ) ) ;
#493 = CYLINDRICAL_SURFACE ( 'NONE', #256, 3.100000000000000089 ) ;
#494 = PLANE ( 'NONE',  #162 ) ;
#495 = DIRECTION ( 'NONE',  ( 0.0000000000000000000, 0.0000000000000000000, 1.000000000000000000 ) ) ;
#496 = DIRECTION ( 'NONE',  ( 0.0000000000000000000, -1.000000000000000000, 0.0000000000000000000 ) ) ;
#497 = CARTESIAN_POINT ( 'NONE',  ( 12.96501763821776798, 2.296044116438207716, 0.9815992104507109683 ) ) ;
#498 = EDGE_LOOP ( 'NONE', ( #448, #88 ) ) ;
#499 = DIRECTION ( 'NONE',  ( 0.0000000000000000000, 0.0000000000000000000, -1.000000000000000000 ) ) ;
#500 = EDGE_CURVE ( 'NONE', #629, #126, #228, .T. ) ;
#501 = FACE_OUTER_BOUND ( 'NONE', #475, .T. ) ;
#502 = DIRECTION ( 'NONE',  ( 0.0000000000000000000, 0.0000000000000000000, 1.000000000000000000 ) ) ;
#503 = AXIS2_PLACEMENT_3D ( 'NONE', #688, #53, #276 ) ;
#504 =( NAMED_UNIT ( * ) PLANE_ANGLE_UNIT ( ) SI_UNIT ( $, .RADIAN. ) );
#505 = DATE_AND_TIME ( #656, #188 ) ;
#506 = DIRECTION ( 'NONE',  ( 1.000000000000000000, 0.0000000000000000000, -1.224646799147353207E-16 ) ) ;
#507 = ORIENTED_EDGE ( 'NONE', *, *, #553, .F. ) ;
#508 = CARTESIAN_POINT ( 'NONE',  ( 0.0000000000000000000, 13.69999999999999751, 0.0000000000000000000 ) ) ;
#509 = CIRCLE ( 'NONE', #59, 5.000000000000000888 ) ;
#510 = ADVANCED_FACE ( 'NONE', ( #305 ), #14, .F. ) ;
#511 = ORIENTED_EDGE ( 'NONE', *, *, #373, .T. ) ;
#512 = ORIENTED_EDGE ( 'NONE', *, *, #128, .F. ) ;
#513 = ADVANCED_FACE ( 'NONE', ( #147 ), #426, .F. ) ;
#514 = CARTESIAN_POINT ( 'NONE',  ( 3.091231658565433360, 2.063861340185448867, 0.2658880102887788421 ) ) ;
#515 = AXIS2_PLACEMENT_3D ( 'NONE', #81, #435, #536 ) ;
#516 = DATE_TIME_ROLE ( 'creation_date' ) ;
#517 = PERSON_AND_ORGANIZATION ( #401, #733 ) ;
#518 = VERTEX_POINT ( 'NONE', #377 ) ;
#519 = ORIENTED_EDGE ( 'NONE', *, *, #312, .T. ) ;
#520 = VECTOR ( 'NONE', #145, 1000.000000000000000 ) ;
#521 = ADVANCED_FACE ( 'NONE', ( #115, #74 ), #494, .F. ) ;
#522 = ORIENTED_EDGE ( 'NONE', *, *, #234, .F. ) ;
#523 = CARTESIAN_POINT ( 'NONE',  ( 3.099841411470449781, 5.949747884632462736, -0.1354729079398812874 ) ) ;
#524 = EDGE_LOOP ( 'NONE', ( #693, #111, #579, #454 ) ) ;
#525 = EDGE_CURVE ( 'NONE', #136, #716, #165, .T. ) ;
#526 = CIRCLE ( 'NONE', #378, 3.000000000000000444 ) ;
#527 = AXIS2_PLACEMENT_3D ( 'NONE', #485, #27, #84 ) ;
#528 = CIRCLE ( 'NONE', #527, 12.50000000000000000 ) ;
#529 = CARTESIAN_POINT ( 'NONE',  ( 0.0000000000000000000, 12.49999999999999645, 0.0000000000000000000 ) ) ;
#530 = ORIENTED_EDGE ( 'NONE', *, *, #411, .F. ) ;
#531 = CARTESIAN_POINT ( 'NONE',  ( 2.944398967275242196, 5.693680124059258496, -1.000355507284060419 ) ) ;
#532 = ORIENTED_EDGE ( 'NONE', *, *, #178, .T. ) ;
#533 = CARTESIAN_POINT ( 'NONE',  ( 2.491603566667313086, 4.642788831149859519, 1.845439770509623489 ) ) ;
#534 = EDGE_LOOP ( 'NONE', ( #330, #414, #616, #522 ) ) ;
#535 = EDGE_CURVE ( 'NONE', #170, #631, #660, .T. ) ;
#536 = DIRECTION ( 'NONE',  ( 1.224646799147352714E-16, 0.0000000000000000000, -1.000000000000000000 ) ) ;
#537 = DATE_AND_TIME ( #562, #112 ) ;
#538 = UNCERTAINTY_MEASURE_WITH_UNIT (LENGTH_MEASURE( 1.000000000000000082E-05 ), #104, 'distance_accuracy_value', 'NONE');
#539 = DIRECTION ( 'NONE',  ( 0.0000000000000000000, 1.000000000000000000, 0.0000000000000000000 ) ) ;
#540 = CARTESIAN_POINT ( 'NONE',  ( 1.592040838891559293E-15, 14.49999999999999822, 13.00000000000000178 ) ) ;
#541 = CARTESIAN_POINT ( 'NONE',  ( 0.0000000000000000000, 11.29999999999999716, 0.0000000000000000000 ) ) ;
#542 = ORIENTED_EDGE ( 'NONE', *, *, #234, .T. ) ;
#543 = CARTESIAN_POINT ( 'NONE',  ( 0.0000000000000000000, -5.000000000000000000, 0.0000000000000000000 ) ) ;
#544 = DIRECTION ( 'NONE',  ( -0.0000000000000000000, 1.000000000000000000, -0.0000000000000000000 ) ) ;
#545 = EDGE_LOOP ( 'NONE', ( #512, #572, #542, #20 ) ) ;
#546 = CARTESIAN_POINT ( 'NONE',  ( 2.409875515457176931, 4.000000000000000888, 1.950000000000001288 ) ) ;
#547 = CARTESIAN_POINT ( 'NONE',  ( 12.99082912636299447, 5.888051860144323690, 0.5039245774730175542 ) ) ;
#548 = DIRECTION ( 'NONE',  ( -0.0000000000000000000, 1.000000000000000000, -0.0000000000000000000 ) ) ;
#549 = COORDINATED_UNIVERSAL_TIME_OFFSET ( 0, 0, .AHEAD. ) ;
#550 = CARTESIAN_POINT ( 'NONE',  ( 12.94587508984497326, 5.550194900170316359, -1.189780123350279828 ) ) ;
#551 = AXIS2_PLACEMENT_3D ( 'NONE', #653, #539, #201 ) ;
#552 = DIRECTION ( 'NONE',  ( 0.0000000000000000000, 0.0000000000000000000, 1.000000000000000000 ) ) ;
#553 = EDGE_CURVE ( 'NONE', #631, #590, #363, .T. ) ;
#554 = ORIENTED_EDGE ( 'NONE', *, *, #135, .F. ) ;
#555 = DIRECTION ( 'NONE',  ( 0.0000000000000000000, 1.000000000000000000, 0.0000000000000000000 ) ) ;
#556 = CARTESIAN_POINT ( 'NONE',  ( 12.86774064523453553, 3.371410105040103300, -1.850321300367731681 ) ) ;
#557 = DIRECTION ( 'NONE',  ( 0.0000000000000000000, 0.0000000000000000000, -1.000000000000000000 ) ) ;
#558 = ORIENTED_EDGE ( 'NONE', *, *, #634, .T. ) ;
#559 = DIRECTION ( 'NONE',  ( 0.0000000000000000000, 0.0000000000000000000, -1.000000000000000000 ) ) ;
#560 = CARTESIAN_POINT ( 'NONE',  ( 2.491835497383978026, 3.356534528182928856, -1.845101562316677102 ) ) ;
#561 = CARTESIAN_POINT ( 'NONE',  ( 1.530808498934191521E-15, 0.0000000000000000000, -12.50000000000000000 ) ) ;
#562 = CALENDAR_DATE ( 2019, 12, 12 ) ;
#563 = VERTEX_POINT ( 'NONE', #662 ) ;
#564 = B_SPLINE_CURVE_WITH_KNOTS ( 'NONE', 3,
 ( #719, #606, #265, #39, #666, #383, #331, #726, #155, #322, #497, #715, #333, #438, #722, #100, #610, #335, #325, #674, #35, #89, #441, #393, #269, #556, #445, #95, #93, #670 ),
 .UNSPECIFIED., .F., .F.,
 ( 4, 2, 2, 2, 2, 2, 2, 2, 2, 2, 2, 2, 2, 2, 4 ),
 ( 8.940560153363745023E-19, 0.0003815749593204350774, 0.0007631499186408692873, 0.001144724877961303443, 0.001526299837281737707, 0.002289449755922605585, 0.003052599674563473680, 0.003434174633883907944, 0.003815749593204341775, 0.004197324552524775605, 0.004578899511845210303, 0.004960474471165645001, 0.005342049430486078831, 0.005723624389806512662, 0.006105199349126946493 ),
 .UNSPECIFIED. ) ;
#565 = CYLINDRICAL_SURFACE ( 'NONE', #139, 3.100000000000000089 ) ;
#566 = CARTESIAN_POINT ( 'NONE',  ( 0.0000000000000000000, -5.000000000000000000, 0.0000000000000000000 ) ) ;
#567 = AXIS2_PLACEMENT_3D ( 'NONE', #28, #214, #608 ) ;
#568 = CARTESIAN_POINT ( 'NONE',  ( 1.592040838891559293E-15, 0.0000000000000000000, 13.00000000000000178 ) ) ;
#569 = PERSON_AND_ORGANIZATION_ROLE ( 'design_supplier' ) ;
#570 = ORIENTED_EDGE ( 'NONE', *, *, #22, .F. ) ;
#571 = CARTESIAN_POINT ( 'NONE',  ( 2.946078150477308366, 2.303452157845848891, -0.9949663628853266939 ) ) ;
#572 = ORIENTED_EDGE ( 'NONE', *, *, #117, .F. ) ;
#573 = PERSON_AND_ORGANIZATION_ROLE ( 'creator' ) ;
#574 = TOROIDAL_SURFACE ( 'NONE', #422, 12.50000000000000000, 5.000000000000000000 ) ;
#575 = DIRECTION ( 'NONE',  ( -0.0000000000000000000, -1.000000000000000000, -0.0000000000000000000 ) ) ;
#576 = VERTEX_POINT ( 'NONE', #561 ) ;
#577 = CARTESIAN_POINT ( 'NONE',  ( 0.0000000000000000000, 14.49999999999999822, 3.100000000000000089 ) ) ;
#578 = APPROVAL_DATE_TIME ( #239, #191 ) ;
#579 = ORIENTED_EDGE ( 'NONE', *, *, #154, .T. ) ;
#580 = AXIS2_PLACEMENT_3D ( 'NONE', #148, #667, #182 ) ;
#581 = CIRCLE ( 'NONE', #433, 1.199999999999999734 ) ;
#582 = ORIENTED_EDGE ( 'NONE', *, *, #251, .F. ) ;
#583 = CYLINDRICAL_SURFACE ( 'NONE', #25, 13.00000000000000178 ) ;
#584 = AXIS2_PLACEMENT_3D ( 'NONE', #200, #588, #589 ) ;
#585 = FACE_OUTER_BOUND ( 'NONE', #63, .T. ) ;
#586 = CARTESIAN_POINT ( 'NONE',  ( 3.035700574443492616, 5.846500402575701472, 0.6397529980244752723 ) ) ;
#587 = ORIENTED_EDGE ( 'NONE', *, *, #94, .T. ) ;
#588 = DIRECTION ( 'NONE',  ( 0.0000000000000000000, 1.000000000000000000, 0.0000000000000000000 ) ) ;
#589 = DIRECTION ( 'NONE',  ( 0.0000000000000000000, 0.0000000000000000000, 1.000000000000000000 ) ) ;
#590 = VERTEX_POINT ( 'NONE', #404 ) ;
#591 = DIRECTION ( 'NONE',  ( 0.0000000000000000000, -1.000000000000000000, 0.0000000000000000000 ) ) ;
#592 = CIRCLE ( 'NONE', #359, 13.00000000000000178 ) ;
#593 = DESIGN_CONTEXT ( 'detailed design', #469, 'design' ) ;
#594 = CARTESIAN_POINT ( 'NONE',  ( 2.602689193372980991, 4.987542662271966520, 1.685998865413160352 ) ) ;
#595 = EDGE_CURVE ( 'NONE', #590, #384, #268, .T. ) ;
#596 = DIRECTION ( 'NONE',  ( 0.0000000000000000000, -1.000000000000000000, 0.0000000000000000000 ) ) ;
#597 = CARTESIAN_POINT ( 'NONE',  ( 12.96357109008602926, 5.691625784374206631, -0.9783062792775183425 ) ) ;
#598 = DIRECTION ( 'NONE',  ( 0.0000000000000000000, 0.0000000000000000000, 1.000000000000000000 ) ) ;
#599 = CARTESIAN_POINT ( 'NONE',  ( 12.85291795663537329, 4.000000000000000000, -1.950000000000001288 ) ) ;
#600 = AXIS2_PLACEMENT_3D ( 'NONE', #566, #106, #627 ) ;
#601 = EDGE_LOOP ( 'NONE', ( #19, #296, #16, #686 ) ) ;
#602 = DIRECTION ( 'NONE',  ( 0.0000000000000000000, -0.0000000000000000000, 1.000000000000000000 ) ) ;
#603 = CARTESIAN_POINT ( 'NONE',  ( 0.0000000000000000000, -5.000000000000000000, 0.0000000000000000000 ) ) ;
#604 = CARTESIAN_POINT ( 'NONE',  ( 12.97179877343752352, 5.752827207416612687, 0.8639439307932309520 ) ) ;
#605 = FACE_BOUND ( 'NONE', #614, .T. ) ;
#606 = CARTESIAN_POINT ( 'NONE',  ( 12.85291795663537329, 3.870962620373697760, 1.950000000000001288 ) ) ;
#607 = ORIENTED_EDGE ( 'NONE', *, *, #367, .F. ) ;
#608 = DIRECTION ( 'NONE',  ( 0.0000000000000000000, 0.0000000000000000000, 1.000000000000000000 ) ) ;
#609 = DIRECTION ( 'NONE',  ( 0.0000000000000000000, -1.000000000000000000, 0.0000000000000000000 ) ) ;
#610 = CARTESIAN_POINT ( 'NONE',  ( 12.98536346312543088, 2.149456059406543496, -0.6279681731965198743 ) ) ;
#611 = DIRECTION ( 'NONE',  ( -1.000000000000000000, 0.0000000000000000000, 0.0000000000000000000 ) ) ;
#612 = CARTESIAN_POINT ( 'NONE',  ( 0.0000000000000000000, 12.49999999999999645, 0.0000000000000000000 ) ) ;
#613 = CARTESIAN_POINT ( 'NONE',  ( 1.445083222993876839E-15, 12.49999999999999645, 11.80000000000000071 ) ) ;
#614 = EDGE_LOOP ( 'NONE', ( #554, #213 ) ) ;
#615 = CARTESIAN_POINT ( 'NONE',  ( 0.0000000000000000000, -5.000000000000000000, 0.0000000000000000000 ) ) ;
#616 = ORIENTED_EDGE ( 'NONE', *, *, #77, .T. ) ;
#617 = CARTESIAN_POINT ( 'NONE',  ( 0.0000000000000000000, 0.0000000000000000000, 0.0000000000000000000 ) ) ;
#618 = VERTEX_POINT ( 'NONE', #739 ) ;
#619 = DIRECTION ( 'NONE',  ( 0.0000000000000000000, 0.0000000000000000000, 1.000000000000000000 ) ) ;
#620 = CARTESIAN_POINT ( 'NONE',  ( 0.0000000000000000000, 12.49999999999999645, -13.00000000000000178 ) ) ;
#621 = LINE ( 'NONE', #450, #651 ) ;
#622 = CARTESIAN_POINT ( 'NONE',  ( 0.0000000000000000000, 12.49999999999999645, -13.00000000000000178 ) ) ;
#623 = AXIS2_PLACEMENT_3D ( 'NONE', #508, #626, #169 ) ;
#624 = APPLICATION_CONTEXT ( 'configuration controlled 3d designs of mechanical parts and assemblies' ) ;
#625 = EDGE_LOOP ( 'NONE', ( #313, #657, #701, #570 ) ) ;
#626 = DIRECTION ( 'NONE',  ( -0.0000000000000000000, -1.000000000000000000, -0.0000000000000000000 ) ) ;
#627 = DIRECTION ( 'NONE',  ( 0.0000000000000000000, 0.0000000000000000000, 1.000000000000000000 ) ) ;
#628 = CYLINDRICAL_SURFACE ( 'NONE', #600, 3.000000000000000444 ) ;
#629 = VERTEX_POINT ( 'NONE', #163 ) ;
#630 = APPROVAL_ROLE ( '' ) ;
#631 = VERTEX_POINT ( 'NONE', #281 ) ;
#632 = CARTESIAN_POINT ( 'NONE',  ( 0.0000000000000000000, 12.49999999999999645, 0.0000000000000000000 ) ) ;
#633 = PERSON_AND_ORGANIZATION_ROLE ( 'classification_officer' ) ;
#634 = EDGE_CURVE ( 'NONE', #170, #384, #444, .T. ) ;
#635 = CARTESIAN_POINT ( 'NONE',  ( 3.058755866867233220, 2.116145654195632719, 0.5200212955618352950 ) ) ;
#636 = DATE_AND_TIME ( #194, #697 ) ;
#637 = CARTESIAN_POINT ( 'NONE',  ( 2.409875515457176931, 4.000000000000000888, 1.950000000000001288 ) ) ;
#638 = ORIENTED_EDGE ( 'NONE', *, *, #292, .T. ) ;
#639 = FACE_OUTER_BOUND ( 'NONE', #184, .T. ) ;
#640 = ADVANCED_FACE ( 'NONE', ( #293 ), #85, .F. ) ;
#641 = CARTESIAN_POINT ( 'NONE',  ( 3.034926368636276628, 5.845242486525618730, -0.6436389063888913187 ) ) ;
#642 = CARTESIAN_POINT ( 'NONE',  ( 2.491121803028931492, 4.640760221924050910, -1.846064389768991898 ) ) ;
#643 = ADVANCED_FACE ( 'NONE', ( #208 ), #628, .F. ) ;
#644 = EDGE_CURVE ( 'NONE', #629, #170, #685, .T. ) ;
#645 = ORIENTED_EDGE ( 'NONE', *, *, #290, .F. ) ;
#646 = DIRECTION ( 'NONE',  ( 0.0000000000000000000, 0.0000000000000000000, 1.000000000000000000 ) ) ;
#647 = CARTESIAN_POINT ( 'NONE',  ( 3.059743448986464553, 5.885455361593153079, 0.5144525072501140439 ) ) ;
#648 = CALENDAR_DATE ( 2019, 12, 12 ) ;
#649 = CARTESIAN_POINT ( 'NONE',  ( 2.732108420634909329, 5.289482196934868874, 1.468068210635562254 ) ) ;
#650 = ORIENTED_EDGE ( 'NONE', *, *, #708, .F. ) ;
#651 = VECTOR ( 'NONE', #90, 1000.000000000000000 ) ;
#652 = DIRECTION ( 'NONE',  ( 0.0000000000000000000, 0.0000000000000000000, -1.000000000000000000 ) ) ;
#653 = CARTESIAN_POINT ( 'NONE',  ( 0.0000000000000000000, 0.0000000000000000000, 0.0000000000000000000 ) ) ;
#654 = AXIS2_PLACEMENT_3D ( 'NONE', #289, #684, #57 ) ;
#655 = CARTESIAN_POINT ( 'NONE',  ( 0.0000000000000000000, 0.0000000000000000000, 0.0000000000000000000 ) ) ;
#656 = CALENDAR_DATE ( 2019, 12, 12 ) ;
#657 = ORIENTED_EDGE ( 'NONE', *, *, #525, .T. ) ;
#658 = DIRECTION ( 'NONE',  ( 0.0000000000000000000, 0.0000000000000000000, -1.000000000000000000 ) ) ;
#659 = CARTESIAN_POINT ( 'NONE',  ( 12.85291795663537329, 4.000000000000000000, -1.950000000000001288 ) ) ;
#660 = CIRCLE ( 'NONE', #503, 11.80000000000000071 ) ;
#661 = DIRECTION ( 'NONE',  ( -0.0000000000000000000, -1.000000000000000000, -0.0000000000000000000 ) ) ;
#662 = CARTESIAN_POINT ( 'NONE',  ( 0.0000000000000000000, -5.000000000000000000, 3.000000000000000444 ) ) ;
#663 = FACE_BOUND ( 'NONE', #703, .T. ) ;
#664 = AXIS2_PLACEMENT_3D ( 'NONE', #218, #458, #738 ) ;
#665 = DIRECTION ( 'NONE',  ( -0.0000000000000000000, 1.000000000000000000, -0.0000000000000000000 ) ) ;
#666 = CARTESIAN_POINT ( 'NONE',  ( 12.86777629969157566, 3.370672527643139293, 1.850075435267578561 ) ) ;
#667 = DIRECTION ( 'NONE',  ( -0.0000000000000000000, -1.000000000000000000, -0.0000000000000000000 ) ) ;
#668 = DIRECTION ( 'NONE',  ( -0.0000000000000000000, -1.000000000000000000, -0.0000000000000000000 ) ) ;
#669 = AXIS2_PLACEMENT_3D ( 'NONE', #253, #611, #40 ) ;
#670 = CARTESIAN_POINT ( 'NONE',  ( 12.85291795663537329, 4.000000000000000000, -1.950000000000001288 ) ) ;
#671 = DIRECTION ( 'NONE',  ( 0.0000000000000000000, -1.000000000000000000, 0.0000000000000000000 ) ) ;
#672 = CARTESIAN_POINT ( 'NONE',  ( 12.98525170838395404, 5.849763334124193470, -0.6302625393772743889 ) ) ;
#673 = CLOSED_SHELL ( 'NONE', ( #510, #8, #288, #175, #350, #225, #238, #172, #235, #407, #683, #123, #461, #513, #109, #640, #521, #58, #643, #346 ) ) ;
#674 = CARTESIAN_POINT ( 'NONE',  ( 12.94591863947217725, 2.449448671522356680, -1.189288326438884935 ) ) ;
#675 = CIRCLE ( 'NONE', #243, 7.500000000000000000 ) ;
#676 = CARTESIAN_POINT ( 'NONE',  ( 2.491159176293246791, 3.359100486789700302, 1.846013665324359287 ) ) ;
#677 = ORIENTED_EDGE ( 'NONE', *, *, #12, .F. ) ;
#678 = DIRECTION ( 'NONE',  ( 0.0000000000000000000, 0.0000000000000000000, 1.000000000000000000 ) ) ;
#679 = DIRECTION ( 'NONE',  ( 0.0000000000000000000, 0.0000000000000000000, -1.000000000000000000 ) ) ;
#680 = PERSON_AND_ORGANIZATION ( #401, #733 ) ;
#681 = APPLICATION_PROTOCOL_DEFINITION ( 'international standard', 'config_control_design', 1994, #624 ) ;
#682 = ORIENTED_EDGE ( 'NONE', *, *, #341, .T. ) ;
#683 = ADVANCED_FACE ( 'NONE', ( #476 ), #583, .T. ) ;
#684 = DIRECTION ( 'NONE',  ( 1.000000000000000000, 0.0000000000000000000, -1.224646799147353207E-16 ) ) ;
#685 = CIRCLE ( 'NONE', #698, 1.199999999999999734 ) ;
#686 = ORIENTED_EDGE ( 'NONE', *, *, #154, .F. ) ;
#687 = AXIS2_PLACEMENT_3D ( 'NONE', #460, #464, #102 ) ;
#688 = CARTESIAN_POINT ( 'NONE',  ( 0.0000000000000000000, 12.49999999999999645, 0.0000000000000000000 ) ) ;
#689 = ORIENTED_EDGE ( 'NONE', *, *, #367, .T. ) ;
#690 = APPROVAL_ROLE ( '' ) ;
#691 = DATE_AND_TIME ( #481, #297 ) ;
#692 = DIRECTION ( 'NONE',  ( -0.0000000000000000000, -1.000000000000000000, -0.0000000000000000000 ) ) ;
#693 = ORIENTED_EDGE ( 'NONE', *, *, #156, .F. ) ;
#694 = CARTESIAN_POINT ( 'NONE',  ( 3.034366110002572725, 2.155690181589471788, 0.6459612686773883450 ) ) ;
#695 = ORIENTED_EDGE ( 'NONE', *, *, #373, .F. ) ;
#696 = CARTESIAN_POINT ( 'NONE',  ( 2.731111210209848483, 5.287379134664366376, -1.469920363526886486 ) ) ;
#697 = LOCAL_TIME ( 16, 21, 19.00000000000000000, #354 ) ;
#698 = AXIS2_PLACEMENT_3D ( 'NONE', #284, #506, #174 ) ;
#699 = CARTESIAN_POINT ( 'NONE',  ( 1.224646799147353256E-15, -5.000000000000000000, -7.500000000000000000 ) ) ;
#700 = CIRCLE ( 'NONE', #567, 13.00000000000000178 ) ;
#701 = ORIENTED_EDGE ( 'NONE', *, *, #103, .T. ) ;
#702 = CARTESIAN_POINT ( 'NONE',  ( 2.409875515457177375, 4.132135197249712455, -1.950000000000000622 ) ) ;
#703 = EDGE_LOOP ( 'NONE', ( #267, #83 ) ) ;
#704 = CC_DESIGN_APPROVAL ( #362, ( #386 ) ) ;
#705 = PERSON_AND_ORGANIZATION ( #401, #733 ) ;
#706 = VERTEX_POINT ( 'NONE', #61 ) ;
#707 = VERTEX_POINT ( 'NONE', #568 ) ;
#708 = EDGE_CURVE ( 'NONE', #563, #425, #526, .T. ) ;
#709 = DIRECTION ( 'NONE',  ( 0.0000000000000000000, 1.000000000000000000, 0.0000000000000000000 ) ) ;
#710 = PERSON_AND_ORGANIZATION ( #401, #733 ) ;
#711 = PLANE ( 'NONE',  #718 ) ;
#712 = LINE ( 'NONE', #491, #520 ) ;
#713 = CARTESIAN_POINT ( 'NONE',  ( 2.562414561075205377, 4.878098816097576673, 1.745785753521218897 ) ) ;
#714 = CARTESIAN_POINT ( 'NONE',  ( 0.0000000000000000000, 0.0000000000000000000, 0.0000000000000000000 ) ) ;
#715 = CARTESIAN_POINT ( 'NONE',  ( 12.99202316479056307, 2.101461296606881746, 0.5123997021863758716 ) ) ;
#716 = VERTEX_POINT ( 'NONE', #158 ) ;
#717 = DIRECTION ( 'NONE',  ( 0.0000000000000000000, 1.000000000000000000, 0.0000000000000000000 ) ) ;
#718 = AXIS2_PLACEMENT_3D ( 'NONE', #258, #387, #602 ) ;
#719 = CARTESIAN_POINT ( 'NONE',  ( 12.85291795663537151, 3.999999999999999112, 1.950000000000001288 ) ) ;
#720 = DIRECTION ( 'NONE',  ( 0.0000000000000000000, 0.0000000000000000000, -1.000000000000000000 ) ) ;
#721 = CARTESIAN_POINT ( 'NONE',  ( 12.86107449910292644, 4.514315300339133863, 1.898013479824614436 ) ) ;
#722 = CARTESIAN_POINT ( 'NONE',  ( 12.99808037912015024, 2.062681722476790824, -0.2560767439215049790 ) ) ;
#723 = FACE_OUTER_BOUND ( 'NONE', #545, .T. ) ;
#724 = DIRECTION ( 'NONE',  ( 0.0000000000000000000, 1.000000000000000000, 0.0000000000000000000 ) ) ;
#725 = DIRECTION ( 'NONE',  ( 0.0000000000000000000, -0.0000000000000000000, 1.000000000000000000 ) ) ;
#726 = CARTESIAN_POINT ( 'NONE',  ( 12.90738282586410790, 2.810810372730244033, 1.550662961759385894 ) ) ;
#727 = CARTESIAN_POINT ( 'NONE',  ( 0.0000000000000000000, -5.500000000000001776, 0.0000000000000000000 ) ) ;
#728 = EDGE_LOOP ( 'NONE', ( #695, #462, #428, #149 ) ) ;
#729 = CARTESIAN_POINT ( 'NONE',  ( 3.673940397442060361E-16, 0.0000000000000000000, -3.000000000000000444 ) ) ;
#730 = CARTESIAN_POINT ( 'NONE',  ( 0.0000000000000000000, 11.29999999999999716, -13.00000000000000178 ) ) ;
#731 = CARTESIAN_POINT ( 'NONE',  ( 2.461838170613010579, 3.481433851040882210, -1.884263159967969115 ) ) ;
#732 = CC_DESIGN_PERSON_AND_ORGANIZATION_ASSIGNMENT ( #710, #62, ( #339 ) ) ;
#733 = ORGANIZATION ( 'UNSPECIFIED', 'UNSPECIFIED', '' ) ;
#734 = EDGE_LOOP ( 'NONE', ( #195, #318 ) ) ;
#735 = DIRECTION ( 'NONE',  ( 0.0000000000000000000, 0.0000000000000000000, -1.000000000000000000 ) ) ;
#736 = CYLINDRICAL_SURFACE ( 'NONE', #193, 13.00000000000000178 ) ;
#737 = AXIS2_PLACEMENT_3D ( 'NONE', #382, #202, #211 ) ;
#738 = DIRECTION ( 'NONE',  ( 1.000000000000000000, 0.0000000000000000000, 0.0000000000000000000 ) ) ;
#739 = CARTESIAN_POINT ( 'NONE',  ( 0.0000000000000000000, -5.000000000000000000, 7.500000000000000000 ) ) ;
ENDSEC;
END-ISO-10303-21;
