M48
;GenerationSoftware,Autodesk,EAGLE,9.5.1*%
;CreationDate,2019-11-07T15:08:01Z*%
FMAT,2
ICI,OFF
METRIC,TZ,000.000
T6C0.406
T5C0.850
T4C0.900
T3C1.016
T2C2.000
T1C3.000
%
G90
M71
T1
X34290Y106680
X151130Y106680
X34290Y5080
X151130Y5080
T2
X39370Y24130
X39370Y34290
X39370Y85090
X39370Y95250
X39370Y69850
X39370Y80010
X39370Y54610
X39370Y64770
X39370Y39370
X39370Y49530
T3
X114300Y64770
X111760Y64770
X109220Y64770
X106680Y64770
X135890Y49530
X46990Y13970
X46990Y11430
X130810Y87630
X46990Y8890
X46990Y6350
X46990Y3810
X130810Y49530
X130810Y52070
X130810Y54610
X130810Y57150
X130810Y59690
X130810Y62230
X130810Y64770
X130810Y67310
X130810Y69850
X130810Y72390
X130810Y74930
X130810Y77470
X130810Y80010
X130810Y82550
X130810Y85090
X130810Y90170
X130810Y92710
X97790Y16510
X97790Y64770
X95250Y64770
X92710Y64770
X90170Y64770
X87630Y64770
X85090Y64770
X73660Y63500
X71120Y63500
X68580Y63500
X66040Y63500
X63500Y63500
X60960Y63500
X107950Y16510
X105410Y16510
X102870Y16510
X100330Y16510
X95250Y16510
X95250Y29210
X97790Y29210
X100330Y29210
X102870Y29210
X105410Y29210
X46990Y16510
X107950Y29210
X133350Y16510
X130810Y16510
X128270Y16510
X125730Y16510
X123190Y16510
X120650Y16510
X120650Y29210
X123190Y29210
X125730Y29210
X128270Y29210
X130810Y29210
X133350Y29210
X135890Y92710
X119380Y64770
X116840Y64770
T4
X44450Y87630
X44450Y44450
X44450Y41910
X44450Y29210
X44450Y26670
X86360Y69850
X44450Y90170
X44450Y74930
X44450Y72390
X44450Y59690
X44450Y57150
T5
X82550Y39370
X80010Y39370
X77470Y39370
X74930Y39370
X105410Y44450
X102870Y44450
X100330Y44450
X97790Y44450
X95250Y44450
X92710Y44450
X90170Y44450
X87630Y44450
X128270Y44450
X125730Y44450
X123190Y44450
X120650Y44450
X116840Y7620
X115570Y44450
X113030Y44450
X110490Y44450
X82550Y44450
X80010Y44450
X77470Y44450
X74930Y44450
X72390Y44450
X69850Y44450
X67310Y44450
X64770Y44450
X78740Y92710
X76200Y92710
X73660Y92710
X71120Y92710
X68580Y92710
X66040Y92710
X63500Y92710
X60960Y92710
X58420Y92710
X55880Y92710
X123190Y92710
X118110Y92710
X115570Y92710
X113030Y92710
X110490Y92710
X107950Y92710
X105410Y92710
X100330Y92710
X97790Y92710
X95250Y92710
X92710Y92710
X90170Y92710
X87630Y92710
X85090Y92710
X82550Y92710
X72390Y39370
X69850Y39370
X67310Y39370
X64770Y39370
X118110Y44450
X124460Y7620
X121920Y7620
X119380Y7620
X120650Y92710
X114300Y7620
X111760Y7620
X109220Y7620
X106680Y7620
X105410Y39370
X102870Y39370
X100330Y39370
X97790Y39370
X95250Y39370
X92710Y39370
X90170Y39370
X87630Y39370
T6
X86360Y69850
X86360Y69850
X86360Y69850
X86360Y69850
X86360Y69850
M30