M48
;GenerationSoftware,Autodesk,EAGLE,9.5.1*%
;CreationDate,2019-12-10T18:48:46Z*%
FMAT,2
ICI,OFF
METRIC,TZ,000.000
T5C0.850
T4C0.900
T3C1.016
T2C2.000
T1C3.000
%
G90
M71
T1
X142240Y81280
X142240Y6350
X27940Y6350
X27940Y81280
T2
X8890Y71120
X8890Y81280
X8890Y54610
X8890Y64770
X8890Y38100
X8890Y48260
X8890Y21590
X8890Y31750
X8890Y5080
X8890Y15240
T3
X30480Y21590
X33020Y21590
X71120Y59690
X35560Y21590
X38100Y21590
X97790Y57150
X91440Y57150
X104140Y57150
X109220Y57150
X134620Y21590
X128270Y57150
X121920Y57150
X115570Y57150
X83820Y59690
X81280Y59690
X78740Y59690
X76200Y59690
X73660Y59690
X137160Y21590
X68580Y59690
X66040Y59690
X63500Y59690
X60960Y59690
X58420Y59690
X55880Y59690
X53340Y59690
X50800Y59690
X48260Y59690
X45720Y59690
X43180Y59690
X40640Y59690
X38100Y59690
X35560Y59690
X33020Y59690
X30480Y59690
X27940Y59690
X25400Y59690
X25400Y44450
X27940Y44450
X30480Y44450
X33020Y44450
X35560Y44450
X38100Y44450
X40640Y44450
X43180Y44450
X45720Y44450
X48260Y44450
X50800Y44450
X53340Y44450
X55880Y44450
X58420Y44450
X60960Y44450
X63500Y44450
X66040Y44450
X68580Y44450
X71120Y44450
X73660Y44450
X76200Y44450
X78740Y44450
X81280Y44450
X83820Y44450
X100330Y43180
X102870Y43180
X105410Y43180
X107950Y43180
X110490Y43180
X113030Y43180
X113030Y30480
X110490Y30480
X107950Y30480
X105410Y30480
X102870Y30480
X100330Y30480
X121920Y43180
X124460Y43180
X127000Y43180
X129540Y43180
X132080Y43180
X134620Y43180
X134620Y30480
X132080Y30480
X129540Y30480
X127000Y30480
X124460Y30480
X121920Y30480
X82550Y21590
X85090Y21590
X87630Y21590
X90170Y21590
X92710Y21590
X95250Y21590
X53340Y21590
X55880Y21590
X58420Y21590
X60960Y21590
X63500Y21590
X66040Y21590
X25400Y21590
X27940Y21590
T4
X13970Y76200
X13970Y73660
X13970Y57150
X13970Y43180
X13970Y40640
X13970Y26670
X13970Y24130
X13970Y10160
X13970Y7620
X13970Y59690
T5
X129540Y21590
X127000Y21590
X124460Y21590
X121920Y21590
X119380Y21590
X116840Y21590
X114300Y21590
X111760Y21590
M30