M48
;GenerationSoftware,Autodesk,EAGLE,9.3.0*%
;CreationDate,2019-10-01T16:53:33Z*%
FMAT,2
ICI,OFF
METRIC,TZ,000.000
T4C0.813
T3C1.016
T2C1.118
T1C3.000
%
G90
M71
T1
X64770Y73660
X80010Y41910
T2
X81280Y59690
X71120Y59690
T3
X69850Y54610
X69850Y41910
X72390Y41910
X69850Y49530
X64770Y59690
X74930Y41910
X73660Y49530
X64770Y54610
X74930Y68580
X71120Y73660
X78740Y73660
T4
X71120Y68580
X63500Y68580
X81280Y64770
X73660Y64770
X71120Y64770
X63500Y64770
M30