ISO-10303-21;
HEADER;
FILE_DESCRIPTION (( 'STEP AP203' ),
    '1' );
FILE_NAME ('cover.STEP',
    '2019-12-12T17:36:53',
    ( '' ),
    ( '' ),
    'SwSTEP 2.0',
    'SolidWorks 2018',
    '' );
FILE_SCHEMA (( 'CONFIG_CONTROL_DESIGN' ));
ENDSEC;

DATA;
#1 = LINE ( 'NONE', #697, #377 ) ;
#2 = LINE ( 'NONE', #361, #702 ) ;
#3 = EDGE_CURVE ( 'NONE', #485, #446, #177, .T. ) ;
#4 = APPROVAL_PERSON_ORGANIZATION ( #207, #839, #84 ) ;
#5 = ORIENTED_EDGE ( 'NONE', *, *, #523, .T. ) ;
#6 = ORIENTED_EDGE ( 'NONE', *, *, #419, .F. ) ;
#7 = ADVANCED_FACE ( 'NONE', ( #1004 ), #1030, .F. ) ;
#8 = APPROVAL_STATUS ( 'not_yet_approved' ) ;
#9 = VECTOR ( 'NONE', #319, 1000.000000000000000 ) ;
#10 = CIRCLE ( 'NONE', #156, 1.550000000000000933 ) ;
#11 = VECTOR ( 'NONE', #451, 1000.000000000000000 ) ;
#12 = ORIENTED_EDGE ( 'NONE', *, *, #544, .F. ) ;
#13 = AXIS2_PLACEMENT_3D ( 'NONE', #339, #422, #827 ) ;
#14 = ORIENTED_EDGE ( 'NONE', *, *, #920, .F. ) ;
#15 = ORIENTED_EDGE ( 'NONE', *, *, #862, .T. ) ;
#16 = CARTESIAN_POINT ( 'NONE',  ( 60.53499999999998238, 0.7000000000000050626, -8.819999999999980744 ) ) ;
#17 = PLANE ( 'NONE',  #71 ) ;
#18 = CARTESIAN_POINT ( 'NONE',  ( 1.000000000000000000, 1.000000000000000000, -103.0000000000000000 ) ) ;
#19 = AXIS2_PLACEMENT_3D ( 'NONE', #875, #786, #870 ) ;
#20 = DIRECTION ( 'NONE',  ( 0.0000000000000000000, 0.0000000000000000000, 1.000000000000000000 ) ) ;
#21 = CARTESIAN_POINT ( 'NONE',  ( 68.00000000000000000, 1.000000000000000000, -1.000000000000000000 ) ) ;
#22 = VECTOR ( 'NONE', #628, 999.9999999999998863 ) ;
#23 = VECTOR ( 'NONE', #834, 1000.000000000000000 ) ;
#24 = EDGE_CURVE ( 'NONE', #564, #495, #647, .T. ) ;
#25 = ORIENTED_EDGE ( 'NONE', *, *, #926, .T. ) ;
#26 = CARTESIAN_POINT ( 'NONE',  ( 1.000000000000000000, 2.000000000000000000, -103.0000000000000000 ) ) ;
#27 = EDGE_LOOP ( 'NONE', ( #392, #767, #355 ) ) ;
#28 = ORIENTED_EDGE ( 'NONE', *, *, #733, .F. ) ;
#29 = AXIS2_PLACEMENT_3D ( 'NONE', #372, #441, #907 ) ;
#30 = CARTESIAN_POINT ( 'NONE',  ( 69.00000000000000000, 1.000000000000000000, 0.0000000000000000000 ) ) ;
#31 = DIRECTION ( 'NONE',  ( -0.0000000000000000000, 1.000000000000000000, -0.0000000000000000000 ) ) ;
#32 = EDGE_CURVE ( 'NONE', #507, #461, #448, .T. ) ;
#33 = DIRECTION ( 'NONE',  ( -0.0000000000000000000, 1.000000000000000000, -0.0000000000000000000 ) ) ;
#34 = VECTOR ( 'NONE', #143, 1000.000000000000000 ) ;
#35 =( LENGTH_UNIT ( ) NAMED_UNIT ( * ) SI_UNIT ( .MILLI., .METRE. ) );
#36 = CARTESIAN_POINT ( 'NONE',  ( 68.00000000000000000, 0.0000000000000000000, -103.0000000000000000 ) ) ;
#37 = CIRCLE ( 'NONE', #747, 2.850000000000005418 ) ;
#38 = EDGE_LOOP ( 'NONE', ( #409, #898, #626, #475 ) ) ;
#39 = ORIENTED_EDGE ( 'NONE', *, *, #651, .F. ) ;
#40 = AXIS2_PLACEMENT_3D ( 'NONE', #856, #231, #142 ) ;
#41 = CARTESIAN_POINT ( 'NONE',  ( 8.464999999999985647, 0.0000000000000000000, -7.269999999999980922 ) ) ;
#42 = ORIENTED_EDGE ( 'NONE', *, *, #790, .T. ) ;
#43 = PLANE ( 'NONE',  #325 ) ;
#44 = DIRECTION ( 'NONE',  ( 0.0000000000000000000, -0.0000000000000000000, 1.000000000000000000 ) ) ;
#45 = CARTESIAN_POINT ( 'NONE',  ( 1.000000000000000000, 2.000000000000000000, -104.0000000000000000 ) ) ;
#46 = CARTESIAN_POINT ( 'NONE',  ( 1.000000000000000000, 2.000000000000000000, 0.0000000000000000000 ) ) ;
#47 = EDGE_CURVE ( 'NONE', #154, #67, #417, .T. ) ;
#48 = DIRECTION ( 'NONE',  ( 0.0000000000000000000, 0.0000000000000000000, -1.000000000000000000 ) ) ;
#49 = AXIS2_PLACEMENT_3D ( 'NONE', #298, #375, #48 ) ;
#50 = DIRECTION ( 'NONE',  ( -0.0000000000000000000, 1.000000000000000000, 0.0000000000000000000 ) ) ;
#51 = DIRECTION ( 'NONE',  ( -0.0000000000000000000, 1.000000000000000000, -0.0000000000000000000 ) ) ;
#52 = LINE ( 'NONE', #151, #9 ) ;
#53 = CONICAL_SURFACE ( 'NONE', #29, 1.549999999999995826, 0.7853981633974465026 ) ;
#54 = CARTESIAN_POINT ( 'NONE',  ( 8.464999999999985647, 0.0000000000000000000, -8.819999999999980744 ) ) ;
#55 = ADVANCED_FACE ( 'NONE', ( #724 ), #783, .F. ) ;
#56 = EDGE_LOOP ( 'NONE', ( #705, #396, #625, #70 ) ) ;
#57 = ORIENTED_EDGE ( 'NONE', *, *, #530, .T. ) ;
#58 = ORIENTED_EDGE ( 'NONE', *, *, #805, .F. ) ;
#59 = EDGE_CURVE ( 'NONE', #515, #193, #471, .T. ) ;
#60 = CARTESIAN_POINT ( 'NONE',  ( 60.53499999999998238, 0.0000000000000000000, -95.17999999999999261 ) ) ;
#61 = CARTESIAN_POINT ( 'NONE',  ( 0.0000000000000000000, 0.0000000000000000000, -104.0000000000000000 ) ) ;
#62 = DIRECTION ( 'NONE',  ( 0.0000000000000000000, 0.0000000000000000000, -1.000000000000000000 ) ) ;
#63 = FACE_BOUND ( 'NONE', #616, .T. ) ;
#64 = DIRECTION ( 'NONE',  ( 0.0000000000000000000, 1.000000000000000000, 0.0000000000000000000 ) ) ;
#65 = DIRECTION ( 'NONE',  ( 0.0000000000000000000, 1.000000000000000000, 0.0000000000000000000 ) ) ;
#66 = CYLINDRICAL_SURFACE ( 'NONE', #822, 1.550000000000000933 ) ;
#67 = VERTEX_POINT ( 'NONE', #469 ) ;
#68 = ORIENTED_EDGE ( 'NONE', *, *, #805, .T. ) ;
#69 = CARTESIAN_POINT ( 'NONE',  ( 1.000000000000000000, 2.000000000000000000, -1.000000000000000000 ) ) ;
#70 = ORIENTED_EDGE ( 'NONE', *, *, #640, .F. ) ;
#71 = AXIS2_PLACEMENT_3D ( 'NONE', #808, #423, #577 ) ;
#72 = CARTESIAN_POINT ( 'NONE',  ( 69.00000000000000000, 0.0000000000000000000, -0.9999999999999995559 ) ) ;
#73 = ADVANCED_FACE ( 'NONE', ( #914 ), #548, .F. ) ;
#74 = DIRECTION ( 'NONE',  ( -0.0000000000000000000, 1.000000000000000000, -0.0000000000000000000 ) ) ;
#75 = EDGE_CURVE ( 'NONE', #629, #251, #189, .T. ) ;
#76 = LINE ( 'NONE', #631, #34 ) ;
#77 = PRODUCT_DEFINITION_FORMATION_WITH_SPECIFIED_SOURCE ( 'ANY', '', #367, .NOT_KNOWN. ) ;
#78 = ADVANCED_FACE ( 'NONE', ( #403 ), #318, .F. ) ;
#79 = VERTEX_POINT ( 'NONE', #147 ) ;
#80 = EDGE_LOOP ( 'NONE', ( #563, #587, #789, #931 ) ) ;
#81 = EDGE_LOOP ( 'NONE', ( #1006, #919, #91, #1032 ) ) ;
#82 = ADVANCED_FACE ( 'NONE', ( #838 ), #236, .F. ) ;
#83 = AXIS2_PLACEMENT_3D ( 'NONE', #202, #118, #757 ) ;
#84 = APPROVAL_ROLE ( '' ) ;
#85 = PERSON_AND_ORGANIZATION_ROLE ( 'creator' ) ;
#86 = VECTOR ( 'NONE', #846, 1000.000000000000000 ) ;
#87 = FACE_OUTER_BOUND ( 'NONE', #945, .T. ) ;
#88 = AXIS2_PLACEMENT_3D ( 'NONE', #294, #454, #1003 ) ;
#89 = APPROVAL_PERSON_ORGANIZATION ( #136, #617, #487 ) ;
#90 = ORIENTED_EDGE ( 'NONE', *, *, #159, .T. ) ;
#91 = ORIENTED_EDGE ( 'NONE', *, *, #492, .T. ) ;
#92 = PERSON_AND_ORGANIZATION_ROLE ( 'design_owner' ) ;
#93 = VERTEX_POINT ( 'NONE', #301 ) ;
#94 = ORIENTED_EDGE ( 'NONE', *, *, #24, .F. ) ;
#95 = EDGE_CURVE ( 'NONE', #449, #333, #37, .T. ) ;
#96 = VECTOR ( 'NONE', #620, 1000.000000000000000 ) ;
#97 = EDGE_CURVE ( 'NONE', #394, #787, #513, .T. ) ;
#98 = DIRECTION ( 'NONE',  ( 0.0000000000000000000, -1.000000000000000000, 0.0000000000000000000 ) ) ;
#99 = ORIENTED_EDGE ( 'NONE', *, *, #796, .T. ) ;
#100 = ORIENTED_EDGE ( 'NONE', *, *, #926, .F. ) ;
#101 = CARTESIAN_POINT ( 'NONE',  ( 60.53499999999998238, 0.7000000000000313749, -93.62999999999999545 ) ) ;
#102 = DIRECTION ( 'NONE',  ( 0.0000000000000000000, 0.0000000000000000000, 1.000000000000000000 ) ) ;
#103 = DIRECTION ( 'NONE',  ( 0.0000000000000000000, 1.000000000000000000, 0.0000000000000000000 ) ) ;
#104 = EDGE_CURVE ( 'NONE', #1031, #867, #2, .T. ) ;
#105 = CARTESIAN_POINT ( 'NONE',  ( 8.464999999999985647, 0.7000000000000031752, -7.269999999999980922 ) ) ;
#106 = DIRECTION ( 'NONE',  ( 0.0000000000000000000, 0.0000000000000000000, 1.000000000000000000 ) ) ;
#107 = FACE_BOUND ( 'NONE', #600, .T. ) ;
#108 = VECTOR ( 'NONE', #31, 1000.000000000000000 ) ;
#109 = COORDINATED_UNIVERSAL_TIME_OFFSET ( 0, 0, .AHEAD. ) ;
#110 = DIRECTION ( 'NONE',  ( 0.0000000000000000000, 1.000000000000000000, 0.0000000000000000000 ) ) ;
#111 = ORIENTED_EDGE ( 'NONE', *, *, #910, .T. ) ;
#112 = DIRECTION ( 'NONE',  ( 0.0000000000000000000, 0.0000000000000000000, 1.000000000000000000 ) ) ;
#113 = ORIENTED_EDGE ( 'NONE', *, *, #97, .F. ) ;
#114 = EDGE_LOOP ( 'NONE', ( #1019, #866, #815, #165 ) ) ;
#115 = DIRECTION ( 'NONE',  ( 0.0000000000000000000, -1.000000000000000000, 0.0000000000000000000 ) ) ;
#116 = CARTESIAN_POINT ( 'NONE',  ( 0.0000000000000000000, 2.000000000000000000, -103.0000000000000000 ) ) ;
#117 = CARTESIAN_POINT ( 'NONE',  ( 8.464999999999985647, 2.000000000000000000, -95.17999999999999261 ) ) ;
#118 = DIRECTION ( 'NONE',  ( 0.0000000000000000000, 1.000000000000000000, 0.0000000000000000000 ) ) ;
#119 = AXIS2_PLACEMENT_3D ( 'NONE', #905, #103, #902 ) ;
#120 = CARTESIAN_POINT ( 'NONE',  ( 0.0000000000000000000, 1.000000000000000000, -1.000000000000000000 ) ) ;
#121 = FACE_BOUND ( 'NONE', #899, .T. ) ;
#122 = CARTESIAN_POINT ( 'NONE',  ( 8.464999999999985647, 2.000000000000000000, -95.17999999999999261 ) ) ;
#123 = FACE_OUTER_BOUND ( 'NONE', #750, .T. ) ;
#124 = EDGE_LOOP ( 'NONE', ( #241, #432, #1029, #719 ) ) ;
#125 = EDGE_CURVE ( 'NONE', #717, #751, #329, .T. ) ;
#126 = EDGE_LOOP ( 'NONE', ( #12, #100, #562, #859 ) ) ;
#127 = DIRECTION ( 'NONE',  ( -0.0000000000000000000, 1.000000000000000000, -0.0000000000000000000 ) ) ;
#128 = ORIENTED_EDGE ( 'NONE', *, *, #274, .T. ) ;
#129 = CARTESIAN_POINT ( 'NONE',  ( 68.00000000000000000, 2.000000000000000000, -103.0000000000000000 ) ) ;
#130 = CARTESIAN_POINT ( 'NONE',  ( 60.53499999999998238, 2.000000000000000000, -5.969999999999975770 ) ) ;
#131 = DIRECTION ( 'NONE',  ( 0.0000000000000000000, 0.0000000000000000000, 1.000000000000000000 ) ) ;
#132 = AXIS2_PLACEMENT_3D ( 'NONE', #570, #98, #659 ) ;
#133 = CARTESIAN_POINT ( 'NONE',  ( 60.53499999999998238, 0.7000000000000313749, -95.17999999999999261 ) ) ;
#134 = VECTOR ( 'NONE', #115, 1000.000000000000000 ) ;
#135 = VECTOR ( 'NONE', #937, 1000.000000000000000 ) ;
#136 = PERSON_AND_ORGANIZATION ( #288, #673 ) ;
#137 = CARTESIAN_POINT ( 'NONE',  ( 60.53499999999998238, 0.7000000000000050626, -8.819999999999980744 ) ) ;
#138 = VERTEX_POINT ( 'NONE', #840 ) ;
#139 = ORIENTED_EDGE ( 'NONE', *, *, #939, .T. ) ;
#140 = ORIENTED_EDGE ( 'NONE', *, *, #155, .T. ) ;
#141 = AXIS2_PLACEMENT_3D ( 'NONE', #122, #933, #684 ) ;
#142 = DIRECTION ( 'NONE',  ( 1.000000000000000000, 0.0000000000000000000, 0.0000000000000000000 ) ) ;
#143 = DIRECTION ( 'NONE',  ( 0.0000000000000000000, -1.000000000000000000, 0.0000000000000000000 ) ) ;
#144 = AXIS2_PLACEMENT_3D ( 'NONE', #686, #218, #205 ) ;
#145 = CIRCLE ( 'NONE', #199, 1.550000000000000933 ) ;
#146 = DIRECTION ( 'NONE',  ( 0.0000000000000000000, 0.0000000000000000000, -1.000000000000000000 ) ) ;
#147 = CARTESIAN_POINT ( 'NONE',  ( 69.00000000000000000, 0.0000000000000000000, -102.9999999999999716 ) ) ;
#148 = LINE ( 'NONE', #61, #974 ) ;
#149 = LOCAL_TIME ( 17, 36, 53.00000000000000000, #854 ) ;
#150 = ORIENTED_EDGE ( 'NONE', *, *, #400, .T. ) ;
#151 = CARTESIAN_POINT ( 'NONE',  ( 8.464999999999985647, 0.0000000000000000000, -7.269999999999980922 ) ) ;
#152 = EDGE_LOOP ( 'NONE', ( #553, #407, #383, #393 ) ) ;
#153 = CARTESIAN_POINT ( 'NONE',  ( 60.53499999999998238, 2.000000000000000000, -95.17999999999999261 ) ) ;
#154 = VERTEX_POINT ( 'NONE', #120 ) ;
#155 = EDGE_CURVE ( 'NONE', #664, #1031, #940, .T. ) ;
#156 = AXIS2_PLACEMENT_3D ( 'NONE', #16, #741, #344 ) ;
#157 = PERSON_AND_ORGANIZATION_ROLE ( 'classification_officer' ) ;
#158 = ADVANCED_FACE ( 'NONE', ( #569 ), #774, .T. ) ;
#159 = EDGE_CURVE ( 'NONE', #932, #779, #623, .T. ) ;
#160 = CYLINDRICAL_SURFACE ( 'NONE', #997, 1.000000000000000888 ) ;
#161 = VECTOR ( 'NONE', #269, 1000.000000000000000 ) ;
#162 = LINE ( 'NONE', #374, #559 ) ;
#163 = APPROVAL_STATUS ( 'not_yet_approved' ) ;
#164 = ADVANCED_BREP_SHAPE_REPRESENTATION ( 'cover', ( #641, #675 ), #358 ) ;
#165 = ORIENTED_EDGE ( 'NONE', *, *, #571, .F. ) ;
#166 = ORIENTED_EDGE ( 'NONE', *, *, #59, .T. ) ;
#167 = EDGE_CURVE ( 'NONE', #638, #779, #309, .T. ) ;
#168 = SHAPE_DEFINITION_REPRESENTATION ( #567, #164 ) ;
#169 = SECURITY_CLASSIFICATION_LEVEL ( 'unclassified' ) ;
#170 = APPROVAL_ROLE ( '' ) ;
#171 = DIRECTION ( 'NONE',  ( 0.0000000000000000000, 1.000000000000000000, 0.0000000000000000000 ) ) ;
#172 = FACE_OUTER_BOUND ( 'NONE', #752, .T. ) ;
#173 = CIRCLE ( 'NONE', #972, 1.550000000000000933 ) ;
#174 = AXIS2_PLACEMENT_3D ( 'NONE', #117, #209, #290 ) ;
#175 = VECTOR ( 'NONE', #518, 1000.000000000000000 ) ;
#176 = ORIENTED_EDGE ( 'NONE', *, *, #483, .F. ) ;
#177 = CIRCLE ( 'NONE', #144, 2.850000000000005418 ) ;
#178 = DIRECTION ( 'NONE',  ( 1.000000000000000000, 0.0000000000000000000, 0.0000000000000000000 ) ) ;
#179 = EDGE_LOOP ( 'NONE', ( #845, #693, #844, #6 ) ) ;
#180 = DIRECTION ( 'NONE',  ( 0.0000000000000000000, -1.000000000000000000, 0.0000000000000000000 ) ) ;
#181 = ORIENTED_EDGE ( 'NONE', *, *, #976, .F. ) ;
#182 = DIRECTION ( 'NONE',  ( -1.000000000000000000, -0.0000000000000000000, -0.0000000000000000000 ) ) ;
#183 = PLANE ( 'NONE',  #961 ) ;
#184 = EDGE_CURVE ( 'NONE', #302, #154, #415, .T. ) ;
#185 = DIRECTION ( 'NONE',  ( 0.0000000000000000000, -1.000000000000000000, 0.0000000000000000000 ) ) ;
#186 = FACE_OUTER_BOUND ( 'NONE', #126, .T. ) ;
#187 = EDGE_CURVE ( 'NONE', #507, #663, #490, .T. ) ;
#188 = DIRECTION ( 'NONE',  ( 0.0000000000000000000, 1.000000000000000000, 0.0000000000000000000 ) ) ;
#189 = CIRCLE ( 'NONE', #683, 2.849999999999963674 ) ;
#190 = PERSON_AND_ORGANIZATION ( #288, #673 ) ;
#191 = AXIS2_PLACEMENT_3D ( 'NONE', #893, #185, #674 ) ;
#192 = ORIENTED_EDGE ( 'NONE', *, *, #953, .T. ) ;
#193 = VERTEX_POINT ( 'NONE', #748 ) ;
#194 = EDGE_LOOP ( 'NONE', ( #42, #331, #916, #576 ) ) ;
#195 = DIRECTION ( 'NONE',  ( 0.0000000000000000000, 1.000000000000000000, 0.0000000000000000000 ) ) ;
#196 = CARTESIAN_POINT ( 'NONE',  ( 68.00000000000000000, 2.000000000000000000, -104.0000000000000000 ) ) ;
#197 = DIRECTION ( 'NONE',  ( -1.000000000000000000, 0.0000000000000000000, 0.0000000000000000000 ) ) ;
#198 = CARTESIAN_POINT ( 'NONE',  ( 68.00000000000000000, 1.000000000000000000, -104.0000000000000000 ) ) ;
#199 = AXIS2_PLACEMENT_3D ( 'NONE', #897, #348, #889 ) ;
#200 = CARTESIAN_POINT ( 'NONE',  ( 60.53499999999998238, 0.0000000000000000000, -8.819999999999980744 ) ) ;
#201 = DIRECTION ( 'NONE',  ( 0.0000000000000000000, 1.000000000000000000, 0.0000000000000000000 ) ) ;
#202 = CARTESIAN_POINT ( 'NONE',  ( 68.00000000000000000, 1.000000000000000000, -1.000000000000000000 ) ) ;
#203 = CARTESIAN_POINT ( 'NONE',  ( 68.00000000000000000, 1.000000000000000000, -103.0000000000000000 ) ) ;
#204 = CIRCLE ( 'NONE', #695, 1.549999999999995826 ) ;
#205 = DIRECTION ( 'NONE',  ( 0.0000000000000000000, 0.0000000000000000000, -1.000000000000000000 ) ) ;
#206 = FACE_OUTER_BOUND ( 'NONE', #408, .T. ) ;
#207 = PERSON_AND_ORGANIZATION ( #288, #673 ) ;
#208 = AXIS2_PLACEMENT_3D ( 'NONE', #474, #50, #230 ) ;
#209 = DIRECTION ( 'NONE',  ( 0.0000000000000000000, -1.000000000000000000, 0.0000000000000000000 ) ) ;
#210 = CARTESIAN_POINT ( 'NONE',  ( 60.53499999999998238, 2.000000000000000000, -8.819999999999980744 ) ) ;
#211 = ORIENTED_EDGE ( 'NONE', *, *, #530, .F. ) ;
#212 = DIRECTION ( 'NONE',  ( 0.0000000000000000000, 0.0000000000000000000, -1.000000000000000000 ) ) ;
#213 = ORIENTED_EDGE ( 'NONE', *, *, #104, .F. ) ;
#214 = ORIENTED_EDGE ( 'NONE', *, *, #733, .T. ) ;
#215 = VERTEX_POINT ( 'NONE', #217 ) ;
#216 = CARTESIAN_POINT ( 'NONE',  ( 68.00000000000000000, 2.000000000000000000, 0.0000000000000000000 ) ) ;
#217 = CARTESIAN_POINT ( 'NONE',  ( 60.53499999999998238, 0.0000000000000000000, -93.62999999999999545 ) ) ;
#218 = DIRECTION ( 'NONE',  ( 0.0000000000000000000, -1.000000000000000000, 0.0000000000000000000 ) ) ;
#219 = DATE_AND_TIME ( #923, #235 ) ;
#220 = EDGE_CURVE ( 'NONE', #461, #507, #173, .T. ) ;
#221 = CARTESIAN_POINT ( 'NONE',  ( 68.00000000000000000, 1.000000000000000000, 0.0000000000000000000 ) ) ;
#222 = AXIS2_PLACEMENT_3D ( 'NONE', #480, #1022, #709 ) ;
#223 = DIRECTION ( 'NONE',  ( 0.0000000000000000000, 0.0000000000000000000, -1.000000000000000000 ) ) ;
#224 = UNCERTAINTY_MEASURE_WITH_UNIT (LENGTH_MEASURE( 1.000000000000000082E-05 ), #35, 'distance_accuracy_value', 'NONE');
#225 = CIRCLE ( 'NONE', #410, 2.850000000000005418 ) ;
#226 = ADVANCED_FACE ( 'NONE', ( #206 ), #988, .F. ) ;
#227 = EDGE_LOOP ( 'NONE', ( #25, #315 ) ) ;
#228 = ORIENTED_EDGE ( 'NONE', *, *, #763, .T. ) ;
#229 = VERTEX_POINT ( 'NONE', #669 ) ;
#230 = DIRECTION ( 'NONE',  ( 0.0000000000000000000, 0.0000000000000000000, 1.000000000000000000 ) ) ;
#231 = DIRECTION ( 'NONE',  ( 0.0000000000000000000, 1.000000000000000000, 0.0000000000000000000 ) ) ;
#232 = DIRECTION ( 'NONE',  ( 0.0000000000000000000, 0.0000000000000000000, 1.000000000000000000 ) ) ;
#233 = EDGE_CURVE ( 'NONE', #663, #449, #280, .T. ) ;
#234 = VECTOR ( 'NONE', #666, 1000.000000000000000 ) ;
#235 = LOCAL_TIME ( 17, 36, 53.00000000000000000, #378 ) ;
#236 = CYLINDRICAL_SURFACE ( 'NONE', #848, 1.549999999999995826 ) ;
#237 = VECTOR ( 'NONE', #182, 1000.000000000000000 ) ;
#238 = CARTESIAN_POINT ( 'NONE',  ( 68.00000000000000000, 2.000000000000000000, -1.000000000000000000 ) ) ;
#239 = VERTEX_POINT ( 'NONE', #758 ) ;
#240 = ORIENTED_EDGE ( 'NONE', *, *, #435, .F. ) ;
#241 = ORIENTED_EDGE ( 'NONE', *, *, #809, .F. ) ;
#242 = ORIENTED_EDGE ( 'NONE', *, *, #862, .F. ) ;
#243 = AXIS2_PLACEMENT_3D ( 'NONE', #21, #903, #497 ) ;
#244 = CARTESIAN_POINT ( 'NONE',  ( 8.464999999999985647, 0.0000000000000000000, -96.72999999999998977 ) ) ;
#245 = CARTESIAN_POINT ( 'NONE',  ( 68.00000000000000000, 1.000000000000000000, -103.0000000000000000 ) ) ;
#246 = ADVANCED_FACE ( 'NONE', ( #87 ), #66, .F. ) ;
#247 = DIRECTION ( 'NONE',  ( 0.0000000000000000000, 0.0000000000000000000, -1.000000000000000000 ) ) ;
#248 = EDGE_CURVE ( 'NONE', #585, #638, #255, .T. ) ;
#249 = FACE_OUTER_BOUND ( 'NONE', #194, .T. ) ;
#250 = CYLINDRICAL_SURFACE ( 'NONE', #581, 1.549999999999995826 ) ;
#251 = VERTEX_POINT ( 'NONE', #591 ) ;
#252 = EDGE_LOOP ( 'NONE', ( #353, #679, #842, #150 ) ) ;
#253 = AXIS2_PLACEMENT_3D ( 'NONE', #18, #188, #20 ) ;
#254 = FACE_OUTER_BOUND ( 'NONE', #886, .T. ) ;
#255 = CIRCLE ( 'NONE', #720, 1.000000000000000888 ) ;
#256 = LINE ( 'NONE', #1000, #175 ) ;
#257 = APPLICATION_PROTOCOL_DEFINITION ( 'international standard', 'config_control_design', 1994, #892 ) ;
#258 = DIRECTION ( 'NONE',  ( 0.0000000000000000000, 0.0000000000000000000, -1.000000000000000000 ) ) ;
#259 = ORIENTED_EDGE ( 'NONE', *, *, #598, .T. ) ;
#260 = ORIENTED_EDGE ( 'NONE', *, *, #233, .T. ) ;
#261 = ORIENTED_EDGE ( 'NONE', *, *, #901, .T. ) ;
#262 = DIRECTION ( 'NONE',  ( 0.0000000000000000000, 0.0000000000000000000, 1.000000000000000000 ) ) ;
#263 = AXIS2_PLACEMENT_3D ( 'NONE', #467, #780, #386 ) ;
#264 = DIRECTION ( 'NONE',  ( 0.0000000000000000000, 0.0000000000000000000, -1.000000000000000000 ) ) ;
#265 = EDGE_CURVE ( 'NONE', #717, #300, #812, .T. ) ;
#266 = DIRECTION ( 'NONE',  ( 0.0000000000000000000, 0.0000000000000000000, -1.000000000000000000 ) ) ;
#267 = CIRCLE ( 'NONE', #268, 1.000000000000000888 ) ;
#268 = AXIS2_PLACEMENT_3D ( 'NONE', #245, #1027, #950 ) ;
#269 = DIRECTION ( 'NONE',  ( 8.659560562354963673E-17, 0.7071067811865450192, -0.7071067811865500152 ) ) ;
#270 = ORIENTED_EDGE ( 'NONE', *, *, #598, .F. ) ;
#271 = DIRECTION ( 'NONE',  ( 0.0000000000000000000, 1.000000000000000000, 0.0000000000000000000 ) ) ;
#272 = EDGE_LOOP ( 'NONE', ( #477, #140, #888, #228 ) ) ;
#273 = CARTESIAN_POINT ( 'NONE',  ( 8.464999999999985647, 0.7000000000000298206, -95.17999999999999261 ) ) ;
#274 = EDGE_CURVE ( 'NONE', #1031, #495, #734, .T. ) ;
#275 = CARTESIAN_POINT ( 'NONE',  ( 1.000000000000000000, 1.000000000000000000, -104.0000000000000000 ) ) ;
#276 = DIRECTION ( 'NONE',  ( 0.0000000000000000000, 0.0000000000000000000, 1.000000000000000000 ) ) ;
#277 = FACE_BOUND ( 'NONE', #460, .T. ) ;
#278 = CARTESIAN_POINT ( 'NONE',  ( 0.0000000000000000000, 2.000000000000000000, -1.000000000000000000 ) ) ;
#279 = DIRECTION ( 'NONE',  ( 1.000000000000000000, 0.0000000000000000000, 0.0000000000000000000 ) ) ;
#280 = LINE ( 'NONE', #438, #351 ) ;
#281 = CARTESIAN_POINT ( 'NONE',  ( 60.53499999999998238, 0.0000000000000000000, -10.36999999999998145 ) ) ;
#282 = LINE ( 'NONE', #579, #611 ) ;
#283 = ORIENTED_EDGE ( 'NONE', *, *, #3, .F. ) ;
#284 = ORIENTED_EDGE ( 'NONE', *, *, #691, .F. ) ;
#285 = VERTEX_POINT ( 'NONE', #690 ) ;
#286 = CARTESIAN_POINT ( 'NONE',  ( 1.000000000000000000, 1.000000000000000000, 0.0000000000000000000 ) ) ;
#287 = ORIENTED_EDGE ( 'NONE', *, *, #75, .T. ) ;
#288 = PERSON ( 'UNSPECIFIED', 'UNSPECIFIED', 'UNSPECIFIED', ('UNSPECIFIED'), ('UNSPECIFIED'), ('UNSPECIFIED') ) ;
#289 = DIRECTION ( 'NONE',  ( 1.000000000000000000, -0.0000000000000000000, 0.0000000000000000000 ) ) ;
#290 = DIRECTION ( 'NONE',  ( 0.0000000000000000000, 0.0000000000000000000, -1.000000000000000000 ) ) ;
#291 = CARTESIAN_POINT ( 'NONE',  ( 8.464999999999985647, 0.0000000000000000000, -95.17999999999999261 ) ) ;
#292 = AXIS2_PLACEMENT_3D ( 'NONE', #652, #831, #178 ) ;
#293 = DIRECTION ( 'NONE',  ( 0.0000000000000000000, 1.000000000000000000, 0.0000000000000000000 ) ) ;
#294 = CARTESIAN_POINT ( 'NONE',  ( 1.000000000000000000, 1.000000000000000000, -103.0000000000000000 ) ) ;
#295 = CARTESIAN_POINT ( 'NONE',  ( 8.464999999999985647, 0.0000000000000000000, -95.17999999999999261 ) ) ;
#296 = LINE ( 'NONE', #196, #134 ) ;
#297 = EDGE_CURVE ( 'NONE', #639, #368, #148, .T. ) ;
#298 = CARTESIAN_POINT ( 'NONE',  ( 8.464999999999985647, 0.7000000000000031752, -8.819999999999980744 ) ) ;
#299 = DIRECTION ( 'NONE',  ( 0.0000000000000000000, 0.0000000000000000000, 1.000000000000000000 ) ) ;
#300 = VERTEX_POINT ( 'NONE', #676 ) ;
#301 = CARTESIAN_POINT ( 'NONE',  ( 60.53499999999998238, 0.0000000000000000000, -96.72999999999998977 ) ) ;
#302 = VERTEX_POINT ( 'NONE', #778 ) ;
#303 = CLOSED_SHELL ( 'NONE', ( #557, #466, #851, #1009, #954, #55, #73, #7, #78, #795, #959, #773, #561, #874, #634, #246, #711, #82, #534, #1033, #158, #406, #326, #305, #609, #718, #397, #554, #930, #687, #401, #880, #1037, #226 ) ) ;
#304 = CARTESIAN_POINT ( 'NONE',  ( 0.0000000000000000000, 1.000000000000000000, -103.0000000000000000 ) ) ;
#305 = ADVANCED_FACE ( 'NONE', ( #999 ), #364, .T. ) ;
#306 = DIRECTION ( 'NONE',  ( 0.0000000000000000000, 0.0000000000000000000, -1.000000000000000000 ) ) ;
#307 = LINE ( 'NONE', #244, #349 ) ;
#308 = DIRECTION ( 'NONE',  ( 0.0000000000000000000, 1.000000000000000000, 0.0000000000000000000 ) ) ;
#309 = LINE ( 'NONE', #116, #538 ) ;
#310 = PERSON_AND_ORGANIZATION ( #288, #673 ) ;
#311 = ORIENTED_EDGE ( 'NONE', *, *, #97, .T. ) ;
#312 = ORIENTED_EDGE ( 'NONE', *, *, #187, .T. ) ;
#313 = ORIENTED_EDGE ( 'NONE', *, *, #248, .F. ) ;
#314 = CARTESIAN_POINT ( 'NONE',  ( 1.000000000000000000, 0.0000000000000000000, -1.000000000000000000 ) ) ;
#315 = ORIENTED_EDGE ( 'NONE', *, *, #984, .T. ) ;
#316 = CARTESIAN_POINT ( 'NONE',  ( 8.464999999999985647, 0.7000000000000031752, -8.819999999999980744 ) ) ;
#317 = AXIS2_PLACEMENT_3D ( 'NONE', #685, #595, #917 ) ;
#318 = PLANE ( 'NONE',  #19 ) ;
#319 = DIRECTION ( 'NONE',  ( -0.0000000000000000000, 1.000000000000000000, -0.0000000000000000000 ) ) ;
#320 = DIRECTION ( 'NONE',  ( 0.0000000000000000000, 0.0000000000000000000, -1.000000000000000000 ) ) ;
#321 = EDGE_CURVE ( 'NONE', #529, #79, #644, .T. ) ;
#322 = ORIENTED_EDGE ( 'NONE', *, *, #939, .F. ) ;
#323 = ORIENTED_EDGE ( 'NONE', *, *, #187, .F. ) ;
#324 = EDGE_LOOP ( 'NONE', ( #1005, #662, #726, #775 ) ) ;
#325 = AXIS2_PLACEMENT_3D ( 'NONE', #993, #594, #922 ) ;
#326 = ADVANCED_FACE ( 'NONE', ( #884 ), #761, .T. ) ;
#327 = AXIS2_PLACEMENT_3D ( 'NONE', #1028, #1015, #468 ) ;
#328 = FACE_OUTER_BOUND ( 'NONE', #56, .T. ) ;
#329 = CIRCLE ( 'NONE', #317, 1.549999999999995826 ) ;
#330 = EDGE_LOOP ( 'NONE', ( #803, #966, #946 ) ) ;
#331 = ORIENTED_EDGE ( 'NONE', *, *, #894, .F. ) ;
#332 = EDGE_CURVE ( 'NONE', #93, #957, #443, .T. ) ;
#333 = VERTEX_POINT ( 'NONE', #130 ) ;
#334 = DIRECTION ( 'NONE',  ( 1.000000000000000000, 0.0000000000000000000, 0.0000000000000000000 ) ) ;
#335 = CARTESIAN_POINT ( 'NONE',  ( 60.53499999999998238, 0.7000000000000313749, -95.17999999999999261 ) ) ;
#336 = AXIS2_PLACEMENT_3D ( 'NONE', #995, #201, #680 ) ;
#337 = FACE_BOUND ( 'NONE', #227, .T. ) ;
#338 = VECTOR ( 'NONE', #1014, 1000.000000000000000 ) ;
#339 = CARTESIAN_POINT ( 'NONE',  ( 69.00000000000000000, 2.000000000000000000, 0.0000000000000000000 ) ) ;
#340 = DIRECTION ( 'NONE',  ( -1.000000000000000000, 0.0000000000000000000, 0.0000000000000000000 ) ) ;
#341 = EDGE_LOOP ( 'NONE', ( #94, #503, #776, #802, #572, #15, #213, #128 ) ) ;
#342 = EDGE_LOOP ( 'NONE', ( #176, #692, #486, #58 ) ) ;
#343 = EDGE_LOOP ( 'NONE', ( #754, #214 ) ) ;
#344 = DIRECTION ( 'NONE',  ( 0.0000000000000000000, 0.0000000000000000000, -1.000000000000000000 ) ) ;
#345 = CARTESIAN_POINT ( 'NONE',  ( 69.00000000000000000, 1.000000000000000000, -103.0000000000000000 ) ) ;
#346 = AXIS2_PLACEMENT_3D ( 'NONE', #295, #51, #603 ) ;
#347 = CARTESIAN_POINT ( 'NONE',  ( 60.53499999999998238, 0.7000000000000313749, -96.72999999999998977 ) ) ;
#348 = DIRECTION ( 'NONE',  ( 0.0000000000000000000, 1.000000000000000000, 0.0000000000000000000 ) ) ;
#349 = VECTOR ( 'NONE', #398, 1000.000000000000000 ) ;
#350 = AXIS2_PLACEMENT_3D ( 'NONE', #291, #434, #276 ) ;
#351 = VECTOR ( 'NONE', #589, 1000.000000000000000 ) ;
#352 = DATE_AND_TIME ( #539, #149 ) ;
#353 = ORIENTED_EDGE ( 'NONE', *, *, #332, .F. ) ;
#354 = DIRECTION ( 'NONE',  ( 0.0000000000000000000, 1.000000000000000000, 0.0000000000000000000 ) ) ;
#355 = ORIENTED_EDGE ( 'NONE', *, *, #159, .F. ) ;
#356 = ORIENTED_EDGE ( 'NONE', *, *, #935, .F. ) ;
#357 = CARTESIAN_POINT ( 'NONE',  ( 8.464999999999985647, 0.7000000000000031752, -8.819999999999980744 ) ) ;
#358 =( GEOMETRIC_REPRESENTATION_CONTEXT ( 3 ) GLOBAL_UNCERTAINTY_ASSIGNED_CONTEXT ( ( #224 ) ) GLOBAL_UNIT_ASSIGNED_CONTEXT ( ( #35, #756, #590 ) ) REPRESENTATION_CONTEXT ( 'NONE', 'WORKASPACE' ) );
#359 = DIRECTION ( 'NONE',  ( 0.0000000000000000000, 0.0000000000000000000, 1.000000000000000000 ) ) ;
#360 = DIRECTION ( 'NONE',  ( 0.0000000000000000000, 0.0000000000000000000, -1.000000000000000000 ) ) ;
#361 = CARTESIAN_POINT ( 'NONE',  ( 0.0000000000000000000, 0.0000000000000000000, 0.0000000000000000000 ) ) ;
#362 = CONICAL_SURFACE ( 'NONE', #904, 1.549999999999995826, 0.7853981633974465026 ) ;
#363 = DIRECTION ( 'NONE',  ( -0.0000000000000000000, 1.000000000000000000, -0.0000000000000000000 ) ) ;
#364 = CYLINDRICAL_SURFACE ( 'NONE', #263, 1.000000000000000000 ) ;
#365 = ORIENTED_EDGE ( 'NONE', *, *, #1021, .T. ) ;
#366 = ORIENTED_EDGE ( 'NONE', *, *, #790, .F. ) ;
#367 = PRODUCT ( 'cover', 'cover', '', ( #804 ) ) ;
#368 = VERTEX_POINT ( 'NONE', #604 ) ;
#369 = DIRECTION ( 'NONE',  ( -0.0000000000000000000, -1.000000000000000000, 0.0000000000000000000 ) ) ;
#370 = DIRECTION ( 'NONE',  ( 1.000000000000000000, 0.0000000000000000000, 0.0000000000000000000 ) ) ;
#371 = EDGE_CURVE ( 'NONE', #215, #93, #379, .T. ) ;
#372 = CARTESIAN_POINT ( 'NONE',  ( 60.53499999999998238, 0.7000000000000313749, -95.17999999999999261 ) ) ;
#373 = AXIS2_PLACEMENT_3D ( 'NONE', #983, #731, #258 ) ;
#374 = CARTESIAN_POINT ( 'NONE',  ( 69.00000000000000000, 2.000000000000000000, -103.0000000000000000 ) ) ;
#375 = DIRECTION ( 'NONE',  ( 0.0000000000000000000, 1.000000000000000000, 0.0000000000000000000 ) ) ;
#376 = DIRECTION ( 'NONE',  ( 1.000000000000000000, 0.0000000000000000000, 0.0000000000000000000 ) ) ;
#377 = VECTOR ( 'NONE', #369, 1000.000000000000000 ) ;
#378 = COORDINATED_UNIVERSAL_TIME_OFFSET ( 0, 0, .AHEAD. ) ;
#379 = CIRCLE ( 'NONE', #1025, 1.549999999999995826 ) ;
#380 = AXIS2_PLACEMENT_3D ( 'NONE', #766, #44, #370 ) ;
#381 = CIRCLE ( 'NONE', #119, 1.549999999999995826 ) ;
#382 = DIRECTION ( 'NONE',  ( 0.0000000000000000000, -1.000000000000000000, 0.0000000000000000000 ) ) ;
#383 = ORIENTED_EDGE ( 'NONE', *, *, #167, .T. ) ;
#384 = ORIENTED_EDGE ( 'NONE', *, *, #920, .T. ) ;
#385 = ORIENTED_EDGE ( 'NONE', *, *, #1034, .F. ) ;
#386 = DIRECTION ( 'NONE',  ( 0.0000000000000000000, 0.0000000000000000000, -1.000000000000000000 ) ) ;
#387 = EDGE_CURVE ( 'NONE', #830, #585, #952, .T. ) ;
#388 = APPROVAL_DATE_TIME ( #219, #811 ) ;
#389 = CIRCLE ( 'NONE', #981, 1.000000000000000000 ) ;
#390 = VECTOR ( 'NONE', #929, 1000.000000000000000 ) ;
#391 = PERSON_AND_ORGANIZATION ( #288, #673 ) ;
#392 = ORIENTED_EDGE ( 'NONE', *, *, #960, .T. ) ;
#393 = ORIENTED_EDGE ( 'NONE', *, *, #881, .T. ) ;
#394 = VERTEX_POINT ( 'NONE', #698 ) ;
#395 = CARTESIAN_POINT ( 'NONE',  ( 1.000000000000000000, 1.000000000000000000, -1.000000000000000000 ) ) ;
#396 = ORIENTED_EDGE ( 'NONE', *, *, #967, .F. ) ;
#397 = ADVANCED_FACE ( 'NONE', ( #800 ), #746, .T. ) ;
#398 = DIRECTION ( 'NONE',  ( -0.0000000000000000000, 1.000000000000000000, -0.0000000000000000000 ) ) ;
#399 = DIRECTION ( 'NONE',  ( 0.0000000000000000000, -1.000000000000000000, 0.0000000000000000000 ) ) ;
#400 = EDGE_CURVE ( 'NONE', #239, #957, #964, .T. ) ;
#401 = ADVANCED_FACE ( 'NONE', ( #610 ), #672, .F. ) ;
#402 = FACE_OUTER_BOUND ( 'NONE', #152, .T. ) ;
#403 = FACE_OUTER_BOUND ( 'NONE', #324, .T. ) ;
#404 = FACE_OUTER_BOUND ( 'NONE', #124, .T. ) ;
#405 = VECTOR ( 'NONE', #502, 999.9999999999998863 ) ;
#406 = ADVANCED_FACE ( 'NONE', ( #123 ), #825, .T. ) ;
#407 = ORIENTED_EDGE ( 'NONE', *, *, #535, .T. ) ;
#408 = EDGE_LOOP ( 'NONE', ( #707, #284, #677, #14 ) ) ;
#409 = ORIENTED_EDGE ( 'NONE', *, *, #1021, .F. ) ;
#410 = AXIS2_PLACEMENT_3D ( 'NONE', #210, #742, #439 ) ;
#411 = APPLICATION_PROTOCOL_DEFINITION ( 'international standard', 'config_control_design', 1994, #887 ) ;
#412 = AXIS2_PLACEMENT_3D ( 'NONE', #129, #533, #223 ) ;
#413 = DIRECTION ( 'NONE',  ( 0.0000000000000000000, 0.0000000000000000000, -1.000000000000000000 ) ) ;
#414 = CIRCLE ( 'NONE', #453, 1.000000000000000888 ) ;
#415 = CIRCLE ( 'NONE', #380, 1.000000000000000000 ) ;
#416 = EDGE_LOOP ( 'NONE', ( #555, #627, #649, #528 ) ) ;
#417 = LINE ( 'NONE', #546, #96 ) ;
#418 = ORIENTED_EDGE ( 'NONE', *, *, #32, .T. ) ;
#419 = EDGE_CURVE ( 'NONE', #79, #830, #162, .T. ) ;
#420 = ORIENTED_EDGE ( 'NONE', *, *, #220, .T. ) ;
#421 = CC_DESIGN_PERSON_AND_ORGANIZATION_ASSIGNMENT ( #725, #85, ( #77 ) ) ;
#422 = DIRECTION ( 'NONE',  ( -1.000000000000000000, 0.0000000000000000000, 0.0000000000000000000 ) ) ;
#423 = DIRECTION ( 'NONE',  ( 0.0000000000000000000, 0.0000000000000000000, 1.000000000000000000 ) ) ;
#424 = CARTESIAN_POINT ( 'NONE',  ( 8.464999999999985647, 0.7000000000000031752, -10.36999999999997968 ) ) ;
#425 = CARTESIAN_POINT ( 'NONE',  ( 68.00000000000000000, 1.000000000000000000, -1.000000000000000000 ) ) ;
#426 = AXIS2_PLACEMENT_3D ( 'NONE', #588, #671, #753 ) ;
#427 = CIRCLE ( 'NONE', #141, 2.849999999999963674 ) ;
#428 = FACE_OUTER_BOUND ( 'NONE', #342, .T. ) ;
#429 = CARTESIAN_POINT ( 'NONE',  ( 8.464999999999985647, 2.000000000000000000, -8.819999999999980744 ) ) ;
#430 = DIRECTION ( 'NONE',  ( -1.000000000000000000, 0.0000000000000000000, -0.0000000000000000000 ) ) ;
#431 = EDGE_LOOP ( 'NONE', ( #540, #261, #283, #816 ) ) ;
#432 = ORIENTED_EDGE ( 'NONE', *, *, #47, .F. ) ;
#433 = DIRECTION ( 'NONE',  ( 0.0000000000000000000, -1.000000000000000000, 0.0000000000000000000 ) ) ;
#434 = DIRECTION ( 'NONE',  ( -0.0000000000000000000, 1.000000000000000000, -0.0000000000000000000 ) ) ;
#435 = EDGE_CURVE ( 'NONE', #302, #664, #715, .T. ) ;
#436 = DIRECTION ( 'NONE',  ( 0.0000000000000000000, 0.0000000000000000000, 1.000000000000000000 ) ) ;
#437 = CARTESIAN_POINT ( 'NONE',  ( 0.0000000000000000000, 2.000000000000000000, -1.000000000000000000 ) ) ;
#438 = CARTESIAN_POINT ( 'NONE',  ( 60.53499999999998238, 0.7000000000000050626, -10.36999999999998145 ) ) ;
#439 = DIRECTION ( 'NONE',  ( 0.0000000000000000000, 0.0000000000000000000, -1.000000000000000000 ) ) ;
#440 = CONICAL_SURFACE ( 'NONE', #928, 1.549999999999999378, 0.7853981633974518317 ) ;
#441 = DIRECTION ( 'NONE',  ( 0.0000000000000000000, 1.000000000000000000, 0.0000000000000000000 ) ) ;
#442 = FACE_OUTER_BOUND ( 'NONE', #463, .T. ) ;
#443 = LINE ( 'NONE', #942, #338 ) ;
#444 = LOCAL_TIME ( 17, 36, 53.00000000000000000, #965 ) ;
#445 = CARTESIAN_POINT ( 'NONE',  ( 8.464999999999985647, 0.0000000000000000000, -10.36999999999997968 ) ) ;
#446 = VERTEX_POINT ( 'NONE', #613 ) ;
#447 = DIRECTION ( 'NONE',  ( 0.0000000000000000000, 1.000000000000000000, 0.0000000000000000000 ) ) ;
#448 = CIRCLE ( 'NONE', #699, 1.550000000000000933 ) ;
#449 = VERTEX_POINT ( 'NONE', #458 ) ;
#450 = ORIENTED_EDGE ( 'NONE', *, *, #633, .F. ) ;
#451 = DIRECTION ( 'NONE',  ( -0.0000000000000000000, 1.000000000000000000, -0.0000000000000000000 ) ) ;
#452 = CARTESIAN_POINT ( 'NONE',  ( 60.53499999999998238, 2.000000000000000000, -92.33000000000002672 ) ) ;
#453 = AXIS2_PLACEMENT_3D ( 'NONE', #36, #1001, #524 ) ;
#454 = DIRECTION ( 'NONE',  ( 1.000000000000000000, -0.0000000000000000000, -0.0000000000000000000 ) ) ;
#455 = EDGE_CURVE ( 'NONE', #830, #638, #267, .T. ) ;
#456 = CARTESIAN_POINT ( 'NONE',  ( 1.000000000000000000, 1.000000000000000000, 0.0000000000000000000 ) ) ;
#457 = CYLINDRICAL_SURFACE ( 'NONE', #740, 1.000000000000000888 ) ;
#458 = CARTESIAN_POINT ( 'NONE',  ( 60.53499999999998238, 2.000000000000000000, -11.66999999999998572 ) ) ;
#459 = CYLINDRICAL_SURFACE ( 'NONE', #484, 1.000000000000000000 ) ;
#460 = EDGE_LOOP ( 'NONE', ( #259, #543 ) ) ;
#461 = VERTEX_POINT ( 'NONE', #464 ) ;
#462 = DIRECTION ( 'NONE',  ( -0.0000000000000000000, 1.000000000000000000, -0.0000000000000000000 ) ) ;
#463 = EDGE_LOOP ( 'NONE', ( #28, #879, #139, #955 ) ) ;
#464 = CARTESIAN_POINT ( 'NONE',  ( 60.53499999999998238, 0.0000000000000000000, -7.269999999999980034 ) ) ;
#465 = CARTESIAN_POINT ( 'NONE',  ( 60.53499999999998238, 0.0000000000000000000, -8.819999999999980744 ) ) ;
#466 = ADVANCED_FACE ( 'NONE', ( #470 ), #743, .F. ) ;
#467 = CARTESIAN_POINT ( 'NONE',  ( 68.00000000000000000, 2.000000000000000000, -1.000000000000000000 ) ) ;
#468 = DIRECTION ( 'NONE',  ( 0.0000000000000000000, 0.0000000000000000000, 1.000000000000000000 ) ) ;
#469 = CARTESIAN_POINT ( 'NONE',  ( 0.0000000000000000000, 1.000000000000000000, -103.0000000000000000 ) ) ;
#470 = FACE_OUTER_BOUND ( 'NONE', #958, .T. ) ;
#471 = CIRCLE ( 'NONE', #505, 1.000000000000000000 ) ;
#472 = AXIS2_PLACEMENT_3D ( 'NONE', #580, #820, #971 ) ;
#473 = LOCAL_TIME ( 17, 36, 53.00000000000000000, #109 ) ;
#474 = CARTESIAN_POINT ( 'NONE',  ( 68.00000000000000000, 1.000000000000000000, -103.0000000000000000 ) ) ;
#475 = ORIENTED_EDGE ( 'NONE', *, *, #1007, .F. ) ;
#476 = ORIENTED_EDGE ( 'NONE', *, *, #167, .F. ) ;
#477 = ORIENTED_EDGE ( 'NONE', *, *, #967, .T. ) ;
#478 = DIRECTION ( 'NONE',  ( 1.000000000000000000, -0.0000000000000000000, -0.0000000000000000000 ) ) ;
#479 = EDGE_CURVE ( 'NONE', #646, #529, #76, .T. ) ;
#480 = CARTESIAN_POINT ( 'NONE',  ( 8.464999999999985647, 0.7000000000000298206, -95.17999999999999261 ) ) ;
#481 = CIRCLE ( 'NONE', #49, 1.549999999999999378 ) ;
#482 = LINE ( 'NONE', #30, #799 ) ;
#483 = EDGE_CURVE ( 'NONE', #957, #251, #510, .T. ) ;
#484 = AXIS2_PLACEMENT_3D ( 'NONE', #286, #436, #511 ) ;
#485 = VERTEX_POINT ( 'NONE', #785 ) ;
#486 = ORIENTED_EDGE ( 'NONE', *, *, #935, .T. ) ;
#487 = APPROVAL_ROLE ( '' ) ;
#488 = EDGE_CURVE ( 'NONE', #1018, #597, #52, .T. ) ;
#489 = LINE ( 'NONE', #445, #722 ) ;
#490 = LINE ( 'NONE', #281, #108 ) ;
#491 = LOCAL_TIME ( 17, 36, 53.00000000000000000, #1016 ) ;
#492 = EDGE_CURVE ( 'NONE', #138, #597, #835, .T. ) ;
#493 = ORIENTED_EDGE ( 'NONE', *, *, #651, .T. ) ;
#494 = ORIENTED_EDGE ( 'NONE', *, *, #796, .F. ) ;
#495 = VERTEX_POINT ( 'NONE', #622 ) ;
#496 = ORIENTED_EDGE ( 'NONE', *, *, #633, .T. ) ;
#497 = DIRECTION ( 'NONE',  ( 1.000000000000000000, 0.0000000000000000000, 0.0000000000000000000 ) ) ;
#498 = DIRECTION ( 'NONE',  ( 0.0000000000000000000, 0.0000000000000000000, 1.000000000000000000 ) ) ;
#499 = CARTESIAN_POINT ( 'NONE',  ( 1.000000000000000000, 0.0000000000000000000, -103.0000000000000000 ) ) ;
#500 = AXIS2_PLACEMENT_3D ( 'NONE', #987, #925, #360 ) ;
#501 = LINE ( 'NONE', #437, #635 ) ;
#502 = DIRECTION ( 'NONE',  ( 0.0000000000000000000, 0.7071067811865489050, 0.7071067811865462405 ) ) ;
#503 = ORIENTED_EDGE ( 'NONE', *, *, #871, .T. ) ;
#504 = CARTESIAN_POINT ( 'NONE',  ( 0.0000000000000000000, 2.000000000000000000, 0.0000000000000000000 ) ) ;
#505 = AXIS2_PLACEMENT_3D ( 'NONE', #537, #614, #247 ) ;
#506 = EDGE_LOOP ( 'NONE', ( #1002, #541 ) ) ;
#507 = VERTEX_POINT ( 'NONE', #545 ) ;
#508 = CC_DESIGN_APPROVAL ( #617, ( #77 ) ) ;
#509 = DIRECTION ( 'NONE',  ( 0.0000000000000000000, 0.0000000000000000000, 1.000000000000000000 ) ) ;
#510 = LINE ( 'NONE', #1036, #22 ) ;
#511 = DIRECTION ( 'NONE',  ( 1.000000000000000000, 0.0000000000000000000, 0.0000000000000000000 ) ) ;
#512 = CARTESIAN_POINT ( 'NONE',  ( 68.00000000000000000, 0.0000000000000000000, -104.0000000000000000 ) ) ;
#513 = CIRCLE ( 'NONE', #556, 1.549999999999995826 ) ;
#514 = DATE_AND_TIME ( #584, #444 ) ;
#515 = VERTEX_POINT ( 'NONE', #238 ) ;
#516 = ORIENTED_EDGE ( 'NONE', *, *, #220, .F. ) ;
#517 = EDGE_LOOP ( 'NONE', ( #211, #113, #900, #573 ) ) ;
#518 = DIRECTION ( 'NONE',  ( 8.659560562354918067E-17, 0.7071067811865487940, -0.7071067811865463515 ) ) ;
#519 = EDGE_LOOP ( 'NONE', ( #857, #260, #270, #181 ) ) ;
#520 = DIRECTION ( 'NONE',  ( -0.0000000000000000000, 1.000000000000000000, -0.0000000000000000000 ) ) ;
#521 = DIRECTION ( 'NONE',  ( 0.0000000000000000000, 1.000000000000000000, 0.0000000000000000000 ) ) ;
#522 = CARTESIAN_POINT ( 'NONE',  ( 8.464999999999985647, 0.7000000000000031752, -8.819999999999980744 ) ) ;
#523 = EDGE_CURVE ( 'NONE', #932, #585, #558, .T. ) ;
#524 = DIRECTION ( 'NONE',  ( 0.0000000000000000000, 0.0000000000000000000, -1.000000000000000000 ) ) ;
#525 = CIRCLE ( 'NONE', #472, 1.000000000000000000 ) ;
#526 = CC_DESIGN_DATE_AND_TIME_ASSIGNMENT ( #813, #806, ( #781 ) ) ;
#527 = DIRECTION ( 'NONE',  ( -1.000000000000000000, -0.0000000000000000000, -0.0000000000000000000 ) ) ;
#528 = ORIENTED_EDGE ( 'NONE', *, *, #95, .F. ) ;
#529 = VERTEX_POINT ( 'NONE', #72 ) ;
#530 = EDGE_CURVE ( 'NONE', #787, #751, #307, .T. ) ;
#531 = AXIS2_PLACEMENT_3D ( 'NONE', #316, #713, #873 ) ;
#532 = DIRECTION ( 'NONE',  ( -1.000000000000000000, 0.0000000000000000000, 0.0000000000000000000 ) ) ;
#533 = DIRECTION ( 'NONE',  ( 0.0000000000000000000, -1.000000000000000000, 0.0000000000000000000 ) ) ;
#534 = ADVANCED_FACE ( 'NONE', ( #912 ), #701, .T. ) ;
#535 = EDGE_CURVE ( 'NONE', #515, #638, #823, .T. ) ;
#536 = VECTOR ( 'NONE', #478, 1000.000000000000000 ) ;
#537 = CARTESIAN_POINT ( 'NONE',  ( 68.00000000000000000, 1.000000000000000000, -1.000000000000000000 ) ) ;
#538 = VECTOR ( 'NONE', #197, 1000.000000000000000 ) ;
#539 = CALENDAR_DATE ( 2019, 12, 12 ) ;
#540 = ORIENTED_EDGE ( 'NONE', *, *, #492, .F. ) ;
#541 = ORIENTED_EDGE ( 'NONE', *, *, #1007, .T. ) ;
#542 = CARTESIAN_POINT ( 'NONE',  ( 60.53499999999998238, 0.0000000000000000000, -95.17999999999999261 ) ) ;
#543 = ORIENTED_EDGE ( 'NONE', *, *, #95, .T. ) ;
#544 = EDGE_CURVE ( 'NONE', #285, #138, #489, .T. ) ;
#545 = CARTESIAN_POINT ( 'NONE',  ( 60.53499999999998238, 0.0000000000000000000, -10.36999999999998145 ) ) ;
#546 = CARTESIAN_POINT ( 'NONE',  ( 0.0000000000000000000, 1.000000000000000000, 0.0000000000000000000 ) ) ;
#547 = FACE_OUTER_BOUND ( 'NONE', #341, .T. ) ;
#548 = CYLINDRICAL_SURFACE ( 'NONE', #660, 1.550000000000000933 ) ;
#549 = AXIS2_PLACEMENT_3D ( 'NONE', #499, #180, #264 ) ;
#550 = SPHERICAL_SURFACE ( 'NONE', #292, 1.000000000000000000 ) ;
#551 = DIRECTION ( 'NONE',  ( 0.0000000000000000000, 0.0000000000000000000, 1.000000000000000000 ) ) ;
#552 = CARTESIAN_POINT ( 'NONE',  ( 60.53499999999998238, 0.0000000000000000000, -95.17999999999999261 ) ) ;
#553 = ORIENTED_EDGE ( 'NONE', *, *, #640, .T. ) ;
#554 = ADVANCED_FACE ( 'NONE', ( #254 ), #656, .T. ) ;
#555 = ORIENTED_EDGE ( 'NONE', *, *, #233, .F. ) ;
#556 = AXIS2_PLACEMENT_3D ( 'NONE', #994, #447, #847 ) ;
#557 = ADVANCED_FACE ( 'NONE', ( #608 ), #440, .F. ) ;
#558 = LINE ( 'NONE', #948, #536 ) ;
#559 = VECTOR ( 'NONE', #606, 1000.000000000000000 ) ;
#560 = PERSON_AND_ORGANIZATION ( #288, #673 ) ;
#561 = ADVANCED_FACE ( 'NONE', ( #277, #107, #962, #63, #402 ), #43, .F. ) ;
#562 = ORIENTED_EDGE ( 'NONE', *, *, #488, .T. ) ;
#563 = ORIENTED_EDGE ( 'NONE', *, *, #321, .T. ) ;
#564 = VERTEX_POINT ( 'NONE', #829 ) ;
#565 = CARTESIAN_POINT ( 'NONE',  ( 0.0000000000000000000, 0.0000000000000000000, 0.0000000000000000000 ) ) ;
#566 = AXIS2_PLACEMENT_3D ( 'NONE', #836, #110, #359 ) ;
#567 = PRODUCT_DEFINITION_SHAPE ( 'NONE', 'NONE',  #781 ) ;
#568 = FACE_BOUND ( 'NONE', #343, .T. ) ;
#569 = FACE_OUTER_BOUND ( 'NONE', #114, .T. ) ;
#570 = CARTESIAN_POINT ( 'NONE',  ( 60.53499999999998238, 2.000000000000000000, -95.17999999999999261 ) ) ;
#571 = EDGE_CURVE ( 'NONE', #368, #932, #1012, .T. ) ;
#572 = ORIENTED_EDGE ( 'NONE', *, *, #321, .F. ) ;
#573 = ORIENTED_EDGE ( 'NONE', *, *, #125, .T. ) ;
#574 = ORIENTED_EDGE ( 'NONE', *, *, #710, .F. ) ;
#575 = CC_DESIGN_PERSON_AND_ORGANIZATION_ASSIGNMENT ( #596, #970, ( #77 ) ) ;
#576 = ORIENTED_EDGE ( 'NONE', *, *, #535, .F. ) ;
#577 = DIRECTION ( 'NONE',  ( 1.000000000000000000, 0.0000000000000000000, -0.0000000000000000000 ) ) ;
#578 = EDGE_CURVE ( 'NONE', #215, #239, #883, .T. ) ;
#579 = CARTESIAN_POINT ( 'NONE',  ( 60.53499999999998238, 0.7000000000000050626, -7.269999999999980034 ) ) ;
#580 = CARTESIAN_POINT ( 'NONE',  ( 1.000000000000000000, 1.000000000000000000, -1.000000000000000000 ) ) ;
#581 = AXIS2_PLACEMENT_3D ( 'NONE', #739, #986, #665 ) ;
#582 = DIRECTION ( 'NONE',  ( -0.0000000000000000000, 1.000000000000000000, -0.0000000000000000000 ) ) ;
#583 = CYLINDRICAL_SURFACE ( 'NONE', #1035, 1.549999999999999378 ) ;
#584 = CALENDAR_DATE ( 2019, 12, 12 ) ;
#585 = VERTEX_POINT ( 'NONE', #198 ) ;
#586 = EDGE_CURVE ( 'NONE', #597, #485, #927, .T. ) ;
#587 = ORIENTED_EDGE ( 'NONE', *, *, #419, .T. ) ;
#588 = CARTESIAN_POINT ( 'NONE',  ( 8.464999999999985647, 0.7000000000000298206, -95.17999999999999261 ) ) ;
#589 = DIRECTION ( 'NONE',  ( 8.659560562354963673E-17, 0.7071067811865450192, -0.7071067811865500152 ) ) ;
#590 =( NAMED_UNIT ( * ) SI_UNIT ( $, .STERADIAN. ) SOLID_ANGLE_UNIT ( ) );
#591 = CARTESIAN_POINT ( 'NONE',  ( 60.53499999999998238, 2.000000000000000000, -98.02999999999994429 ) ) ;
#592 = CARTESIAN_POINT ( 'NONE',  ( 60.53499999999998238, 2.000000000000000000, -8.819999999999980744 ) ) ;
#593 = CIRCLE ( 'NONE', #132, 2.849999999999963674 ) ;
#594 = DIRECTION ( 'NONE',  ( 0.0000000000000000000, -1.000000000000000000, 0.0000000000000000000 ) ) ;
#595 = DIRECTION ( 'NONE',  ( 0.0000000000000000000, 1.000000000000000000, 0.0000000000000000000 ) ) ;
#596 = PERSON_AND_ORGANIZATION ( #288, #673 ) ;
#597 = VERTEX_POINT ( 'NONE', #996 ) ;
#598 = EDGE_CURVE ( 'NONE', #333, #449, #225, .T. ) ;
#599 = EDGE_LOOP ( 'NONE', ( #90, #476, #313, #1020 ) ) ;
#600 = EDGE_LOOP ( 'NONE', ( #287, #68 ) ) ;
#601 = AXIS2_PLACEMENT_3D ( 'NONE', #429, #433, #745 ) ;
#602 = DIRECTION ( 'NONE',  ( -0.0000000000000000000, -1.000000000000000000, 0.0000000000000000000 ) ) ;
#603 = DIRECTION ( 'NONE',  ( 0.0000000000000000000, 0.0000000000000000000, 1.000000000000000000 ) ) ;
#604 = CARTESIAN_POINT ( 'NONE',  ( 1.000000000000000000, 0.0000000000000000000, -104.0000000000000000 ) ) ;
#605 = EDGE_CURVE ( 'NONE', #639, #79, #414, .T. ) ;
#606 = DIRECTION ( 'NONE',  ( -0.0000000000000000000, 1.000000000000000000, -0.0000000000000000000 ) ) ;
#607 = SECURITY_CLASSIFICATION ( '', '', #169 ) ;
#608 = FACE_OUTER_BOUND ( 'NONE', #431, .T. ) ;
#609 = ADVANCED_FACE ( 'NONE', ( #328 ), #1024, .T. ) ;
#610 = FACE_OUTER_BOUND ( 'NONE', #416, .T. ) ;
#611 = VECTOR ( 'NONE', #658, 1000.000000000000000 ) ;
#612 = CARTESIAN_POINT ( 'NONE',  ( 60.53499999999998238, 0.0000000000000000000, -7.269999999999980034 ) ) ;
#613 = CARTESIAN_POINT ( 'NONE',  ( 8.464999999999985647, 2.000000000000000000, -11.66999999999998572 ) ) ;
#614 = DIRECTION ( 'NONE',  ( 1.000000000000000000, 0.0000000000000000000, 0.0000000000000000000 ) ) ;
#615 = ORIENTED_EDGE ( 'NONE', *, *, #479, .F. ) ;
#616 = EDGE_LOOP ( 'NONE', ( #777, #384 ) ) ;
#617 = APPROVAL ( #163, 'UNSPECIFIED' ) ;
#618 = CARTESIAN_POINT ( 'NONE',  ( 69.00000000000000000, 0.0000000000000000000, 0.0000000000000000000 ) ) ;
#619 = DIRECTION ( 'NONE',  ( 0.0000000000000000000, 0.0000000000000000000, -1.000000000000000000 ) ) ;
#620 = DIRECTION ( 'NONE',  ( -0.0000000000000000000, -0.0000000000000000000, -1.000000000000000000 ) ) ;
#621 = VECTOR ( 'NONE', #520, 1000.000000000000000 ) ;
#622 = CARTESIAN_POINT ( 'NONE',  ( 0.0000000000000000000, 0.0000000000000000000, -0.9999999999999995559 ) ) ;
#623 = CIRCLE ( 'NONE', #88, 1.000000000000000888 ) ;
#624 = CONICAL_SURFACE ( 'NONE', #426, 1.549999999999995826, 0.7853981633974465026 ) ;
#625 = ORIENTED_EDGE ( 'NONE', *, *, #59, .F. ) ;
#626 = ORIENTED_EDGE ( 'NONE', *, *, #265, .T. ) ;
#627 = ORIENTED_EDGE ( 'NONE', *, *, #953, .F. ) ;
#628 = DIRECTION ( 'NONE',  ( 8.659560562354918067E-17, 0.7071067811865489050, -0.7071067811865462405 ) ) ;
#629 = VERTEX_POINT ( 'NONE', #452 ) ;
#630 = EDGE_CURVE ( 'NONE', #585, #639, #296, .T. ) ;
#631 = CARTESIAN_POINT ( 'NONE',  ( 69.00000000000000000, 2.000000000000000000, -1.000000000000000000 ) ) ;
#632 = DIRECTION ( 'NONE',  ( 0.0000000000000000000, 0.0000000000000000000, 1.000000000000000000 ) ) ;
#633 = EDGE_CURVE ( 'NONE', #787, #394, #204, .T. ) ;
#634 = ADVANCED_FACE ( 'NONE', ( #643 ), #689, .F. ) ;
#635 = VECTOR ( 'NONE', #279, 1000.000000000000000 ) ;
#636 = CC_DESIGN_PERSON_AND_ORGANIZATION_ASSIGNMENT ( #560, #92, ( #367 ) ) ;
#637 = LINE ( 'NONE', #977, #237 ) ;
#638 = VERTEX_POINT ( 'NONE', #991 ) ;
#639 = VERTEX_POINT ( 'NONE', #512 ) ;
#640 = EDGE_CURVE ( 'NONE', #302, #515, #501, .T. ) ;
#641 = MANIFOLD_SOLID_BREP ( 'Chamfer1', #303 ) ;
#642 = PERSON_AND_ORGANIZATION_ROLE ( 'creator' ) ;
#643 = FACE_OUTER_BOUND ( 'NONE', #517, .T. ) ;
#644 = LINE ( 'NONE', #618, #135 ) ;
#645 = CALENDAR_DATE ( 2019, 12, 12 ) ;
#646 = VERTEX_POINT ( 'NONE', #755 ) ;
#647 = LINE ( 'NONE', #708, #788 ) ;
#648 = APPROVAL_STATUS ( 'not_yet_approved' ) ;
#649 = ORIENTED_EDGE ( 'NONE', *, *, #976, .T. ) ;
#650 = ORIENTED_EDGE ( 'NONE', *, *, #571, .T. ) ;
#651 = EDGE_CURVE ( 'NONE', #461, #678, #895, .T. ) ;
#652 = CARTESIAN_POINT ( 'NONE',  ( 68.00000000000000000, 1.000000000000000000, -103.0000000000000000 ) ) ;
#653 = PLANE ( 'NONE',  #191 ) ;
#654 = AXIS2_PLACEMENT_3D ( 'NONE', #60, #293, #131 ) ;
#655 = PLANE ( 'NONE',  #13 ) ;
#656 = SPHERICAL_SURFACE ( 'NONE', #83, 1.000000000000000000 ) ;
#657 = LINE ( 'NONE', #908, #735 ) ;
#658 = DIRECTION ( 'NONE',  ( 0.0000000000000000000, 0.7071067811865450192, 0.7071067811865500152 ) ) ;
#659 = DIRECTION ( 'NONE',  ( 0.0000000000000000000, 0.0000000000000000000, -1.000000000000000000 ) ) ;
#660 = AXIS2_PLACEMENT_3D ( 'NONE', #951, #714, #794 ) ;
#661 = LINE ( 'NONE', #921, #11 ) ;
#662 = ORIENTED_EDGE ( 'NONE', *, *, #738, .T. ) ;
#663 = VERTEX_POINT ( 'NONE', #688 ) ;
#664 = VERTEX_POINT ( 'NONE', #456 ) ;
#665 = DIRECTION ( 'NONE',  ( 0.0000000000000000000, 0.0000000000000000000, 1.000000000000000000 ) ) ;
#666 = DIRECTION ( 'NONE',  ( 0.0000000000000000000, 0.7071067811865450192, 0.7071067811865500152 ) ) ;
#667 = CARTESIAN_POINT ( 'NONE',  ( 8.464999999999985647, 0.0000000000000000000, -8.819999999999980744 ) ) ;
#668 = DIRECTION ( 'NONE',  ( 0.0000000000000000000, 0.0000000000000000000, 1.000000000000000000 ) ) ;
#669 = CARTESIAN_POINT ( 'NONE',  ( 8.464999999999985647, 2.000000000000000000, -98.02999999999994429 ) ) ;
#670 = CC_DESIGN_DATE_AND_TIME_ASSIGNMENT ( #514, #807, ( #607 ) ) ;
#671 = DIRECTION ( 'NONE',  ( 0.0000000000000000000, 1.000000000000000000, 0.0000000000000000000 ) ) ;
#672 = CONICAL_SURFACE ( 'NONE', #1013, 1.550000000000000933, 0.7853981633974518317 ) ;
#673 = ORGANIZATION ( 'UNSPECIFIED', 'UNSPECIFIED', '' ) ;
#674 = DIRECTION ( 'NONE',  ( 0.0000000000000000000, -0.0000000000000000000, -1.000000000000000000 ) ) ;
#675 = AXIS2_PLACEMENT_3D ( 'NONE', #565, #262, #334 ) ;
#676 = CARTESIAN_POINT ( 'NONE',  ( 8.464999999999985647, 2.000000000000000000, -92.33000000000002672 ) ) ;
#677 = ORIENTED_EDGE ( 'NONE', *, *, #586, .T. ) ;
#678 = VERTEX_POINT ( 'NONE', #694 ) ;
#679 = ORIENTED_EDGE ( 'NONE', *, *, #371, .F. ) ;
#680 = DIRECTION ( 'NONE',  ( 0.0000000000000000000, 0.0000000000000000000, 1.000000000000000000 ) ) ;
#681 = CARTESIAN_POINT ( 'NONE',  ( 60.53499999999998238, 0.0000000000000000000, -93.62999999999999545 ) ) ;
#682 = CARTESIAN_POINT ( 'NONE',  ( 1.000000000000000000, 2.000000000000000000, -103.0000000000000000 ) ) ;
#683 = AXIS2_PLACEMENT_3D ( 'NONE', #153, #399, #320 ) ;
#684 = DIRECTION ( 'NONE',  ( 0.0000000000000000000, 0.0000000000000000000, -1.000000000000000000 ) ) ;
#685 = CARTESIAN_POINT ( 'NONE',  ( 8.464999999999985647, 0.7000000000000298206, -95.17999999999999261 ) ) ;
#686 = CARTESIAN_POINT ( 'NONE',  ( 8.464999999999985647, 2.000000000000000000, -8.819999999999980744 ) ) ;
#687 = ADVANCED_FACE ( 'NONE', ( #249 ), #457, .T. ) ;
#688 = CARTESIAN_POINT ( 'NONE',  ( 60.53499999999998238, 0.7000000000000050626, -10.36999999999998145 ) ) ;
#689 = CYLINDRICAL_SURFACE ( 'NONE', #350, 1.549999999999995826 ) ;
#690 = CARTESIAN_POINT ( 'NONE',  ( 8.464999999999985647, 0.0000000000000000000, -10.36999999999997968 ) ) ;
#691 = EDGE_CURVE ( 'NONE', #597, #138, #481, .T. ) ;
#692 = ORIENTED_EDGE ( 'NONE', *, *, #400, .F. ) ;
#693 = ORIENTED_EDGE ( 'NONE', *, *, #630, .F. ) ;
#694 = CARTESIAN_POINT ( 'NONE',  ( 60.53499999999998238, 0.7000000000000050626, -7.269999999999980034 ) ) ;
#695 = AXIS2_PLACEMENT_3D ( 'NONE', #832, #521, #909 ) ;
#696 = DIRECTION ( 'NONE',  ( 0.0000000000000000000, 0.7071067811865487940, 0.7071067811865463515 ) ) ;
#697 = CARTESIAN_POINT ( 'NONE',  ( 0.0000000000000000000, 2.000000000000000000, -103.0000000000000000 ) ) ;
#698 = CARTESIAN_POINT ( 'NONE',  ( 8.464999999999985647, 0.0000000000000000000, -93.62999999999999545 ) ) ;
#699 = AXIS2_PLACEMENT_3D ( 'NONE', #465, #65, #232 ) ;
#700 = DIRECTION ( 'NONE',  ( 0.0000000000000000000, 1.000000000000000000, 0.0000000000000000000 ) ) ;
#701 = CYLINDRICAL_SURFACE ( 'NONE', #855, 1.000000000000000000 ) ;
#702 = VECTOR ( 'NONE', #759, 1000.000000000000000 ) ;
#703 = CIRCLE ( 'NONE', #253, 1.000000000000000888 ) ;
#704 = DIRECTION ( 'NONE',  ( 0.0000000000000000000, 0.0000000000000000000, 1.000000000000000000 ) ) ;
#705 = ORIENTED_EDGE ( 'NONE', *, *, #435, .T. ) ;
#706 = EDGE_LOOP ( 'NONE', ( #791, #312, #990, #39 ) ) ;
#707 = ORIENTED_EDGE ( 'NONE', *, *, #901, .F. ) ;
#708 = CARTESIAN_POINT ( 'NONE',  ( 0.0000000000000000000, 0.0000000000000000000, 0.0000000000000000000 ) ) ;
#709 = DIRECTION ( 'NONE',  ( 0.0000000000000000000, 0.0000000000000000000, 1.000000000000000000 ) ) ;
#710 = EDGE_CURVE ( 'NONE', #300, #229, #427, .T. ) ;
#711 = ADVANCED_FACE ( 'NONE', ( #186 ), #583, .F. ) ;
#712 = AXIS2_PLACEMENT_3D ( 'NONE', #667, #195, #509 ) ;
#713 = DIRECTION ( 'NONE',  ( 0.0000000000000000000, 1.000000000000000000, 0.0000000000000000000 ) ) ;
#714 = DIRECTION ( 'NONE',  ( -0.0000000000000000000, 1.000000000000000000, -0.0000000000000000000 ) ) ;
#715 = CIRCLE ( 'NONE', #872, 1.000000000000000000 ) ;
#716 = ORIENTED_EDGE ( 'NONE', *, *, #75, .F. ) ;
#717 = VERTEX_POINT ( 'NONE', #1008 ) ;
#718 = ADVANCED_FACE ( 'NONE', ( #985 ), #160, .T. ) ;
#719 = ORIENTED_EDGE ( 'NONE', *, *, #881, .F. ) ;
#720 = AXIS2_PLACEMENT_3D ( 'NONE', #203, #289, #860 ) ;
#721 = CC_DESIGN_PERSON_AND_ORGANIZATION_ASSIGNMENT ( #391, #157, ( #607 ) ) ;
#722 = VECTOR ( 'NONE', #837, 1000.000000000000000 ) ;
#723 = CIRCLE ( 'NONE', #712, 1.549999999999999378 ) ;
#724 = FACE_OUTER_BOUND ( 'NONE', #81, .T. ) ;
#725 = PERSON_AND_ORGANIZATION ( #288, #673 ) ;
#726 = ORIENTED_EDGE ( 'NONE', *, *, #24, .T. ) ;
#727 = ORIENTED_EDGE ( 'NONE', *, *, #274, .F. ) ;
#728 = ORIENTED_EDGE ( 'NONE', *, *, #817, .T. ) ;
#729 = ORIENTED_EDGE ( 'NONE', *, *, #817, .F. ) ;
#730 = CARTESIAN_POINT ( 'NONE',  ( 68.00000000000000000, 0.0000000000000000000, 0.0000000000000000000 ) ) ;
#731 = DIRECTION ( 'NONE',  ( 0.0000000000000000000, -1.000000000000000000, 0.0000000000000000000 ) ) ;
#732 = CIRCLE ( 'NONE', #243, 1.000000000000000888 ) ;
#733 = EDGE_CURVE ( 'NONE', #93, #215, #798, .T. ) ;
#734 = CIRCLE ( 'NONE', #878, 1.000000000000000000 ) ;
#735 = VECTOR ( 'NONE', #498, 1000.000000000000000 ) ;
#736 = CC_DESIGN_PERSON_AND_ORGANIZATION_ASSIGNMENT ( #190, #642, ( #781 ) ) ;
#737 = ORIENTED_EDGE ( 'NONE', *, *, #910, .F. ) ;
#738 = EDGE_CURVE ( 'NONE', #67, #564, #1, .T. ) ;
#739 = CARTESIAN_POINT ( 'NONE',  ( 60.53499999999998238, 0.0000000000000000000, -95.17999999999999261 ) ) ;
#740 = AXIS2_PLACEMENT_3D ( 'NONE', #221, #850, #532 ) ;
#741 = DIRECTION ( 'NONE',  ( 0.0000000000000000000, 1.000000000000000000, 0.0000000000000000000 ) ) ;
#742 = DIRECTION ( 'NONE',  ( 0.0000000000000000000, -1.000000000000000000, 0.0000000000000000000 ) ) ;
#743 = CONICAL_SURFACE ( 'NONE', #222, 1.549999999999995826, 0.7853981633974465026 ) ;
#744 = CIRCLE ( 'NONE', #601, 2.850000000000005418 ) ;
#745 = DIRECTION ( 'NONE',  ( 0.0000000000000000000, 0.0000000000000000000, -1.000000000000000000 ) ) ;
#746 = CYLINDRICAL_SURFACE ( 'NONE', #412, 1.000000000000000888 ) ;
#747 = AXIS2_PLACEMENT_3D ( 'NONE', #592, #768, #619 ) ;
#748 = CARTESIAN_POINT ( 'NONE',  ( 68.00000000000000000, 1.000000000000000000, 0.0000000000000000000 ) ) ;
#749 = FACE_OUTER_BOUND ( 'NONE', #80, .T. ) ;
#750 = EDGE_LOOP ( 'NONE', ( #858, #99, #240 ) ) ;
#751 = VERTEX_POINT ( 'NONE', #764 ) ;
#752 = EDGE_LOOP ( 'NONE', ( #322, #918, #716, #356 ) ) ;
#753 = DIRECTION ( 'NONE',  ( 0.0000000000000000000, 0.0000000000000000000, 1.000000000000000000 ) ) ;
#754 = ORIENTED_EDGE ( 'NONE', *, *, #371, .T. ) ;
#755 = CARTESIAN_POINT ( 'NONE',  ( 69.00000000000000000, 1.000000000000000000, -1.000000000000000000 ) ) ;
#756 =( NAMED_UNIT ( * ) PLANE_ANGLE_UNIT ( ) SI_UNIT ( $, .RADIAN. ) );
#757 = DIRECTION ( 'NONE',  ( 1.000000000000000000, 0.0000000000000000000, 0.0000000000000000000 ) ) ;
#758 = CARTESIAN_POINT ( 'NONE',  ( 60.53499999999998238, 0.7000000000000313749, -93.62999999999999545 ) ) ;
#759 = DIRECTION ( 'NONE',  ( 1.000000000000000000, 0.0000000000000000000, 0.0000000000000000000 ) ) ;
#760 = CIRCLE ( 'NONE', #797, 1.000000000000000000 ) ;
#761 = SPHERICAL_SURFACE ( 'NONE', #40, 1.000000000000000000 ) ;
#762 = CONICAL_SURFACE ( 'NONE', #336, 1.550000000000000933, 0.7853981633974518317 ) ;
#763 = EDGE_CURVE ( 'NONE', #867, #193, #938, .T. ) ;
#764 = CARTESIAN_POINT ( 'NONE',  ( 8.464999999999985647, 0.7000000000000298206, -96.72999999999998977 ) ) ;
#765 = AXIS2_PLACEMENT_3D ( 'NONE', #273, #821, #896 ) ;
#766 = CARTESIAN_POINT ( 'NONE',  ( 1.000000000000000000, 1.000000000000000000, -1.000000000000000000 ) ) ;
#767 = ORIENTED_EDGE ( 'NONE', *, *, #809, .T. ) ;
#768 = DIRECTION ( 'NONE',  ( 0.0000000000000000000, -1.000000000000000000, 0.0000000000000000000 ) ) ;
#769 = ORIENTED_EDGE ( 'NONE', *, *, #155, .F. ) ;
#770 = CARTESIAN_POINT ( 'NONE',  ( 1.000000000000000000, 1.000000000000000000, -1.000000000000000000 ) ) ;
#771 = AXIS2_PLACEMENT_3D ( 'NONE', #522, #849, #106 ) ;
#772 = DIRECTION ( 'NONE',  ( 0.0000000000000000000, 0.0000000000000000000, 1.000000000000000000 ) ) ;
#773 = ADVANCED_FACE ( 'NONE', ( #852 ), #17, .F. ) ;
#774 = CYLINDRICAL_SURFACE ( 'NONE', #865, 1.000000000000000888 ) ;
#775 = ORIENTED_EDGE ( 'NONE', *, *, #1034, .T. ) ;
#776 = ORIENTED_EDGE ( 'NONE', *, *, #297, .F. ) ;
#777 = ORIENTED_EDGE ( 'NONE', *, *, #3, .T. ) ;
#778 = CARTESIAN_POINT ( 'NONE',  ( 1.000000000000000000, 2.000000000000000000, -1.000000000000000000 ) ) ;
#779 = VERTEX_POINT ( 'NONE', #26 ) ;
#780 = DIRECTION ( 'NONE',  ( 0.0000000000000000000, -1.000000000000000000, 0.0000000000000000000 ) ) ;
#781 = PRODUCT_DEFINITION ( 'UNKNOWN', '', #77, #1023 ) ;
#782 = CIRCLE ( 'NONE', #549, 1.000000000000000888 ) ;
#783 = CYLINDRICAL_SURFACE ( 'NONE', #327, 1.549999999999999378 ) ;
#784 = CIRCLE ( 'NONE', #174, 2.849999999999963674 ) ;
#785 = CARTESIAN_POINT ( 'NONE',  ( 8.464999999999985647, 2.000000000000000000, -5.969999999999975770 ) ) ;
#786 = DIRECTION ( 'NONE',  ( 1.000000000000000000, -0.0000000000000000000, 0.0000000000000000000 ) ) ;
#787 = VERTEX_POINT ( 'NONE', #982 ) ;
#788 = VECTOR ( 'NONE', #861, 1000.000000000000000 ) ;
#789 = ORIENTED_EDGE ( 'NONE', *, *, #894, .T. ) ;
#790 = EDGE_CURVE ( 'NONE', #515, #646, #732, .T. ) ;
#791 = ORIENTED_EDGE ( 'NONE', *, *, #32, .F. ) ;
#792 = PRODUCT_RELATED_PRODUCT_CATEGORY ( 'detail', '', ( #367 ) ) ;
#793 = DIRECTION ( 'NONE',  ( 1.000000000000000000, -0.0000000000000000000, -0.0000000000000000000 ) ) ;
#794 = DIRECTION ( 'NONE',  ( 0.0000000000000000000, 0.0000000000000000000, 1.000000000000000000 ) ) ;
#795 = ADVANCED_FACE ( 'NONE', ( #810 ), #183, .F. ) ;
#796 = EDGE_CURVE ( 'NONE', #154, #664, #525, .T. ) ;
#797 = AXIS2_PLACEMENT_3D ( 'NONE', #814, #413, #340 ) ;
#798 = CIRCLE ( 'NONE', #654, 1.549999999999995826 ) ;
#799 = VECTOR ( 'NONE', #819, 1000.000000000000000 ) ;
#800 = FACE_OUTER_BOUND ( 'NONE', #179, .T. ) ;
#801 = CALENDAR_DATE ( 2019, 12, 12 ) ;
#802 = ORIENTED_EDGE ( 'NONE', *, *, #605, .T. ) ;
#803 = ORIENTED_EDGE ( 'NONE', *, *, #387, .T. ) ;
#804 = MECHANICAL_CONTEXT ( 'NONE', #892, 'mechanical' ) ;
#805 = EDGE_CURVE ( 'NONE', #251, #629, #593, .T. ) ;
#806 = DATE_TIME_ROLE ( 'creation_date' ) ;
#807 = DATE_TIME_ROLE ( 'classification_date' ) ;
#808 = CARTESIAN_POINT ( 'NONE',  ( 0.0000000000000000000, 2.000000000000000000, -104.0000000000000000 ) ) ;
#809 = EDGE_CURVE ( 'NONE', #67, #779, #760, .T. ) ;
#810 = FACE_OUTER_BOUND ( 'NONE', #272, .T. ) ;
#811 = APPROVAL ( #8, 'UNSPECIFIED' ) ;
#812 = LINE ( 'NONE', #992, #864 ) ;
#813 = DATE_AND_TIME ( #801, #491 ) ;
#814 = CARTESIAN_POINT ( 'NONE',  ( 1.000000000000000000, 1.000000000000000000, -103.0000000000000000 ) ) ;
#815 = ORIENTED_EDGE ( 'NONE', *, *, #960, .F. ) ;
#816 = ORIENTED_EDGE ( 'NONE', *, *, #586, .F. ) ;
#817 = EDGE_CURVE ( 'NONE', #193, #646, #389, .T. ) ;
#818 = AXIS2_PLACEMENT_3D ( 'NONE', #133, #308, #306 ) ;
#819 = DIRECTION ( 'NONE',  ( -0.0000000000000000000, -0.0000000000000000000, 1.000000000000000000 ) ) ;
#820 = DIRECTION ( 'NONE',  ( 0.0000000000000000000, 1.000000000000000000, -0.0000000000000000000 ) ) ;
#821 = DIRECTION ( 'NONE',  ( 0.0000000000000000000, 1.000000000000000000, 0.0000000000000000000 ) ) ;
#822 = AXIS2_PLACEMENT_3D ( 'NONE', #200, #33, #112 ) ;
#823 = LINE ( 'NONE', #944, #86 ) ;
#824 = LINE ( 'NONE', #424, #161 ) ;
#825 = SPHERICAL_SURFACE ( 'NONE', #947, 1.000000000000000000 ) ;
#826 = APPROVAL_DATE_TIME ( #352, #839 ) ;
#827 = DIRECTION ( 'NONE',  ( 0.0000000000000000000, 0.0000000000000000000, 1.000000000000000000 ) ) ;
#828 = ORIENTED_EDGE ( 'NONE', *, *, #297, .T. ) ;
#829 = CARTESIAN_POINT ( 'NONE',  ( 0.0000000000000000000, 0.0000000000000000000, -102.9999999999999716 ) ) ;
#830 = VERTEX_POINT ( 'NONE', #345 ) ;
#831 = DIRECTION ( 'NONE',  ( 0.0000000000000000000, 1.000000000000000000, 0.0000000000000000000 ) ) ;
#832 = CARTESIAN_POINT ( 'NONE',  ( 8.464999999999985647, 0.0000000000000000000, -95.17999999999999261 ) ) ;
#833 = CARTESIAN_POINT ( 'NONE',  ( 60.53499999999998238, 0.0000000000000000000, -8.819999999999980744 ) ) ;
#834 = DIRECTION ( 'NONE',  ( 0.0000000000000000000, 1.000000000000000000, -0.0000000000000000000 ) ) ;
#835 = CIRCLE ( 'NONE', #531, 1.549999999999999378 ) ;
#836 = CARTESIAN_POINT ( 'NONE',  ( 8.464999999999985647, 0.0000000000000000000, -8.819999999999980744 ) ) ;
#837 = DIRECTION ( 'NONE',  ( -0.0000000000000000000, 1.000000000000000000, -0.0000000000000000000 ) ) ;
#838 = FACE_OUTER_BOUND ( 'NONE', #252, .T. ) ;
#839 = APPROVAL ( #648, 'UNSPECIFIED' ) ;
#840 = CARTESIAN_POINT ( 'NONE',  ( 8.464999999999985647, 0.7000000000000031752, -10.36999999999997968 ) ) ;
#841 = FACE_OUTER_BOUND ( 'NONE', #38, .T. ) ;
#842 = ORIENTED_EDGE ( 'NONE', *, *, #578, .T. ) ;
#843 = ORIENTED_EDGE ( 'NONE', *, *, #265, .F. ) ;
#844 = ORIENTED_EDGE ( 'NONE', *, *, #387, .F. ) ;
#845 = ORIENTED_EDGE ( 'NONE', *, *, #605, .F. ) ;
#846 = DIRECTION ( 'NONE',  ( 0.0000000000000000000, 0.0000000000000000000, -1.000000000000000000 ) ) ;
#847 = DIRECTION ( 'NONE',  ( 0.0000000000000000000, 0.0000000000000000000, 1.000000000000000000 ) ) ;
#848 = AXIS2_PLACEMENT_3D ( 'NONE', #552, #74, #632 ) ;
#849 = DIRECTION ( 'NONE',  ( 0.0000000000000000000, 1.000000000000000000, 0.0000000000000000000 ) ) ;
#850 = DIRECTION ( 'NONE',  ( 0.0000000000000000000, 0.0000000000000000000, -1.000000000000000000 ) ) ;
#851 = ADVANCED_FACE ( 'NONE', ( #172 ), #362, .F. ) ;
#852 = FACE_OUTER_BOUND ( 'NONE', #877, .T. ) ;
#853 = EDGE_CURVE ( 'NONE', #663, #678, #145, .T. ) ;
#854 = COORDINATED_UNIVERSAL_TIME_OFFSET ( 0, 0, .AHEAD. ) ;
#855 = AXIS2_PLACEMENT_3D ( 'NONE', #69, #868, #146 ) ;
#856 = CARTESIAN_POINT ( 'NONE',  ( 1.000000000000000000, 1.000000000000000000, -103.0000000000000000 ) ) ;
#857 = ORIENTED_EDGE ( 'NONE', *, *, #853, .F. ) ;
#858 = ORIENTED_EDGE ( 'NONE', *, *, #184, .T. ) ;
#859 = ORIENTED_EDGE ( 'NONE', *, *, #691, .T. ) ;
#860 = DIRECTION ( 'NONE',  ( 0.0000000000000000000, 0.0000000000000000000, -1.000000000000000000 ) ) ;
#861 = DIRECTION ( 'NONE',  ( -0.0000000000000000000, -0.0000000000000000000, 1.000000000000000000 ) ) ;
#862 = EDGE_CURVE ( 'NONE', #529, #867, #998, .T. ) ;
#863 = VECTOR ( 'NONE', #363, 1000.000000000000000 ) ;
#864 = VECTOR ( 'NONE', #696, 1000.000000000000000 ) ;
#865 = AXIS2_PLACEMENT_3D ( 'NONE', #682, #602, #212 ) ;
#866 = ORIENTED_EDGE ( 'NONE', *, *, #738, .F. ) ;
#867 = VERTEX_POINT ( 'NONE', #730 ) ;
#868 = DIRECTION ( 'NONE',  ( 0.0000000000000000000, -1.000000000000000000, 0.0000000000000000000 ) ) ;
#869 = EDGE_LOOP ( 'NONE', ( #450, #57, #111, #969 ) ) ;
#870 = DIRECTION ( 'NONE',  ( 0.0000000000000000000, 0.0000000000000000000, -1.000000000000000000 ) ) ;
#871 = EDGE_CURVE ( 'NONE', #564, #368, #782, .T. ) ;
#872 = AXIS2_PLACEMENT_3D ( 'NONE', #395, #793, #551 ) ;
#873 = DIRECTION ( 'NONE',  ( 0.0000000000000000000, 0.0000000000000000000, -1.000000000000000000 ) ) ;
#874 = ADVANCED_FACE ( 'NONE', ( #568, #337, #121, #973, #547 ), #653, .T. ) ;
#875 = CARTESIAN_POINT ( 'NONE',  ( 0.0000000000000000000, 2.000000000000000000, 0.0000000000000000000 ) ) ;
#876 = VECTOR ( 'NONE', #127, 1000.000000000000000 ) ;
#877 = EDGE_LOOP ( 'NONE', ( #828, #650, #5, #968 ) ) ;
#878 = AXIS2_PLACEMENT_3D ( 'NONE', #314, #382, #62 ) ;
#879 = ORIENTED_EDGE ( 'NONE', *, *, #332, .T. ) ;
#880 = ADVANCED_FACE ( 'NONE', ( #428 ), #53, .F. ) ;
#881 = EDGE_CURVE ( 'NONE', #779, #302, #657, .T. ) ;
#882 = CC_DESIGN_SECURITY_CLASSIFICATION ( #607, ( #77 ) ) ;
#883 = LINE ( 'NONE', #681, #621 ) ;
#884 = FACE_OUTER_BOUND ( 'NONE', #27, .T. ) ;
#885 = CIRCLE ( 'NONE', #566, 1.549999999999999378 ) ;
#886 = EDGE_LOOP ( 'NONE', ( #166, #728, #366 ) ) ;
#887 = APPLICATION_CONTEXT ( 'configuration controlled 3d designs of mechanical parts and assemblies' ) ;
#888 = ORIENTED_EDGE ( 'NONE', *, *, #104, .T. ) ;
#889 = DIRECTION ( 'NONE',  ( 0.0000000000000000000, 0.0000000000000000000, -1.000000000000000000 ) ) ;
#890 = EDGE_LOOP ( 'NONE', ( #311, #496 ) ) ;
#891 = CC_DESIGN_APPROVAL ( #839, ( #781 ) ) ;
#892 = APPLICATION_CONTEXT ( 'configuration controlled 3d designs of mechanical parts and assemblies' ) ;
#893 = CARTESIAN_POINT ( 'NONE',  ( 0.0000000000000000000, 0.0000000000000000000, 0.0000000000000000000 ) ) ;
#894 = EDGE_CURVE ( 'NONE', #830, #646, #482, .T. ) ;
#895 = LINE ( 'NONE', #612, #876 ) ;
#896 = DIRECTION ( 'NONE',  ( 0.0000000000000000000, 0.0000000000000000000, -1.000000000000000000 ) ) ;
#897 = CARTESIAN_POINT ( 'NONE',  ( 60.53499999999998238, 0.7000000000000050626, -8.819999999999980744 ) ) ;
#898 = ORIENTED_EDGE ( 'NONE', *, *, #125, .F. ) ;
#899 = EDGE_LOOP ( 'NONE', ( #420, #418 ) ) ;
#900 = ORIENTED_EDGE ( 'NONE', *, *, #1010, .T. ) ;
#901 = EDGE_CURVE ( 'NONE', #138, #446, #824, .T. ) ;
#902 = DIRECTION ( 'NONE',  ( 0.0000000000000000000, 0.0000000000000000000, -1.000000000000000000 ) ) ;
#903 = DIRECTION ( 'NONE',  ( -0.0000000000000000000, -0.0000000000000000000, -1.000000000000000000 ) ) ;
#904 = AXIS2_PLACEMENT_3D ( 'NONE', #335, #171, #979 ) ;
#905 = CARTESIAN_POINT ( 'NONE',  ( 60.53499999999998238, 0.7000000000000313749, -95.17999999999999261 ) ) ;
#906 = DIRECTION ( 'NONE',  ( 0.0000000000000000000, 1.000000000000000000, 0.0000000000000000000 ) ) ;
#907 = DIRECTION ( 'NONE',  ( 0.0000000000000000000, 0.0000000000000000000, 1.000000000000000000 ) ) ;
#908 = CARTESIAN_POINT ( 'NONE',  ( 1.000000000000000000, 2.000000000000000000, 0.0000000000000000000 ) ) ;
#909 = DIRECTION ( 'NONE',  ( 0.0000000000000000000, 0.0000000000000000000, 1.000000000000000000 ) ) ;
#910 = EDGE_CURVE ( 'NONE', #751, #717, #963, .T. ) ;
#911 = DIRECTION ( 'NONE',  ( 0.0000000000000000000, 0.0000000000000000000, 1.000000000000000000 ) ) ;
#912 = FACE_OUTER_BOUND ( 'NONE', #943, .T. ) ;
#913 = FACE_OUTER_BOUND ( 'NONE', #330, .T. ) ;
#914 = FACE_OUTER_BOUND ( 'NONE', #706, .T. ) ;
#915 = APPROVAL_PERSON_ORGANIZATION ( #310, #811, #170 ) ;
#916 = ORIENTED_EDGE ( 'NONE', *, *, #455, .T. ) ;
#917 = DIRECTION ( 'NONE',  ( 0.0000000000000000000, 0.0000000000000000000, -1.000000000000000000 ) ) ;
#918 = ORIENTED_EDGE ( 'NONE', *, *, #483, .T. ) ;
#919 = ORIENTED_EDGE ( 'NONE', *, *, #544, .T. ) ;
#920 = EDGE_CURVE ( 'NONE', #446, #485, #744, .T. ) ;
#921 = CARTESIAN_POINT ( 'NONE',  ( 8.464999999999985647, 0.0000000000000000000, -93.62999999999999545 ) ) ;
#922 = DIRECTION ( 'NONE',  ( 0.0000000000000000000, -0.0000000000000000000, -1.000000000000000000 ) ) ;
#923 = CALENDAR_DATE ( 2019, 12, 12 ) ;
#924 = CARTESIAN_POINT ( 'NONE',  ( 1.000000000000000000, 0.0000000000000000000, 0.0000000000000000000 ) ) ;
#925 = DIRECTION ( 'NONE',  ( 1.000000000000000000, 0.0000000000000000000, 0.0000000000000000000 ) ) ;
#926 = EDGE_CURVE ( 'NONE', #1018, #285, #723, .T. ) ;
#927 = LINE ( 'NONE', #105, #234 ) ;
#928 = AXIS2_PLACEMENT_3D ( 'NONE', #357, #906, #668 ) ;
#929 = DIRECTION ( 'NONE',  ( 0.0000000000000000000, -1.000000000000000000, 0.0000000000000000000 ) ) ;
#930 = ADVANCED_FACE ( 'NONE', ( #913 ), #550, .T. ) ;
#931 = ORIENTED_EDGE ( 'NONE', *, *, #479, .T. ) ;
#932 = VERTEX_POINT ( 'NONE', #275 ) ;
#933 = DIRECTION ( 'NONE',  ( 0.0000000000000000000, -1.000000000000000000, 0.0000000000000000000 ) ) ;
#934 = DIRECTION ( 'NONE',  ( 0.0000000000000000000, 1.000000000000000000, 0.0000000000000000000 ) ) ;
#935 = EDGE_CURVE ( 'NONE', #239, #629, #1017, .T. ) ;
#936 = DIRECTION ( 'NONE',  ( -1.000000000000000000, 0.0000000000000000000, 0.0000000000000000000 ) ) ;
#937 = DIRECTION ( 'NONE',  ( 0.0000000000000000000, 0.0000000000000000000, -1.000000000000000000 ) ) ;
#938 = LINE ( 'NONE', #216, #949 ) ;
#939 = EDGE_CURVE ( 'NONE', #957, #239, #381, .T. ) ;
#940 = LINE ( 'NONE', #46, #390 ) ;
#941 = APPROVAL_DATE_TIME ( #1026, #617 ) ;
#942 = CARTESIAN_POINT ( 'NONE',  ( 60.53499999999998238, 0.0000000000000000000, -96.72999999999998977 ) ) ;
#943 = EDGE_LOOP ( 'NONE', ( #727, #769, #494, #385 ) ) ;
#944 = CARTESIAN_POINT ( 'NONE',  ( 68.00000000000000000, 2.000000000000000000, 0.0000000000000000000 ) ) ;
#945 = EDGE_LOOP ( 'NONE', ( #323, #516, #493, #192 ) ) ;
#946 = ORIENTED_EDGE ( 'NONE', *, *, #455, .F. ) ;
#947 = AXIS2_PLACEMENT_3D ( 'NONE', #770, #934, #376 ) ;
#948 = CARTESIAN_POINT ( 'NONE',  ( 0.0000000000000000000, 1.000000000000000000, -104.0000000000000000 ) ) ;
#949 = VECTOR ( 'NONE', #582, 1000.000000000000000 ) ;
#950 = DIRECTION ( 'NONE',  ( -1.000000000000000000, 0.0000000000000000000, 0.0000000000000000000 ) ) ;
#951 = CARTESIAN_POINT ( 'NONE',  ( 60.53499999999998238, 0.0000000000000000000, -8.819999999999980744 ) ) ;
#952 = CIRCLE ( 'NONE', #208, 1.000000000000000888 ) ;
#953 = EDGE_CURVE ( 'NONE', #678, #663, #10, .T. ) ;
#954 = ADVANCED_FACE ( 'NONE', ( #442 ), #250, .F. ) ;
#955 = ORIENTED_EDGE ( 'NONE', *, *, #578, .F. ) ;
#956 = CC_DESIGN_APPROVAL ( #811, ( #607 ) ) ;
#957 = VERTEX_POINT ( 'NONE', #347 ) ;
#958 = EDGE_LOOP ( 'NONE', ( #737, #365, #574, #843 ) ) ;
#959 = ADVANCED_FACE ( 'NONE', ( #749 ), #655, .F. ) ;
#960 = EDGE_CURVE ( 'NONE', #932, #67, #703, .T. ) ;
#961 = AXIS2_PLACEMENT_3D ( 'NONE', #504, #266, #430 ) ;
#962 = FACE_BOUND ( 'NONE', #506, .T. ) ;
#963 = CIRCLE ( 'NONE', #765, 1.549999999999995826 ) ;
#964 = CIRCLE ( 'NONE', #818, 1.549999999999995826 ) ;
#965 = COORDINATED_UNIVERSAL_TIME_OFFSET ( 0, 0, .AHEAD. ) ;
#966 = ORIENTED_EDGE ( 'NONE', *, *, #248, .T. ) ;
#967 = EDGE_CURVE ( 'NONE', #193, #664, #637, .T. ) ;
#968 = ORIENTED_EDGE ( 'NONE', *, *, #630, .T. ) ;
#969 = ORIENTED_EDGE ( 'NONE', *, *, #1010, .F. ) ;
#970 = PERSON_AND_ORGANIZATION_ROLE ( 'design_supplier' ) ;
#971 = DIRECTION ( 'NONE',  ( 0.0000000000000000000, 0.0000000000000000000, 1.000000000000000000 ) ) ;
#972 = AXIS2_PLACEMENT_3D ( 'NONE', #833, #354, #911 ) ;
#973 = FACE_BOUND ( 'NONE', #890, .T. ) ;
#974 = VECTOR ( 'NONE', #527, 1000.000000000000000 ) ;
#975 = FACE_OUTER_BOUND ( 'NONE', #519, .T. ) ;
#976 = EDGE_CURVE ( 'NONE', #678, #333, #282, .T. ) ;
#977 = CARTESIAN_POINT ( 'NONE',  ( 0.0000000000000000000, 1.000000000000000000, 0.0000000000000000000 ) ) ;
#978 = ORIENTED_EDGE ( 'NONE', *, *, #763, .F. ) ;
#979 = DIRECTION ( 'NONE',  ( 0.0000000000000000000, 0.0000000000000000000, 1.000000000000000000 ) ) ;
#980 = EDGE_LOOP ( 'NONE', ( #242, #615, #729, #978 ) ) ;
#981 = AXIS2_PLACEMENT_3D ( 'NONE', #425, #271, #102 ) ;
#982 = CARTESIAN_POINT ( 'NONE',  ( 8.464999999999985647, 0.0000000000000000000, -96.72999999999998977 ) ) ;
#983 = CARTESIAN_POINT ( 'NONE',  ( 68.00000000000000000, 0.0000000000000000000, -1.000000000000000000 ) ) ;
#984 = EDGE_CURVE ( 'NONE', #285, #1018, #885, .T. ) ;
#985 = FACE_OUTER_BOUND ( 'NONE', #599, .T. ) ;
#986 = DIRECTION ( 'NONE',  ( -0.0000000000000000000, 1.000000000000000000, -0.0000000000000000000 ) ) ;
#987 = CARTESIAN_POINT ( 'NONE',  ( 0.0000000000000000000, 1.000000000000000000, -1.000000000000000000 ) ) ;
#988 = CONICAL_SURFACE ( 'NONE', #771, 1.549999999999999378, 0.7853981633974518317 ) ;
#989 = LINE ( 'NONE', #278, #23 ) ;
#990 = ORIENTED_EDGE ( 'NONE', *, *, #853, .T. ) ;
#991 = CARTESIAN_POINT ( 'NONE',  ( 68.00000000000000000, 2.000000000000000000, -103.0000000000000000 ) ) ;
#992 = CARTESIAN_POINT ( 'NONE',  ( 8.464999999999985647, 0.7000000000000298206, -93.62999999999999545 ) ) ;
#993 = CARTESIAN_POINT ( 'NONE',  ( 0.0000000000000000000, 2.000000000000000000, 0.0000000000000000000 ) ) ;
#994 = CARTESIAN_POINT ( 'NONE',  ( 8.464999999999985647, 0.0000000000000000000, -95.17999999999999261 ) ) ;
#995 = CARTESIAN_POINT ( 'NONE',  ( 60.53499999999998238, 0.7000000000000050626, -8.819999999999980744 ) ) ;
#996 = CARTESIAN_POINT ( 'NONE',  ( 8.464999999999985647, 0.7000000000000031752, -7.269999999999980922 ) ) ;
#997 = AXIS2_PLACEMENT_3D ( 'NONE', #304, #936, #1011 ) ;
#998 = CIRCLE ( 'NONE', #373, 1.000000000000000000 ) ;
#999 = FACE_OUTER_BOUND ( 'NONE', #980, .T. ) ;
#1000 = CARTESIAN_POINT ( 'NONE',  ( 8.464999999999985647, 0.7000000000000298206, -96.72999999999998977 ) ) ;
#1001 = DIRECTION ( 'NONE',  ( 0.0000000000000000000, -1.000000000000000000, 0.0000000000000000000 ) ) ;
#1002 = ORIENTED_EDGE ( 'NONE', *, *, #710, .T. ) ;
#1003 = DIRECTION ( 'NONE',  ( 0.0000000000000000000, 0.0000000000000000000, 1.000000000000000000 ) ) ;
#1004 = FACE_OUTER_BOUND ( 'NONE', #869, .T. ) ;
#1005 = ORIENTED_EDGE ( 'NONE', *, *, #47, .T. ) ;
#1006 = ORIENTED_EDGE ( 'NONE', *, *, #984, .F. ) ;
#1007 = EDGE_CURVE ( 'NONE', #229, #300, #784, .T. ) ;
#1008 = CARTESIAN_POINT ( 'NONE',  ( 8.464999999999985647, 0.7000000000000298206, -93.62999999999999545 ) ) ;
#1009 = ADVANCED_FACE ( 'NONE', ( #975 ), #762, .F. ) ;
#1010 = EDGE_CURVE ( 'NONE', #394, #717, #661, .T. ) ;
#1011 = DIRECTION ( 'NONE',  ( 0.0000000000000000000, 0.0000000000000000000, 1.000000000000000000 ) ) ;
#1012 = LINE ( 'NONE', #45, #863 ) ;
#1013 = AXIS2_PLACEMENT_3D ( 'NONE', #137, #700, #299 ) ;
#1014 = DIRECTION ( 'NONE',  ( -0.0000000000000000000, 1.000000000000000000, -0.0000000000000000000 ) ) ;
#1015 = DIRECTION ( 'NONE',  ( -0.0000000000000000000, 1.000000000000000000, -0.0000000000000000000 ) ) ;
#1016 = COORDINATED_UNIVERSAL_TIME_OFFSET ( 0, 0, .AHEAD. ) ;
#1017 = LINE ( 'NONE', #101, #405 ) ;
#1018 = VERTEX_POINT ( 'NONE', #41 ) ;
#1019 = ORIENTED_EDGE ( 'NONE', *, *, #871, .F. ) ;
#1020 = ORIENTED_EDGE ( 'NONE', *, *, #523, .F. ) ;
#1021 = EDGE_CURVE ( 'NONE', #751, #229, #256, .T. ) ;
#1022 = DIRECTION ( 'NONE',  ( 0.0000000000000000000, 1.000000000000000000, 0.0000000000000000000 ) ) ;
#1023 = DESIGN_CONTEXT ( 'detailed design', #887, 'design' ) ;
#1024 = CYLINDRICAL_SURFACE ( 'NONE', #500, 1.000000000000000000 ) ;
#1025 = AXIS2_PLACEMENT_3D ( 'NONE', #542, #64, #704 ) ;
#1026 = DATE_AND_TIME ( #645, #473 ) ;
#1027 = DIRECTION ( 'NONE',  ( -0.0000000000000000000, -0.0000000000000000000, 1.000000000000000000 ) ) ;
#1028 = CARTESIAN_POINT ( 'NONE',  ( 8.464999999999985647, 0.0000000000000000000, -8.819999999999980744 ) ) ;
#1029 = ORIENTED_EDGE ( 'NONE', *, *, #184, .F. ) ;
#1030 = CYLINDRICAL_SURFACE ( 'NONE', #346, 1.549999999999995826 ) ;
#1031 = VERTEX_POINT ( 'NONE', #924 ) ;
#1032 = ORIENTED_EDGE ( 'NONE', *, *, #488, .F. ) ;
#1033 = ADVANCED_FACE ( 'NONE', ( #404 ), #459, .T. ) ;
#1034 = EDGE_CURVE ( 'NONE', #495, #154, #989, .T. ) ;
#1035 = AXIS2_PLACEMENT_3D ( 'NONE', #54, #462, #772 ) ;
#1036 = CARTESIAN_POINT ( 'NONE',  ( 60.53499999999998238, 0.7000000000000313749, -96.72999999999998977 ) ) ;
#1037 = ADVANCED_FACE ( 'NONE', ( #841 ), #624, .F. ) ;
ENDSEC;
END-ISO-10303-21;
