ISO-10303-21;
HEADER;
FILE_DESCRIPTION (( 'STEP AP203' ),
    '1' );
FILE_NAME ('Sep.STEP',
    '2019-12-12T17:37:19',
    ( '' ),
    ( '' ),
    'SwSTEP 2.0',
    'SolidWorks 2018',
    '' );
FILE_SCHEMA (( 'CONFIG_CONTROL_DESIGN' ));
ENDSEC;

DATA;
#1 = APPLICATION_PROTOCOL_DEFINITION ( 'international standard', 'config_control_design', 1994, #42 ) ;
#2 = ORIENTED_EDGE ( 'NONE', *, *, #6, .F. ) ;
#3 = DIRECTION ( 'NONE',  ( 0.0000000000000000000, 0.0000000000000000000, 1.000000000000000000 ) ) ;
#4 = CARTESIAN_POINT ( 'NONE',  ( 0.0000000000000000000, 27.00000000000000000, 0.0000000000000000000 ) ) ;
#5 = ORIENTED_EDGE ( 'NONE', *, *, #124, .F. ) ;
#6 = EDGE_CURVE ( 'NONE', #126, #196, #162, .T. ) ;
#7 = AXIS2_PLACEMENT_3D ( 'NONE', #238, #11, #12 ) ;
#8 = EDGE_LOOP ( 'NONE', ( #61, #52, #14, #2 ) ) ;
#9 = ORIENTED_EDGE ( 'NONE', *, *, #22, .T. ) ;
#10 = FACE_OUTER_BOUND ( 'NONE', #157, .T. ) ;
#11 = DIRECTION ( 'NONE',  ( 0.0000000000000000000, 1.000000000000000000, 0.0000000000000000000 ) ) ;
#12 = DIRECTION ( 'NONE',  ( 0.0000000000000000000, 0.0000000000000000000, 1.000000000000000000 ) ) ;
#13 = CIRCLE ( 'NONE', #155, 2.049999999999999822 ) ;
#14 = ORIENTED_EDGE ( 'NONE', *, *, #161, .T. ) ;
#15 = VECTOR ( 'NONE', #28, 1000.000000000000000 ) ;
#16 = CARTESIAN_POINT ( 'NONE',  ( 0.0000000000000000000, 27.00000000000000000, 0.0000000000000000000 ) ) ;
#17 = PERSON_AND_ORGANIZATION ( #241, #175 ) ;
#18 = AXIS2_PLACEMENT_3D ( 'NONE', #208, #153, #111 ) ;
#19 = LINE ( 'NONE', #123, #15 ) ;
#20 = DIRECTION ( 'NONE',  ( 0.0000000000000000000, 0.0000000000000000000, 1.000000000000000000 ) ) ;
#21 = DIRECTION ( 'NONE',  ( 0.0000000000000000000, 1.000000000000000000, 0.0000000000000000000 ) ) ;
#22 = EDGE_CURVE ( 'NONE', #105, #126, #151, .T. ) ;
#23 = CARTESIAN_POINT ( 'NONE',  ( 0.0000000000000000000, 0.0000000000000000000, 0.0000000000000000000 ) ) ;
#24 = COORDINATED_UNIVERSAL_TIME_OFFSET ( 0, 0, .AHEAD. ) ;
#25 = PRODUCT_DEFINITION ( 'UNKNOWN', '', #128, #48 ) ;
#26 = EDGE_LOOP ( 'NONE', ( #249, #198, #163, #54 ) ) ;
#27 = EDGE_CURVE ( 'NONE', #105, #149, #13, .T. ) ;
#28 = DIRECTION ( 'NONE',  ( -0.0000000000000000000, -1.000000000000000000, -0.0000000000000000000 ) ) ;
#29 = ADVANCED_BREP_SHAPE_REPRESENTATION ( 'Sep', ( #154, #245 ), #44 ) ;
#30 = AXIS2_PLACEMENT_3D ( 'NONE', #213, #75, #90 ) ;
#31 = APPROVAL ( #69, 'UNSPECIFIED' ) ;
#32 = PERSON_AND_ORGANIZATION ( #241, #175 ) ;
#33 = CARTESIAN_POINT ( 'NONE',  ( 0.0000000000000000000, 0.0000000000000000000, 0.0000000000000000000 ) ) ;
#34 = CARTESIAN_POINT ( 'NONE',  ( 0.0000000000000000000, 27.00000000000000000, 0.0000000000000000000 ) ) ;
#35 = AXIS2_PLACEMENT_3D ( 'NONE', #38, #135, #3 ) ;
#36 = DIRECTION ( 'NONE',  ( -0.0000000000000000000, -1.000000000000000000, -0.0000000000000000000 ) ) ;
#37 = APPROVAL_ROLE ( '' ) ;
#38 = CARTESIAN_POINT ( 'NONE',  ( 0.0000000000000000000, 0.0000000000000000000, 0.0000000000000000000 ) ) ;
#39 = APPROVAL_ROLE ( '' ) ;
#40 = DIRECTION ( 'NONE',  ( 0.0000000000000000000, 0.0000000000000000000, 1.000000000000000000 ) ) ;
#41 = DIRECTION ( 'NONE',  ( 1.000000000000000000, 0.0000000000000000000, 0.0000000000000000000 ) ) ;
#42 = APPLICATION_CONTEXT ( 'configuration controlled 3d designs of mechanical parts and assemblies' ) ;
#43 = ORIENTED_EDGE ( 'NONE', *, *, #27, .F. ) ;
#44 =( GEOMETRIC_REPRESENTATION_CONTEXT ( 3 ) GLOBAL_UNCERTAINTY_ASSIGNED_CONTEXT ( ( #81 ) ) GLOBAL_UNIT_ASSIGNED_CONTEXT ( ( #160, #88, #134 ) ) REPRESENTATION_CONTEXT ( 'NONE', 'WORKASPACE' ) );
#45 = ORIENTED_EDGE ( 'NONE', *, *, #248, .T. ) ;
#46 = CALENDAR_DATE ( 2019, 12, 12 ) ;
#47 = CYLINDRICAL_SURFACE ( 'NONE', #18, 2.049999999999999822 ) ;
#48 = DESIGN_CONTEXT ( 'detailed design', #42, 'design' ) ;
#49 = LOCAL_TIME ( 17, 37, 19.00000000000000000, #24 ) ;
#50 = ORIENTED_EDGE ( 'NONE', *, *, #6, .T. ) ;
#51 = CIRCLE ( 'NONE', #7, 3.500000000000000000 ) ;
#52 = ORIENTED_EDGE ( 'NONE', *, *, #27, .T. ) ;
#53 = VERTEX_POINT ( 'NONE', #87 ) ;
#54 = ORIENTED_EDGE ( 'NONE', *, *, #180, .F. ) ;
#55 = CYLINDRICAL_SURFACE ( 'NONE', #103, 3.500000000000000000 ) ;
#56 = APPROVAL_ROLE ( '' ) ;
#57 = EDGE_LOOP ( 'NONE', ( #89, #224 ) ) ;
#58 = CC_DESIGN_DATE_AND_TIME_ASSIGNMENT ( #82, #136, ( #25 ) ) ;
#59 = COORDINATED_UNIVERSAL_TIME_OFFSET ( 0, 0, .AHEAD. ) ;
#60 = ORIENTED_EDGE ( 'NONE', *, *, #161, .F. ) ;
#61 = ORIENTED_EDGE ( 'NONE', *, *, #22, .F. ) ;
#62 = DATE_AND_TIME ( #46, #110 ) ;
#63 = CARTESIAN_POINT ( 'NONE',  ( 0.0000000000000000000, 27.00000000000000000, -3.500000000000000000 ) ) ;
#64 = CALENDAR_DATE ( 2019, 12, 12 ) ;
#65 = AXIS2_PLACEMENT_3D ( 'NONE', #147, #101, #144 ) ;
#66 = PRODUCT ( 'Sep', 'Sep', '', ( #116 ) ) ;
#67 = CC_DESIGN_SECURITY_CLASSIFICATION ( #181, ( #128 ) ) ;
#68 = VECTOR ( 'NONE', #205, 1000.000000000000000 ) ;
#69 = APPROVAL_STATUS ( 'not_yet_approved' ) ;
#70 = DIRECTION ( 'NONE',  ( -0.0000000000000000000, -1.000000000000000000, -0.0000000000000000000 ) ) ;
#71 = APPROVAL_DATE_TIME ( #222, #31 ) ;
#72 = CARTESIAN_POINT ( 'NONE',  ( 0.0000000000000000000, 27.00000000000000000, -3.500000000000000000 ) ) ;
#73 = CC_DESIGN_PERSON_AND_ORGANIZATION_ASSIGNMENT ( #223, #119, ( #25 ) ) ;
#74 = CARTESIAN_POINT ( 'NONE',  ( 0.0000000000000000000, 0.0000000000000000000, 0.0000000000000000000 ) ) ;
#75 = DIRECTION ( 'NONE',  ( -0.0000000000000000000, -1.000000000000000000, -0.0000000000000000000 ) ) ;
#76 = CC_DESIGN_PERSON_AND_ORGANIZATION_ASSIGNMENT ( #226, #159, ( #66 ) ) ;
#77 = ADVANCED_FACE ( 'NONE', ( #206 ), #47, .F. ) ;
#78 = CC_DESIGN_APPROVAL ( #201, ( #25 ) ) ;
#79 = PRODUCT_RELATED_PRODUCT_CATEGORY ( 'detail', '', ( #66 ) ) ;
#80 = EDGE_CURVE ( 'NONE', #104, #210, #187, .T. ) ;
#81 = UNCERTAINTY_MEASURE_WITH_UNIT (LENGTH_MEASURE( 1.000000000000000082E-05 ), #160, 'distance_accuracy_value', 'NONE');
#82 = DATE_AND_TIME ( #64, #121 ) ;
#83 = DIRECTION ( 'NONE',  ( -0.0000000000000000000, -1.000000000000000000, -0.0000000000000000000 ) ) ;
#84 = CARTESIAN_POINT ( 'NONE',  ( 4.286263797015736595E-16, 27.00000000000000000, 3.500000000000000000 ) ) ;
#85 = AXIS2_PLACEMENT_3D ( 'NONE', #23, #191, #231 ) ;
#86 = CC_DESIGN_APPROVAL ( #31, ( #181 ) ) ;
#87 = CARTESIAN_POINT ( 'NONE',  ( 4.286263797015736595E-16, 27.00000000000000000, 3.500000000000000000 ) ) ;
#88 =( NAMED_UNIT ( * ) PLANE_ANGLE_UNIT ( ) SI_UNIT ( $, .RADIAN. ) );
#89 = ORIENTED_EDGE ( 'NONE', *, *, #80, .F. ) ;
#90 = DIRECTION ( 'NONE',  ( 0.0000000000000000000, 0.0000000000000000000, -1.000000000000000000 ) ) ;
#91 = CLOSED_SHELL ( 'NONE', ( #221, #240, #166, #237, #100, #77 ) ) ;
#92 = FACE_OUTER_BOUND ( 'NONE', #26, .T. ) ;
#93 = CARTESIAN_POINT ( 'NONE',  ( 0.0000000000000000000, 0.0000000000000000000, 0.0000000000000000000 ) ) ;
#94 = APPROVAL ( #113, 'UNSPECIFIED' ) ;
#95 = VECTOR ( 'NONE', #233, 1000.000000000000000 ) ;
#96 = COORDINATED_UNIVERSAL_TIME_OFFSET ( 0, 0, .AHEAD. ) ;
#97 = EDGE_LOOP ( 'NONE', ( #199, #50 ) ) ;
#98 = APPROVAL_DATE_TIME ( #62, #94 ) ;
#99 = CARTESIAN_POINT ( 'NONE',  ( 0.0000000000000000000, 27.00000000000000000, 0.0000000000000000000 ) ) ;
#100 = ADVANCED_FACE ( 'NONE', ( #246 ), #55, .T. ) ;
#101 = DIRECTION ( 'NONE',  ( 0.0000000000000000000, 1.000000000000000000, 0.0000000000000000000 ) ) ;
#102 = ORIENTED_EDGE ( 'NONE', *, *, #168, .F. ) ;
#103 = AXIS2_PLACEMENT_3D ( 'NONE', #16, #36, #247 ) ;
#104 = VERTEX_POINT ( 'NONE', #214 ) ;
#105 = VERTEX_POINT ( 'NONE', #229 ) ;
#106 = FACE_OUTER_BOUND ( 'NONE', #203, .T. ) ;
#107 = CARTESIAN_POINT ( 'NONE',  ( 0.0000000000000000000, 0.0000000000000000000, -2.049999999999999822 ) ) ;
#108 = ORIENTED_EDGE ( 'NONE', *, *, #80, .T. ) ;
#109 = CC_DESIGN_APPROVAL ( #94, ( #128 ) ) ;
#110 = LOCAL_TIME ( 17, 37, 19.00000000000000000, #150 ) ;
#111 = DIRECTION ( 'NONE',  ( 0.0000000000000000000, 0.0000000000000000000, -1.000000000000000000 ) ) ;
#112 = ORIENTED_EDGE ( 'NONE', *, *, #180, .T. ) ;
#113 = APPROVAL_STATUS ( 'not_yet_approved' ) ;
#114 = CIRCLE ( 'NONE', #65, 2.049999999999999822 ) ;
#115 = CARTESIAN_POINT ( 'NONE',  ( 0.0000000000000000000, 27.00000000000000000, 0.0000000000000000000 ) ) ;
#116 = MECHANICAL_CONTEXT ( 'NONE', #117, 'mechanical' ) ;
#117 = APPLICATION_CONTEXT ( 'configuration controlled 3d designs of mechanical parts and assemblies' ) ;
#118 = DIRECTION ( 'NONE',  ( 0.0000000000000000000, 0.0000000000000000000, 1.000000000000000000 ) ) ;
#119 = PERSON_AND_ORGANIZATION_ROLE ( 'creator' ) ;
#120 = DIRECTION ( 'NONE',  ( 0.0000000000000000000, 1.000000000000000000, 0.0000000000000000000 ) ) ;
#121 = LOCAL_TIME ( 17, 37, 19.00000000000000000, #59 ) ;
#122 = FACE_BOUND ( 'NONE', #217, .T. ) ;
#123 = CARTESIAN_POINT ( 'NONE',  ( 0.0000000000000000000, 27.00000000000000000, -2.049999999999999822 ) ) ;
#124 = EDGE_CURVE ( 'NONE', #149, #105, #114, .T. ) ;
#125 = PLANE ( 'NONE',  #228 ) ;
#126 = VERTEX_POINT ( 'NONE', #239 ) ;
#127 = PERSON_AND_ORGANIZATION ( #241, #175 ) ;
#128 = PRODUCT_DEFINITION_FORMATION_WITH_SPECIFIED_SOURCE ( 'ANY', '', #66, .NOT_KNOWN. ) ;
#129 = PRODUCT_DEFINITION_SHAPE ( 'NONE', 'NONE',  #25 ) ;
#130 = DIRECTION ( 'NONE',  ( 0.0000000000000000000, 0.0000000000000000000, -1.000000000000000000 ) ) ;
#131 = APPROVAL_DATE_TIME ( #193, #201 ) ;
#132 = DIRECTION ( 'NONE',  ( 0.0000000000000000000, -0.0000000000000000000, 1.000000000000000000 ) ) ;
#133 = DATE_TIME_ROLE ( 'classification_date' ) ;
#134 =( NAMED_UNIT ( * ) SI_UNIT ( $, .STERADIAN. ) SOLID_ANGLE_UNIT ( ) );
#135 = DIRECTION ( 'NONE',  ( 0.0000000000000000000, 1.000000000000000000, 0.0000000000000000000 ) ) ;
#136 = DATE_TIME_ROLE ( 'creation_date' ) ;
#137 = PERSON_AND_ORGANIZATION ( #241, #175 ) ;
#138 = PLANE ( 'NONE',  #189 ) ;
#139 = ORIENTED_EDGE ( 'NONE', *, *, #218, .F. ) ;
#140 = LOCAL_TIME ( 17, 37, 19.00000000000000000, #235 ) ;
#141 = EDGE_CURVE ( 'NONE', #53, #148, #51, .T. ) ;
#142 = AXIS2_PLACEMENT_3D ( 'NONE', #33, #244, #188 ) ;
#143 = AXIS2_PLACEMENT_3D ( 'NONE', #216, #120, #118 ) ;
#144 = DIRECTION ( 'NONE',  ( 0.0000000000000000000, 0.0000000000000000000, 1.000000000000000000 ) ) ;
#145 = ORIENTED_EDGE ( 'NONE', *, *, #141, .T. ) ;
#146 = CIRCLE ( 'NONE', #236, 3.500000000000000000 ) ;
#147 = CARTESIAN_POINT ( 'NONE',  ( 0.0000000000000000000, 27.00000000000000000, 0.0000000000000000000 ) ) ;
#148 = VERTEX_POINT ( 'NONE', #63 ) ;
#149 = VERTEX_POINT ( 'NONE', #183 ) ;
#150 = COORDINATED_UNIVERSAL_TIME_OFFSET ( 0, 0, .AHEAD. ) ;
#151 = LINE ( 'NONE', #194, #95 ) ;
#152 = CC_DESIGN_PERSON_AND_ORGANIZATION_ASSIGNMENT ( #156, #177, ( #128 ) ) ;
#153 = DIRECTION ( 'NONE',  ( -0.0000000000000000000, -1.000000000000000000, -0.0000000000000000000 ) ) ;
#154 = MANIFOLD_SOLID_BREP ( 'Boss-Extrude1', #91 ) ;
#155 = AXIS2_PLACEMENT_3D ( 'NONE', #115, #21, #40 ) ;
#156 = PERSON_AND_ORGANIZATION ( #241, #175 ) ;
#157 = EDGE_LOOP ( 'NONE', ( #195, #9, #102, #60 ) ) ;
#158 = FACE_OUTER_BOUND ( 'NONE', #57, .T. ) ;
#159 = PERSON_AND_ORGANIZATION_ROLE ( 'design_owner' ) ;
#160 =( LENGTH_UNIT ( ) NAMED_UNIT ( * ) SI_UNIT ( .MILLI., .METRE. ) );
#161 = EDGE_CURVE ( 'NONE', #149, #196, #19, .T. ) ;
#162 = CIRCLE ( 'NONE', #143, 2.049999999999999822 ) ;
#163 = ORIENTED_EDGE ( 'NONE', *, *, #227, .T. ) ;
#164 = VECTOR ( 'NONE', #83, 1000.000000000000000 ) ;
#165 = PERSON_AND_ORGANIZATION_ROLE ( 'classification_officer' ) ;
#166 = ADVANCED_FACE ( 'NONE', ( #106, #122 ), #125, .T. ) ;
#167 = ORIENTED_EDGE ( 'NONE', *, *, #248, .F. ) ;
#168 = EDGE_CURVE ( 'NONE', #196, #126, #171, .T. ) ;
#169 = APPROVAL_PERSON_ORGANIZATION ( #17, #94, #39 ) ;
#170 = CC_DESIGN_PERSON_AND_ORGANIZATION_ASSIGNMENT ( #137, #172, ( #128 ) ) ;
#171 = CIRCLE ( 'NONE', #142, 2.049999999999999822 ) ;
#172 = PERSON_AND_ORGANIZATION_ROLE ( 'design_supplier' ) ;
#173 = LOCAL_TIME ( 17, 37, 19.00000000000000000, #96 ) ;
#174 = SECURITY_CLASSIFICATION_LEVEL ( 'unclassified' ) ;
#175 = ORGANIZATION ( 'UNSPECIFIED', 'UNSPECIFIED', '' ) ;
#176 = EDGE_LOOP ( 'NONE', ( #139, #167, #112, #108 ) ) ;
#177 = PERSON_AND_ORGANIZATION_ROLE ( 'creator' ) ;
#178 = APPLICATION_PROTOCOL_DEFINITION ( 'international standard', 'config_control_design', 1994, #117 ) ;
#179 = APPROVAL_STATUS ( 'not_yet_approved' ) ;
#180 = EDGE_CURVE ( 'NONE', #148, #104, #204, .T. ) ;
#181 = SECURITY_CLASSIFICATION ( '', '', #174 ) ;
#182 = PERSON_AND_ORGANIZATION ( #241, #175 ) ;
#183 = CARTESIAN_POINT ( 'NONE',  ( 0.0000000000000000000, 27.00000000000000000, -2.049999999999999822 ) ) ;
#184 = CALENDAR_DATE ( 2019, 12, 12 ) ;
#185 = APPROVAL_PERSON_ORGANIZATION ( #182, #31, #37 ) ;
#186 = CARTESIAN_POINT ( 'NONE',  ( 4.286263797015736595E-16, 0.0000000000000000000, 3.500000000000000000 ) ) ;
#187 = CIRCLE ( 'NONE', #35, 3.500000000000000000 ) ;
#188 = DIRECTION ( 'NONE',  ( 0.0000000000000000000, 0.0000000000000000000, 1.000000000000000000 ) ) ;
#189 = AXIS2_PLACEMENT_3D ( 'NONE', #93, #192, #215 ) ;
#190 = DIRECTION ( 'NONE',  ( 0.0000000000000000000, 1.000000000000000000, 0.0000000000000000000 ) ) ;
#191 = DIRECTION ( 'NONE',  ( 0.0000000000000000000, 1.000000000000000000, 0.0000000000000000000 ) ) ;
#192 = DIRECTION ( 'NONE',  ( 0.0000000000000000000, 1.000000000000000000, 0.0000000000000000000 ) ) ;
#193 = DATE_AND_TIME ( #184, #140 ) ;
#194 = CARTESIAN_POINT ( 'NONE',  ( 2.510525938252073693E-16, 27.00000000000000000, 2.049999999999999822 ) ) ;
#195 = ORIENTED_EDGE ( 'NONE', *, *, #124, .T. ) ;
#196 = VERTEX_POINT ( 'NONE', #107 ) ;
#197 = CALENDAR_DATE ( 2019, 12, 12 ) ;
#198 = ORIENTED_EDGE ( 'NONE', *, *, #218, .T. ) ;
#199 = ORIENTED_EDGE ( 'NONE', *, *, #168, .T. ) ;
#200 = CYLINDRICAL_SURFACE ( 'NONE', #243, 2.049999999999999822 ) ;
#201 = APPROVAL ( #179, 'UNSPECIFIED' ) ;
#202 = SHAPE_DEFINITION_REPRESENTATION ( #129, #29 ) ;
#203 = EDGE_LOOP ( 'NONE', ( #45, #145 ) ) ;
#204 = LINE ( 'NONE', #72, #164 ) ;
#205 = DIRECTION ( 'NONE',  ( -0.0000000000000000000, -1.000000000000000000, -0.0000000000000000000 ) ) ;
#206 = FACE_OUTER_BOUND ( 'NONE', #8, .T. ) ;
#207 = CYLINDRICAL_SURFACE ( 'NONE', #30, 3.500000000000000000 ) ;
#208 = CARTESIAN_POINT ( 'NONE',  ( 0.0000000000000000000, 27.00000000000000000, 0.0000000000000000000 ) ) ;
#209 = CC_DESIGN_PERSON_AND_ORGANIZATION_ASSIGNMENT ( #32, #165, ( #181 ) ) ;
#210 = VERTEX_POINT ( 'NONE', #186 ) ;
#211 = CIRCLE ( 'NONE', #85, 3.500000000000000000 ) ;
#212 = DIRECTION ( 'NONE',  ( 0.0000000000000000000, 1.000000000000000000, 0.0000000000000000000 ) ) ;
#213 = CARTESIAN_POINT ( 'NONE',  ( 0.0000000000000000000, 27.00000000000000000, 0.0000000000000000000 ) ) ;
#214 = CARTESIAN_POINT ( 'NONE',  ( 0.0000000000000000000, 0.0000000000000000000, -3.500000000000000000 ) ) ;
#215 = DIRECTION ( 'NONE',  ( 0.0000000000000000000, -0.0000000000000000000, 1.000000000000000000 ) ) ;
#216 = CARTESIAN_POINT ( 'NONE',  ( 0.0000000000000000000, 0.0000000000000000000, 0.0000000000000000000 ) ) ;
#217 = EDGE_LOOP ( 'NONE', ( #5, #43 ) ) ;
#218 = EDGE_CURVE ( 'NONE', #53, #210, #220, .T. ) ;
#219 = APPROVAL_PERSON_ORGANIZATION ( #127, #201, #56 ) ;
#220 = LINE ( 'NONE', #84, #68 ) ;
#221 = ADVANCED_FACE ( 'NONE', ( #10 ), #200, .F. ) ;
#222 = DATE_AND_TIME ( #197, #49 ) ;
#223 = PERSON_AND_ORGANIZATION ( #241, #175 ) ;
#224 = ORIENTED_EDGE ( 'NONE', *, *, #227, .F. ) ;
#225 = CALENDAR_DATE ( 2019, 12, 12 ) ;
#226 = PERSON_AND_ORGANIZATION ( #241, #175 ) ;
#227 = EDGE_CURVE ( 'NONE', #210, #104, #211, .T. ) ;
#228 = AXIS2_PLACEMENT_3D ( 'NONE', #99, #190, #132 ) ;
#229 = CARTESIAN_POINT ( 'NONE',  ( 2.510525938252073693E-16, 27.00000000000000000, 2.049999999999999822 ) ) ;
#230 = DIRECTION ( 'NONE',  ( 0.0000000000000000000, 0.0000000000000000000, 1.000000000000000000 ) ) ;
#231 = DIRECTION ( 'NONE',  ( 0.0000000000000000000, 0.0000000000000000000, 1.000000000000000000 ) ) ;
#232 = DATE_AND_TIME ( #225, #173 ) ;
#233 = DIRECTION ( 'NONE',  ( -0.0000000000000000000, -1.000000000000000000, -0.0000000000000000000 ) ) ;
#234 = FACE_BOUND ( 'NONE', #97, .T. ) ;
#235 = COORDINATED_UNIVERSAL_TIME_OFFSET ( 0, 0, .AHEAD. ) ;
#236 = AXIS2_PLACEMENT_3D ( 'NONE', #4, #212, #230 ) ;
#237 = ADVANCED_FACE ( 'NONE', ( #158, #234 ), #138, .F. ) ;
#238 = CARTESIAN_POINT ( 'NONE',  ( 0.0000000000000000000, 27.00000000000000000, 0.0000000000000000000 ) ) ;
#239 = CARTESIAN_POINT ( 'NONE',  ( 2.510525938252073693E-16, 0.0000000000000000000, 2.049999999999999822 ) ) ;
#240 = ADVANCED_FACE ( 'NONE', ( #92 ), #207, .T. ) ;
#241 = PERSON ( 'UNSPECIFIED', 'UNSPECIFIED', 'UNSPECIFIED', ('UNSPECIFIED'), ('UNSPECIFIED'), ('UNSPECIFIED') ) ;
#242 = CC_DESIGN_DATE_AND_TIME_ASSIGNMENT ( #232, #133, ( #181 ) ) ;
#243 = AXIS2_PLACEMENT_3D ( 'NONE', #34, #70, #130 ) ;
#244 = DIRECTION ( 'NONE',  ( 0.0000000000000000000, 1.000000000000000000, 0.0000000000000000000 ) ) ;
#245 = AXIS2_PLACEMENT_3D ( 'NONE', #74, #20, #41 ) ;
#246 = FACE_OUTER_BOUND ( 'NONE', #176, .T. ) ;
#247 = DIRECTION ( 'NONE',  ( 0.0000000000000000000, 0.0000000000000000000, -1.000000000000000000 ) ) ;
#248 = EDGE_CURVE ( 'NONE', #148, #53, #146, .T. ) ;
#249 = ORIENTED_EDGE ( 'NONE', *, *, #141, .F. ) ;
ENDSEC;
END-ISO-10303-21;
