ISO-10303-21;
HEADER;
FILE_DESCRIPTION (( 'STEP AP203' ),
    '1' );
FILE_NAME ('Metal_bar_V2.STEP',
    '2019-12-12T16:50:42',
    ( '' ),
    ( '' ),
    'SwSTEP 2.0',
    'SolidWorks 2018',
    '' );
FILE_SCHEMA (( 'CONFIG_CONTROL_DESIGN' ));
ENDSEC;

DATA;
#1 = DIRECTION ( 'NONE',  ( 1.000000000000000000, 0.0000000000000000000, 0.0000000000000000000 ) ) ;
#2 = DIRECTION ( 'NONE',  ( 0.0000000000000000000, 0.0000000000000000000, 1.000000000000000000 ) ) ;
#3 = DIRECTION ( 'NONE',  ( 1.000000000000000000, 0.0000000000000000000, -0.0000000000000000000 ) ) ;
#4 = ORIENTED_EDGE ( 'NONE', *, *, #108, .T. ) ;
#5 = CARTESIAN_POINT ( 'NONE',  ( 0.0000000000000000000, 0.0000000000000000000, 0.0000000000000000000 ) ) ;
#6 = CALENDAR_DATE ( 2019, 12, 12 ) ;
#7 = EDGE_LOOP ( 'NONE', ( #67, #18, #68, #4 ) ) ;
#8 = PERSON_AND_ORGANIZATION_ROLE ( 'creator' ) ;
#9 = CC_DESIGN_PERSON_AND_ORGANIZATION_ASSIGNMENT ( #173, #64, ( #143 ) ) ;
#10 = DIRECTION ( 'NONE',  ( 1.000000000000000000, 0.0000000000000000000, 0.0000000000000000000 ) ) ;
#11 = VERTEX_POINT ( 'NONE', #158 ) ;
#12 = ADVANCED_FACE ( 'NONE', ( #117 ), #142, .F. ) ;
#13 = DATE_AND_TIME ( #6, #44 ) ;
#14 = LINE ( 'NONE', #146, #128 ) ;
#15 = ADVANCED_FACE ( 'NONE', ( #170 ), #32, .T. ) ;
#16 = LOCAL_TIME ( 16, 50, 42.00000000000000000, #41 ) ;
#17 = CALENDAR_DATE ( 2019, 12, 12 ) ;
#18 = ORIENTED_EDGE ( 'NONE', *, *, #42, .F. ) ;
#19 = CC_DESIGN_APPROVAL ( #112, ( #143 ) ) ;
#20 = DIRECTION ( 'NONE',  ( 0.0000000000000000000, 0.0000000000000000000, 1.000000000000000000 ) ) ;
#21 = COORDINATED_UNIVERSAL_TIME_OFFSET ( 0, 0, .AHEAD. ) ;
#22 = PERSON_AND_ORGANIZATION ( #135, #152 ) ;
#23 = PRODUCT ( 'Metal_bar_V2', 'Metal_bar_V2', '', ( #55 ) ) ;
#24 = COORDINATED_UNIVERSAL_TIME_OFFSET ( 0, 0, .AHEAD. ) ;
#25 = COORDINATED_UNIVERSAL_TIME_OFFSET ( 0, 0, .AHEAD. ) ;
#26 = AXIS2_PLACEMENT_3D ( 'NONE', #160, #2, #86 ) ;
#27 = CARTESIAN_POINT ( 'NONE',  ( 0.0000000000000000000, 0.0000000000000000000, 50.00000000000000000 ) ) ;
#28 = APPLICATION_PROTOCOL_DEFINITION ( 'international standard', 'config_control_design', 1994, #131 ) ;
#29 =( NAMED_UNIT ( * ) SI_UNIT ( $, .STERADIAN. ) SOLID_ANGLE_UNIT ( ) );
#30 = CIRCLE ( 'NONE', #91, 3.000000000000000444 ) ;
#31 = EDGE_CURVE ( 'NONE', #74, #45, #14, .T. ) ;
#32 = CYLINDRICAL_SURFACE ( 'NONE', #47, 3.000000000000000444 ) ;
#33 = CALENDAR_DATE ( 2019, 12, 12 ) ;
#34 = APPROVAL_PERSON_ORGANIZATION ( #66, #112, #49 ) ;
#35 = DIRECTION ( 'NONE',  ( -1.000000000000000000, 0.0000000000000000000, 0.0000000000000000000 ) ) ;
#36 = APPROVAL ( #127, 'UNSPECIFIED' ) ;
#37 = CARTESIAN_POINT ( 'NONE',  ( 0.0000000000000000000, 0.0000000000000000000, 0.0000000000000000000 ) ) ;
#38 = EDGE_LOOP ( 'NONE', ( #121, #85 ) ) ;
#39 = CARTESIAN_POINT ( 'NONE',  ( 0.0000000000000000000, 0.0000000000000000000, 0.0000000000000000000 ) ) ;
#40 = AXIS2_PLACEMENT_3D ( 'NONE', #39, #51, #10 ) ;
#41 = COORDINATED_UNIVERSAL_TIME_OFFSET ( 0, 0, .AHEAD. ) ;
#42 = EDGE_CURVE ( 'NONE', #74, #43, #110, .T. ) ;
#43 = VERTEX_POINT ( 'NONE', #100 ) ;
#44 = LOCAL_TIME ( 16, 50, 42.00000000000000000, #24 ) ;
#45 = VERTEX_POINT ( 'NONE', #99 ) ;
#46 = PERSON_AND_ORGANIZATION ( #135, #152 ) ;
#47 = AXIS2_PLACEMENT_3D ( 'NONE', #125, #156, #75 ) ;
#48 = DIRECTION ( 'NONE',  ( 1.000000000000000000, 0.0000000000000000000, 0.0000000000000000000 ) ) ;
#49 = APPROVAL_ROLE ( '' ) ;
#50 = EDGE_CURVE ( 'NONE', #43, #74, #30, .T. ) ;
#51 = DIRECTION ( 'NONE',  ( 0.0000000000000000000, 0.0000000000000000000, 1.000000000000000000 ) ) ;
#52 = DATE_AND_TIME ( #17, #153 ) ;
#53 = APPROVAL_STATUS ( 'not_yet_approved' ) ;
#54 = PERSON_AND_ORGANIZATION_ROLE ( 'design_supplier' ) ;
#55 = MECHANICAL_CONTEXT ( 'NONE', #163, 'mechanical' ) ;
#56 = CC_DESIGN_DATE_AND_TIME_ASSIGNMENT ( #119, #103, ( #157 ) ) ;
#57 = ORIENTED_EDGE ( 'NONE', *, *, #71, .F. ) ;
#58 = LOCAL_TIME ( 16, 50, 42.00000000000000000, #21 ) ;
#59 = COORDINATED_UNIVERSAL_TIME_OFFSET ( 0, 0, .AHEAD. ) ;
#60 = DIRECTION ( 'NONE',  ( 0.0000000000000000000, 0.0000000000000000000, 1.000000000000000000 ) ) ;
#61 = PERSON_AND_ORGANIZATION ( #135, #152 ) ;
#62 = CC_DESIGN_DATE_AND_TIME_ASSIGNMENT ( #13, #165, ( #143 ) ) ;
#63 = CARTESIAN_POINT ( 'NONE',  ( -3.000000000000000444, 0.0000000000000000000, 50.00000000000000000 ) ) ;
#64 = PERSON_AND_ORGANIZATION_ROLE ( 'classification_officer' ) ;
#65 = APPROVAL_ROLE ( '' ) ;
#66 = PERSON_AND_ORGANIZATION ( #135, #152 ) ;
#67 = ORIENTED_EDGE ( 'NONE', *, *, #139, .F. ) ;
#68 = ORIENTED_EDGE ( 'NONE', *, *, #31, .T. ) ;
#69 = ADVANCED_FACE ( 'NONE', ( #83 ), #106, .T. ) ;
#70 = DATE_AND_TIME ( #145, #16 ) ;
#71 = EDGE_CURVE ( 'NONE', #11, #45, #102, .T. ) ;
#72 = DIRECTION ( 'NONE',  ( -0.0000000000000000000, -0.0000000000000000000, -1.000000000000000000 ) ) ;
#73 = DIRECTION ( 'NONE',  ( 0.0000000000000000000, 0.0000000000000000000, 1.000000000000000000 ) ) ;
#74 = VERTEX_POINT ( 'NONE', #63 ) ;
#75 = DIRECTION ( 'NONE',  ( -1.000000000000000000, 0.0000000000000000000, 0.0000000000000000000 ) ) ;
#76 =( NAMED_UNIT ( * ) PLANE_ANGLE_UNIT ( ) SI_UNIT ( $, .RADIAN. ) );
#77 = APPROVAL_ROLE ( '' ) ;
#78 = PERSON_AND_ORGANIZATION_ROLE ( 'creator' ) ;
#79 = CC_DESIGN_PERSON_AND_ORGANIZATION_ASSIGNMENT ( #46, #8, ( #154 ) ) ;
#80 = PERSON_AND_ORGANIZATION ( #135, #152 ) ;
#81 = ORIENTED_EDGE ( 'NONE', *, *, #71, .T. ) ;
#82 = AXIS2_PLACEMENT_3D ( 'NONE', #175, #84, #48 ) ;
#83 = FACE_OUTER_BOUND ( 'NONE', #138, .T. ) ;
#84 = DIRECTION ( 'NONE',  ( 0.0000000000000000000, 0.0000000000000000000, 1.000000000000000000 ) ) ;
#85 = ORIENTED_EDGE ( 'NONE', *, *, #50, .T. ) ;
#86 = DIRECTION ( 'NONE',  ( 1.000000000000000000, 0.0000000000000000000, 0.0000000000000000000 ) ) ;
#87 = CARTESIAN_POINT ( 'NONE',  ( 0.0000000000000000000, 0.0000000000000000000, 50.00000000000000000 ) ) ;
#88 = APPROVAL_STATUS ( 'not_yet_approved' ) ;
#89 = DIRECTION ( 'NONE',  ( 1.000000000000000000, 0.0000000000000000000, 0.0000000000000000000 ) ) ;
#90 = FACE_OUTER_BOUND ( 'NONE', #38, .T. ) ;
#91 = AXIS2_PLACEMENT_3D ( 'NONE', #27, #73, #1 ) ;
#92 = PERSON_AND_ORGANIZATION ( #135, #152 ) ;
#93 = ORIENTED_EDGE ( 'NONE', *, *, #139, .T. ) ;
#94 = UNCERTAINTY_MEASURE_WITH_UNIT (LENGTH_MEASURE( 1.000000000000000082E-05 ), #166, 'distance_accuracy_value', 'NONE');
#95 = ORIENTED_EDGE ( 'NONE', *, *, #31, .F. ) ;
#96 = DIRECTION ( 'NONE',  ( -0.0000000000000000000, -0.0000000000000000000, -1.000000000000000000 ) ) ;
#97 = CIRCLE ( 'NONE', #164, 3.000000000000000444 ) ;
#98 = AXIS2_PLACEMENT_3D ( 'NONE', #144, #96, #35 ) ;
#99 = CARTESIAN_POINT ( 'NONE',  ( -3.000000000000000444, 0.0000000000000000000, 0.0000000000000000000 ) ) ;
#100 = CARTESIAN_POINT ( 'NONE',  ( 3.000000000000000444, 3.673940397442060361E-16, 50.00000000000000000 ) ) ;
#101 = CARTESIAN_POINT ( 'NONE',  ( 3.000000000000000444, 3.673940397442060361E-16, 50.00000000000000000 ) ) ;
#102 = CIRCLE ( 'NONE', #26, 3.000000000000000444 ) ;
#103 = DATE_TIME_ROLE ( 'creation_date' ) ;
#104 = CC_DESIGN_APPROVAL ( #36, ( #157 ) ) ;
#105 = CLOSED_SHELL ( 'NONE', ( #69, #15, #136, #12 ) ) ;
#106 = CYLINDRICAL_SURFACE ( 'NONE', #98, 3.000000000000000444 ) ;
#107 = DESIGN_CONTEXT ( 'detailed design', #131, 'design' ) ;
#108 = EDGE_CURVE ( 'NONE', #45, #11, #97, .T. ) ;
#109 = APPROVAL_DATE_TIME ( #52, #133 ) ;
#110 = CIRCLE ( 'NONE', #82, 3.000000000000000444 ) ;
#111 = ADVANCED_BREP_SHAPE_REPRESENTATION ( 'Metal_bar_V2', ( #172, #40 ), #171 ) ;
#112 = APPROVAL ( #88, 'UNSPECIFIED' ) ;
#113 = APPROVAL_PERSON_ORGANIZATION ( #92, #133, #77 ) ;
#114 = PERSON_AND_ORGANIZATION_ROLE ( 'design_owner' ) ;
#115 = APPROVAL_DATE_TIME ( #155, #112 ) ;
#116 = APPLICATION_PROTOCOL_DEFINITION ( 'international standard', 'config_control_design', 1994, #163 ) ;
#117 = FACE_OUTER_BOUND ( 'NONE', #134, .T. ) ;
#118 = PRODUCT_DEFINITION_SHAPE ( 'NONE', 'NONE',  #157 ) ;
#119 = DATE_AND_TIME ( #33, #132 ) ;
#120 = AXIS2_PLACEMENT_3D ( 'NONE', #87, #20, #162 ) ;
#121 = ORIENTED_EDGE ( 'NONE', *, *, #42, .T. ) ;
#122 = CC_DESIGN_PERSON_AND_ORGANIZATION_ASSIGNMENT ( #159, #78, ( #157 ) ) ;
#123 = VECTOR ( 'NONE', #129, 1000.000000000000000 ) ;
#124 = CC_DESIGN_PERSON_AND_ORGANIZATION_ASSIGNMENT ( #22, #114, ( #23 ) ) ;
#125 = CARTESIAN_POINT ( 'NONE',  ( 0.0000000000000000000, 0.0000000000000000000, 50.00000000000000000 ) ) ;
#126 = PLANE ( 'NONE',  #120 ) ;
#127 = APPROVAL_STATUS ( 'not_yet_approved' ) ;
#128 = VECTOR ( 'NONE', #72, 1000.000000000000000 ) ;
#129 = DIRECTION ( 'NONE',  ( -0.0000000000000000000, -0.0000000000000000000, -1.000000000000000000 ) ) ;
#130 = AXIS2_PLACEMENT_3D ( 'NONE', #37, #60, #3 ) ;
#131 = APPLICATION_CONTEXT ( 'configuration controlled 3d designs of mechanical parts and assemblies' ) ;
#132 = LOCAL_TIME ( 16, 50, 42.00000000000000000, #25 ) ;
#133 = APPROVAL ( #53, 'UNSPECIFIED' ) ;
#134 = EDGE_LOOP ( 'NONE', ( #141, #57 ) ) ;
#135 = PERSON ( 'UNSPECIFIED', 'UNSPECIFIED', 'UNSPECIFIED', ('UNSPECIFIED'), ('UNSPECIFIED'), ('UNSPECIFIED') ) ;
#136 = ADVANCED_FACE ( 'NONE', ( #90 ), #126, .T. ) ;
#137 = CC_DESIGN_PERSON_AND_ORGANIZATION_ASSIGNMENT ( #80, #54, ( #154 ) ) ;
#138 = EDGE_LOOP ( 'NONE', ( #161, #93, #81, #95 ) ) ;
#139 = EDGE_CURVE ( 'NONE', #43, #11, #149, .T. ) ;
#140 = APPROVAL_DATE_TIME ( #70, #36 ) ;
#141 = ORIENTED_EDGE ( 'NONE', *, *, #108, .F. ) ;
#142 = PLANE ( 'NONE',  #130 ) ;
#143 = SECURITY_CLASSIFICATION ( '', '', #147 ) ;
#144 = CARTESIAN_POINT ( 'NONE',  ( 0.0000000000000000000, 0.0000000000000000000, 50.00000000000000000 ) ) ;
#145 = CALENDAR_DATE ( 2019, 12, 12 ) ;
#146 = CARTESIAN_POINT ( 'NONE',  ( -3.000000000000000444, 0.0000000000000000000, 50.00000000000000000 ) ) ;
#147 = SECURITY_CLASSIFICATION_LEVEL ( 'unclassified' ) ;
#148 = CALENDAR_DATE ( 2019, 12, 12 ) ;
#149 = LINE ( 'NONE', #101, #123 ) ;
#150 = PRODUCT_RELATED_PRODUCT_CATEGORY ( 'detail', '', ( #23 ) ) ;
#151 = DIRECTION ( 'NONE',  ( 0.0000000000000000000, 0.0000000000000000000, 1.000000000000000000 ) ) ;
#152 = ORGANIZATION ( 'UNSPECIFIED', 'UNSPECIFIED', '' ) ;
#153 = LOCAL_TIME ( 16, 50, 42.00000000000000000, #59 ) ;
#154 = PRODUCT_DEFINITION_FORMATION_WITH_SPECIFIED_SOURCE ( 'ANY', '', #23, .NOT_KNOWN. ) ;
#155 = DATE_AND_TIME ( #148, #58 ) ;
#156 = DIRECTION ( 'NONE',  ( -0.0000000000000000000, -0.0000000000000000000, -1.000000000000000000 ) ) ;
#157 = PRODUCT_DEFINITION ( 'UNKNOWN', '', #154, #107 ) ;
#158 = CARTESIAN_POINT ( 'NONE',  ( 3.000000000000000444, 3.673940397442060361E-16, 0.0000000000000000000 ) ) ;
#159 = PERSON_AND_ORGANIZATION ( #135, #152 ) ;
#160 = CARTESIAN_POINT ( 'NONE',  ( 0.0000000000000000000, 0.0000000000000000000, 0.0000000000000000000 ) ) ;
#161 = ORIENTED_EDGE ( 'NONE', *, *, #50, .F. ) ;
#162 = DIRECTION ( 'NONE',  ( 1.000000000000000000, 0.0000000000000000000, -0.0000000000000000000 ) ) ;
#163 = APPLICATION_CONTEXT ( 'configuration controlled 3d designs of mechanical parts and assemblies' ) ;
#164 = AXIS2_PLACEMENT_3D ( 'NONE', #5, #151, #89 ) ;
#165 = DATE_TIME_ROLE ( 'classification_date' ) ;
#166 =( LENGTH_UNIT ( ) NAMED_UNIT ( * ) SI_UNIT ( .MILLI., .METRE. ) );
#167 = APPROVAL_PERSON_ORGANIZATION ( #61, #36, #65 ) ;
#168 = CC_DESIGN_SECURITY_CLASSIFICATION ( #143, ( #154 ) ) ;
#169 = CC_DESIGN_APPROVAL ( #133, ( #154 ) ) ;
#170 = FACE_OUTER_BOUND ( 'NONE', #7, .T. ) ;
#171 =( GEOMETRIC_REPRESENTATION_CONTEXT ( 3 ) GLOBAL_UNCERTAINTY_ASSIGNED_CONTEXT ( ( #94 ) ) GLOBAL_UNIT_ASSIGNED_CONTEXT ( ( #166, #76, #29 ) ) REPRESENTATION_CONTEXT ( 'NONE', 'WORKASPACE' ) );
#172 = MANIFOLD_SOLID_BREP ( 'Boss-Extrude1', #105 ) ;
#173 = PERSON_AND_ORGANIZATION ( #135, #152 ) ;
#174 = SHAPE_DEFINITION_REPRESENTATION ( #118, #111 ) ;
#175 = CARTESIAN_POINT ( 'NONE',  ( 0.0000000000000000000, 0.0000000000000000000, 50.00000000000000000 ) ) ;
ENDSEC;
END-ISO-10303-21;
