ISO-10303-21;
HEADER;
FILE_DESCRIPTION (( 'STEP AP203' ),
    '1' );
FILE_NAME ('Micrometer inner2.STEP',
    '2019-12-12T16:51:52',
    ( '' ),
    ( '' ),
    'SwSTEP 2.0',
    'SolidWorks 2018',
    '' );
FILE_SCHEMA (( 'CONFIG_CONTROL_DESIGN' ));
ENDSEC;

DATA;
#1 = CC_DESIGN_PERSON_AND_ORGANIZATION_ASSIGNMENT ( #286, #215, ( #94 ) ) ;
#2 = ADVANCED_FACE ( 'NONE', ( #357, #7 ), #373, .T. ) ;
#3 = VERTEX_POINT ( 'NONE', #241 ) ;
#4 = APPROVAL_DATE_TIME ( #222, #285 ) ;
#5 = ADVANCED_FACE ( 'NONE', ( #344 ), #169, .T. ) ;
#6 = ORIENTED_EDGE ( 'NONE', *, *, #42, .T. ) ;
#7 = FACE_OUTER_BOUND ( 'NONE', #46, .T. ) ;
#8 = DIRECTION ( 'NONE',  ( 0.0000000000000000000, 0.0000000000000000000, 1.000000000000000000 ) ) ;
#9 = EDGE_CURVE ( 'NONE', #329, #347, #428, .T. ) ;
#10 = AXIS2_PLACEMENT_3D ( 'NONE', #149, #24, #22 ) ;
#11 = PERSON_AND_ORGANIZATION ( #154, #304 ) ;
#12 = CARTESIAN_POINT ( 'NONE',  ( 2.500000000000000000, 0.0000000000000000000, 28.40000000000000213 ) ) ;
#13 = DIRECTION ( 'NONE',  ( 0.0000000000000000000, 0.0000000000000000000, 1.000000000000000000 ) ) ;
#14 = FACE_OUTER_BOUND ( 'NONE', #431, .T. ) ;
#15 = LINE ( 'NONE', #393, #133 ) ;
#16 = CARTESIAN_POINT ( 'NONE',  ( 0.0000000000000000000, 0.0000000000000000000, 0.0000000000000000000 ) ) ;
#17 = PERSON_AND_ORGANIZATION_ROLE ( 'creator' ) ;
#18 = DIRECTION ( 'NONE',  ( -1.000000000000000000, 0.0000000000000000000, 0.0000000000000000000 ) ) ;
#19 = AXIS2_PLACEMENT_3D ( 'NONE', #410, #172, #307 ) ;
#20 = FACE_OUTER_BOUND ( 'NONE', #325, .T. ) ;
#21 = EDGE_LOOP ( 'NONE', ( #312, #78, #71, #40 ) ) ;
#22 = DIRECTION ( 'NONE',  ( -1.000000000000000000, -1.224646799147351482E-16, 0.0000000000000000000 ) ) ;
#23 = DATE_TIME_ROLE ( 'creation_date' ) ;
#24 = DIRECTION ( 'NONE',  ( -1.224646799147353207E-16, 1.000000000000000000, 0.0000000000000000000 ) ) ;
#25 = COORDINATED_UNIVERSAL_TIME_OFFSET ( 0, 0, .AHEAD. ) ;
#26 = CARTESIAN_POINT ( 'NONE',  ( 0.0000000000000000000, 0.0000000000000000000, 0.0000000000000000000 ) ) ;
#27 = CIRCLE ( 'NONE', #62, 2.500000000000000000 ) ;
#28 = DIRECTION ( 'NONE',  ( 0.0000000000000000000, 0.0000000000000000000, -1.000000000000000000 ) ) ;
#29 = ORIENTED_EDGE ( 'NONE', *, *, #186, .T. ) ;
#30 = CARTESIAN_POINT ( 'NONE',  ( 2.500000000000000000, 0.0000000000000000000, -1.599999999999997202 ) ) ;
#31 = DATE_AND_TIME ( #261, #420 ) ;
#32 = DIRECTION ( 'NONE',  ( -1.000000000000000000, 0.0000000000000000000, 0.0000000000000000000 ) ) ;
#33 = ORIENTED_EDGE ( 'NONE', *, *, #359, .T. ) ;
#34 = DIRECTION ( 'NONE',  ( -1.000000000000000000, 0.0000000000000000000, 0.0000000000000000000 ) ) ;
#35 = VERTEX_POINT ( 'NONE', #340 ) ;
#36 = DATE_AND_TIME ( #80, #44 ) ;
#37 = EDGE_CURVE ( 'NONE', #161, #239, #424, .T. ) ;
#38 = EDGE_CURVE ( 'NONE', #57, #349, #178, .T. ) ;
#39 = CIRCLE ( 'NONE', #391, 4.950000000000000178 ) ;
#40 = ORIENTED_EDGE ( 'NONE', *, *, #120, .F. ) ;
#41 = VERTEX_POINT ( 'NONE', #12 ) ;
#42 = EDGE_CURVE ( 'NONE', #41, #87, #226, .T. ) ;
#43 = CALENDAR_DATE ( 2019, 12, 12 ) ;
#44 = LOCAL_TIME ( 16, 51, 52.00000000000000000, #219 ) ;
#45 = DIRECTION ( 'NONE',  ( -0.0000000000000000000, -0.0000000000000000000, -1.000000000000000000 ) ) ;
#46 = EDGE_LOOP ( 'NONE', ( #170, #292 ) ) ;
#47 = CARTESIAN_POINT ( 'NONE',  ( 0.0000000000000000000, 0.0000000000000000000, 28.40000000000000213 ) ) ;
#48 = PRODUCT_DEFINITION ( 'UNKNOWN', '', #221, #89 ) ;
#49 = CARTESIAN_POINT ( 'NONE',  ( 5.250000000000000000, 6.429395695523604153E-16, 25.00000000000000000 ) ) ;
#50 = APPLICATION_PROTOCOL_DEFINITION ( 'international standard', 'config_control_design', 1994, #372 ) ;
#51 = LINE ( 'NONE', #30, #216 ) ;
#52 = CARTESIAN_POINT ( 'NONE',  ( 0.0000000000000000000, 0.0000000000000000000, 25.00000000000000000 ) ) ;
#53 = ORIENTED_EDGE ( 'NONE', *, *, #227, .F. ) ;
#54 = DIRECTION ( 'NONE',  ( 1.000000000000000000, 0.0000000000000000000, 0.0000000000000000000 ) ) ;
#55 = EDGE_CURVE ( 'NONE', #134, #380, #302, .T. ) ;
#56 = CARTESIAN_POINT ( 'NONE',  ( 0.0000000000000000000, 0.0000000000000000000, 9.500000000000000000 ) ) ;
#57 = VERTEX_POINT ( 'NONE', #122 ) ;
#58 = CARTESIAN_POINT ( 'NONE',  ( 0.0000000000000000000, 0.0000000000000000000, 28.40000000000000213 ) ) ;
#59 = CIRCLE ( 'NONE', #204, 2.500000000000000000 ) ;
#60 = LINE ( 'NONE', #396, #193 ) ;
#61 = VERTEX_POINT ( 'NONE', #257 ) ;
#62 = AXIS2_PLACEMENT_3D ( 'NONE', #210, #110, #375 ) ;
#63 = CIRCLE ( 'NONE', #238, 5.250000000000000000 ) ;
#64 = ORIENTED_EDGE ( 'NONE', *, *, #273, .T. ) ;
#65 = CC_DESIGN_APPROVAL ( #195, ( #48 ) ) ;
#66 = CIRCLE ( 'NONE', #126, 5.250000000000000000 ) ;
#67 = TOROIDAL_SURFACE ( 'NONE', #267, 5.450000000000000178, 0.5000000000000000000 ) ;
#68 = ADVANCED_FACE ( 'NONE', ( #20 ), #331, .T. ) ;
#69 = PERSON_AND_ORGANIZATION ( #154, #304 ) ;
#70 = DIRECTION ( 'NONE',  ( 1.000000000000000000, 0.0000000000000000000, 0.0000000000000000000 ) ) ;
#71 = ORIENTED_EDGE ( 'NONE', *, *, #121, .F. ) ;
#72 = EDGE_CURVE ( 'NONE', #259, #3, #248, .T. ) ;
#73 = EDGE_LOOP ( 'NONE', ( #240, #95 ) ) ;
#74 = AXIS2_PLACEMENT_3D ( 'NONE', #345, #140, #406 ) ;
#75 = CARTESIAN_POINT ( 'NONE',  ( -5.250000000000000000, 0.0000000000000000000, 9.500000000000000000 ) ) ;
#76 =( NAMED_UNIT ( * ) SI_UNIT ( $, .STERADIAN. ) SOLID_ANGLE_UNIT ( ) );
#77 = PLANE ( 'NONE',  #429 ) ;
#78 = ORIENTED_EDGE ( 'NONE', *, *, #388, .T. ) ;
#79 = DIRECTION ( 'NONE',  ( 0.0000000000000000000, 0.0000000000000000000, -1.000000000000000000 ) ) ;
#80 = CALENDAR_DATE ( 2019, 12, 12 ) ;
#81 = PERSON_AND_ORGANIZATION_ROLE ( 'creator' ) ;
#82 = DIRECTION ( 'NONE',  ( -0.0000000000000000000, -0.0000000000000000000, -1.000000000000000000 ) ) ;
#83 = AXIS2_PLACEMENT_3D ( 'NONE', #376, #338, #342 ) ;
#84 = PERSON_AND_ORGANIZATION_ROLE ( 'design_supplier' ) ;
#85 = FACE_OUTER_BOUND ( 'NONE', #263, .T. ) ;
#86 = DIRECTION ( 'NONE',  ( -0.0000000000000000000, -0.0000000000000000000, 1.000000000000000000 ) ) ;
#87 = VERTEX_POINT ( 'NONE', #353 ) ;
#88 = PRODUCT_RELATED_PRODUCT_CATEGORY ( 'detail', '', ( #94 ) ) ;
#89 = DESIGN_CONTEXT ( 'detailed design', #372, 'design' ) ;
#90 = DIRECTION ( 'NONE',  ( 0.0000000000000000000, 0.0000000000000000000, -1.000000000000000000 ) ) ;
#91 = CC_DESIGN_DATE_AND_TIME_ASSIGNMENT ( #317, #23, ( #48 ) ) ;
#92 = CIRCLE ( 'NONE', #332, 0.5000000000000004441 ) ;
#93 = DIRECTION ( 'NONE',  ( 0.0000000000000000000, -1.000000000000000000, 0.0000000000000000000 ) ) ;
#94 = PRODUCT ( 'Micrometer inner2', 'Micrometer inner2', '', ( #108 ) ) ;
#95 = ORIENTED_EDGE ( 'NONE', *, *, #381, .F. ) ;
#96 = ORIENTED_EDGE ( 'NONE', *, *, #231, .F. ) ;
#97 = ADVANCED_FACE ( 'NONE', ( #85 ), #407, .F. ) ;
#98 = UNCERTAINTY_MEASURE_WITH_UNIT (LENGTH_MEASURE( 1.000000000000000082E-05 ), #414, 'distance_accuracy_value', 'NONE');
#99 = LINE ( 'NONE', #337, #387 ) ;
#100 = FACE_OUTER_BOUND ( 'NONE', #382, .T. ) ;
#101 = FACE_BOUND ( 'NONE', #266, .T. ) ;
#102 = AXIS2_PLACEMENT_3D ( 'NONE', #262, #397, #298 ) ;
#103 = ORIENTED_EDGE ( 'NONE', *, *, #186, .F. ) ;
#104 = APPROVAL_ROLE ( '' ) ;
#105 = COORDINATED_UNIVERSAL_TIME_OFFSET ( 0, 0, .AHEAD. ) ;
#106 = APPROVAL_DATE_TIME ( #127, #195 ) ;
#107 = DIRECTION ( 'NONE',  ( 1.000000000000000000, 0.0000000000000000000, 0.0000000000000000000 ) ) ;
#108 = MECHANICAL_CONTEXT ( 'NONE', #168, 'mechanical' ) ;
#109 = CARTESIAN_POINT ( 'NONE',  ( 0.0000000000000000000, 0.0000000000000000000, 25.00000000000000000 ) ) ;
#110 = DIRECTION ( 'NONE',  ( 0.0000000000000000000, 0.0000000000000000000, 1.000000000000000000 ) ) ;
#111 = ORIENTED_EDGE ( 'NONE', *, *, #359, .F. ) ;
#112 = AXIS2_PLACEMENT_3D ( 'NONE', #220, #28, #283 ) ;
#113 = DIRECTION ( 'NONE',  ( 0.0000000000000000000, 0.0000000000000000000, 1.000000000000000000 ) ) ;
#114 = DIRECTION ( 'NONE',  ( -0.0000000000000000000, -0.0000000000000000000, 1.000000000000000000 ) ) ;
#115 = DIRECTION ( 'NONE',  ( -1.000000000000000000, 0.0000000000000000000, 0.0000000000000000000 ) ) ;
#116 = ORIENTED_EDGE ( 'NONE', *, *, #423, .T. ) ;
#117 = DIRECTION ( 'NONE',  ( -0.0000000000000000000, -0.0000000000000000000, -1.000000000000000000 ) ) ;
#118 = LOCAL_TIME ( 16, 51, 52.00000000000000000, #25 ) ;
#119 = DIRECTION ( 'NONE',  ( 1.000000000000000000, 0.0000000000000000000, 0.0000000000000000000 ) ) ;
#120 = EDGE_CURVE ( 'NONE', #61, #349, #417, .T. ) ;
#121 = EDGE_CURVE ( 'NONE', #349, #57, #63, .T. ) ;
#122 = CARTESIAN_POINT ( 'NONE',  ( 5.250000000000000000, 6.429395695523604153E-16, 9.500000000000000000 ) ) ;
#123 = ORIENTED_EDGE ( 'NONE', *, *, #339, .F. ) ;
#124 = CARTESIAN_POINT ( 'NONE',  ( 0.0000000000000000000, 0.0000000000000000000, 9.500000000000000000 ) ) ;
#125 = ORIENTED_EDGE ( 'NONE', *, *, #138, .T. ) ;
#126 = AXIS2_PLACEMENT_3D ( 'NONE', #109, #13, #276 ) ;
#127 = DATE_AND_TIME ( #371, #199 ) ;
#128 = PERSON_AND_ORGANIZATION ( #154, #304 ) ;
#129 = ADVANCED_FACE ( 'NONE', ( #277 ), #191, .F. ) ;
#130 = EDGE_LOOP ( 'NONE', ( #103, #271, #163, #123 ) ) ;
#131 = AXIS2_PLACEMENT_3D ( 'NONE', #341, #141, #412 ) ;
#132 = ADVANCED_FACE ( 'NONE', ( #100 ), #67, .F. ) ;
#133 = VECTOR ( 'NONE', #196, 1000.000000000000000 ) ;
#134 = VERTEX_POINT ( 'NONE', #386 ) ;
#135 = ADVANCED_FACE ( 'NONE', ( #324 ), #158, .T. ) ;
#136 = APPROVAL_PERSON_ORGANIZATION ( #165, #160, #315 ) ;
#137 = EDGE_CURVE ( 'NONE', #329, #253, #15, .T. ) ;
#138 = EDGE_CURVE ( 'NONE', #253, #35, #282, .T. ) ;
#139 = EDGE_LOOP ( 'NONE', ( #403, #401, #254, #361 ) ) ;
#140 = DIRECTION ( 'NONE',  ( -0.0000000000000000000, -0.0000000000000000000, -1.000000000000000000 ) ) ;
#141 = DIRECTION ( 'NONE',  ( 0.0000000000000000000, 0.0000000000000000000, -1.000000000000000000 ) ) ;
#142 = CARTESIAN_POINT ( 'NONE',  ( 0.0000000000000000000, 0.0000000000000000000, 25.45825756949558283 ) ) ;
#143 = CARTESIAN_POINT ( 'NONE',  ( 0.0000000000000000000, 0.0000000000000000000, 0.0000000000000000000 ) ) ;
#144 = APPLICATION_PROTOCOL_DEFINITION ( 'international standard', 'config_control_design', 1994, #168 ) ;
#145 = VECTOR ( 'NONE', #114, 1000.000000000000000 ) ;
#146 = CYLINDRICAL_SURFACE ( 'NONE', #269, 4.525000000000000355 ) ;
#147 = CARTESIAN_POINT ( 'NONE',  ( 0.0000000000000000000, 0.0000000000000000000, -1.599999999999997202 ) ) ;
#148 = AXIS2_PLACEMENT_3D ( 'NONE', #274, #377, #34 ) ;
#149 = CARTESIAN_POINT ( 'NONE',  ( 5.450000000000000178, 6.674325055353075238E-16, 25.45825756949558283 ) ) ;
#150 = ORIENTED_EDGE ( 'NONE', *, *, #273, .F. ) ;
#151 = ORIENTED_EDGE ( 'NONE', *, *, #37, .T. ) ;
#152 = DIRECTION ( 'NONE',  ( 1.000000000000000000, 0.0000000000000000000, 0.0000000000000000000 ) ) ;
#153 = DIRECTION ( 'NONE',  ( -0.0000000000000000000, -0.0000000000000000000, -1.000000000000000000 ) ) ;
#154 = PERSON ( 'UNSPECIFIED', 'UNSPECIFIED', 'UNSPECIFIED', ('UNSPECIFIED'), ('UNSPECIFIED'), ('UNSPECIFIED') ) ;
#155 = CARTESIAN_POINT ( 'NONE',  ( 0.0000000000000000000, 0.0000000000000000000, 25.00000000000000000 ) ) ;
#156 = CIRCLE ( 'NONE', #131, 4.525000000000000355 ) ;
#157 = DIRECTION ( 'NONE',  ( -1.000000000000000000, 0.0000000000000000000, 0.0000000000000000000 ) ) ;
#158 = CYLINDRICAL_SURFACE ( 'NONE', #256, 5.250000000000000000 ) ;
#159 = SECURITY_CLASSIFICATION ( '', '', #250 ) ;
#160 = APPROVAL ( #421, 'UNSPECIFIED' ) ;
#161 = VERTEX_POINT ( 'NONE', #355 ) ;
#162 = AXIS2_PLACEMENT_3D ( 'NONE', #390, #225, #54 ) ;
#163 = ORIENTED_EDGE ( 'NONE', *, *, #137, .T. ) ;
#164 = DIRECTION ( 'NONE',  ( 0.0000000000000000000, 0.0000000000000000000, -1.000000000000000000 ) ) ;
#165 = PERSON_AND_ORGANIZATION ( #154, #304 ) ;
#166 = DIRECTION ( 'NONE',  ( 0.0000000000000000000, 0.0000000000000000000, 1.000000000000000000 ) ) ;
#167 = AXIS2_PLACEMENT_3D ( 'NONE', #16, #306, #246 ) ;
#168 = APPLICATION_CONTEXT ( 'configuration controlled 3d designs of mechanical parts and assemblies' ) ;
#169 = CYLINDRICAL_SURFACE ( 'NONE', #295, 5.250000000000000000 ) ;
#170 = ORIENTED_EDGE ( 'NONE', *, *, #121, .T. ) ;
#171 = DIRECTION ( 'NONE',  ( -0.0000000000000000000, -0.0000000000000000000, -1.000000000000000000 ) ) ;
#172 = DIRECTION ( 'NONE',  ( 0.0000000000000000000, 0.0000000000000000000, -1.000000000000000000 ) ) ;
#173 = CARTESIAN_POINT ( 'NONE',  ( 5.250000000000000000, 6.429395695523604153E-16, 25.00000000000000000 ) ) ;
#174 = DIRECTION ( 'NONE',  ( 1.000000000000000000, 0.0000000000000000000, -0.0000000000000000000 ) ) ;
#175 = LINE ( 'NONE', #244, #145 ) ;
#176 = DIRECTION ( 'NONE',  ( 0.0000000000000000000, 0.0000000000000000000, 1.000000000000000000 ) ) ;
#177 = CC_DESIGN_PERSON_AND_ORGANIZATION_ASSIGNMENT ( #230, #81, ( #221 ) ) ;
#178 = CIRCLE ( 'NONE', #112, 5.250000000000000000 ) ;
#179 = CC_DESIGN_PERSON_AND_ORGANIZATION_ASSIGNMENT ( #69, #288, ( #159 ) ) ;
#180 = ADVANCED_BREP_SHAPE_REPRESENTATION ( 'Micrometer inner2', ( #197, #167 ), #322 ) ;
#181 = DIRECTION ( 'NONE',  ( -1.000000000000000000, 0.0000000000000000000, -0.0000000000000000000 ) ) ;
#182 = DATE_TIME_ROLE ( 'classification_date' ) ;
#183 = ORIENTED_EDGE ( 'NONE', *, *, #425, .T. ) ;
#184 = ORIENTED_EDGE ( 'NONE', *, *, #321, .F. ) ;
#185 = DIRECTION ( 'NONE',  ( 0.0000000000000000000, 0.0000000000000000000, 1.000000000000000000 ) ) ;
#186 = EDGE_CURVE ( 'NONE', #347, #35, #60, .T. ) ;
#187 = DIRECTION ( 'NONE',  ( 1.000000000000000000, 0.0000000000000000000, 0.0000000000000000000 ) ) ;
#188 = AXIS2_PLACEMENT_3D ( 'NONE', #26, #319, #187 ) ;
#189 = DIRECTION ( 'NONE',  ( -1.000000000000000000, 0.0000000000000000000, 0.0000000000000000000 ) ) ;
#190 = CIRCLE ( 'NONE', #83, 4.950000000000000178 ) ;
#191 = CYLINDRICAL_SURFACE ( 'NONE', #211, 2.500000000000000000 ) ;
#192 = DIRECTION ( 'NONE',  ( -0.0000000000000000000, -0.0000000000000000000, 1.000000000000000000 ) ) ;
#193 = VECTOR ( 'NONE', #229, 1000.000000000000000 ) ;
#194 = ORIENTED_EDGE ( 'NONE', *, *, #321, .T. ) ;
#195 = APPROVAL ( #280, 'UNSPECIFIED' ) ;
#196 = DIRECTION ( 'NONE',  ( -0.0000000000000000000, -0.0000000000000000000, -1.000000000000000000 ) ) ;
#197 = MANIFOLD_SOLID_BREP ( 'Cut-Extrude2', #202 ) ;
#198 = LOCAL_TIME ( 16, 51, 52.00000000000000000, #384 ) ;
#199 = LOCAL_TIME ( 16, 51, 52.00000000000000000, #346 ) ;
#200 = CARTESIAN_POINT ( 'NONE',  ( -4.525000000000000355, 0.0000000000000000000, 0.0000000000000000000 ) ) ;
#201 = CIRCLE ( 'NONE', #19, 4.525000000000000355 ) ;
#202 = CLOSED_SHELL ( 'NONE', ( #206, #97, #364, #402, #135, #5, #268, #68, #362, #132, #129, #2, #233 ) ) ;
#203 = CARTESIAN_POINT ( 'NONE',  ( 4.525000000000000355, 5.541526766141773934E-16, 9.500000000000000000 ) ) ;
#204 = AXIS2_PLACEMENT_3D ( 'NONE', #47, #113, #70 ) ;
#205 = AXIS2_PLACEMENT_3D ( 'NONE', #243, #279, #107 ) ;
#206 = ADVANCED_FACE ( 'NONE', ( #394 ), #146, .T. ) ;
#207 = FACE_OUTER_BOUND ( 'NONE', #270, .T. ) ;
#208 = DIRECTION ( 'NONE',  ( 0.0000000000000000000, 0.0000000000000000000, 1.000000000000000000 ) ) ;
#209 = CARTESIAN_POINT ( 'NONE',  ( 0.0000000000000000000, 0.0000000000000000000, 28.40000000000000213 ) ) ;
#210 = CARTESIAN_POINT ( 'NONE',  ( 0.0000000000000000000, 0.0000000000000000000, 0.0000000000000000000 ) ) ;
#211 = AXIS2_PLACEMENT_3D ( 'NONE', #293, #383, #119 ) ;
#212 = CARTESIAN_POINT ( 'NONE',  ( -2.500000000000000000, 3.061616997868383141E-16, 0.0000000000000000000 ) ) ;
#213 = VECTOR ( 'NONE', #171, 1000.000000000000000 ) ;
#214 = EDGE_LOOP ( 'NONE', ( #408, #29, #224, #313 ) ) ;
#215 = PERSON_AND_ORGANIZATION_ROLE ( 'design_owner' ) ;
#216 = VECTOR ( 'NONE', #192, 1000.000000000000000 ) ;
#217 = ORIENTED_EDGE ( 'NONE', *, *, #37, .F. ) ;
#218 = DIRECTION ( 'NONE',  ( -1.000000000000000000, 0.0000000000000000000, 0.0000000000000000000 ) ) ;
#219 = COORDINATED_UNIVERSAL_TIME_OFFSET ( 0, 0, .AHEAD. ) ;
#220 = CARTESIAN_POINT ( 'NONE',  ( 0.0000000000000000000, 0.0000000000000000000, 9.500000000000000000 ) ) ;
#221 = PRODUCT_DEFINITION_FORMATION_WITH_SPECIFIED_SOURCE ( 'ANY', '', #94, .NOT_KNOWN. ) ;
#222 = DATE_AND_TIME ( #43, #198 ) ;
#223 = DIRECTION ( 'NONE',  ( 1.000000000000000000, 0.0000000000000000000, 0.0000000000000000000 ) ) ;
#224 = ORIENTED_EDGE ( 'NONE', *, *, #138, .F. ) ;
#225 = DIRECTION ( 'NONE',  ( 0.0000000000000000000, 0.0000000000000000000, 1.000000000000000000 ) ) ;
#226 = CIRCLE ( 'NONE', #314, 2.500000000000000000 ) ;
#227 = EDGE_CURVE ( 'NONE', #134, #41, #51, .T. ) ;
#228 = ORIENTED_EDGE ( 'NONE', *, *, #72, .F. ) ;
#229 = DIRECTION ( 'NONE',  ( -0.0000000000000000000, -0.0000000000000000000, -1.000000000000000000 ) ) ;
#230 = PERSON_AND_ORGANIZATION ( #154, #304 ) ;
#231 = EDGE_CURVE ( 'NONE', #61, #389, #92, .T. ) ;
#232 = ORIENTED_EDGE ( 'NONE', *, *, #368, .F. ) ;
#233 = ADVANCED_FACE ( 'NONE', ( #296 ), #343, .T. ) ;
#234 = ORIENTED_EDGE ( 'NONE', *, *, #231, .T. ) ;
#235 = ORIENTED_EDGE ( 'NONE', *, *, #227, .T. ) ;
#236 = APPROVAL_PERSON_ORGANIZATION ( #11, #195, #104 ) ;
#237 = CARTESIAN_POINT ( 'NONE',  ( 4.950000000000000178, 6.062001655779398511E-16, 28.40000000000000213 ) ) ;
#238 = AXIS2_PLACEMENT_3D ( 'NONE', #56, #90, #287 ) ;
#239 = VERTEX_POINT ( 'NONE', #379 ) ;
#240 = ORIENTED_EDGE ( 'NONE', *, *, #9, .F. ) ;
#241 = CARTESIAN_POINT ( 'NONE',  ( 4.950000000000000178, 6.062001655779398511E-16, 25.45825756949558283 ) ) ;
#242 = CARTESIAN_POINT ( 'NONE',  ( -4.950000000000000178, 0.0000000000000000000, 25.45825756949558283 ) ) ;
#243 = CARTESIAN_POINT ( 'NONE',  ( 0.0000000000000000000, 0.0000000000000000000, 25.00000000000000000 ) ) ;
#244 = CARTESIAN_POINT ( 'NONE',  ( -2.500000000000000000, 3.061616997868383141E-16, -1.599999999999997202 ) ) ;
#245 = CC_DESIGN_PERSON_AND_ORGANIZATION_ASSIGNMENT ( #333, #84, ( #221 ) ) ;
#246 = DIRECTION ( 'NONE',  ( 1.000000000000000000, 0.0000000000000000000, 0.0000000000000000000 ) ) ;
#247 = LINE ( 'NONE', #237, #213 ) ;
#248 = CIRCLE ( 'NONE', #10, 0.5000000000000004441 ) ;
#249 = AXIS2_PLACEMENT_3D ( 'NONE', #58, #82, #18 ) ;
#250 = SECURITY_CLASSIFICATION_LEVEL ( 'unclassified' ) ;
#251 = SHAPE_DEFINITION_REPRESENTATION ( #392, #180 ) ;
#252 = CARTESIAN_POINT ( 'NONE',  ( 0.0000000000000000000, 0.0000000000000000000, 9.500000000000000000 ) ) ;
#253 = VERTEX_POINT ( 'NONE', #200 ) ;
#254 = ORIENTED_EDGE ( 'NONE', *, *, #120, .T. ) ;
#255 = DIRECTION ( 'NONE',  ( -0.0000000000000000000, -0.0000000000000000000, -1.000000000000000000 ) ) ;
#256 = AXIS2_PLACEMENT_3D ( 'NONE', #155, #419, #218 ) ;
#257 = CARTESIAN_POINT ( 'NONE',  ( -5.250000000000000000, 0.0000000000000000000, 25.00000000000000000 ) ) ;
#258 = FACE_OUTER_BOUND ( 'NONE', #284, .T. ) ;
#259 = VERTEX_POINT ( 'NONE', #173 ) ;
#260 = CARTESIAN_POINT ( 'NONE',  ( -5.450000000000000178, 0.0000000000000000000, 25.45825756949558283 ) ) ;
#261 = CALENDAR_DATE ( 2019, 12, 12 ) ;
#262 = CARTESIAN_POINT ( 'NONE',  ( 0.0000000000000000000, 0.0000000000000000000, 9.500000000000000000 ) ) ;
#263 = EDGE_LOOP ( 'NONE', ( #430, #358, #404, #53 ) ) ;
#264 = DIRECTION ( 'NONE',  ( 0.0000000000000000000, 0.0000000000000000000, -1.000000000000000000 ) ) ;
#265 = ORIENTED_EDGE ( 'NONE', *, *, #339, .T. ) ;
#266 = EDGE_LOOP ( 'NONE', ( #320, #116 ) ) ;
#267 = AXIS2_PLACEMENT_3D ( 'NONE', #351, #153, #189 ) ;
#268 = ADVANCED_FACE ( 'NONE', ( #101, #207 ), #369, .F. ) ;
#269 = AXIS2_PLACEMENT_3D ( 'NONE', #124, #117, #157 ) ;
#270 = EDGE_LOOP ( 'NONE', ( #125, #265 ) ) ;
#271 = ORIENTED_EDGE ( 'NONE', *, *, #381, .T. ) ;
#272 = PERSON_AND_ORGANIZATION ( #154, #304 ) ;
#273 = EDGE_CURVE ( 'NONE', #239, #389, #99, .T. ) ;
#274 = CARTESIAN_POINT ( 'NONE',  ( 0.0000000000000000000, 0.0000000000000000000, 25.45825756949558283 ) ) ;
#275 = AXIS2_PLACEMENT_3D ( 'NONE', #142, #8, #336 ) ;
#276 = DIRECTION ( 'NONE',  ( 1.000000000000000000, 0.0000000000000000000, 0.0000000000000000000 ) ) ;
#277 = FACE_OUTER_BOUND ( 'NONE', #335, .T. ) ;
#278 = DIRECTION ( 'NONE',  ( -0.0000000000000000000, -0.0000000000000000000, -1.000000000000000000 ) ) ;
#279 = DIRECTION ( 'NONE',  ( 0.0000000000000000000, 0.0000000000000000000, 1.000000000000000000 ) ) ;
#280 = APPROVAL_STATUS ( 'not_yet_approved' ) ;
#281 = CARTESIAN_POINT ( 'NONE',  ( 0.0000000000000000000, 0.0000000000000000000, 9.500000000000000000 ) ) ;
#282 = CIRCLE ( 'NONE', #413, 4.525000000000000355 ) ;
#283 = DIRECTION ( 'NONE',  ( -1.000000000000000000, 0.0000000000000000000, 0.0000000000000000000 ) ) ;
#284 = EDGE_LOOP ( 'NONE', ( #217, #194, #426, #150 ) ) ;
#285 = APPROVAL ( #378, 'UNSPECIFIED' ) ;
#286 = PERSON_AND_ORGANIZATION ( #154, #304 ) ;
#287 = DIRECTION ( 'NONE',  ( -1.000000000000000000, 0.0000000000000000000, 0.0000000000000000000 ) ) ;
#288 = PERSON_AND_ORGANIZATION_ROLE ( 'classification_officer' ) ;
#289 = CARTESIAN_POINT ( 'NONE',  ( -5.250000000000000000, 0.0000000000000000000, 25.00000000000000000 ) ) ;
#290 = CC_DESIGN_DATE_AND_TIME_ASSIGNMENT ( #31, #182, ( #159 ) ) ;
#291 = CIRCLE ( 'NONE', #275, 4.950000000000000178 ) ;
#292 = ORIENTED_EDGE ( 'NONE', *, *, #38, .T. ) ;
#293 = CARTESIAN_POINT ( 'NONE',  ( 0.0000000000000000000, 0.0000000000000000000, -1.599999999999997202 ) ) ;
#294 = CC_DESIGN_APPROVAL ( #160, ( #159 ) ) ;
#295 = AXIS2_PLACEMENT_3D ( 'NONE', #52, #309, #115 ) ;
#296 = FACE_OUTER_BOUND ( 'NONE', #130, .T. ) ;
#297 = ORIENTED_EDGE ( 'NONE', *, *, #425, .F. ) ;
#298 = DIRECTION ( 'NONE',  ( -1.000000000000000000, 0.0000000000000000000, 0.0000000000000000000 ) ) ;
#299 = EDGE_CURVE ( 'NONE', #259, #61, #330, .T. ) ;
#300 = AXIS2_PLACEMENT_3D ( 'NONE', #281, #79, #181 ) ;
#301 = ORIENTED_EDGE ( 'NONE', *, *, #348, .T. ) ;
#302 = CIRCLE ( 'NONE', #188, 2.500000000000000000 ) ;
#303 = ORIENTED_EDGE ( 'NONE', *, *, #411, .F. ) ;
#304 = ORGANIZATION ( 'UNSPECIFIED', 'UNSPECIFIED', '' ) ;
#305 = AXIS2_PLACEMENT_3D ( 'NONE', #252, #427, #316 ) ;
#306 = DIRECTION ( 'NONE',  ( 0.0000000000000000000, 0.0000000000000000000, 1.000000000000000000 ) ) ;
#307 = DIRECTION ( 'NONE',  ( -1.000000000000000000, 0.0000000000000000000, 0.0000000000000000000 ) ) ;
#308 = ORIENTED_EDGE ( 'NONE', *, *, #42, .F. ) ;
#309 = DIRECTION ( 'NONE',  ( -0.0000000000000000000, -0.0000000000000000000, -1.000000000000000000 ) ) ;
#310 = CARTESIAN_POINT ( 'NONE',  ( 0.0000000000000000000, 0.0000000000000000000, 28.40000000000000213 ) ) ;
#311 = CC_DESIGN_SECURITY_CLASSIFICATION ( #159, ( #221 ) ) ;
#312 = ORIENTED_EDGE ( 'NONE', *, *, #299, .F. ) ;
#313 = ORIENTED_EDGE ( 'NONE', *, *, #137, .F. ) ;
#314 = AXIS2_PLACEMENT_3D ( 'NONE', #422, #185, #223 ) ;
#315 = APPROVAL_ROLE ( '' ) ;
#316 = DIRECTION ( 'NONE',  ( -1.000000000000000000, 0.0000000000000000000, 0.0000000000000000000 ) ) ;
#317 = DATE_AND_TIME ( #356, #118 ) ;
#318 = FACE_BOUND ( 'NONE', #365, .T. ) ;
#319 = DIRECTION ( 'NONE',  ( 0.0000000000000000000, 0.0000000000000000000, 1.000000000000000000 ) ) ;
#320 = ORIENTED_EDGE ( 'NONE', *, *, #55, .T. ) ;
#321 = EDGE_CURVE ( 'NONE', #161, #3, #247, .T. ) ;
#322 =( GEOMETRIC_REPRESENTATION_CONTEXT ( 3 ) GLOBAL_UNCERTAINTY_ASSIGNED_CONTEXT ( ( #98 ) ) GLOBAL_UNIT_ASSIGNED_CONTEXT ( ( #414, #416, #76 ) ) REPRESENTATION_CONTEXT ( 'NONE', 'WORKASPACE' ) );
#323 = TOROIDAL_SURFACE ( 'NONE', #148, 5.450000000000000178, 0.5000000000000000000 ) ;
#324 = FACE_OUTER_BOUND ( 'NONE', #21, .T. ) ;
#325 = EDGE_LOOP ( 'NONE', ( #184, #111, #64, #183 ) ) ;
#326 = CARTESIAN_POINT ( 'NONE',  ( 0.0000000000000000000, 0.0000000000000000000, 0.0000000000000000000 ) ) ;
#327 = CC_DESIGN_PERSON_AND_ORGANIZATION_ASSIGNMENT ( #128, #17, ( #48 ) ) ;
#328 = VECTOR ( 'NONE', #255, 1000.000000000000000 ) ;
#329 = VERTEX_POINT ( 'NONE', #409 ) ;
#330 = CIRCLE ( 'NONE', #205, 5.250000000000000000 ) ;
#331 = CYLINDRICAL_SURFACE ( 'NONE', #249, 4.950000000000000178 ) ;
#332 = AXIS2_PLACEMENT_3D ( 'NONE', #260, #93, #164 ) ;
#333 = PERSON_AND_ORGANIZATION ( #154, #304 ) ;
#334 = ORIENTED_EDGE ( 'NONE', *, *, #299, .T. ) ;
#335 = EDGE_LOOP ( 'NONE', ( #232, #366, #235, #6 ) ) ;
#336 = DIRECTION ( 'NONE',  ( -1.000000000000000000, 0.0000000000000000000, 0.0000000000000000000 ) ) ;
#337 = CARTESIAN_POINT ( 'NONE',  ( -4.950000000000000178, 0.0000000000000000000, 28.40000000000000213 ) ) ;
#338 = DIRECTION ( 'NONE',  ( 0.0000000000000000000, 0.0000000000000000000, 1.000000000000000000 ) ) ;
#339 = EDGE_CURVE ( 'NONE', #35, #253, #156, .T. ) ;
#340 = CARTESIAN_POINT ( 'NONE',  ( 4.525000000000000355, 5.541526766141773934E-16, 0.0000000000000000000 ) ) ;
#341 = CARTESIAN_POINT ( 'NONE',  ( 0.0000000000000000000, 0.0000000000000000000, 0.0000000000000000000 ) ) ;
#342 = DIRECTION ( 'NONE',  ( -1.000000000000000000, 0.0000000000000000000, 0.0000000000000000000 ) ) ;
#343 = CYLINDRICAL_SURFACE ( 'NONE', #102, 4.525000000000000355 ) ;
#344 = FACE_OUTER_BOUND ( 'NONE', #139, .T. ) ;
#345 = CARTESIAN_POINT ( 'NONE',  ( 0.0000000000000000000, 0.0000000000000000000, 28.40000000000000213 ) ) ;
#346 = COORDINATED_UNIVERSAL_TIME_OFFSET ( 0, 0, .AHEAD. ) ;
#347 = VERTEX_POINT ( 'NONE', #203 ) ;
#348 = EDGE_CURVE ( 'NONE', #61, #259, #66, .T. ) ;
#349 = VERTEX_POINT ( 'NONE', #75 ) ;
#350 = APPROVAL_PERSON_ORGANIZATION ( #272, #285, #385 ) ;
#351 = CARTESIAN_POINT ( 'NONE',  ( 0.0000000000000000000, 0.0000000000000000000, 25.45825756949558283 ) ) ;
#352 = FACE_OUTER_BOUND ( 'NONE', #395, .T. ) ;
#353 = CARTESIAN_POINT ( 'NONE',  ( -2.500000000000000000, 3.061616997868383141E-16, 28.40000000000000213 ) ) ;
#354 = ORIENTED_EDGE ( 'NONE', *, *, #398, .F. ) ;
#355 = CARTESIAN_POINT ( 'NONE',  ( 4.950000000000000178, 6.062001655779398511E-16, 28.40000000000000213 ) ) ;
#356 = CALENDAR_DATE ( 2019, 12, 12 ) ;
#357 = FACE_BOUND ( 'NONE', #73, .T. ) ;
#358 = ORIENTED_EDGE ( 'NONE', *, *, #368, .T. ) ;
#359 = EDGE_CURVE ( 'NONE', #239, #161, #39, .T. ) ;
#360 = CYLINDRICAL_SURFACE ( 'NONE', #74, 4.950000000000000178 ) ;
#361 = ORIENTED_EDGE ( 'NONE', *, *, #38, .F. ) ;
#362 = ADVANCED_FACE ( 'NONE', ( #318, #352 ), #77, .T. ) ;
#363 = APPROVAL_DATE_TIME ( #36, #160 ) ;
#364 = ADVANCED_FACE ( 'NONE', ( #14 ), #323, .F. ) ;
#365 = EDGE_LOOP ( 'NONE', ( #308, #354 ) ) ;
#366 = ORIENTED_EDGE ( 'NONE', *, *, #55, .F. ) ;
#367 = DIRECTION ( 'NONE',  ( 1.000000000000000000, 0.0000000000000000000, -0.0000000000000000000 ) ) ;
#368 = EDGE_CURVE ( 'NONE', #380, #87, #175, .T. ) ;
#369 = PLANE ( 'NONE',  #405 ) ;
#370 = AXIS2_PLACEMENT_3D ( 'NONE', #147, #86, #152 ) ;
#371 = CALENDAR_DATE ( 2019, 12, 12 ) ;
#372 = APPLICATION_CONTEXT ( 'configuration controlled 3d designs of mechanical parts and assemblies' ) ;
#373 = PLANE ( 'NONE',  #300 ) ;
#374 = LINE ( 'NONE', #49, #400 ) ;
#375 = DIRECTION ( 'NONE',  ( 1.000000000000000000, 0.0000000000000000000, 0.0000000000000000000 ) ) ;
#376 = CARTESIAN_POINT ( 'NONE',  ( 0.0000000000000000000, 0.0000000000000000000, 25.45825756949558283 ) ) ;
#377 = DIRECTION ( 'NONE',  ( -0.0000000000000000000, -0.0000000000000000000, -1.000000000000000000 ) ) ;
#378 = APPROVAL_STATUS ( 'not_yet_approved' ) ;
#379 = CARTESIAN_POINT ( 'NONE',  ( -4.950000000000000178, 0.0000000000000000000, 28.40000000000000213 ) ) ;
#380 = VERTEX_POINT ( 'NONE', #212 ) ;
#381 = EDGE_CURVE ( 'NONE', #347, #329, #201, .T. ) ;
#382 = EDGE_LOOP ( 'NONE', ( #228, #334, #234, #303 ) ) ;
#383 = DIRECTION ( 'NONE',  ( -0.0000000000000000000, -0.0000000000000000000, 1.000000000000000000 ) ) ;
#384 = COORDINATED_UNIVERSAL_TIME_OFFSET ( 0, 0, .AHEAD. ) ;
#385 = APPROVAL_ROLE ( '' ) ;
#386 = CARTESIAN_POINT ( 'NONE',  ( 2.500000000000000000, 0.0000000000000000000, 0.0000000000000000000 ) ) ;
#387 = VECTOR ( 'NONE', #45, 1000.000000000000000 ) ;
#388 = EDGE_CURVE ( 'NONE', #259, #57, #374, .T. ) ;
#389 = VERTEX_POINT ( 'NONE', #242 ) ;
#390 = CARTESIAN_POINT ( 'NONE',  ( 0.0000000000000000000, 0.0000000000000000000, 28.40000000000000213 ) ) ;
#391 = AXIS2_PLACEMENT_3D ( 'NONE', #209, #176, #415 ) ;
#392 = PRODUCT_DEFINITION_SHAPE ( 'NONE', 'NONE',  #48 ) ;
#393 = CARTESIAN_POINT ( 'NONE',  ( -4.525000000000000355, 0.0000000000000000000, 9.500000000000000000 ) ) ;
#394 = FACE_OUTER_BOUND ( 'NONE', #214, .T. ) ;
#395 = EDGE_LOOP ( 'NONE', ( #33, #151 ) ) ;
#396 = CARTESIAN_POINT ( 'NONE',  ( 4.525000000000000355, 5.541526766141773934E-16, 9.500000000000000000 ) ) ;
#397 = DIRECTION ( 'NONE',  ( -0.0000000000000000000, -0.0000000000000000000, -1.000000000000000000 ) ) ;
#398 = EDGE_CURVE ( 'NONE', #87, #41, #59, .T. ) ;
#399 = CC_DESIGN_APPROVAL ( #285, ( #221 ) ) ;
#400 = VECTOR ( 'NONE', #278, 1000.000000000000000 ) ;
#401 = ORIENTED_EDGE ( 'NONE', *, *, #348, .F. ) ;
#402 = ADVANCED_FACE ( 'NONE', ( #258 ), #360, .T. ) ;
#403 = ORIENTED_EDGE ( 'NONE', *, *, #388, .F. ) ;
#404 = ORIENTED_EDGE ( 'NONE', *, *, #398, .T. ) ;
#405 = AXIS2_PLACEMENT_3D ( 'NONE', #143, #208, #367 ) ;
#406 = DIRECTION ( 'NONE',  ( -1.000000000000000000, 0.0000000000000000000, 0.0000000000000000000 ) ) ;
#407 = CYLINDRICAL_SURFACE ( 'NONE', #370, 2.500000000000000000 ) ;
#408 = ORIENTED_EDGE ( 'NONE', *, *, #9, .T. ) ;
#409 = CARTESIAN_POINT ( 'NONE',  ( -4.525000000000000355, 0.0000000000000000000, 9.500000000000000000 ) ) ;
#410 = CARTESIAN_POINT ( 'NONE',  ( 0.0000000000000000000, 0.0000000000000000000, 9.500000000000000000 ) ) ;
#411 = EDGE_CURVE ( 'NONE', #3, #389, #291, .T. ) ;
#412 = DIRECTION ( 'NONE',  ( -1.000000000000000000, 0.0000000000000000000, 0.0000000000000000000 ) ) ;
#413 = AXIS2_PLACEMENT_3D ( 'NONE', #326, #264, #32 ) ;
#414 =( LENGTH_UNIT ( ) NAMED_UNIT ( * ) SI_UNIT ( .MILLI., .METRE. ) );
#415 = DIRECTION ( 'NONE',  ( 1.000000000000000000, 0.0000000000000000000, 0.0000000000000000000 ) ) ;
#416 =( NAMED_UNIT ( * ) PLANE_ANGLE_UNIT ( ) SI_UNIT ( $, .RADIAN. ) );
#417 = LINE ( 'NONE', #289, #328 ) ;
#418 = ORIENTED_EDGE ( 'NONE', *, *, #72, .T. ) ;
#419 = DIRECTION ( 'NONE',  ( -0.0000000000000000000, -0.0000000000000000000, -1.000000000000000000 ) ) ;
#420 = LOCAL_TIME ( 16, 51, 52.00000000000000000, #105 ) ;
#421 = APPROVAL_STATUS ( 'not_yet_approved' ) ;
#422 = CARTESIAN_POINT ( 'NONE',  ( 0.0000000000000000000, 0.0000000000000000000, 28.40000000000000213 ) ) ;
#423 = EDGE_CURVE ( 'NONE', #380, #134, #27, .T. ) ;
#424 = CIRCLE ( 'NONE', #162, 4.950000000000000178 ) ;
#425 = EDGE_CURVE ( 'NONE', #389, #3, #190, .T. ) ;
#426 = ORIENTED_EDGE ( 'NONE', *, *, #411, .T. ) ;
#427 = DIRECTION ( 'NONE',  ( 0.0000000000000000000, 0.0000000000000000000, -1.000000000000000000 ) ) ;
#428 = CIRCLE ( 'NONE', #305, 4.525000000000000355 ) ;
#429 = AXIS2_PLACEMENT_3D ( 'NONE', #310, #166, #174 ) ;
#430 = ORIENTED_EDGE ( 'NONE', *, *, #423, .F. ) ;
#431 = EDGE_LOOP ( 'NONE', ( #301, #418, #297, #96 ) ) ;
ENDSEC;
END-ISO-10303-21;
