M48
;GenerationSoftware,Autodesk,EAGLE,9.3.0*%
;CreationDate,2019-06-06T17:05:24Z*%
FMAT,2
ICI,OFF
METRIC,TZ,000.000
T3C0.813
T2C1.016
T1C3.000
%
G90
M71
T1
X5080Y55880
X91440Y55880
X91440Y3810
X5080Y3810
T2
X6350Y31750
X34290Y29210
X29210Y19050
X29210Y16510
X29210Y13970
X16510Y41910
X64770Y46990
X64770Y44450
X64770Y41910
X64770Y39370
X64770Y36830
X6350Y34290
X64770Y34290
X57150Y34290
X57150Y49530
X57150Y52070
X57150Y54610
X69850Y44450
X64770Y24130
X64770Y21590
X64770Y19050
X64770Y16510
X26670Y34290
X64770Y13970
X64770Y11430
X57150Y8890
X57150Y24130
X57150Y26670
X57150Y29210
X69850Y21590
X85090Y46990
X85090Y44450
X85090Y41910
X26670Y26670
X85090Y39370
X85090Y36830
X85090Y34290
X77470Y34290
X77470Y49530
X77470Y52070
X77470Y54610
X90170Y36830
X85090Y24130
X85090Y21590
X26670Y31750
X85090Y19050
X85090Y16510
X85090Y13970
X85090Y11430
X77470Y8890
X77470Y24130
X77470Y26670
X77470Y29210
X90170Y13970
X19050Y41910
X26670Y29210
X29210Y41910
X31750Y41910
X34290Y34290
X34290Y26670
X34290Y31750
T3
X12700Y31750
X22860Y31750
X40640Y35560
X50800Y35560
X50800Y27940
X40640Y27940
X57150Y36830
X57150Y46990
X57150Y11430
X57150Y21590
X77470Y36830
X77470Y46990
X77470Y11430
X77470Y21590
M30