ISO-10303-21;
HEADER;
FILE_DESCRIPTION (( 'STEP AP203' ),
    '1' );
FILE_NAME ('60mL syringe cuttedv3.STEP',
    '2019-12-12T17:00:13',
    ( '' ),
    ( '' ),
    'SwSTEP 2.0',
    'SolidWorks 2018',
    '' );
FILE_SCHEMA (( 'CONFIG_CONTROL_DESIGN' ));
ENDSEC;

DATA;
#1 = VECTOR ( 'NONE', #500, 1000.000000000000000 ) ;
#2 = CIRCLE ( 'NONE', #288, 1.809610465221856979 ) ;
#3 = ORIENTED_EDGE ( 'NONE', *, *, #472, .F. ) ;
#4 = CARTESIAN_POINT ( 'NONE',  ( 0.0000000000000000000, 28.80999999999999872, 0.0000000000000000000 ) ) ;
#5 = PRODUCT_RELATED_PRODUCT_CATEGORY ( 'detail', '', ( #77 ) ) ;
#6 = CARTESIAN_POINT ( 'NONE',  ( 0.2309555288054759570, -1.484326461707606182, 8.174157867788274245 ) ) ;
#7 = CARTESIAN_POINT ( 'NONE',  ( -0.6894378561658267568, -2.023275084716507077, 9.509485786658951056 ) ) ;
#8 = CARTESIAN_POINT ( 'NONE',  ( 0.5355271934171117465, -0.8888454866938541032, 9.669474816723131028 ) ) ;
#9 = AXIS2_PLACEMENT_3D ( 'NONE', #341, #223, #645 ) ;
#10 = DIRECTION ( 'NONE',  ( -1.000000000000000000, 0.0000000000000000000, 0.0000000000000000000 ) ) ;
#11 = PERSON_AND_ORGANIZATION ( #396, #146 ) ;
#12 = DIRECTION ( 'NONE',  ( 0.0000000000000000000, 1.000000000000000000, 0.0000000000000000000 ) ) ;
#13 = ADVANCED_FACE ( 'NONE', ( #340, #561 ), #649, .T. ) ;
#14 = VECTOR ( 'NONE', #571, 1000.000000000000000 ) ;
#15 = EDGE_LOOP ( 'NONE', ( #535, #347 ) ) ;
#16 = CARTESIAN_POINT ( 'NONE',  ( -8.329095945680782755E-17, 0.6801222974232092877, 0.0000000000000000000 ) ) ;
#17 = VERTEX_POINT ( 'NONE', #614 ) ;
#18 = CARTESIAN_POINT ( 'NONE',  ( 1.722179516346882769E-15, -16.00000000000000000, 9.000000000000000000 ) ) ;
#19 = AXIS2_PLACEMENT_3D ( 'NONE', #393, #349, #236 ) ;
#20 = CARTESIAN_POINT ( 'NONE',  ( 0.0000000000000000000, 28.80999999999999872, 0.0000000000000000000 ) ) ;
#21 = APPROVAL_ROLE ( '' ) ;
#22 = DIRECTION ( 'NONE',  ( -1.224646799147353207E-16, 1.000000000000000000, -0.0000000000000000000 ) ) ;
#23 = CC_DESIGN_APPROVAL ( #662, ( #298 ) ) ;
#24 = LINE ( 'NONE', #592, #141 ) ;
#25 = DIRECTION ( 'NONE',  ( -1.000000000000000000, -1.190994696981513473E-16, 0.0000000000000000000 ) ) ;
#26 = EDGE_LOOP ( 'NONE', ( #3, #167 ) ) ;
#27 = CARTESIAN_POINT ( 'NONE',  ( 0.0000000000000000000, 28.80999999999999872, -13.65500000000000114 ) ) ;
#28 = ORIENTED_EDGE ( 'NONE', *, *, #667, .F. ) ;
#29 = DIRECTION ( 'NONE',  ( 0.0000000000000000000, 0.0000000000000000000, 1.000000000000000000 ) ) ;
#30 = EDGE_CURVE ( 'NONE', #151, #95, #2, .T. ) ;
#31 = CARTESIAN_POINT ( 'NONE',  ( 13.65500000000000114, 0.6801222974232110641, 1.672255204235710886E-15 ) ) ;
#32 = DIRECTION ( 'NONE',  ( -1.224646799147353207E-16, 1.000000000000000000, 0.0000000000000000000 ) ) ;
#33 = DATE_AND_TIME ( #99, #551 ) ;
#34 = ORIENTED_EDGE ( 'NONE', *, *, #106, .T. ) ;
#35 = EDGE_LOOP ( 'NONE', ( #641, #186, #93, #109, #413 ) ) ;
#36 = VERTEX_POINT ( 'NONE', #149 ) ;
#37 = AXIS2_PLACEMENT_3D ( 'NONE', #20, #640, #484 ) ;
#38 = LOCAL_TIME ( 17, 0, 13.00000000000000000, #532 ) ;
#39 = CIRCLE ( 'NONE', #103, 2.000000000000000000 ) ;
#40 = CARTESIAN_POINT ( 'NONE',  ( 0.7631783888088811141, -2.392783163752116860, 8.566092211200954765 ) ) ;
#41 = EDGE_CURVE ( 'NONE', #315, #159, #55, .T. ) ;
#42 = FACE_OUTER_BOUND ( 'NONE', #603, .T. ) ;
#43 = CARTESIAN_POINT ( 'NONE',  ( -0.4417660003125921664, -2.520365139479559424, 8.264804234064275335 ) ) ;
#44 = FACE_OUTER_BOUND ( 'NONE', #158, .T. ) ;
#45 = ORIENTED_EDGE ( 'NONE', *, *, #391, .F. ) ;
#46 = EDGE_CURVE ( 'NONE', #594, #259, #498, .T. ) ;
#47 = VERTEX_POINT ( 'NONE', #382 ) ;
#48 = DIRECTION ( 'NONE',  ( -1.224646799147353207E-16, 1.000000000000000000, -0.0000000000000000000 ) ) ;
#49 = CARTESIAN_POINT ( 'NONE',  ( -0.8499999999999982014, -16.00000000000000000, 9.000000000000000000 ) ) ;
#50 = DIRECTION ( 'NONE',  ( -0.9300395873706979177, 0.3674593391429069600, 0.0000000000000000000 ) ) ;
#51 = AXIS2_PLACEMENT_3D ( 'NONE', #291, #237, #300 ) ;
#52 = CARTESIAN_POINT ( 'NONE',  ( 6.123233995736766282E-16, -5.000000000000000000, 0.0000000000000000000 ) ) ;
#53 = CONICAL_SURFACE ( 'NONE', #284, 1.632540660857093151, 1.194520562449902235 ) ;
#54 = ADVANCED_FACE ( 'NONE', ( #42 ), #440, .F. ) ;
#55 = CIRCLE ( 'NONE', #423, 14.65499999999999936 ) ;
#56 = VERTEX_POINT ( 'NONE', #528 ) ;
#57 = AXIS2_PLACEMENT_3D ( 'NONE', #194, #610, #249 ) ;
#58 = CARTESIAN_POINT ( 'NONE',  ( -8.495787618625594842E-16, 5.000000000000004441, 9.000000000000000000 ) ) ;
#59 = EDGE_CURVE ( 'NONE', #652, #544, #289, .T. ) ;
#60 = CIRCLE ( 'NONE', #605, 14.65499999999999936 ) ;
#61 = ORIENTED_EDGE ( 'NONE', *, *, #480, .T. ) ;
#62 = DIRECTION ( 'NONE',  ( 0.0000000000000000000, 1.000000000000000000, 0.0000000000000000000 ) ) ;
#63 = ORIENTED_EDGE ( 'NONE', *, *, #225, .T. ) ;
#64 = ADVANCED_FACE ( 'NONE', ( #44 ), #569, .F. ) ;
#65 = CARTESIAN_POINT ( 'NONE',  ( 2.197897961490952330E-31, -1.794719884150445837E-15, 0.0000000000000000000 ) ) ;
#66 = DIRECTION ( 'NONE',  ( -0.0000000000000000000, 1.000000000000000000, -0.0000000000000000000 ) ) ;
#67 = ADVANCED_FACE ( 'NONE', ( #421 ), #185, .T. ) ;
#68 = AXIS2_PLACEMENT_3D ( 'NONE', #549, #131, #496 ) ;
#69 = APPROVAL_ROLE ( '' ) ;
#70 = LOCAL_TIME ( 17, 0, 13.00000000000000000, #488 ) ;
#71 = DIRECTION ( 'NONE',  ( -1.224646799147353207E-16, 1.000000000000000000, -0.0000000000000000000 ) ) ;
#72 = VECTOR ( 'NONE', #354, 1000.000000000000000 ) ;
#73 = ORIENTED_EDGE ( 'NONE', *, *, #480, .F. ) ;
#74 = ORIENTED_EDGE ( 'NONE', *, *, #436, .F. ) ;
#75 = DIRECTION ( 'NONE',  ( -1.000000000000000000, -1.190994696981513473E-16, 0.0000000000000000000 ) ) ;
#76 = EDGE_CURVE ( 'NONE', #17, #553, #142, .T. ) ;
#77 = PRODUCT ( '60mL syringe cuttedv3', '60mL syringe cuttedv3', '', ( #124 ) ) ;
#78 = CONICAL_SURFACE ( 'NONE', #182, 2.000000000000000000, 0.06981317007977333455 ) ;
#79 = VECTOR ( 'NONE', #533, 1000.000000000000000 ) ;
#80 = PLANE ( 'NONE',  #293 ) ;
#81 = ORIENTED_EDGE ( 'NONE', *, *, #391, .T. ) ;
#82 = EDGE_CURVE ( 'NONE', #394, #544, #87, .T. ) ;
#83 = CARTESIAN_POINT ( 'NONE',  ( 1.794719884150446231E-15, -1.794719884150445442E-15, 14.65499999999999936 ) ) ;
#84 = CARTESIAN_POINT ( 'NONE',  ( -0.8496447545829620696, -1.186598896378868728, 8.889823892927070759 ) ) ;
#85 = PERSON_AND_ORGANIZATION ( #396, #146 ) ;
#86 = FACE_BOUND ( 'NONE', #297, .T. ) ;
#87 = LINE ( 'NONE', #424, #127 ) ;
#88 = DIRECTION ( 'NONE',  ( -1.000000000000000000, 0.0000000000000000000, 0.0000000000000000000 ) ) ;
#89 = CLOSED_SHELL ( 'NONE', ( #525, #263, #628, #276, #282, #54 ) ) ;
#90 = AXIS2_PLACEMENT_3D ( 'NONE', #232, #229, #545 ) ;
#91 = CARTESIAN_POINT ( 'NONE',  ( 6.123233995736766282E-16, -5.000000000000000000, 0.0000000000000000000 ) ) ;
#92 = EDGE_CURVE ( 'NONE', #95, #151, #665, .T. ) ;
#93 = ORIENTED_EDGE ( 'NONE', *, *, #550, .T. ) ;
#94 = EDGE_LOOP ( 'NONE', ( #482, #578, #513, #519, #314 ) ) ;
#95 = VERTEX_POINT ( 'NONE', #582 ) ;
#96 = CARTESIAN_POINT ( 'NONE',  ( -0.7496199220433030774, -2.058509642884023716, 9.415242966908609290 ) ) ;
#97 = DIRECTION ( 'NONE',  ( 1.224646799147353207E-16, -1.000000000000000000, 0.0000000000000000000 ) ) ;
#98 = CARTESIAN_POINT ( 'NONE',  ( -0.7655081158326911828, -2.391480085157596580, 8.569209259481107566 ) ) ;
#99 = CALENDAR_DATE ( 2019, 12, 12 ) ;
#100 = CIRCLE ( 'NONE', #416, 3.083865585124413666 ) ;
#101 = DIRECTION ( 'NONE',  ( -0.0000000000000000000, -1.000000000000000000, -0.0000000000000000000 ) ) ;
#102 = ORIENTED_EDGE ( 'NONE', *, *, #372, .T. ) ;
#103 = AXIS2_PLACEMENT_3D ( 'NONE', #412, #97, #426 ) ;
#104 = ORIENTED_EDGE ( 'NONE', *, *, #41, .F. ) ;
#105 = DIRECTION ( 'NONE',  ( 1.000000000000000000, 0.0000000000000000000, 0.0000000000000000000 ) ) ;
#106 = EDGE_CURVE ( 'NONE', #371, #280, #343, .T. ) ;
#107 = CARTESIAN_POINT ( 'NONE',  ( 1.722179516346882769E-15, -16.00000000000000000, 9.000000000000000000 ) ) ;
#108 = VERTEX_POINT ( 'NONE', #286 ) ;
#109 = ORIENTED_EDGE ( 'NONE', *, *, #495, .F. ) ;
#110 = AXIS2_PLACEMENT_3D ( 'NONE', #547, #395, #296 ) ;
#111 = DIRECTION ( 'NONE',  ( -1.000000000000000000, 0.0000000000000000000, 0.0000000000000000000 ) ) ;
#112 = CARTESIAN_POINT ( 'NONE',  ( -0.5351440807455689619, -0.8887161045340741250, 9.669825846255493573 ) ) ;
#113 = CARTESIAN_POINT ( 'NONE',  ( -1.760230223315145916E-16, -0.5000000000000004441, 9.000000000000000000 ) ) ;
#114 = AXIS2_PLACEMENT_3D ( 'NONE', #492, #12, #336 ) ;
#115 = DIRECTION ( 'NONE',  ( -1.224646799147353207E-16, 1.000000000000000000, -0.0000000000000000000 ) ) ;
#116 = CYLINDRICAL_SURFACE ( 'NONE', #467, 0.8500000000000000888 ) ;
#117 = ORIENTED_EDGE ( 'NONE', *, *, #507, .T. ) ;
#118 = ORIENTED_EDGE ( 'NONE', *, *, #106, .F. ) ;
#119 = EDGE_CURVE ( 'NONE', #108, #240, #212, .T. ) ;
#120 = PERSON_AND_ORGANIZATION_ROLE ( 'design_supplier' ) ;
#121 = CARTESIAN_POINT ( 'NONE',  ( 0.0000000000000000000, 28.80999999999999872, 0.0000000000000000000 ) ) ;
#122 = CARTESIAN_POINT ( 'NONE',  ( 2.000000000000001776, -16.00000000000000000, 9.000000000000000000 ) ) ;
#123 = CC_DESIGN_SECURITY_CLASSIFICATION ( #298, ( #202 ) ) ;
#124 = MECHANICAL_CONTEXT ( 'NONE', #596, 'mechanical' ) ;
#125 = DIRECTION ( 'NONE',  ( 1.224646799147353207E-16, -1.000000000000000000, 0.0000000000000000000 ) ) ;
#126 = LINE ( 'NONE', #503, #639 ) ;
#127 = VECTOR ( 'NONE', #523, 1000.000000000000000 ) ;
#128 = EDGE_LOOP ( 'NONE', ( #362, #562 ) ) ;
#129 = EDGE_CURVE ( 'NONE', #313, #240, #405, .T. ) ;
#130 = DIRECTION ( 'NONE',  ( -1.000000000000000000, -1.224646799147353207E-16, 0.0000000000000000000 ) ) ;
#131 = DIRECTION ( 'NONE',  ( -1.224646799147353207E-16, 1.000000000000000000, -0.0000000000000000000 ) ) ;
#132 = CIRCLE ( 'NONE', #381, 14.65499999999999936 ) ;
#133 = DIRECTION ( 'NONE',  ( 1.000000000000000000, 1.275531967630005245E-16, 0.0000000000000000000 ) ) ;
#134 = ORIENTED_EDGE ( 'NONE', *, *, #403, .F. ) ;
#135 = CARTESIAN_POINT ( 'NONE',  ( -0.7680205255083482063, -0.9783635964825098119, 9.427583767551483973 ) ) ;
#136 = CC_DESIGN_APPROVAL ( #218, ( #375 ) ) ;
#137 = CARTESIAN_POINT ( 'NONE',  ( 0.4394472656993160253, -2.520863835358117200, 8.263648003716919987 ) ) ;
#138 = CARTESIAN_POINT ( 'NONE',  ( -0.8500000000000001998, -0.5000000000000005551, 9.000000000000000000 ) ) ;
#139 = DATE_AND_TIME ( #277, #38 ) ;
#140 = EDGE_CURVE ( 'NONE', #36, #451, #616, .T. ) ;
#141 = VECTOR ( 'NONE', #654, 1000.000000000000000 ) ;
#142 = CIRCLE ( 'NONE', #234, 2.000000000000000000 ) ;
#143 = ORIENTED_EDGE ( 'NONE', *, *, #677, .T. ) ;
#144 = DIRECTION ( 'NONE',  ( -1.224646799147353207E-16, 1.000000000000000000, -0.0000000000000000000 ) ) ;
#145 = CC_DESIGN_PERSON_AND_ORGANIZATION_ASSIGNMENT ( #418, #434, ( #202 ) ) ;
#146 = ORGANIZATION ( 'UNSPECIFIED', 'UNSPECIFIED', '' ) ;
#147 = CC_DESIGN_PERSON_AND_ORGANIZATION_ASSIGNMENT ( #470, #333, ( #77 ) ) ;
#148 = CIRCLE ( 'NONE', #19, 0.8499999999999999778 ) ;
#149 = CARTESIAN_POINT ( 'NONE',  ( 3.083865585124413666, -0.5000000000000004441, 9.000000000000000000 ) ) ;
#150 = ORIENTED_EDGE ( 'NONE', *, *, #261, .T. ) ;
#151 = VERTEX_POINT ( 'NONE', #324 ) ;
#152 = CARTESIAN_POINT ( 'NONE',  ( -1.999999999999999556, -5.000000000000000000, 0.0000000000000000000 ) ) ;
#153 = CARTESIAN_POINT ( 'NONE',  ( 2.000000000000000444, -5.000000000000000000, 2.449293598294706414E-16 ) ) ;
#154 = EDGE_CURVE ( 'NONE', #159, #315, #132, .T. ) ;
#155 = CARTESIAN_POINT ( 'NONE',  ( 0.7677753380865454114, -0.9783054704925457923, 9.427743674048816303 ) ) ;
#156 = APPROVAL_PERSON_ORGANIZATION ( #11, #218, #171 ) ;
#157 = FACE_OUTER_BOUND ( 'NONE', #271, .T. ) ;
#158 = EDGE_LOOP ( 'NONE', ( #143, #429, #197, #511, #260 ) ) ;
#159 = VERTEX_POINT ( 'NONE', #384 ) ;
#160 = DIRECTION ( 'NONE',  ( -0.0000000000000000000, -1.000000000000000000, -0.0000000000000000000 ) ) ;
#161 = ADVANCED_FACE ( 'NONE', ( #392 ), #671, .T. ) ;
#162 = EDGE_CURVE ( 'NONE', #544, #652, #305, .T. ) ;
#163 = CARTESIAN_POINT ( 'NONE',  ( 0.0000000000000000000, 28.80999999999999872, 0.0000000000000000000 ) ) ;
#164 = CARTESIAN_POINT ( 'NONE',  ( -0.4418026923203528522, -0.8648498321462856353, 9.735247065709703662 ) ) ;
#165 = DIRECTION ( 'NONE',  ( 1.224646799147353207E-16, -1.000000000000000000, 0.0000000000000000000 ) ) ;
#166 = ORIENTED_EDGE ( 'NONE', *, *, #323, .F. ) ;
#167 = ORIENTED_EDGE ( 'NONE', *, *, #76, .F. ) ;
#168 = CARTESIAN_POINT ( 'NONE',  ( 2.000000000000001776, -16.00000000000000000, 9.000000000000000000 ) ) ;
#169 = ORIENTED_EDGE ( 'NONE', *, *, #247, .T. ) ;
#170 = UNCERTAINTY_MEASURE_WITH_UNIT (LENGTH_MEASURE( 1.000000000000000082E-05 ), #383, 'distance_accuracy_value', 'NONE');
#171 = APPROVAL_ROLE ( '' ) ;
#172 = DIRECTION ( 'NONE',  ( -1.224646799147353207E-16, 1.000000000000000000, -0.0000000000000000000 ) ) ;
#173 = CC_DESIGN_DATE_AND_TIME_ASSIGNMENT ( #33, #335, ( #375 ) ) ;
#174 = PERSON_AND_ORGANIZATION_ROLE ( 'classification_officer' ) ;
#175 = DATE_AND_TIME ( #222, #304 ) ;
#176 = FACE_OUTER_BOUND ( 'NONE', #306, .T. ) ;
#177 = ORIENTED_EDGE ( 'NONE', *, *, #472, .T. ) ;
#178 = EDGE_CURVE ( 'NONE', #151, #205, #648, .T. ) ;
#179 = APPLICATION_CONTEXT ( 'configuration controlled 3d designs of mechanical parts and assemblies' ) ;
#180 = CARTESIAN_POINT ( 'NONE',  ( 4.984263991982915610E-16, -4.069960412629302304, 0.0000000000000000000 ) ) ;
#181 = B_SPLINE_CURVE_WITH_KNOTS ( 'NONE', 3,
 ( #465, #275, #196, #43, #316, #98, #331, #674, #254, #96, #7, #253, #367, #516, #618, #273 ),
 .UNSPECIFIED., .F., .F.,
 ( 4, 2, 2, 2, 2, 2, 2, 4 ),
 ( 0.005082643527015843696, 0.005427209212449548084, 0.005771774897883251605, 0.006460906268750659515, 0.006805471954184363903, 0.007150037639618068291, 0.007494603325051772680, 0.007839169010485477068 ),
 .UNSPECIFIED. ) ;
#182 = AXIS2_PLACEMENT_3D ( 'NONE', #317, #529, #385 ) ;
#183 = DIRECTION ( 'NONE',  ( 0.9300395873706979177, 0.3674593391429072375, 1.138970003753850180E-16 ) ) ;
#184 = PERSON_AND_ORGANIZATION ( #396, #146 ) ;
#185 = CYLINDRICAL_SURFACE ( 'NONE', #302, 14.65499999999999936 ) ;
#186 = ORIENTED_EDGE ( 'NONE', *, *, #76, .T. ) ;
#187 = CARTESIAN_POINT ( 'NONE',  ( 1.794719884150445837E-15, 28.80999999999999872, 14.65499999999999936 ) ) ;
#188 = ORIENTED_EDGE ( 'NONE', *, *, #140, .F. ) ;
#189 = AXIS2_PLACEMENT_3D ( 'NONE', #52, #567, #670 ) ;
#190 = APPROVAL_DATE_TIME ( #398, #255 ) ;
#191 = FACE_OUTER_BOUND ( 'NONE', #94, .T. ) ;
#192 = ORIENTED_EDGE ( 'NONE', *, *, #357, .F. ) ;
#193 = DIRECTION ( 'NONE',  ( -1.224646799147353207E-16, 1.000000000000000000, -0.0000000000000000000 ) ) ;
#194 = CARTESIAN_POINT ( 'NONE',  ( 0.0000000000000000000, 28.80999999999999872, 0.0000000000000000000 ) ) ;
#195 = EDGE_CURVE ( 'NONE', #233, #313, #399, .T. ) ;
#196 = CARTESIAN_POINT ( 'NONE',  ( -0.2309815650318515767, -2.559627258944408013, 8.173974861219445387 ) ) ;
#197 = ORIENTED_EDGE ( 'NONE', *, *, #225, .F. ) ;
#198 = VERTEX_POINT ( 'NONE', #530 ) ;
#199 = CARTESIAN_POINT ( 'NONE',  ( 0.0000000000000000000, 28.80999999999999872, 0.0000000000000000000 ) ) ;
#200 = DIRECTION ( 'NONE',  ( -1.224646799147353207E-16, 1.000000000000000000, -0.0000000000000000000 ) ) ;
#201 = LOCAL_TIME ( 17, 0, 13.00000000000000000, #574 ) ;
#202 = PRODUCT_DEFINITION_FORMATION_WITH_SPECIFIED_SOURCE ( 'ANY', '', #77, .NOT_KNOWN. ) ;
#203 = VECTOR ( 'NONE', #246, 1000.000000000000000 ) ;
#204 = CARTESIAN_POINT ( 'NONE',  ( 0.8283224565763256386, -1.230306856177568964, 8.780776857131591839 ) ) ;
#205 = VERTEX_POINT ( 'NONE', #538 ) ;
#206 = ORIENTED_EDGE ( 'NONE', *, *, #526, .T. ) ;
#207 = ADVANCED_FACE ( 'NONE', ( #369 ), #287, .T. ) ;
#208 = EDGE_CURVE ( 'NONE', #56, #108, #257, .T. ) ;
#209 = CARTESIAN_POINT ( 'NONE',  ( 0.1154131024154017304, -0.8232360589576621646, 9.850000000000017408 ) ) ;
#210 = DIRECTION ( 'NONE',  ( 0.0000000000000000000, 0.0000000000000000000, 1.000000000000000000 ) ) ;
#211 = FACE_OUTER_BOUND ( 'NONE', #355, .T. ) ;
#212 = LINE ( 'NONE', #27, #79 ) ;
#213 = CARTESIAN_POINT ( 'NONE',  ( -1.999999999999998224, -16.00000000000000000, 9.000000000000000000 ) ) ;
#214 = CC_DESIGN_PERSON_AND_ORGANIZATION_ASSIGNMENT ( #85, #221, ( #375 ) ) ;
#215 = EDGE_LOOP ( 'NONE', ( #74, #659, #450, #34 ) ) ;
#216 = DIRECTION ( 'NONE',  ( -1.224646799147353207E-16, 1.000000000000000000, -0.0000000000000000000 ) ) ;
#217 = DIRECTION ( 'NONE',  ( -0.0000000000000000000, -1.000000000000000000, -0.0000000000000000000 ) ) ;
#218 = APPROVAL ( #227, 'UNSPECIFIED' ) ;
#219 = DIRECTION ( 'NONE',  ( -1.000000000000000000, -1.224646799147352961E-16, 0.0000000000000000000 ) ) ;
#220 = DIRECTION ( 'NONE',  ( 0.0000000000000000000, 1.000000000000000000, 0.0000000000000000000 ) ) ;
#221 = PERSON_AND_ORGANIZATION_ROLE ( 'creator' ) ;
#222 = CALENDAR_DATE ( 2019, 12, 12 ) ;
#223 = DIRECTION ( 'NONE',  ( -1.224646799147353207E-16, 1.000000000000000000, -0.0000000000000000000 ) ) ;
#224 = CONICAL_SURFACE ( 'NONE', #244, 1.632540660857093151, 1.194520562449902235 ) ;
#225 = EDGE_CURVE ( 'NONE', #205, #233, #559, .T. ) ;
#226 = ORIENTED_EDGE ( 'NONE', *, *, #92, .T. ) ;
#227 = APPROVAL_STATUS ( 'not_yet_approved' ) ;
#228 = DIRECTION ( 'NONE',  ( 0.0000000000000000000, 0.0000000000000000000, 1.000000000000000000 ) ) ;
#229 = DIRECTION ( 'NONE',  ( 1.224646799147353207E-16, -1.000000000000000000, 0.0000000000000000000 ) ) ;
#230 = LINE ( 'NONE', #554, #203 ) ;
#231 = ORIENTED_EDGE ( 'NONE', *, *, #550, .F. ) ;
#232 = CARTESIAN_POINT ( 'NONE',  ( 1.722179516346882966E-15, -16.00000000000000000, 9.000000000000000000 ) ) ;
#233 = VERTEX_POINT ( 'NONE', #485 ) ;
#234 = AXIS2_PLACEMENT_3D ( 'NONE', #274, #216, #111 ) ;
#235 = ORIENTED_EDGE ( 'NONE', *, *, #261, .F. ) ;
#236 = DIRECTION ( 'NONE',  ( 1.000000000000000000, 1.275531967630005245E-16, 0.0000000000000000000 ) ) ;
#237 = DIRECTION ( 'NONE',  ( -1.224646799147353207E-16, 1.000000000000000000, -0.0000000000000000000 ) ) ;
#238 = CALENDAR_DATE ( 2019, 12, 12 ) ;
#239 = LINE ( 'NONE', #292, #1 ) ;
#240 = VERTEX_POINT ( 'NONE', #334 ) ;
#241 = CARTESIAN_POINT ( 'NONE',  ( 0.8487452716760032212, -2.304625803581279886, 8.781089508983402681 ) ) ;
#242 = ORIENTED_EDGE ( 'NONE', *, *, #372, .F. ) ;
#243 = MANIFOLD_SOLID_BREP ( 'Cut-Extrude4', #89 ) ;
#244 = AXIS2_PLACEMENT_3D ( 'NONE', #180, #294, #88 ) ;
#245 = CARTESIAN_POINT ( 'NONE',  ( 0.2313019206978400300, -2.559500149975448391, 8.174271483329921040 ) ) ;
#246 = DIRECTION ( 'NONE',  ( -0.0000000000000000000, 1.000000000000000000, -0.0000000000000000000 ) ) ;
#247 = EDGE_CURVE ( 'NONE', #600, #394, #148, .T. ) ;
#248 = LINE ( 'NONE', #350, #489 ) ;
#249 = DIRECTION ( 'NONE',  ( 0.0000000000000000000, -0.0000000000000000000, 1.000000000000000000 ) ) ;
#250 = EDGE_LOOP ( 'NONE', ( #329, #570 ) ) ;
#251 = VERTEX_POINT ( 'NONE', #438 ) ;
#252 = CARTESIAN_POINT ( 'NONE',  ( 0.8512261652488076757, -2.136193664273860815, 9.209055865417134612 ) ) ;
#253 = CARTESIAN_POINT ( 'NONE',  ( -0.5349305645287771860, -1.963918005203570960, 9.669887763326773467 ) ) ;
#254 = CARTESIAN_POINT ( 'NONE',  ( -0.8300846871539206973, -2.135492695380645234, 9.212875929226038707 ) ) ;
#255 = APPROVAL ( #388, 'UNSPECIFIED' ) ;
#256 = APPROVAL_PERSON_ORGANIZATION ( #623, #662, #21 ) ;
#257 = CIRCLE ( 'NONE', #114, 13.65500000000000114 ) ;
#258 = CARTESIAN_POINT ( 'NONE',  ( 0.8499999999999997558, -0.5000000000000003331, 9.000000000000000000 ) ) ;
#259 = VERTEX_POINT ( 'NONE', #122 ) ;
#260 = ORIENTED_EDGE ( 'NONE', *, *, #119, .F. ) ;
#261 = EDGE_CURVE ( 'NONE', #315, #348, #24, .T. ) ;
#262 = CARTESIAN_POINT ( 'NONE',  ( 0.6870468573241317323, -1.350702266786057759, 8.487515832344584510 ) ) ;
#263 = ADVANCED_FACE ( 'NONE', ( #278 ), #386, .T. ) ;
#264 = CARTESIAN_POINT ( 'NONE',  ( 1.722179516346882966E-15, -16.00000000000000000, 9.000000000000000000 ) ) ;
#265 = DESIGN_CONTEXT ( 'detailed design', #179, 'design' ) ;
#266 = DATE_AND_TIME ( #524, #70 ) ;
#267 = FACE_OUTER_BOUND ( 'NONE', #650, .T. ) ;
#268 = DIRECTION ( 'NONE',  ( 1.000000000000000000, 0.0000000000000000000, 0.0000000000000000000 ) ) ;
#269 = ADVANCED_FACE ( 'NONE', ( #542 ), #116, .F. ) ;
#270 = ORIENTED_EDGE ( 'NONE', *, *, #436, .T. ) ;
#271 = EDGE_LOOP ( 'NONE', ( #456, #401, #380, #499, #527 ) ) ;
#272 = EDGE_CURVE ( 'NONE', #473, #586, #295, .T. ) ;
#273 = CARTESIAN_POINT ( 'NONE',  ( -2.150188703030049226E-21, -1.898459107072303587, 9.849999999999999645 ) ) ;
#274 = CARTESIAN_POINT ( 'NONE',  ( 6.123233995736766282E-16, -5.000000000000000000, 0.0000000000000000000 ) ) ;
#275 = CARTESIAN_POINT ( 'NONE',  ( -0.1158484377387571235, -2.570130383247729355, 8.149999999999995026 ) ) ;
#276 = ADVANCED_FACE ( 'NONE', ( #518, #267 ), #501, .F. ) ;
#277 = CALENDAR_DATE ( 2019, 12, 12 ) ;
#278 = FACE_OUTER_BOUND ( 'NONE', #442, .T. ) ;
#279 = DIRECTION ( 'NONE',  ( 0.0000000000000000000, 0.0000000000000000000, 1.000000000000000000 ) ) ;
#280 = VERTEX_POINT ( 'NONE', #444 ) ;
#281 = DIRECTION ( 'NONE',  ( 0.0000000000000000000, 0.0000000000000000000, -1.000000000000000000 ) ) ;
#282 = ADVANCED_FACE ( 'NONE', ( #320, #497 ), #656, .T. ) ;
#283 = APPLICATION_PROTOCOL_DEFINITION ( 'international standard', 'config_control_design', 1994, #596 ) ;
#284 = AXIS2_PLACEMENT_3D ( 'NONE', #358, #144, #10 ) ;
#285 = PERSON_AND_ORGANIZATION ( #396, #146 ) ;
#286 = CARTESIAN_POINT ( 'NONE',  ( 0.0000000000000000000, 28.80999999999999872, -13.65500000000000114 ) ) ;
#287 = CONICAL_SURFACE ( 'NONE', #9, 2.000000000000000000, 1.194520562449902235 ) ;
#288 = AXIS2_PLACEMENT_3D ( 'NONE', #364, #48, #672 ) ;
#289 = CIRCLE ( 'NONE', #630, 0.8499999999999999778 ) ;
#290 = ORIENTED_EDGE ( 'NONE', *, *, #46, .F. ) ;
#291 = CARTESIAN_POINT ( 'NONE',  ( 1.722179516346882966E-15, -16.00000000000000000, 9.000000000000000000 ) ) ;
#292 = CARTESIAN_POINT ( 'NONE',  ( 0.0000000000000000000, 28.80999999999999872, -14.65499999999999936 ) ) ;
#293 = AXIS2_PLACEMENT_3D ( 'NONE', #445, #651, #130 ) ;
#294 = DIRECTION ( 'NONE',  ( -1.224646799147353207E-16, 1.000000000000000000, -0.0000000000000000000 ) ) ;
#295 = CIRCLE ( 'NONE', #68, 14.65499999999999936 ) ;
#296 = DIRECTION ( 'NONE',  ( 1.000000000000000000, 1.224646799147353207E-16, 0.0000000000000000000 ) ) ;
#297 = EDGE_LOOP ( 'NONE', ( #118, #73 ) ) ;
#298 = SECURITY_CLASSIFICATION ( '', '', #490 ) ;
#299 = ORIENTED_EDGE ( 'NONE', *, *, #598, .F. ) ;
#300 = DIRECTION ( 'NONE',  ( 1.000000000000000000, 0.0000000000000000000, 0.0000000000000000000 ) ) ;
#301 = PLANE ( 'NONE',  #57 ) ;
#302 = AXIS2_PLACEMENT_3D ( 'NONE', #163, #160, #625 ) ;
#303 = DIRECTION ( 'NONE',  ( 1.000000000000000000, 1.054717343436125182E-16, 0.0000000000000000000 ) ) ;
#304 = LOCAL_TIME ( 17, 0, 13.00000000000000000, #591 ) ;
#305 = CIRCLE ( 'NONE', #584, 0.8499999999999999778 ) ;
#306 = EDGE_LOOP ( 'NONE', ( #546, #226 ) ) ;
#307 = CARTESIAN_POINT ( 'NONE',  ( 0.2306747176505953290, -1.907061676546527362, 9.826100313109355611 ) ) ;
#308 = EDGE_LOOP ( 'NONE', ( #666, #270, #61, #658 ) ) ;
#309 = CARTESIAN_POINT ( 'NONE',  ( -0.2307332162179983603, -1.484403730439718627, 8.173977754140722141 ) ) ;
#310 = CARTESIAN_POINT ( 'NONE',  ( -3.083865585124414110, -0.5000000000000004441, 9.000000000000000000 ) ) ;
#311 = EDGE_CURVE ( 'NONE', #394, #600, #655, .T. ) ;
#312 = CIRCLE ( 'NONE', #345, 13.65500000000000114 ) ;
#313 = VERTEX_POINT ( 'NONE', #31 ) ;
#314 = ORIENTED_EDGE ( 'NONE', *, *, #195, .F. ) ;
#315 = VERTEX_POINT ( 'NONE', #187 ) ;
#316 = CARTESIAN_POINT ( 'NONE',  ( -0.5347522610030569501, -2.492330377524688334, 8.330066530368306132 ) ) ;
#317 = CARTESIAN_POINT ( 'NONE',  ( 1.722179516346882966E-15, -16.00000000000000000, 9.000000000000000000 ) ) ;
#318 = DIRECTION ( 'NONE',  ( -1.000000000000000000, 0.0000000000000000000, 0.0000000000000000000 ) ) ;
#319 = ADVANCED_FACE ( 'NONE', ( #419 ), #80, .F. ) ;
#320 = FACE_BOUND ( 'NONE', #128, .T. ) ;
#321 = EDGE_LOOP ( 'NONE', ( #378, #478 ) ) ;
#322 = ORIENTED_EDGE ( 'NONE', *, *, #515, .T. ) ;
#323 = EDGE_CURVE ( 'NONE', #159, #586, #239, .T. ) ;
#324 = CARTESIAN_POINT ( 'NONE',  ( -1.809610465221856535, -4.000000000000000000, 0.0000000000000000000 ) ) ;
#325 = DIRECTION ( 'NONE',  ( 1.224646799147353207E-16, -1.000000000000000000, 0.0000000000000000000 ) ) ;
#326 = ADVANCED_FACE ( 'NONE', ( #176 ), #452, .T. ) ;
#327 = VECTOR ( 'NONE', #589, 1000.000000000000227 ) ;
#328 = CARTESIAN_POINT ( 'NONE',  ( 0.4405633469147437475, -0.8646522247529428995, 9.735790800325604621 ) ) ;
#329 = ORIENTED_EDGE ( 'NONE', *, *, #540, .T. ) ;
#330 = ORIENTED_EDGE ( 'NONE', *, *, #526, .F. ) ;
#331 = CARTESIAN_POINT ( 'NONE',  ( -0.8494809889703274219, -2.304037692165309181, 8.782515695538464229 ) ) ;
#332 = ORIENTED_EDGE ( 'NONE', *, *, #140, .T. ) ;
#333 = PERSON_AND_ORGANIZATION_ROLE ( 'design_owner' ) ;
#334 = CARTESIAN_POINT ( 'NONE',  ( 3.129636159629258261E-31, 0.6801222974232092877, -13.65500000000000114 ) ) ;
#335 = DATE_TIME_ROLE ( 'creation_date' ) ;
#336 = DIRECTION ( 'NONE',  ( 0.0000000000000000000, 0.0000000000000000000, 1.000000000000000000 ) ) ;
#337 = AXIS2_PLACEMENT_3D ( 'NONE', #433, #71, #390 ) ;
#338 = LINE ( 'NONE', #468, #14 ) ;
#339 =( NAMED_UNIT ( * ) PLANE_ANGLE_UNIT ( ) SI_UNIT ( $, .RADIAN. ) );
#340 = FACE_BOUND ( 'NONE', #431, .T. ) ;
#341 = CARTESIAN_POINT ( 'NONE',  ( 6.123233995736766282E-16, -5.000000000000000000, 0.0000000000000000000 ) ) ;
#342 = ORIENTED_EDGE ( 'NONE', *, *, #495, .T. ) ;
#343 = B_SPLINE_CURVE_WITH_KNOTS ( 'NONE', 3,
 ( #477, #209, #635, #328, #8, #155, #475, #675, #204, #573, #262, #577, #632, #6, #379, #425 ),
 .UNSPECIFIED., .F., .F.,
 ( 4, 2, 2, 2, 2, 2, 2, 4 ),
 ( 0.002240882509036294049, 0.002585438539416042882, 0.002929994569795792148, 0.003619106630555290246, 0.003963662660935041680, 0.004308218691314793548, 0.004652774721694544549, 0.004997330752074296417 ),
 .UNSPECIFIED. ) ;
#344 = DIRECTION ( 'NONE',  ( -1.224646799147353207E-16, 1.000000000000000000, -0.0000000000000000000 ) ) ;
#345 = AXIS2_PLACEMENT_3D ( 'NONE', #16, #115, #25 ) ;
#346 = AXIS2_PLACEMENT_3D ( 'NONE', #580, #627, #318 ) ;
#347 = ORIENTED_EDGE ( 'NONE', *, *, #41, .T. ) ;
#348 = VERTEX_POINT ( 'NONE', #83 ) ;
#349 = DIRECTION ( 'NONE',  ( 1.224646799147353207E-16, -1.000000000000000000, 0.0000000000000000000 ) ) ;
#350 = CARTESIAN_POINT ( 'NONE',  ( -1.999999999999998224, -16.00000000000000000, 9.000000000000000000 ) ) ;
#351 = CARTESIAN_POINT ( 'NONE',  ( -5.873599157029761970E-14, -0.8232360589574425624, 9.850000000000624922 ) ) ;
#352 = APPROVAL_DATE_TIME ( #266, #662 ) ;
#353 = FACE_OUTER_BOUND ( 'NONE', #406, .T. ) ;
#354 = DIRECTION ( 'NONE',  ( -0.0000000000000000000, 1.000000000000000000, -0.0000000000000000000 ) ) ;
#355 = EDGE_LOOP ( 'NONE', ( #242, #609, #360, #332 ) ) ;
#356 = CARTESIAN_POINT ( 'NONE',  ( 0.7685809285275400082, -2.053941272076926783, 9.426636400951847961 ) ) ;
#357 = EDGE_CURVE ( 'NONE', #95, #313, #126, .T. ) ;
#358 = CARTESIAN_POINT ( 'NONE',  ( 4.984263991982915610E-16, -4.069960412629302304, 0.0000000000000000000 ) ) ;
#359 = CYLINDRICAL_SURFACE ( 'NONE', #521, 0.8500000000000000888 ) ;
#360 = ORIENTED_EDGE ( 'NONE', *, *, #667, .T. ) ;
#361 = CARTESIAN_POINT ( 'NONE',  ( -0.7483019515299487168, -1.311114643709940575, 8.582675655623619448 ) ) ;
#362 = ORIENTED_EDGE ( 'NONE', *, *, #59, .F. ) ;
#363 = CARTESIAN_POINT ( 'NONE',  ( -0.2301080814294631516, -0.8317537040626202804, 9.826334156039248313 ) ) ;
#364 = CARTESIAN_POINT ( 'NONE',  ( 4.898587196589412829E-16, -4.000000000000000000, 0.0000000000000000000 ) ) ;
#365 = DIRECTION ( 'NONE',  ( 1.224646799147353207E-16, -1.000000000000000000, -0.0000000000000000000 ) ) ;
#366 = AXIS2_PLACEMENT_3D ( 'NONE', #661, #193, #560 ) ;
#367 = CARTESIAN_POINT ( 'NONE',  ( -0.4400974048227084823, -1.939782423017371693, 9.736045718914722258 ) ) ;
#368 = MANIFOLD_SOLID_BREP ( 'Cut-Extrude3', #587 ) ;
#369 = FACE_OUTER_BOUND ( 'NONE', #35, .T. ) ;
#370 = ORIENTED_EDGE ( 'NONE', *, *, #59, .T. ) ;
#371 = VERTEX_POINT ( 'NONE', #351 ) ;
#372 = EDGE_CURVE ( 'NONE', #594, #451, #248, .T. ) ;
#373 = DIRECTION ( 'NONE',  ( 1.224646799147353207E-16, -1.000000000000000000, -0.0000000000000000000 ) ) ;
#374 = DIRECTION ( 'NONE',  ( 1.224646799147353207E-16, -1.000000000000000000, 0.0000000000000000000 ) ) ;
#375 = PRODUCT_DEFINITION ( 'UNKNOWN', '', #202, #265 ) ;
#376 = CYLINDRICAL_SURFACE ( 'NONE', #432, 0.8499999999999999778 ) ;
#377 = ADVANCED_FACE ( 'NONE', ( #353, #86 ), #224, .F. ) ;
#378 = ORIENTED_EDGE ( 'NONE', *, *, #677, .F. ) ;
#379 = CARTESIAN_POINT ( 'NONE',  ( 0.1150217964107322910, -1.494907335133091486, 8.149999999999995026 ) ) ;
#380 = ORIENTED_EDGE ( 'NONE', *, *, #129, .T. ) ;
#381 = AXIS2_PLACEMENT_3D ( 'NONE', #121, #220, #636 ) ;
#382 = CARTESIAN_POINT ( 'NONE',  ( -14.65499999999999581, -3.529443360127253325E-15, 0.0000000000000000000 ) ) ;
#383 =( LENGTH_UNIT ( ) NAMED_UNIT ( * ) SI_UNIT ( .MILLI., .METRE. ) );
#384 = CARTESIAN_POINT ( 'NONE',  ( 0.0000000000000000000, 28.80999999999999872, -14.65499999999999936 ) ) ;
#385 = DIRECTION ( 'NONE',  ( 1.000000000000000000, 0.0000000000000000000, 0.0000000000000000000 ) ) ;
#386 = CONICAL_SURFACE ( 'NONE', #51, 2.000000000000000000, 0.06981317007977333455 ) ;
#387 = ORIENTED_EDGE ( 'NONE', *, *, #598, .T. ) ;
#388 = APPROVAL_STATUS ( 'not_yet_approved' ) ;
#389 = AXIS2_PLACEMENT_3D ( 'NONE', #601, #125, #133 ) ;
#390 = DIRECTION ( 'NONE',  ( -1.000000000000000000, -1.190994696981513473E-16, 0.0000000000000000000 ) ) ;
#391 = EDGE_CURVE ( 'NONE', #451, #36, #100, .T. ) ;
#392 = FACE_OUTER_BOUND ( 'NONE', #633, .T. ) ;
#393 = CARTESIAN_POINT ( 'NONE',  ( -1.760230223315145916E-16, -0.5000000000000004441, 9.000000000000000000 ) ) ;
#394 = VERTEX_POINT ( 'NONE', #138 ) ;
#395 = DIRECTION ( 'NONE',  ( 1.224646799147353207E-16, -1.000000000000000000, 0.0000000000000000000 ) ) ;
#396 = PERSON ( 'UNSPECIFIED', 'UNSPECIFIED', 'UNSPECIFIED', ('UNSPECIFIED'), ('UNSPECIFIED'), ('UNSPECIFIED') ) ;
#397 = DIRECTION ( 'NONE',  ( -1.000000000000000000, -1.224646799147353207E-16, 0.0000000000000000000 ) ) ;
#398 = DATE_AND_TIME ( #238, #201 ) ;
#399 = CIRCLE ( 'NONE', #653, 13.65500000000000114 ) ;
#400 = CARTESIAN_POINT ( 'NONE',  ( -0.8287761333280828646, -1.229556797764628007, 8.782639608257488462 ) ) ;
#401 = ORIENTED_EDGE ( 'NONE', *, *, #357, .T. ) ;
#402 = DIRECTION ( 'NONE',  ( 1.224646799147353207E-16, -1.000000000000000000, 0.0000000000000000000 ) ) ;
#403 = EDGE_CURVE ( 'NONE', #47, #348, #510, .T. ) ;
#404 = CARTESIAN_POINT ( 'NONE',  ( 14.65499999999999581, -5.999640817363880378E-17, 1.794719884150445442E-15 ) ) ;
#405 = CIRCLE ( 'NONE', #337, 13.65500000000000114 ) ;
#406 = EDGE_LOOP ( 'NONE', ( #192, #448, #422, #63, #491 ) ) ;
#407 = CARTESIAN_POINT ( 'NONE',  ( -0.4406391645633914722, -1.445398417570789462, 8.264209476567152990 ) ) ;
#408 = CARTESIAN_POINT ( 'NONE',  ( -0.1153946257747933274, -0.8232360589576731558, 9.849999999999983658 ) ) ;
#409 = EDGE_CURVE ( 'NONE', #251, #371, #230, .T. ) ;
#410 = SHAPE_DEFINITION_REPRESENTATION ( #522, #555 ) ;
#411 = LINE ( 'NONE', #415, #476 ) ;
#412 = CARTESIAN_POINT ( 'NONE',  ( 1.722179516346882966E-15, -16.00000000000000000, 9.000000000000000000 ) ) ;
#413 = ORIENTED_EDGE ( 'NONE', *, *, #272, .F. ) ;
#414 = ORIENTED_EDGE ( 'NONE', *, *, #247, .F. ) ;
#415 = CARTESIAN_POINT ( 'NONE',  ( 1.672255204235710491E-15, 28.80999999999999872, 13.65500000000000114 ) ) ;
#416 = AXIS2_PLACEMENT_3D ( 'NONE', #457, #402, #303 ) ;
#417 = CARTESIAN_POINT ( 'NONE',  ( 0.0000000000000000000, 28.80999999999999872, 0.0000000000000000000 ) ) ;
#418 = PERSON_AND_ORGANIZATION ( #396, #146 ) ;
#419 = FACE_OUTER_BOUND ( 'NONE', #26, .T. ) ;
#420 = DIRECTION ( 'NONE',  ( 1.000000000000000000, 0.0000000000000000000, 0.0000000000000000000 ) ) ;
#421 = FACE_OUTER_BOUND ( 'NONE', #514, .T. ) ;
#422 = ORIENTED_EDGE ( 'NONE', *, *, #178, .T. ) ;
#423 = AXIS2_PLACEMENT_3D ( 'NONE', #4, #62, #210 ) ;
#424 = CARTESIAN_POINT ( 'NONE',  ( -0.8500000000000008660, 5.000000000000004441, 9.000000000000000000 ) ) ;
#425 = CARTESIAN_POINT ( 'NONE',  ( 1.041106940289689277E-16, -1.494907335133092374, 8.149999999999998579 ) ) ;
#426 = DIRECTION ( 'NONE',  ( 1.000000000000000000, 0.0000000000000000000, 0.0000000000000000000 ) ) ;
#427 = DIRECTION ( 'NONE',  ( 1.224646799147353207E-16, -1.000000000000000000, 0.0000000000000000000 ) ) ;
#428 = LINE ( 'NONE', #153, #593 ) ;
#429 = ORIENTED_EDGE ( 'NONE', *, *, #564, .T. ) ;
#430 = CARTESIAN_POINT ( 'NONE',  ( -8.329095945680782755E-17, 0.6801222974232092877, 0.0000000000000000000 ) ) ;
#431 = EDGE_LOOP ( 'NONE', ( #585, #117 ) ) ;
#432 = AXIS2_PLACEMENT_3D ( 'NONE', #481, #365, #669 ) ;
#433 = CARTESIAN_POINT ( 'NONE',  ( -8.329095945680782755E-17, 0.6801222974232092877, 0.0000000000000000000 ) ) ;
#434 = PERSON_AND_ORGANIZATION_ROLE ( 'creator' ) ;
#435 = CARTESIAN_POINT ( 'NONE',  ( 0.0000000000000000000, 28.80999999999999872, 0.0000000000000000000 ) ) ;
#436 = EDGE_CURVE ( 'NONE', #198, #280, #439, .T. ) ;
#437 = CARTESIAN_POINT ( 'NONE',  ( 0.0000000000000000000, 0.0000000000000000000, 0.0000000000000000000 ) ) ;
#438 = CARTESIAN_POINT ( 'NONE',  ( -2.150188703030049226E-21, -1.898459107072303587, 9.849999999999999645 ) ) ;
#439 = LINE ( 'NONE', #660, #72 ) ;
#440 = CYLINDRICAL_SURFACE ( 'NONE', #575, 0.8499999999999999778 ) ;
#441 = DIRECTION ( 'NONE',  ( 1.000000000000000000, 0.0000000000000000000, 0.0000000000000000000 ) ) ;
#442 = EDGE_LOOP ( 'NONE', ( #290, #102, #81, #28 ) ) ;
#443 = DIRECTION ( 'NONE',  ( -0.06975647374412559387, 0.9975640502598243087, -8.542704229054963204E-18 ) ) ;
#444 = CARTESIAN_POINT ( 'NONE',  ( 1.041106940289689277E-16, -1.494907335133092374, 8.149999999999998579 ) ) ;
#445 = CARTESIAN_POINT ( 'NONE',  ( 6.123233995736766282E-16, -5.000000000000000000, 0.0000000000000000000 ) ) ;
#446 = EDGE_CURVE ( 'NONE', #251, #198, #548, .T. ) ;
#447 = FACE_OUTER_BOUND ( 'NONE', #308, .T. ) ;
#448 = ORIENTED_EDGE ( 'NONE', *, *, #30, .F. ) ;
#449 = CARTESIAN_POINT ( 'NONE',  ( 4.898587196589412829E-16, -4.000000000000000000, 0.0000000000000000000 ) ) ;
#450 = ORIENTED_EDGE ( 'NONE', *, *, #409, .T. ) ;
#451 = VERTEX_POINT ( 'NONE', #310 ) ;
#452 = PLANE ( 'NONE',  #504 ) ;
#453 = CARTESIAN_POINT ( 'NONE',  ( -0.8506968952016932262, -1.059822101971926500, 9.212025297391075895 ) ) ;
#454 = AXIS2_PLACEMENT_3D ( 'NONE', #517, #200, #566 ) ;
#455 = LINE ( 'NONE', #466, #552 ) ;
#456 = ORIENTED_EDGE ( 'NONE', *, *, #92, .F. ) ;
#457 = CARTESIAN_POINT ( 'NONE',  ( -1.760230223315145916E-16, -0.5000000000000004441, 9.000000000000000000 ) ) ;
#458 = DIRECTION ( 'NONE',  ( -1.000000000000000000, 0.0000000000000000000, 0.0000000000000000000 ) ) ;
#459 = AXIS2_PLACEMENT_3D ( 'NONE', #264, #374, #268 ) ;
#460 = DIRECTION ( 'NONE',  ( -1.224646799147353207E-16, 1.000000000000000000, -0.0000000000000000000 ) ) ;
#461 = DIRECTION ( 'NONE',  ( 0.9300395873706979177, 0.3674593391429072375, 1.138970003753850180E-16 ) ) ;
#462 = EDGE_LOOP ( 'NONE', ( #177, #322, #299, #134, #231 ) ) ;
#463 = ORIENTED_EDGE ( 'NONE', *, *, #272, .T. ) ;
#464 = ORIENTED_EDGE ( 'NONE', *, *, #154, .F. ) ;
#465 = CARTESIAN_POINT ( 'NONE',  ( -1.013481461286488353E-16, -2.570130383247730244, 8.149999999999995026 ) ) ;
#466 = CARTESIAN_POINT ( 'NONE',  ( -1.999999999999999556, -5.000000000000000000, 0.0000000000000000000 ) ) ;
#467 = AXIS2_PLACEMENT_3D ( 'NONE', #647, #604, #29 ) ;
#468 = CARTESIAN_POINT ( 'NONE',  ( 0.8499999999999990896, 5.000000000000004441, 9.000000000000000000 ) ) ;
#469 = DIRECTION ( 'NONE',  ( -0.0000000000000000000, -1.000000000000000000, -0.0000000000000000000 ) ) ;
#470 = PERSON_AND_ORGANIZATION ( #396, #146 ) ;
#471 = CIRCLE ( 'NONE', #454, 14.65499999999999936 ) ;
#472 = EDGE_CURVE ( 'NONE', #553, #17, #631, .T. ) ;
#473 = VERTEX_POINT ( 'NONE', #404 ) ;
#474 = ADVANCED_FACE ( 'NONE', ( #624, #664 ), #301, .T. ) ;
#475 = CARTESIAN_POINT ( 'NONE',  ( 0.8512021599172878705, -1.060266058803109868, 9.210849286804862146 ) ) ;
#476 = VECTOR ( 'NONE', #101, 1000.000000000000000 ) ;
#477 = CARTESIAN_POINT ( 'NONE',  ( -5.873599157029761970E-14, -0.8232360589574425624, 9.850000000000624922 ) ) ;
#478 = ORIENTED_EDGE ( 'NONE', *, *, #208, .F. ) ;
#479 = ORIENTED_EDGE ( 'NONE', *, *, #323, .T. ) ;
#480 = EDGE_CURVE ( 'NONE', #280, #371, #502, .T. ) ;
#481 = CARTESIAN_POINT ( 'NONE',  ( -8.495787618625594842E-16, 5.000000000000004441, 9.000000000000000000 ) ) ;
#482 = ORIENTED_EDGE ( 'NONE', *, *, #564, .F. ) ;
#483 = ADVANCED_FACE ( 'NONE', ( #157 ), #53, .F. ) ;
#484 = DIRECTION ( 'NONE',  ( 0.0000000000000000000, 0.0000000000000000000, 1.000000000000000000 ) ) ;
#485 = CARTESIAN_POINT ( 'NONE',  ( 1.672255204235710688E-15, 0.6801222974232092877, 13.65500000000000114 ) ) ;
#486 = APPLICATION_PROTOCOL_DEFINITION ( 'international standard', 'config_control_design', 1994, #179 ) ;
#487 = CARTESIAN_POINT ( 'NONE',  ( -1.632540660857092707, -4.069960412629302304, 0.0000000000000000000 ) ) ;
#488 = COORDINATED_UNIVERSAL_TIME_OFFSET ( 0, 0, .AHEAD. ) ;
#489 = VECTOR ( 'NONE', #443, 999.9999999999998863 ) ;
#490 = SECURITY_CLASSIFICATION_LEVEL ( 'unclassified' ) ;
#491 = ORIENTED_EDGE ( 'NONE', *, *, #195, .T. ) ;
#492 = CARTESIAN_POINT ( 'NONE',  ( 0.0000000000000000000, 28.80999999999999872, 0.0000000000000000000 ) ) ;
#493 = ORIENTED_EDGE ( 'NONE', *, *, #162, .T. ) ;
#494 = CC_DESIGN_APPROVAL ( #255, ( #202 ) ) ;
#495 = EDGE_CURVE ( 'NONE', #586, #47, #471, .T. ) ;
#496 = DIRECTION ( 'NONE',  ( -1.000000000000000000, -1.224646799147352961E-16, 0.0000000000000000000 ) ) ;
#497 = FACE_OUTER_BOUND ( 'NONE', #250, .T. ) ;
#498 = CIRCLE ( 'NONE', #459, 2.000000000000000000 ) ;
#499 = ORIENTED_EDGE ( 'NONE', *, *, #619, .T. ) ;
#500 = DIRECTION ( 'NONE',  ( -0.0000000000000000000, -1.000000000000000000, -0.0000000000000000000 ) ) ;
#501 = PLANE ( 'NONE',  #110 ) ;
#502 = B_SPLINE_CURVE_WITH_KNOTS ( 'NONE', 3,
 ( #615, #613, #309, #407, #512, #668, #361, #400, #84, #453, #135, #112, #164, #363, #408, #621 ),
 .UNSPECIFIED., .F., .F.,
 ( 4, 2, 2, 2, 2, 2, 2, 4 ),
 ( 0.004997330752074296417, 0.005341831622009622638, 0.005686332491944949726, 0.006030833361880276813, 0.006375334231815603034, 0.007064335971686255475, 0.007408836841621584297, 0.007753337711556913120 ),
 .UNSPECIFIED. ) ;
#503 = CARTESIAN_POINT ( 'NONE',  ( 1.632540660857093373, -4.069960412629302304, 1.999285694796543679E-16 ) ) ;
#504 = AXIS2_PLACEMENT_3D ( 'NONE', #449, #32, #397 ) ;
#505 = ORIENTED_EDGE ( 'NONE', *, *, #82, .T. ) ;
#506 = ORIENTED_EDGE ( 'NONE', *, *, #82, .F. ) ;
#507 = EDGE_CURVE ( 'NONE', #198, #251, #181, .T. ) ;
#508 = CARTESIAN_POINT ( 'NONE',  ( 0.1158551749835686623, -2.570130383247729355, 8.149999999999998579 ) ) ;
#509 = AXIS2_PLACEMENT_3D ( 'NONE', #437, #228, #441 ) ;
#510 = CIRCLE ( 'NONE', #366, 14.65499999999999936 ) ;
#511 = ORIENTED_EDGE ( 'NONE', *, *, #619, .F. ) ;
#512 = CARTESIAN_POINT ( 'NONE',  ( -0.5353895589885191431, -1.416833035113544081, 8.330716550759543537 ) ) ;
#513 = ORIENTED_EDGE ( 'NONE', *, *, #119, .T. ) ;
#514 = EDGE_LOOP ( 'NONE', ( #235, #464, #479, #342, #634 ) ) ;
#515 = EDGE_CURVE ( 'NONE', #17, #473, #428, .T. ) ;
#516 = CARTESIAN_POINT ( 'NONE',  ( -0.2309934543797134421, -1.907139118513303977, 9.825888037265404051 ) ) ;
#517 = CARTESIAN_POINT ( 'NONE',  ( 2.197897961490952330E-31, -1.794719884150445837E-15, 0.0000000000000000000 ) ) ;
#518 = FACE_BOUND ( 'NONE', #602, .T. ) ;
#519 = ORIENTED_EDGE ( 'NONE', *, *, #129, .F. ) ;
#520 = CARTESIAN_POINT ( 'NONE',  ( 2.124423552260767346E-31, -1.794719884150445837E-15, -14.65499999999999936 ) ) ;
#521 = AXIS2_PLACEMENT_3D ( 'NONE', #646, #66, #279 ) ;
#522 = PRODUCT_DEFINITION_SHAPE ( 'NONE', 'NONE',  #375 ) ;
#523 = DIRECTION ( 'NONE',  ( 1.224646799147353207E-16, -1.000000000000000000, -0.0000000000000000000 ) ) ;
#524 = CALENDAR_DATE ( 2019, 12, 12 ) ;
#525 = ADVANCED_FACE ( 'NONE', ( #608 ), #376, .F. ) ;
#526 = EDGE_CURVE ( 'NONE', #600, #652, #338, .T. ) ;
#527 = ORIENTED_EDGE ( 'NONE', *, *, #178, .F. ) ;
#528 = CARTESIAN_POINT ( 'NONE',  ( 1.672255204235710491E-15, 28.80999999999999872, 13.65500000000000114 ) ) ;
#529 = DIRECTION ( 'NONE',  ( -1.224646799147353207E-16, 1.000000000000000000, -0.0000000000000000000 ) ) ;
#530 = CARTESIAN_POINT ( 'NONE',  ( -1.013481461286488353E-16, -2.570130383247730244, 8.149999999999995026 ) ) ;
#531 =( NAMED_UNIT ( * ) SI_UNIT ( $, .STERADIAN. ) SOLID_ANGLE_UNIT ( ) );
#532 = COORDINATED_UNIVERSAL_TIME_OFFSET ( 0, 0, .AHEAD. ) ;
#533 = DIRECTION ( 'NONE',  ( -0.0000000000000000000, -1.000000000000000000, -0.0000000000000000000 ) ) ;
#534 = VECTOR ( 'NONE', #637, 1000.000000000000114 ) ;
#535 = ORIENTED_EDGE ( 'NONE', *, *, #154, .T. ) ;
#536 = ADVANCED_FACE ( 'NONE', ( #191 ), #576, .F. ) ;
#537 = AXIS2_PLACEMENT_3D ( 'NONE', #91, #460, #458 ) ;
#538 = CARTESIAN_POINT ( 'NONE',  ( -13.65500000000000114, 0.6801222974232085106, 0.0000000000000000000 ) ) ;
#539 = DIRECTION ( 'NONE',  ( -1.000000000000000000, -1.190994696981513473E-16, 0.0000000000000000000 ) ) ;
#540 = EDGE_CURVE ( 'NONE', #259, #594, #39, .T. ) ;
#541 = PERSON_AND_ORGANIZATION ( #396, #146 ) ;
#542 = FACE_OUTER_BOUND ( 'NONE', #215, .T. ) ;
#543 = CARTESIAN_POINT ( 'NONE',  ( 0.8500000000000016431, -16.00000000000000000, 9.000000000000000000 ) ) ;
#544 = VERTEX_POINT ( 'NONE', #49 ) ;
#545 = DIRECTION ( 'NONE',  ( 1.000000000000000000, 1.224646799147353207E-16, 0.0000000000000000000 ) ) ;
#546 = ORIENTED_EDGE ( 'NONE', *, *, #30, .T. ) ;
#547 = CARTESIAN_POINT ( 'NONE',  ( -1.760230223315145916E-16, -0.5000000000000004441, 9.000000000000000000 ) ) ;
#548 = B_SPLINE_CURVE_WITH_KNOTS ( 'NONE', 3,
 ( #612, #565, #307, #663, #556, #356, #252, #241, #40, #606, #137, #245, #508, #563 ),
 .UNSPECIFIED., .F., .F.,
 ( 4, 2, 2, 2, 2, 2, 4 ),
 ( 0.002325957735928998755, 0.002670543459814855511, 0.003015129183700712701, 0.003704300631472422743, 0.004393472079244132786, 0.004738057803129988241, 0.005082643527015843696 ),
 .UNSPECIFIED. ) ;
#549 = CARTESIAN_POINT ( 'NONE',  ( 2.197897961490952330E-31, -1.794719884150445837E-15, 0.0000000000000000000 ) ) ;
#550 = EDGE_CURVE ( 'NONE', #553, #47, #455, .T. ) ;
#551 = LOCAL_TIME ( 17, 0, 13.00000000000000000, #607 ) ;
#552 = VECTOR ( 'NONE', #50, 1000.000000000000114 ) ;
#553 = VERTEX_POINT ( 'NONE', #152 ) ;
#554 = CARTESIAN_POINT ( 'NONE',  ( 0.0000000000000000000, -9.190000000000001279, 9.849999999999999645 ) ) ;
#555 = ADVANCED_BREP_SHAPE_REPRESENTATION ( '60mL syringe cuttedv3', ( #368, #243, #509 ), #638 ) ;
#556 = CARTESIAN_POINT ( 'NONE',  ( 0.5358568679666777523, -1.964144540458749422, 9.669265442579618508 ) ) ;
#557 = CC_DESIGN_PERSON_AND_ORGANIZATION_ASSIGNMENT ( #541, #120, ( #202 ) ) ;
#558 = APPROVAL_DATE_TIME ( #175, #218 ) ;
#559 = CIRCLE ( 'NONE', #657, 13.65500000000000114 ) ;
#560 = DIRECTION ( 'NONE',  ( -1.000000000000000000, -1.224646799147352961E-16, 0.0000000000000000000 ) ) ;
#561 = FACE_OUTER_BOUND ( 'NONE', #462, .T. ) ;
#562 = ORIENTED_EDGE ( 'NONE', *, *, #162, .F. ) ;
#563 = CARTESIAN_POINT ( 'NONE',  ( -1.013481461286488353E-16, -2.570130383247730244, 8.149999999999995026 ) ) ;
#564 = EDGE_CURVE ( 'NONE', #56, #233, #411, .T. ) ;
#565 = CARTESIAN_POINT ( 'NONE',  ( 0.1150092531371914306, -1.898459107072303143, 9.849999999999999645 ) ) ;
#566 = DIRECTION ( 'NONE',  ( -1.000000000000000000, -1.224646799147352961E-16, 0.0000000000000000000 ) ) ;
#567 = DIRECTION ( 'NONE',  ( -1.224646799147353207E-16, 1.000000000000000000, -0.0000000000000000000 ) ) ;
#568 = APPROVAL_PERSON_ORGANIZATION ( #184, #255, #69 ) ;
#569 = CYLINDRICAL_SURFACE ( 'NONE', #622, 13.65500000000000114 ) ;
#570 = ORIENTED_EDGE ( 'NONE', *, *, #46, .T. ) ;
#571 = DIRECTION ( 'NONE',  ( 1.224646799147353207E-16, -1.000000000000000000, -0.0000000000000000000 ) ) ;
#572 = AXIS2_PLACEMENT_3D ( 'NONE', #199, #581, #620 ) ;
#573 = CARTESIAN_POINT ( 'NONE',  ( 0.7471212829190309046, -1.312015018126919674, 8.580492351622568847 ) ) ;
#574 = COORDINATED_UNIVERSAL_TIME_OFFSET ( 0, 0, .AHEAD. ) ;
#575 = AXIS2_PLACEMENT_3D ( 'NONE', #58, #373, #420 ) ;
#576 = CYLINDRICAL_SURFACE ( 'NONE', #572, 13.65500000000000114 ) ;
#577 = CARTESIAN_POINT ( 'NONE',  ( 0.5334381975631704575, -1.417524467526559473, 8.329092334492306904 ) ) ;
#578 = ORIENTED_EDGE ( 'NONE', *, *, #208, .T. ) ;
#579 = EDGE_LOOP ( 'NONE', ( #617, #505, #493, #330 ) ) ;
#580 = CARTESIAN_POINT ( 'NONE',  ( 4.898587196589412829E-16, -4.000000000000000000, 0.0000000000000000000 ) ) ;
#581 = DIRECTION ( 'NONE',  ( -0.0000000000000000000, -1.000000000000000000, -0.0000000000000000000 ) ) ;
#582 = CARTESIAN_POINT ( 'NONE',  ( 1.809610465221857423, -4.000000000000000000, 9.469342853147304587E-16 ) ) ;
#583 = LINE ( 'NONE', #168, #327 ) ;
#584 = AXIS2_PLACEMENT_3D ( 'NONE', #18, #165, #597 ) ;
#585 = ORIENTED_EDGE ( 'NONE', *, *, #446, .T. ) ;
#586 = VERTEX_POINT ( 'NONE', #520 ) ;
#587 = CLOSED_SHELL ( 'NONE', ( #676, #483, #64, #13, #161, #67, #474, #319, #207, #536, #326, #377, #269 ) ) ;
#588 = DIRECTION ( 'NONE',  ( 1.000000000000000000, 1.054717343436125182E-16, 0.0000000000000000000 ) ) ;
#589 = DIRECTION ( 'NONE',  ( 0.06975647374412533019, 0.9975640502598241977, 0.0000000000000000000 ) ) ;
#590 = DATE_TIME_ROLE ( 'classification_date' ) ;
#591 = COORDINATED_UNIVERSAL_TIME_OFFSET ( 0, 0, .AHEAD. ) ;
#592 = CARTESIAN_POINT ( 'NONE',  ( 1.794719884150445837E-15, 28.80999999999999872, 14.65499999999999936 ) ) ;
#593 = VECTOR ( 'NONE', #461, 1000.000000000000114 ) ;
#594 = VERTEX_POINT ( 'NONE', #213 ) ;
#595 = CC_DESIGN_PERSON_AND_ORGANIZATION_ASSIGNMENT ( #285, #174, ( #298 ) ) ;
#596 = APPLICATION_CONTEXT ( 'configuration controlled 3d designs of mechanical parts and assemblies' ) ;
#597 = DIRECTION ( 'NONE',  ( 1.000000000000000000, 0.0000000000000000000, 0.0000000000000000000 ) ) ;
#598 = EDGE_CURVE ( 'NONE', #348, #473, #60, .T. ) ;
#599 = CIRCLE ( 'NONE', #37, 13.65500000000000114 ) ;
#600 = VERTEX_POINT ( 'NONE', #258 ) ;
#601 = CARTESIAN_POINT ( 'NONE',  ( -1.760230223315145916E-16, -0.5000000000000004441, 9.000000000000000000 ) ) ;
#602 = EDGE_LOOP ( 'NONE', ( #169, #673 ) ) ;
#603 = EDGE_LOOP ( 'NONE', ( #506, #414, #206, #370 ) ) ;
#604 = DIRECTION ( 'NONE',  ( -0.0000000000000000000, 1.000000000000000000, -0.0000000000000000000 ) ) ;
#605 = AXIS2_PLACEMENT_3D ( 'NONE', #65, #344, #219 ) ;
#606 = CARTESIAN_POINT ( 'NONE',  ( 0.5339391678952036813, -2.492541437209640165, 8.329579780608137085 ) ) ;
#607 = COORDINATED_UNIVERSAL_TIME_OFFSET ( 0, 0, .AHEAD. ) ;
#608 = FACE_OUTER_BOUND ( 'NONE', #579, .T. ) ;
#609 = ORIENTED_EDGE ( 'NONE', *, *, #540, .F. ) ;
#610 = DIRECTION ( 'NONE',  ( 0.0000000000000000000, 1.000000000000000000, 0.0000000000000000000 ) ) ;
#611 = AXIS2_PLACEMENT_3D ( 'NONE', #113, #427, #588 ) ;
#612 = CARTESIAN_POINT ( 'NONE',  ( -2.150188703030049226E-21, -1.898459107072303587, 9.849999999999999645 ) ) ;
#613 = CARTESIAN_POINT ( 'NONE',  ( -0.1150033824146061145, -1.494907335133092152, 8.149999999999996803 ) ) ;
#614 = CARTESIAN_POINT ( 'NONE',  ( 2.000000000000000444, -5.000000000000000000, 1.019824621989958461E-15 ) ) ;
#615 = CARTESIAN_POINT ( 'NONE',  ( 1.041106940289689277E-16, -1.494907335133092374, 8.149999999999998579 ) ) ;
#616 = CIRCLE ( 'NONE', #611, 3.083865585124413666 ) ;
#617 = ORIENTED_EDGE ( 'NONE', *, *, #311, .F. ) ;
#618 = CARTESIAN_POINT ( 'NONE',  ( -0.1150025650846804998, -1.898459107072303143, 9.850000000000001421 ) ) ;
#619 = EDGE_CURVE ( 'NONE', #240, #205, #312, .T. ) ;
#620 = DIRECTION ( 'NONE',  ( 0.0000000000000000000, 0.0000000000000000000, -1.000000000000000000 ) ) ;
#621 = CARTESIAN_POINT ( 'NONE',  ( -5.873599157029761970E-14, -0.8232360589574425624, 9.850000000000624922 ) ) ;
#622 = AXIS2_PLACEMENT_3D ( 'NONE', #417, #469, #629 ) ;
#623 = PERSON_AND_ORGANIZATION ( #396, #146 ) ;
#624 = FACE_BOUND ( 'NONE', #321, .T. ) ;
#625 = DIRECTION ( 'NONE',  ( 0.0000000000000000000, 0.0000000000000000000, -1.000000000000000000 ) ) ;
#626 = CC_DESIGN_DATE_AND_TIME_ASSIGNMENT ( #139, #590, ( #298 ) ) ;
#627 = DIRECTION ( 'NONE',  ( -1.224646799147353207E-16, 1.000000000000000000, -0.0000000000000000000 ) ) ;
#628 = ADVANCED_FACE ( 'NONE', ( #211 ), #78, .T. ) ;
#629 = DIRECTION ( 'NONE',  ( 0.0000000000000000000, 0.0000000000000000000, -1.000000000000000000 ) ) ;
#630 = AXIS2_PLACEMENT_3D ( 'NONE', #107, #325, #105 ) ;
#631 = CIRCLE ( 'NONE', #537, 2.000000000000000000 ) ;
#632 = CARTESIAN_POINT ( 'NONE',  ( 0.4393494665638405516, -1.445673847128644329, 8.263570960749174077 ) ) ;
#633 = EDGE_LOOP ( 'NONE', ( #104, #150, #387, #463, #166 ) ) ;
#634 = ORIENTED_EDGE ( 'NONE', *, *, #403, .T. ) ;
#635 = CARTESIAN_POINT ( 'NONE',  ( 0.2312155292843091348, -0.8319306931481409428, 9.825847167160059570 ) ) ;
#636 = DIRECTION ( 'NONE',  ( 0.0000000000000000000, 0.0000000000000000000, 1.000000000000000000 ) ) ;
#637 = DIRECTION ( 'NONE',  ( -0.9300395873706979177, 0.3674593391429069600, 0.0000000000000000000 ) ) ;
#638 =( GEOMETRIC_REPRESENTATION_CONTEXT ( 3 ) GLOBAL_UNCERTAINTY_ASSIGNED_CONTEXT ( ( #170 ) ) GLOBAL_UNIT_ASSIGNED_CONTEXT ( ( #383, #339, #531 ) ) REPRESENTATION_CONTEXT ( 'NONE', 'WORKASPACE' ) );
#639 = VECTOR ( 'NONE', #183, 1000.000000000000114 ) ;
#640 = DIRECTION ( 'NONE',  ( 0.0000000000000000000, 1.000000000000000000, 0.0000000000000000000 ) ) ;
#641 = ORIENTED_EDGE ( 'NONE', *, *, #515, .F. ) ;
#642 = APPROVAL_STATUS ( 'not_yet_approved' ) ;
#643 = CARTESIAN_POINT ( 'NONE',  ( -8.329095945680782755E-17, 0.6801222974232092877, 0.0000000000000000000 ) ) ;
#644 = AXIS2_PLACEMENT_3D ( 'NONE', #435, #217, #281 ) ;
#645 = DIRECTION ( 'NONE',  ( -1.000000000000000000, 0.0000000000000000000, 0.0000000000000000000 ) ) ;
#646 = CARTESIAN_POINT ( 'NONE',  ( 0.0000000000000000000, -9.190000000000001279, 9.000000000000000000 ) ) ;
#647 = CARTESIAN_POINT ( 'NONE',  ( 0.0000000000000000000, -9.190000000000001279, 9.000000000000000000 ) ) ;
#648 = LINE ( 'NONE', #487, #534 ) ;
#649 = CONICAL_SURFACE ( 'NONE', #189, 2.000000000000000000, 1.194520562449902235 ) ;
#650 = EDGE_LOOP ( 'NONE', ( #188, #45 ) ) ;
#651 = DIRECTION ( 'NONE',  ( -1.224646799147353207E-16, 1.000000000000000000, 0.0000000000000000000 ) ) ;
#652 = VERTEX_POINT ( 'NONE', #543 ) ;
#653 = AXIS2_PLACEMENT_3D ( 'NONE', #430, #172, #539 ) ;
#654 = DIRECTION ( 'NONE',  ( -0.0000000000000000000, -1.000000000000000000, -0.0000000000000000000 ) ) ;
#655 = CIRCLE ( 'NONE', #389, 0.8499999999999999778 ) ;
#656 = PLANE ( 'NONE',  #90 ) ;
#657 = AXIS2_PLACEMENT_3D ( 'NONE', #643, #22, #75 ) ;
#658 = ORIENTED_EDGE ( 'NONE', *, *, #409, .F. ) ;
#659 = ORIENTED_EDGE ( 'NONE', *, *, #446, .F. ) ;
#660 = CARTESIAN_POINT ( 'NONE',  ( 1.040949779275250140E-16, -9.190000000000001279, 8.149999999999998579 ) ) ;
#661 = CARTESIAN_POINT ( 'NONE',  ( 2.197897961490952330E-31, -1.794719884150445837E-15, 0.0000000000000000000 ) ) ;
#662 = APPROVAL ( #642, 'UNSPECIFIED' ) ;
#663 = CARTESIAN_POINT ( 'NONE',  ( 0.4413607542486936985, -1.940007453246779701, 9.735427248129671085 ) ) ;
#664 = FACE_OUTER_BOUND ( 'NONE', #15, .T. ) ;
#665 = CIRCLE ( 'NONE', #346, 1.809610465221856979 ) ;
#666 = ORIENTED_EDGE ( 'NONE', *, *, #507, .F. ) ;
#667 = EDGE_CURVE ( 'NONE', #259, #36, #583, .T. ) ;
#668 = CARTESIAN_POINT ( 'NONE',  ( -0.6880300700889243615, -1.350114060516807823, 8.488925702119001215 ) ) ;
#669 = DIRECTION ( 'NONE',  ( 1.000000000000000000, 0.0000000000000000000, 0.0000000000000000000 ) ) ;
#670 = DIRECTION ( 'NONE',  ( -1.000000000000000000, 0.0000000000000000000, 0.0000000000000000000 ) ) ;
#671 = CYLINDRICAL_SURFACE ( 'NONE', #644, 14.65499999999999936 ) ;
#672 = DIRECTION ( 'NONE',  ( -1.000000000000000000, 0.0000000000000000000, 0.0000000000000000000 ) ) ;
#673 = ORIENTED_EDGE ( 'NONE', *, *, #311, .T. ) ;
#674 = CARTESIAN_POINT ( 'NONE',  ( -0.8502558406757212417, -2.176890337239984152, 9.105685139561590091 ) ) ;
#675 = CARTESIAN_POINT ( 'NONE',  ( 0.8493786602087061155, -1.187566976706647459, 8.887387717008401467 ) ) ;
#676 = ADVANCED_FACE ( 'NONE', ( #447 ), #359, .F. ) ;
#677 = EDGE_CURVE ( 'NONE', #108, #56, #599, .T. ) ;
ENDSEC;
END-ISO-10303-21;
