ISO-10303-21;
HEADER;
FILE_DESCRIPTION (( 'STEP AP203' ),
    '1' );
FILE_NAME ('electronics cover.STEP',
    '2019-12-12T17:00:32',
    ( '' ),
    ( '' ),
    'SwSTEP 2.0',
    'SolidWorks 2018',
    '' );
FILE_SCHEMA (( 'CONFIG_CONTROL_DESIGN' ));
ENDSEC;

DATA;
#1 = LINE ( 'NONE', #35, #91 ) ;
#2 = EDGE_LOOP ( 'NONE', ( #174, #39, #313, #375 ) ) ;
#3 = COORDINATED_UNIVERSAL_TIME_OFFSET ( 0, 0, .AHEAD. ) ;
#4 = CARTESIAN_POINT ( 'NONE',  ( 0.0000000000000000000, 0.0000000000000000000, 0.0000000000000000000 ) ) ;
#5 = DIRECTION ( 'NONE',  ( -0.0000000000000000000, -1.000000000000000000, -0.0000000000000000000 ) ) ;
#6 = CIRCLE ( 'NONE', #439, 0.9499999999999995115 ) ;
#7 = EDGE_CURVE ( 'NONE', #128, #144, #160, .T. ) ;
#8 = ORIENTED_EDGE ( 'NONE', *, *, #392, .F. ) ;
#9 = DIRECTION ( 'NONE',  ( 0.0000000000000000000, 1.000000000000000000, 0.0000000000000000000 ) ) ;
#10 = DIRECTION ( 'NONE',  ( 0.0000000000000000000, 0.0000000000000000000, 1.000000000000000000 ) ) ;
#11 = CARTESIAN_POINT ( 'NONE',  ( 48.16000000000000369, 0.0000000000000000000, -14.05000000000000071 ) ) ;
#12 = LINE ( 'NONE', #11, #140 ) ;
#13 = ORIENTED_EDGE ( 'NONE', *, *, #415, .T. ) ;
#14 = ADVANCED_FACE ( 'NONE', ( #136, #215, #127 ), #421, .T. ) ;
#15 = DIRECTION ( 'NONE',  ( 0.0000000000000000000, 0.0000000000000000000, 1.000000000000000000 ) ) ;
#16 = CARTESIAN_POINT ( 'NONE',  ( 2.000000000000000000, 3.000000000000000000, -14.05000000000000249 ) ) ;
#17 = PRODUCT_DEFINITION ( 'UNKNOWN', '', #315, #306 ) ;
#18 = PLANE ( 'NONE',  #272 ) ;
#19 = LINE ( 'NONE', #97, #104 ) ;
#20 = FACE_BOUND ( 'NONE', #292, .T. ) ;
#21 = CARTESIAN_POINT ( 'NONE',  ( 48.16000000000000369, 0.0000000000000000000, -15.00000000000000178 ) ) ;
#22 = EDGE_LOOP ( 'NONE', ( #202, #169, #201, #166 ) ) ;
#23 = EDGE_CURVE ( 'NONE', #115, #34, #428, .T. ) ;
#24 = DIRECTION ( 'NONE',  ( 0.0000000000000000000, 0.0000000000000000000, 1.000000000000000000 ) ) ;
#25 = ORIENTED_EDGE ( 'NONE', *, *, #173, .F. ) ;
#26 = ORIENTED_EDGE ( 'NONE', *, *, #415, .F. ) ;
#27 = DIRECTION ( 'NONE',  ( -0.0000000000000000000, -1.000000000000000000, 0.0000000000000000000 ) ) ;
#28 = AXIS2_PLACEMENT_3D ( 'NONE', #396, #324, #182 ) ;
#29 = CARTESIAN_POINT ( 'NONE',  ( 48.16000000000000369, 3.000000000000000000, -15.00000000000000178 ) ) ;
#30 = CARTESIAN_POINT ( 'NONE',  ( 0.0000000000000000000, 3.000000000000000000, -27.00000000000000000 ) ) ;
#31 = LINE ( 'NONE', #196, #176 ) ;
#32 = APPROVAL_ROLE ( '' ) ;
#33 = ORIENTED_EDGE ( 'NONE', *, *, #158, .F. ) ;
#34 = VERTEX_POINT ( 'NONE', #79 ) ;
#35 = CARTESIAN_POINT ( 'NONE',  ( 2.000000000000000000, 0.0000000000000000000, -14.05000000000000249 ) ) ;
#36 = AXIS2_PLACEMENT_3D ( 'NONE', #263, #258, #126 ) ;
#37 = PERSON_AND_ORGANIZATION_ROLE ( 'design_supplier' ) ;
#38 = LINE ( 'NONE', #355, #393 ) ;
#39 = ORIENTED_EDGE ( 'NONE', *, *, #444, .T. ) ;
#40 = CALENDAR_DATE ( 2019, 12, 12 ) ;
#41 = DIRECTION ( 'NONE',  ( 0.0000000000000000000, -0.0000000000000000000, -1.000000000000000000 ) ) ;
#42 = AXIS2_PLACEMENT_3D ( 'NONE', #57, #372, #187 ) ;
#43 = LINE ( 'NONE', #150, #409 ) ;
#44 = FACE_OUTER_BOUND ( 'NONE', #22, .T. ) ;
#45 = EDGE_CURVE ( 'NONE', #137, #280, #38, .T. ) ;
#46 = CARTESIAN_POINT ( 'NONE',  ( 0.0000000000000000000, 3.000000000000000000, 0.0000000000000000000 ) ) ;
#47 = ORIENTED_EDGE ( 'NONE', *, *, #45, .T. ) ;
#48 = ORIENTED_EDGE ( 'NONE', *, *, #120, .T. ) ;
#49 = CARTESIAN_POINT ( 'NONE',  ( 1.000000000000000000, 0.0000000000000000000, -28.00000000000000000 ) ) ;
#50 = ADVANCED_FACE ( 'NONE', ( #410 ), #420, .F. ) ;
#51 = CARTESIAN_POINT ( 'NONE',  ( 49.00000000000000000, 3.000000000000000000, -28.00000000000000000 ) ) ;
#52 = CARTESIAN_POINT ( 'NONE',  ( 0.0000000000000000000, 3.000000000000000000, 0.0000000000000000000 ) ) ;
#53 = VECTOR ( 'NONE', #96, 1000.000000000000000 ) ;
#54 = VECTOR ( 'NONE', #5, 1000.000000000000000 ) ;
#55 = CARTESIAN_POINT ( 'NONE',  ( 2.000000000000000000, 3.000000000000000000, -15.00000000000000178 ) ) ;
#56 = ADVANCED_FACE ( 'NONE', ( #44 ), #320, .F. ) ;
#57 = CARTESIAN_POINT ( 'NONE',  ( 49.00000000000000000, 0.0000000000000000000, -27.00000000000000000 ) ) ;
#58 = AXIS2_PLACEMENT_3D ( 'NONE', #29, #203, #274 ) ;
#59 = ADVANCED_FACE ( 'NONE', ( #122, #20, #298 ), #326, .F. ) ;
#60 = DIRECTION ( 'NONE',  ( 0.0000000000000000000, 1.000000000000000000, 0.0000000000000000000 ) ) ;
#61 = SHAPE_DEFINITION_REPRESENTATION ( #267, #317 ) ;
#62 = ORIENTED_EDGE ( 'NONE', *, *, #206, .F. ) ;
#63 = VERTEX_POINT ( 'NONE', #51 ) ;
#64 = COORDINATED_UNIVERSAL_TIME_OFFSET ( 0, 0, .AHEAD. ) ;
#65 = CARTESIAN_POINT ( 'NONE',  ( 0.0000000000000000000, 3.000000000000000000, -28.00000000000000000 ) ) ;
#66 = DIRECTION ( 'NONE',  ( 0.0000000000000000000, 0.0000000000000000000, -1.000000000000000000 ) ) ;
#67 =( LENGTH_UNIT ( ) NAMED_UNIT ( * ) SI_UNIT ( .MILLI., .METRE. ) );
#68 = VECTOR ( 'NONE', #154, 1000.000000000000000 ) ;
#69 = APPLICATION_PROTOCOL_DEFINITION ( 'international standard', 'config_control_design', 1994, #237 ) ;
#70 = CC_DESIGN_APPROVAL ( #352, ( #17 ) ) ;
#71 = DIRECTION ( 'NONE',  ( -0.0000000000000000000, 1.000000000000000000, -0.0000000000000000000 ) ) ;
#72 = EDGE_CURVE ( 'NONE', #325, #429, #275, .T. ) ;
#73 = VERTEX_POINT ( 'NONE', #214 ) ;
#74 = ORIENTED_EDGE ( 'NONE', *, *, #120, .F. ) ;
#75 = PERSON_AND_ORGANIZATION ( #155, #143 ) ;
#76 = LINE ( 'NONE', #90, #53 ) ;
#77 = ORIENTED_EDGE ( 'NONE', *, *, #134, .T. ) ;
#78 = AXIS2_PLACEMENT_3D ( 'NONE', #408, #27, #66 ) ;
#79 = CARTESIAN_POINT ( 'NONE',  ( 2.000000000000000000, 3.000000000000000000, -15.95000000000000284 ) ) ;
#80 = ORIENTED_EDGE ( 'NONE', *, *, #444, .F. ) ;
#81 = VERTEX_POINT ( 'NONE', #119 ) ;
#82 = DIRECTION ( 'NONE',  ( 1.000000000000000000, -0.0000000000000000000, 0.0000000000000000000 ) ) ;
#83 = DIRECTION ( 'NONE',  ( -0.0000000000000000000, 1.000000000000000000, -0.0000000000000000000 ) ) ;
#84 = PRODUCT ( 'electronics cover', 'electronics cover', '', ( #102 ) ) ;
#85 = LINE ( 'NONE', #149, #113 ) ;
#86 = VERTEX_POINT ( 'NONE', #219 ) ;
#87 = DIRECTION ( 'NONE',  ( 0.0000000000000000000, 1.000000000000000000, 0.0000000000000000000 ) ) ;
#88 = DIRECTION ( 'NONE',  ( -0.0000000000000000000, -1.000000000000000000, -0.0000000000000000000 ) ) ;
#89 = DIRECTION ( 'NONE',  ( 0.0000000000000000000, 0.0000000000000000000, 1.000000000000000000 ) ) ;
#90 = CARTESIAN_POINT ( 'NONE',  ( 0.0000000000000000000, 3.000000000000000000, 0.0000000000000000000 ) ) ;
#91 = VECTOR ( 'NONE', #311, 1000.000000000000000 ) ;
#92 = EDGE_CURVE ( 'NONE', #383, #325, #342, .T. ) ;
#93 = ORIENTED_EDGE ( 'NONE', *, *, #147, .T. ) ;
#94 = EDGE_LOOP ( 'NONE', ( #369, #350, #276, #162 ) ) ;
#95 = PERSON_AND_ORGANIZATION ( #155, #143 ) ;
#96 = DIRECTION ( 'NONE',  ( -0.0000000000000000000, -0.0000000000000000000, 1.000000000000000000 ) ) ;
#97 = CARTESIAN_POINT ( 'NONE',  ( 50.00000000000000000, 3.000000000000000000, -27.00000000000000000 ) ) ;
#98 = FACE_OUTER_BOUND ( 'NONE', #223, .T. ) ;
#99 = APPROVAL ( #135, 'UNSPECIFIED' ) ;
#100 = COORDINATED_UNIVERSAL_TIME_OFFSET ( 0, 0, .AHEAD. ) ;
#101 = CARTESIAN_POINT ( 'NONE',  ( 48.16000000000000369, 3.000000000000000000, -15.00000000000000178 ) ) ;
#102 = MECHANICAL_CONTEXT ( 'NONE', #237, 'mechanical' ) ;
#103 = EDGE_CURVE ( 'NONE', #153, #436, #85, .T. ) ;
#104 = VECTOR ( 'NONE', #125, 1000.000000000000000 ) ;
#105 = ORIENTED_EDGE ( 'NONE', *, *, #407, .F. ) ;
#106 = DIRECTION ( 'NONE',  ( 0.0000000000000000000, 0.0000000000000000000, 1.000000000000000000 ) ) ;
#107 =( GEOMETRIC_REPRESENTATION_CONTEXT ( 3 ) GLOBAL_UNCERTAINTY_ASSIGNED_CONTEXT ( ( #433 ) ) GLOBAL_UNIT_ASSIGNED_CONTEXT ( ( #67, #130, #377 ) ) REPRESENTATION_CONTEXT ( 'NONE', 'WORKASPACE' ) );
#108 = DATE_AND_TIME ( #281, #338 ) ;
#109 = SECURITY_CLASSIFICATION_LEVEL ( 'unclassified' ) ;
#110 = ORIENTED_EDGE ( 'NONE', *, *, #23, .F. ) ;
#111 = APPROVAL_PERSON_ORGANIZATION ( #293, #99, #455 ) ;
#112 = SECURITY_CLASSIFICATION ( '', '', #109 ) ;
#113 = VECTOR ( 'NONE', #88, 1000.000000000000000 ) ;
#114 = APPROVAL_PERSON_ORGANIZATION ( #95, #307, #419 ) ;
#115 = VERTEX_POINT ( 'NONE', #16 ) ;
#116 = EDGE_LOOP ( 'NONE', ( #105, #13, #314, #331, #74, #336 ) ) ;
#117 = CC_DESIGN_PERSON_AND_ORGANIZATION_ASSIGNMENT ( #418, #385, ( #112 ) ) ;
#118 = CARTESIAN_POINT ( 'NONE',  ( 0.0000000000000000000, 0.0000000000000000000, 0.0000000000000000000 ) ) ;
#119 = CARTESIAN_POINT ( 'NONE',  ( 50.00000000000000000, 3.000000000000000000, -27.00000000000000000 ) ) ;
#120 = EDGE_CURVE ( 'NONE', #436, #229, #426, .T. ) ;
#121 = FACE_OUTER_BOUND ( 'NONE', #453, .T. ) ;
#122 = FACE_BOUND ( 'NONE', #284, .T. ) ;
#123 = DIRECTION ( 'NONE',  ( 0.0000000000000000000, 0.0000000000000000000, 1.000000000000000000 ) ) ;
#124 = CC_DESIGN_APPROVAL ( #99, ( #315 ) ) ;
#125 = DIRECTION ( 'NONE',  ( -0.0000000000000000000, 1.000000000000000000, -0.0000000000000000000 ) ) ;
#126 = DIRECTION ( 'NONE',  ( 0.0000000000000000000, 0.0000000000000000000, -1.000000000000000000 ) ) ;
#127 = FACE_OUTER_BOUND ( 'NONE', #116, .T. ) ;
#128 = VERTEX_POINT ( 'NONE', #46 ) ;
#129 = CARTESIAN_POINT ( 'NONE',  ( 0.0000000000000000000, 3.000000000000000000, 0.0000000000000000000 ) ) ;
#130 =( NAMED_UNIT ( * ) PLANE_ANGLE_UNIT ( ) SI_UNIT ( $, .RADIAN. ) );
#131 = LINE ( 'NONE', #451, #435 ) ;
#132 = VERTEX_POINT ( 'NONE', #295 ) ;
#133 = APPROVAL_DATE_TIME ( #225, #307 ) ;
#134 = EDGE_CURVE ( 'NONE', #153, #81, #348, .T. ) ;
#135 = APPROVAL_STATUS ( 'not_yet_approved' ) ;
#136 = FACE_BOUND ( 'NONE', #394, .T. ) ;
#137 = VERTEX_POINT ( 'NONE', #49 ) ;
#138 = APPROVAL_DATE_TIME ( #178, #99 ) ;
#139 = AXIS2_PLACEMENT_3D ( 'NONE', #52, #146, #253 ) ;
#140 = VECTOR ( 'NONE', #252, 1000.000000000000000 ) ;
#141 = EDGE_LOOP ( 'NONE', ( #210, #262, #62, #249 ) ) ;
#142 = CC_DESIGN_PERSON_AND_ORGANIZATION_ASSIGNMENT ( #395, #37, ( #315 ) ) ;
#143 = ORGANIZATION ( 'UNSPECIFIED', 'UNSPECIFIED', '' ) ;
#144 = VERTEX_POINT ( 'NONE', #118 ) ;
#145 = ORIENTED_EDGE ( 'NONE', *, *, #248, .F. ) ;
#146 = DIRECTION ( 'NONE',  ( 0.0000000000000000000, -1.000000000000000000, 0.0000000000000000000 ) ) ;
#147 = EDGE_CURVE ( 'NONE', #144, #436, #43, .T. ) ;
#148 = DATE_AND_TIME ( #40, #399 ) ;
#149 = CARTESIAN_POINT ( 'NONE',  ( 50.00000000000000000, 3.000000000000000000, 0.0000000000000000000 ) ) ;
#150 = CARTESIAN_POINT ( 'NONE',  ( 0.0000000000000000000, 0.0000000000000000000, 0.0000000000000000000 ) ) ;
#151 = EDGE_CURVE ( 'NONE', #81, #63, #246, .T. ) ;
#152 = FACE_OUTER_BOUND ( 'NONE', #177, .T. ) ;
#153 = VERTEX_POINT ( 'NONE', #251 ) ;
#154 = DIRECTION ( 'NONE',  ( 0.0000000000000000000, -1.000000000000000000, 0.0000000000000000000 ) ) ;
#155 = PERSON ( 'UNSPECIFIED', 'UNSPECIFIED', 'UNSPECIFIED', ('UNSPECIFIED'), ('UNSPECIFIED'), ('UNSPECIFIED') ) ;
#156 = DIRECTION ( 'NONE',  ( 1.000000000000000000, 0.0000000000000000000, -0.0000000000000000000 ) ) ;
#157 = CARTESIAN_POINT ( 'NONE',  ( 0.0000000000000000000, 0.0000000000000000000, -28.00000000000000000 ) ) ;
#158 = EDGE_CURVE ( 'NONE', #383, #417, #12, .T. ) ;
#159 = CYLINDRICAL_SURFACE ( 'NONE', #36, 1.000000000000000888 ) ;
#160 = LINE ( 'NONE', #207, #54 ) ;
#161 = DIRECTION ( 'NONE',  ( 0.0000000000000000000, 1.000000000000000000, 0.0000000000000000000 ) ) ;
#162 = ORIENTED_EDGE ( 'NONE', *, *, #389, .T. ) ;
#163 = DIRECTION ( 'NONE',  ( 0.0000000000000000000, 0.0000000000000000000, 1.000000000000000000 ) ) ;
#164 = DIRECTION ( 'NONE',  ( 0.0000000000000000000, 0.0000000000000000000, -1.000000000000000000 ) ) ;
#165 = LINE ( 'NONE', #333, #68 ) ;
#166 = ORIENTED_EDGE ( 'NONE', *, *, #23, .T. ) ;
#167 = APPLICATION_CONTEXT ( 'configuration controlled 3d designs of mechanical parts and assemblies' ) ;
#168 = DIRECTION ( 'NONE',  ( -0.0000000000000000000, -0.0000000000000000000, 1.000000000000000000 ) ) ;
#169 = ORIENTED_EDGE ( 'NONE', *, *, #343, .F. ) ;
#170 = ORIENTED_EDGE ( 'NONE', *, *, #220, .T. ) ;
#171 = DATE_TIME_ROLE ( 'classification_date' ) ;
#172 = VECTOR ( 'NONE', #341, 1000.000000000000000 ) ;
#173 = EDGE_CURVE ( 'NONE', #280, #404, #297, .T. ) ;
#174 = ORIENTED_EDGE ( 'NONE', *, *, #316, .F. ) ;
#175 = AXIS2_PLACEMENT_3D ( 'NONE', #240, #345, #266 ) ;
#176 = VECTOR ( 'NONE', #168, 1000.000000000000000 ) ;
#177 = EDGE_LOOP ( 'NONE', ( #48, #170, #189, #361 ) ) ;
#178 = DATE_AND_TIME ( #232, #304 ) ;
#179 = CARTESIAN_POINT ( 'NONE',  ( 48.16000000000000369, 0.0000000000000000000, -15.00000000000000178 ) ) ;
#180 = ADVANCED_FACE ( 'NONE', ( #121 ), #380, .F. ) ;
#181 = CIRCLE ( 'NONE', #359, 0.9500000000000011768 ) ;
#182 = DIRECTION ( 'NONE',  ( 0.0000000000000000000, 0.0000000000000000000, -1.000000000000000000 ) ) ;
#183 = AXIS2_PLACEMENT_3D ( 'NONE', #434, #264, #340 ) ;
#184 = COORDINATED_UNIVERSAL_TIME_OFFSET ( 0, 0, .AHEAD. ) ;
#185 = CARTESIAN_POINT ( 'NONE',  ( 48.16000000000000369, 0.0000000000000000000, -15.95000000000000284 ) ) ;
#186 = EDGE_CURVE ( 'NONE', #86, #34, #446, .T. ) ;
#187 = DIRECTION ( 'NONE',  ( 0.0000000000000000000, 0.0000000000000000000, -1.000000000000000000 ) ) ;
#188 = CYLINDRICAL_SURFACE ( 'NONE', #412, 0.9500000000000011768 ) ;
#189 = ORIENTED_EDGE ( 'NONE', *, *, #134, .F. ) ;
#190 = ORIENTED_EDGE ( 'NONE', *, *, #199, .T. ) ;
#191 = ADVANCED_FACE ( 'NONE', ( #152 ), #217, .F. ) ;
#192 = CALENDAR_DATE ( 2019, 12, 12 ) ;
#193 = AXIS2_PLACEMENT_3D ( 'NONE', #358, #357, #15 ) ;
#194 = DIRECTION ( 'NONE',  ( 0.0000000000000000000, 0.0000000000000000000, 1.000000000000000000 ) ) ;
#195 = DIRECTION ( 'NONE',  ( -0.0000000000000000000, 1.000000000000000000, -0.0000000000000000000 ) ) ;
#196 = CARTESIAN_POINT ( 'NONE',  ( 0.0000000000000000000, 0.0000000000000000000, 0.0000000000000000000 ) ) ;
#197 = ORIENTED_EDGE ( 'NONE', *, *, #103, .F. ) ;
#198 = DIRECTION ( 'NONE',  ( -1.000000000000000000, -0.0000000000000000000, -0.0000000000000000000 ) ) ;
#199 = EDGE_CURVE ( 'NONE', #86, #132, #254, .T. ) ;
#200 = FACE_OUTER_BOUND ( 'NONE', #141, .T. ) ;
#201 = ORIENTED_EDGE ( 'NONE', *, *, #425, .T. ) ;
#202 = ORIENTED_EDGE ( 'NONE', *, *, #186, .F. ) ;
#203 = DIRECTION ( 'NONE',  ( 0.0000000000000000000, 1.000000000000000000, 0.0000000000000000000 ) ) ;
#204 = ORIENTED_EDGE ( 'NONE', *, *, #371, .F. ) ;
#205 = ORIENTED_EDGE ( 'NONE', *, *, #199, .F. ) ;
#206 = EDGE_CURVE ( 'NONE', #73, #229, #283, .T. ) ;
#207 = CARTESIAN_POINT ( 'NONE',  ( 0.0000000000000000000, 3.000000000000000000, 0.0000000000000000000 ) ) ;
#208 = CIRCLE ( 'NONE', #175, 1.000000000000000888 ) ;
#209 = EDGE_CURVE ( 'NONE', #128, #153, #268, .T. ) ;
#210 = ORIENTED_EDGE ( 'NONE', *, *, #151, .F. ) ;
#211 = CARTESIAN_POINT ( 'NONE',  ( 2.000000000000000000, 3.000000000000000000, -15.00000000000000178 ) ) ;
#212 = AXIS2_PLACEMENT_3D ( 'NONE', #179, #87, #10 ) ;
#213 = CARTESIAN_POINT ( 'NONE',  ( 1.000000000000000000, 3.000000000000000000, -27.00000000000000000 ) ) ;
#214 = CARTESIAN_POINT ( 'NONE',  ( 49.00000000000000000, 0.0000000000000000000, -28.00000000000000000 ) ) ;
#215 = FACE_BOUND ( 'NONE', #230, .T. ) ;
#216 = VERTEX_POINT ( 'NONE', #438 ) ;
#217 = PLANE ( 'NONE',  #183 ) ;
#218 = LOCAL_TIME ( 17, 0, 32.00000000000000000, #287 ) ;
#219 = CARTESIAN_POINT ( 'NONE',  ( 2.000000000000000000, 0.0000000000000000000, -15.95000000000000284 ) ) ;
#220 = EDGE_CURVE ( 'NONE', #229, #81, #19, .T. ) ;
#221 = ADVANCED_FACE ( 'NONE', ( #452 ), #18, .F. ) ;
#222 = CYLINDRICAL_SURFACE ( 'NONE', #235, 0.9500000000000011768 ) ;
#223 = EDGE_LOOP ( 'NONE', ( #93, #197, #247, #388 ) ) ;
#224 = AXIS2_PLACEMENT_3D ( 'NONE', #213, #83, #327 ) ;
#225 = DATE_AND_TIME ( #321, #363 ) ;
#226 = CARTESIAN_POINT ( 'NONE',  ( 48.16000000000000369, 0.0000000000000000000, -15.00000000000000178 ) ) ;
#227 = CARTESIAN_POINT ( 'NONE',  ( 50.00000000000000000, 0.0000000000000000000, -27.00000000000000000 ) ) ;
#228 = PERSON_AND_ORGANIZATION ( #155, #143 ) ;
#229 = VERTEX_POINT ( 'NONE', #227 ) ;
#230 = EDGE_LOOP ( 'NONE', ( #310, #398 ) ) ;
#231 = CARTESIAN_POINT ( 'NONE',  ( 48.16000000000000369, 0.0000000000000000000, -15.95000000000000284 ) ) ;
#232 = CALENDAR_DATE ( 2019, 12, 12 ) ;
#233 = CARTESIAN_POINT ( 'NONE',  ( 48.16000000000000369, 3.000000000000000000, -15.95000000000000284 ) ) ;
#234 = DIRECTION ( 'NONE',  ( 0.0000000000000000000, 1.000000000000000000, 0.0000000000000000000 ) ) ;
#235 = AXIS2_PLACEMENT_3D ( 'NONE', #447, #71, #106 ) ;
#236 = VECTOR ( 'NONE', #366, 1000.000000000000000 ) ;
#237 = APPLICATION_CONTEXT ( 'configuration controlled 3d designs of mechanical parts and assemblies' ) ;
#238 = ORIENTED_EDGE ( 'NONE', *, *, #173, .T. ) ;
#239 = APPROVAL_STATUS ( 'not_yet_approved' ) ;
#240 = CARTESIAN_POINT ( 'NONE',  ( 1.000000000000000000, 0.0000000000000000000, -27.00000000000000000 ) ) ;
#241 = EDGE_LOOP ( 'NONE', ( #349, #47, #204, #344 ) ) ;
#242 = EDGE_LOOP ( 'NONE', ( #448, #238, #368, #354, #77, #441 ) ) ;
#243 = EDGE_CURVE ( 'NONE', #34, #115, #330, .T. ) ;
#244 = CARTESIAN_POINT ( 'NONE',  ( 0.0000000000000000000, 3.000000000000000000, 0.0000000000000000000 ) ) ;
#245 = EDGE_CURVE ( 'NONE', #63, #73, #165, .T. ) ;
#246 = CIRCLE ( 'NONE', #28, 1.000000000000000888 ) ;
#247 = ORIENTED_EDGE ( 'NONE', *, *, #209, .F. ) ;
#248 = EDGE_CURVE ( 'NONE', #325, #383, #397, .T. ) ;
#249 = ORIENTED_EDGE ( 'NONE', *, *, #245, .F. ) ;
#250 = CARTESIAN_POINT ( 'NONE',  ( 50.00000000000000000, 0.0000000000000000000, 0.0000000000000000000 ) ) ;
#251 = CARTESIAN_POINT ( 'NONE',  ( 50.00000000000000000, 3.000000000000000000, 0.0000000000000000000 ) ) ;
#252 = DIRECTION ( 'NONE',  ( -0.0000000000000000000, 1.000000000000000000, -0.0000000000000000000 ) ) ;
#253 = DIRECTION ( 'NONE',  ( 0.0000000000000000000, -0.0000000000000000000, -1.000000000000000000 ) ) ;
#254 = CIRCLE ( 'NONE', #449, 0.9499999999999995115 ) ;
#255 = AXIS2_PLACEMENT_3D ( 'NONE', #346, #164, #406 ) ;
#256 = CARTESIAN_POINT ( 'NONE',  ( 2.000000000000000000, 0.0000000000000000000, -15.95000000000000284 ) ) ;
#257 = DIRECTION ( 'NONE',  ( 0.0000000000000000000, 1.000000000000000000, 0.0000000000000000000 ) ) ;
#258 = DIRECTION ( 'NONE',  ( 0.0000000000000000000, -1.000000000000000000, 0.0000000000000000000 ) ) ;
#259 = ADVANCED_FACE ( 'NONE', ( #319 ), #188, .F. ) ;
#260 = ORIENTED_EDGE ( 'NONE', *, *, #243, .T. ) ;
#261 = CARTESIAN_POINT ( 'NONE',  ( 2.000000000000000000, 0.0000000000000000000, -15.00000000000000178 ) ) ;
#262 = ORIENTED_EDGE ( 'NONE', *, *, #220, .F. ) ;
#263 = CARTESIAN_POINT ( 'NONE',  ( 49.00000000000000000, 3.000000000000000000, -27.00000000000000000 ) ) ;
#264 = DIRECTION ( 'NONE',  ( -1.000000000000000000, 0.0000000000000000000, 0.0000000000000000000 ) ) ;
#265 = CC_DESIGN_APPROVAL ( #307, ( #112 ) ) ;
#266 = DIRECTION ( 'NONE',  ( 0.0000000000000000000, 0.0000000000000000000, -1.000000000000000000 ) ) ;
#267 = PRODUCT_DEFINITION_SHAPE ( 'NONE', 'NONE',  #17 ) ;
#268 = LINE ( 'NONE', #129, #236 ) ;
#269 = CARTESIAN_POINT ( 'NONE',  ( 50.00000000000000000, 0.0000000000000000000, 0.0000000000000000000 ) ) ;
#270 = DIRECTION ( 'NONE',  ( 0.0000000000000000000, 0.0000000000000000000, 1.000000000000000000 ) ) ;
#271 = PERSON_AND_ORGANIZATION_ROLE ( 'creator' ) ;
#272 = AXIS2_PLACEMENT_3D ( 'NONE', #65, #443, #156 ) ;
#273 = CIRCLE ( 'NONE', #58, 0.9500000000000011768 ) ;
#274 = DIRECTION ( 'NONE',  ( 0.0000000000000000000, 0.0000000000000000000, 1.000000000000000000 ) ) ;
#275 = LINE ( 'NONE', #185, #353 ) ;
#276 = ORIENTED_EDGE ( 'NONE', *, *, #158, .T. ) ;
#277 = PERSON_AND_ORGANIZATION_ROLE ( 'creator' ) ;
#278 = APPROVAL_DATE_TIME ( #148, #352 ) ;
#279 = FACE_OUTER_BOUND ( 'NONE', #390, .T. ) ;
#280 = VERTEX_POINT ( 'NONE', #403 ) ;
#281 = CALENDAR_DATE ( 2019, 12, 12 ) ;
#282 = CC_DESIGN_PERSON_AND_ORGANIZATION_ASSIGNMENT ( #413, #379, ( #84 ) ) ;
#283 = CIRCLE ( 'NONE', #42, 1.000000000000000888 ) ;
#284 = EDGE_LOOP ( 'NONE', ( #110, #302 ) ) ;
#285 = ORIENTED_EDGE ( 'NONE', *, *, #186, .T. ) ;
#286 = DIRECTION ( 'NONE',  ( 0.0000000000000000000, 0.0000000000000000000, 1.000000000000000000 ) ) ;
#287 = COORDINATED_UNIVERSAL_TIME_OFFSET ( 0, 0, .AHEAD. ) ;
#288 = CC_DESIGN_PERSON_AND_ORGANIZATION_ASSIGNMENT ( #75, #271, ( #17 ) ) ;
#289 = DIRECTION ( 'NONE',  ( 1.000000000000000000, 0.0000000000000000000, 0.0000000000000000000 ) ) ;
#290 = CC_DESIGN_SECURITY_CLASSIFICATION ( #112, ( #315 ) ) ;
#291 = VECTOR ( 'NONE', #431, 1000.000000000000000 ) ;
#292 = EDGE_LOOP ( 'NONE', ( #416, #8 ) ) ;
#293 = PERSON_AND_ORGANIZATION ( #155, #143 ) ;
#294 = CARTESIAN_POINT ( 'NONE',  ( 50.00000000000000000, 3.000000000000000000, 0.0000000000000000000 ) ) ;
#295 = CARTESIAN_POINT ( 'NONE',  ( 2.000000000000000000, 0.0000000000000000000, -14.05000000000000249 ) ) ;
#296 = DIRECTION ( 'NONE',  ( 0.0000000000000000000, 1.000000000000000000, 0.0000000000000000000 ) ) ;
#297 = CIRCLE ( 'NONE', #224, 1.000000000000000888 ) ;
#298 = FACE_OUTER_BOUND ( 'NONE', #242, .T. ) ;
#299 = AXIS2_PLACEMENT_3D ( 'NONE', #55, #296, #24 ) ;
#300 = ORIENTED_EDGE ( 'NONE', *, *, #392, .T. ) ;
#301 = DIRECTION ( 'NONE',  ( 0.0000000000000000000, 0.0000000000000000000, 1.000000000000000000 ) ) ;
#302 = ORIENTED_EDGE ( 'NONE', *, *, #243, .F. ) ;
#303 = ORIENTED_EDGE ( 'NONE', *, *, #343, .T. ) ;
#304 = LOCAL_TIME ( 17, 0, 32.00000000000000000, #3 ) ;
#305 = CARTESIAN_POINT ( 'NONE',  ( 48.16000000000000369, 0.0000000000000000000, -14.05000000000000071 ) ) ;
#306 = DESIGN_CONTEXT ( 'detailed design', #167, 'design' ) ;
#307 = APPROVAL ( #414, 'UNSPECIFIED' ) ;
#308 = DIRECTION ( 'NONE',  ( 1.000000000000000000, 0.0000000000000000000, 0.0000000000000000000 ) ) ;
#309 = CYLINDRICAL_SURFACE ( 'NONE', #78, 1.000000000000000888 ) ;
#310 = ORIENTED_EDGE ( 'NONE', *, *, #92, .T. ) ;
#311 = DIRECTION ( 'NONE',  ( -0.0000000000000000000, 1.000000000000000000, -0.0000000000000000000 ) ) ;
#312 = CC_DESIGN_DATE_AND_TIME_ASSIGNMENT ( #108, #171, ( #112 ) ) ;
#313 = ORIENTED_EDGE ( 'NONE', *, *, #407, .T. ) ;
#314 = ORIENTED_EDGE ( 'NONE', *, *, #347, .F. ) ;
#315 = PRODUCT_DEFINITION_FORMATION_WITH_SPECIFIED_SOURCE ( 'ANY', '', #84, .NOT_KNOWN. ) ;
#316 = EDGE_CURVE ( 'NONE', #404, #128, #76, .T. ) ;
#317 = ADVANCED_BREP_SHAPE_REPRESENTATION ( 'electronics cover', ( #339, #329 ), #107 ) ;
#318 = DIRECTION ( 'NONE',  ( -0.0000000000000000000, 1.000000000000000000, -0.0000000000000000000 ) ) ;
#319 = FACE_OUTER_BOUND ( 'NONE', #94, .T. ) ;
#320 = CYLINDRICAL_SURFACE ( 'NONE', #193, 0.9499999999999995115 ) ;
#321 = CALENDAR_DATE ( 2019, 12, 12 ) ;
#322 = AXIS2_PLACEMENT_3D ( 'NONE', #21, #257, #89 ) ;
#323 = DIRECTION ( 'NONE',  ( 0.0000000000000000000, -1.000000000000000000, 0.0000000000000000000 ) ) ;
#324 = DIRECTION ( 'NONE',  ( -0.0000000000000000000, 1.000000000000000000, -0.0000000000000000000 ) ) ;
#325 = VERTEX_POINT ( 'NONE', #231 ) ;
#326 = PLANE ( 'NONE',  #139 ) ;
#327 = DIRECTION ( 'NONE',  ( 0.0000000000000000000, 0.0000000000000000000, -1.000000000000000000 ) ) ;
#328 = DIRECTION ( 'NONE',  ( 0.0000000000000000000, 0.0000000000000000000, -1.000000000000000000 ) ) ;
#329 = AXIS2_PLACEMENT_3D ( 'NONE', #450, #270, #308 ) ;
#330 = CIRCLE ( 'NONE', #299, 0.9499999999999995115 ) ;
#331 = ORIENTED_EDGE ( 'NONE', *, *, #206, .T. ) ;
#332 = ADVANCED_FACE ( 'NONE', ( #200 ), #159, .T. ) ;
#333 = CARTESIAN_POINT ( 'NONE',  ( 49.00000000000000000, 3.000000000000000000, -28.00000000000000000 ) ) ;
#334 = CARTESIAN_POINT ( 'NONE',  ( 2.000000000000000000, 0.0000000000000000000, -15.00000000000000178 ) ) ;
#335 = APPROVAL_PERSON_ORGANIZATION ( #228, #352, #32 ) ;
#336 = ORIENTED_EDGE ( 'NONE', *, *, #147, .F. ) ;
#337 = PRODUCT_RELATED_PRODUCT_CATEGORY ( 'detail', '', ( #84 ) ) ;
#338 = LOCAL_TIME ( 17, 0, 32.00000000000000000, #64 ) ;
#339 = MANIFOLD_SOLID_BREP ( 'Fillet1', #454 ) ;
#340 = DIRECTION ( 'NONE',  ( 0.0000000000000000000, 0.0000000000000000000, 1.000000000000000000 ) ) ;
#341 = DIRECTION ( 'NONE',  ( -0.0000000000000000000, -1.000000000000000000, 0.0000000000000000000 ) ) ;
#342 = CIRCLE ( 'NONE', #212, 0.9500000000000011768 ) ;
#343 = EDGE_CURVE ( 'NONE', #132, #86, #6, .T. ) ;
#344 = ORIENTED_EDGE ( 'NONE', *, *, #245, .T. ) ;
#345 = DIRECTION ( 'NONE',  ( 0.0000000000000000000, -1.000000000000000000, 0.0000000000000000000 ) ) ;
#346 = CARTESIAN_POINT ( 'NONE',  ( 0.0000000000000000000, 3.000000000000000000, 0.0000000000000000000 ) ) ;
#347 = EDGE_CURVE ( 'NONE', #73, #137, #374, .T. ) ;
#348 = LINE ( 'NONE', #294, #291 ) ;
#349 = ORIENTED_EDGE ( 'NONE', *, *, #347, .T. ) ;
#350 = ORIENTED_EDGE ( 'NONE', *, *, #92, .F. ) ;
#351 = VECTOR ( 'NONE', #370, 1000.000000000000000 ) ;
#352 = APPROVAL ( #239, 'UNSPECIFIED' ) ;
#353 = VECTOR ( 'NONE', #437, 1000.000000000000000 ) ;
#354 = ORIENTED_EDGE ( 'NONE', *, *, #209, .T. ) ;
#355 = CARTESIAN_POINT ( 'NONE',  ( 1.000000000000000000, 3.000000000000000000, -28.00000000000000000 ) ) ;
#356 = AXIS2_PLACEMENT_3D ( 'NONE', #427, #362, #360 ) ;
#357 = DIRECTION ( 'NONE',  ( -0.0000000000000000000, 1.000000000000000000, -0.0000000000000000000 ) ) ;
#358 = CARTESIAN_POINT ( 'NONE',  ( 2.000000000000000000, 0.0000000000000000000, -15.00000000000000178 ) ) ;
#359 = AXIS2_PLACEMENT_3D ( 'NONE', #101, #234, #163 ) ;
#360 = DIRECTION ( 'NONE',  ( 0.0000000000000000000, 0.0000000000000000000, 1.000000000000000000 ) ) ;
#361 = ORIENTED_EDGE ( 'NONE', *, *, #103, .T. ) ;
#362 = DIRECTION ( 'NONE',  ( -0.0000000000000000000, 1.000000000000000000, -0.0000000000000000000 ) ) ;
#363 = LOCAL_TIME ( 17, 0, 32.00000000000000000, #100 ) ;
#364 = ADVANCED_FACE ( 'NONE', ( #367 ), #222, .F. ) ;
#365 = ADVANCED_FACE ( 'NONE', ( #279 ), #309, .T. ) ;
#366 = DIRECTION ( 'NONE',  ( 1.000000000000000000, 0.0000000000000000000, 0.0000000000000000000 ) ) ;
#367 = FACE_OUTER_BOUND ( 'NONE', #402, .T. ) ;
#368 = ORIENTED_EDGE ( 'NONE', *, *, #316, .T. ) ;
#369 = ORIENTED_EDGE ( 'NONE', *, *, #72, .F. ) ;
#370 = DIRECTION ( 'NONE',  ( -0.0000000000000000000, 1.000000000000000000, -0.0000000000000000000 ) ) ;
#371 = EDGE_CURVE ( 'NONE', #63, #280, #131, .T. ) ;
#372 = DIRECTION ( 'NONE',  ( 0.0000000000000000000, -1.000000000000000000, 0.0000000000000000000 ) ) ;
#373 = CARTESIAN_POINT ( 'NONE',  ( 0.0000000000000000000, 3.000000000000000000, -27.00000000000000000 ) ) ;
#374 = LINE ( 'NONE', #157, #387 ) ;
#375 = ORIENTED_EDGE ( 'NONE', *, *, #7, .F. ) ;
#376 = PERSON_AND_ORGANIZATION ( #155, #143 ) ;
#377 =( NAMED_UNIT ( * ) SI_UNIT ( $, .STERADIAN. ) SOLID_ANGLE_UNIT ( ) );
#378 = CC_DESIGN_DATE_AND_TIME_ASSIGNMENT ( #405, #384, ( #17 ) ) ;
#379 = PERSON_AND_ORGANIZATION_ROLE ( 'design_owner' ) ;
#380 = CYLINDRICAL_SURFACE ( 'NONE', #356, 0.9499999999999995115 ) ;
#381 = CARTESIAN_POINT ( 'NONE',  ( 48.16000000000000369, 3.000000000000000000, -14.05000000000000071 ) ) ;
#382 = ORIENTED_EDGE ( 'NONE', *, *, #45, .F. ) ;
#383 = VERTEX_POINT ( 'NONE', #305 ) ;
#384 = DATE_TIME_ROLE ( 'creation_date' ) ;
#385 = PERSON_AND_ORGANIZATION_ROLE ( 'classification_officer' ) ;
#386 = CC_DESIGN_PERSON_AND_ORGANIZATION_ASSIGNMENT ( #376, #277, ( #315 ) ) ;
#387 = VECTOR ( 'NONE', #401, 1000.000000000000000 ) ;
#388 = ORIENTED_EDGE ( 'NONE', *, *, #7, .T. ) ;
#389 = EDGE_CURVE ( 'NONE', #417, #429, #181, .T. ) ;
#390 = EDGE_LOOP ( 'NONE', ( #25, #382, #26, #80 ) ) ;
#391 = AXIS2_PLACEMENT_3D ( 'NONE', #4, #323, #41 ) ;
#392 = EDGE_CURVE ( 'NONE', #429, #417, #273, .T. ) ;
#393 = VECTOR ( 'NONE', #318, 1000.000000000000000 ) ;
#394 = EDGE_LOOP ( 'NONE', ( #303, #190 ) ) ;
#395 = PERSON_AND_ORGANIZATION ( #155, #143 ) ;
#396 = CARTESIAN_POINT ( 'NONE',  ( 49.00000000000000000, 3.000000000000000000, -27.00000000000000000 ) ) ;
#397 = CIRCLE ( 'NONE', #322, 0.9500000000000011768 ) ;
#398 = ORIENTED_EDGE ( 'NONE', *, *, #248, .T. ) ;
#399 = LOCAL_TIME ( 17, 0, 32.00000000000000000, #184 ) ;
#400 = ADVANCED_FACE ( 'NONE', ( #98 ), #445, .F. ) ;
#401 = DIRECTION ( 'NONE',  ( -1.000000000000000000, -0.0000000000000000000, -0.0000000000000000000 ) ) ;
#402 = EDGE_LOOP ( 'NONE', ( #145, #423, #300, #33 ) ) ;
#403 = CARTESIAN_POINT ( 'NONE',  ( 1.000000000000000000, 3.000000000000000000, -28.00000000000000000 ) ) ;
#404 = VERTEX_POINT ( 'NONE', #30 ) ;
#405 = DATE_AND_TIME ( #192, #218 ) ;
#406 = DIRECTION ( 'NONE',  ( -1.000000000000000000, 0.0000000000000000000, -0.0000000000000000000 ) ) ;
#407 = EDGE_CURVE ( 'NONE', #216, #144, #31, .T. ) ;
#408 = CARTESIAN_POINT ( 'NONE',  ( 1.000000000000000000, 3.000000000000000000, -27.00000000000000000 ) ) ;
#409 = VECTOR ( 'NONE', #289, 1000.000000000000000 ) ;
#410 = FACE_OUTER_BOUND ( 'NONE', #2, .T. ) ;
#411 = APPLICATION_PROTOCOL_DEFINITION ( 'international standard', 'config_control_design', 1994, #167 ) ;
#412 = AXIS2_PLACEMENT_3D ( 'NONE', #226, #195, #123 ) ;
#413 = PERSON_AND_ORGANIZATION ( #155, #143 ) ;
#414 = APPROVAL_STATUS ( 'not_yet_approved' ) ;
#415 = EDGE_CURVE ( 'NONE', #216, #137, #208, .T. ) ;
#416 = ORIENTED_EDGE ( 'NONE', *, *, #389, .F. ) ;
#417 = VERTEX_POINT ( 'NONE', #381 ) ;
#418 = PERSON_AND_ORGANIZATION ( #155, #143 ) ;
#419 = APPROVAL_ROLE ( '' ) ;
#420 = PLANE ( 'NONE',  #432 ) ;
#421 = PLANE ( 'NONE',  #391 ) ;
#422 = LINE ( 'NONE', #373, #172 ) ;
#423 = ORIENTED_EDGE ( 'NONE', *, *, #72, .T. ) ;
#424 = AXIS2_PLACEMENT_3D ( 'NONE', #211, #9, #286 ) ;
#425 = EDGE_CURVE ( 'NONE', #132, #115, #1, .T. ) ;
#426 = LINE ( 'NONE', #250, #440 ) ;
#427 = CARTESIAN_POINT ( 'NONE',  ( 2.000000000000000000, 0.0000000000000000000, -15.00000000000000178 ) ) ;
#428 = CIRCLE ( 'NONE', #424, 0.9499999999999995115 ) ;
#429 = VERTEX_POINT ( 'NONE', #233 ) ;
#430 = DIRECTION ( 'NONE',  ( 0.0000000000000000000, 0.0000000000000000000, -1.000000000000000000 ) ) ;
#431 = DIRECTION ( 'NONE',  ( 0.0000000000000000000, 0.0000000000000000000, -1.000000000000000000 ) ) ;
#432 = AXIS2_PLACEMENT_3D ( 'NONE', #244, #82, #430 ) ;
#433 = UNCERTAINTY_MEASURE_WITH_UNIT (LENGTH_MEASURE( 1.000000000000000082E-05 ), #67, 'distance_accuracy_value', 'NONE');
#434 = CARTESIAN_POINT ( 'NONE',  ( 50.00000000000000000, 3.000000000000000000, 0.0000000000000000000 ) ) ;
#435 = VECTOR ( 'NONE', #198, 1000.000000000000000 ) ;
#436 = VERTEX_POINT ( 'NONE', #269 ) ;
#437 = DIRECTION ( 'NONE',  ( -0.0000000000000000000, 1.000000000000000000, -0.0000000000000000000 ) ) ;
#438 = CARTESIAN_POINT ( 'NONE',  ( 0.0000000000000000000, 0.0000000000000000000, -27.00000000000000000 ) ) ;
#439 = AXIS2_PLACEMENT_3D ( 'NONE', #261, #60, #301 ) ;
#440 = VECTOR ( 'NONE', #328, 1000.000000000000000 ) ;
#441 = ORIENTED_EDGE ( 'NONE', *, *, #151, .T. ) ;
#442 = ORIENTED_EDGE ( 'NONE', *, *, #425, .F. ) ;
#443 = DIRECTION ( 'NONE',  ( 0.0000000000000000000, 0.0000000000000000000, 1.000000000000000000 ) ) ;
#444 = EDGE_CURVE ( 'NONE', #404, #216, #422, .T. ) ;
#445 = PLANE ( 'NONE',  #255 ) ;
#446 = LINE ( 'NONE', #256, #351 ) ;
#447 = CARTESIAN_POINT ( 'NONE',  ( 48.16000000000000369, 0.0000000000000000000, -15.00000000000000178 ) ) ;
#448 = ORIENTED_EDGE ( 'NONE', *, *, #371, .T. ) ;
#449 = AXIS2_PLACEMENT_3D ( 'NONE', #334, #161, #194 ) ;
#450 = CARTESIAN_POINT ( 'NONE',  ( 0.0000000000000000000, 0.0000000000000000000, 0.0000000000000000000 ) ) ;
#451 = CARTESIAN_POINT ( 'NONE',  ( 0.0000000000000000000, 3.000000000000000000, -28.00000000000000000 ) ) ;
#452 = FACE_OUTER_BOUND ( 'NONE', #241, .T. ) ;
#453 = EDGE_LOOP ( 'NONE', ( #205, #285, #260, #442 ) ) ;
#454 = CLOSED_SHELL ( 'NONE', ( #180, #364, #50, #400, #191, #221, #59, #14, #259, #56, #365, #332 ) ) ;
#455 = APPROVAL_ROLE ( '' ) ;
ENDSEC;
END-ISO-10303-21;
