ISO-10303-21;
HEADER;
FILE_DESCRIPTION (( 'STEP AP203' ),
    '1' );
FILE_NAME ('Metal_bar lickport.STEP',
    '2019-12-12T17:01:39',
    ( '' ),
    ( '' ),
    'SwSTEP 2.0',
    'SolidWorks 2018',
    '' );
FILE_SCHEMA (( 'CONFIG_CONTROL_DESIGN' ));
ENDSEC;

DATA;
#1 = CC_DESIGN_SECURITY_CLASSIFICATION ( #56, ( #16 ) ) ;
#2 = CIRCLE ( 'NONE', #102, 3.000000000000000444 ) ;
#3 = PERSON_AND_ORGANIZATION ( #139, #9 ) ;
#4 = PERSON_AND_ORGANIZATION_ROLE ( 'classification_officer' ) ;
#5 = LOCAL_TIME ( 17, 1, 39.00000000000000000, #42 ) ;
#6 = PERSON_AND_ORGANIZATION ( #139, #9 ) ;
#7 = LINE ( 'NONE', #122, #81 ) ;
#8 = CC_DESIGN_APPROVAL ( #58, ( #53 ) ) ;
#9 = ORGANIZATION ( 'UNSPECIFIED', 'UNSPECIFIED', '' ) ;
#10 = EDGE_CURVE ( 'NONE', #65, #108, #2, .T. ) ;
#11 = CC_DESIGN_DATE_AND_TIME_ASSIGNMENT ( #92, #33, ( #53 ) ) ;
#12 = COORDINATED_UNIVERSAL_TIME_OFFSET ( 0, 0, .AHEAD. ) ;
#13 = CARTESIAN_POINT ( 'NONE',  ( 0.0000000000000000000, 0.0000000000000000000, 50.00000000000000000 ) ) ;
#14 = DIRECTION ( 'NONE',  ( 1.000000000000000000, 0.0000000000000000000, 0.0000000000000000000 ) ) ;
#15 = COORDINATED_UNIVERSAL_TIME_OFFSET ( 0, 0, .AHEAD. ) ;
#16 = PRODUCT_DEFINITION_FORMATION_WITH_SPECIFIED_SOURCE ( 'ANY', '', #123, .NOT_KNOWN. ) ;
#17 = ORIENTED_EDGE ( 'NONE', *, *, #98, .F. ) ;
#18 = AXIS2_PLACEMENT_3D ( 'NONE', #78, #117, #131 ) ;
#19 = APPROVAL_STATUS ( 'not_yet_approved' ) ;
#20 = COORDINATED_UNIVERSAL_TIME_OFFSET ( 0, 0, .AHEAD. ) ;
#21 =( NAMED_UNIT ( * ) PLANE_ANGLE_UNIT ( ) SI_UNIT ( $, .RADIAN. ) );
#22 = LOCAL_TIME ( 17, 1, 39.00000000000000000, #20 ) ;
#23 = EDGE_CURVE ( 'NONE', #37, #89, #150, .T. ) ;
#24 = APPROVAL_PERSON_ORGANIZATION ( #3, #105, #156 ) ;
#25 = ORIENTED_EDGE ( 'NONE', *, *, #23, .F. ) ;
#26 =( GEOMETRIC_REPRESENTATION_CONTEXT ( 3 ) GLOBAL_UNCERTAINTY_ASSIGNED_CONTEXT ( ( #45 ) ) GLOBAL_UNIT_ASSIGNED_CONTEXT ( ( #99, #21, #133 ) ) REPRESENTATION_CONTEXT ( 'NONE', 'WORKASPACE' ) );
#27 = PLANE ( 'NONE',  #144 ) ;
#28 = DIRECTION ( 'NONE',  ( -0.0000000000000000000, -0.0000000000000000000, -1.000000000000000000 ) ) ;
#29 = ORIENTED_EDGE ( 'NONE', *, *, #129, .F. ) ;
#30 = APPLICATION_PROTOCOL_DEFINITION ( 'international standard', 'config_control_design', 1994, #171 ) ;
#31 = PERSON_AND_ORGANIZATION_ROLE ( 'creator' ) ;
#32 = PERSON_AND_ORGANIZATION_ROLE ( 'design_owner' ) ;
#33 = DATE_TIME_ROLE ( 'creation_date' ) ;
#34 = DATE_AND_TIME ( #75, #146 ) ;
#35 = SHAPE_DEFINITION_REPRESENTATION ( #70, #155 ) ;
#36 = CC_DESIGN_APPROVAL ( #68, ( #16 ) ) ;
#37 = VERTEX_POINT ( 'NONE', #166 ) ;
#38 = DATE_AND_TIME ( #172, #104 ) ;
#39 = FACE_OUTER_BOUND ( 'NONE', #149, .T. ) ;
#40 = EDGE_CURVE ( 'NONE', #89, #37, #112, .T. ) ;
#41 = CALENDAR_DATE ( 2019, 12, 12 ) ;
#42 = COORDINATED_UNIVERSAL_TIME_OFFSET ( 0, 0, .AHEAD. ) ;
#43 = ADVANCED_FACE ( 'NONE', ( #48 ), #97, .T. ) ;
#44 = CARTESIAN_POINT ( 'NONE',  ( 0.0000000000000000000, 0.0000000000000000000, 50.00000000000000000 ) ) ;
#45 = UNCERTAINTY_MEASURE_WITH_UNIT (LENGTH_MEASURE( 1.000000000000000082E-05 ), #99, 'distance_accuracy_value', 'NONE');
#46 = DIRECTION ( 'NONE',  ( 1.000000000000000000, 0.0000000000000000000, -0.0000000000000000000 ) ) ;
#47 = DIRECTION ( 'NONE',  ( 0.0000000000000000000, 0.0000000000000000000, 1.000000000000000000 ) ) ;
#48 = FACE_OUTER_BOUND ( 'NONE', #71, .T. ) ;
#49 = CC_DESIGN_PERSON_AND_ORGANIZATION_ASSIGNMENT ( #54, #158, ( #16 ) ) ;
#50 = DIRECTION ( 'NONE',  ( -0.0000000000000000000, -0.0000000000000000000, -1.000000000000000000 ) ) ;
#51 = PERSON_AND_ORGANIZATION ( #139, #9 ) ;
#52 = DESIGN_CONTEXT ( 'detailed design', #145, 'design' ) ;
#53 = PRODUCT_DEFINITION ( 'UNKNOWN', '', #16, #52 ) ;
#54 = PERSON_AND_ORGANIZATION ( #139, #9 ) ;
#55 = CC_DESIGN_APPROVAL ( #105, ( #56 ) ) ;
#56 = SECURITY_CLASSIFICATION ( '', '', #132 ) ;
#57 = DIRECTION ( 'NONE',  ( -1.000000000000000000, 0.0000000000000000000, 0.0000000000000000000 ) ) ;
#58 = APPROVAL ( #100, 'UNSPECIFIED' ) ;
#59 = CC_DESIGN_PERSON_AND_ORGANIZATION_ASSIGNMENT ( #151, #32, ( #123 ) ) ;
#60 = CARTESIAN_POINT ( 'NONE',  ( 0.0000000000000000000, 0.0000000000000000000, 50.00000000000000000 ) ) ;
#61 = DIRECTION ( 'NONE',  ( -0.0000000000000000000, -0.0000000000000000000, -1.000000000000000000 ) ) ;
#62 = CARTESIAN_POINT ( 'NONE',  ( 0.0000000000000000000, 0.0000000000000000000, 0.0000000000000000000 ) ) ;
#63 = EDGE_LOOP ( 'NONE', ( #94, #135, #128, #173 ) ) ;
#64 = DIRECTION ( 'NONE',  ( -1.000000000000000000, 0.0000000000000000000, 0.0000000000000000000 ) ) ;
#65 = VERTEX_POINT ( 'NONE', #110 ) ;
#66 = ORIENTED_EDGE ( 'NONE', *, *, #40, .T. ) ;
#67 = ADVANCED_FACE ( 'NONE', ( #121 ), #147, .T. ) ;
#68 = APPROVAL ( #19, 'UNSPECIFIED' ) ;
#69 = CLOSED_SHELL ( 'NONE', ( #67, #174, #43, #91 ) ) ;
#70 = PRODUCT_DEFINITION_SHAPE ( 'NONE', 'NONE',  #53 ) ;
#71 = EDGE_LOOP ( 'NONE', ( #167, #175 ) ) ;
#72 = CARTESIAN_POINT ( 'NONE',  ( 0.0000000000000000000, 0.0000000000000000000, 0.0000000000000000000 ) ) ;
#73 = CARTESIAN_POINT ( 'NONE',  ( -3.000000000000000444, 0.0000000000000000000, 0.0000000000000000000 ) ) ;
#74 = DIRECTION ( 'NONE',  ( 0.0000000000000000000, 0.0000000000000000000, 1.000000000000000000 ) ) ;
#75 = CALENDAR_DATE ( 2019, 12, 12 ) ;
#76 = FACE_OUTER_BOUND ( 'NONE', #86, .T. ) ;
#77 = CARTESIAN_POINT ( 'NONE',  ( 0.0000000000000000000, 0.0000000000000000000, 0.0000000000000000000 ) ) ;
#78 = CARTESIAN_POINT ( 'NONE',  ( 0.0000000000000000000, 0.0000000000000000000, 50.00000000000000000 ) ) ;
#79 = CC_DESIGN_PERSON_AND_ORGANIZATION_ASSIGNMENT ( #51, #142, ( #16 ) ) ;
#80 = LOCAL_TIME ( 17, 1, 39.00000000000000000, #15 ) ;
#81 = VECTOR ( 'NONE', #50, 1000.000000000000000 ) ;
#82 = APPROVAL_PERSON_ORGANIZATION ( #115, #58, #118 ) ;
#83 = APPROVAL_DATE_TIME ( #157, #68 ) ;
#84 = DIRECTION ( 'NONE',  ( 1.000000000000000000, 0.0000000000000000000, -0.0000000000000000000 ) ) ;
#85 = CARTESIAN_POINT ( 'NONE',  ( -3.000000000000000444, 0.0000000000000000000, 50.00000000000000000 ) ) ;
#86 = EDGE_LOOP ( 'NONE', ( #29, #17, #170, #66 ) ) ;
#87 = MECHANICAL_CONTEXT ( 'NONE', #171, 'mechanical' ) ;
#88 = CALENDAR_DATE ( 2019, 12, 12 ) ;
#89 = VERTEX_POINT ( 'NONE', #73 ) ;
#90 = MANIFOLD_SOLID_BREP ( 'Boss-Extrude1', #69 ) ;
#91 = ADVANCED_FACE ( 'NONE', ( #39 ), #27, .F. ) ;
#92 = DATE_AND_TIME ( #101, #22 ) ;
#93 = VECTOR ( 'NONE', #61, 1000.000000000000000 ) ;
#94 = ORIENTED_EDGE ( 'NONE', *, *, #10, .F. ) ;
#95 = DIRECTION ( 'NONE',  ( 1.000000000000000000, 0.0000000000000000000, 0.0000000000000000000 ) ) ;
#96 = DIRECTION ( 'NONE',  ( 0.0000000000000000000, 0.0000000000000000000, 1.000000000000000000 ) ) ;
#97 = PLANE ( 'NONE',  #107 ) ;
#98 = EDGE_CURVE ( 'NONE', #108, #65, #103, .T. ) ;
#99 =( LENGTH_UNIT ( ) NAMED_UNIT ( * ) SI_UNIT ( .MILLI., .METRE. ) );
#100 = APPROVAL_STATUS ( 'not_yet_approved' ) ;
#101 = CALENDAR_DATE ( 2019, 12, 12 ) ;
#102 = AXIS2_PLACEMENT_3D ( 'NONE', #13, #138, #14 ) ;
#103 = CIRCLE ( 'NONE', #18, 3.000000000000000444 ) ;
#104 = LOCAL_TIME ( 17, 1, 39.00000000000000000, #127 ) ;
#105 = APPROVAL ( #143, 'UNSPECIFIED' ) ;
#106 = LINE ( 'NONE', #85, #93 ) ;
#107 = AXIS2_PLACEMENT_3D ( 'NONE', #153, #96, #46 ) ;
#108 = VERTEX_POINT ( 'NONE', #124 ) ;
#109 = PRODUCT_RELATED_PRODUCT_CATEGORY ( 'detail', '', ( #123 ) ) ;
#110 = CARTESIAN_POINT ( 'NONE',  ( 3.000000000000000444, 3.673940397442060361E-16, 50.00000000000000000 ) ) ;
#111 = PERSON_AND_ORGANIZATION ( #139, #9 ) ;
#112 = CIRCLE ( 'NONE', #116, 3.000000000000000444 ) ;
#113 = AXIS2_PLACEMENT_3D ( 'NONE', #72, #74, #126 ) ;
#114 = APPLICATION_PROTOCOL_DEFINITION ( 'international standard', 'config_control_design', 1994, #145 ) ;
#115 = PERSON_AND_ORGANIZATION ( #139, #9 ) ;
#116 = AXIS2_PLACEMENT_3D ( 'NONE', #77, #152, #95 ) ;
#117 = DIRECTION ( 'NONE',  ( 0.0000000000000000000, 0.0000000000000000000, 1.000000000000000000 ) ) ;
#118 = APPROVAL_ROLE ( '' ) ;
#119 = AXIS2_PLACEMENT_3D ( 'NONE', #62, #169, #168 ) ;
#120 = DATE_AND_TIME ( #41, #5 ) ;
#121 = FACE_OUTER_BOUND ( 'NONE', #63, .T. ) ;
#122 = CARTESIAN_POINT ( 'NONE',  ( 3.000000000000000444, 3.673940397442060361E-16, 50.00000000000000000 ) ) ;
#123 = PRODUCT ( 'Metal_bar lickport', 'Metal_bar lickport', '', ( #87 ) ) ;
#124 = CARTESIAN_POINT ( 'NONE',  ( -3.000000000000000444, 0.0000000000000000000, 50.00000000000000000 ) ) ;
#125 = CC_DESIGN_DATE_AND_TIME_ASSIGNMENT ( #38, #130, ( #56 ) ) ;
#126 = DIRECTION ( 'NONE',  ( 1.000000000000000000, 0.0000000000000000000, 0.0000000000000000000 ) ) ;
#127 = COORDINATED_UNIVERSAL_TIME_OFFSET ( 0, 0, .AHEAD. ) ;
#128 = ORIENTED_EDGE ( 'NONE', *, *, #23, .T. ) ;
#129 = EDGE_CURVE ( 'NONE', #65, #37, #7, .T. ) ;
#130 = DATE_TIME_ROLE ( 'classification_date' ) ;
#131 = DIRECTION ( 'NONE',  ( 1.000000000000000000, 0.0000000000000000000, 0.0000000000000000000 ) ) ;
#132 = SECURITY_CLASSIFICATION_LEVEL ( 'unclassified' ) ;
#133 =( NAMED_UNIT ( * ) SI_UNIT ( $, .STERADIAN. ) SOLID_ANGLE_UNIT ( ) );
#134 = APPROVAL_ROLE ( '' ) ;
#135 = ORIENTED_EDGE ( 'NONE', *, *, #129, .T. ) ;
#136 = ORIENTED_EDGE ( 'NONE', *, *, #40, .F. ) ;
#137 = APPROVAL_DATE_TIME ( #34, #105 ) ;
#138 = DIRECTION ( 'NONE',  ( 0.0000000000000000000, 0.0000000000000000000, 1.000000000000000000 ) ) ;
#139 = PERSON ( 'UNSPECIFIED', 'UNSPECIFIED', 'UNSPECIFIED', ('UNSPECIFIED'), ('UNSPECIFIED'), ('UNSPECIFIED') ) ;
#140 = AXIS2_PLACEMENT_3D ( 'NONE', #44, #28, #57 ) ;
#141 = CYLINDRICAL_SURFACE ( 'NONE', #161, 3.000000000000000444 ) ;
#142 = PERSON_AND_ORGANIZATION_ROLE ( 'creator' ) ;
#143 = APPROVAL_STATUS ( 'not_yet_approved' ) ;
#144 = AXIS2_PLACEMENT_3D ( 'NONE', #165, #47, #84 ) ;
#145 = APPLICATION_CONTEXT ( 'configuration controlled 3d designs of mechanical parts and assemblies' ) ;
#146 = LOCAL_TIME ( 17, 1, 39.00000000000000000, #12 ) ;
#147 = CYLINDRICAL_SURFACE ( 'NONE', #140, 3.000000000000000444 ) ;
#148 = CC_DESIGN_PERSON_AND_ORGANIZATION_ASSIGNMENT ( #6, #31, ( #53 ) ) ;
#149 = EDGE_LOOP ( 'NONE', ( #136, #25 ) ) ;
#150 = CIRCLE ( 'NONE', #113, 3.000000000000000444 ) ;
#151 = PERSON_AND_ORGANIZATION ( #139, #9 ) ;
#152 = DIRECTION ( 'NONE',  ( 0.0000000000000000000, 0.0000000000000000000, 1.000000000000000000 ) ) ;
#153 = CARTESIAN_POINT ( 'NONE',  ( 0.0000000000000000000, 0.0000000000000000000, 50.00000000000000000 ) ) ;
#154 = DIRECTION ( 'NONE',  ( -0.0000000000000000000, -0.0000000000000000000, -1.000000000000000000 ) ) ;
#155 = ADVANCED_BREP_SHAPE_REPRESENTATION ( 'Metal_bar lickport', ( #90, #119 ), #26 ) ;
#156 = APPROVAL_ROLE ( '' ) ;
#157 = DATE_AND_TIME ( #88, #80 ) ;
#158 = PERSON_AND_ORGANIZATION_ROLE ( 'design_supplier' ) ;
#159 = APPROVAL_DATE_TIME ( #120, #58 ) ;
#160 = EDGE_CURVE ( 'NONE', #108, #89, #106, .T. ) ;
#161 = AXIS2_PLACEMENT_3D ( 'NONE', #60, #154, #64 ) ;
#162 = APPROVAL_PERSON_ORGANIZATION ( #111, #68, #134 ) ;
#163 = PERSON_AND_ORGANIZATION ( #139, #9 ) ;
#164 = CC_DESIGN_PERSON_AND_ORGANIZATION_ASSIGNMENT ( #163, #4, ( #56 ) ) ;
#165 = CARTESIAN_POINT ( 'NONE',  ( 0.0000000000000000000, 0.0000000000000000000, 0.0000000000000000000 ) ) ;
#166 = CARTESIAN_POINT ( 'NONE',  ( 3.000000000000000444, 3.673940397442060361E-16, 0.0000000000000000000 ) ) ;
#167 = ORIENTED_EDGE ( 'NONE', *, *, #98, .T. ) ;
#168 = DIRECTION ( 'NONE',  ( 1.000000000000000000, 0.0000000000000000000, 0.0000000000000000000 ) ) ;
#169 = DIRECTION ( 'NONE',  ( 0.0000000000000000000, 0.0000000000000000000, 1.000000000000000000 ) ) ;
#170 = ORIENTED_EDGE ( 'NONE', *, *, #160, .T. ) ;
#171 = APPLICATION_CONTEXT ( 'configuration controlled 3d designs of mechanical parts and assemblies' ) ;
#172 = CALENDAR_DATE ( 2019, 12, 12 ) ;
#173 = ORIENTED_EDGE ( 'NONE', *, *, #160, .F. ) ;
#174 = ADVANCED_FACE ( 'NONE', ( #76 ), #141, .T. ) ;
#175 = ORIENTED_EDGE ( 'NONE', *, *, #10, .T. ) ;
ENDSEC;
END-ISO-10303-21;
