ISO-10303-21;
HEADER;
FILE_DESCRIPTION (( 'STEP AP203' ),
    '1' );
FILE_NAME ('rotation link2.STEP',
    '2019-12-12T16:56:25',
    ( '' ),
    ( '' ),
    'SwSTEP 2.0',
    'SolidWorks 2018',
    '' );
FILE_SCHEMA (( 'CONFIG_CONTROL_DESIGN' ));
ENDSEC;

DATA;
#1 = VECTOR ( 'NONE', #110, 1000.000000000000000 ) ;
#2 = ORIENTED_EDGE ( 'NONE', *, *, #345, .T. ) ;
#3 = CARTESIAN_POINT ( 'NONE',  ( 18.00000000000000000, 0.0000000000000000000, -30.00000000000000000 ) ) ;
#4 = ORIENTED_EDGE ( 'NONE', *, *, #465, .T. ) ;
#5 = EDGE_CURVE ( 'NONE', #319, #215, #544, .T. ) ;
#6 = PERSON_AND_ORGANIZATION_ROLE ( 'classification_officer' ) ;
#7 = ADVANCED_FACE ( 'NONE', ( #278, #683, #171 ), #642, .F. ) ;
#8 = DATE_AND_TIME ( #169, #144 ) ;
#9 = DIRECTION ( 'NONE',  ( 0.0000000000000000000, 5.782411586589357639E-16, -1.000000000000000000 ) ) ;
#10 = AXIS2_PLACEMENT_3D ( 'NONE', #598, #427, #102 ) ;
#11 = CIRCLE ( 'NONE', #137, 4.000000000000000000 ) ;
#12 = ORIENTED_EDGE ( 'NONE', *, *, #583, .F. ) ;
#13 = EDGE_LOOP ( 'NONE', ( #64, #394 ) ) ;
#14 = DIRECTION ( 'NONE',  ( 0.0000000000000000000, 1.000000000000000000, 0.0000000000000000000 ) ) ;
#15 = ORIENTED_EDGE ( 'NONE', *, *, #250, .F. ) ;
#16 = ADVANCED_FACE ( 'NONE', ( #627 ), #368, .F. ) ;
#17 = EDGE_CURVE ( 'NONE', #526, #684, #378, .T. ) ;
#18 = DIRECTION ( 'NONE',  ( 0.0000000000000000000, 0.0000000000000000000, -1.000000000000000000 ) ) ;
#19 = ADVANCED_FACE ( 'NONE', ( #596 ), #543, .F. ) ;
#20 = FACE_OUTER_BOUND ( 'NONE', #678, .T. ) ;
#21 = LINE ( 'NONE', #491, #138 ) ;
#22 = CARTESIAN_POINT ( 'NONE',  ( 13.59999999999999432, 5.999999999999997335, -27.00000000000000355 ) ) ;
#23 = EDGE_LOOP ( 'NONE', ( #93, #33, #99, #125 ) ) ;
#24 = DIRECTION ( 'NONE',  ( -0.0000000000000000000, 0.0000000000000000000, -1.000000000000000000 ) ) ;
#25 = CC_DESIGN_PERSON_AND_ORGANIZATION_ASSIGNMENT ( #187, #6, ( #685 ) ) ;
#26 = CARTESIAN_POINT ( 'NONE',  ( 18.00000000000000000, 4.999999999999999112, -30.00000000000000000 ) ) ;
#27 = CARTESIAN_POINT ( 'NONE',  ( 0.0000000000000000000, 0.0000000000000000000, -30.00000000000000000 ) ) ;
#28 = PERSON_AND_ORGANIZATION ( #457, #237 ) ;
#29 = LINE ( 'NONE', #328, #367 ) ;
#30 = EDGE_CURVE ( 'NONE', #217, #352, #91, .T. ) ;
#31 = ORIENTED_EDGE ( 'NONE', *, *, #608, .T. ) ;
#32 = EDGE_LOOP ( 'NONE', ( #247, #629 ) ) ;
#33 = ORIENTED_EDGE ( 'NONE', *, *, #176, .F. ) ;
#34 = DIRECTION ( 'NONE',  ( 0.0000000000000000000, 1.084202172485504434E-16, -1.000000000000000000 ) ) ;
#35 = DESIGN_CONTEXT ( 'detailed design', #480, 'design' ) ;
#36 = CARTESIAN_POINT ( 'NONE',  ( 18.00000000000000000, 0.0000000000000000000, -30.00000000000000000 ) ) ;
#37 = SHAPE_DEFINITION_REPRESENTATION ( #633, #46 ) ;
#38 = FACE_BOUND ( 'NONE', #488, .T. ) ;
#39 = CARTESIAN_POINT ( 'NONE',  ( 0.0000000000000000000, 4.999999999999982236, 2.891205793294668367E-15 ) ) ;
#40 = ORIENTED_EDGE ( 'NONE', *, *, #314, .T. ) ;
#41 = AXIS2_PLACEMENT_3D ( 'NONE', #679, #353, #249 ) ;
#42 = CARTESIAN_POINT ( 'NONE',  ( 4.000000000000000000, 3.000000000000000444, -4.000000000000000000 ) ) ;
#43 = CARTESIAN_POINT ( 'NONE',  ( 13.99999999999999822, 3.000000000000000444, -4.000000000000000000 ) ) ;
#44 = EDGE_CURVE ( 'NONE', #379, #645, #224, .T. ) ;
#45 = APPLICATION_PROTOCOL_DEFINITION ( 'international standard', 'config_control_design', 1994, #480 ) ;
#46 = ADVANCED_BREP_SHAPE_REPRESENTATION ( 'rotation link2', ( #573, #112 ), #557 ) ;
#47 = COORDINATED_UNIVERSAL_TIME_OFFSET ( 0, 0, .AHEAD. ) ;
#48 = APPROVAL_STATUS ( 'not_yet_approved' ) ;
#49 = ORIENTED_EDGE ( 'NONE', *, *, #383, .F. ) ;
#50 = ORIENTED_EDGE ( 'NONE', *, *, #44, .T. ) ;
#51 = AXIS2_PLACEMENT_3D ( 'NONE', #518, #628, #297 ) ;
#52 = ORIENTED_EDGE ( 'NONE', *, *, #128, .F. ) ;
#53 = DIRECTION ( 'NONE',  ( 1.000000000000000000, 0.0000000000000000000, 0.0000000000000000000 ) ) ;
#54 = COORDINATED_UNIVERSAL_TIME_OFFSET ( 0, 0, .AHEAD. ) ;
#55 = DIRECTION ( 'NONE',  ( 0.0000000000000000000, 0.0000000000000000000, -1.000000000000000000 ) ) ;
#56 = VECTOR ( 'NONE', #659, 1000.000000000000000 ) ;
#57 = DIRECTION ( 'NONE',  ( 0.0000000000000000000, 0.0000000000000000000, 1.000000000000000000 ) ) ;
#58 = LINE ( 'NONE', #3, #76 ) ;
#59 = ORIENTED_EDGE ( 'NONE', *, *, #192, .F. ) ;
#60 = CARTESIAN_POINT ( 'NONE',  ( 18.00000000000000000, 3.000000000000000000, 0.0000000000000000000 ) ) ;
#61 = DIRECTION ( 'NONE',  ( -0.0000000000000000000, 1.000000000000000000, -0.0000000000000000000 ) ) ;
#62 = APPROVAL ( #697, 'UNSPECIFIED' ) ;
#63 = CALENDAR_DATE ( 2019, 12, 12 ) ;
#64 = ORIENTED_EDGE ( 'NONE', *, *, #345, .F. ) ;
#65 = ORIENTED_EDGE ( 'NONE', *, *, #571, .F. ) ;
#66 = DIRECTION ( 'NONE',  ( -1.000000000000000000, 0.0000000000000000000, 0.0000000000000000000 ) ) ;
#67 = PERSON_AND_ORGANIZATION ( #457, #237 ) ;
#68 = CIRCLE ( 'NONE', #555, 1.450000000000001732 ) ;
#69 = EDGE_LOOP ( 'NONE', ( #471, #164 ) ) ;
#70 = ORIENTED_EDGE ( 'NONE', *, *, #109, .F. ) ;
#71 = AXIS2_PLACEMENT_3D ( 'NONE', #550, #279, #66 ) ;
#72 = DIRECTION ( 'NONE',  ( -0.0000000000000000000, -0.0000000000000000000, -1.000000000000000000 ) ) ;
#73 = DIRECTION ( 'NONE',  ( 0.0000000000000000000, 0.0000000000000000000, -1.000000000000000000 ) ) ;
#74 = EDGE_CURVE ( 'NONE', #433, #463, #487, .T. ) ;
#75 = APPROVAL_DATE_TIME ( #657, #221 ) ;
#76 = VECTOR ( 'NONE', #541, 1000.000000000000000 ) ;
#77 = CARTESIAN_POINT ( 'NONE',  ( 9.000000000000000000, 3.000000000000001776, -14.99999999999999822 ) ) ;
#78 = VERTEX_POINT ( 'NONE', #160 ) ;
#79 = ORIENTED_EDGE ( 'NONE', *, *, #373, .F. ) ;
#80 = DIRECTION ( 'NONE',  ( 0.0000000000000000000, 0.0000000000000000000, -1.000000000000000000 ) ) ;
#81 = AXIS2_PLACEMENT_3D ( 'NONE', #486, #690, #154 ) ;
#82 = CARTESIAN_POINT ( 'NONE',  ( 0.0000000000000000000, 3.000000000000000444, -4.000000000000000000 ) ) ;
#83 = CARTESIAN_POINT ( 'NONE',  ( 9.000000000000000000, 7.000000000000000000, -16.44999999999999929 ) ) ;
#84 = VECTOR ( 'NONE', #298, 1000.000000000000000 ) ;
#85 = ORIENTED_EDGE ( 'NONE', *, *, #455, .F. ) ;
#86 = ORIENTED_EDGE ( 'NONE', *, *, #689, .T. ) ;
#87 = DIRECTION ( 'NONE',  ( -0.0000000000000000000, 5.782411586589357639E-16, -1.000000000000000000 ) ) ;
#88 = CARTESIAN_POINT ( 'NONE',  ( 4.400000000000003908, 5.999999999999999112, -27.00000000000000355 ) ) ;
#89 = PERSON_AND_ORGANIZATION ( #457, #237 ) ;
#90 = DIRECTION ( 'NONE',  ( -0.0000000000000000000, 1.000000000000000000, 1.284980352575412453E-16 ) ) ;
#91 = LINE ( 'NONE', #489, #1 ) ;
#92 = ORIENTED_EDGE ( 'NONE', *, *, #620, .T. ) ;
#93 = ORIENTED_EDGE ( 'NONE', *, *, #523, .F. ) ;
#94 = DIRECTION ( 'NONE',  ( -0.0000000000000000000, -0.0000000000000000000, -1.000000000000000000 ) ) ;
#95 = PERSON_AND_ORGANIZATION_ROLE ( 'creator' ) ;
#96 = EDGE_CURVE ( 'NONE', #684, #320, #644, .T. ) ;
#97 = VECTOR ( 'NONE', #87, 1000.000000000000000 ) ;
#98 = DIRECTION ( 'NONE',  ( 0.0000000000000000000, 0.0000000000000000000, 1.000000000000000000 ) ) ;
#99 = ORIENTED_EDGE ( 'NONE', *, *, #634, .F. ) ;
#100 = DIRECTION ( 'NONE',  ( 0.0000000000000000000, 0.0000000000000000000, -1.000000000000000000 ) ) ;
#101 = CLOSED_SHELL ( 'NONE', ( #19, #16, #446, #498, #327, #7, #454, #606, #280, #503, #337, #228, #499, #559, #188, #219, #271, #331, #655 ) ) ;
#102 = DIRECTION ( 'NONE',  ( -1.000000000000000000, 0.0000000000000000000, 0.0000000000000000000 ) ) ;
#103 = CARTESIAN_POINT ( 'NONE',  ( 3.000000000000000888, 5.999999999999999112, -30.00000000000000000 ) ) ;
#104 = AXIS2_PLACEMENT_3D ( 'NONE', #272, #172, #323 ) ;
#105 = FACE_OUTER_BOUND ( 'NONE', #115, .T. ) ;
#106 = CARTESIAN_POINT ( 'NONE',  ( 18.00000000000000000, 0.0000000000000000000, -30.00000000000000000 ) ) ;
#107 = EDGE_LOOP ( 'NONE', ( #504, #257, #552, #173 ) ) ;
#108 = VERTEX_POINT ( 'NONE', #157 ) ;
#109 = EDGE_CURVE ( 'NONE', #210, #395, #190, .T. ) ;
#110 = DIRECTION ( 'NONE',  ( 0.0000000000000000000, -1.284980352575412453E-16, 1.000000000000000000 ) ) ;
#111 = CARTESIAN_POINT ( 'NONE',  ( 0.0000000000000000000, 0.0000000000000000000, 0.0000000000000000000 ) ) ;
#112 = AXIS2_PLACEMENT_3D ( 'NONE', #415, #252, #357 ) ;
#113 = CIRCLE ( 'NONE', #270, 1.400000000000002798 ) ;
#114 = FACE_OUTER_BOUND ( 'NONE', #562, .T. ) ;
#115 = EDGE_LOOP ( 'NONE', ( #412, #324, #140, #576, #661, #653 ) ) ;
#116 = EDGE_LOOP ( 'NONE', ( #495, #405, #462, #386, #597, #50, #232 ) ) ;
#117 = ORIENTED_EDGE ( 'NONE', *, *, #214, .F. ) ;
#118 = AXIS2_PLACEMENT_3D ( 'NONE', #578, #246, #355 ) ;
#119 = DIRECTION ( 'NONE',  ( 0.0000000000000000000, -1.000000000000000000, -8.673617379884035472E-16 ) ) ;
#120 = PLANE ( 'NONE',  #589 ) ;
#121 = FACE_OUTER_BOUND ( 'NONE', #116, .T. ) ;
#122 = VECTOR ( 'NONE', #201, 1000.000000000000000 ) ;
#123 = ORIENTED_EDGE ( 'NONE', *, *, #17, .T. ) ;
#124 = CARTESIAN_POINT ( 'NONE',  ( 3.000000000000000888, 5.999999999999999112, -27.00000000000000355 ) ) ;
#125 = ORIENTED_EDGE ( 'NONE', *, *, #44, .F. ) ;
#126 = AXIS2_PLACEMENT_3D ( 'NONE', #388, #167, #506 ) ;
#127 = CARTESIAN_POINT ( 'NONE',  ( 13.99999999999999822, 0.0000000000000000000, 0.0000000000000000000 ) ) ;
#128 = EDGE_CURVE ( 'NONE', #147, #108, #351, .T. ) ;
#129 = FACE_BOUND ( 'NONE', #69, .T. ) ;
#130 = DIRECTION ( 'NONE',  ( 1.000000000000000000, 0.0000000000000000000, -0.0000000000000000000 ) ) ;
#131 = ORIENTED_EDGE ( 'NONE', *, *, #620, .F. ) ;
#132 = EDGE_LOOP ( 'NONE', ( #131, #302, #79, #196, #413, #149, #605 ) ) ;
#133 = ORIENTED_EDGE ( 'NONE', *, *, #153, .F. ) ;
#134 = DIRECTION ( 'NONE',  ( -0.0000000000000000000, -0.0000000000000000000, -1.000000000000000000 ) ) ;
#135 = CARTESIAN_POINT ( 'NONE',  ( 9.000000000000000000, 0.0000000000000000000, -14.99999999999999822 ) ) ;
#136 = FACE_BOUND ( 'NONE', #13, .T. ) ;
#137 = AXIS2_PLACEMENT_3D ( 'NONE', #43, #90, #34 ) ;
#138 = VECTOR ( 'NONE', #493, 1000.000000000000000 ) ;
#139 = DIRECTION ( 'NONE',  ( -1.000000000000000000, -0.0000000000000000000, -0.0000000000000000000 ) ) ;
#140 = ORIENTED_EDGE ( 'NONE', *, *, #192, .T. ) ;
#141 = EDGE_LOOP ( 'NONE', ( #553, #31 ) ) ;
#142 = DIRECTION ( 'NONE',  ( -0.0000000000000000000, -1.000000000000000000, -0.0000000000000000000 ) ) ;
#143 =( LENGTH_UNIT ( ) NAMED_UNIT ( * ) SI_UNIT ( .MILLI., .METRE. ) );
#144 = LOCAL_TIME ( 16, 56, 25.00000000000000000, #290 ) ;
#145 = CYLINDRICAL_SURFACE ( 'NONE', #407, 4.000000000000000000 ) ;
#146 = DIRECTION ( 'NONE',  ( -0.0000000000000000000, -0.0000000000000000000, -1.000000000000000000 ) ) ;
#147 = VERTEX_POINT ( 'NONE', #322 ) ;
#148 = PRODUCT_DEFINITION ( 'UNKNOWN', '', #545, #35 ) ;
#149 = ORIENTED_EDGE ( 'NONE', *, *, #30, .F. ) ;
#150 = ORIENTED_EDGE ( 'NONE', *, *, #128, .T. ) ;
#151 = DIRECTION ( 'NONE',  ( 0.0000000000000000000, 1.000000000000000000, 0.0000000000000000000 ) ) ;
#152 = CARTESIAN_POINT ( 'NONE',  ( 4.000000000000000000, 0.0000000000000000000, -4.000000000000000000 ) ) ;
#153 = EDGE_CURVE ( 'NONE', #225, #441, #450, .T. ) ;
#154 = DIRECTION ( 'NONE',  ( 0.0000000000000000000, 1.000000000000000000, 8.673617379884035472E-16 ) ) ;
#155 = CIRCLE ( 'NONE', #161, 0.5000000000000004441 ) ;
#156 = ORIENTED_EDGE ( 'NONE', *, *, #314, .F. ) ;
#157 = CARTESIAN_POINT ( 'NONE',  ( 4.000000000000000000, 3.000000000000000000, 0.0000000000000000000 ) ) ;
#158 = DATE_TIME_ROLE ( 'classification_date' ) ;
#159 = CARTESIAN_POINT ( 'NONE',  ( 13.99999999999999822, 3.000000000000000000, 0.0000000000000000000 ) ) ;
#160 = CARTESIAN_POINT ( 'NONE',  ( 0.0000000000000000000, 0.0000000000000000000, -30.00000000000000000 ) ) ;
#161 = AXIS2_PLACEMENT_3D ( 'NONE', #174, #177, #181 ) ;
#162 = PLANE ( 'NONE',  #285 ) ;
#163 = LINE ( 'NONE', #389, #585 ) ;
#164 = ORIENTED_EDGE ( 'NONE', *, *, #109, .T. ) ;
#165 = VERTEX_POINT ( 'NONE', #694 ) ;
#166 = EDGE_CURVE ( 'NONE', #422, #78, #616, .T. ) ;
#167 = DIRECTION ( 'NONE',  ( -0.0000000000000000000, 5.782411586589357639E-16, -1.000000000000000000 ) ) ;
#168 = CARTESIAN_POINT ( 'NONE',  ( 18.00000000000000000, 0.0000000000000000000, 0.0000000000000000000 ) ) ;
#169 = CALENDAR_DATE ( 2019, 12, 12 ) ;
#170 = VECTOR ( 'NONE', #18, 1000.000000000000000 ) ;
#171 = FACE_OUTER_BOUND ( 'NONE', #380, .T. ) ;
#172 = DIRECTION ( 'NONE',  ( -0.0000000000000000000, -5.782411586589362569E-16, 1.000000000000000000 ) ) ;
#173 = ORIENTED_EDGE ( 'NONE', *, *, #643, .T. ) ;
#174 = CARTESIAN_POINT ( 'NONE',  ( 0.0000000000000000000, 3.500000000000003553, -26.50000000000000355 ) ) ;
#175 = CARTESIAN_POINT ( 'NONE',  ( 16.40000000000000213, 5.999999999999997335, -30.00000000000000000 ) ) ;
#176 = EDGE_CURVE ( 'NONE', #424, #147, #667, .T. ) ;
#177 = DIRECTION ( 'NONE',  ( 1.000000000000000000, 0.0000000000000000000, -0.0000000000000000000 ) ) ;
#178 = LINE ( 'NONE', #530, #230 ) ;
#179 = VECTOR ( 'NONE', #265, 1000.000000000000000 ) ;
#180 = ORIENTED_EDGE ( 'NONE', *, *, #492, .T. ) ;
#181 = DIRECTION ( 'NONE',  ( 0.0000000000000000000, 0.0000000000000000000, -1.000000000000000000 ) ) ;
#182 = EDGE_LOOP ( 'NONE', ( #387, #512 ) ) ;
#183 = ORIENTED_EDGE ( 'NONE', *, *, #654, .F. ) ;
#184 = CARTESIAN_POINT ( 'NONE',  ( 18.00000000000000000, 3.000000000000000444, -4.000000000000000000 ) ) ;
#185 = DIRECTION ( 'NONE',  ( -0.0000000000000000000, 5.782411586589357639E-16, -1.000000000000000000 ) ) ;
#186 = AXIS2_PLACEMENT_3D ( 'NONE', #198, #146, #253 ) ;
#187 = PERSON_AND_ORGANIZATION ( #457, #237 ) ;
#188 = ADVANCED_FACE ( 'NONE', ( #245 ), #682, .T. ) ;
#189 = FACE_BOUND ( 'NONE', #182, .T. ) ;
#190 = CIRCLE ( 'NONE', #677, 1.450000000000001732 ) ;
#191 = VERTEX_POINT ( 'NONE', #590 ) ;
#192 = EDGE_CURVE ( 'NONE', #424, #225, #213, .T. ) ;
#193 = PLANE ( 'NONE',  #341 ) ;
#194 = CYLINDRICAL_SURFACE ( 'NONE', #10, 1.400000000000003020 ) ;
#195 = DIRECTION ( 'NONE',  ( 0.0000000000000000000, 0.0000000000000000000, -1.000000000000000000 ) ) ;
#196 = ORIENTED_EDGE ( 'NONE', *, *, #299, .F. ) ;
#197 = ORIENTED_EDGE ( 'NONE', *, *, #30, .T. ) ;
#198 = CARTESIAN_POINT ( 'NONE',  ( 14.99999999999999822, 5.999999999999997335, -8.999999999999991118 ) ) ;
#199 = ORIENTED_EDGE ( 'NONE', *, *, #689, .F. ) ;
#200 = DATE_TIME_ROLE ( 'creation_date' ) ;
#201 = DIRECTION ( 'NONE',  ( -0.0000000000000000000, -0.0000000000000000000, -1.000000000000000000 ) ) ;
#202 = EDGE_CURVE ( 'NONE', #422, #478, #58, .T. ) ;
#203 = CARTESIAN_POINT ( 'NONE',  ( 13.99999999999999822, 0.0000000000000000000, -4.000000000000000000 ) ) ;
#204 = COORDINATED_UNIVERSAL_TIME_OFFSET ( 0, 0, .AHEAD. ) ;
#205 = CARTESIAN_POINT ( 'NONE',  ( 9.000000000000000000, 7.000000000000000000, -14.99999999999999822 ) ) ;
#206 = VECTOR ( 'NONE', #567, 1000.000000000000000 ) ;
#207 = DIRECTION ( 'NONE',  ( -1.000000000000000000, -0.0000000000000000000, -0.0000000000000000000 ) ) ;
#208 = ORIENTED_EDGE ( 'NONE', *, *, #477, .T. ) ;
#209 = APPLICATION_PROTOCOL_DEFINITION ( 'international standard', 'config_control_design', 1994, #538 ) ;
#210 = VERTEX_POINT ( 'NONE', #434 ) ;
#211 = CARTESIAN_POINT ( 'NONE',  ( 18.00000000000000000, 3.500000000000003997, -27.00000000000000355 ) ) ;
#212 = LINE ( 'NONE', #426, #524 ) ;
#213 = LINE ( 'NONE', #425, #410 ) ;
#214 = EDGE_CURVE ( 'NONE', #210, #511, #21, .T. ) ;
#215 = VERTEX_POINT ( 'NONE', #211 ) ;
#216 = DIRECTION ( 'NONE',  ( 1.000000000000000000, 0.0000000000000000000, 0.0000000000000000000 ) ) ;
#217 = VERTEX_POINT ( 'NONE', #372 ) ;
#218 = DIRECTION ( 'NONE',  ( 0.0000000000000000000, 0.0000000000000000000, -1.000000000000000000 ) ) ;
#219 = ADVANCED_FACE ( 'NONE', ( #637 ), #510, .F. ) ;
#220 = DIRECTION ( 'NONE',  ( 0.0000000000000000000, 5.782411586589362569E-16, -1.000000000000000000 ) ) ;
#221 = APPROVAL ( #48, 'UNSPECIFIED' ) ;
#222 = DIRECTION ( 'NONE',  ( 0.0000000000000000000, -1.000000000000000000, -5.782411586589357639E-16 ) ) ;
#223 = LINE ( 'NONE', #522, #647 ) ;
#224 = LINE ( 'NONE', #261, #301 ) ;
#225 = VERTEX_POINT ( 'NONE', #483 ) ;
#226 = AXIS2_PLACEMENT_3D ( 'NONE', #313, #142, #582 ) ;
#227 = EDGE_LOOP ( 'NONE', ( #70, #619, #208, #312 ) ) ;
#228 = ADVANCED_FACE ( 'NONE', ( #334 ), #194, .F. ) ;
#229 = EDGE_CURVE ( 'NONE', #660, #215, #266, .T. ) ;
#230 = VECTOR ( 'NONE', #581, 1000.000000000000000 ) ;
#231 = VERTEX_POINT ( 'NONE', #330 ) ;
#232 = ORIENTED_EDGE ( 'NONE', *, *, #423, .T. ) ;
#233 = AXIS2_PLACEMENT_3D ( 'NONE', #335, #222, #9 ) ;
#234 = DIRECTION ( 'NONE',  ( -1.000000000000000000, 0.0000000000000000000, 0.0000000000000000000 ) ) ;
#235 = CARTESIAN_POINT ( 'NONE',  ( 9.000000000000000000, 3.000000000000001776, -16.44999999999999929 ) ) ;
#236 = EDGE_CURVE ( 'NONE', #463, #284, #476, .T. ) ;
#237 = ORGANIZATION ( 'UNSPECIFIED', 'UNSPECIFIED', '' ) ;
#238 = DIRECTION ( 'NONE',  ( 0.0000000000000000000, -1.000000000000000000, 0.0000000000000000000 ) ) ;
#239 = VERTEX_POINT ( 'NONE', #594 ) ;
#240 = CARTESIAN_POINT ( 'NONE',  ( 18.00000000000000000, 3.000000000000003553, -26.50000000000000355 ) ) ;
#241 = DIRECTION ( 'NONE',  ( 1.000000000000000000, 0.0000000000000000000, -0.0000000000000000000 ) ) ;
#242 = AXIS2_PLACEMENT_3D ( 'NONE', #436, #321, #268 ) ;
#243 = CIRCLE ( 'NONE', #490, 1.400000000000002798 ) ;
#244 = CARTESIAN_POINT ( 'NONE',  ( 13.99999999999999822, 9.000000000000000000, -30.00000000000000000 ) ) ;
#245 = FACE_OUTER_BOUND ( 'NONE', #421, .T. ) ;
#246 = DIRECTION ( 'NONE',  ( 0.0000000000000000000, 5.782411586589362569E-16, -1.000000000000000000 ) ) ;
#247 = ORIENTED_EDGE ( 'NONE', *, *, #263, .T. ) ;
#248 = ORIENTED_EDGE ( 'NONE', *, *, #274, .F. ) ;
#249 = DIRECTION ( 'NONE',  ( 0.0000000000000000000, 0.0000000000000000000, 1.000000000000000000 ) ) ;
#250 = EDGE_CURVE ( 'NONE', #478, #319, #681, .T. ) ;
#251 = CARTESIAN_POINT ( 'NONE',  ( 0.0000000000000000000, 3.500000000000003997, -27.00000000000000355 ) ) ;
#252 = DIRECTION ( 'NONE',  ( 0.0000000000000000000, 0.0000000000000000000, 1.000000000000000000 ) ) ;
#253 = DIRECTION ( 'NONE',  ( -1.000000000000000000, 0.0000000000000000000, 0.0000000000000000000 ) ) ;
#254 = APPROVAL_PERSON_ORGANIZATION ( #67, #579, #428 ) ;
#255 = CC_DESIGN_PERSON_AND_ORGANIZATION_ASSIGNMENT ( #515, #95, ( #148 ) ) ;
#256 = DIRECTION ( 'NONE',  ( 0.0000000000000000000, 5.782411586589362569E-16, -1.000000000000000000 ) ) ;
#257 = ORIENTED_EDGE ( 'NONE', *, *, #360, .F. ) ;
#258 = EDGE_LOOP ( 'NONE', ( #669, #123, #443, #479 ) ) ;
#259 = ORIENTED_EDGE ( 'NONE', *, *, #571, .T. ) ;
#260 = DIRECTION ( 'NONE',  ( -0.0000000000000000000, 0.0000000000000000000, -1.000000000000000000 ) ) ;
#261 = CARTESIAN_POINT ( 'NONE',  ( 18.00000000000000000, 0.0000000000000000000, -4.000000000000000000 ) ) ;
#262 = AXIS2_PLACEMENT_3D ( 'NONE', #103, #376, #696 ) ;
#263 = EDGE_CURVE ( 'NONE', #453, #433, #243, .T. ) ;
#264 = CIRCLE ( 'NONE', #482, 1.450000000000001732 ) ;
#265 = DIRECTION ( 'NONE',  ( -1.000000000000000000, -0.0000000000000000000, -0.0000000000000000000 ) ) ;
#266 = LINE ( 'NONE', #496, #535 ) ;
#267 = EDGE_LOOP ( 'NONE', ( #248, #275, #49, #570 ) ) ;
#268 = DIRECTION ( 'NONE',  ( 0.0000000000000000000, 0.0000000000000000000, -1.000000000000000000 ) ) ;
#269 = PERSON_AND_ORGANIZATION_ROLE ( 'design_supplier' ) ;
#270 = AXIS2_PLACEMENT_3D ( 'NONE', #688, #256, #305 ) ;
#271 = ADVANCED_FACE ( 'NONE', ( #409 ), #145, .T. ) ;
#272 = CARTESIAN_POINT ( 'NONE',  ( 13.99999999999999822, 4.999999999999997335, -27.00000000000000355 ) ) ;
#273 = LINE ( 'NONE', #521, #691 ) ;
#274 = EDGE_CURVE ( 'NONE', #215, #575, #332, .T. ) ;
#275 = ORIENTED_EDGE ( 'NONE', *, *, #229, .F. ) ;
#276 = DIRECTION ( 'NONE',  ( -1.000000000000000000, -0.0000000000000000000, 0.0000000000000000000 ) ) ;
#277 = ORIENTED_EDGE ( 'NONE', *, *, #74, .F. ) ;
#278 = FACE_BOUND ( 'NONE', #32, .T. ) ;
#279 = DIRECTION ( 'NONE',  ( 0.0000000000000000000, 0.0000000000000000000, -1.000000000000000000 ) ) ;
#280 = ADVANCED_FACE ( 'NONE', ( #38, #105 ), #162, .F. ) ;
#281 = CARTESIAN_POINT ( 'NONE',  ( 4.000000000000000000, 9.000000000000000000, -30.00000000000000000 ) ) ;
#282 = LINE ( 'NONE', #83, #84 ) ;
#283 = VECTOR ( 'NONE', #207, 1000.000000000000000 ) ;
#284 = VERTEX_POINT ( 'NONE', #447 ) ;
#285 = AXIS2_PLACEMENT_3D ( 'NONE', #168, #607, #381 ) ;
#286 = DIRECTION ( 'NONE',  ( 0.0000000000000000000, -1.000000000000000000, -1.284980352575412453E-16 ) ) ;
#287 = CARTESIAN_POINT ( 'NONE',  ( 18.00000000000000000, 0.0000000000000000000, -30.00000000000000000 ) ) ;
#288 = EDGE_CURVE ( 'NONE', #319, #191, #469, .T. ) ;
#289 = DIRECTION ( 'NONE',  ( 0.0000000000000000000, 0.0000000000000000000, -1.000000000000000000 ) ) ;
#290 = COORDINATED_UNIVERSAL_TIME_OFFSET ( 0, 0, .AHEAD. ) ;
#291 = VECTOR ( 'NONE', #134, 1000.000000000000000 ) ;
#292 = DIRECTION ( 'NONE',  ( -1.000000000000000000, -0.0000000000000000000, -0.0000000000000000000 ) ) ;
#293 = ORIENTED_EDGE ( 'NONE', *, *, #411, .F. ) ;
#294 = ORIENTED_EDGE ( 'NONE', *, *, #375, .F. ) ;
#295 = AXIS2_PLACEMENT_3D ( 'NONE', #558, #276, #218 ) ;
#296 = VERTEX_POINT ( 'NONE', #438 ) ;
#297 = DIRECTION ( 'NONE',  ( -0.0000000000000000000, 0.0000000000000000000, -1.000000000000000000 ) ) ;
#298 = DIRECTION ( 'NONE',  ( -0.0000000000000000000, -1.000000000000000000, -0.0000000000000000000 ) ) ;
#299 = EDGE_CURVE ( 'NONE', #441, #78, #318, .T. ) ;
#300 = CYLINDRICAL_SURFACE ( 'NONE', #595, 1.400000000000003020 ) ;
#301 = VECTOR ( 'NONE', #600, 1000.000000000000000 ) ;
#302 = ORIENTED_EDGE ( 'NONE', *, *, #563, .T. ) ;
#303 = ORIENTED_EDGE ( 'NONE', *, *, #654, .T. ) ;
#304 = CARTESIAN_POINT ( 'NONE',  ( 9.000000000000000000, 0.0000000000000000000, -13.54999999999999716 ) ) ;
#305 = DIRECTION ( 'NONE',  ( 0.0000000000000000000, 1.000000000000000000, 0.0000000000000000000 ) ) ;
#306 = AXIS2_PLACEMENT_3D ( 'NONE', #393, #72, #617 ) ;
#307 = APPROVAL_DATE_TIME ( #339, #579 ) ;
#308 =( NAMED_UNIT ( * ) SI_UNIT ( $, .STERADIAN. ) SOLID_ANGLE_UNIT ( ) );
#309 = FACE_OUTER_BOUND ( 'NONE', #258, .T. ) ;
#310 = ORIENTED_EDGE ( 'NONE', *, *, #668, .T. ) ;
#311 = EDGE_LOOP ( 'NONE', ( #59, #461, #150, #613 ) ) ;
#312 = ORIENTED_EDGE ( 'NONE', *, *, #492, .F. ) ;
#313 = CARTESIAN_POINT ( 'NONE',  ( 9.000000000000000000, 7.000000000000000000, -14.99999999999999822 ) ) ;
#314 = EDGE_CURVE ( 'NONE', #296, #478, #658, .T. ) ;
#315 = DIRECTION ( 'NONE',  ( 0.0000000000000000000, 0.0000000000000000000, -1.000000000000000000 ) ) ;
#316 = CARTESIAN_POINT ( 'NONE',  ( 18.00000000000000000, 3.500000000000003553, -26.50000000000000355 ) ) ;
#317 = PERSON_AND_ORGANIZATION ( #457, #237 ) ;
#318 = LINE ( 'NONE', #111, #170 ) ;
#319 = VERTEX_POINT ( 'NONE', #656 ) ;
#320 = VERTEX_POINT ( 'NONE', #554 ) ;
#321 = DIRECTION ( 'NONE',  ( 0.0000000000000000000, -1.000000000000000000, 0.0000000000000000000 ) ) ;
#322 = CARTESIAN_POINT ( 'NONE',  ( 13.99999999999999822, 3.000000000000000000, 0.0000000000000000000 ) ) ;
#323 = DIRECTION ( 'NONE',  ( 0.0000000000000000000, 1.000000000000000000, 8.673617379884035472E-16 ) ) ;
#324 = ORIENTED_EDGE ( 'NONE', *, *, #634, .T. ) ;
#325 = VERTEX_POINT ( 'NONE', #281 ) ;
#326 = DIRECTION ( 'NONE',  ( 1.000000000000000000, 0.0000000000000000000, 0.0000000000000000000 ) ) ;
#327 = ADVANCED_FACE ( 'NONE', ( #603 ), #662, .F. ) ;
#328 = CARTESIAN_POINT ( 'NONE',  ( 4.000000000000000000, 3.000000000000000000, 0.0000000000000000000 ) ) ;
#329 = CC_DESIGN_APPROVAL ( #579, ( #545 ) ) ;
#330 = CARTESIAN_POINT ( 'NONE',  ( 0.0000000000000000000, 4.999999999999997335, -27.00000000000000355 ) ) ;
#331 = ADVANCED_FACE ( 'NONE', ( #502 ), #517, .T. ) ;
#332 = CIRCLE ( 'NONE', #295, 0.5000000000000004441 ) ;
#333 = EDGE_CURVE ( 'NONE', #108, #225, #29, .T. ) ;
#334 = FACE_OUTER_BOUND ( 'NONE', #107, .T. ) ;
#335 = CARTESIAN_POINT ( 'NONE',  ( 18.00000000000000000, 9.000000000000000000, -30.00000000000000000 ) ) ;
#336 = ORIENTED_EDGE ( 'NONE', *, *, #74, .T. ) ;
#337 = ADVANCED_FACE ( 'NONE', ( #611 ), #672, .F. ) ;
#338 = DIRECTION ( 'NONE',  ( 0.0000000000000000000, -5.782411586589357639E-16, 1.000000000000000000 ) ) ;
#339 = DATE_AND_TIME ( #459, #484 ) ;
#340 = ORIENTED_EDGE ( 'NONE', *, *, #333, .F. ) ;
#341 = AXIS2_PLACEMENT_3D ( 'NONE', #36, #404, #241 ) ;
#342 = CARTESIAN_POINT ( 'NONE',  ( 14.99999999999999822, 5.999999999999997335, -30.00000000000000000 ) ) ;
#343 = ORIENTED_EDGE ( 'NONE', *, *, #547, .F. ) ;
#344 = CARTESIAN_POINT ( 'NONE',  ( 18.00000000000000000, 0.0000000000000000000, 0.0000000000000000000 ) ) ;
#345 = EDGE_CURVE ( 'NONE', #284, #463, #349, .T. ) ;
#346 = CARTESIAN_POINT ( 'NONE',  ( 18.00000000000000000, 3.000000000000000000, 0.0000000000000000000 ) ) ;
#347 = UNCERTAINTY_MEASURE_WITH_UNIT (LENGTH_MEASURE( 1.000000000000000082E-05 ), #143, 'distance_accuracy_value', 'NONE');
#348 = LOCAL_TIME ( 16, 56, 25.00000000000000000, #47 ) ;
#349 = CIRCLE ( 'NONE', #631, 1.400000000000003686 ) ;
#350 = DIRECTION ( 'NONE',  ( 0.0000000000000000000, 1.084202172485504434E-16, -1.000000000000000000 ) ) ;
#351 = LINE ( 'NONE', #60, #283 ) ;
#352 = VERTEX_POINT ( 'NONE', #82 ) ;
#353 = DIRECTION ( 'NONE',  ( 0.0000000000000000000, 1.000000000000000000, 0.0000000000000000000 ) ) ;
#354 = AXIS2_PLACEMENT_3D ( 'NONE', #42, #632, #350 ) ;
#355 = DIRECTION ( 'NONE',  ( 0.0000000000000000000, 1.000000000000000000, 5.782411586589362569E-16 ) ) ;
#356 = PERSON_AND_ORGANIZATION ( #457, #237 ) ;
#357 = DIRECTION ( 'NONE',  ( 1.000000000000000000, 0.0000000000000000000, 0.0000000000000000000 ) ) ;
#358 = EDGE_LOOP ( 'NONE', ( #639, #336, #371, #12 ) ) ;
#359 = CARTESIAN_POINT ( 'NONE',  ( 18.00000000000000000, 8.999999999999998224, -27.00000000000000000 ) ) ;
#360 = EDGE_CURVE ( 'NONE', #693, #526, #593, .T. ) ;
#361 = CARTESIAN_POINT ( 'NONE',  ( 1.599999999999997868, 5.999999999999999112, -27.00000000000000355 ) ) ;
#362 = DIRECTION ( 'NONE',  ( 0.0000000000000000000, 5.782411586589362569E-16, -1.000000000000000000 ) ) ;
#363 = DIRECTION ( 'NONE',  ( 0.0000000000000000000, -1.000000000000000000, -5.782411586589362569E-16 ) ) ;
#364 = CC_DESIGN_DATE_AND_TIME_ASSIGNMENT ( #468, #158, ( #685 ) ) ;
#365 = CIRCLE ( 'NONE', #382, 1.450000000000001732 ) ;
#366 = DIRECTION ( 'NONE',  ( -0.0000000000000000000, -1.000000000000000000, -0.0000000000000000000 ) ) ;
#367 = VECTOR ( 'NONE', #664, 1000.000000000000000 ) ;
#368 = CYLINDRICAL_SURFACE ( 'NONE', #186, 1.400000000000003686 ) ;
#369 = ORIENTED_EDGE ( 'NONE', *, *, #563, .F. ) ;
#370 = DIRECTION ( 'NONE',  ( 0.0000000000000000000, -1.000000000000000000, 0.0000000000000000000 ) ) ;
#371 = ORIENTED_EDGE ( 'NONE', *, *, #236, .T. ) ;
#372 = CARTESIAN_POINT ( 'NONE',  ( 0.0000000000000000000, 3.000000000000003553, -26.50000000000000355 ) ) ;
#373 = EDGE_CURVE ( 'NONE', #78, #402, #460, .T. ) ;
#374 = CARTESIAN_POINT ( 'NONE',  ( 9.000000000000000000, 3.000000000000001776, -14.99999999999999822 ) ) ;
#375 = EDGE_CURVE ( 'NONE', #395, #210, #68, .T. ) ;
#376 = DIRECTION ( 'NONE',  ( -0.0000000000000000000, 0.0000000000000000000, -1.000000000000000000 ) ) ;
#377 = APPROVAL_DATE_TIME ( #8, #62 ) ;
#378 = LINE ( 'NONE', #687, #650 ) ;
#379 = VERTEX_POINT ( 'NONE', #184 ) ;
#380 = EDGE_LOOP ( 'NONE', ( #676, #86, #92, #651, #520, #536 ) ) ;
#381 = DIRECTION ( 'NONE',  ( 0.0000000000000000000, -0.0000000000000000000, 1.000000000000000000 ) ) ;
#382 = AXIS2_PLACEMENT_3D ( 'NONE', #641, #370, #315 ) ;
#383 = EDGE_CURVE ( 'NONE', #217, #660, #155, .T. ) ;
#384 = DIRECTION ( 'NONE',  ( -0.0000000000000000000, -0.0000000000000000000, -1.000000000000000000 ) ) ;
#385 = CYLINDRICAL_SURFACE ( 'NONE', #41, 4.000000000000000000 ) ;
#386 = ORIENTED_EDGE ( 'NONE', *, *, #274, .T. ) ;
#387 = ORIENTED_EDGE ( 'NONE', *, *, #643, .F. ) ;
#388 = CARTESIAN_POINT ( 'NONE',  ( 13.99999999999999822, 4.999999999999982236, 2.891205793294668367E-15 ) ) ;
#389 = CARTESIAN_POINT ( 'NONE',  ( 18.00000000000000000, 9.000000000000000000, -30.00000000000000000 ) ) ;
#390 = LINE ( 'NONE', #680, #291 ) ;
#391 = AXIS2_PLACEMENT_3D ( 'NONE', #205, #366, #55 ) ;
#392 = VECTOR ( 'NONE', #61, 1000.000000000000000 ) ;
#393 = CARTESIAN_POINT ( 'NONE',  ( 4.000000000000000000, 4.999999999999999112, -30.00000000000000000 ) ) ;
#394 = ORIENTED_EDGE ( 'NONE', *, *, #236, .F. ) ;
#395 = VERTEX_POINT ( 'NONE', #235 ) ;
#396 = DIRECTION ( 'NONE',  ( 0.0000000000000000000, 1.000000000000000000, 0.0000000000000000000 ) ) ;
#397 = EDGE_CURVE ( 'NONE', #402, #325, #666, .T. ) ;
#398 = DIRECTION ( 'NONE',  ( 0.0000000000000000000, 1.000000000000000000, 0.0000000000000000000 ) ) ;
#399 = CARTESIAN_POINT ( 'NONE',  ( 16.40000000000000213, 5.999999999999997335, -27.00000000000000355 ) ) ;
#400 = CALENDAR_DATE ( 2019, 12, 12 ) ;
#401 = LINE ( 'NONE', #344, #574 ) ;
#402 = VERTEX_POINT ( 'NONE', #452 ) ;
#403 = CC_DESIGN_APPROVAL ( #62, ( #685 ) ) ;
#404 = DIRECTION ( 'NONE',  ( 0.0000000000000000000, 0.0000000000000000000, 1.000000000000000000 ) ) ;
#405 = ORIENTED_EDGE ( 'NONE', *, *, #250, .T. ) ;
#406 = DIRECTION ( 'NONE',  ( -0.0000000000000000000, -0.0000000000000000000, -1.000000000000000000 ) ) ;
#407 = AXIS2_PLACEMENT_3D ( 'NONE', #609, #448, #119 ) ;
#408 = PLANE ( 'NONE',  #699 ) ;
#409 = FACE_OUTER_BOUND ( 'NONE', #432, .T. ) ;
#410 = VECTOR ( 'NONE', #698, 1000.000000000000000 ) ;
#411 = EDGE_CURVE ( 'NONE', #441, #352, #626, .T. ) ;
#412 = ORIENTED_EDGE ( 'NONE', *, *, #423, .F. ) ;
#413 = ORIENTED_EDGE ( 'NONE', *, *, #411, .T. ) ;
#414 = DIRECTION ( 'NONE',  ( -0.0000000000000000000, -0.0000000000000000000, -1.000000000000000000 ) ) ;
#415 = CARTESIAN_POINT ( 'NONE',  ( 0.0000000000000000000, 0.0000000000000000000, 0.0000000000000000000 ) ) ;
#416 = CC_DESIGN_DATE_AND_TIME_ASSIGNMENT ( #602, #200, ( #148 ) ) ;
#417 = APPROVAL_ROLE ( '' ) ;
#418 = FACE_OUTER_BOUND ( 'NONE', #612, .T. ) ;
#419 = VECTOR ( 'NONE', #572, 1000.000000000000000 ) ;
#420 = CARTESIAN_POINT ( 'NONE',  ( 18.00000000000000000, 0.0000000000000000000, -4.000000000000000000 ) ) ;
#421 = EDGE_LOOP ( 'NONE', ( #85, #293, #133, #340 ) ) ;
#422 = VERTEX_POINT ( 'NONE', #287 ) ;
#423 = EDGE_CURVE ( 'NONE', #645, #422, #401, .T. ) ;
#424 = VERTEX_POINT ( 'NONE', #127 ) ;
#425 = CARTESIAN_POINT ( 'NONE',  ( 18.00000000000000000, 0.0000000000000000000, 0.0000000000000000000 ) ) ;
#426 = CARTESIAN_POINT ( 'NONE',  ( 0.0000000000000000000, 3.000000000000003553, -26.50000000000000355 ) ) ;
#427 = DIRECTION ( 'NONE',  ( -0.0000000000000000000, -0.0000000000000000000, -1.000000000000000000 ) ) ;
#428 = APPROVAL_ROLE ( '' ) ;
#429 = VECTOR ( 'NONE', #338, 1000.000000000000000 ) ;
#430 = DIRECTION ( 'NONE',  ( 0.0000000000000000000, -1.000000000000000000, -1.284980352575412453E-16 ) ) ;
#431 = VECTOR ( 'NONE', #363, 1000.000000000000000 ) ;
#432 = EDGE_LOOP ( 'NONE', ( #442, #369, #199, #537 ) ) ;
#433 = VERTEX_POINT ( 'NONE', #399 ) ;
#434 = CARTESIAN_POINT ( 'NONE',  ( 9.000000000000000000, 3.000000000000001776, -13.54999999999999716 ) ) ;
#435 = CC_DESIGN_APPROVAL ( #221, ( #148 ) ) ;
#436 = CARTESIAN_POINT ( 'NONE',  ( 4.000000000000000000, 3.000000000000000000, -4.000000000000000000 ) ) ;
#437 = EDGE_CURVE ( 'NONE', #296, #325, #163, .T. ) ;
#438 = CARTESIAN_POINT ( 'NONE',  ( 13.99999999999999822, 9.000000000000000000, -30.00000000000000000 ) ) ;
#439 = LOCAL_TIME ( 16, 56, 25.00000000000000000, #204 ) ;
#440 = LINE ( 'NONE', #670, #429 ) ;
#441 = VERTEX_POINT ( 'NONE', #464 ) ;
#442 = ORIENTED_EDGE ( 'NONE', *, *, #397, .F. ) ;
#443 = ORIENTED_EDGE ( 'NONE', *, *, #96, .T. ) ;
#444 = DIRECTION ( 'NONE',  ( 1.000000000000000000, -0.0000000000000000000, -0.0000000000000000000 ) ) ;
#445 = AXIS2_PLACEMENT_3D ( 'NONE', #621, #130, #24 ) ;
#446 = ADVANCED_FACE ( 'NONE', ( #309 ), #300, .F. ) ;
#447 = CARTESIAN_POINT ( 'NONE',  ( 13.59999999999999432, 5.999999999999997335, -30.00000000000000000 ) ) ;
#448 = DIRECTION ( 'NONE',  ( 0.0000000000000000000, -5.782411586589357639E-16, 1.000000000000000000 ) ) ;
#449 = VECTOR ( 'NONE', #398, 1000.000000000000000 ) ;
#450 = CIRCLE ( 'NONE', #513, 4.000000000000000000 ) ;
#451 = ORIENTED_EDGE ( 'NONE', *, *, #437, .T. ) ;
#452 = CARTESIAN_POINT ( 'NONE',  ( 0.0000000000000000000, 4.999999999999999112, -30.00000000000000000 ) ) ;
#453 = VERTEX_POINT ( 'NONE', #22 ) ;
#454 = ADVANCED_FACE ( 'NONE', ( #129, #20 ), #120, .F. ) ;
#455 = EDGE_CURVE ( 'NONE', #352, #108, #485, .T. ) ;
#456 = DIRECTION ( 'NONE',  ( 0.0000000000000000000, -1.000000000000000000, -1.284980352575412453E-16 ) ) ;
#457 = PERSON ( 'UNSPECIFIED', 'UNSPECIFIED', 'UNSPECIFIED', ('UNSPECIFIED'), ('UNSPECIFIED'), ('UNSPECIFIED') ) ;
#458 = DIRECTION ( 'NONE',  ( 0.0000000000000000000, 5.782411586589362569E-16, -1.000000000000000000 ) ) ;
#459 = CALENDAR_DATE ( 2019, 12, 12 ) ;
#460 = LINE ( 'NONE', #27, #449 ) ;
#461 = ORIENTED_EDGE ( 'NONE', *, *, #176, .T. ) ;
#462 = ORIENTED_EDGE ( 'NONE', *, *, #5, .T. ) ;
#463 = VERTEX_POINT ( 'NONE', #175 ) ;
#464 = CARTESIAN_POINT ( 'NONE',  ( 0.0000000000000000000, 0.0000000000000000000, -4.000000000000000000 ) ) ;
#465 = EDGE_CURVE ( 'NONE', #325, #239, #440, .T. ) ;
#466 = DIRECTION ( 'NONE',  ( -1.000000000000000000, 0.0000000000000000000, 0.0000000000000000000 ) ) ;
#467 = PLANE ( 'NONE',  #51 ) ;
#468 = DATE_AND_TIME ( #63, #610 ) ;
#469 = CIRCLE ( 'NONE', #104, 4.000000000000000000 ) ;
#470 = CARTESIAN_POINT ( 'NONE',  ( 14.99999999999999822, 5.999999999999997335, -27.00000000000000355 ) ) ;
#471 = ORIENTED_EDGE ( 'NONE', *, *, #375, .T. ) ;
#472 = CARTESIAN_POINT ( 'NONE',  ( 16.40000000000000213, 5.999999999999997335, -8.999999999999991118 ) ) ;
#473 = CC_DESIGN_PERSON_AND_ORGANIZATION_ASSIGNMENT ( #356, #592, ( #622 ) ) ;
#474 = CIRCLE ( 'NONE', #640, 1.400000000000002798 ) ;
#475 = DIRECTION ( 'NONE',  ( -1.000000000000000000, 0.0000000000000000000, -0.0000000000000000000 ) ) ;
#476 = CIRCLE ( 'NONE', #71, 1.400000000000003686 ) ;
#477 = EDGE_CURVE ( 'NONE', #511, #165, #264, .T. ) ;
#478 = VERTEX_POINT ( 'NONE', #26 ) ;
#479 = ORIENTED_EDGE ( 'NONE', *, *, #500, .F. ) ;
#480 = APPLICATION_CONTEXT ( 'configuration controlled 3d designs of mechanical parts and assemblies' ) ;
#481 = DIRECTION ( 'NONE',  ( -1.000000000000000000, 0.0000000000000000000, 0.0000000000000000000 ) ) ;
#482 = AXIS2_PLACEMENT_3D ( 'NONE', #135, #238, #624 ) ;
#483 = CARTESIAN_POINT ( 'NONE',  ( 4.000000000000000000, 0.0000000000000000000, 0.0000000000000000000 ) ) ;
#484 = LOCAL_TIME ( 16, 56, 25.00000000000000000, #635 ) ;
#485 = CIRCLE ( 'NONE', #354, 4.000000000000000000 ) ;
#486 = CARTESIAN_POINT ( 'NONE',  ( 4.000000000000000000, 4.999999999999997335, -27.00000000000000355 ) ) ;
#487 = LINE ( 'NONE', #472, #122 ) ;
#488 = EDGE_LOOP ( 'NONE', ( #183, #494 ) ) ;
#489 = CARTESIAN_POINT ( 'NONE',  ( 0.0000000000000000000, 3.000000000000003553, -27.00000000000000355 ) ) ;
#490 = AXIS2_PLACEMENT_3D ( 'NONE', #556, #220, #14 ) ;
#491 = CARTESIAN_POINT ( 'NONE',  ( 9.000000000000000000, 7.000000000000000000, -13.54999999999999716 ) ) ;
#492 = EDGE_CURVE ( 'NONE', #395, #165, #282, .T. ) ;
#493 = DIRECTION ( 'NONE',  ( -0.0000000000000000000, -1.000000000000000000, -0.0000000000000000000 ) ) ;
#494 = ORIENTED_EDGE ( 'NONE', *, *, #477, .F. ) ;
#495 = ORIENTED_EDGE ( 'NONE', *, *, #202, .T. ) ;
#496 = CARTESIAN_POINT ( 'NONE',  ( 18.00000000000000000, 3.500000000000003997, -27.00000000000000355 ) ) ;
#497 = AXIS2_PLACEMENT_3D ( 'NONE', #695, #260, #53 ) ;
#498 = ADVANCED_FACE ( 'NONE', ( #136, #189, #700 ), #193, .F. ) ;
#499 = ADVANCED_FACE ( 'NONE', ( #114 ), #560, .F. ) ;
#500 = EDGE_CURVE ( 'NONE', #693, #320, #390, .T. ) ;
#501 = PERSON_AND_ORGANIZATION ( #457, #237 ) ;
#502 = FACE_OUTER_BOUND ( 'NONE', #527, .T. ) ;
#503 = ADVANCED_FACE ( 'NONE', ( #121 ), #467, .T. ) ;
#504 = ORIENTED_EDGE ( 'NONE', *, *, #17, .F. ) ;
#505 = ORIENTED_EDGE ( 'NONE', *, *, #202, .F. ) ;
#506 = DIRECTION ( 'NONE',  ( 0.0000000000000000000, 1.000000000000000000, 5.782411586589357639E-16 ) ) ;
#507 = DIRECTION ( 'NONE',  ( -1.000000000000000000, 0.0000000000000000000, 0.0000000000000000000 ) ) ;
#508 = AXIS2_PLACEMENT_3D ( 'NONE', #124, #458, #396 ) ;
#509 = CIRCLE ( 'NONE', #516, 4.000000000000000000 ) ;
#510 = CYLINDRICAL_SURFACE ( 'NONE', #529, 0.5000000000000004441 ) ;
#511 = VERTEX_POINT ( 'NONE', #304 ) ;
#512 = ORIENTED_EDGE ( 'NONE', *, *, #96, .F. ) ;
#513 = AXIS2_PLACEMENT_3D ( 'NONE', #152, #539, #57 ) ;
#514 = CARTESIAN_POINT ( 'NONE',  ( 3.000000000000000888, 5.999999999999999112, -8.999999999999991118 ) ) ;
#515 = PERSON_AND_ORGANIZATION ( #457, #237 ) ;
#516 = AXIS2_PLACEMENT_3D ( 'NONE', #203, #686, #98 ) ;
#517 = CYLINDRICAL_SURFACE ( 'NONE', #126, 4.000000000000000000 ) ;
#518 = CARTESIAN_POINT ( 'NONE',  ( 18.00000000000000000, 0.0000000000000000000, 0.0000000000000000000 ) ) ;
#519 = ORIENTED_EDGE ( 'NONE', *, *, #166, .T. ) ;
#520 = ORIENTED_EDGE ( 'NONE', *, *, #5, .F. ) ;
#521 = CARTESIAN_POINT ( 'NONE',  ( 18.00000000000000000, 8.999999999999998224, -27.00000000000000000 ) ) ;
#522 = CARTESIAN_POINT ( 'NONE',  ( 13.59999999999999432, 5.999999999999997335, -8.999999999999991118 ) ) ;
#523 = EDGE_CURVE ( 'NONE', #147, #379, #11, .T. ) ;
#524 = VECTOR ( 'NONE', #481, 1000.000000000000000 ) ;
#525 = CC_DESIGN_SECURITY_CLASSIFICATION ( #685, ( #545 ) ) ;
#526 = VERTEX_POINT ( 'NONE', #88 ) ;
#527 = EDGE_LOOP ( 'NONE', ( #156, #65, #671, #15 ) ) ;
#528 = CARTESIAN_POINT ( 'NONE',  ( 4.400000000000003908, 5.999999999999999112, -30.00000000000000000 ) ) ;
#529 = AXIS2_PLACEMENT_3D ( 'NONE', #316, #216, #100 ) ;
#530 = CARTESIAN_POINT ( 'NONE',  ( 0.0000000000000000000, 8.999999999999998224, -27.00000000000000000 ) ) ;
#531 = CIRCLE ( 'NONE', #497, 1.400000000000002798 ) ;
#532 = MECHANICAL_CONTEXT ( 'NONE', #538, 'mechanical' ) ;
#533 = VECTOR ( 'NONE', #185, 1000.000000000000000 ) ;
#534 = EDGE_CURVE ( 'NONE', #191, #239, #273, .T. ) ;
#535 = VECTOR ( 'NONE', #444, 1000.000000000000000 ) ;
#536 = ORIENTED_EDGE ( 'NONE', *, *, #288, .T. ) ;
#537 = ORIENTED_EDGE ( 'NONE', *, *, #465, .F. ) ;
#538 = APPLICATION_CONTEXT ( 'configuration controlled 3d designs of mechanical parts and assemblies' ) ;
#539 = DIRECTION ( 'NONE',  ( 0.0000000000000000000, -1.000000000000000000, -0.0000000000000000000 ) ) ;
#540 = PERSON_AND_ORGANIZATION_ROLE ( 'creator' ) ;
#541 = DIRECTION ( 'NONE',  ( 0.0000000000000000000, 1.000000000000000000, 0.0000000000000000000 ) ) ;
#542 = FACE_OUTER_BOUND ( 'NONE', #23, .T. ) ;
#543 = CYLINDRICAL_SURFACE ( 'NONE', #226, 1.450000000000001732 ) ;
#544 = LINE ( 'NONE', #359, #431 ) ;
#545 = PRODUCT_DEFINITION_FORMATION_WITH_SPECIFIED_SOURCE ( 'ANY', '', #622, .NOT_KNOWN. ) ;
#546 = ORIENTED_EDGE ( 'NONE', *, *, #437, .F. ) ;
#547 = EDGE_CURVE ( 'NONE', #575, #379, #568, .T. ) ;
#548 = CARTESIAN_POINT ( 'NONE',  ( 13.99999999999999822, 4.999999999999999112, -30.00000000000000000 ) ) ;
#549 = APPROVAL_PERSON_ORGANIZATION ( #501, #221, #417 ) ;
#550 = CARTESIAN_POINT ( 'NONE',  ( 14.99999999999999822, 5.999999999999997335, -30.00000000000000000 ) ) ;
#551 = LINE ( 'NONE', #39, #533 ) ;
#552 = ORIENTED_EDGE ( 'NONE', *, *, #500, .T. ) ;
#553 = ORIENTED_EDGE ( 'NONE', *, *, #360, .T. ) ;
#554 = CARTESIAN_POINT ( 'NONE',  ( 1.599999999999997868, 5.999999999999999112, -30.00000000000000000 ) ) ;
#555 = AXIS2_PLACEMENT_3D ( 'NONE', #77, #456, #289 ) ;
#556 = CARTESIAN_POINT ( 'NONE',  ( 14.99999999999999822, 5.999999999999997335, -27.00000000000000355 ) ) ;
#557 =( GEOMETRIC_REPRESENTATION_CONTEXT ( 3 ) GLOBAL_UNCERTAINTY_ASSIGNED_CONTEXT ( ( #347 ) ) GLOBAL_UNIT_ASSIGNED_CONTEXT ( ( #143, #636, #308 ) ) REPRESENTATION_CONTEXT ( 'NONE', 'WORKASPACE' ) );
#558 = CARTESIAN_POINT ( 'NONE',  ( 18.00000000000000000, 3.500000000000003553, -26.50000000000000355 ) ) ;
#559 = ADVANCED_FACE ( 'NONE', ( #542 ), #385, .T. ) ;
#560 = CYLINDRICAL_SURFACE ( 'NONE', #663, 1.400000000000003686 ) ;
#561 = EDGE_LOOP ( 'NONE', ( #587, #630, #546, #40, #505, #519 ) ) ;
#562 = EDGE_LOOP ( 'NONE', ( #277, #569, #588, #2 ) ) ;
#563 = EDGE_CURVE ( 'NONE', #231, #402, #551, .T. ) ;
#564 = DIRECTION ( 'NONE',  ( 0.0000000000000000000, 1.284980352575412453E-16, -1.000000000000000000 ) ) ;
#565 = PRODUCT_RELATED_PRODUCT_CATEGORY ( 'detail', '', ( #622 ) ) ;
#566 = AXIS2_PLACEMENT_3D ( 'NONE', #548, #384, #326 ) ;
#567 = DIRECTION ( 'NONE',  ( -0.0000000000000000000, 1.000000000000000000, -0.0000000000000000000 ) ) ;
#568 = LINE ( 'NONE', #577, #419 ) ;
#569 = ORIENTED_EDGE ( 'NONE', *, *, #263, .F. ) ;
#570 = ORIENTED_EDGE ( 'NONE', *, *, #668, .F. ) ;
#571 = EDGE_CURVE ( 'NONE', #191, #296, #675, .T. ) ;
#572 = DIRECTION ( 'NONE',  ( 0.0000000000000000000, -1.284980352575412453E-16, 1.000000000000000000 ) ) ;
#573 = MANIFOLD_SOLID_BREP ( 'Cut-Extrude3', #101 ) ;
#574 = VECTOR ( 'NONE', #73, 1000.000000000000000 ) ;
#575 = VERTEX_POINT ( 'NONE', #240 ) ;
#576 = ORIENTED_EDGE ( 'NONE', *, *, #153, .T. ) ;
#577 = CARTESIAN_POINT ( 'NONE',  ( 18.00000000000000000, 3.000000000000003553, -27.00000000000000355 ) ) ;
#578 = CARTESIAN_POINT ( 'NONE',  ( 18.00000000000000000, 8.999999999999998224, -27.00000000000000000 ) ) ;
#579 = APPROVAL ( #586, 'UNSPECIFIED' ) ;
#580 = CARTESIAN_POINT ( 'NONE',  ( 14.99999999999999822, 5.999999999999997335, -8.999999999999991118 ) ) ;
#581 = DIRECTION ( 'NONE',  ( 0.0000000000000000000, -1.000000000000000000, -5.782411586589362569E-16 ) ) ;
#582 = DIRECTION ( 'NONE',  ( 0.0000000000000000000, 0.0000000000000000000, -1.000000000000000000 ) ) ;
#583 = EDGE_CURVE ( 'NONE', #453, #284, #223, .T. ) ;
#584 = CIRCLE ( 'NONE', #81, 4.000000000000000000 ) ;
#585 = VECTOR ( 'NONE', #292, 1000.000000000000000 ) ;
#586 = APPROVAL_STATUS ( 'not_yet_approved' ) ;
#587 = ORIENTED_EDGE ( 'NONE', *, *, #373, .T. ) ;
#588 = ORIENTED_EDGE ( 'NONE', *, *, #583, .T. ) ;
#589 = AXIS2_PLACEMENT_3D ( 'NONE', #623, #286, #564 ) ;
#590 = CARTESIAN_POINT ( 'NONE',  ( 13.99999999999999822, 8.999999999999998224, -27.00000000000000000 ) ) ;
#591 = CYLINDRICAL_SURFACE ( 'NONE', #391, 1.450000000000001732 ) ;
#592 = PERSON_AND_ORGANIZATION_ROLE ( 'design_owner' ) ;
#593 = CIRCLE ( 'NONE', #508, 1.400000000000002798 ) ;
#594 = CARTESIAN_POINT ( 'NONE',  ( 4.000000000000000000, 8.999999999999998224, -27.00000000000000000 ) ) ;
#595 = AXIS2_PLACEMENT_3D ( 'NONE', #514, #665, #234 ) ;
#596 = FACE_OUTER_BOUND ( 'NONE', #227, .T. ) ;
#597 = ORIENTED_EDGE ( 'NONE', *, *, #547, .T. ) ;
#598 = CARTESIAN_POINT ( 'NONE',  ( 3.000000000000000888, 5.999999999999999112, -8.999999999999991118 ) ) ;
#599 = EDGE_CURVE ( 'NONE', #433, #453, #474, .T. ) ;
#600 = DIRECTION ( 'NONE',  ( 0.0000000000000000000, -1.000000000000000000, 0.0000000000000000000 ) ) ;
#601 = SECURITY_CLASSIFICATION_LEVEL ( 'unclassified' ) ;
#602 = DATE_AND_TIME ( #625, #348 ) ;
#603 = FACE_OUTER_BOUND ( 'NONE', #604, .T. ) ;
#604 = EDGE_LOOP ( 'NONE', ( #451, #4, #618, #259 ) ) ;
#605 = ORIENTED_EDGE ( 'NONE', *, *, #383, .T. ) ;
#606 = ADVANCED_FACE ( 'NONE', ( #674 ), #408, .F. ) ;
#607 = DIRECTION ( 'NONE',  ( -0.0000000000000000000, 1.000000000000000000, 0.0000000000000000000 ) ) ;
#608 = EDGE_CURVE ( 'NONE', #526, #693, #113, .T. ) ;
#609 = CARTESIAN_POINT ( 'NONE',  ( 4.000000000000000000, 4.999999999999999112, -30.00000000000000355 ) ) ;
#610 = LOCAL_TIME ( 16, 56, 25.00000000000000000, #54 ) ;
#611 = FACE_OUTER_BOUND ( 'NONE', #132, .T. ) ;
#612 = EDGE_LOOP ( 'NONE', ( #117, #294, #180, #303 ) ) ;
#613 = ORIENTED_EDGE ( 'NONE', *, *, #333, .T. ) ;
#614 = CC_DESIGN_PERSON_AND_ORGANIZATION_ASSIGNMENT ( #89, #540, ( #545 ) ) ;
#615 = APPROVAL_PERSON_ORGANIZATION ( #317, #62, #652 ) ;
#616 = LINE ( 'NONE', #106, #179 ) ;
#617 = DIRECTION ( 'NONE',  ( 1.000000000000000000, 0.0000000000000000000, 0.0000000000000000000 ) ) ;
#618 = ORIENTED_EDGE ( 'NONE', *, *, #534, .F. ) ;
#619 = ORIENTED_EDGE ( 'NONE', *, *, #214, .T. ) ;
#620 = EDGE_CURVE ( 'NONE', #231, #660, #178, .T. ) ;
#621 = CARTESIAN_POINT ( 'NONE',  ( 0.0000000000000000000, 0.0000000000000000000, 0.0000000000000000000 ) ) ;
#622 = PRODUCT ( 'rotation link2', 'rotation link2', '', ( #532 ) ) ;
#623 = CARTESIAN_POINT ( 'NONE',  ( 18.00000000000000000, 3.000000000000003553, -27.00000000000000355 ) ) ;
#624 = DIRECTION ( 'NONE',  ( 0.0000000000000000000, 0.0000000000000000000, -1.000000000000000000 ) ) ;
#625 = CALENDAR_DATE ( 2019, 12, 12 ) ;
#626 = LINE ( 'NONE', #673, #206 ) ;
#627 = FACE_OUTER_BOUND ( 'NONE', #358, .T. ) ;
#628 = DIRECTION ( 'NONE',  ( 1.000000000000000000, 0.0000000000000000000, -0.0000000000000000000 ) ) ;
#629 = ORIENTED_EDGE ( 'NONE', *, *, #599, .T. ) ;
#630 = ORIENTED_EDGE ( 'NONE', *, *, #397, .T. ) ;
#631 = AXIS2_PLACEMENT_3D ( 'NONE', #342, #80, #507 ) ;
#632 = DIRECTION ( 'NONE',  ( -0.0000000000000000000, 1.000000000000000000, 1.284980352575412453E-16 ) ) ;
#633 = PRODUCT_DEFINITION_SHAPE ( 'NONE', 'NONE',  #148 ) ;
#634 = EDGE_CURVE ( 'NONE', #645, #424, #509, .T. ) ;
#635 = COORDINATED_UNIVERSAL_TIME_OFFSET ( 0, 0, .AHEAD. ) ;
#636 =( NAMED_UNIT ( * ) PLANE_ANGLE_UNIT ( ) SI_UNIT ( $, .RADIAN. ) );
#637 = FACE_OUTER_BOUND ( 'NONE', #267, .T. ) ;
#638 = ORIENTED_EDGE ( 'NONE', *, *, #455, .T. ) ;
#639 = ORIENTED_EDGE ( 'NONE', *, *, #599, .F. ) ;
#640 = AXIS2_PLACEMENT_3D ( 'NONE', #470, #362, #151 ) ;
#641 = CARTESIAN_POINT ( 'NONE',  ( 9.000000000000000000, 0.0000000000000000000, -14.99999999999999822 ) ) ;
#642 = PLANE ( 'NONE',  #118 ) ;
#643 = EDGE_CURVE ( 'NONE', #320, #684, #531, .T. ) ;
#644 = CIRCLE ( 'NONE', #262, 1.400000000000002798 ) ;
#645 = VERTEX_POINT ( 'NONE', #420 ) ;
#646 = CARTESIAN_POINT ( 'NONE',  ( 18.00000000000000000, 4.999999999999997335, -27.00000000000000355 ) ) ;
#647 = VECTOR ( 'NONE', #414, 1000.000000000000000 ) ;
#648 = DIRECTION ( 'NONE',  ( 0.0000000000000000000, 0.0000000000000000000, -1.000000000000000000 ) ) ;
#649 = CC_DESIGN_PERSON_AND_ORGANIZATION_ASSIGNMENT ( #28, #269, ( #545 ) ) ;
#650 = VECTOR ( 'NONE', #94, 1000.000000000000000 ) ;
#651 = ORIENTED_EDGE ( 'NONE', *, *, #229, .T. ) ;
#652 = APPROVAL_ROLE ( '' ) ;
#653 = ORIENTED_EDGE ( 'NONE', *, *, #166, .F. ) ;
#654 = EDGE_CURVE ( 'NONE', #165, #511, #365, .T. ) ;
#655 = ADVANCED_FACE ( 'NONE', ( #418 ), #591, .F. ) ;
#656 = CARTESIAN_POINT ( 'NONE',  ( 18.00000000000000000, 4.999999999999997335, -27.00000000000000355 ) ) ;
#657 = DATE_AND_TIME ( #400, #439 ) ;
#658 = CIRCLE ( 'NONE', #566, 4.000000000000000000 ) ;
#659 = DIRECTION ( 'NONE',  ( 0.0000000000000000000, -5.782411586589357639E-16, 1.000000000000000000 ) ) ;
#660 = VERTEX_POINT ( 'NONE', #251 ) ;
#661 = ORIENTED_EDGE ( 'NONE', *, *, #299, .T. ) ;
#662 = PLANE ( 'NONE',  #233 ) ;
#663 = AXIS2_PLACEMENT_3D ( 'NONE', #580, #406, #466 ) ;
#664 = DIRECTION ( 'NONE',  ( 0.0000000000000000000, -1.000000000000000000, 0.0000000000000000000 ) ) ;
#665 = DIRECTION ( 'NONE',  ( -0.0000000000000000000, -0.0000000000000000000, -1.000000000000000000 ) ) ;
#666 = CIRCLE ( 'NONE', #306, 4.000000000000000000 ) ;
#667 = LINE ( 'NONE', #159, #392 ) ;
#668 = EDGE_CURVE ( 'NONE', #575, #217, #212, .T. ) ;
#669 = ORIENTED_EDGE ( 'NONE', *, *, #608, .F. ) ;
#670 = CARTESIAN_POINT ( 'NONE',  ( 4.000000000000000000, 9.000000000000000000, -30.00000000000000000 ) ) ;
#671 = ORIENTED_EDGE ( 'NONE', *, *, #288, .F. ) ;
#672 = PLANE ( 'NONE',  #445 ) ;
#673 = CARTESIAN_POINT ( 'NONE',  ( 0.0000000000000000000, 0.0000000000000000000, -4.000000000000000000 ) ) ;
#674 = FACE_OUTER_BOUND ( 'NONE', #311, .T. ) ;
#675 = LINE ( 'NONE', #244, #97 ) ;
#676 = ORIENTED_EDGE ( 'NONE', *, *, #534, .T. ) ;
#677 = AXIS2_PLACEMENT_3D ( 'NONE', #374, #430, #648 ) ;
#678 = EDGE_LOOP ( 'NONE', ( #343, #310, #197, #638, #52, #692 ) ) ;
#679 = CARTESIAN_POINT ( 'NONE',  ( 13.99999999999999822, 0.0000000000000000000, -4.000000000000000000 ) ) ;
#680 = CARTESIAN_POINT ( 'NONE',  ( 1.599999999999997868, 5.999999999999999112, -8.999999999999991118 ) ) ;
#681 = LINE ( 'NONE', #646, #56 ) ;
#682 = CYLINDRICAL_SURFACE ( 'NONE', #242, 4.000000000000000000 ) ;
#683 = FACE_BOUND ( 'NONE', #141, .T. ) ;
#684 = VERTEX_POINT ( 'NONE', #528 ) ;
#685 = SECURITY_CLASSIFICATION ( '', '', #601 ) ;
#686 = DIRECTION ( 'NONE',  ( 0.0000000000000000000, -1.000000000000000000, -0.0000000000000000000 ) ) ;
#687 = CARTESIAN_POINT ( 'NONE',  ( 4.400000000000003908, 5.999999999999999112, -8.999999999999991118 ) ) ;
#688 = CARTESIAN_POINT ( 'NONE',  ( 3.000000000000000888, 5.999999999999999112, -27.00000000000000355 ) ) ;
#689 = EDGE_CURVE ( 'NONE', #239, #231, #584, .T. ) ;
#690 = DIRECTION ( 'NONE',  ( -0.0000000000000000000, -5.782411586589362569E-16, 1.000000000000000000 ) ) ;
#691 = VECTOR ( 'NONE', #139, 1000.000000000000000 ) ;
#692 = ORIENTED_EDGE ( 'NONE', *, *, #523, .T. ) ;
#693 = VERTEX_POINT ( 'NONE', #361 ) ;
#694 = CARTESIAN_POINT ( 'NONE',  ( 9.000000000000000000, 0.0000000000000000000, -16.44999999999999929 ) ) ;
#695 = CARTESIAN_POINT ( 'NONE',  ( 3.000000000000000888, 5.999999999999999112, -30.00000000000000000 ) ) ;
#696 = DIRECTION ( 'NONE',  ( 1.000000000000000000, 0.0000000000000000000, 0.0000000000000000000 ) ) ;
#697 = APPROVAL_STATUS ( 'not_yet_approved' ) ;
#698 = DIRECTION ( 'NONE',  ( -1.000000000000000000, -0.0000000000000000000, -0.0000000000000000000 ) ) ;
#699 = AXIS2_PLACEMENT_3D ( 'NONE', #346, #195, #475 ) ;
#700 = FACE_OUTER_BOUND ( 'NONE', #561, .T. ) ;
ENDSEC;
END-ISO-10303-21;
