ISO-10303-21;
HEADER;
FILE_DESCRIPTION (( 'STEP AP203' ),
    '1' );
FILE_NAME ('rotation link3.STEP',
    '2019-12-12T16:56:38',
    ( '' ),
    ( '' ),
    'SwSTEP 2.0',
    'SolidWorks 2018',
    '' );
FILE_SCHEMA (( 'CONFIG_CONTROL_DESIGN' ));
ENDSEC;

DATA;
#1 = ORIENTED_EDGE ( 'NONE', *, *, #59, .T. ) ;
#2 = DIRECTION ( 'NONE',  ( 0.0000000000000000000, 0.0000000000000000000, 1.000000000000000000 ) ) ;
#3 = ORIENTED_EDGE ( 'NONE', *, *, #185, .T. ) ;
#4 = CARTESIAN_POINT ( 'NONE',  ( 23.00000000000000000, 5.000000000000000000, -9.500000000000000000 ) ) ;
#5 = DIRECTION ( 'NONE',  ( -0.0000000000000000000, 1.000000000000000000, -0.0000000000000000000 ) ) ;
#6 = AXIS2_PLACEMENT_3D ( 'NONE', #936, #1288, #379 ) ;
#7 = COORDINATED_UNIVERSAL_TIME_OFFSET ( 0, 0, .AHEAD. ) ;
#8 = VECTOR ( 'NONE', #172, 1000.000000000000000 ) ;
#9 = VECTOR ( 'NONE', #5, 1000.000000000000000 ) ;
#10 = CARTESIAN_POINT ( 'NONE',  ( 13.00000000000000000, -1.000000000000000000, -11.00000000000000000 ) ) ;
#11 = CARTESIAN_POINT ( 'NONE',  ( 13.00000000000000000, 3.000000000000000000, -9.500000000000000000 ) ) ;
#12 = LINE ( 'NONE', #829, #634 ) ;
#13 = EDGE_CURVE ( 'NONE', #1079, #655, #490, .T. ) ;
#14 = PLANE ( 'NONE',  #514 ) ;
#15 = ORIENTED_EDGE ( 'NONE', *, *, #675, .T. ) ;
#16 = VERTEX_POINT ( 'NONE', #529 ) ;
#17 = ORIENTED_EDGE ( 'NONE', *, *, #1303, .T. ) ;
#18 = CARTESIAN_POINT ( 'NONE',  ( 21.00000000000000000, 11.50000000000000355, 0.0000000000000000000 ) ) ;
#19 = DIRECTION ( 'NONE',  ( -1.000000000000000000, 0.0000000000000000000, 0.0000000000000000000 ) ) ;
#20 = DIRECTION ( 'NONE',  ( 0.0000000000000000000, 0.0000000000000000000, -1.000000000000000000 ) ) ;
#21 = DIRECTION ( 'NONE',  ( 0.0000000000000000000, 0.0000000000000000000, -1.000000000000000000 ) ) ;
#22 = AXIS2_PLACEMENT_3D ( 'NONE', #855, #33, #558 ) ;
#23 = PERSON_AND_ORGANIZATION ( #467, #968 ) ;
#24 = FACE_BOUND ( 'NONE', #831, .T. ) ;
#25 = DIRECTION ( 'NONE',  ( -1.000000000000000000, 8.673617379884042375E-16, 0.0000000000000000000 ) ) ;
#26 = CARTESIAN_POINT ( 'NONE',  ( 17.00000000000000000, 4.500000000000003553, -3.000000000000000000 ) ) ;
#27 = CYLINDRICAL_SURFACE ( 'NONE', #139, 2.149999999999998135 ) ;
#28 = LINE ( 'NONE', #395, #272 ) ;
#29 = ADVANCED_FACE ( 'NONE', ( #653 ), #100, .F. ) ;
#30 = ORIENTED_EDGE ( 'NONE', *, *, #69, .T. ) ;
#31 = ORIENTED_EDGE ( 'NONE', *, *, #390, .T. ) ;
#32 = DIRECTION ( 'NONE',  ( -1.000000000000000000, 0.0000000000000000000, -0.0000000000000000000 ) ) ;
#33 = DIRECTION ( 'NONE',  ( -0.0000000000000000000, 1.000000000000000000, 0.0000000000000000000 ) ) ;
#34 = EDGE_LOOP ( 'NONE', ( #1005, #1312, #1201, #1203 ) ) ;
#35 = ORIENTED_EDGE ( 'NONE', *, *, #266, .F. ) ;
#36 = EDGE_CURVE ( 'NONE', #113, #509, #818, .T. ) ;
#37 = VERTEX_POINT ( 'NONE', #1027 ) ;
#38 = CARTESIAN_POINT ( 'NONE',  ( 22.15000000000000213, 8.000000000000000000, -3.000000000000000000 ) ) ;
#39 = DIRECTION ( 'NONE',  ( -0.0000000000000000000, -1.000000000000000000, -0.0000000000000000000 ) ) ;
#40 = EDGE_CURVE ( 'NONE', #1079, #1280, #12, .T. ) ;
#41 = CARTESIAN_POINT ( 'NONE',  ( 23.00000000000000000, 3.000000000000000000, -12.50000000000000000 ) ) ;
#42 = CARTESIAN_POINT ( 'NONE',  ( 6.000000000000000000, 3.000000000000000000, -16.00000000000000000 ) ) ;
#43 = AXIS2_PLACEMENT_3D ( 'NONE', #11, #1301, #911 ) ;
#44 = FACE_OUTER_BOUND ( 'NONE', #438, .T. ) ;
#45 = ADVANCED_FACE ( 'NONE', ( #49 ), #534, .F. ) ;
#46 = FACE_OUTER_BOUND ( 'NONE', #1218, .T. ) ;
#47 = CARTESIAN_POINT ( 'NONE',  ( 26.00000000000000000, 3.000000000000000000, 0.0000000000000000000 ) ) ;
#48 = VERTEX_POINT ( 'NONE', #922 ) ;
#49 = FACE_OUTER_BOUND ( 'NONE', #1003, .T. ) ;
#50 = EDGE_LOOP ( 'NONE', ( #1313, #1186, #1137, #753 ) ) ;
#51 = ORIENTED_EDGE ( 'NONE', *, *, #298, .T. ) ;
#52 = ORIENTED_EDGE ( 'NONE', *, *, #85, .T. ) ;
#53 = CARTESIAN_POINT ( 'NONE',  ( 23.50000000000000000, 8.000000000000000000, -3.000000000000000000 ) ) ;
#54 = ORIENTED_EDGE ( 'NONE', *, *, #222, .T. ) ;
#55 = AXIS2_PLACEMENT_3D ( 'NONE', #445, #867, #1058 ) ;
#56 = DIRECTION ( 'NONE',  ( -0.0000000000000000000, -0.0000000000000000000, -1.000000000000000000 ) ) ;
#57 = APPLICATION_PROTOCOL_DEFINITION ( 'international standard', 'config_control_design', 1994, #569 ) ;
#58 = DATE_AND_TIME ( #330, #614 ) ;
#59 = EDGE_CURVE ( 'NONE', #902, #539, #473, .T. ) ;
#60 = FACE_BOUND ( 'NONE', #210, .T. ) ;
#61 = CC_DESIGN_APPROVAL ( #1304, ( #1236 ) ) ;
#62 = CIRCLE ( 'NONE', #206, 6.000000000000000000 ) ;
#63 = LINE ( 'NONE', #202, #871 ) ;
#64 = VERTEX_POINT ( 'NONE', #103 ) ;
#65 = ORIENTED_EDGE ( 'NONE', *, *, #592, .T. ) ;
#66 = CARTESIAN_POINT ( 'NONE',  ( 6.000000000000000000, 3.000000000000000000, -10.00000000000000000 ) ) ;
#67 = ORIENTED_EDGE ( 'NONE', *, *, #826, .T. ) ;
#68 = CARTESIAN_POINT ( 'NONE',  ( 26.00000000000000000, 3.000000000000000000, 0.0000000000000000000 ) ) ;
#69 = EDGE_CURVE ( 'NONE', #199, #860, #719, .T. ) ;
#70 = AXIS2_PLACEMENT_3D ( 'NONE', #1054, #572, #976 ) ;
#71 = DIRECTION ( 'NONE',  ( 1.000000000000000000, 0.0000000000000000000, 0.0000000000000000000 ) ) ;
#72 = CARTESIAN_POINT ( 'NONE',  ( 8.999999999999987566, 4.500000000000003553, 0.0000000000000000000 ) ) ;
#73 = DIRECTION ( 'NONE',  ( -0.0000000000000000000, 1.000000000000000000, 0.0000000000000000000 ) ) ;
#74 = CARTESIAN_POINT ( 'NONE',  ( 17.00000000000000355, 11.50000000000000355, 0.0000000000000000000 ) ) ;
#75 = APPROVAL_DATE_TIME ( #58, #1304 ) ;
#76 = VECTOR ( 'NONE', #1237, 1000.000000000000000 ) ;
#77 = DIRECTION ( 'NONE',  ( -0.0000000000000000000, 1.000000000000000000, -0.0000000000000000000 ) ) ;
#78 = CIRCLE ( 'NONE', #479, 2.999999999999999112 ) ;
#79 = ORIENTED_EDGE ( 'NONE', *, *, #955, .F. ) ;
#80 = FACE_BOUND ( 'NONE', #183, .T. ) ;
#81 = EDGE_LOOP ( 'NONE', ( #674, #1076, #416, #420 ) ) ;
#82 = ORIENTED_EDGE ( 'NONE', *, *, #1082, .F. ) ;
#83 = ORIENTED_EDGE ( 'NONE', *, *, #1145, .T. ) ;
#84 = ORIENTED_EDGE ( 'NONE', *, *, #294, .F. ) ;
#85 = EDGE_CURVE ( 'NONE', #1171, #1073, #568, .T. ) ;
#86 = ADVANCED_FACE ( 'NONE', ( #1135 ), #841, .T. ) ;
#87 = DIRECTION ( 'NONE',  ( -0.0000000000000000000, -0.0000000000000000000, -1.000000000000000000 ) ) ;
#88 = DIRECTION ( 'NONE',  ( 0.0000000000000000000, -0.0000000000000000000, 1.000000000000000000 ) ) ;
#89 = CARTESIAN_POINT ( 'NONE',  ( 13.00000000000000355, 8.000000000000000000, 0.0000000000000000000 ) ) ;
#90 = VECTOR ( 'NONE', #1092, 1000.000000000000000 ) ;
#91 = EDGE_CURVE ( 'NONE', #278, #211, #1199, .T. ) ;
#92 = CARTESIAN_POINT ( 'NONE',  ( 26.00000000000000000, 3.000000000000000000, -9.500000000000000000 ) ) ;
#93 = LINE ( 'NONE', #1130, #76 ) ;
#94 = FACE_OUTER_BOUND ( 'NONE', #991, .T. ) ;
#95 = VERTEX_POINT ( 'NONE', #1111 ) ;
#96 = ORIENTED_EDGE ( 'NONE', *, *, #546, .T. ) ;
#97 = CARTESIAN_POINT ( 'NONE',  ( 23.00000000000000000, 0.0000000000000000000, -7.350000000000001421 ) ) ;
#98 = EDGE_LOOP ( 'NONE', ( #1, #570 ) ) ;
#99 = ORIENTED_EDGE ( 'NONE', *, *, #1174, .F. ) ;
#100 = PLANE ( 'NONE',  #666 ) ;
#101 = AXIS2_PLACEMENT_3D ( 'NONE', #439, #596, #1176 ) ;
#102 = CC_DESIGN_DATE_AND_TIME_ASSIGNMENT ( #681, #480, ( #1124 ) ) ;
#103 = CARTESIAN_POINT ( 'NONE',  ( 0.0000000000000000000, 0.0000000000000000000, 0.0000000000000000000 ) ) ;
#104 = DIRECTION ( 'NONE',  ( 0.0000000000000000000, 0.0000000000000000000, 1.000000000000000000 ) ) ;
#105 = CARTESIAN_POINT ( 'NONE',  ( 0.0000000000000000000, 3.500000000000000000, -3.000000000000000000 ) ) ;
#106 = CIRCLE ( 'NONE', #1202, 3.000000000000000888 ) ;
#107 = EDGE_CURVE ( 'NONE', #539, #455, #195, .T. ) ;
#108 = VECTOR ( 'NONE', #511, 1000.000000000000000 ) ;
#109 = EDGE_LOOP ( 'NONE', ( #201, #1299, #857, #54, #1268 ) ) ;
#110 = LINE ( 'NONE', #274, #318 ) ;
#111 = PRODUCT_RELATED_PRODUCT_CATEGORY ( 'detail', '', ( #237 ) ) ;
#112 = ORIENTED_EDGE ( 'NONE', *, *, #809, .F. ) ;
#113 = VERTEX_POINT ( 'NONE', #234 ) ;
#114 = EDGE_LOOP ( 'NONE', ( #168, #319, #637, #734 ) ) ;
#115 = DIRECTION ( 'NONE',  ( 0.0000000000000000000, 0.0000000000000000000, -1.000000000000000000 ) ) ;
#116 = DIRECTION ( 'NONE',  ( -0.0000000000000000000, 1.000000000000000000, 0.0000000000000000000 ) ) ;
#117 = DIRECTION ( 'NONE',  ( -1.000000000000000000, 0.0000000000000000000, 0.0000000000000000000 ) ) ;
#118 = AXIS2_PLACEMENT_3D ( 'NONE', #181, #812, #268 ) ;
#119 = CARTESIAN_POINT ( 'NONE',  ( 23.00000000000000000, 3.000000000000000000, -9.500000000000000000 ) ) ;
#120 = CARTESIAN_POINT ( 'NONE',  ( 13.00000000000000000, -1.000000000000000000, -9.500000000000000000 ) ) ;
#121 = VECTOR ( 'NONE', #87, 1000.000000000000000 ) ;
#122 = CYLINDRICAL_SURFACE ( 'NONE', #583, 3.000000000000000888 ) ;
#123 = DIRECTION ( 'NONE',  ( 0.0000000000000000000, 1.000000000000000000, 0.0000000000000000000 ) ) ;
#124 = LINE ( 'NONE', #1274, #456 ) ;
#125 = AXIS2_PLACEMENT_3D ( 'NONE', #1047, #1231, #1238 ) ;
#126 = CARTESIAN_POINT ( 'NONE',  ( 2.499999999999998668, 8.000000000000000000, -3.000000000000000000 ) ) ;
#127 = EDGE_LOOP ( 'NONE', ( #151, #930, #660, #67 ) ) ;
#128 = ORIENTED_EDGE ( 'NONE', *, *, #173, .T. ) ;
#129 = CC_DESIGN_DATE_AND_TIME_ASSIGNMENT ( #284, #1157, ( #1098 ) ) ;
#130 = ORIENTED_EDGE ( 'NONE', *, *, #1140, .F. ) ;
#131 = CARTESIAN_POINT ( 'NONE',  ( 13.00000000000000355, 8.000000000000000000, -3.000000000000000000 ) ) ;
#132 = CARTESIAN_POINT ( 'NONE',  ( 2.999999999999999556, 0.0000000000000000000, -11.65000000000000036 ) ) ;
#133 = CARTESIAN_POINT ( 'NONE',  ( 0.0000000000000000000, 13.00000000000000178, -3.000000000000000000 ) ) ;
#134 = ADVANCED_FACE ( 'NONE', ( #144 ), #208, .T. ) ;
#135 = DIRECTION ( 'NONE',  ( -0.0000000000000000000, -0.0000000000000000000, -1.000000000000000000 ) ) ;
#136 = EDGE_CURVE ( 'NONE', #860, #1264, #874, .T. ) ;
#137 = DIRECTION ( 'NONE',  ( -1.000000000000000000, 0.0000000000000000000, 0.0000000000000000000 ) ) ;
#138 = CARTESIAN_POINT ( 'NONE',  ( 0.0000000000000000000, 3.000000000000000000, -3.500000000000000000 ) ) ;
#139 = AXIS2_PLACEMENT_3D ( 'NONE', #700, #77, #175 ) ;
#140 = DIRECTION ( 'NONE',  ( 0.0000000000000000000, 0.0000000000000000000, 1.000000000000000000 ) ) ;
#141 = LINE ( 'NONE', #965, #1211 ) ;
#142 = FACE_OUTER_BOUND ( 'NONE', #586, .T. ) ;
#143 = ORIENTED_EDGE ( 'NONE', *, *, #487, .F. ) ;
#144 = FACE_OUTER_BOUND ( 'NONE', #34, .T. ) ;
#145 = DIRECTION ( 'NONE',  ( 0.0000000000000000000, 0.0000000000000000000, -1.000000000000000000 ) ) ;
#146 = ORIENTED_EDGE ( 'NONE', *, *, #13, .T. ) ;
#147 = EDGE_LOOP ( 'NONE', ( #1046, #152, #459, #720, #273, #1250, #373, #324 ) ) ;
#148 = AXIS2_PLACEMENT_3D ( 'NONE', #171, #1173, #1081 ) ;
#149 = DIRECTION ( 'NONE',  ( -0.0000000000000000000, 1.000000000000000000, -0.0000000000000000000 ) ) ;
#150 = ADVANCED_FACE ( 'NONE', ( #941 ), #689, .F. ) ;
#151 = ORIENTED_EDGE ( 'NONE', *, *, #626, .T. ) ;
#152 = ORIENTED_EDGE ( 'NONE', *, *, #665, .T. ) ;
#153 = CARTESIAN_POINT ( 'NONE',  ( 10.00000000000000178, 8.000000000000000000, 0.0000000000000000000 ) ) ;
#154 = CARTESIAN_POINT ( 'NONE',  ( 17.00000000000000355, 11.50000000000000355, -3.000000000000000000 ) ) ;
#155 = ADVANCED_FACE ( 'NONE', ( #94 ), #239, .F. ) ;
#156 = EDGE_CURVE ( 'NONE', #323, #460, #401, .T. ) ;
#157 = DIRECTION ( 'NONE',  ( -0.0000000000000000000, -1.000000000000000000, -0.0000000000000000000 ) ) ;
#158 = DIRECTION ( 'NONE',  ( -0.0000000000000000000, -0.0000000000000000000, -1.000000000000000000 ) ) ;
#159 = PERSON_AND_ORGANIZATION ( #467, #968 ) ;
#160 = CC_DESIGN_PERSON_AND_ORGANIZATION_ASSIGNMENT ( #1129, #964, ( #1236 ) ) ;
#161 = VECTOR ( 'NONE', #945, 1000.000000000000000 ) ;
#162 = APPROVAL_STATUS ( 'not_yet_approved' ) ;
#163 = FACE_OUTER_BOUND ( 'NONE', #496, .T. ) ;
#164 = VECTOR ( 'NONE', #1013, 1000.000000000000000 ) ;
#165 = ORIENTED_EDGE ( 'NONE', *, *, #156, .T. ) ;
#166 = VERTEX_POINT ( 'NONE', #1244 ) ;
#167 = EDGE_CURVE ( 'NONE', #622, #1074, #258, .T. ) ;
#168 = ORIENTED_EDGE ( 'NONE', *, *, #1191, .F. ) ;
#169 = CARTESIAN_POINT ( 'NONE',  ( 0.0000000000000000000, 3.000000000000000000, -10.00000000000000000 ) ) ;
#170 = CLOSED_SHELL ( 'NONE', ( #573, #86, #358, #446, #612, #150, #950, #252, #378, #243, #562, #134, #814, #757, #1006, #1059, #264, #896, #282, #155, #189, #872, #1080, #468, #45, #29, #1160, #800, #686, #597, #778, #862, #454, #550, #349, #463, #1189 ) ) ;
#171 = CARTESIAN_POINT ( 'NONE',  ( 19.99999999999999645, 3.000000000000000000, -10.00000000000000000 ) ) ;
#172 = DIRECTION ( 'NONE',  ( -0.0000000000000000000, -0.0000000000000000000, -1.000000000000000000 ) ) ;
#173 = EDGE_CURVE ( 'NONE', #211, #418, #1151, .T. ) ;
#174 = CIRCLE ( 'NONE', #261, 1.349999999999996980 ) ;
#175 = DIRECTION ( 'NONE',  ( 0.0000000000000000000, 0.0000000000000000000, 1.000000000000000000 ) ) ;
#176 = VECTOR ( 'NONE', #232, 1000.000000000000000 ) ;
#177 = DIRECTION ( 'NONE',  ( 0.0000000000000000000, 0.0000000000000000000, -1.000000000000000000 ) ) ;
#178 = LINE ( 'NONE', #933, #241 ) ;
#179 = EDGE_LOOP ( 'NONE', ( #360, #978, #406, #1048 ) ) ;
#180 = EDGE_LOOP ( 'NONE', ( #1089, #146, #1155, #915 ) ) ;
#181 = CARTESIAN_POINT ( 'NONE',  ( 26.00000000000000000, 3.500000000000000000, -3.500000000000000000 ) ) ;
#182 = ORIENTED_EDGE ( 'NONE', *, *, #1239, .F. ) ;
#183 = EDGE_LOOP ( 'NONE', ( #31, #914 ) ) ;
#184 = DIRECTION ( 'NONE',  ( -0.0000000000000000000, -1.000000000000000000, -0.0000000000000000000 ) ) ;
#185 = EDGE_CURVE ( 'NONE', #460, #455, #786, .T. ) ;
#186 = DIRECTION ( 'NONE',  ( -1.000000000000000000, 0.0000000000000000000, 0.0000000000000000000 ) ) ;
#187 = CARTESIAN_POINT ( 'NONE',  ( 2.999999999999999112, -7.000000000000000000, -9.500000000000000000 ) ) ;
#188 = CARTESIAN_POINT ( 'NONE',  ( 0.0000000000000000000, 13.00000000000000178, -3.000000000000000000 ) ) ;
#189 = ADVANCED_FACE ( 'NONE', ( #355 ), #644, .F. ) ;
#190 = CARTESIAN_POINT ( 'NONE',  ( 22.15000000000000213, 8.000000000000000000, 0.0000000000000000000 ) ) ;
#191 = FACE_BOUND ( 'NONE', #640, .T. ) ;
#192 = CARTESIAN_POINT ( 'NONE',  ( 0.0000000000000000000, 0.0000000000000000000, -3.000000000000000000 ) ) ;
#193 = FACE_BOUND ( 'NONE', #489, .T. ) ;
#194 = CARTESIAN_POINT ( 'NONE',  ( 23.00000000000000000, -7.000000000000000000, -9.500000000000000000 ) ) ;
#195 = LINE ( 'NONE', #834, #1088 ) ;
#196 = ORIENTED_EDGE ( 'NONE', *, *, #917, .F. ) ;
#197 = VERTEX_POINT ( 'NONE', #756 ) ;
#198 = MANIFOLD_SOLID_BREP ( 'Boss-Extrude5', #170 ) ;
#199 = VERTEX_POINT ( 'NONE', #551 ) ;
#200 = DIRECTION ( 'NONE',  ( -1.000000000000000000, 0.0000000000000000000, 0.0000000000000000000 ) ) ;
#201 = ORIENTED_EDGE ( 'NONE', *, *, #730, .F. ) ;
#202 = CARTESIAN_POINT ( 'NONE',  ( 4.999999999999986677, 4.500000000000005329, 0.0000000000000000000 ) ) ;
#203 = AXIS2_PLACEMENT_3D ( 'NONE', #131, #177, #795 ) ;
#204 = EDGE_CURVE ( 'NONE', #655, #37, #1215, .T. ) ;
#205 = FACE_OUTER_BOUND ( 'NONE', #1062, .T. ) ;
#206 = AXIS2_PLACEMENT_3D ( 'NONE', #810, #893, #993 ) ;
#207 = CIRCLE ( 'NONE', #1043, 1.349999999999996980 ) ;
#208 = PLANE ( 'NONE',  #1209 ) ;
#209 = VECTOR ( 'NONE', #838, 1000.000000000000000 ) ;
#210 = EDGE_LOOP ( 'NONE', ( #354, #79, #1093, #750 ) ) ;
#211 = VERTEX_POINT ( 'NONE', #18 ) ;
#212 = VERTEX_POINT ( 'NONE', #38 ) ;
#213 = DIRECTION ( 'NONE',  ( 0.0000000000000000000, 0.0000000000000000000, -1.000000000000000000 ) ) ;
#214 = DIRECTION ( 'NONE',  ( -1.000000000000000000, 4.956352788505163268E-16, 0.0000000000000000000 ) ) ;
#215 = AXIS2_PLACEMENT_3D ( 'NONE', #520, #216, #412 ) ;
#216 = DIRECTION ( 'NONE',  ( -0.0000000000000000000, 0.0000000000000000000, -1.000000000000000000 ) ) ;
#217 = CARTESIAN_POINT ( 'NONE',  ( 23.50000000000000000, 8.000000000000000000, 0.0000000000000000000 ) ) ;
#218 = APPROVAL_PERSON_ORGANIZATION ( #429, #1304, #254 ) ;
#219 = LOCAL_TIME ( 16, 56, 38.00000000000000000, #501 ) ;
#220 = DIRECTION ( 'NONE',  ( -0.0000000000000000000, -1.000000000000000000, -0.0000000000000000000 ) ) ;
#221 = CYLINDRICAL_SURFACE ( 'NONE', #661, 3.000000000000000888 ) ;
#222 = EDGE_CURVE ( 'NONE', #437, #1219, #434, .T. ) ;
#223 = VECTOR ( 'NONE', #725, 1000.000000000000000 ) ;
#224 = VECTOR ( 'NONE', #1144, 1000.000000000000000 ) ;
#225 = VERTEX_POINT ( 'NONE', #758 ) ;
#226 = ORIENTED_EDGE ( 'NONE', *, *, #875, .F. ) ;
#227 = ORIENTED_EDGE ( 'NONE', *, *, #1082, .T. ) ;
#228 = VERTEX_POINT ( 'NONE', #748 ) ;
#229 = CARTESIAN_POINT ( 'NONE',  ( 8.999999999999987566, 4.500000000000003553, 0.0000000000000000000 ) ) ;
#230 = EDGE_CURVE ( 'NONE', #752, #773, #1262, .T. ) ;
#231 = DIRECTION ( 'NONE',  ( 0.0000000000000000000, 0.0000000000000000000, 1.000000000000000000 ) ) ;
#232 = DIRECTION ( 'NONE',  ( 0.0000000000000000000, 0.0000000000000000000, 1.000000000000000000 ) ) ;
#233 = AXIS2_PLACEMENT_3D ( 'NONE', #187, #999, #296 ) ;
#234 = CARTESIAN_POINT ( 'NONE',  ( 3.849999999999998757, 8.000000000000000000, 0.0000000000000000000 ) ) ;
#235 = DIRECTION ( 'NONE',  ( 0.0000000000000000000, 0.0000000000000000000, 1.000000000000000000 ) ) ;
#236 = CYLINDRICAL_SURFACE ( 'NONE', #328, 2.999999999999999112 ) ;
#237 = PRODUCT ( 'rotation link3', 'rotation link3', '', ( #371 ) ) ;
#238 = CIRCLE ( 'NONE', #837, 6.000000000000000000 ) ;
#239 = PLANE ( 'NONE',  #972 ) ;
#240 = CARTESIAN_POINT ( 'NONE',  ( 16.00000000000000355, 8.000000000000000000, 0.0000000000000000000 ) ) ;
#241 = VECTOR ( 'NONE', #322, 1000.000000000000000 ) ;
#242 = DIRECTION ( 'NONE',  ( -0.0000000000000000000, -0.0000000000000000000, -1.000000000000000000 ) ) ;
#243 = ADVANCED_FACE ( 'NONE', ( #1117, #80, #735, #989, #1228, #672 ), #331, .F. ) ;
#244 = ORIENTED_EDGE ( 'NONE', *, *, #865, .T. ) ;
#245 = EDGE_LOOP ( 'NONE', ( #1154, #227, #789, #35 ) ) ;
#246 = ORIENTED_EDGE ( 'NONE', *, *, #1019, .T. ) ;
#247 = ORIENTED_EDGE ( 'NONE', *, *, #440, .F. ) ;
#248 = CC_DESIGN_PERSON_AND_ORGANIZATION_ASSIGNMENT ( #782, #265, ( #237 ) ) ;
#249 = CARTESIAN_POINT ( 'NONE',  ( 21.00000000000000000, 11.50000000000000355, 0.0000000000000000000 ) ) ;
#250 = VERTEX_POINT ( 'NONE', #542 ) ;
#251 = CARTESIAN_POINT ( 'NONE',  ( 0.0000000000000000000, 0.0000000000000000000, 0.0000000000000000000 ) ) ;
#252 = ADVANCED_FACE ( 'NONE', ( #619 ), #603, .F. ) ;
#253 = EDGE_CURVE ( 'NONE', #37, #1280, #124, .T. ) ;
#254 = APPROVAL_ROLE ( '' ) ;
#255 = DIRECTION ( 'NONE',  ( 0.0000000000000000000, 0.0000000000000000000, 1.000000000000000000 ) ) ;
#256 = FACE_OUTER_BOUND ( 'NONE', #971, .T. ) ;
#257 = CIRCLE ( 'NONE', #541, 2.149999999999999911 ) ;
#258 = LINE ( 'NONE', #951, #1249 ) ;
#259 = ORIENTED_EDGE ( 'NONE', *, *, #423, .T. ) ;
#260 = ORIENTED_EDGE ( 'NONE', *, *, #344, .F. ) ;
#261 = AXIS2_PLACEMENT_3D ( 'NONE', #53, #145, #1057 ) ;
#262 = DIRECTION ( 'NONE',  ( -1.000000000000000000, 0.0000000000000000000, 0.0000000000000000000 ) ) ;
#263 = ORIENTED_EDGE ( 'NONE', *, *, #1140, .T. ) ;
#264 = ADVANCED_FACE ( 'NONE', ( #1297 ), #1164, .T. ) ;
#265 = PERSON_AND_ORGANIZATION_ROLE ( 'design_owner' ) ;
#266 = EDGE_CURVE ( 'NONE', #721, #1050, #389, .T. ) ;
#267 = CARTESIAN_POINT ( 'NONE',  ( 0.0000000000000000000, 0.0000000000000000000, 0.0000000000000000000 ) ) ;
#268 = DIRECTION ( 'NONE',  ( 0.0000000000000000000, 0.0000000000000000000, 1.000000000000000000 ) ) ;
#269 = FACE_OUTER_BOUND ( 'NONE', #180, .T. ) ;
#270 = FACE_OUTER_BOUND ( 'NONE', #962, .T. ) ;
#271 = CARTESIAN_POINT ( 'NONE',  ( 2.999999999999999112, 3.000000000000000000, -12.50000000000000000 ) ) ;
#272 = VECTOR ( 'NONE', #405, 1000.000000000000000 ) ;
#273 = ORIENTED_EDGE ( 'NONE', *, *, #875, .T. ) ;
#274 = CARTESIAN_POINT ( 'NONE',  ( 23.00000000000000000, 5.000000000000000000, -12.50000000000000000 ) ) ;
#275 = ORIENTED_EDGE ( 'NONE', *, *, #362, .F. ) ;
#276 = EDGE_CURVE ( 'NONE', #607, #1153, #417, .T. ) ;
#277 = ORIENTED_EDGE ( 'NONE', *, *, #185, .F. ) ;
#278 = VERTEX_POINT ( 'NONE', #74 ) ;
#279 = ORIENTED_EDGE ( 'NONE', *, *, #156, .F. ) ;
#280 = DIRECTION ( 'NONE',  ( 0.0000000000000000000, 0.0000000000000000000, 1.000000000000000000 ) ) ;
#281 = DIRECTION ( 'NONE',  ( -0.0000000000000000000, -1.000000000000000000, -0.0000000000000000000 ) ) ;
#282 = ADVANCED_FACE ( 'NONE', ( #1001 ), #482, .F. ) ;
#283 = EDGE_CURVE ( 'NONE', #166, #437, #707, .T. ) ;
#284 = DATE_AND_TIME ( #1194, #850 ) ;
#285 = DIRECTION ( 'NONE',  ( -1.000000000000000000, 0.0000000000000000000, 0.0000000000000000000 ) ) ;
#286 = CIRCLE ( 'NONE', #1109, 2.149999999999999911 ) ;
#287 = CARTESIAN_POINT ( 'NONE',  ( 0.0000000000000000000, 3.000000000000000000, -16.00000000000000000 ) ) ;
#288 = LINE ( 'NONE', #613, #567 ) ;
#289 = VECTOR ( 'NONE', #486, 1000.000000000000000 ) ;
#290 = CARTESIAN_POINT ( 'NONE',  ( 2.999999999999999112, 5.000000000000000000, -7.349999999999999645 ) ) ;
#291 = ORIENTED_EDGE ( 'NONE', *, *, #283, .T. ) ;
#292 = ORIENTED_EDGE ( 'NONE', *, *, #276, .T. ) ;
#293 = DIRECTION ( 'NONE',  ( -0.0000000000000000000, 1.000000000000000000, -0.0000000000000000000 ) ) ;
#294 = EDGE_CURVE ( 'NONE', #1074, #607, #321, .T. ) ;
#295 = CARTESIAN_POINT ( 'NONE',  ( 4.999999999999986677, 4.500000000000005329, -3.000000000000000000 ) ) ;
#296 = DIRECTION ( 'NONE',  ( 0.0000000000000000000, 0.0000000000000000000, 1.000000000000000000 ) ) ;
#297 = CARTESIAN_POINT ( 'NONE',  ( 23.00000000000000000, 5.000000000000000000, -9.500000000000000000 ) ) ;
#298 = EDGE_CURVE ( 'NONE', #16, #1219, #110, .T. ) ;
#299 = PLANE ( 'NONE',  #333 ) ;
#300 = APPROVAL_PERSON_ORGANIZATION ( #350, #1165, #1159 ) ;
#301 = LINE ( 'NONE', #543, #1293 ) ;
#302 = FACE_OUTER_BOUND ( 'NONE', #524, .T. ) ;
#303 = CARTESIAN_POINT ( 'NONE',  ( 23.00000000000000000, 5.000000000000000000, -9.500000000000000000 ) ) ;
#304 = FACE_BOUND ( 'NONE', #1118, .T. ) ;
#305 = ORIENTED_EDGE ( 'NONE', *, *, #309, .F. ) ;
#306 = ORIENTED_EDGE ( 'NONE', *, *, #1123, .F. ) ;
#307 = ORIENTED_EDGE ( 'NONE', *, *, #741, .T. ) ;
#308 = DIRECTION ( 'NONE',  ( 0.0000000000000000000, -1.000000000000000000, 0.0000000000000000000 ) ) ;
#309 = EDGE_CURVE ( 'NONE', #589, #278, #670, .T. ) ;
#310 = DIRECTION ( 'NONE',  ( -0.0000000000000000000, -1.000000000000000000, -0.0000000000000000000 ) ) ;
#311 = AXIS2_PLACEMENT_3D ( 'NONE', #194, #293, #606 ) ;
#312 = PRODUCT_DEFINITION_SHAPE ( 'NONE', 'NONE',  #1124 ) ;
#313 = DIRECTION ( 'NONE',  ( 0.0000000000000000000, 1.000000000000000000, 0.0000000000000000000 ) ) ;
#314 = DIRECTION ( 'NONE',  ( 0.0000000000000000000, 0.0000000000000000000, -1.000000000000000000 ) ) ;
#315 = EDGE_CURVE ( 'NONE', #607, #1171, #1015, .T. ) ;
#316 = CARTESIAN_POINT ( 'NONE',  ( 1.149999999999998579, 8.000000000000000000, 0.0000000000000000000 ) ) ;
#317 = FACE_BOUND ( 'NONE', #538, .T. ) ;
#318 = VECTOR ( 'NONE', #1161, 1000.000000000000000 ) ;
#319 = ORIENTED_EDGE ( 'NONE', *, *, #85, .F. ) ;
#320 = CARTESIAN_POINT ( 'NONE',  ( 13.00000000000000000, 0.0000000000000000000, -8.000000000000000000 ) ) ;
#321 = LINE ( 'NONE', #475, #289 ) ;
#322 = DIRECTION ( 'NONE',  ( -0.0000000000000000000, -0.0000000000000000000, -1.000000000000000000 ) ) ;
#323 = VERTEX_POINT ( 'NONE', #587 ) ;
#324 = ORIENTED_EDGE ( 'NONE', *, *, #780, .T. ) ;
#325 = ORIENTED_EDGE ( 'NONE', *, *, #315, .F. ) ;
#326 = EDGE_LOOP ( 'NONE', ( #522, #196, #474, #128 ) ) ;
#327 = CARTESIAN_POINT ( 'NONE',  ( 2.999999999999999112, 5.000000000000000000, -9.500000000000000000 ) ) ;
#328 = AXIS2_PLACEMENT_3D ( 'NONE', #1146, #39, #669 ) ;
#329 = CARTESIAN_POINT ( 'NONE',  ( 13.00000000000000000, -1.000000000000000000, -9.500000000000000000 ) ) ;
#330 = CALENDAR_DATE ( 2019, 12, 12 ) ;
#331 = PLANE ( 'NONE',  #101 ) ;
#332 = DIRECTION ( 'NONE',  ( 0.0000000000000000000, 0.0000000000000000000, 1.000000000000000000 ) ) ;
#333 = AXIS2_PLACEMENT_3D ( 'NONE', #388, #904, #88 ) ;
#334 = LINE ( 'NONE', #42, #1227 ) ;
#335 = CYLINDRICAL_SURFACE ( 'NONE', #717, 2.149999999999999911 ) ;
#336 = APPROVAL ( #162, 'UNSPECIFIED' ) ;
#337 = ORIENTED_EDGE ( 'NONE', *, *, #702, .F. ) ;
#338 = ORIENTED_EDGE ( 'NONE', *, *, #36, .T. ) ;
#339 = DIRECTION ( 'NONE',  ( 1.000000000000000000, 0.0000000000000000000, -0.0000000000000000000 ) ) ;
#340 = ORIENTED_EDGE ( 'NONE', *, *, #574, .T. ) ;
#341 = DIRECTION ( 'NONE',  ( 8.673617379884035472E-16, 0.0000000000000000000, 1.000000000000000000 ) ) ;
#342 = ORIENTED_EDGE ( 'NONE', *, *, #626, .F. ) ;
#343 = DIRECTION ( 'NONE',  ( -0.0000000000000000000, -0.0000000000000000000, -1.000000000000000000 ) ) ;
#344 = EDGE_CURVE ( 'NONE', #539, #902, #386, .T. ) ;
#345 = DIRECTION ( 'NONE',  ( 0.0000000000000000000, 0.0000000000000000000, 1.000000000000000000 ) ) ;
#346 = DIRECTION ( 'NONE',  ( 0.0000000000000000000, 1.000000000000000000, 0.0000000000000000000 ) ) ;
#347 = AXIS2_PLACEMENT_3D ( 'NONE', #329, #1240, #140 ) ;
#348 = DIRECTION ( 'NONE',  ( -0.0000000000000000000, 1.000000000000000000, 0.0000000000000000000 ) ) ;
#349 = ADVANCED_FACE ( 'NONE', ( #1000 ), #987, .T. ) ;
#350 = PERSON_AND_ORGANIZATION ( #467, #968 ) ;
#351 = LINE ( 'NONE', #869, #1277 ) ;
#352 = FACE_OUTER_BOUND ( 'NONE', #777, .T. ) ;
#353 = EDGE_CURVE ( 'NONE', #876, #787, #488, .T. ) ;
#354 = ORIENTED_EDGE ( 'NONE', *, *, #1019, .F. ) ;
#355 = FACE_OUTER_BOUND ( 'NONE', #392, .T. ) ;
#356 = ORIENTED_EDGE ( 'NONE', *, *, #136, .F. ) ;
#357 = ORIENTED_EDGE ( 'NONE', *, *, #1040, .F. ) ;
#358 = ADVANCED_FACE ( 'NONE', ( #828 ), #335, .F. ) ;
#359 = DIRECTION ( 'NONE',  ( 0.0000000000000000000, 0.0000000000000000000, 1.000000000000000000 ) ) ;
#360 = ORIENTED_EDGE ( 'NONE', *, *, #530, .F. ) ;
#361 = CARTESIAN_POINT ( 'NONE',  ( 21.00000000000000000, 4.500000000000003553, 0.0000000000000000000 ) ) ;
#362 = EDGE_CURVE ( 'NONE', #977, #710, #519, .T. ) ;
#363 = CARTESIAN_POINT ( 'NONE',  ( 10.00000000000000178, 8.000000000000000000, 0.0000000000000000000 ) ) ;
#364 = CC_DESIGN_PERSON_AND_ORGANIZATION_ASSIGNMENT ( #159, #469, ( #1236 ) ) ;
#365 =( LENGTH_UNIT ( ) NAMED_UNIT ( * ) SI_UNIT ( .MILLI., .METRE. ) );
#366 = LINE ( 'NONE', #749, #90 ) ;
#367 = DIRECTION ( 'NONE',  ( -0.0000000000000000000, -0.0000000000000000000, -1.000000000000000000 ) ) ;
#368 = CYLINDRICAL_SURFACE ( 'NONE', #754, 1.499999999999999556 ) ;
#369 = EDGE_CURVE ( 'NONE', #879, #1004, #28, .T. ) ;
#370 = VECTOR ( 'NONE', #343, 1000.000000000000000 ) ;
#371 = MECHANICAL_CONTEXT ( 'NONE', #569, 'mechanical' ) ;
#372 = EDGE_LOOP ( 'NONE', ( #143, #306, #927, #620 ) ) ;
#373 = ORIENTED_EDGE ( 'NONE', *, *, #507, .T. ) ;
#374 = AXIS2_PLACEMENT_3D ( 'NONE', #1020, #1023, #1210 ) ;
#375 = ORIENTED_EDGE ( 'NONE', *, *, #266, .T. ) ;
#376 = DIRECTION ( 'NONE',  ( -0.0000000000000000000, 1.000000000000000000, -0.0000000000000000000 ) ) ;
#377 = EDGE_LOOP ( 'NONE', ( #52, #247, #739, #494 ) ) ;
#378 = ADVANCED_FACE ( 'NONE', ( #1279, #1115 ), #299, .T. ) ;
#379 = DIRECTION ( 'NONE',  ( -1.000000000000000000, 0.0000000000000000000, 0.0000000000000000000 ) ) ;
#380 = EDGE_CURVE ( 'NONE', #1153, #622, #288, .T. ) ;
#381 = DIRECTION ( 'NONE',  ( 0.0000000000000000000, -1.000000000000000000, 0.0000000000000000000 ) ) ;
#382 = CC_DESIGN_APPROVAL ( #1165, ( #1098 ) ) ;
#383 = DIRECTION ( 'NONE',  ( 0.0000000000000000000, 1.000000000000000000, 0.0000000000000000000 ) ) ;
#384 = CIRCLE ( 'NONE', #397, 2.149999999999998135 ) ;
#385 = VECTOR ( 'NONE', #1255, 1000.000000000000000 ) ;
#386 = CIRCLE ( 'NONE', #966, 2.999999999999999112 ) ;
#387 = VERTEX_POINT ( 'NONE', #190 ) ;
#388 = CARTESIAN_POINT ( 'NONE',  ( 0.0000000000000000000, 3.000000000000000000, 0.0000000000000000000 ) ) ;
#389 = LINE ( 'NONE', #980, #960 ) ;
#390 = EDGE_CURVE ( 'NONE', #806, #1141, #957, .T. ) ;
#391 = ORIENTED_EDGE ( 'NONE', *, *, #907, .T. ) ;
#392 = EDGE_LOOP ( 'NONE', ( #259, #775, #588, #1061 ) ) ;
#393 = EDGE_LOOP ( 'NONE', ( #963, #356 ) ) ;
#394 = DIRECTION ( 'NONE',  ( 0.0000000000000000000, 0.0000000000000000000, -1.000000000000000000 ) ) ;
#395 = CARTESIAN_POINT ( 'NONE',  ( 19.99999999999999645, 0.0000000000000000000, -16.00000000000000000 ) ) ;
#396 = CARTESIAN_POINT ( 'NONE',  ( 2.999999999999999112, 3.000000000000000000, -9.500000000000000000 ) ) ;
#397 = AXIS2_PLACEMENT_3D ( 'NONE', #1152, #791, #255 ) ;
#398 = DIRECTION ( 'NONE',  ( 0.0000000000000000000, 0.0000000000000000000, 1.000000000000000000 ) ) ;
#399 = VECTOR ( 'NONE', #1036, 1000.000000000000000 ) ;
#400 = LINE ( 'NONE', #133, #176 ) ;
#401 = LINE ( 'NONE', #848, #224 ) ;
#402 = DIRECTION ( 'NONE',  ( 0.0000000000000000000, 1.000000000000000000, 0.0000000000000000000 ) ) ;
#403 = ORIENTED_EDGE ( 'NONE', *, *, #107, .T. ) ;
#404 = ORIENTED_EDGE ( 'NONE', *, *, #796, .F. ) ;
#405 = DIRECTION ( 'NONE',  ( 0.0000000000000000000, -1.000000000000000000, 0.0000000000000000000 ) ) ;
#406 = ORIENTED_EDGE ( 'NONE', *, *, #713, .T. ) ;
#407 = EDGE_CURVE ( 'NONE', #906, #879, #415, .T. ) ;
#408 = CC_DESIGN_APPROVAL ( #336, ( #1124 ) ) ;
#409 = EDGE_CURVE ( 'NONE', #1139, #1171, #1102, .T. ) ;
#410 = PERSON_AND_ORGANIZATION ( #467, #968 ) ;
#411 = AXIS2_PLACEMENT_3D ( 'NONE', #645, #116, #1002 ) ;
#412 = DIRECTION ( 'NONE',  ( 1.000000000000000000, 0.0000000000000000000, 0.0000000000000000000 ) ) ;
#413 = CIRCLE ( 'NONE', #776, 1.349999999999996980 ) ;
#414 = DIRECTION ( 'NONE',  ( 1.734723475976807094E-15, 0.0000000000000000000, 1.000000000000000000 ) ) ;
#415 = LINE ( 'NONE', #287, #585 ) ;
#416 = ORIENTED_EDGE ( 'NONE', *, *, #380, .F. ) ;
#417 = LINE ( 'NONE', #699, #1060 ) ;
#418 = VERTEX_POINT ( 'NONE', #505 ) ;
#419 = EDGE_LOOP ( 'NONE', ( #891, #83, #165, #1030, #1230, #526, #900, #1248 ) ) ;
#420 = ORIENTED_EDGE ( 'NONE', *, *, #440, .T. ) ;
#421 = CARTESIAN_POINT ( 'NONE',  ( 26.00000000000000000, 13.00000000000000178, -3.000000000000000000 ) ) ;
#422 = VERTEX_POINT ( 'NONE', #1295 ) ;
#423 = EDGE_CURVE ( 'NONE', #422, #1139, #840, .T. ) ;
#424 = CARTESIAN_POINT ( 'NONE',  ( 21.00000000000000000, 4.500000000000003553, 0.0000000000000000000 ) ) ;
#425 = DIRECTION ( 'NONE',  ( 0.0000000000000000000, 1.000000000000000000, 0.0000000000000000000 ) ) ;
#426 = CARTESIAN_POINT ( 'NONE',  ( 13.00000000000000000, 0.0000000000000000000, -9.500000000000000000 ) ) ;
#427 = DIRECTION ( 'NONE',  ( 1.000000000000000000, 0.0000000000000000000, 0.0000000000000000000 ) ) ;
#428 = DIRECTION ( 'NONE',  ( 0.0000000000000000000, -0.0000000000000000000, -1.000000000000000000 ) ) ;
#429 = PERSON_AND_ORGANIZATION ( #467, #968 ) ;
#430 = EDGE_CURVE ( 'NONE', #902, #832, #470, .T. ) ;
#431 = APPROVAL_DATE_TIME ( #1224, #336 ) ;
#432 = VECTOR ( 'NONE', #1234, 1000.000000000000000 ) ;
#433 = CARTESIAN_POINT ( 'NONE',  ( 23.50000000000000000, 8.000000000000000000, 0.0000000000000000000 ) ) ;
#434 = CIRCLE ( 'NONE', #1034, 3.000000000000000888 ) ;
#435 = DIRECTION ( 'NONE',  ( 1.000000000000000000, 0.0000000000000000000, 0.0000000000000000000 ) ) ;
#436 = VERTEX_POINT ( 'NONE', #97 ) ;
#437 = VERTEX_POINT ( 'NONE', #92 ) ;
#438 = EDGE_LOOP ( 'NONE', ( #858, #639, #673, #671 ) ) ;
#439 = CARTESIAN_POINT ( 'NONE',  ( 0.0000000000000000000, 3.000000000000000000, 0.0000000000000000000 ) ) ;
#440 = EDGE_CURVE ( 'NONE', #1153, #1073, #63, .T. ) ;
#441 = DIRECTION ( 'NONE',  ( 0.0000000000000000000, 1.000000000000000000, 0.0000000000000000000 ) ) ;
#442 = AXIS2_PLACEMENT_3D ( 'NONE', #303, #1010, #1222 ) ;
#443 = DIRECTION ( 'NONE',  ( 0.0000000000000000000, 0.0000000000000000000, -1.000000000000000000 ) ) ;
#444 = CARTESIAN_POINT ( 'NONE',  ( 26.00000000000000000, 3.500000000000000000, -3.000000000000000000 ) ) ;
#445 = CARTESIAN_POINT ( 'NONE',  ( 23.50000000000000000, 8.000000000000000000, 0.0000000000000000000 ) ) ;
#446 = ADVANCED_FACE ( 'NONE', ( #732 ), #601, .F. ) ;
#447 = FACE_OUTER_BOUND ( 'NONE', #506, .T. ) ;
#448 = CARTESIAN_POINT ( 'NONE',  ( 4.999999999999990230, 11.50000000000000711, 0.0000000000000000000 ) ) ;
#449 = CARTESIAN_POINT ( 'NONE',  ( 2.999999999999999556, -7.000000000000000000, -11.65000000000000036 ) ) ;
#450 = EDGE_CURVE ( 'NONE', #455, #832, #78, .T. ) ;
#451 = LINE ( 'NONE', #361, #518 ) ;
#452 = LINE ( 'NONE', #1110, #1044 ) ;
#453 = CC_DESIGN_SECURITY_CLASSIFICATION ( #1098, ( #1236 ) ) ;
#454 = ADVANCED_FACE ( 'NONE', ( #1072 ), #1246, .F. ) ;
#455 = VERTEX_POINT ( 'NONE', #994 ) ;
#456 = VECTOR ( 'NONE', #1071, 1000.000000000000000 ) ;
#457 = CARTESIAN_POINT ( 'NONE',  ( 13.00000000000000000, -1.000000000000000000, -8.000000000000000000 ) ) ;
#458 = VERTEX_POINT ( 'NONE', #1205 ) ;
#459 = ORIENTED_EDGE ( 'NONE', *, *, #657, .F. ) ;
#460 = VERTEX_POINT ( 'NONE', #822 ) ;
#461 = EDGE_CURVE ( 'NONE', #1168, #1116, #856, .T. ) ;
#462 = DIRECTION ( 'NONE',  ( 0.0000000000000000000, 0.0000000000000000000, -1.000000000000000000 ) ) ;
#463 = ADVANCED_FACE ( 'NONE', ( #767, #304 ), #1217, .T. ) ;
#464 = PERSON_AND_ORGANIZATION_ROLE ( 'classification_officer' ) ;
#465 = DIRECTION ( 'NONE',  ( 0.0000000000000000000, 1.000000000000000000, 0.0000000000000000000 ) ) ;
#466 = COORDINATED_UNIVERSAL_TIME_OFFSET ( 0, 0, .AHEAD. ) ;
#467 = PERSON ( 'UNSPECIFIED', 'UNSPECIFIED', 'UNSPECIFIED', ('UNSPECIFIED'), ('UNSPECIFIED'), ('UNSPECIFIED') ) ;
#468 = ADVANCED_FACE ( 'NONE', ( #46 ), #1193, .F. ) ;
#469 = PERSON_AND_ORGANIZATION_ROLE ( 'creator' ) ;
#470 = LINE ( 'NONE', #908, #1180 ) ;
#471 = AXIS2_PLACEMENT_3D ( 'NONE', #1196, #824, #200 ) ;
#472 = CARTESIAN_POINT ( 'NONE',  ( 26.00000000000000000, 0.0000000000000000000, -10.00000000000000000 ) ) ;
#473 = CIRCLE ( 'NONE', #760, 2.999999999999999112 ) ;
#474 = ORIENTED_EDGE ( 'NONE', *, *, #854, .F. ) ;
#475 = CARTESIAN_POINT ( 'NONE',  ( 8.999999999999987566, 4.500000000000003553, 0.0000000000000000000 ) ) ;
#476 = ORIENTED_EDGE ( 'NONE', *, *, #646, .T. ) ;
#477 = ORIENTED_EDGE ( 'NONE', *, *, #461, .T. ) ;
#478 = DIRECTION ( 'NONE',  ( 0.0000000000000000000, -0.0000000000000000000, 1.000000000000000000 ) ) ;
#479 = AXIS2_PLACEMENT_3D ( 'NONE', #396, #1305, #609 ) ;
#480 = DATE_TIME_ROLE ( 'creation_date' ) ;
#481 = CARTESIAN_POINT ( 'NONE',  ( 21.00000000000000000, 4.500000000000003553, 0.0000000000000000000 ) ) ;
#482 = PLANE ( 'NONE',  #1096 ) ;
#483 = VECTOR ( 'NONE', #1245, 1000.000000000000000 ) ;
#484 = CARTESIAN_POINT ( 'NONE',  ( 4.999999999999986677, 4.500000000000005329, 0.0000000000000000000 ) ) ;
#485 = VECTOR ( 'NONE', #56, 1000.000000000000000 ) ;
#486 = DIRECTION ( 'NONE',  ( -0.0000000000000000000, -1.000000000000000000, -0.0000000000000000000 ) ) ;
#487 = EDGE_CURVE ( 'NONE', #48, #95, #552, .T. ) ;
#488 = LINE ( 'NONE', #1198, #705 ) ;
#489 = EDGE_LOOP ( 'NONE', ( #1263, #974 ) ) ;
#490 = LINE ( 'NONE', #105, #209 ) ;
#491 = AXIS2_PLACEMENT_3D ( 'NONE', #1033, #663, #345 ) ;
#492 = CARTESIAN_POINT ( 'NONE',  ( 5.999999999999998224, 3.000000000000000000, -16.00000000000000000 ) ) ;
#493 = EDGE_LOOP ( 'NONE', ( #1181, #292, #1016, #1233 ) ) ;
#494 = ORIENTED_EDGE ( 'NONE', *, *, #315, .T. ) ;
#495 = DIRECTION ( 'NONE',  ( -0.0000000000000000000, -0.0000000000000000000, -1.000000000000000000 ) ) ;
#496 = EDGE_LOOP ( 'NONE', ( #803, #1091, #226, #1166 ) ) ;
#497 = CARTESIAN_POINT ( 'NONE',  ( 13.00000000000000000, 3.000000000000000000, -11.00000000000000000 ) ) ;
#498 = CARTESIAN_POINT ( 'NONE',  ( 8.999999999999987566, 4.500000000000003553, -3.000000000000000000 ) ) ;
#499 = EDGE_CURVE ( 'NONE', #589, #1116, #452, .T. ) ;
#500 = DIRECTION ( 'NONE',  ( 0.0000000000000000000, 0.0000000000000000000, 1.000000000000000000 ) ) ;
#501 = COORDINATED_UNIVERSAL_TIME_OFFSET ( 0, 0, .AHEAD. ) ;
#502 = CIRCLE ( 'NONE', #43, 1.499999999999999556 ) ;
#503 = CARTESIAN_POINT ( 'NONE',  ( 2.499999999999998668, 8.000000000000000000, -3.000000000000000000 ) ) ;
#504 = VECTOR ( 'NONE', #495, 1000.000000000000000 ) ;
#505 = CARTESIAN_POINT ( 'NONE',  ( 21.00000000000000000, 11.50000000000000355, -3.000000000000000000 ) ) ;
#506 = EDGE_LOOP ( 'NONE', ( #246, #830, #905, #694 ) ) ;
#507 = EDGE_CURVE ( 'NONE', #1280, #602, #1311, .T. ) ;
#508 = ORIENTED_EDGE ( 'NONE', *, *, #1207, .F. ) ;
#509 = VERTEX_POINT ( 'NONE', #316 ) ;
#510 = ORIENTED_EDGE ( 'NONE', *, *, #955, .T. ) ;
#511 = DIRECTION ( 'NONE',  ( -1.000000000000000000, 0.0000000000000000000, 0.0000000000000000000 ) ) ;
#512 = PLANE ( 'NONE',  #1269 ) ;
#513 = EDGE_CURVE ( 'NONE', #943, #199, #801, .T. ) ;
#514 = AXIS2_PLACEMENT_3D ( 'NONE', #1112, #117, #624 ) ;
#515 = CARTESIAN_POINT ( 'NONE',  ( 21.00000000000000000, 11.50000000000000355, 0.0000000000000000000 ) ) ;
#516 = VECTOR ( 'NONE', #698, 1000.000000000000000 ) ;
#517 = DIRECTION ( 'NONE',  ( 0.0000000000000000000, -0.0000000000000000000, 1.000000000000000000 ) ) ;
#518 = VECTOR ( 'NONE', #781, 1000.000000000000000 ) ;
#519 = LINE ( 'NONE', #1100, #223 ) ;
#520 = CARTESIAN_POINT ( 'NONE',  ( 2.499999999999998668, 8.000000000000000000, 0.0000000000000000000 ) ) ;
#521 = ORIENTED_EDGE ( 'NONE', *, *, #59, .F. ) ;
#522 = ORIENTED_EDGE ( 'NONE', *, *, #1253, .T. ) ;
#523 = ORIENTED_EDGE ( 'NONE', *, *, #771, .T. ) ;
#524 = EDGE_LOOP ( 'NONE', ( #357, #571, #990, #1077 ) ) ;
#525 = EDGE_CURVE ( 'NONE', #553, #387, #207, .T. ) ;
#526 = ORIENTED_EDGE ( 'NONE', *, *, #1303, .F. ) ;
#527 = DIRECTION ( 'NONE',  ( 1.000000000000000000, 0.0000000000000000000, 0.0000000000000000000 ) ) ;
#528 = CARTESIAN_POINT ( 'NONE',  ( 2.999999999999999112, 5.000000000000000000, -9.500000000000000000 ) ) ;
#529 = CARTESIAN_POINT ( 'NONE',  ( 23.00000000000000000, 5.000000000000000000, -12.50000000000000000 ) ) ;
#530 = EDGE_CURVE ( 'NONE', #113, #225, #178, .T. ) ;
#531 = DIRECTION ( 'NONE',  ( -1.000000000000000000, 0.0000000000000000000, 0.0000000000000000000 ) ) ;
#532 = DESIGN_CONTEXT ( 'detailed design', #779, 'design' ) ;
#533 = CALENDAR_DATE ( 2019, 12, 12 ) ;
#534 = PLANE ( 'NONE',  #1011 ) ;
#535 = CIRCLE ( 'NONE', #560, 3.000000000000000888 ) ;
#536 = CIRCLE ( 'NONE', #882, 2.999999999999999112 ) ;
#537 = VECTOR ( 'NONE', #641, 1000.000000000000000 ) ;
#538 = EDGE_LOOP ( 'NONE', ( #340, #1251 ) ) ;
#539 = VERTEX_POINT ( 'NONE', #742 ) ;
#540 = CARTESIAN_POINT ( 'NONE',  ( 0.0000000000000000000, 3.000000000000000000, -3.000000000000000000 ) ) ;
#541 = AXIS2_PLACEMENT_3D ( 'NONE', #864, #938, #235 ) ;
#542 = CARTESIAN_POINT ( 'NONE',  ( 2.999999999999999556, 5.000000000000000000, -11.65000000000000036 ) ) ;
#543 = CARTESIAN_POINT ( 'NONE',  ( 4.999999999999986677, 4.500000000000005329, -3.000000000000000000 ) ) ;
#544 = CARTESIAN_POINT ( 'NONE',  ( 6.000000000000000000, 0.0000000000000000000, -10.00000000000000000 ) ) ;
#545 = CARTESIAN_POINT ( 'NONE',  ( 8.999999999999987566, 11.50000000000000355, -3.000000000000000000 ) ) ;
#546 = EDGE_CURVE ( 'NONE', #509, #113, #1212, .T. ) ;
#547 = CARTESIAN_POINT ( 'NONE',  ( 16.00000000000000355, 8.000000000000000000, 0.0000000000000000000 ) ) ;
#548 = LINE ( 'NONE', #973, #701 ) ;
#549 = FACE_OUTER_BOUND ( 'NONE', #81, .T. ) ;
#550 = ADVANCED_FACE ( 'NONE', ( #142, #632 ), #1114, .T. ) ;
#551 = CARTESIAN_POINT ( 'NONE',  ( 13.00000000000000000, 0.0000000000000000000, -11.00000000000000000 ) ) ;
#552 = LINE ( 'NONE', #928, #9 ) ;
#553 = VERTEX_POINT ( 'NONE', #643 ) ;
#554 = EDGE_LOOP ( 'NONE', ( #621, #805, #1266, #99 ) ) ;
#555 = ORIENTED_EDGE ( 'NONE', *, *, #1053, .T. ) ;
#556 = ORIENTED_EDGE ( 'NONE', *, *, #981, .F. ) ;
#557 = EDGE_CURVE ( 'NONE', #1141, #806, #899, .T. ) ;
#558 = DIRECTION ( 'NONE',  ( 0.0000000000000000000, 0.0000000000000000000, 1.000000000000000000 ) ) ;
#559 = DIRECTION ( 'NONE',  ( 0.0000000000000000000, 0.0000000000000000000, 1.000000000000000000 ) ) ;
#560 = AXIS2_PLACEMENT_3D ( 'NONE', #119, #402, #1125 ) ;
#561 = CARTESIAN_POINT ( 'NONE',  ( 4.999999999999986677, 4.500000000000005329, 0.0000000000000000000 ) ) ;
#562 = ADVANCED_FACE ( 'NONE', ( #1149 ), #14, .F. ) ;
#563 = COORDINATED_UNIVERSAL_TIME_OFFSET ( 0, 0, .AHEAD. ) ;
#564 = SECURITY_CLASSIFICATION_LEVEL ( 'unclassified' ) ;
#565 = EDGE_CURVE ( 'NONE', #1004, #710, #1085, .T. ) ;
#566 = LINE ( 'NONE', #844, #1294 ) ;
#567 = VECTOR ( 'NONE', #1009, 1000.000000000000000 ) ;
#568 = LINE ( 'NONE', #629, #537 ) ;
#569 = APPLICATION_CONTEXT ( 'configuration controlled 3d designs of mechanical parts and assemblies' ) ;
#570 = ORIENTED_EDGE ( 'NONE', *, *, #344, .T. ) ;
#571 = ORIENTED_EDGE ( 'NONE', *, *, #1053, .F. ) ;
#572 = DIRECTION ( 'NONE',  ( 1.000000000000000000, 0.0000000000000000000, -0.0000000000000000000 ) ) ;
#573 = ADVANCED_FACE ( 'NONE', ( #352 ), #1026, .T. ) ;
#574 = EDGE_CURVE ( 'NONE', #721, #1138, #257, .T. ) ;
#575 = DIRECTION ( 'NONE',  ( 0.0000000000000000000, 0.0000000000000000000, 1.000000000000000000 ) ) ;
#576 =( NAMED_UNIT ( * ) PLANE_ANGLE_UNIT ( ) SI_UNIT ( $, .RADIAN. ) );
#577 = DIRECTION ( 'NONE',  ( -0.0000000000000000000, -0.0000000000000000000, -1.000000000000000000 ) ) ;
#578 = CARTESIAN_POINT ( 'NONE',  ( 2.999999999999999112, -7.000000000000000000, -9.500000000000000000 ) ) ;
#579 = CIRCLE ( 'NONE', #471, 1.349999999999996980 ) ;
#580 = EDGE_CURVE ( 'NONE', #323, #166, #1296, .T. ) ;
#581 = CARTESIAN_POINT ( 'NONE',  ( 13.00000000000000000, 3.000000000000000000, -8.000000000000000000 ) ) ;
#582 = LINE ( 'NONE', #651, #432 ) ;
#583 = AXIS2_PLACEMENT_3D ( 'NONE', #1254, #158, #262 ) ;
#584 = CARTESIAN_POINT ( 'NONE',  ( 2.999999999999999112, 5.000000000000000000, -12.50000000000000000 ) ) ;
#585 = VECTOR ( 'NONE', #1087, 1000.000000000000000 ) ;
#586 = EDGE_LOOP ( 'NONE', ( #263, #903 ) ) ;
#587 = CARTESIAN_POINT ( 'NONE',  ( 0.0000000000000000000, 3.000000000000000000, -3.500000000000000000 ) ) ;
#588 = ORIENTED_EDGE ( 'NONE', *, *, #167, .F. ) ;
#589 = VERTEX_POINT ( 'NONE', #947 ) ;
#590 = ORIENTED_EDGE ( 'NONE', *, *, #1216, .T. ) ;
#591 = CARTESIAN_POINT ( 'NONE',  ( 24.84999999999999787, 8.000000000000000000, -3.000000000000000000 ) ) ;
#592 = EDGE_CURVE ( 'NONE', #832, #460, #536, .T. ) ;
#593 = DIRECTION ( 'NONE',  ( 0.0000000000000000000, 0.0000000000000000000, 1.000000000000000000 ) ) ;
#594 = EDGE_CURVE ( 'NONE', #1141, #773, #925, .T. ) ;
#595 = PLANE ( 'NONE',  #1021 ) ;
#596 = DIRECTION ( 'NONE',  ( 0.0000000000000000000, 0.0000000000000000000, -1.000000000000000000 ) ) ;
#597 = ADVANCED_FACE ( 'NONE', ( #1243 ), #617, .F. ) ;
#598 = CIRCLE ( 'NONE', #704, 1.350000000000000089 ) ;
#599 = DIRECTION ( 'NONE',  ( -0.0000000000000000000, -1.000000000000000000, -0.0000000000000000000 ) ) ;
#600 = EDGE_CURVE ( 'NONE', #228, #225, #598, .T. ) ;
#601 = CYLINDRICAL_SURFACE ( 'NONE', #311, 2.149999999999998135 ) ;
#602 = VERTEX_POINT ( 'NONE', #1041 ) ;
#603 = CYLINDRICAL_SURFACE ( 'NONE', #6, 1.350000000000000089 ) ;
#604 = ORIENTED_EDGE ( 'NONE', *, *, #530, .T. ) ;
#605 = ORIENTED_EDGE ( 'NONE', *, *, #907, .F. ) ;
#606 = DIRECTION ( 'NONE',  ( 0.0000000000000000000, 0.0000000000000000000, 1.000000000000000000 ) ) ;
#607 = VERTEX_POINT ( 'NONE', #953 ) ;
#608 = VERTEX_POINT ( 'NONE', #1247 ) ;
#609 = DIRECTION ( 'NONE',  ( 0.0000000000000000000, 0.0000000000000000000, 1.000000000000000000 ) ) ;
#610 =( GEOMETRIC_REPRESENTATION_CONTEXT ( 3 ) GLOBAL_UNCERTAINTY_ASSIGNED_CONTEXT ( ( #648 ) ) GLOBAL_UNIT_ASSIGNED_CONTEXT ( ( #365, #576, #881 ) ) REPRESENTATION_CONTEXT ( 'NONE', 'WORKASPACE' ) );
#611 = DIRECTION ( 'NONE',  ( 0.0000000000000000000, 0.0000000000000000000, 1.000000000000000000 ) ) ;
#612 = ADVANCED_FACE ( 'NONE', ( #205 ), #368, .F. ) ;
#613 = CARTESIAN_POINT ( 'NONE',  ( 4.999999999999986677, 4.500000000000005329, 0.0000000000000000000 ) ) ;
#614 = LOCAL_TIME ( 16, 56, 38.00000000000000000, #744 ) ;
#615 = FACE_OUTER_BOUND ( 'NONE', #1007, .T. ) ;
#616 = DIRECTION ( 'NONE',  ( 0.0000000000000000000, -1.000000000000000000, 0.0000000000000000000 ) ) ;
#617 = CYLINDRICAL_SURFACE ( 'NONE', #347, 1.499999999999999556 ) ;
#618 = DIRECTION ( 'NONE',  ( -0.0000000000000000000, -0.0000000000000000000, -1.000000000000000000 ) ) ;
#619 = FACE_OUTER_BOUND ( 'NONE', #913, .T. ) ;
#620 = ORIENTED_EDGE ( 'NONE', *, *, #1309, .T. ) ;
#621 = ORIENTED_EDGE ( 'NONE', *, *, #697, .F. ) ;
#622 = VERTEX_POINT ( 'NONE', #1037 ) ;
#623 = ORIENTED_EDGE ( 'NONE', *, *, #592, .F. ) ;
#624 = DIRECTION ( 'NONE',  ( 0.0000000000000000000, 0.0000000000000000000, 1.000000000000000000 ) ) ;
#625 = DIRECTION ( 'NONE',  ( 0.0000000000000000000, -0.0000000000000000000, -1.000000000000000000 ) ) ;
#626 = EDGE_CURVE ( 'NONE', #64, #977, #1014, .T. ) ;
#627 = DIRECTION ( 'NONE',  ( 0.0000000000000000000, 0.0000000000000000000, -1.000000000000000000 ) ) ;
#628 = AXIS2_PLACEMENT_3D ( 'NONE', #528, #310, #627 ) ;
#629 = CARTESIAN_POINT ( 'NONE',  ( 4.999999999999986677, 4.500000000000005329, -3.000000000000000000 ) ) ;
#630 = CARTESIAN_POINT ( 'NONE',  ( 17.00000000000000000, 4.500000000000003553, 0.0000000000000000000 ) ) ;
#631 = FACE_OUTER_BOUND ( 'NONE', #372, .T. ) ;
#632 = FACE_BOUND ( 'NONE', #788, .T. ) ;
#633 = ORIENTED_EDGE ( 'NONE', *, *, #992, .T. ) ;
#634 = VECTOR ( 'NONE', #1120, 1000.000000000000000 ) ;
#635 = DIRECTION ( 'NONE',  ( 0.0000000000000000000, -1.000000000000000000, -0.0000000000000000000 ) ) ;
#636 = ORIENTED_EDGE ( 'NONE', *, *, #813, .F. ) ;
#637 = ORIENTED_EDGE ( 'NONE', *, *, #409, .F. ) ;
#638 = EDGE_CURVE ( 'NONE', #212, #873, #413, .T. ) ;
#639 = ORIENTED_EDGE ( 'NONE', *, *, #594, .T. ) ;
#640 = EDGE_LOOP ( 'NONE', ( #1300, #1031 ) ) ;
#641 = DIRECTION ( 'NONE',  ( -1.000000000000000000, 4.336808689942017736E-16, -0.0000000000000000000 ) ) ;
#642 = DIRECTION ( 'NONE',  ( 0.0000000000000000000, 1.000000000000000000, 0.0000000000000000000 ) ) ;
#643 = CARTESIAN_POINT ( 'NONE',  ( 24.84999999999999787, 8.000000000000000000, 0.0000000000000000000 ) ) ;
#644 = PLANE ( 'NONE',  #733 ) ;
#645 = CARTESIAN_POINT ( 'NONE',  ( 2.999999999999999112, 0.0000000000000000000, -9.500000000000000000 ) ) ;
#646 = EDGE_CURVE ( 'NONE', #608, #458, #238, .T. ) ;
#647 = CARTESIAN_POINT ( 'NONE',  ( 23.50000000000000000, 8.000000000000000000, -3.000000000000000000 ) ) ;
#648 = UNCERTAINTY_MEASURE_WITH_UNIT (LENGTH_MEASURE( 1.000000000000000082E-05 ), #365, 'distance_accuracy_value', 'NONE');
#649 = CARTESIAN_POINT ( 'NONE',  ( 23.00000000000000000, 3.000000000000000000, -9.500000000000000000 ) ) ;
#650 = DIRECTION ( 'NONE',  ( 4.956352788505162282E-16, 1.000000000000000000, 0.0000000000000000000 ) ) ;
#651 = CARTESIAN_POINT ( 'NONE',  ( 26.00000000000000000, 3.000000000000000000, 0.0000000000000000000 ) ) ;
#652 = CYLINDRICAL_SURFACE ( 'NONE', #70, 0.5000000000000000000 ) ;
#653 = FACE_OUTER_BOUND ( 'NONE', #326, .T. ) ;
#654 = ORIENTED_EDGE ( 'NONE', *, *, #580, .T. ) ;
#655 = VERTEX_POINT ( 'NONE', #1126 ) ;
#656 = DIRECTION ( 'NONE',  ( 1.000000000000000000, -8.673617379884042375E-16, 0.0000000000000000000 ) ) ;
#657 = EDGE_CURVE ( 'NONE', #437, #1287, #582, .T. ) ;
#658 = DIRECTION ( 'NONE',  ( -0.0000000000000000000, -0.0000000000000000000, -1.000000000000000000 ) ) ;
#659 = ORIENTED_EDGE ( 'NONE', *, *, #1289, .F. ) ;
#660 = ORIENTED_EDGE ( 'NONE', *, *, #865, .F. ) ;
#661 = AXIS2_PLACEMENT_3D ( 'NONE', #89, #1121, #19 ) ;
#662 = CARTESIAN_POINT ( 'NONE',  ( 13.00000000000000000, 3.000000000000000000, -9.500000000000000000 ) ) ;
#663 = DIRECTION ( 'NONE',  ( 1.000000000000000000, -0.0000000000000000000, -0.0000000000000000000 ) ) ;
#664 = DIRECTION ( 'NONE',  ( -0.0000000000000000000, 0.0000000000000000000, -1.000000000000000000 ) ) ;
#665 = EDGE_CURVE ( 'NONE', #710, #1287, #93, .T. ) ;
#666 = AXIS2_PLACEMENT_3D ( 'NONE', #424, #527, #213 ) ;
#667 = CIRCLE ( 'NONE', #919, 3.000000000000000888 ) ;
#668 = VECTOR ( 'NONE', #680, 1000.000000000000000 ) ;
#669 = DIRECTION ( 'NONE',  ( 0.0000000000000000000, 0.0000000000000000000, -1.000000000000000000 ) ) ;
#670 = LINE ( 'NONE', #1064, #1261 ) ;
#671 = ORIENTED_EDGE ( 'NONE', *, *, #1257, .F. ) ;
#672 = FACE_OUTER_BOUND ( 'NONE', #127, .T. ) ;
#673 = ORIENTED_EDGE ( 'NONE', *, *, #813, .T. ) ;
#674 = ORIENTED_EDGE ( 'NONE', *, *, #1191, .T. ) ;
#675 = EDGE_CURVE ( 'NONE', #37, #1108, #400, .T. ) ;
#676 = ORIENTED_EDGE ( 'NONE', *, *, #525, .T. ) ;
#677 = CARTESIAN_POINT ( 'NONE',  ( 10.00000000000000178, 8.000000000000000000, -3.000000000000000000 ) ) ;
#678 = AXIS2_PLACEMENT_3D ( 'NONE', #267, #359, #690 ) ;
#679 = APPROVAL_STATUS ( 'not_yet_approved' ) ;
#680 = DIRECTION ( 'NONE',  ( -0.0000000000000000000, -1.000000000000000000, -0.0000000000000000000 ) ) ;
#681 = DATE_AND_TIME ( #533, #1306 ) ;
#682 = CARTESIAN_POINT ( 'NONE',  ( 21.00000000000000000, 4.500000000000003553, -3.000000000000000000 ) ) ;
#683 = CYLINDRICAL_SURFACE ( 'NONE', #798, 1.350000000000000089 ) ;
#684 = AXIS2_PLACEMENT_3D ( 'NONE', #983, #285, #1178 ) ;
#685 = CARTESIAN_POINT ( 'NONE',  ( 4.999999999999990230, 11.50000000000000711, 0.0000000000000000000 ) ) ;
#686 = ADVANCED_FACE ( 'NONE', ( #302 ), #870, .F. ) ;
#687 = CIRCLE ( 'NONE', #118, 0.5000000000000000000 ) ;
#688 = DIRECTION ( 'NONE',  ( 0.0000000000000000000, 0.0000000000000000000, -1.000000000000000000 ) ) ;
#689 = CYLINDRICAL_SURFACE ( 'NONE', #1276, 1.349999999999996980 ) ;
#690 = DIRECTION ( 'NONE',  ( 1.000000000000000000, 0.0000000000000000000, 0.0000000000000000000 ) ) ;
#691 = ORIENTED_EDGE ( 'NONE', *, *, #1309, .F. ) ;
#692 = ORIENTED_EDGE ( 'NONE', *, *, #1106, .F. ) ;
#693 = PLANE ( 'NONE',  #1025 ) ;
#694 = ORIENTED_EDGE ( 'NONE', *, *, #1106, .T. ) ;
#695 = DIRECTION ( 'NONE',  ( 0.0000000000000000000, 0.0000000000000000000, 1.000000000000000000 ) ) ;
#696 = ORIENTED_EDGE ( 'NONE', *, *, #890, .T. ) ;
#697 = EDGE_CURVE ( 'NONE', #48, #436, #1133, .T. ) ;
#698 = DIRECTION ( 'NONE',  ( -0.0000000000000000000, -0.0000000000000000000, -1.000000000000000000 ) ) ;
#699 = CARTESIAN_POINT ( 'NONE',  ( 4.999999999999986677, 4.500000000000005329, 0.0000000000000000000 ) ) ;
#700 = CARTESIAN_POINT ( 'NONE',  ( 23.00000000000000000, -7.000000000000000000, -9.500000000000000000 ) ) ;
#701 = VECTOR ( 'NONE', #462, 1000.000000000000000 ) ;
#702 = EDGE_CURVE ( 'NONE', #460, #197, #799, .T. ) ;
#703 = FACE_OUTER_BOUND ( 'NONE', #419, .T. ) ;
#704 = AXIS2_PLACEMENT_3D ( 'NONE', #126, #664, #1035 ) ;
#705 = VECTOR ( 'NONE', #716, 1000.000000000000000 ) ;
#706 = ORIENTED_EDGE ( 'NONE', *, *, #525, .F. ) ;
#707 = LINE ( 'NONE', #68, #1182 ) ;
#708 = EDGE_LOOP ( 'NONE', ( #605, #112, #1185, #659 ) ) ;
#709 = ORIENTED_EDGE ( 'NONE', *, *, #499, .F. ) ;
#710 = VERTEX_POINT ( 'NONE', #472 ) ;
#711 = DIRECTION ( 'NONE',  ( -1.000000000000000000, 4.956352788505162282E-16, 0.0000000000000000000 ) ) ;
#712 = ORIENTED_EDGE ( 'NONE', *, *, #1040, .T. ) ;
#713 = EDGE_CURVE ( 'NONE', #509, #228, #729, .T. ) ;
#714 = CARTESIAN_POINT ( 'NONE',  ( 24.84999999999999787, 8.000000000000000000, 0.0000000000000000000 ) ) ;
#715 = CIRCLE ( 'NONE', #491, 0.5000000000000000000 ) ;
#716 = DIRECTION ( 'NONE',  ( -0.0000000000000000000, -1.000000000000000000, -0.0000000000000000000 ) ) ;
#717 = AXIS2_PLACEMENT_3D ( 'NONE', #578, #1078, #695 ) ;
#718 = VECTOR ( 'NONE', #281, 1000.000000000000000 ) ;
#719 = LINE ( 'NONE', #10, #164 ) ;
#720 = ORIENTED_EDGE ( 'NONE', *, *, #283, .F. ) ;
#721 = VERTEX_POINT ( 'NONE', #880 ) ;
#722 = DIRECTION ( 'NONE',  ( -0.0000000000000000000, -1.000000000000000000, -0.0000000000000000000 ) ) ;
#723 = CARTESIAN_POINT ( 'NONE',  ( 19.99999999999998934, 0.0000000000000000000, -16.00000000000000000 ) ) ;
#724 = EDGE_CURVE ( 'NONE', #622, #422, #985, .T. ) ;
#725 = DIRECTION ( 'NONE',  ( 0.0000000000000000000, 0.0000000000000000000, -1.000000000000000000 ) ) ;
#726 = AXIS2_PLACEMENT_3D ( 'NONE', #503, #825, #909 ) ;
#727 = DIRECTION ( 'NONE',  ( -0.0000000000000000000, -0.0000000000000000000, -1.000000000000000000 ) ) ;
#728 = CIRCLE ( 'NONE', #1158, 2.149999999999998135 ) ;
#729 = LINE ( 'NONE', #1063, #485 ) ;
#730 = EDGE_CURVE ( 'NONE', #876, #16, #912, .T. ) ;
#731 = CARTESIAN_POINT ( 'NONE',  ( 19.99999999999999645, 0.0000000000000000000, -10.00000000000000000 ) ) ;
#732 = FACE_OUTER_BOUND ( 'NONE', #554, .T. ) ;
#733 = AXIS2_PLACEMENT_3D ( 'NONE', #448, #770, #25 ) ;
#734 = ORIENTED_EDGE ( 'NONE', *, *, #423, .F. ) ;
#735 = FACE_BOUND ( 'NONE', #740, .T. ) ;
#736 = ORIENTED_EDGE ( 'NONE', *, *, #835, .T. ) ;
#737 = ORIENTED_EDGE ( 'NONE', *, *, #713, .F. ) ;
#738 = CARTESIAN_POINT ( 'NONE',  ( 0.0000000000000000000, 3.000000000000000000, -16.00000000000000000 ) ) ;
#739 = ORIENTED_EDGE ( 'NONE', *, *, #276, .F. ) ;
#740 = EDGE_LOOP ( 'NONE', ( #307, #845, #1169, #820 ) ) ;
#741 = EDGE_CURVE ( 'NONE', #929, #589, #451, .T. ) ;
#742 = CARTESIAN_POINT ( 'NONE',  ( 2.999999999999999556, 5.000000000000000000, -6.500000000000000000 ) ) ;
#743 = CC_DESIGN_PERSON_AND_ORGANIZATION_ASSIGNMENT ( #1195, #1067, ( #1124 ) ) ;
#744 = COORDINATED_UNIVERSAL_TIME_OFFSET ( 0, 0, .AHEAD. ) ;
#745 = LINE ( 'NONE', #449, #161 ) ;
#746 = ADVANCED_BREP_SHAPE_REPRESENTATION ( 'rotation link3', ( #198, #678 ), #610 ) ;
#747 = VECTOR ( 'NONE', #817, 1000.000000000000000 ) ;
#748 = CARTESIAN_POINT ( 'NONE',  ( 1.149999999999998579, 8.000000000000000000, -3.000000000000000000 ) ) ;
#749 = CARTESIAN_POINT ( 'NONE',  ( 21.00000000000000000, 11.50000000000000355, -3.000000000000000000 ) ) ;
#750 = ORIENTED_EDGE ( 'NONE', *, *, #1253, .F. ) ;
#751 = DIRECTION ( 'NONE',  ( -1.000000000000000000, 0.0000000000000000000, 0.0000000000000000000 ) ) ;
#752 = VERTEX_POINT ( 'NONE', #677 ) ;
#753 = ORIENTED_EDGE ( 'NONE', *, *, #230, .T. ) ;
#754 = AXIS2_PLACEMENT_3D ( 'NONE', #120, #851, #934 ) ;
#755 = VERTEX_POINT ( 'NONE', #154 ) ;
#756 = CARTESIAN_POINT ( 'NONE',  ( 0.0000000000000000000, 3.000000000000000000, -10.00000000000000000 ) ) ;
#757 = ADVANCED_FACE ( 'NONE', ( #317, #1101, #193, #270 ), #693, .F. ) ;
#758 = CARTESIAN_POINT ( 'NONE',  ( 3.849999999999998757, 8.000000000000000000, -3.000000000000000000 ) ) ;
#759 = CARTESIAN_POINT ( 'NONE',  ( 23.00000000000000000, 5.000000000000000000, -7.350000000000001421 ) ) ;
#760 = AXIS2_PLACEMENT_3D ( 'NONE', #1022, #313, #2 ) ;
#761 = DIRECTION ( 'NONE',  ( 0.0000000000000000000, -1.000000000000000000, -0.0000000000000000000 ) ) ;
#762 = CIRCLE ( 'NONE', #22, 2.149999999999998135 ) ;
#763 = DIRECTION ( 'NONE',  ( 0.0000000000000000000, 1.000000000000000000, 0.0000000000000000000 ) ) ;
#764 = CARTESIAN_POINT ( 'NONE',  ( 17.00000000000000355, 11.50000000000000355, 0.0000000000000000000 ) ) ;
#765 = DIRECTION ( 'NONE',  ( 1.000000000000000000, 0.0000000000000000000, -0.0000000000000000000 ) ) ;
#766 = LINE ( 'NONE', #1291, #1148 ) ;
#767 = FACE_OUTER_BOUND ( 'NONE', #98, .T. ) ;
#768 = ORIENTED_EDGE ( 'NONE', *, *, #917, .T. ) ;
#769 = EDGE_LOOP ( 'NONE', ( #555, #676 ) ) ;
#770 = DIRECTION ( 'NONE',  ( 8.673617379884042375E-16, 1.000000000000000000, -0.0000000000000000000 ) ) ;
#771 = EDGE_CURVE ( 'NONE', #458, #1004, #141, .T. ) ;
#772 = CARTESIAN_POINT ( 'NONE',  ( 8.999999999999987566, 4.500000000000003553, -3.000000000000000000 ) ) ;
#773 = VERTEX_POINT ( 'NONE', #792 ) ;
#774 = ORIENTED_EDGE ( 'NONE', *, *, #430, .F. ) ;
#775 = ORIENTED_EDGE ( 'NONE', *, *, #835, .F. ) ;
#776 = AXIS2_PLACEMENT_3D ( 'NONE', #647, #20, #751 ) ;
#777 = EDGE_LOOP ( 'NONE', ( #260, #403, #1086, #774 ) ) ;
#778 = ADVANCED_FACE ( 'NONE', ( #163 ), #652, .F. ) ;
#779 = APPLICATION_CONTEXT ( 'configuration controlled 3d designs of mechanical parts and assemblies' ) ;
#780 = EDGE_CURVE ( 'NONE', #602, #977, #954, .T. ) ;
#781 = DIRECTION ( 'NONE',  ( -1.000000000000000000, 0.0000000000000000000, 0.0000000000000000000 ) ) ;
#782 = PERSON_AND_ORGANIZATION ( #467, #968 ) ;
#783 = CIRCLE ( 'NONE', #823, 2.149999999999999911 ) ;
#784 = VECTOR ( 'NONE', #765, 1000.000000000000000 ) ;
#785 = CARTESIAN_POINT ( 'NONE',  ( 22.15000000000000213, 8.000000000000000000, 0.0000000000000000000 ) ) ;
#786 = CIRCLE ( 'NONE', #125, 2.999999999999999112 ) ;
#787 = VERTEX_POINT ( 'NONE', #958 ) ;
#788 = EDGE_LOOP ( 'NONE', ( #691, #1105 ) ) ;
#789 = ORIENTED_EDGE ( 'NONE', *, *, #949, .T. ) ;
#790 = AXIS2_PLACEMENT_3D ( 'NONE', #811, #184, #688 ) ;
#791 = DIRECTION ( 'NONE',  ( 0.0000000000000000000, 1.000000000000000000, 0.0000000000000000000 ) ) ;
#792 = CARTESIAN_POINT ( 'NONE',  ( 16.00000000000000355, 8.000000000000000000, -3.000000000000000000 ) ) ;
#793 = APPLICATION_PROTOCOL_DEFINITION ( 'international standard', 'config_control_design', 1994, #779 ) ;
#794 = DIRECTION ( 'NONE',  ( 1.000000000000000000, 0.0000000000000000000, 0.0000000000000000000 ) ) ;
#795 = DIRECTION ( 'NONE',  ( -1.000000000000000000, 0.0000000000000000000, 0.0000000000000000000 ) ) ;
#796 = EDGE_CURVE ( 'NONE', #387, #212, #1179, .T. ) ;
#797 = SHAPE_DEFINITION_REPRESENTATION ( #312, #746 ) ;
#798 = AXIS2_PLACEMENT_3D ( 'NONE', #1252, #658, #137 ) ;
#799 = LINE ( 'NONE', #1065, #385 ) ;
#800 = ADVANCED_FACE ( 'NONE', ( #886 ), #122, .F. ) ;
#801 = CIRCLE ( 'NONE', #1290, 1.499999999999999556 ) ;
#802 = ORIENTED_EDGE ( 'NONE', *, *, #741, .F. ) ;
#803 = ORIENTED_EDGE ( 'NONE', *, *, #1145, .F. ) ;
#804 = DIRECTION ( 'NONE',  ( -4.956352788505162282E-16, -1.000000000000000000, 0.0000000000000000000 ) ) ;
#805 = ORIENTED_EDGE ( 'NONE', *, *, #487, .T. ) ;
#806 = VERTEX_POINT ( 'NONE', #363 ) ;
#807 = EDGE_LOOP ( 'NONE', ( #706, #712, #590, #404 ) ) ;
#808 = ORIENTED_EDGE ( 'NONE', *, *, #995, .T. ) ;
#809 = EDGE_CURVE ( 'NONE', #458, #906, #334, .T. ) ;
#810 = CARTESIAN_POINT ( 'NONE',  ( 19.99999999999999645, 3.000000000000000000, -10.00000000000000000 ) ) ;
#811 = CARTESIAN_POINT ( 'NONE',  ( 23.00000000000000000, 5.000000000000000000, -9.500000000000000000 ) ) ;
#812 = DIRECTION ( 'NONE',  ( -1.000000000000000000, 0.0000000000000000000, 0.0000000000000000000 ) ) ;
#813 = EDGE_CURVE ( 'NONE', #773, #752, #106, .T. ) ;
#814 = ADVANCED_FACE ( 'NONE', ( #703 ), #1172, .T. ) ;
#815 = CIRCLE ( 'NONE', #726, 1.350000000000000089 ) ;
#816 = VECTOR ( 'NONE', #104, 1000.000000000000000 ) ;
#817 = DIRECTION ( 'NONE',  ( 1.000000000000000000, -8.673617379884042375E-16, 0.0000000000000000000 ) ) ;
#818 = CIRCLE ( 'NONE', #215, 1.350000000000000089 ) ;
#819 = ORIENTED_EDGE ( 'NONE', *, *, #910, .T. ) ;
#820 = ORIENTED_EDGE ( 'NONE', *, *, #854, .T. ) ;
#821 = ORIENTED_EDGE ( 'NONE', *, *, #507, .F. ) ;
#822 = CARTESIAN_POINT ( 'NONE',  ( 0.0000000000000000000, 3.000000000000000000, -9.500000000000000000 ) ) ;
#823 = AXIS2_PLACEMENT_3D ( 'NONE', #327, #1226, #398 ) ;
#824 = DIRECTION ( 'NONE',  ( 0.0000000000000000000, 0.0000000000000000000, -1.000000000000000000 ) ) ;
#825 = DIRECTION ( 'NONE',  ( -0.0000000000000000000, 0.0000000000000000000, -1.000000000000000000 ) ) ;
#826 = EDGE_CURVE ( 'NONE', #1108, #64, #970, .T. ) ;
#827 = VECTOR ( 'NONE', #577, 1000.000000000000000 ) ;
#828 = FACE_OUTER_BOUND ( 'NONE', #245, .T. ) ;
#829 = CARTESIAN_POINT ( 'NONE',  ( 26.00000000000000000, 3.000000000000000000, -3.000000000000000000 ) ) ;
#830 = ORIENTED_EDGE ( 'NONE', *, *, #173, .F. ) ;
#831 = EDGE_LOOP ( 'NONE', ( #1104, #1018 ) ) ;
#832 = VERTEX_POINT ( 'NONE', #271 ) ;
#833 = ORIENTED_EDGE ( 'NONE', *, *, #430, .T. ) ;
#834 = CARTESIAN_POINT ( 'NONE',  ( 2.999999999999999556, 5.000000000000000000, -6.500000000000000888 ) ) ;
#835 = EDGE_CURVE ( 'NONE', #1074, #1139, #351, .T. ) ;
#836 = DIRECTION ( 'NONE',  ( -4.956352788505163268E-16, -1.000000000000000000, 0.0000000000000000000 ) ) ;
#837 = AXIS2_PLACEMENT_3D ( 'NONE', #544, #761, #341 ) ;
#838 = DIRECTION ( 'NONE',  ( -1.000000000000000000, -0.0000000000000000000, 0.0000000000000000000 ) ) ;
#839 = DIRECTION ( 'NONE',  ( -1.000000000000000000, 0.0000000000000000000, 0.0000000000000000000 ) ) ;
#840 = LINE ( 'NONE', #918, #747 ) ;
#841 = CYLINDRICAL_SURFACE ( 'NONE', #924, 3.000000000000000888 ) ;
#842 = ORIENTED_EDGE ( 'NONE', *, *, #353, .F. ) ;
#843 = ORIENTED_EDGE ( 'NONE', *, *, #1239, .T. ) ;
#844 = CARTESIAN_POINT ( 'NONE',  ( 17.00000000000000000, 4.500000000000003553, -3.000000000000000000 ) ) ;
#845 = ORIENTED_EDGE ( 'NONE', *, *, #309, .T. ) ;
#846 = CARTESIAN_POINT ( 'NONE',  ( 2.999999999999999112, 5.000000000000000000, -9.500000000000000000 ) ) ;
#847 = CARTESIAN_POINT ( 'NONE',  ( 8.999999999999987566, 11.50000000000000355, 0.0000000000000000000 ) ) ;
#848 = CARTESIAN_POINT ( 'NONE',  ( 0.0000000000000000000, 3.000000000000000000, 0.0000000000000000000 ) ) ;
#849 = CARTESIAN_POINT ( 'NONE',  ( 23.00000000000000000, 3.000000000000000000, -9.500000000000000000 ) ) ;
#850 = LOCAL_TIME ( 16, 56, 38.00000000000000000, #563 ) ;
#851 = DIRECTION ( 'NONE',  ( -0.0000000000000000000, 1.000000000000000000, -0.0000000000000000000 ) ) ;
#852 = LINE ( 'NONE', #714, #121 ) ;
#853 = VECTOR ( 'NONE', #367, 1000.000000000000000 ) ;
#854 = EDGE_CURVE ( 'NONE', #211, #929, #1070, .T. ) ;
#855 = CARTESIAN_POINT ( 'NONE',  ( 23.00000000000000000, 0.0000000000000000000, -9.500000000000000000 ) ) ;
#856 = LINE ( 'NONE', #1095, #108 ) ;
#857 = ORIENTED_EDGE ( 'NONE', *, *, #1207, .T. ) ;
#858 = ORIENTED_EDGE ( 'NONE', *, *, #557, .F. ) ;
#859 = AXIS2_PLACEMENT_3D ( 'NONE', #630, #214, #836 ) ;
#860 = VERTEX_POINT ( 'NONE', #497 ) ;
#861 = ORIENTED_EDGE ( 'NONE', *, *, #895, .F. ) ;
#862 = ADVANCED_FACE ( 'NONE', ( #631 ), #27, .F. ) ;
#863 = DIRECTION ( 'NONE',  ( 0.0000000000000000000, 1.000000000000000000, 0.0000000000000000000 ) ) ;
#864 = CARTESIAN_POINT ( 'NONE',  ( 2.999999999999999112, 0.0000000000000000000, -9.500000000000000000 ) ) ;
#865 = EDGE_CURVE ( 'NONE', #1108, #602, #766, .T. ) ;
#866 = CARTESIAN_POINT ( 'NONE',  ( 21.00000000000000000, 4.500000000000003553, -3.000000000000000000 ) ) ;
#867 = DIRECTION ( 'NONE',  ( -0.0000000000000000000, -0.0000000000000000000, -1.000000000000000000 ) ) ;
#868 = CARTESIAN_POINT ( 'NONE',  ( 26.00000000000000000, 3.000000000000000000, -10.00000000000000000 ) ) ;
#869 = CARTESIAN_POINT ( 'NONE',  ( 8.999999999999987566, 11.50000000000000355, 0.0000000000000000000 ) ) ;
#870 = CYLINDRICAL_SURFACE ( 'NONE', #55, 1.349999999999996980 ) ;
#871 = VECTOR ( 'NONE', #618, 1000.000000000000000 ) ;
#872 = ADVANCED_FACE ( 'NONE', ( #549 ), #595, .F. ) ;
#873 = VERTEX_POINT ( 'NONE', #591 ) ;
#874 = CIRCLE ( 'NONE', #1143, 1.499999999999999556 ) ;
#875 = EDGE_CURVE ( 'NONE', #166, #1079, #687, .T. ) ;
#876 = VERTEX_POINT ( 'NONE', #1278 ) ;
#877 = ORIENTED_EDGE ( 'NONE', *, *, #665, .F. ) ;
#878 = ORIENTED_EDGE ( 'NONE', *, *, #574, .F. ) ;
#879 = VERTEX_POINT ( 'NONE', #1272 ) ;
#880 = CARTESIAN_POINT ( 'NONE',  ( 2.999999999999999112, 0.0000000000000000000, -7.349999999999999645 ) ) ;
#881 =( NAMED_UNIT ( * ) SI_UNIT ( $, .STERADIAN. ) SOLID_ANGLE_UNIT ( ) );
#882 = AXIS2_PLACEMENT_3D ( 'NONE', #1136, #346, #559 ) ;
#883 = DIRECTION ( 'NONE',  ( 1.000000000000000000, -4.336808689942017736E-16, 0.0000000000000000000 ) ) ;
#884 = VECTOR ( 'NONE', #157, 1000.000000000000000 ) ;
#885 = DIRECTION ( 'NONE',  ( -0.0000000000000000000, 1.000000000000000000, -0.0000000000000000000 ) ) ;
#886 = FACE_OUTER_BOUND ( 'NONE', #50, .T. ) ;
#887 = VECTOR ( 'NONE', #1225, 1000.000000000000000 ) ;
#888 = EDGE_LOOP ( 'NONE', ( #337, #623, #1045, #277, #279, #654, #291, #508, #556, #1090, #1119, #696, #1187, #391 ) ) ;
#889 = ORIENTED_EDGE ( 'NONE', *, *, #565, .F. ) ;
#890 = EDGE_CURVE ( 'NONE', #1287, #879, #62, .T. ) ;
#891 = ORIENTED_EDGE ( 'NONE', *, *, #204, .F. ) ;
#892 = CARTESIAN_POINT ( 'NONE',  ( 21.00000000000000000, 4.500000000000003553, 0.0000000000000000000 ) ) ;
#893 = DIRECTION ( 'NONE',  ( -0.0000000000000000000, 1.000000000000000000, 0.0000000000000000000 ) ) ;
#894 = DIRECTION ( 'NONE',  ( 4.956352788505163268E-16, 1.000000000000000000, 0.0000000000000000000 ) ) ;
#895 = EDGE_CURVE ( 'NONE', #199, #943, #1042, .T. ) ;
#896 = ADVANCED_FACE ( 'NONE', ( #939 ), #1084, .T. ) ;
#897 = AXIS2_PLACEMENT_3D ( 'NONE', #1265, #1270, #967 ) ;
#898 = VECTOR ( 'NONE', #435, 1000.000000000000000 ) ;
#899 = CIRCLE ( 'NONE', #1083, 3.000000000000000888 ) ;
#900 = ORIENTED_EDGE ( 'NONE', *, *, #826, .F. ) ;
#901 = VECTOR ( 'NONE', #1206, 1000.000000000000000 ) ;
#902 = VERTEX_POINT ( 'NONE', #584 ) ;
#903 = ORIENTED_EDGE ( 'NONE', *, *, #730, .T. ) ;
#904 = DIRECTION ( 'NONE',  ( -0.0000000000000000000, 1.000000000000000000, 0.0000000000000000000 ) ) ;
#905 = ORIENTED_EDGE ( 'NONE', *, *, #91, .F. ) ;
#906 = VERTEX_POINT ( 'NONE', #492 ) ;
#907 = EDGE_CURVE ( 'NONE', #906, #197, #1308, .T. ) ;
#908 = CARTESIAN_POINT ( 'NONE',  ( 2.999999999999999112, 5.000000000000000000, -12.49999999999999822 ) ) ;
#909 = DIRECTION ( 'NONE',  ( 1.000000000000000000, 0.0000000000000000000, 0.0000000000000000000 ) ) ;
#910 = EDGE_CURVE ( 'NONE', #1050, #250, #286, .T. ) ;
#911 = DIRECTION ( 'NONE',  ( 0.0000000000000000000, 0.0000000000000000000, 1.000000000000000000 ) ) ;
#912 = CIRCLE ( 'NONE', #1175, 3.000000000000000888 ) ;
#913 = EDGE_LOOP ( 'NONE', ( #975, #604, #633, #737 ) ) ;
#914 = ORIENTED_EDGE ( 'NONE', *, *, #557, .T. ) ;
#915 = ORIENTED_EDGE ( 'NONE', *, *, #253, .T. ) ;
#916 = EDGE_LOOP ( 'NONE', ( #1150, #877, #889, #1204 ) ) ;
#917 = EDGE_CURVE ( 'NONE', #929, #1168, #1055, .T. ) ;
#918 = CARTESIAN_POINT ( 'NONE',  ( 4.999999999999990230, 11.50000000000000711, -3.000000000000000000 ) ) ;
#919 = AXIS2_PLACEMENT_3D ( 'NONE', #1128, #863, #231 ) ;
#920 = CARTESIAN_POINT ( 'NONE',  ( 21.00000000000000000, 4.500000000000003553, 0.0000000000000000000 ) ) ;
#921 = DIRECTION ( 'NONE',  ( 0.0000000000000000000, 1.000000000000000000, 0.0000000000000000000 ) ) ;
#922 = CARTESIAN_POINT ( 'NONE',  ( 23.00000000000000000, 0.0000000000000000000, -11.64999999999999680 ) ) ;
#923 = LINE ( 'NONE', #764, #399 ) ;
#924 = AXIS2_PLACEMENT_3D ( 'NONE', #4, #220, #1103 ) ;
#925 = LINE ( 'NONE', #547, #1113 ) ;
#926 = VECTOR ( 'NONE', #722, 1000.000000000000000 ) ;
#927 = ORIENTED_EDGE ( 'NONE', *, *, #1174, .T. ) ;
#928 = CARTESIAN_POINT ( 'NONE',  ( 23.00000000000000000, -7.000000000000000000, -11.64999999999999680 ) ) ;
#929 = VERTEX_POINT ( 'NONE', #997 ) ;
#930 = ORIENTED_EDGE ( 'NONE', *, *, #780, .F. ) ;
#931 = ORIENTED_EDGE ( 'NONE', *, *, #949, .F. ) ;
#932 = EDGE_CURVE ( 'NONE', #1138, #721, #1260, .T. ) ;
#933 = CARTESIAN_POINT ( 'NONE',  ( 3.849999999999998757, 8.000000000000000000, 0.0000000000000000000 ) ) ;
#934 = DIRECTION ( 'NONE',  ( 0.0000000000000000000, 0.0000000000000000000, 1.000000000000000000 ) ) ;
#935 = FACE_BOUND ( 'NONE', #114, .T. ) ;
#936 = CARTESIAN_POINT ( 'NONE',  ( 2.499999999999998668, 8.000000000000000000, 0.0000000000000000000 ) ) ;
#937 = DIRECTION ( 'NONE',  ( 0.0000000000000000000, 0.0000000000000000000, 1.000000000000000000 ) ) ;
#938 = DIRECTION ( 'NONE',  ( -0.0000000000000000000, 1.000000000000000000, 0.0000000000000000000 ) ) ;
#939 = FACE_OUTER_BOUND ( 'NONE', #708, .T. ) ;
#940 = AXIS2_PLACEMENT_3D ( 'NONE', #192, #1232, #339 ) ;
#941 = FACE_OUTER_BOUND ( 'NONE', #807, .T. ) ;
#942 = ORIENTED_EDGE ( 'NONE', *, *, #513, .F. ) ;
#943 = VERTEX_POINT ( 'NONE', #320 ) ;
#944 = DIRECTION ( 'NONE',  ( 0.0000000000000000000, 0.0000000000000000000, 1.000000000000000000 ) ) ;
#945 = DIRECTION ( 'NONE',  ( -0.0000000000000000000, 1.000000000000000000, -0.0000000000000000000 ) ) ;
#946 = ORIENTED_EDGE ( 'NONE', *, *, #253, .F. ) ;
#947 = CARTESIAN_POINT ( 'NONE',  ( 17.00000000000000000, 4.500000000000003553, 0.0000000000000000000 ) ) ;
#948 = DIRECTION ( 'NONE',  ( 0.0000000000000000000, 0.0000000000000000000, 1.000000000000000000 ) ) ;
#949 = EDGE_CURVE ( 'NONE', #250, #1050, #783, .T. ) ;
#950 = ADVANCED_FACE ( 'NONE', ( #44 ), #221, .F. ) ;
#951 = CARTESIAN_POINT ( 'NONE',  ( 4.999999999999990230, 11.50000000000000711, 0.0000000000000000000 ) ) ;
#952 = PLANE ( 'NONE',  #982 ) ;
#953 = CARTESIAN_POINT ( 'NONE',  ( 8.999999999999987566, 4.500000000000003553, 0.0000000000000000000 ) ) ;
#954 = LINE ( 'NONE', #47, #668 ) ;
#955 = EDGE_CURVE ( 'NONE', #1116, #755, #566, .T. ) ;
#956 = DIRECTION ( 'NONE',  ( 0.0000000000000000000, 1.000000000000000000, -0.0000000000000000000 ) ) ;
#957 = CIRCLE ( 'NONE', #1163, 3.000000000000000888 ) ;
#958 = CARTESIAN_POINT ( 'NONE',  ( 23.00000000000000000, 3.000000000000000000, -6.499999999999998224 ) ) ;
#959 = EDGE_LOOP ( 'NONE', ( #842, #130, #51, #1184 ) ) ;
#960 = VECTOR ( 'NONE', #376, 1000.000000000000000 ) ;
#961 = EDGE_LOOP ( 'NONE', ( #96, #338 ) ) ;
#962 = EDGE_LOOP ( 'NONE', ( #523, #1214, #275, #342, #17, #476 ) ) ;
#963 = ORIENTED_EDGE ( 'NONE', *, *, #995, .F. ) ;
#964 = PERSON_AND_ORGANIZATION_ROLE ( 'design_supplier' ) ;
#965 = CARTESIAN_POINT ( 'NONE',  ( 0.0000000000000000000, 0.0000000000000000000, -16.00000000000000000 ) ) ;
#966 = AXIS2_PLACEMENT_3D ( 'NONE', #1167, #383, #593 ) ;
#967 = DIRECTION ( 'NONE',  ( 0.0000000000000000000, 0.0000000000000000000, 1.000000000000000000 ) ) ;
#968 = ORGANIZATION ( 'UNSPECIFIED', 'UNSPECIFIED', '' ) ;
#969 = CARTESIAN_POINT ( 'NONE',  ( 0.0000000000000000000, 3.000000000000000000, 0.0000000000000000000 ) ) ;
#970 = LINE ( 'NONE', #969, #718 ) ;
#971 = EDGE_LOOP ( 'NONE', ( #244, #821, #946, #15 ) ) ;
#972 = AXIS2_PLACEMENT_3D ( 'NONE', #229, #427, #21 ) ;
#973 = CARTESIAN_POINT ( 'NONE',  ( 0.0000000000000000000, 0.0000000000000000000, 0.0000000000000000000 ) ) ;
#974 = ORIENTED_EDGE ( 'NONE', *, *, #895, .T. ) ;
#975 = ORIENTED_EDGE ( 'NONE', *, *, #36, .F. ) ;
#976 = DIRECTION ( 'NONE',  ( 0.0000000000000000000, 0.0000000000000000000, -1.000000000000000000 ) ) ;
#977 = VERTEX_POINT ( 'NONE', #1221 ) ;
#978 = ORIENTED_EDGE ( 'NONE', *, *, #546, .F. ) ;
#979 = DIRECTION ( 'NONE',  ( 0.0000000000000000000, -1.000000000000000000, 0.0000000000000000000 ) ) ;
#980 = CARTESIAN_POINT ( 'NONE',  ( 2.999999999999999112, -7.000000000000000000, -7.349999999999999645 ) ) ;
#981 = EDGE_CURVE ( 'NONE', #1219, #787, #535, .T. ) ;
#982 = AXIS2_PLACEMENT_3D ( 'NONE', #249, #956, #332 ) ;
#983 = CARTESIAN_POINT ( 'NONE',  ( 0.0000000000000000000, 3.000000000000000000, 0.0000000000000000000 ) ) ;
#984 = DIRECTION ( 'NONE',  ( 0.0000000000000000000, 0.0000000000000000000, -1.000000000000000000 ) ) ;
#985 = LINE ( 'NONE', #685, #827 ) ;
#986 = CARTESIAN_POINT ( 'NONE',  ( 6.000000000000000000, 3.000000000000000000, -10.00000000000000000 ) ) ;
#987 = CYLINDRICAL_SURFACE ( 'NONE', #790, 3.000000000000000888 ) ;
#988 = EDGE_LOOP ( 'NONE', ( #82, #878, #375, #819 ) ) ;
#989 = FACE_BOUND ( 'NONE', #961, .T. ) ;
#990 = ORIENTED_EDGE ( 'NONE', *, *, #796, .T. ) ;
#991 = EDGE_LOOP ( 'NONE', ( #1235, #325, #84, #736 ) ) ;
#992 = EDGE_CURVE ( 'NONE', #225, #228, #815, .T. ) ;
#993 = DIRECTION ( 'NONE',  ( 0.0000000000000000000, 0.0000000000000000000, 1.000000000000000000 ) ) ;
#994 = CARTESIAN_POINT ( 'NONE',  ( 2.999999999999999556, 3.000000000000000000, -6.500000000000000000 ) ) ;
#995 = EDGE_CURVE ( 'NONE', #1264, #860, #502, .T. ) ;
#996 = APPROVAL_DATE_TIME ( #1273, #1165 ) ;
#997 = CARTESIAN_POINT ( 'NONE',  ( 21.00000000000000000, 4.500000000000003553, 0.0000000000000000000 ) ) ;
#998 = CALENDAR_DATE ( 2019, 12, 12 ) ;
#999 = DIRECTION ( 'NONE',  ( -0.0000000000000000000, 1.000000000000000000, -0.0000000000000000000 ) ) ;
#1000 = FACE_OUTER_BOUND ( 'NONE', #959, .T. ) ;
#1001 = FACE_OUTER_BOUND ( 'NONE', #377, .T. ) ;
#1002 = DIRECTION ( 'NONE',  ( 0.0000000000000000000, 0.0000000000000000000, 1.000000000000000000 ) ) ;
#1003 = EDGE_LOOP ( 'NONE', ( #477, #709, #802, #768 ) ) ;
#1004 = VERTEX_POINT ( 'NONE', #723 ) ;
#1005 = ORIENTED_EDGE ( 'NONE', *, *, #407, .T. ) ;
#1006 = ADVANCED_FACE ( 'NONE', ( #256 ), #512, .F. ) ;
#1007 = EDGE_LOOP ( 'NONE', ( #1282, #521, #833, #65, #3 ) ) ;
#1008 = AXIS2_PLACEMENT_3D ( 'NONE', #849, #441, #1134 ) ;
#1009 = DIRECTION ( 'NONE',  ( 4.956352788505162282E-16, 1.000000000000000000, 0.0000000000000000000 ) ) ;
#1010 = DIRECTION ( 'NONE',  ( 0.0000000000000000000, 1.000000000000000000, 0.0000000000000000000 ) ) ;
#1011 = AXIS2_PLACEMENT_3D ( 'NONE', #920, #308, #625 ) ;
#1012 = LINE ( 'NONE', #682, #884 ) ;
#1013 = DIRECTION ( 'NONE',  ( -0.0000000000000000000, 1.000000000000000000, -0.0000000000000000000 ) ) ;
#1014 = LINE ( 'NONE', #1029, #898 ) ;
#1015 = LINE ( 'NONE', #72, #504 ) ;
#1016 = ORIENTED_EDGE ( 'NONE', *, *, #380, .T. ) ;
#1017 = ORIENTED_EDGE ( 'NONE', *, *, #1123, .T. ) ;
#1018 = ORIENTED_EDGE ( 'NONE', *, *, #992, .F. ) ;
#1019 = EDGE_CURVE ( 'NONE', #755, #418, #366, .T. ) ;
#1020 = CARTESIAN_POINT ( 'NONE',  ( 2.499999999999998668, 8.000000000000000000, 0.0000000000000000000 ) ) ;
#1021 = AXIS2_PLACEMENT_3D ( 'NONE', #484, #711, #804 ) ;
#1022 = CARTESIAN_POINT ( 'NONE',  ( 2.999999999999999112, 5.000000000000000000, -9.500000000000000000 ) ) ;
#1023 = DIRECTION ( 'NONE',  ( -0.0000000000000000000, 0.0000000000000000000, -1.000000000000000000 ) ) ;
#1024 = DIRECTION ( 'NONE',  ( 4.956352788505163268E-16, 1.000000000000000000, 0.0000000000000000000 ) ) ;
#1025 = AXIS2_PLACEMENT_3D ( 'NONE', #251, #348, #478 ) ;
#1026 = CYLINDRICAL_SURFACE ( 'NONE', #628, 2.999999999999999112 ) ;
#1027 = CARTESIAN_POINT ( 'NONE',  ( 0.0000000000000000000, 13.00000000000000178, -3.000000000000000000 ) ) ;
#1028 = CARTESIAN_POINT ( 'NONE',  ( 2.999999999999999112, 5.000000000000000000, -9.500000000000000000 ) ) ;
#1029 = CARTESIAN_POINT ( 'NONE',  ( 0.0000000000000000000, 0.0000000000000000000, 0.0000000000000000000 ) ) ;
#1030 = ORIENTED_EDGE ( 'NONE', *, *, #702, .T. ) ;
#1031 = ORIENTED_EDGE ( 'NONE', *, *, #1216, .F. ) ;
#1032 = EDGE_LOOP ( 'NONE', ( #1049, #942, #843, #808 ) ) ;
#1033 = CARTESIAN_POINT ( 'NONE',  ( 0.0000000000000000000, 3.500000000000000000, -3.500000000000000000 ) ) ;
#1034 = AXIS2_PLACEMENT_3D ( 'NONE', #649, #123, #944 ) ;
#1035 = DIRECTION ( 'NONE',  ( 1.000000000000000000, 0.0000000000000000000, 0.0000000000000000000 ) ) ;
#1036 = DIRECTION ( 'NONE',  ( -0.0000000000000000000, -0.0000000000000000000, -1.000000000000000000 ) ) ;
#1037 = CARTESIAN_POINT ( 'NONE',  ( 4.999999999999990230, 11.50000000000000711, 0.0000000000000000000 ) ) ;
#1038 = VECTOR ( 'NONE', #885, 1000.000000000000000 ) ;
#1039 = CARTESIAN_POINT ( 'NONE',  ( 21.00000000000000000, 11.50000000000000355, 0.0000000000000000000 ) ) ;
#1040 = EDGE_CURVE ( 'NONE', #553, #873, #852, .T. ) ;
#1041 = CARTESIAN_POINT ( 'NONE',  ( 26.00000000000000000, 13.00000000000000178, 0.0000000000000000000 ) ) ;
#1042 = CIRCLE ( 'NONE', #1223, 1.499999999999999556 ) ;
#1043 = AXIS2_PLACEMENT_3D ( 'NONE', #217, #115, #839 ) ;
#1044 = VECTOR ( 'NONE', #727, 1000.000000000000000 ) ;
#1045 = ORIENTED_EDGE ( 'NONE', *, *, #450, .F. ) ;
#1046 = ORIENTED_EDGE ( 'NONE', *, *, #362, .T. ) ;
#1047 = CARTESIAN_POINT ( 'NONE',  ( 2.999999999999999112, 3.000000000000000000, -9.500000000000000000 ) ) ;
#1048 = ORIENTED_EDGE ( 'NONE', *, *, #600, .T. ) ;
#1049 = ORIENTED_EDGE ( 'NONE', *, *, #69, .F. ) ;
#1050 = VERTEX_POINT ( 'NONE', #290 ) ;
#1051 = ORIENTED_EDGE ( 'NONE', *, *, #697, .T. ) ;
#1052 = CARTESIAN_POINT ( 'NONE',  ( 23.00000000000000000, -7.000000000000000000, -7.350000000000001421 ) ) ;
#1053 = EDGE_CURVE ( 'NONE', #387, #553, #579, .T. ) ;
#1054 = CARTESIAN_POINT ( 'NONE',  ( 0.0000000000000000000, 3.500000000000000000, -3.500000000000000000 ) ) ;
#1055 = LINE ( 'NONE', #481, #8 ) ;
#1056 = EDGE_CURVE ( 'NONE', #95, #1122, #728, .T. ) ;
#1057 = DIRECTION ( 'NONE',  ( -1.000000000000000000, 0.0000000000000000000, 0.0000000000000000000 ) ) ;
#1058 = DIRECTION ( 'NONE',  ( -1.000000000000000000, 0.0000000000000000000, 0.0000000000000000000 ) ) ;
#1059 = ADVANCED_FACE ( 'NONE', ( #191, #1275, #60, #24, #935, #269 ), #1298, .F. ) ;
#1060 = VECTOR ( 'NONE', #1267, 1000.000000000000000 ) ;
#1061 = ORIENTED_EDGE ( 'NONE', *, *, #724, .T. ) ;
#1062 = EDGE_LOOP ( 'NONE', ( #861, #30, #1200, #182 ) ) ;
#1063 = CARTESIAN_POINT ( 'NONE',  ( 1.149999999999998579, 8.000000000000000000, 0.0000000000000000000 ) ) ;
#1064 = CARTESIAN_POINT ( 'NONE',  ( 17.00000000000000000, 4.500000000000003553, 0.0000000000000000000 ) ) ;
#1065 = CARTESIAN_POINT ( 'NONE',  ( 0.0000000000000000000, 3.000000000000000000, 0.0000000000000000000 ) ) ;
#1066 = DIRECTION ( 'NONE',  ( -4.336808689942017736E-16, -1.000000000000000000, 0.0000000000000000000 ) ) ;
#1067 = PERSON_AND_ORGANIZATION_ROLE ( 'creator' ) ;
#1068 = LINE ( 'NONE', #153, #516 ) ;
#1069 = DIRECTION ( 'NONE',  ( 0.0000000000000000000, 0.0000000000000000000, -1.000000000000000000 ) ) ;
#1070 = LINE ( 'NONE', #892, #1197 ) ;
#1071 = DIRECTION ( 'NONE',  ( 1.000000000000000000, 0.0000000000000000000, 0.0000000000000000000 ) ) ;
#1072 = FACE_OUTER_BOUND ( 'NONE', #988, .T. ) ;
#1073 = VERTEX_POINT ( 'NONE', #295 ) ;
#1074 = VERTEX_POINT ( 'NONE', #847 ) ;
#1075 = CARTESIAN_POINT ( 'NONE',  ( 13.00000000000000000, 0.0000000000000000000, -9.500000000000000000 ) ) ;
#1076 = ORIENTED_EDGE ( 'NONE', *, *, #724, .F. ) ;
#1077 = ORIENTED_EDGE ( 'NONE', *, *, #638, .T. ) ;
#1078 = DIRECTION ( 'NONE',  ( -0.0000000000000000000, 1.000000000000000000, -0.0000000000000000000 ) ) ;
#1079 = VERTEX_POINT ( 'NONE', #444 ) ;
#1080 = ADVANCED_FACE ( 'NONE', ( #1259 ), #683, .F. ) ;
#1081 = DIRECTION ( 'NONE',  ( 0.0000000000000000000, 0.0000000000000000000, 1.000000000000000000 ) ) ;
#1082 = EDGE_CURVE ( 'NONE', #1138, #250, #745, .T. ) ;
#1083 = AXIS2_PLACEMENT_3D ( 'NONE', #1107, #314, #531 ) ;
#1084 = CYLINDRICAL_SURFACE ( 'NONE', #1314, 6.000000000000000000 ) ;
#1085 = CIRCLE ( 'NONE', #1242, 6.000000000000000000 ) ;
#1086 = ORIENTED_EDGE ( 'NONE', *, *, #450, .T. ) ;
#1087 = DIRECTION ( 'NONE',  ( 1.000000000000000000, 0.0000000000000000000, 0.0000000000000000000 ) ) ;
#1088 = VECTOR ( 'NONE', #1213, 1000.000000000000000 ) ;
#1089 = ORIENTED_EDGE ( 'NONE', *, *, #40, .F. ) ;
#1090 = ORIENTED_EDGE ( 'NONE', *, *, #222, .F. ) ;
#1091 = ORIENTED_EDGE ( 'NONE', *, *, #13, .F. ) ;
#1092 = DIRECTION ( 'NONE',  ( 1.000000000000000000, -0.0000000000000000000, -0.0000000000000000000 ) ) ;
#1093 = ORIENTED_EDGE ( 'NONE', *, *, #461, .F. ) ;
#1094 = DIRECTION ( 'NONE',  ( -1.000000000000000000, 0.0000000000000000000, 0.0000000000000000000 ) ) ;
#1095 = CARTESIAN_POINT ( 'NONE',  ( 21.00000000000000000, 4.500000000000003553, -3.000000000000000000 ) ) ;
#1096 = AXIS2_PLACEMENT_3D ( 'NONE', #1281, #1066, #883 ) ;
#1097 = CALENDAR_DATE ( 2019, 12, 12 ) ;
#1098 = SECURITY_CLASSIFICATION ( '', '', #564 ) ;
#1099 = CIRCLE ( 'NONE', #1008, 3.000000000000000888 ) ;
#1100 = CARTESIAN_POINT ( 'NONE',  ( 26.00000000000000000, 0.0000000000000000000, 0.0000000000000000000 ) ) ;
#1101 = FACE_BOUND ( 'NONE', #1285, .T. ) ;
#1102 = LINE ( 'NONE', #498, #926 ) ;
#1103 = DIRECTION ( 'NONE',  ( 0.0000000000000000000, 0.0000000000000000000, -1.000000000000000000 ) ) ;
#1104 = ORIENTED_EDGE ( 'NONE', *, *, #600, .F. ) ;
#1105 = ORIENTED_EDGE ( 'NONE', *, *, #1056, .F. ) ;
#1106 = EDGE_CURVE ( 'NONE', #278, #755, #923, .T. ) ;
#1107 = CARTESIAN_POINT ( 'NONE',  ( 13.00000000000000355, 8.000000000000000000, 0.0000000000000000000 ) ) ;
#1108 = VERTEX_POINT ( 'NONE', #1142 ) ;
#1109 = AXIS2_PLACEMENT_3D ( 'NONE', #1028, #642, #611 ) ;
#1110 = CARTESIAN_POINT ( 'NONE',  ( 17.00000000000000000, 4.500000000000003553, 0.0000000000000000000 ) ) ;
#1111 = CARTESIAN_POINT ( 'NONE',  ( 23.00000000000000000, 5.000000000000000000, -11.64999999999999680 ) ) ;
#1112 = CARTESIAN_POINT ( 'NONE',  ( 26.00000000000000000, 3.000000000000000000, 0.0000000000000000000 ) ) ;
#1113 = VECTOR ( 'NONE', #242, 1000.000000000000000 ) ;
#1114 = PLANE ( 'NONE',  #442 ) ;
#1115 = FACE_OUTER_BOUND ( 'NONE', #888, .T. ) ;
#1116 = VERTEX_POINT ( 'NONE', #26 ) ;
#1117 = FACE_BOUND ( 'NONE', #769, .T. ) ;
#1118 = EDGE_LOOP ( 'NONE', ( #1229, #931 ) ) ;
#1119 = ORIENTED_EDGE ( 'NONE', *, *, #657, .T. ) ;
#1120 = DIRECTION ( 'NONE',  ( 0.0000000000000000000, 1.000000000000000000, 0.0000000000000000000 ) ) ;
#1121 = DIRECTION ( 'NONE',  ( -0.0000000000000000000, -0.0000000000000000000, -1.000000000000000000 ) ) ;
#1122 = VERTEX_POINT ( 'NONE', #759 ) ;
#1123 = EDGE_CURVE ( 'NONE', #436, #48, #762, .T. ) ;
#1124 = PRODUCT_DEFINITION ( 'UNKNOWN', '', #1236, #532 ) ;
#1125 = DIRECTION ( 'NONE',  ( 0.0000000000000000000, 0.0000000000000000000, 1.000000000000000000 ) ) ;
#1126 = CARTESIAN_POINT ( 'NONE',  ( 0.0000000000000000000, 3.500000000000000000, -3.000000000000000000 ) ) ;
#1127 = DIRECTION ( 'NONE',  ( -1.000000000000000000, 0.0000000000000000000, 0.0000000000000000000 ) ) ;
#1128 = CARTESIAN_POINT ( 'NONE',  ( 23.00000000000000000, 5.000000000000000000, -9.500000000000000000 ) ) ;
#1129 = PERSON_AND_ORGANIZATION ( #467, #968 ) ;
#1130 = CARTESIAN_POINT ( 'NONE',  ( 26.00000000000000000, 3.000000000000000000, -10.00000000000000000 ) ) ;
#1131 = LINE ( 'NONE', #457, #1038 ) ;
#1132 = AXIS2_PLACEMENT_3D ( 'NONE', #846, #921, #517 ) ;
#1133 = CIRCLE ( 'NONE', #897, 2.149999999999998135 ) ;
#1134 = DIRECTION ( 'NONE',  ( 0.0000000000000000000, 0.0000000000000000000, 1.000000000000000000 ) ) ;
#1135 = FACE_OUTER_BOUND ( 'NONE', #109, .T. ) ;
#1136 = CARTESIAN_POINT ( 'NONE',  ( 2.999999999999999112, 3.000000000000000000, -9.500000000000000000 ) ) ;
#1137 = ORIENTED_EDGE ( 'NONE', *, *, #1257, .T. ) ;
#1138 = VERTEX_POINT ( 'NONE', #132 ) ;
#1139 = VERTEX_POINT ( 'NONE', #545 ) ;
#1140 = EDGE_CURVE ( 'NONE', #16, #876, #667, .T. ) ;
#1141 = VERTEX_POINT ( 'NONE', #240 ) ;
#1142 = CARTESIAN_POINT ( 'NONE',  ( 0.0000000000000000000, 13.00000000000000178, 0.0000000000000000000 ) ) ;
#1143 = AXIS2_PLACEMENT_3D ( 'NONE', #662, #763, #948 ) ;
#1144 = DIRECTION ( 'NONE',  ( 0.0000000000000000000, 0.0000000000000000000, -1.000000000000000000 ) ) ;
#1145 = EDGE_CURVE ( 'NONE', #655, #323, #715, .T. ) ;
#1146 = CARTESIAN_POINT ( 'NONE',  ( 2.999999999999999112, 5.000000000000000000, -9.500000000000000000 ) ) ;
#1147 = CARTESIAN_POINT ( 'NONE',  ( 23.00000000000000000, 5.000000000000000000, -9.500000000000000000 ) ) ;
#1148 = VECTOR ( 'NONE', #71, 1000.000000000000000 ) ;
#1149 = FACE_OUTER_BOUND ( 'NONE', #147, .T. ) ;
#1150 = ORIENTED_EDGE ( 'NONE', *, *, #890, .F. ) ;
#1151 = LINE ( 'NONE', #1039, #370 ) ;
#1152 = CARTESIAN_POINT ( 'NONE',  ( 23.00000000000000000, 5.000000000000000000, -9.500000000000000000 ) ) ;
#1153 = VERTEX_POINT ( 'NONE', #561 ) ;
#1154 = ORIENTED_EDGE ( 'NONE', *, *, #932, .F. ) ;
#1155 = ORIENTED_EDGE ( 'NONE', *, *, #204, .T. ) ;
#1156 = ORIENTED_EDGE ( 'NONE', *, *, #230, .F. ) ;
#1157 = DATE_TIME_ROLE ( 'classification_date' ) ;
#1158 = AXIS2_PLACEMENT_3D ( 'NONE', #297, #425, #937 ) ;
#1159 = APPROVAL_ROLE ( '' ) ;
#1160 = ADVANCED_FACE ( 'NONE', ( #447 ), #952, .F. ) ;
#1161 = DIRECTION ( 'NONE',  ( -0.0000000000000000000, -1.000000000000000000, -0.0000000000000000000 ) ) ;
#1162 = LINE ( 'NONE', #169, #1241 ) ;
#1163 = AXIS2_PLACEMENT_3D ( 'NONE', #1302, #1190, #1094 ) ;
#1164 = CYLINDRICAL_SURFACE ( 'NONE', #148, 6.000000000000000000 ) ;
#1165 = APPROVAL ( #679, 'UNSPECIFIED' ) ;
#1166 = ORIENTED_EDGE ( 'NONE', *, *, #580, .F. ) ;
#1167 = CARTESIAN_POINT ( 'NONE',  ( 2.999999999999999112, 5.000000000000000000, -9.500000000000000000 ) ) ;
#1168 = VERTEX_POINT ( 'NONE', #866 ) ;
#1169 = ORIENTED_EDGE ( 'NONE', *, *, #91, .T. ) ;
#1170 = APPROVAL_STATUS ( 'not_yet_approved' ) ;
#1171 = VERTEX_POINT ( 'NONE', #772 ) ;
#1172 = PLANE ( 'NONE',  #684 ) ;
#1173 = DIRECTION ( 'NONE',  ( 0.0000000000000000000, 1.000000000000000000, 0.0000000000000000000 ) ) ;
#1174 = EDGE_CURVE ( 'NONE', #436, #1122, #1307, .T. ) ;
#1175 = AXIS2_PLACEMENT_3D ( 'NONE', #1147, #465, #575 ) ;
#1176 = DIRECTION ( 'NONE',  ( -1.000000000000000000, 0.0000000000000000000, -0.0000000000000000000 ) ) ;
#1177 = APPROVAL_PERSON_ORGANIZATION ( #410, #336, #1258 ) ;
#1178 = DIRECTION ( 'NONE',  ( 0.0000000000000000000, 0.0000000000000000000, 1.000000000000000000 ) ) ;
#1179 = LINE ( 'NONE', #785, #853 ) ;
#1180 = VECTOR ( 'NONE', #599, 1000.000000000000000 ) ;
#1181 = ORIENTED_EDGE ( 'NONE', *, *, #294, .T. ) ;
#1182 = VECTOR ( 'NONE', #984, 1000.000000000000000 ) ;
#1183 = CARTESIAN_POINT ( 'NONE',  ( 13.00000000000000355, 8.000000000000000000, -3.000000000000000000 ) ) ;
#1184 = ORIENTED_EDGE ( 'NONE', *, *, #981, .T. ) ;
#1185 = ORIENTED_EDGE ( 'NONE', *, *, #646, .F. ) ;
#1186 = ORIENTED_EDGE ( 'NONE', *, *, #390, .F. ) ;
#1187 = ORIENTED_EDGE ( 'NONE', *, *, #407, .F. ) ;
#1188 = DIRECTION ( 'NONE',  ( -0.0000000000000000000, -0.0000000000000000000, -1.000000000000000000 ) ) ;
#1189 = ADVANCED_FACE ( 'NONE', ( #615 ), #236, .T. ) ;
#1190 = DIRECTION ( 'NONE',  ( 0.0000000000000000000, 0.0000000000000000000, -1.000000000000000000 ) ) ;
#1191 = EDGE_CURVE ( 'NONE', #1073, #422, #301, .T. ) ;
#1192 = CC_DESIGN_PERSON_AND_ORGANIZATION_ASSIGNMENT ( #23, #464, ( #1098 ) ) ;
#1193 = PLANE ( 'NONE',  #859 ) ;
#1194 = CALENDAR_DATE ( 2019, 12, 12 ) ;
#1195 = PERSON_AND_ORGANIZATION ( #467, #968 ) ;
#1196 = CARTESIAN_POINT ( 'NONE',  ( 23.50000000000000000, 8.000000000000000000, 0.0000000000000000000 ) ) ;
#1197 = VECTOR ( 'NONE', #1292, 1000.000000000000000 ) ;
#1198 = CARTESIAN_POINT ( 'NONE',  ( 23.00000000000000000, 5.000000000000000000, -6.499999999999999112 ) ) ;
#1199 = LINE ( 'NONE', #515, #901 ) ;
#1200 = ORIENTED_EDGE ( 'NONE', *, *, #136, .T. ) ;
#1201 = ORIENTED_EDGE ( 'NONE', *, *, #771, .F. ) ;
#1202 = AXIS2_PLACEMENT_3D ( 'NONE', #1183, #1069, #186 ) ;
#1203 = ORIENTED_EDGE ( 'NONE', *, *, #809, .T. ) ;
#1204 = ORIENTED_EDGE ( 'NONE', *, *, #369, .F. ) ;
#1205 = CARTESIAN_POINT ( 'NONE',  ( 5.999999999999998224, 0.0000000000000000000, -16.00000000000000000 ) ) ;
#1206 = DIRECTION ( 'NONE',  ( 1.000000000000000000, -0.0000000000000000000, -0.0000000000000000000 ) ) ;
#1207 = EDGE_CURVE ( 'NONE', #787, #437, #1099, .T. ) ;
#1208 = DIRECTION ( 'NONE',  ( -0.0000000000000000000, 1.000000000000000000, 0.0000000000000000000 ) ) ;
#1209 = AXIS2_PLACEMENT_3D ( 'NONE', #738, #443, #32 ) ;
#1210 = DIRECTION ( 'NONE',  ( 1.000000000000000000, 0.0000000000000000000, 0.0000000000000000000 ) ) ;
#1211 = VECTOR ( 'NONE', #794, 1000.000000000000000 ) ;
#1212 = CIRCLE ( 'NONE', #374, 1.350000000000000089 ) ;
#1213 = DIRECTION ( 'NONE',  ( -0.0000000000000000000, -1.000000000000000000, -0.0000000000000000000 ) ) ;
#1214 = ORIENTED_EDGE ( 'NONE', *, *, #565, .T. ) ;
#1215 = LINE ( 'NONE', #540, #887 ) ;
#1216 = EDGE_CURVE ( 'NONE', #873, #212, #174, .T. ) ;
#1217 = PLANE ( 'NONE',  #1132 ) ;
#1218 = EDGE_LOOP ( 'NONE', ( #510, #692, #305, #1283 ) ) ;
#1219 = VERTEX_POINT ( 'NONE', #41 ) ;
#1220 = AXIS2_PLACEMENT_3D ( 'NONE', #66, #73, #500 ) ;
#1221 = CARTESIAN_POINT ( 'NONE',  ( 26.00000000000000000, 0.0000000000000000000, 0.0000000000000000000 ) ) ;
#1222 = DIRECTION ( 'NONE',  ( 0.0000000000000000000, -0.0000000000000000000, 1.000000000000000000 ) ) ;
#1223 = AXIS2_PLACEMENT_3D ( 'NONE', #1075, #1286, #280 ) ;
#1224 = DATE_AND_TIME ( #998, #219 ) ;
#1225 = DIRECTION ( 'NONE',  ( 0.0000000000000000000, 1.000000000000000000, 0.0000000000000000000 ) ) ;
#1226 = DIRECTION ( 'NONE',  ( 0.0000000000000000000, 1.000000000000000000, 0.0000000000000000000 ) ) ;
#1227 = VECTOR ( 'NONE', #149, 1000.000000000000000 ) ;
#1228 = FACE_BOUND ( 'NONE', #493, .T. ) ;
#1229 = ORIENTED_EDGE ( 'NONE', *, *, #910, .F. ) ;
#1230 = ORIENTED_EDGE ( 'NONE', *, *, #1289, .T. ) ;
#1231 = DIRECTION ( 'NONE',  ( 0.0000000000000000000, 1.000000000000000000, 0.0000000000000000000 ) ) ;
#1232 = DIRECTION ( 'NONE',  ( 0.0000000000000000000, 0.0000000000000000000, 1.000000000000000000 ) ) ;
#1233 = ORIENTED_EDGE ( 'NONE', *, *, #167, .T. ) ;
#1234 = DIRECTION ( 'NONE',  ( 0.0000000000000000000, 0.0000000000000000000, -1.000000000000000000 ) ) ;
#1235 = ORIENTED_EDGE ( 'NONE', *, *, #409, .T. ) ;
#1236 = PRODUCT_DEFINITION_FORMATION_WITH_SPECIFIED_SOURCE ( 'ANY', '', #237, .NOT_KNOWN. ) ;
#1237 = DIRECTION ( 'NONE',  ( -0.0000000000000000000, 1.000000000000000000, -0.0000000000000000000 ) ) ;
#1238 = DIRECTION ( 'NONE',  ( 0.0000000000000000000, 0.0000000000000000000, 1.000000000000000000 ) ) ;
#1239 = EDGE_CURVE ( 'NONE', #943, #1264, #1131, .T. ) ;
#1240 = DIRECTION ( 'NONE',  ( -0.0000000000000000000, 1.000000000000000000, -0.0000000000000000000 ) ) ;
#1241 = VECTOR ( 'NONE', #979, 1000.000000000000000 ) ;
#1242 = AXIS2_PLACEMENT_3D ( 'NONE', #731, #635, #414 ) ;
#1243 = FACE_OUTER_BOUND ( 'NONE', #1032, .T. ) ;
#1244 = CARTESIAN_POINT ( 'NONE',  ( 26.00000000000000000, 3.000000000000000000, -3.500000000000000000 ) ) ;
#1245 = DIRECTION ( 'NONE',  ( -0.0000000000000000000, 1.000000000000000000, -0.0000000000000000000 ) ) ;
#1246 = CYLINDRICAL_SURFACE ( 'NONE', #233, 2.149999999999999911 ) ;
#1247 = CARTESIAN_POINT ( 'NONE',  ( 0.0000000000000000000, 0.0000000000000000000, -10.00000000000000000 ) ) ;
#1248 = ORIENTED_EDGE ( 'NONE', *, *, #675, .F. ) ;
#1249 = VECTOR ( 'NONE', #656, 1000.000000000000000 ) ;
#1250 = ORIENTED_EDGE ( 'NONE', *, *, #40, .T. ) ;
#1251 = ORIENTED_EDGE ( 'NONE', *, *, #932, .T. ) ;
#1252 = CARTESIAN_POINT ( 'NONE',  ( 2.499999999999998668, 8.000000000000000000, 0.0000000000000000000 ) ) ;
#1253 = EDGE_CURVE ( 'NONE', #418, #1168, #1012, .T. ) ;
#1254 = CARTESIAN_POINT ( 'NONE',  ( 13.00000000000000355, 8.000000000000000000, 0.0000000000000000000 ) ) ;
#1255 = DIRECTION ( 'NONE',  ( 0.0000000000000000000, 0.0000000000000000000, -1.000000000000000000 ) ) ;
#1256 = LOCAL_TIME ( 16, 56, 38.00000000000000000, #7 ) ;
#1257 = EDGE_CURVE ( 'NONE', #806, #752, #1068, .T. ) ;
#1258 = APPROVAL_ROLE ( '' ) ;
#1259 = FACE_OUTER_BOUND ( 'NONE', #179, .T. ) ;
#1260 = CIRCLE ( 'NONE', #411, 2.149999999999999911 ) ;
#1261 = VECTOR ( 'NONE', #894, 1000.000000000000000 ) ;
#1262 = CIRCLE ( 'NONE', #203, 3.000000000000000888 ) ;
#1263 = ORIENTED_EDGE ( 'NONE', *, *, #513, .T. ) ;
#1264 = VERTEX_POINT ( 'NONE', #581 ) ;
#1265 = CARTESIAN_POINT ( 'NONE',  ( 23.00000000000000000, 0.0000000000000000000, -9.500000000000000000 ) ) ;
#1266 = ORIENTED_EDGE ( 'NONE', *, *, #1056, .T. ) ;
#1267 = DIRECTION ( 'NONE',  ( -1.000000000000000000, 4.336808689942017736E-16, -0.0000000000000000000 ) ) ;
#1268 = ORIENTED_EDGE ( 'NONE', *, *, #298, .F. ) ;
#1269 = AXIS2_PLACEMENT_3D ( 'NONE', #188, #616, #428 ) ;
#1270 = DIRECTION ( 'NONE',  ( -0.0000000000000000000, 1.000000000000000000, 0.0000000000000000000 ) ) ;
#1271 = CARTESIAN_POINT ( 'NONE',  ( 26.00000000000000000, 13.00000000000000178, -3.000000000000000000 ) ) ;
#1272 = CARTESIAN_POINT ( 'NONE',  ( 19.99999999999998934, 3.000000000000000000, -16.00000000000000000 ) ) ;
#1273 = DATE_AND_TIME ( #1097, #1256 ) ;
#1274 = CARTESIAN_POINT ( 'NONE',  ( 0.0000000000000000000, 13.00000000000000178, -3.000000000000000000 ) ) ;
#1275 = FACE_BOUND ( 'NONE', #1284, .T. ) ;
#1276 = AXIS2_PLACEMENT_3D ( 'NONE', #433, #135, #1127 ) ;
#1277 = VECTOR ( 'NONE', #1188, 1000.000000000000000 ) ;
#1278 = CARTESIAN_POINT ( 'NONE',  ( 23.00000000000000000, 5.000000000000000000, -6.499999999999998224 ) ) ;
#1279 = FACE_BOUND ( 'NONE', #393, .T. ) ;
#1280 = VERTEX_POINT ( 'NONE', #1271 ) ;
#1281 = CARTESIAN_POINT ( 'NONE',  ( 4.999999999999986677, 4.500000000000005329, 0.0000000000000000000 ) ) ;
#1282 = ORIENTED_EDGE ( 'NONE', *, *, #107, .F. ) ;
#1283 = ORIENTED_EDGE ( 'NONE', *, *, #499, .T. ) ;
#1284 = EDGE_LOOP ( 'NONE', ( #1156, #636 ) ) ;
#1285 = EDGE_LOOP ( 'NONE', ( #1017, #1051 ) ) ;
#1286 = DIRECTION ( 'NONE',  ( -0.0000000000000000000, 1.000000000000000000, 0.0000000000000000000 ) ) ;
#1287 = VERTEX_POINT ( 'NONE', #868 ) ;
#1288 = DIRECTION ( 'NONE',  ( -0.0000000000000000000, -0.0000000000000000000, -1.000000000000000000 ) ) ;
#1289 = EDGE_CURVE ( 'NONE', #197, #608, #1162, .T. ) ;
#1290 = AXIS2_PLACEMENT_3D ( 'NONE', #426, #1208, #1310 ) ;
#1291 = CARTESIAN_POINT ( 'NONE',  ( 0.0000000000000000000, 13.00000000000000178, 0.0000000000000000000 ) ) ;
#1292 = DIRECTION ( 'NONE',  ( -0.0000000000000000000, -1.000000000000000000, -0.0000000000000000000 ) ) ;
#1293 = VECTOR ( 'NONE', #650, 1000.000000000000000 ) ;
#1294 = VECTOR ( 'NONE', #1024, 1000.000000000000000 ) ;
#1295 = CARTESIAN_POINT ( 'NONE',  ( 4.999999999999990230, 11.50000000000000711, -3.000000000000000000 ) ) ;
#1296 = LINE ( 'NONE', #138, #784 ) ;
#1297 = FACE_OUTER_BOUND ( 'NONE', #916, .T. ) ;
#1298 = PLANE ( 'NONE',  #940 ) ;
#1299 = ORIENTED_EDGE ( 'NONE', *, *, #353, .T. ) ;
#1300 = ORIENTED_EDGE ( 'NONE', *, *, #638, .F. ) ;
#1301 = DIRECTION ( 'NONE',  ( 0.0000000000000000000, 1.000000000000000000, 0.0000000000000000000 ) ) ;
#1302 = CARTESIAN_POINT ( 'NONE',  ( 13.00000000000000355, 8.000000000000000000, 0.0000000000000000000 ) ) ;
#1303 = EDGE_CURVE ( 'NONE', #64, #608, #548, .T. ) ;
#1304 = APPROVAL ( #1170, 'UNSPECIFIED' ) ;
#1305 = DIRECTION ( 'NONE',  ( 0.0000000000000000000, 1.000000000000000000, 0.0000000000000000000 ) ) ;
#1306 = LOCAL_TIME ( 16, 56, 38.00000000000000000, #466 ) ;
#1307 = LINE ( 'NONE', #1052, #483 ) ;
#1308 = CIRCLE ( 'NONE', #1220, 6.000000000000000000 ) ;
#1309 = EDGE_CURVE ( 'NONE', #1122, #95, #384, .T. ) ;
#1310 = DIRECTION ( 'NONE',  ( 0.0000000000000000000, 0.0000000000000000000, 1.000000000000000000 ) ) ;
#1311 = LINE ( 'NONE', #421, #816 ) ;
#1312 = ORIENTED_EDGE ( 'NONE', *, *, #369, .T. ) ;
#1313 = ORIENTED_EDGE ( 'NONE', *, *, #594, .F. ) ;
#1314 = AXIS2_PLACEMENT_3D ( 'NONE', #986, #381, #394 ) ;
ENDSEC;
END-ISO-10303-21;
