ISO-10303-21;
HEADER;
FILE_DESCRIPTION (( 'STEP AP203' ),
    '1' );
FILE_NAME ('sensor holder cover.STEP',
    '2019-12-12T16:57:59',
    ( '' ),
    ( '' ),
    'SwSTEP 2.0',
    'SolidWorks 2018',
    '' );
FILE_SCHEMA (( 'CONFIG_CONTROL_DESIGN' ));
ENDSEC;

DATA;
#1 = VERTEX_POINT ( 'NONE', #1083 ) ;
#2 = ORIENTED_EDGE ( 'NONE', *, *, #188, .F. ) ;
#3 = CARTESIAN_POINT ( 'NONE',  ( 3.500000000000000000, 4.000000000000000000, -8.199999999999999289 ) ) ;
#4 = ORIENTED_EDGE ( 'NONE', *, *, #352, .T. ) ;
#5 = ORIENTED_EDGE ( 'NONE', *, *, #297, .F. ) ;
#6 = DIRECTION ( 'NONE',  ( 1.000000000000000000, 0.0000000000000000000, 0.0000000000000000000 ) ) ;
#7 = DIRECTION ( 'NONE',  ( 0.0000000000000000000, -1.000000000000000000, 0.0000000000000000000 ) ) ;
#8 = CYLINDRICAL_SURFACE ( 'NONE', #886, 0.5000000000000004441 ) ;
#9 = EDGE_CURVE ( 'NONE', #832, #878, #96, .T. ) ;
#10 = LINE ( 'NONE', #1142, #694 ) ;
#11 = CYLINDRICAL_SURFACE ( 'NONE', #286, 2.000000000000000000 ) ;
#12 = CARTESIAN_POINT ( 'NONE',  ( 3.500000000000000000, 4.000000000000000000, -13.39999999999999858 ) ) ;
#13 = ORIENTED_EDGE ( 'NONE', *, *, #897, .T. ) ;
#14 = EDGE_LOOP ( 'NONE', ( #496, #85, #940, #957 ) ) ;
#15 = CARTESIAN_POINT ( 'NONE',  ( 5.482842712474618629, -1.570467161353995953E-16, -5.482842712474618629 ) ) ;
#16 = DIRECTION ( 'NONE',  ( -0.0000000000000000000, 1.000000000000000000, -0.0000000000000000000 ) ) ;
#17 = ORIENTED_EDGE ( 'NONE', *, *, #776, .T. ) ;
#18 = AXIS2_PLACEMENT_3D ( 'NONE', #800, #271, #449 ) ;
#19 = CARTESIAN_POINT ( 'NONE',  ( 0.5000000000000000000, 4.000000000000000000, -5.000000000000000000 ) ) ;
#20 = ADVANCED_FACE ( 'NONE', ( #629 ), #196, .F. ) ;
#21 = DATE_AND_TIME ( #287, #387 ) ;
#22 = DIRECTION ( 'NONE',  ( 0.0000000000000000000, 0.0000000000000000000, 1.000000000000000000 ) ) ;
#23 = CARTESIAN_POINT ( 'NONE',  ( 1.599999999999999423, -2.000000000000000000, -5.399999999999999467 ) ) ;
#24 = EDGE_CURVE ( 'NONE', #915, #116, #435, .T. ) ;
#25 = VECTOR ( 'NONE', #427, 1000.000000000000000 ) ;
#26 = DIRECTION ( 'NONE',  ( 0.0000000000000000000, 0.0000000000000000000, -1.000000000000000000 ) ) ;
#27 = LINE ( 'NONE', #999, #1053 ) ;
#28 = DIRECTION ( 'NONE',  ( 0.0000000000000000000, 0.0000000000000000000, -1.000000000000000000 ) ) ;
#29 = ORIENTED_EDGE ( 'NONE', *, *, #396, .T. ) ;
#30 = VERTEX_POINT ( 'NONE', #19 ) ;
#31 = CARTESIAN_POINT ( 'NONE',  ( 4.000000000000000000, 3.500000000000000000, -15.89999999999999680 ) ) ;
#32 = VERTEX_POINT ( 'NONE', #191 ) ;
#33 = DIRECTION ( 'NONE',  ( 0.0000000000000000000, 0.0000000000000000000, 1.000000000000000000 ) ) ;
#34 = DIRECTION ( 'NONE',  ( -0.0000000000000000000, -1.000000000000000000, -0.0000000000000000000 ) ) ;
#35 = EDGE_CURVE ( 'NONE', #643, #1016, #27, .T. ) ;
#36 = AXIS2_PLACEMENT_3D ( 'NONE', #837, #844, #749 ) ;
#37 = DIRECTION ( 'NONE',  ( 0.0000000000000000000, 1.000000000000000000, 0.0000000000000000000 ) ) ;
#38 = APPROVAL_STATUS ( 'not_yet_approved' ) ;
#39 = VECTOR ( 'NONE', #356, 1000.000000000000000 ) ;
#40 = PLANE ( 'NONE',  #130 ) ;
#41 = CARTESIAN_POINT ( 'NONE',  ( 0.0000000000000000000, 3.500000000000000000, -13.39999999999999858 ) ) ;
#42 = LINE ( 'NONE', #172, #1138 ) ;
#43 = PERSON_AND_ORGANIZATION_ROLE ( 'design_supplier' ) ;
#44 = EDGE_CURVE ( 'NONE', #698, #148, #346, .T. ) ;
#45 = FACE_OUTER_BOUND ( 'NONE', #263, .T. ) ;
#46 = ORIENTED_EDGE ( 'NONE', *, *, #1091, .F. ) ;
#47 = DIRECTION ( 'NONE',  ( 0.0000000000000000000, -0.0000000000000000000, -1.000000000000000000 ) ) ;
#48 = DIRECTION ( 'NONE',  ( 0.0000000000000000000, -1.000000000000000000, 0.0000000000000000000 ) ) ;
#49 = ORIENTED_EDGE ( 'NONE', *, *, #519, .T. ) ;
#50 = VERTEX_POINT ( 'NONE', #1093 ) ;
#51 = ORIENTED_EDGE ( 'NONE', *, *, #173, .T. ) ;
#52 = DIRECTION ( 'NONE',  ( -1.000000000000000000, 0.0000000000000000000, 0.0000000000000000000 ) ) ;
#53 = EDGE_CURVE ( 'NONE', #1, #760, #873, .T. ) ;
#54 = CARTESIAN_POINT ( 'NONE',  ( 1.599999999999999423, -2.000000000000000000, -5.399999999999999467 ) ) ;
#55 = VECTOR ( 'NONE', #224, 1000.000000000000000 ) ;
#56 = CIRCLE ( 'NONE', #410, 2.999999999999999112 ) ;
#57 = CARTESIAN_POINT ( 'NONE',  ( 1.599999999999999423, -2.000000000000000000, -4.200000000000000178 ) ) ;
#58 = EDGE_CURVE ( 'NONE', #279, #313, #146, .T. ) ;
#59 = LINE ( 'NONE', #202, #965 ) ;
#60 = ORIENTED_EDGE ( 'NONE', *, *, #519, .F. ) ;
#61 = ORIENTED_EDGE ( 'NONE', *, *, #771, .T. ) ;
#62 = DIRECTION ( 'NONE',  ( 0.0000000000000000000, 0.0000000000000000000, 1.000000000000000000 ) ) ;
#63 = ORIENTED_EDGE ( 'NONE', *, *, #339, .F. ) ;
#64 = DIRECTION ( 'NONE',  ( 0.0000000000000000000, 0.0000000000000000000, -1.000000000000000000 ) ) ;
#65 = ADVANCED_FACE ( 'NONE', ( #818 ), #587, .F. ) ;
#66 = AXIS2_PLACEMENT_3D ( 'NONE', #159, #773, #164 ) ;
#67 = COORDINATED_UNIVERSAL_TIME_OFFSET ( 0, 0, .AHEAD. ) ;
#68 = FACE_OUTER_BOUND ( 'NONE', #185, .T. ) ;
#69 = CARTESIAN_POINT ( 'NONE',  ( 7.000000000000000000, 0.0000000000000000000, -11.29999999999999716 ) ) ;
#70 = CYLINDRICAL_SURFACE ( 'NONE', #522, 0.5000000000000000000 ) ;
#71 = ORIENTED_EDGE ( 'NONE', *, *, #883, .F. ) ;
#72 = EDGE_CURVE ( 'NONE', #198, #533, #709, .T. ) ;
#73 = VERTEX_POINT ( 'NONE', #1073 ) ;
#74 = DIRECTION ( 'NONE',  ( 8.659560562354915602E-17, 0.7071067811865489050, -0.7071067811865461294 ) ) ;
#75 = ORIENTED_EDGE ( 'NONE', *, *, #919, .F. ) ;
#76 = ORIENTED_EDGE ( 'NONE', *, *, #883, .T. ) ;
#77 = CARTESIAN_POINT ( 'NONE',  ( 0.5000000000000000000, 4.000000000000000000, -13.39999999999999858 ) ) ;
#78 = CARTESIAN_POINT ( 'NONE',  ( 0.0000000000000000000, -0.0000000000000000000, -4.000000000000000000 ) ) ;
#79 = AXIS2_PLACEMENT_3D ( 'NONE', #1064, #881, #1069 ) ;
#80 = CYLINDRICAL_SURFACE ( 'NONE', #684, 0.2000000000000000944 ) ;
#81 = LINE ( 'NONE', #609, #501 ) ;
#82 = CIRCLE ( 'NONE', #230, 2.000000000000000000 ) ;
#83 = CARTESIAN_POINT ( 'NONE',  ( 3.500000000000000000, 9.500000000000000000, -8.199999999999999289 ) ) ;
#84 = ORIENTED_EDGE ( 'NONE', *, *, #978, .T. ) ;
#85 = ORIENTED_EDGE ( 'NONE', *, *, #277, .T. ) ;
#86 = AXIS2_PLACEMENT_3D ( 'NONE', #318, #413, #414 ) ;
#87 = ORIENTED_EDGE ( 'NONE', *, *, #188, .T. ) ;
#88 = EDGE_LOOP ( 'NONE', ( #225, #1000, #966, #461 ) ) ;
#89 = CARTESIAN_POINT ( 'NONE',  ( 3.500000000000000000, 2.500000000000000000, -6.699999999999998401 ) ) ;
#90 = DIRECTION ( 'NONE',  ( -0.0000000000000000000, -0.0000000000000000000, 1.000000000000000000 ) ) ;
#91 = EDGE_CURVE ( 'NONE', #479, #859, #82, .T. ) ;
#92 = CALENDAR_DATE ( 2019, 12, 12 ) ;
#93 = APPROVAL ( #38, 'UNSPECIFIED' ) ;
#94 = SHAPE_DEFINITION_REPRESENTATION ( #561, #122 ) ;
#95 = FACE_OUTER_BOUND ( 'NONE', #1120, .T. ) ;
#96 = LINE ( 'NONE', #714, #171 ) ;
#97 = DIRECTION ( 'NONE',  ( 0.0000000000000000000, 0.0000000000000000000, -1.000000000000000000 ) ) ;
#98 = ORIENTED_EDGE ( 'NONE', *, *, #233, .F. ) ;
#99 = ORIENTED_EDGE ( 'NONE', *, *, #1135, .F. ) ;
#100 = EDGE_CURVE ( 'NONE', #558, #50, #115, .T. ) ;
#101 = ORIENTED_EDGE ( 'NONE', *, *, #248, .T. ) ;
#102 = AXIS2_PLACEMENT_3D ( 'NONE', #1086, #124, #299 ) ;
#103 = PLANE ( 'NONE',  #821 ) ;
#104 =( BOUNDED_CURVE ( )  B_SPLINE_CURVE ( 3, ( #998, #548, #15, #905 ),
 .UNSPECIFIED., .F., .F. ) 
 B_SPLINE_CURVE_WITH_KNOTS ( ( 4, 4 ),
 ( 3.141592653589793116, 4.712388980384689674 ),
 .UNSPECIFIED. ) 
 CURVE ( )  GEOMETRIC_REPRESENTATION_ITEM ( )  RATIONAL_B_SPLINE_CURVE ( ( 1.000000000000000000, 0.8047378541243649375, 0.8047378541243649375, 1.000000000000000000 ) ) 
 REPRESENTATION_ITEM ( '' )  );
#105 = CARTESIAN_POINT ( 'NONE',  ( 1.599999999999999423, -0.2000000000000000944, -4.000000000000000000 ) ) ;
#106 = CARTESIAN_POINT ( 'NONE',  ( 3.000000000000000000, 4.000000000000000000, -15.89999999999999680 ) ) ;
#107 = CARTESIAN_POINT ( 'NONE',  ( 0.0000000000000000000, 4.000000000000000000, -16.39999999999999858 ) ) ;
#108 = CARTESIAN_POINT ( 'NONE',  ( 3.500000000000000000, 3.499999999999995559, -13.39999999999999858 ) ) ;
#109 = CALENDAR_DATE ( 2019, 12, 12 ) ;
#110 = EDGE_CURVE ( 'NONE', #757, #479, #59, .T. ) ;
#111 = VECTOR ( 'NONE', #301, 1000.000000000000000 ) ;
#112 = CARTESIAN_POINT ( 'NONE',  ( 5.599999999999998757, 0.0000000000000000000, -4.000000000000000000 ) ) ;
#113 = LINE ( 'NONE', #659, #673 ) ;
#114 = CARTESIAN_POINT ( 'NONE',  ( 3.000000000000000000, 0.0000000000000000000, -13.39999999999999858 ) ) ;
#115 = LINE ( 'NONE', #811, #766 ) ;
#116 = VERTEX_POINT ( 'NONE', #368 ) ;
#117 = CARTESIAN_POINT ( 'NONE',  ( 0.0000000000000000000, 2.500000000000000000, -11.29999999999999716 ) ) ;
#118 = DIRECTION ( 'NONE',  ( 0.0000000000000000000, 0.0000000000000000000, -1.000000000000000000 ) ) ;
#119 = ORIENTED_EDGE ( 'NONE', *, *, #53, .T. ) ;
#120 = DIRECTION ( 'NONE',  ( 0.0000000000000000000, 0.0000000000000000000, -1.000000000000000000 ) ) ;
#121 = ORIENTED_EDGE ( 'NONE', *, *, #100, .T. ) ;
#122 = ADVANCED_BREP_SHAPE_REPRESENTATION ( 'sensor holder cover', ( #483, #200 ), #215 ) ;
#123 = ADVANCED_FACE ( 'NONE', ( #1014 ), #261, .F. ) ;
#124 = DIRECTION ( 'NONE',  ( 0.0000000000000000000, -1.000000000000000000, 0.0000000000000000000 ) ) ;
#125 = CARTESIAN_POINT ( 'NONE',  ( 1.399999999999999245, 0.0000000000000000000, -5.599999999999998757 ) ) ;
#126 = PERSON ( 'UNSPECIFIED', 'UNSPECIFIED', 'UNSPECIFIED', ('UNSPECIFIED'), ('UNSPECIFIED'), ('UNSPECIFIED') ) ;
#127 = DIRECTION ( 'NONE',  ( 0.0000000000000000000, -0.0000000000000000000, 1.000000000000000000 ) ) ;
#128 = DATE_AND_TIME ( #109, #552 ) ;
#129 = DIRECTION ( 'NONE',  ( 0.0000000000000000000, 0.0000000000000000000, -1.000000000000000000 ) ) ;
#130 = AXIS2_PLACEMENT_3D ( 'NONE', #577, #747, #47 ) ;
#131 = LINE ( 'NONE', #1148, #1041 ) ;
#132 = CARTESIAN_POINT ( 'NONE',  ( 0.0000000000000000000, 3.500000000000000000, 0.0000000000000000000 ) ) ;
#133 = ORIENTED_EDGE ( 'NONE', *, *, #509, .F. ) ;
#134 = APPLICATION_CONTEXT ( 'configuration controlled 3d designs of mechanical parts and assemblies' ) ;
#135 = ORIENTED_EDGE ( 'NONE', *, *, #9, .F. ) ;
#136 = ORIENTED_EDGE ( 'NONE', *, *, #761, .T. ) ;
#137 = ADVANCED_FACE ( 'NONE', ( #530 ), #211, .F. ) ;
#138 = EDGE_LOOP ( 'NONE', ( #838, #337, #46, #794 ) ) ;
#139 = DIRECTION ( 'NONE',  ( 0.0000000000000000000, 0.0000000000000000000, -1.000000000000000000 ) ) ;
#140 = EDGE_CURVE ( 'NONE', #531, #685, #1116, .T. ) ;
#141 = CARTESIAN_POINT ( 'NONE',  ( 5.000000000000000000, 4.000000000000000000, -3.500000000000000000 ) ) ;
#142 = DATE_TIME_ROLE ( 'classification_date' ) ;
#143 = LOCAL_TIME ( 16, 57, 59.00000000000000000, #67 ) ;
#144 = VECTOR ( 'NONE', #1013, 1000.000000000000000 ) ;
#145 = LINE ( 'NONE', #808, #25 ) ;
#146 = CIRCLE ( 'NONE', #879, 0.9250000000000004885 ) ;
#147 = DIRECTION ( 'NONE',  ( 0.0000000000000000000, 1.000000000000000000, 0.0000000000000000000 ) ) ;
#148 = VERTEX_POINT ( 'NONE', #288 ) ;
#149 = VERTEX_POINT ( 'NONE', #141 ) ;
#150 = ORIENTED_EDGE ( 'NONE', *, *, #100, .F. ) ;
#151 = EDGE_CURVE ( 'NONE', #313, #279, #884, .T. ) ;
#152 = CIRCLE ( 'NONE', #1006, 2.999999999999999112 ) ;
#153 = ADVANCED_FACE ( 'NONE', ( #446 ), #458, .T. ) ;
#154 = TOROIDAL_SURFACE ( 'NONE', #166, 1.500000000000000000, 0.5000000000000000000 ) ;
#155 = CARTESIAN_POINT ( 'NONE',  ( 0.0000000000000000000, 4.000000000000000000, -11.29999999999999716 ) ) ;
#156 = EDGE_CURVE ( 'NONE', #678, #1, #911, .T. ) ;
#157 = ORIENTED_EDGE ( 'NONE', *, *, #1070, .T. ) ;
#158 = ORIENTED_EDGE ( 'NONE', *, *, #9, .T. ) ;
#159 = CARTESIAN_POINT ( 'NONE',  ( 3.500000000000000000, 4.000000000000000000, -8.199999999999999289 ) ) ;
#160 = CC_DESIGN_APPROVAL ( #812, ( #636 ) ) ;
#161 = ORIENTED_EDGE ( 'NONE', *, *, #476, .F. ) ;
#162 = CARTESIAN_POINT ( 'NONE',  ( 0.0000000000000000000, 4.000000000000000000, 0.0000000000000000000 ) ) ;
#163 = ORIENTED_EDGE ( 'NONE', *, *, #213, .F. ) ;
#164 = DIRECTION ( 'NONE',  ( 0.0000000000000000000, 0.0000000000000000000, -1.000000000000000000 ) ) ;
#165 = EDGE_CURVE ( 'NONE', #967, #30, #1140, .T. ) ;
#166 = AXIS2_PLACEMENT_3D ( 'NONE', #551, #817, #26 ) ;
#167 = APPROVAL_PERSON_ORGANIZATION ( #584, #93, #656 ) ;
#168 = CIRCLE ( 'NONE', #328, 0.9250000000000004885 ) ;
#169 = CARTESIAN_POINT ( 'NONE',  ( 7.000000000000000000, 3.500000000000000000, -13.39999999999999858 ) ) ;
#170 = VECTOR ( 'NONE', #331, 1000.000000000000000 ) ;
#171 = VECTOR ( 'NONE', #264, 1000.000000000000000 ) ;
#172 = CARTESIAN_POINT ( 'NONE',  ( 0.5000000000000000000, 4.000000000000000000, 0.0000000000000000000 ) ) ;
#173 = EDGE_CURVE ( 'NONE', #479, #1146, #1153, .T. ) ;
#174 = EDGE_LOOP ( 'NONE', ( #1036, #395, #506, #133 ) ) ;
#175 = DIRECTION ( 'NONE',  ( 0.0000000000000000000, 0.0000000000000000000, -1.000000000000000000 ) ) ;
#176 = ORIENTED_EDGE ( 'NONE', *, *, #58, .T. ) ;
#177 = ORIENTED_EDGE ( 'NONE', *, *, #1135, .T. ) ;
#178 = DIRECTION ( 'NONE',  ( 0.0000000000000000000, 0.0000000000000000000, 1.000000000000000000 ) ) ;
#179 = EDGE_CURVE ( 'NONE', #983, #878, #894, .T. ) ;
#180 = CIRCLE ( 'NONE', #1132, 1.425000000000002709 ) ;
#181 = ORIENTED_EDGE ( 'NONE', *, *, #1026, .F. ) ;
#182 = CARTESIAN_POINT ( 'NONE',  ( 1.599999999999999423, -0.2000000000000000944, -5.399999999999999467 ) ) ;
#183 = ORIENTED_EDGE ( 'NONE', *, *, #751, .F. ) ;
#184 = ORIENTED_EDGE ( 'NONE', *, *, #601, .T. ) ;
#185 = EDGE_LOOP ( 'NONE', ( #502, #296, #49, #252, #409, #555, #888, #784 ) ) ;
#186 = CARTESIAN_POINT ( 'NONE',  ( 2.000000000000000000, 0.0000000000000000000, -5.000000000000000000 ) ) ;
#187 = DIRECTION ( 'NONE',  ( -0.0000000000000000000, -1.000000000000000000, -0.0000000000000000000 ) ) ;
#188 = EDGE_CURVE ( 'NONE', #1147, #73, #321, .T. ) ;
#189 = DIRECTION ( 'NONE',  ( 0.0000000000000000000, 1.000000000000000000, 0.0000000000000000000 ) ) ;
#190 = CYLINDRICAL_SURFACE ( 'NONE', #18, 0.5000000000000000000 ) ;
#191 = CARTESIAN_POINT ( 'NONE',  ( 5.000000000000000000, 0.0000000000000000000, -3.000000000000000000 ) ) ;
#192 = ADVANCED_FACE ( 'NONE', ( #488 ), #11, .T. ) ;
#193 = CIRCLE ( 'NONE', #498, 1.500000000000000444 ) ;
#194 = VECTOR ( 'NONE', #741, 1000.000000000000000 ) ;
#195 = CARTESIAN_POINT ( 'NONE',  ( 5.399999999999999467, -0.2000000000000000944, -4.200000000000000178 ) ) ;
#196 = CYLINDRICAL_SURFACE ( 'NONE', #706, 0.9250000000000004885 ) ;
#197 = CARTESIAN_POINT ( 'NONE',  ( 3.500000000000000000, 7.000000000000000000, -13.39999999999999858 ) ) ;
#198 = VERTEX_POINT ( 'NONE', #41 ) ;
#199 = ORIENTED_EDGE ( 'NONE', *, *, #776, .F. ) ;
#200 = AXIS2_PLACEMENT_3D ( 'NONE', #930, #229, #1022 ) ;
#201 = EDGE_LOOP ( 'NONE', ( #463, #76, #379, #181 ) ) ;
#202 = CARTESIAN_POINT ( 'NONE',  ( 7.000000000000000000, 3.500000000000000000, 0.0000000000000000000 ) ) ;
#203 = CARTESIAN_POINT ( 'NONE',  ( 1.599999999999999423, -0.08284271247461910681, -5.400000000000000355 ) ) ;
#204 = CARTESIAN_POINT ( 'NONE',  ( 3.500000000000000000, 0.0000000000000000000, -13.39999999999999858 ) ) ;
#205 = DIRECTION ( 'NONE',  ( 0.0000000000000000000, -1.000000000000000000, 0.0000000000000000000 ) ) ;
#206 = APPROVAL_DATE_TIME ( #1007, #812 ) ;
#207 = LINE ( 'NONE', #824, #774 ) ;
#208 = CARTESIAN_POINT ( 'NONE',  ( 2.000000000000000000, 3.500000000000000000, -3.000000000000000000 ) ) ;
#209 = CARTESIAN_POINT ( 'NONE',  ( 0.0000000000000000000, 4.000000000000000000, -15.89999999999999680 ) ) ;
#210 = LINE ( 'NONE', #596, #882 ) ;
#211 = CYLINDRICAL_SURFACE ( 'NONE', #345, 0.2000000000000000944 ) ;
#212 = ORIENTED_EDGE ( 'NONE', *, *, #1035, .T. ) ;
#213 = EDGE_CURVE ( 'NONE', #674, #1065, #778, .T. ) ;
#214 = ORIENTED_EDGE ( 'NONE', *, *, #352, .F. ) ;
#215 =( GEOMETRIC_REPRESENTATION_CONTEXT ( 3 ) GLOBAL_UNCERTAINTY_ASSIGNED_CONTEXT ( ( #688 ) ) GLOBAL_UNIT_ASSIGNED_CONTEXT ( ( #394, #1009, #1115 ) ) REPRESENTATION_CONTEXT ( 'NONE', 'WORKASPACE' ) );
#216 = CARTESIAN_POINT ( 'NONE',  ( 1.599999999999999423, -0.08284271247461913457, -4.200000000000000178 ) ) ;
#217 = CARTESIAN_POINT ( 'NONE',  ( 0.0000000000000000000, 3.500000000000000000, -3.000000000000000000 ) ) ;
#218 = CARTESIAN_POINT ( 'NONE',  ( 0.0000000000000000000, 0.0000000000000000000, -11.29999999999999716 ) ) ;
#219 = ADVANCED_FACE ( 'NONE', ( #736 ), #291, .F. ) ;
#220 = CARTESIAN_POINT ( 'NONE',  ( 3.500000000000000000, 0.0000000000000000000, -13.39999999999999858 ) ) ;
#221 = DIRECTION ( 'NONE',  ( -1.000000000000000000, -0.0000000000000000000, -0.0000000000000000000 ) ) ;
#222 = DATE_TIME_ROLE ( 'creation_date' ) ;
#223 = LINE ( 'NONE', #603, #234 ) ;
#224 = DIRECTION ( 'NONE',  ( -1.000000000000000000, -0.0000000000000000000, -0.0000000000000000000 ) ) ;
#225 = ORIENTED_EDGE ( 'NONE', *, *, #450, .T. ) ;
#226 = ORIENTED_EDGE ( 'NONE', *, *, #1145, .F. ) ;
#227 = DIRECTION ( 'NONE',  ( 1.000000000000000000, 0.0000000000000000000, -0.0000000000000000000 ) ) ;
#228 = ORIENTED_EDGE ( 'NONE', *, *, #771, .F. ) ;
#229 = DIRECTION ( 'NONE',  ( 0.0000000000000000000, 0.0000000000000000000, 1.000000000000000000 ) ) ;
#230 = AXIS2_PLACEMENT_3D ( 'NONE', #735, #544, #294 ) ;
#231 = PLANE ( 'NONE',  #1017 ) ;
#232 = CIRCLE ( 'NONE', #691, 1.499999999999999556 ) ;
#233 = EDGE_CURVE ( 'NONE', #198, #148, #56, .T. ) ;
#234 = VECTOR ( 'NONE', #937, 1000.000000000000114 ) ;
#235 = AXIS2_PLACEMENT_3D ( 'NONE', #251, #611, #244 ) ;
#236 = ORIENTED_EDGE ( 'NONE', *, *, #491, .F. ) ;
#237 =( BOUNDED_CURVE ( )  B_SPLINE_CURVE ( 3, ( #125, #641, #203, #814 ),
 .UNSPECIFIED., .F., .T. ) 
 B_SPLINE_CURVE_WITH_KNOTS ( ( 4, 4 ),
 ( 1.570796326794896558, 3.141592653589793116 ),
 .UNSPECIFIED. ) 
 CURVE ( )  GEOMETRIC_REPRESENTATION_ITEM ( )  RATIONAL_B_SPLINE_CURVE ( ( 1.000000000000000000, 0.8047378541243649375, 0.8047378541243649375, 1.000000000000000000 ) ) 
 REPRESENTATION_ITEM ( '' )  );
#238 = ORIENTED_EDGE ( 'NONE', *, *, #919, .T. ) ;
#239 = DIRECTION ( 'NONE',  ( 0.0000000000000000000, -1.000000000000000000, 0.0000000000000000000 ) ) ;
#240 = EDGE_LOOP ( 'NONE', ( #61, #616 ) ) ;
#241 = DIRECTION ( 'NONE',  ( -0.0000000000000000000, 1.000000000000000000, -0.0000000000000000000 ) ) ;
#242 = AXIS2_PLACEMENT_3D ( 'NONE', #669, #654, #916 ) ;
#243 = PLANE ( 'NONE',  #1136 ) ;
#244 = DIRECTION ( 'NONE',  ( 0.0000000000000000000, 0.0000000000000000000, -1.000000000000000000 ) ) ;
#245 = LINE ( 'NONE', #218, #55 ) ;
#246 = VECTOR ( 'NONE', #438, 1000.000000000000000 ) ;
#247 = CARTESIAN_POINT ( 'NONE',  ( 3.000000000000000000, 4.000000000000000000, -13.39999999999999858 ) ) ;
#248 = EDGE_CURVE ( 'NONE', #915, #698, #113, .T. ) ;
#249 = LINE ( 'NONE', #57, #1052 ) ;
#250 = ORIENTED_EDGE ( 'NONE', *, *, #601, .F. ) ;
#251 = CARTESIAN_POINT ( 'NONE',  ( 2.000000000000000000, 3.500000000000000000, -5.000000000000000000 ) ) ;
#252 = ORIENTED_EDGE ( 'NONE', *, *, #431, .T. ) ;
#253 = EDGE_LOOP ( 'NONE', ( #17, #507, #298, #559 ) ) ;
#254 = ORIENTED_EDGE ( 'NONE', *, *, #728, .T. ) ;
#255 = PLANE ( 'NONE',  #853 ) ;
#256 = AXIS2_PLACEMENT_3D ( 'NONE', #976, #809, #453 ) ;
#257 = PLANE ( 'NONE',  #452 ) ;
#258 = LINE ( 'NONE', #474, #355 ) ;
#259 = DIRECTION ( 'NONE',  ( 0.0000000000000000000, -1.000000000000000000, 0.0000000000000000000 ) ) ;
#260 = FACE_OUTER_BOUND ( 'NONE', #1082, .T. ) ;
#261 = CYLINDRICAL_SURFACE ( 'NONE', #718, 0.1999999999999996503 ) ;
#262 = AXIS2_PLACEMENT_3D ( 'NONE', #162, #890, #365 ) ;
#263 = EDGE_LOOP ( 'NONE', ( #1054, #492, #981, #157, #311, #590, #119, #769 ) ) ;
#264 = DIRECTION ( 'NONE',  ( -0.0000000000000000000, -1.000000000000000000, -0.0000000000000000000 ) ) ;
#265 = DIRECTION ( 'NONE',  ( 0.0000000000000000000, 0.0000000000000000000, -1.000000000000000000 ) ) ;
#266 = ORIENTED_EDGE ( 'NONE', *, *, #697, .T. ) ;
#267 = ORIENTED_EDGE ( 'NONE', *, *, #277, .F. ) ;
#268 = DIRECTION ( 'NONE',  ( 0.0000000000000000000, 0.0000000000000000000, 1.000000000000000000 ) ) ;
#269 = EDGE_CURVE ( 'NONE', #878, #983, #992, .T. ) ;
#270 = AXIS2_PLACEMENT_3D ( 'NONE', #989, #1076, #826 ) ;
#271 = DIRECTION ( 'NONE',  ( 1.000000000000000000, 0.0000000000000000000, 0.0000000000000000000 ) ) ;
#272 = CIRCLE ( 'NONE', #353, 2.999999999999999112 ) ;
#273 = VECTOR ( 'NONE', #317, 1000.000000000000000 ) ;
#274 = DIRECTION ( 'NONE',  ( 1.000000000000000000, -0.0000000000000000000, -0.0000000000000000000 ) ) ;
#275 = DIRECTION ( 'NONE',  ( 1.000000000000000000, 0.0000000000000000000, 0.0000000000000000000 ) ) ;
#276 = VECTOR ( 'NONE', #274, 1000.000000000000000 ) ;
#277 = EDGE_CURVE ( 'NONE', #859, #589, #1113, .T. ) ;
#278 = ORIENTED_EDGE ( 'NONE', *, *, #156, .F. ) ;
#279 = VERTEX_POINT ( 'NONE', #929 ) ;
#280 = CARTESIAN_POINT ( 'NONE',  ( 5.399999999999999467, -0.2000000000000000944, -4.200000000000000178 ) ) ;
#281 = ORIENTED_EDGE ( 'NONE', *, *, #91, .F. ) ;
#282 = PRODUCT ( 'sensor holder cover', 'sensor holder cover', '', ( #570 ) ) ;
#283 = VERTEX_POINT ( 'NONE', #768 ) ;
#284 = DIRECTION ( 'NONE',  ( 1.000000000000000000, -0.0000000000000000000, 0.0000000000000000000 ) ) ;
#285 = DIRECTION ( 'NONE',  ( 0.0000000000000000000, 0.0000000000000000000, -1.000000000000000000 ) ) ;
#286 = AXIS2_PLACEMENT_3D ( 'NONE', #830, #300, #33 ) ;
#287 = CALENDAR_DATE ( 2019, 12, 12 ) ;
#288 = CARTESIAN_POINT ( 'NONE',  ( 3.000000000000000000, 3.500000000000000000, -16.39999999999999858 ) ) ;
#289 = DIRECTION ( 'NONE',  ( 0.0000000000000000000, 0.0000000000000000000, 1.000000000000000000 ) ) ;
#290 = VECTOR ( 'NONE', #731, 1000.000000000000000 ) ;
#291 = CYLINDRICAL_SURFACE ( 'NONE', #857, 1.499999999999999556 ) ;
#292 = ADVANCED_FACE ( 'NONE', ( #640, #909 ), #231, .T. ) ;
#293 = DIRECTION ( 'NONE',  ( 0.0000000000000000000, -1.000000000000000000, 0.0000000000000000000 ) ) ;
#294 = DIRECTION ( 'NONE',  ( 0.0000000000000000000, 0.0000000000000000000, -1.000000000000000000 ) ) ;
#295 = DIRECTION ( 'NONE',  ( 0.0000000000000000000, -1.000000000000000000, 0.0000000000000000000 ) ) ;
#296 = ORIENTED_EDGE ( 'NONE', *, *, #1145, .T. ) ;
#297 = EDGE_CURVE ( 'NONE', #997, #674, #765, .T. ) ;
#298 = ORIENTED_EDGE ( 'NONE', *, *, #571, .F. ) ;
#299 = DIRECTION ( 'NONE',  ( 0.0000000000000000000, 0.0000000000000000000, -1.000000000000000000 ) ) ;
#300 = DIRECTION ( 'NONE',  ( 0.0000000000000000000, 1.000000000000000000, 0.0000000000000000000 ) ) ;
#301 = DIRECTION ( 'NONE',  ( -0.0000000000000000000, 1.000000000000000000, -0.0000000000000000000 ) ) ;
#302 = CARTESIAN_POINT ( 'NONE',  ( 0.0000000000000000000, 2.500000000000000000, -6.000000000000000000 ) ) ;
#303 = CARTESIAN_POINT ( 'NONE',  ( 3.500000000000000000, 4.000000000000000000, -14.82500000000000107 ) ) ;
#304 = EDGE_CURVE ( 'NONE', #683, #1131, #682, .T. ) ;
#305 = FACE_OUTER_BOUND ( 'NONE', #542, .T. ) ;
#306 = VECTOR ( 'NONE', #525, 1000.000000000000000 ) ;
#307 = LINE ( 'NONE', #1072, #792 ) ;
#308 = EDGE_LOOP ( 'NONE', ( #364, #1141, #51, #521, #657, #783, #490, #184 ) ) ;
#309 = CARTESIAN_POINT ( 'NONE',  ( 5.399999999999999467, -2.000000000000000000, -5.399999999999999467 ) ) ;
#310 = DIRECTION ( 'NONE',  ( -1.000000000000000000, -0.0000000000000000000, -0.0000000000000000000 ) ) ;
#311 = ORIENTED_EDGE ( 'NONE', *, *, #332, .F. ) ;
#312 = ADVANCED_FACE ( 'NONE', ( #473 ), #1127, .T. ) ;
#313 = VERTEX_POINT ( 'NONE', #1033 ) ;
#314 = ORIENTED_EDGE ( 'NONE', *, *, #534, .T. ) ;
#315 = APPROVAL_ROLE ( '' ) ;
#316 = ADVANCED_FACE ( 'NONE', ( #407 ), #952, .T. ) ;
#317 = DIRECTION ( 'NONE',  ( -0.0000000000000000000, -0.0000000000000000000, -1.000000000000000000 ) ) ;
#318 = CARTESIAN_POINT ( 'NONE',  ( 3.500000000000000000, 2.500000000000000000, -8.199999999999999289 ) ) ;
#319 = AXIS2_PLACEMENT_3D ( 'NONE', #382, #550, #1089 ) ;
#320 = VECTOR ( 'NONE', #810, 1000.000000000000000 ) ;
#321 = CIRCLE ( 'NONE', #914, 1.425000000000002709 ) ;
#322 = PLANE ( 'NONE',  #934 ) ;
#323 = VECTOR ( 'NONE', #899, 1000.000000000000000 ) ;
#324 = ORIENTED_EDGE ( 'NONE', *, *, #712, .T. ) ;
#325 = ORIENTED_EDGE ( 'NONE', *, *, #140, .F. ) ;
#326 = ORIENTED_EDGE ( 'NONE', *, *, #35, .T. ) ;
#327 = ORIENTED_EDGE ( 'NONE', *, *, #151, .F. ) ;
#328 = AXIS2_PLACEMENT_3D ( 'NONE', #204, #293, #574 ) ;
#329 = CARTESIAN_POINT ( 'NONE',  ( 4.000000000000000000, 4.000000000000000000, -13.39999999999999858 ) ) ;
#330 = LOCAL_TIME ( 16, 57, 59.00000000000000000, #1075 ) ;
#331 = DIRECTION ( 'NONE',  ( 0.0000000000000000000, -1.000000000000000000, 0.0000000000000000000 ) ) ;
#332 = EDGE_CURVE ( 'NONE', #643, #425, #434, .T. ) ;
#333 = CIRCLE ( 'NONE', #66, 1.499999999999999556 ) ;
#334 = AXIS2_PLACEMENT_3D ( 'NONE', #781, #864, #1055 ) ;
#335 = ORIENTED_EDGE ( 'NONE', *, *, #450, .F. ) ;
#336 = EDGE_LOOP ( 'NONE', ( #780, #281, #742, #954 ) ) ;
#337 = ORIENTED_EDGE ( 'NONE', *, *, #91, .T. ) ;
#338 = VERTEX_POINT ( 'NONE', #941 ) ;
#339 = EDGE_CURVE ( 'NONE', #116, #757, #964, .T. ) ;
#340 = DIRECTION ( 'NONE',  ( -0.0000000000000000000, -1.000000000000000000, -0.0000000000000000000 ) ) ;
#341 = DIRECTION ( 'NONE',  ( -1.000000000000000000, 0.0000000000000000000, -0.0000000000000000000 ) ) ;
#342 = DIRECTION ( 'NONE',  ( -0.0000000000000000000, 0.0000000000000000000, -1.000000000000000000 ) ) ;
#343 = PERSON_AND_ORGANIZATION ( #126, #920 ) ;
#344 = CIRCLE ( 'NONE', #235, 2.000000000000000000 ) ;
#345 = AXIS2_PLACEMENT_3D ( 'NONE', #105, #645, #22 ) ;
#346 = LINE ( 'NONE', #982, #323 ) ;
#347 = CARTESIAN_POINT ( 'NONE',  ( 6.500000000000000888, 3.500000000000000000, 0.0000000000000000000 ) ) ;
#348 = ORIENTED_EDGE ( 'NONE', *, *, #179, .F. ) ;
#349 = VERTEX_POINT ( 'NONE', #1042 ) ;
#350 = EDGE_LOOP ( 'NONE', ( #1034, #228, #158, #1032 ) ) ;
#351 = PLANE ( 'NONE',  #256 ) ;
#352 = EDGE_CURVE ( 'NONE', #685, #412, #210, .T. ) ;
#353 = AXIS2_PLACEMENT_3D ( 'NONE', #540, #7, #797 ) ;
#354 = DATE_AND_TIME ( #402, #973 ) ;
#355 = VECTOR ( 'NONE', #903, 1000.000000000000000 ) ;
#356 = DIRECTION ( 'NONE',  ( 1.000000000000000000, 0.0000000000000000000, 0.0000000000000000000 ) ) ;
#357 = VECTOR ( 'NONE', #74, 1000.000000000000114 ) ;
#358 = EDGE_CURVE ( 'NONE', #279, #73, #223, .T. ) ;
#359 = ORIENTED_EDGE ( 'NONE', *, *, #179, .T. ) ;
#360 = AXIS2_PLACEMENT_3D ( 'NONE', #347, #175, #960 ) ;
#361 = CARTESIAN_POINT ( 'NONE',  ( 7.000000000000000000, 0.0000000000000000000, 0.0000000000000000000 ) ) ;
#362 = ORIENTED_EDGE ( 'NONE', *, *, #233, .T. ) ;
#363 = PLANE ( 'NONE',  #79 ) ;
#364 = ORIENTED_EDGE ( 'NONE', *, *, #339, .T. ) ;
#365 = DIRECTION ( 'NONE',  ( 0.0000000000000000000, 0.0000000000000000000, -1.000000000000000000 ) ) ;
#366 = EDGE_CURVE ( 'NONE', #820, #967, #1030, .T. ) ;
#367 = CARTESIAN_POINT ( 'NONE',  ( 0.0000000000000000000, 2.500000000000000000, -4.000000000000000000 ) ) ;
#368 = CARTESIAN_POINT ( 'NONE',  ( 7.000000000000000000, 0.0000000000000000000, -13.39999999999999858 ) ) ;
#369 = CARTESIAN_POINT ( 'NONE',  ( 6.500000000000000888, 4.000000000000000000, 0.0000000000000000000 ) ) ;
#370 = COORDINATED_UNIVERSAL_TIME_OFFSET ( 0, 0, .AHEAD. ) ;
#371 = FACE_OUTER_BOUND ( 'NONE', #411, .T. ) ;
#372 = CARTESIAN_POINT ( 'NONE',  ( 5.482842712474618629, -1.570467161353995953E-16, -4.117157287525381015 ) ) ;
#373 = DIRECTION ( 'NONE',  ( -0.0000000000000000000, 1.000000000000000000, -0.0000000000000000000 ) ) ;
#374 = FACE_OUTER_BOUND ( 'NONE', #419, .T. ) ;
#375 = DESIGN_CONTEXT ( 'detailed design', #134, 'design' ) ;
#376 = DIRECTION ( 'NONE',  ( -0.0000000000000000000, 1.000000000000000000, -0.0000000000000000000 ) ) ;
#377 = ORIENTED_EDGE ( 'NONE', *, *, #366, .F. ) ;
#378 = CC_DESIGN_PERSON_AND_ORGANIZATION_ASSIGNMENT ( #343, #1098, ( #282 ) ) ;
#379 = ORIENTED_EDGE ( 'NONE', *, *, #712, .F. ) ;
#380 = DIRECTION ( 'NONE',  ( -1.000000000000000000, 0.0000000000000000000, 0.0000000000000000000 ) ) ;
#381 = ORIENTED_EDGE ( 'NONE', *, *, #1150, .T. ) ;
#382 = CARTESIAN_POINT ( 'NONE',  ( 5.000000000000000000, 3.500000000000000000, -5.000000000000000000 ) ) ;
#383 = DIRECTION ( 'NONE',  ( 0.0000000000000000000, 0.0000000000000000000, 1.000000000000000000 ) ) ;
#384 = DIRECTION ( 'NONE',  ( -1.000000000000000000, 0.0000000000000000000, 0.0000000000000000000 ) ) ;
#385 = ADVANCED_FACE ( 'NONE', ( #529 ), #322, .T. ) ;
#386 = CARTESIAN_POINT ( 'NONE',  ( 3.000000000000000000, 3.500000000000000000, -15.89999999999999680 ) ) ;
#387 = LOCAL_TIME ( 16, 57, 59.00000000000000000, #370 ) ;
#388 = DIRECTION ( 'NONE',  ( -1.000000000000000000, 0.0000000000000000000, 0.0000000000000000000 ) ) ;
#389 = CARTESIAN_POINT ( 'NONE',  ( 3.500000000000000000, 4.000000000000000000, -13.39999999999999858 ) ) ;
#390 = VECTOR ( 'NONE', #285, 1000.000000000000000 ) ;
#391 = CIRCLE ( 'NONE', #102, 2.000000000000000000 ) ;
#392 = ORIENTED_EDGE ( 'NONE', *, *, #165, .T. ) ;
#393 = DIRECTION ( 'NONE',  ( 0.0000000000000000000, 0.0000000000000000000, -1.000000000000000000 ) ) ;
#394 =( LENGTH_UNIT ( ) NAMED_UNIT ( * ) SI_UNIT ( .MILLI., .METRE. ) );
#395 = ORIENTED_EDGE ( 'NONE', *, *, #942, .T. ) ;
#396 = EDGE_CURVE ( 'NONE', #338, #683, #249, .T. ) ;
#397 = ORIENTED_EDGE ( 'NONE', *, *, #592, .T. ) ;
#398 = DIRECTION ( 'NONE',  ( 0.0000000000000000000, 0.0000000000000000000, 1.000000000000000000 ) ) ;
#399 = ORIENTED_EDGE ( 'NONE', *, *, #58, .F. ) ;
#400 = DIRECTION ( 'NONE',  ( -1.000000000000000000, 0.0000000000000000000, 0.0000000000000000000 ) ) ;
#401 = AXIS2_PLACEMENT_3D ( 'NONE', #107, #754, #227 ) ;
#402 = CALENDAR_DATE ( 2019, 12, 12 ) ;
#403 = CARTESIAN_POINT ( 'NONE',  ( 3.000000000000000000, 0.0000000000000000000, -16.39999999999999858 ) ) ;
#404 = CARTESIAN_POINT ( 'NONE',  ( 3.500000000000000000, 9.500000000000000000, -8.199999999999999289 ) ) ;
#405 = LINE ( 'NONE', #644, #870 ) ;
#406 = ADVANCED_FACE ( 'NONE', ( #260 ), #70, .T. ) ;
#407 = FACE_OUTER_BOUND ( 'NONE', #900, .T. ) ;
#408 = ORIENTED_EDGE ( 'NONE', *, *, #619, .F. ) ;
#409 = ORIENTED_EDGE ( 'NONE', *, *, #610, .T. ) ;
#410 = AXIS2_PLACEMENT_3D ( 'NONE', #843, #1015, #139 ) ;
#411 = EDGE_LOOP ( 'NONE', ( #822, #29, #896, #727 ) ) ;
#412 = VERTEX_POINT ( 'NONE', #699 ) ;
#413 = DIRECTION ( 'NONE',  ( 0.0000000000000000000, -1.000000000000000000, 0.0000000000000000000 ) ) ;
#414 = DIRECTION ( 'NONE',  ( 0.0000000000000000000, 0.0000000000000000000, -1.000000000000000000 ) ) ;
#415 = EDGE_CURVE ( 'NONE', #1085, #820, #922, .T. ) ;
#416 = VECTOR ( 'NONE', #6, 1000.000000000000000 ) ;
#417 = CIRCLE ( 'NONE', #995, 0.5000000000000004441 ) ;
#418 = DIRECTION ( 'NONE',  ( 0.0000000000000000000, 0.0000000000000000000, -1.000000000000000000 ) ) ;
#419 = EDGE_LOOP ( 'NONE', ( #865, #121, #199, #713 ) ) ;
#420 = EDGE_LOOP ( 'NONE', ( #327, #686, #464, #805 ) ) ;
#421 = ADVANCED_FACE ( 'NONE', ( #979 ), #770, .F. ) ;
#422 = ORIENTED_EDGE ( 'NONE', *, *, #415, .F. ) ;
#423 = EDGE_CURVE ( 'NONE', #1016, #823, #145, .T. ) ;
#424 = DIRECTION ( 'NONE',  ( -1.000000000000000000, -0.0000000000000000000, -0.0000000000000000000 ) ) ;
#425 = VERTEX_POINT ( 'NONE', #430 ) ;
#426 = AXIS2_PLACEMENT_3D ( 'NONE', #756, #917, #393 ) ;
#427 = DIRECTION ( 'NONE',  ( 0.0000000000000000000, -1.000000000000000000, 0.0000000000000000000 ) ) ;
#428 = ADVANCED_FACE ( 'NONE', ( #708 ), #515, .T. ) ;
#429 = CARTESIAN_POINT ( 'NONE',  ( 3.500000000000000000, 4.000000000000000000, -9.699999999999999289 ) ) ;
#430 = CARTESIAN_POINT ( 'NONE',  ( 0.0000000000000000000, 0.0000000000000000000, -11.29999999999999716 ) ) ;
#431 = EDGE_CURVE ( 'NONE', #30, #863, #615, .T. ) ;
#432 = FACE_OUTER_BOUND ( 'NONE', #138, .T. ) ;
#433 = CARTESIAN_POINT ( 'NONE',  ( 3.500000000000000000, 2.500000000000000000, -9.699999999999999289 ) ) ;
#434 = LINE ( 'NONE', #155, #170 ) ;
#435 = CIRCLE ( 'NONE', #604, 2.999999999999999112 ) ;
#436 = CARTESIAN_POINT ( 'NONE',  ( 0.0000000000000000000, 0.0000000000000000000, -13.39999999999999858 ) ) ;
#437 = ORIENTED_EDGE ( 'NONE', *, *, #672, .F. ) ;
#438 = DIRECTION ( 'NONE',  ( 1.000000000000000000, -0.0000000000000000000, -0.0000000000000000000 ) ) ;
#439 = EDGE_LOOP ( 'NONE', ( #984, #620, #703, #150 ) ) ;
#440 = AXIS2_PLACEMENT_3D ( 'NONE', #887, #972, #819 ) ;
#441 = CARTESIAN_POINT ( 'NONE',  ( 5.399999999999999467, -2.000000000000000000, -5.399999999999999467 ) ) ;
#442 = CARTESIAN_POINT ( 'NONE',  ( 3.500000000000000000, 7.000000000000000000, -12.47499999999999787 ) ) ;
#443 = LINE ( 'NONE', #1059, #1010 ) ;
#444 = AXIS2_PLACEMENT_3D ( 'NONE', #454, #692, #777 ) ;
#445 = VECTOR ( 'NONE', #508, 1000.000000000000000 ) ;
#446 = FACE_OUTER_BOUND ( 'NONE', #523, .T. ) ;
#447 = ORIENTED_EDGE ( 'NONE', *, *, #690, .T. ) ;
#448 = ORIENTED_EDGE ( 'NONE', *, *, #358, .T. ) ;
#449 = DIRECTION ( 'NONE',  ( 0.0000000000000000000, 0.0000000000000000000, -1.000000000000000000 ) ) ;
#450 = EDGE_CURVE ( 'NONE', #589, #863, #936, .T. ) ;
#451 = DIRECTION ( 'NONE',  ( 0.0000000000000000000, 0.0000000000000000000, -1.000000000000000000 ) ) ;
#452 = AXIS2_PLACEMENT_3D ( 'NONE', #524, #517, #342 ) ;
#453 = DIRECTION ( 'NONE',  ( 1.000000000000000000, 0.0000000000000000000, 0.0000000000000000000 ) ) ;
#454 = CARTESIAN_POINT ( 'NONE',  ( 2.000000000000000000, 3.500000000000000000, -3.500000000000000000 ) ) ;
#455 = LINE ( 'NONE', #182, #416 ) ;
#456 = CARTESIAN_POINT ( 'NONE',  ( 0.0000000000000000000, 0.0000000000000000000, -3.000000000000000000 ) ) ;
#457 = EDGE_CURVE ( 'NONE', #148, #877, #755, .T. ) ;
#458 = CYLINDRICAL_SURFACE ( 'NONE', #426, 2.999999999999999112 ) ;
#459 = AXIS2_PLACEMENT_3D ( 'NONE', #329, #241, #418 ) ;
#460 = CARTESIAN_POINT ( 'NONE',  ( 7.000000000000000000, 0.0000000000000000000, 0.0000000000000000000 ) ) ;
#461 = ORIENTED_EDGE ( 'NONE', *, *, #827, .F. ) ;
#462 = CARTESIAN_POINT ( 'NONE',  ( 1.399999999999999245, 0.0000000000000000000, -4.000000000000000000 ) ) ;
#463 = ORIENTED_EDGE ( 'NONE', *, *, #571, .T. ) ;
#464 = ORIENTED_EDGE ( 'NONE', *, *, #1047, .F. ) ;
#465 = CARTESIAN_POINT ( 'NONE',  ( 1.399999999999999245, 0.0000000000000000000, -4.000000000000000000 ) ) ;
#466 = DIRECTION ( 'NONE',  ( -0.0000000000000000000, -1.000000000000000000, 0.0000000000000000000 ) ) ;
#467 = DIRECTION ( 'NONE',  ( 0.0000000000000000000, -1.000000000000000000, 0.0000000000000000000 ) ) ;
#468 = AXIS2_PLACEMENT_3D ( 'NONE', #543, #1046, #97 ) ;
#469 = CARTESIAN_POINT ( 'NONE',  ( 3.500000000000000000, 0.0000000000000000000, -12.47499999999999787 ) ) ;
#470 = DIRECTION ( 'NONE',  ( -0.0000000000000000000, -1.000000000000000000, -0.0000000000000000000 ) ) ;
#471 = VECTOR ( 'NONE', #1152, 1000.000000000000000 ) ;
#472 = DIRECTION ( 'NONE',  ( 0.0000000000000000000, 0.0000000000000000000, -1.000000000000000000 ) ) ;
#473 = FACE_OUTER_BOUND ( 'NONE', #1048, .T. ) ;
#474 = CARTESIAN_POINT ( 'NONE',  ( 0.0000000000000000000, 0.0000000000000000000, 0.0000000000000000000 ) ) ;
#475 = ADVANCED_FACE ( 'NONE', ( #45 ), #1139, .F. ) ;
#476 = EDGE_CURVE ( 'NONE', #1146, #956, #849, .T. ) ;
#477 = VERTEX_POINT ( 'NONE', #77 ) ;
#478 = CARTESIAN_POINT ( 'NONE',  ( 0.0000000000000000000, 4.000000000000000000, -3.500000000000000000 ) ) ;
#479 = VERTEX_POINT ( 'NONE', #876 ) ;
#480 = APPLICATION_CONTEXT ( 'configuration controlled 3d designs of mechanical parts and assemblies' ) ;
#481 = ORIENTED_EDGE ( 'NONE', *, *, #661, .F. ) ;
#482 = DIRECTION ( 'NONE',  ( -1.000000000000000000, 0.0000000000000000000, 0.0000000000000000000 ) ) ;
#483 = MANIFOLD_SOLID_BREP ( 'Chamfer2', #730 ) ;
#484 = EDGE_CURVE ( 'NONE', #677, #479, #816, .T. ) ;
#485 = ADVANCED_FACE ( 'NONE', ( #374 ), #243, .F. ) ;
#486 = CONICAL_SURFACE ( 'NONE', #535, 1.425000000000002709, 0.7853981633974463916 ) ;
#487 = LINE ( 'NONE', #617, #357 ) ;
#488 = FACE_OUTER_BOUND ( 'NONE', #715, .T. ) ;
#489 = APPLICATION_PROTOCOL_DEFINITION ( 'international standard', 'config_control_design', 1994, #134 ) ;
#490 = ORIENTED_EDGE ( 'NONE', *, *, #423, .T. ) ;
#491 = EDGE_CURVE ( 'NONE', #643, #1, #307, .T. ) ;
#492 = ORIENTED_EDGE ( 'NONE', *, *, #667, .T. ) ;
#493 = CARTESIAN_POINT ( 'NONE',  ( 1.599999999999999423, -0.2000000000000000944, -4.200000000000000178 ) ) ;
#494 = ORIENTED_EDGE ( 'NONE', *, *, #963, .F. ) ;
#495 = DIRECTION ( 'NONE',  ( 0.0000000000000000000, 0.0000000000000000000, -1.000000000000000000 ) ) ;
#496 = ORIENTED_EDGE ( 'NONE', *, *, #1091, .T. ) ;
#497 = CARTESIAN_POINT ( 'NONE',  ( 3.000000000000000000, 3.500000000000000000, -13.39999999999999858 ) ) ;
#498 = AXIS2_PLACEMENT_3D ( 'NONE', #511, #608, #945 ) ;
#499 = DIRECTION ( 'NONE',  ( 0.0000000000000000000, 0.0000000000000000000, -1.000000000000000000 ) ) ;
#500 = LINE ( 'NONE', #456, #39 ) ;
#501 = VECTOR ( 'NONE', #514, 1000.000000000000000 ) ;
#502 = ORIENTED_EDGE ( 'NONE', *, *, #213, .T. ) ;
#503 = ORIENTED_EDGE ( 'NONE', *, *, #1005, .F. ) ;
#504 = CARTESIAN_POINT ( 'NONE',  ( 7.000000000000000000, 4.000000000000000000, -13.39999999999999858 ) ) ;
#505 = AXIS2_PLACEMENT_3D ( 'NONE', #186, #786, #704 ) ;
#506 = ORIENTED_EDGE ( 'NONE', *, *, #632, .T. ) ;
#507 = ORIENTED_EDGE ( 'NONE', *, *, #652, .T. ) ;
#508 = DIRECTION ( 'NONE',  ( -0.0000000000000000000, -0.0000000000000000000, -1.000000000000000000 ) ) ;
#509 = EDGE_CURVE ( 'NONE', #313, #833, #81, .T. ) ;
#510 = COORDINATED_UNIVERSAL_TIME_OFFSET ( 0, 0, .AHEAD. ) ;
#511 = CARTESIAN_POINT ( 'NONE',  ( 5.000000000000000000, 4.000000000000000000, -5.000000000000000000 ) ) ;
#512 = LINE ( 'NONE', #1108, #962 ) ;
#513 = FACE_OUTER_BOUND ( 'NONE', #253, .T. ) ;
#514 = DIRECTION ( 'NONE',  ( -0.0000000000000000000, -1.000000000000000000, -0.0000000000000000000 ) ) ;
#515 = CYLINDRICAL_SURFACE ( 'NONE', #949, 2.999999999999999112 ) ;
#516 = ORIENTED_EDGE ( 'NONE', *, *, #35, .F. ) ;
#517 = DIRECTION ( 'NONE',  ( 1.000000000000000000, 0.0000000000000000000, -0.0000000000000000000 ) ) ;
#518 = ORIENTED_EDGE ( 'NONE', *, *, #24, .T. ) ;
#519 = EDGE_CURVE ( 'NONE', #477, #30, #42, .T. ) ;
#520 = DIRECTION ( 'NONE',  ( -0.0000000000000000000, -1.000000000000000000, 0.0000000000000000000 ) ) ;
#521 = ORIENTED_EDGE ( 'NONE', *, *, #476, .T. ) ;
#522 = AXIS2_PLACEMENT_3D ( 'NONE', #1038, #62, #855 ) ;
#523 = EDGE_LOOP ( 'NONE', ( #437, #13, #63, #807 ) ) ;
#524 = CARTESIAN_POINT ( 'NONE',  ( 1.599999999999999423, -2.000000000000000000, -5.399999999999999467 ) ) ;
#525 = DIRECTION ( 'NONE',  ( -0.0000000000000000000, -0.0000000000000000000, 1.000000000000000000 ) ) ;
#526 = AXIS2_PLACEMENT_3D ( 'NONE', #563, #985, #740 ) ;
#527 = FACE_OUTER_BOUND ( 'NONE', #1102, .T. ) ;
#528 = CARTESIAN_POINT ( 'NONE',  ( 7.000000000000000000, 0.0000000000000000000, -6.000000000000000000 ) ) ;
#529 = FACE_OUTER_BOUND ( 'NONE', #622, .T. ) ;
#530 = FACE_OUTER_BOUND ( 'NONE', #439, .T. ) ;
#531 = VERTEX_POINT ( 'NONE', #958 ) ;
#532 = DIRECTION ( 'NONE',  ( -0.0000000000000000000, -1.000000000000000000, -0.0000000000000000000 ) ) ;
#533 = VERTEX_POINT ( 'NONE', #436 ) ;
#534 = EDGE_CURVE ( 'NONE', #633, #685, #104, .T. ) ;
#535 = AXIS2_PLACEMENT_3D ( 'NONE', #389, #376, #895 ) ;
#536 = CARTESIAN_POINT ( 'NONE',  ( 6.500000000000000888, 4.000000000000000000, -13.39999999999999858 ) ) ;
#537 = FACE_OUTER_BOUND ( 'NONE', #14, .T. ) ;
#538 = LINE ( 'NONE', #599, #763 ) ;
#539 = VECTOR ( 'NONE', #52, 1000.000000000000000 ) ;
#540 = CARTESIAN_POINT ( 'NONE',  ( 4.000000000000000000, 3.500000000000000000, -13.39999999999999858 ) ) ;
#541 = ORIENTED_EDGE ( 'NONE', *, *, #457, .T. ) ;
#542 = EDGE_LOOP ( 'NONE', ( #254, #1066, #1099, #163 ) ) ;
#543 = CARTESIAN_POINT ( 'NONE',  ( 2.000000000000000000, 4.000000000000000000, -5.000000000000000000 ) ) ;
#544 = DIRECTION ( 'NONE',  ( 0.0000000000000000000, -1.000000000000000000, 0.0000000000000000000 ) ) ;
#545 = ORIENTED_EDGE ( 'NONE', *, *, #1070, .F. ) ;
#546 = EDGE_CURVE ( 'NONE', #1146, #32, #391, .T. ) ;
#547 = ADVANCED_FACE ( 'NONE', ( #723 ), #154, .T. ) ;
#548 = CARTESIAN_POINT ( 'NONE',  ( 5.400000000000000355, -0.08284271247461914844, -5.400000000000000355 ) ) ;
#549 = DIRECTION ( 'NONE',  ( 0.0000000000000000000, 0.0000000000000000000, -1.000000000000000000 ) ) ;
#550 = DIRECTION ( 'NONE',  ( 0.0000000000000000000, -1.000000000000000000, 0.0000000000000000000 ) ) ;
#551 = CARTESIAN_POINT ( 'NONE',  ( 2.000000000000000000, 3.500000000000000000, -5.000000000000000000 ) ) ;
#552 = LOCAL_TIME ( 16, 57, 59.00000000000000000, #595 ) ;
#553 = LINE ( 'NONE', #132, #273 ) ;
#554 = AXIS2_PLACEMENT_3D ( 'NONE', #83, #798, #265 ) ;
#555 = ORIENTED_EDGE ( 'NONE', *, *, #787, .T. ) ;
#556 = CARTESIAN_POINT ( 'NONE',  ( 2.449293598294706414E-16, 4.000000000000000000, -6.000000000000000000 ) ) ;
#557 = VERTEX_POINT ( 'NONE', #469 ) ;
#558 = VERTEX_POINT ( 'NONE', #280 ) ;
#559 = ORIENTED_EDGE ( 'NONE', *, *, #304, .F. ) ;
#560 = CARTESIAN_POINT ( 'NONE',  ( 0.0000000000000000000, 4.000000000000000000, -13.39999999999999858 ) ) ;
#561 = PRODUCT_DEFINITION_SHAPE ( 'NONE', 'NONE',  #636 ) ;
#562 = DIRECTION ( 'NONE',  ( -0.0000000000000000000, -0.0000000000000000000, 1.000000000000000000 ) ) ;
#563 = CARTESIAN_POINT ( 'NONE',  ( 0.5000000000000000000, 3.500000000000000000, -13.39999999999999858 ) ) ;
#564 = APPLICATION_PROTOCOL_DEFINITION ( 'international standard', 'config_control_design', 1994, #480 ) ;
#565 = PERSON_AND_ORGANIZATION ( #126, #920 ) ;
#566 = CIRCLE ( 'NONE', #36, 2.499999999999998668 ) ;
#567 = CARTESIAN_POINT ( 'NONE',  ( 5.000000000000000000, 3.500000000000000000, -3.500000000000000000 ) ) ;
#568 = CARTESIAN_POINT ( 'NONE',  ( 3.500000000000000000, 3.499999999999995559, -13.39999999999999858 ) ) ;
#569 = CIRCLE ( 'NONE', #526, 0.5000000000000000000 ) ;
#570 = MECHANICAL_CONTEXT ( 'NONE', #480, 'mechanical' ) ;
#571 = EDGE_CURVE ( 'NONE', #1131, #349, #405, .T. ) ;
#572 = EDGE_LOOP ( 'NONE', ( #136, #646, #898, #4 ) ) ;
#573 = ORIENTED_EDGE ( 'NONE', *, *, #697, .F. ) ;
#574 = DIRECTION ( 'NONE',  ( 0.0000000000000000000, 0.0000000000000000000, -1.000000000000000000 ) ) ;
#575 = ORIENTED_EDGE ( 'NONE', *, *, #53, .F. ) ;
#576 = ORIENTED_EDGE ( 'NONE', *, *, #897, .F. ) ;
#577 = CARTESIAN_POINT ( 'NONE',  ( 0.0000000000000000000, 0.0000000000000000000, 0.0000000000000000000 ) ) ;
#578 = DIRECTION ( 'NONE',  ( 0.0000000000000000000, 0.0000000000000000000, -1.000000000000000000 ) ) ;
#579 = SECURITY_CLASSIFICATION_LEVEL ( 'unclassified' ) ;
#580 = EDGE_CURVE ( 'NONE', #1065, #148, #417, .T. ) ;
#581 = CC_DESIGN_DATE_AND_TIME_ASSIGNMENT ( #21, #222, ( #636 ) ) ;
#582 = CARTESIAN_POINT ( 'NONE',  ( 4.000000000000000000, 4.000000000000000000, -15.89999999999999680 ) ) ;
#583 = PERSON_AND_ORGANIZATION_ROLE ( 'creator' ) ;
#584 = PERSON_AND_ORGANIZATION ( #126, #920 ) ;
#585 = LINE ( 'NONE', #918, #144 ) ;
#586 = VECTOR ( 'NONE', #719, 1000.000000000000000 ) ;
#587 = CYLINDRICAL_SURFACE ( 'NONE', #764, 0.9250000000000004885 ) ;
#588 = AXIS2_PLACEMENT_3D ( 'NONE', #670, #1021, #495 ) ;
#589 = VERTEX_POINT ( 'NONE', #208 ) ;
#590 = ORIENTED_EDGE ( 'NONE', *, *, #491, .T. ) ;
#591 = ORIENTED_EDGE ( 'NONE', *, *, #632, .F. ) ;
#592 = EDGE_CURVE ( 'NONE', #198, #477, #569, .T. ) ;
#593 = AXIS2_PLACEMENT_3D ( 'NONE', #1001, #16, #289 ) ;
#594 = ADVANCED_FACE ( 'NONE', ( #950, #1011 ), #103, .F. ) ;
#595 = COORDINATED_UNIVERSAL_TIME_OFFSET ( 0, 0, .AHEAD. ) ;
#596 = CARTESIAN_POINT ( 'NONE',  ( 0.0000000000000000000, 0.0000000000000000000, -5.599999999999998757 ) ) ;
#597 = VECTOR ( 'NONE', #901, 1000.000000000000000 ) ;
#598 = FACE_OUTER_BOUND ( 'NONE', #201, .T. ) ;
#599 = CARTESIAN_POINT ( 'NONE',  ( 2.000000000000000000, 7.000000000000000000, -3.000000000000000000 ) ) ;
#600 = ORIENTED_EDGE ( 'NONE', *, *, #827, .T. ) ;
#601 = EDGE_CURVE ( 'NONE', #823, #116, #815, .T. ) ;
#602 = EDGE_LOOP ( 'NONE', ( #606, #658, #236, #326 ) ) ;
#603 = CARTESIAN_POINT ( 'NONE',  ( 3.500000000000000000, 4.000000000000000000, -11.97499999999999609 ) ) ;
#604 = AXIS2_PLACEMENT_3D ( 'NONE', #639, #902, #28 ) ;
#605 = EDGE_LOOP ( 'NONE', ( #1128, #1122, #1143, #631 ) ) ;
#606 = ORIENTED_EDGE ( 'NONE', *, *, #970, .T. ) ;
#607 = DIRECTION ( 'NONE',  ( -1.000000000000000000, 0.0000000000000000000, 0.0000000000000000000 ) ) ;
#608 = DIRECTION ( 'NONE',  ( -0.0000000000000000000, 1.000000000000000000, -0.0000000000000000000 ) ) ;
#609 = CARTESIAN_POINT ( 'NONE',  ( 3.500000000000000000, 7.000000000000000000, -14.32499999999999929 ) ) ;
#610 = EDGE_CURVE ( 'NONE', #863, #149, #847, .T. ) ;
#611 = DIRECTION ( 'NONE',  ( 0.0000000000000000000, -1.000000000000000000, 0.0000000000000000000 ) ) ;
#612 = DATE_AND_TIME ( #845, #330 ) ;
#613 = FACE_OUTER_BOUND ( 'NONE', #767, .T. ) ;
#614 = DIRECTION ( 'NONE',  ( -1.000000000000000000, 0.0000000000000000000, 0.0000000000000000000 ) ) ;
#615 = CIRCLE ( 'NONE', #468, 1.500000000000000444 ) ;
#616 = ORIENTED_EDGE ( 'NONE', *, *, #959, .T. ) ;
#617 = CARTESIAN_POINT ( 'NONE',  ( 3.500000000000000000, 4.000000000000000000, -14.82500000000000107 ) ) ;
#618 = EDGE_LOOP ( 'NONE', ( #702, #541, #676, #101 ) ) ;
#619 = EDGE_CURVE ( 'NONE', #558, #531, #841, .T. ) ;
#620 = ORIENTED_EDGE ( 'NONE', *, *, #846, .F. ) ;
#621 = CC_DESIGN_APPROVAL ( #1118, ( #927 ) ) ;
#622 = EDGE_LOOP ( 'NONE', ( #278, #1002, #885, #575 ) ) ;
#623 = CARTESIAN_POINT ( 'NONE',  ( 4.000000000000000000, 0.0000000000000000000, -16.39999999999999858 ) ) ;
#624 = CARTESIAN_POINT ( 'NONE',  ( 6.500000000000000888, 3.500000000000000000, -13.39999999999999858 ) ) ;
#625 = AXIS2_PLACEMENT_3D ( 'NONE', #567, #664, #398 ) ;
#626 = FACE_OUTER_BOUND ( 'NONE', #852, .T. ) ;
#627 = CARTESIAN_POINT ( 'NONE',  ( 7.000000000000000000, 2.500000000000000000, -11.29999999999999716 ) ) ;
#628 = LINE ( 'NONE', #309, #111 ) ;
#629 = FACE_OUTER_BOUND ( 'NONE', #174, .T. ) ;
#630 = ORIENTED_EDGE ( 'NONE', *, *, #652, .F. ) ;
#631 = ORIENTED_EDGE ( 'NONE', *, *, #1078, .F. ) ;
#632 = EDGE_CURVE ( 'NONE', #557, #833, #168, .T. ) ;
#633 = VERTEX_POINT ( 'NONE', #648 ) ;
#634 = DIRECTION ( 'NONE',  ( 0.0000000000000000000, 0.0000000000000000000, 1.000000000000000000 ) ) ;
#635 = CIRCLE ( 'NONE', #700, 0.5000000000000004441 ) ;
#636 = PRODUCT_DEFINITION ( 'UNKNOWN', '', #927, #375 ) ;
#637 = VECTOR ( 'NONE', #813, 1000.000000000000000 ) ;
#638 = DIRECTION ( 'NONE',  ( -0.0000000000000000000, 1.000000000000000000, -0.0000000000000000000 ) ) ;
#639 = CARTESIAN_POINT ( 'NONE',  ( 4.000000000000000000, 0.0000000000000000000, -13.39999999999999858 ) ) ;
#640 = FACE_BOUND ( 'NONE', #938, .T. ) ;
#641 = CARTESIAN_POINT ( 'NONE',  ( 1.517157287525380260, -1.283514567024508410E-16, -5.482842712474618629 ) ) ;
#642 = ORIENTED_EDGE ( 'NONE', *, *, #415, .T. ) ;
#643 = VERTEX_POINT ( 'NONE', #117 ) ;
#644 = CARTESIAN_POINT ( 'NONE',  ( 1.599999999999999423, -2.000000000000000000, -5.399999999999999467 ) ) ;
#645 = DIRECTION ( 'NONE',  ( -1.000000000000000000, 0.0000000000000000000, 0.0000000000000000000 ) ) ;
#646 = ORIENTED_EDGE ( 'NONE', *, *, #846, .T. ) ;
#647 = CARTESIAN_POINT ( 'NONE',  ( 2.000000000000000000, 0.0000000000000000000, -3.000000000000000000 ) ) ;
#648 = CARTESIAN_POINT ( 'NONE',  ( 5.399999999999999467, -0.2000000000000000944, -5.399999999999999467 ) ) ;
#649 = CARTESIAN_POINT ( 'NONE',  ( 0.0000000000000000000, 0.0000000000000000000, 0.0000000000000000000 ) ) ;
#650 = ADVANCED_FACE ( 'NONE', ( #791 ), #1081, .F. ) ;
#651 = LINE ( 'NONE', #716, #908 ) ;
#652 = EDGE_CURVE ( 'NONE', #50, #349, #752, .T. ) ;
#653 = VECTOR ( 'NONE', #675, 1000.000000000000000 ) ;
#654 = DIRECTION ( 'NONE',  ( 1.000000000000000000, 0.0000000000000000000, 0.0000000000000000000 ) ) ;
#655 = CARTESIAN_POINT ( 'NONE',  ( 0.5000000000000000000, 3.500000000000000000, -5.000000000000000000 ) ) ;
#656 = APPROVAL_ROLE ( '' ) ;
#657 = ORIENTED_EDGE ( 'NONE', *, *, #867, .F. ) ;
#658 = ORIENTED_EDGE ( 'NONE', *, *, #156, .T. ) ;
#659 = CARTESIAN_POINT ( 'NONE',  ( 0.0000000000000000000, 0.0000000000000000000, -16.39999999999999858 ) ) ;
#660 = CARTESIAN_POINT ( 'NONE',  ( 7.000000000000000000, 0.0000000000000000000, -5.000000000000000000 ) ) ;
#661 = EDGE_CURVE ( 'NONE', #1018, #50, #1101, .T. ) ;
#662 = ADVANCED_FACE ( 'NONE', ( #1063 ), #80, .F. ) ;
#663 = AXIS2_PLACEMENT_3D ( 'NONE', #655, #129, #835 ) ;
#664 = DIRECTION ( 'NONE',  ( -1.000000000000000000, 0.0000000000000000000, 0.0000000000000000000 ) ) ;
#665 = DIRECTION ( 'NONE',  ( -0.0000000000000000000, -1.000000000000000000, -0.0000000000000000000 ) ) ;
#666 = ADVANCED_FACE ( 'NONE', ( #371 ), #1112, .F. ) ;
#667 = EDGE_CURVE ( 'NONE', #967, #198, #553, .T. ) ;
#668 = LINE ( 'NONE', #1094, #597 ) ;
#669 = CARTESIAN_POINT ( 'NONE',  ( 1.599999999999999423, -0.2000000000000000944, -5.599999999999998757 ) ) ;
#670 = CARTESIAN_POINT ( 'NONE',  ( 3.500000000000000000, 2.500000000000000000, -8.199999999999999289 ) ) ;
#671 = APPROVAL_STATUS ( 'not_yet_approved' ) ;
#672 = EDGE_CURVE ( 'NONE', #877, #915, #585, .T. ) ;
#673 = VECTOR ( 'NONE', #221, 1000.000000000000000 ) ;
#674 = VERTEX_POINT ( 'NONE', #582 ) ;
#675 = DIRECTION ( 'NONE',  ( 0.0000000000000000000, 0.0000000000000000000, -1.000000000000000000 ) ) ;
#676 = ORIENTED_EDGE ( 'NONE', *, *, #672, .T. ) ;
#677 = VERTEX_POINT ( 'NONE', #1024 ) ;
#678 = VERTEX_POINT ( 'NONE', #928 ) ;
#679 = CC_DESIGN_PERSON_AND_ORGANIZATION_ASSIGNMENT ( #680, #1025, ( #733 ) ) ;
#680 = PERSON_AND_ORGANIZATION ( #126, #920 ) ;
#681 = LINE ( 'NONE', #442, #1151 ) ;
#682 = LINE ( 'NONE', #54, #445 ) ;
#683 = VERTEX_POINT ( 'NONE', #1107 ) ;
#684 = AXIS2_PLACEMENT_3D ( 'NONE', #759, #924, #482 ) ;
#685 = VERTEX_POINT ( 'NONE', #1103 ) ;
#686 = ORIENTED_EDGE ( 'NONE', *, *, #806, .T. ) ;
#687 = DIRECTION ( 'NONE',  ( 0.0000000000000000000, -1.000000000000000000, 0.0000000000000000000 ) ) ;
#688 = UNCERTAINTY_MEASURE_WITH_UNIT (LENGTH_MEASURE( 1.000000000000000082E-05 ), #394, 'distance_accuracy_value', 'NONE');
#689 = CARTESIAN_POINT ( 'NONE',  ( 5.399999999999999467, -2.000000000000000000, -5.399999999999999467 ) ) ;
#690 = EDGE_CURVE ( 'NONE', #859, #149, #831, .T. ) ;
#691 = AXIS2_PLACEMENT_3D ( 'NONE', #3, #259, #717 ) ;
#692 = DIRECTION ( 'NONE',  ( -1.000000000000000000, 0.0000000000000000000, 0.0000000000000000000 ) ) ;
#693 = LINE ( 'NONE', #969, #471 ) ;
#694 = VECTOR ( 'NONE', #961, 1000.000000000000000 ) ;
#695 = CARTESIAN_POINT ( 'NONE',  ( 1.399999999999999245, 0.0000000000000000000, 0.0000000000000000000 ) ) ;
#696 = VECTOR ( 'NONE', #147, 1000.000000000000000 ) ;
#697 = EDGE_CURVE ( 'NONE', #833, #557, #1077, .T. ) ;
#698 = VERTEX_POINT ( 'NONE', #403 ) ;
#699 = CARTESIAN_POINT ( 'NONE',  ( 1.399999999999999245, 0.0000000000000000000, -5.599999999999998757 ) ) ;
#700 = AXIS2_PLACEMENT_3D ( 'NONE', #624, #710, #722 ) ;
#701 = EDGE_LOOP ( 'NONE', ( #545, #212, #1031, #518, #250, #177 ) ) ;
#702 = ORIENTED_EDGE ( 'NONE', *, *, #44, .T. ) ;
#703 = ORIENTED_EDGE ( 'NONE', *, *, #661, .T. ) ;
#704 = DIRECTION ( 'NONE',  ( 0.0000000000000000000, 0.0000000000000000000, -1.000000000000000000 ) ) ;
#705 = CARTESIAN_POINT ( 'NONE',  ( 0.0000000000000000000, 0.0000000000000000000, -5.000000000000000000 ) ) ;
#706 = AXIS2_PLACEMENT_3D ( 'NONE', #986, #187, #472 ) ;
#707 = VECTOR ( 'NONE', #178, 1000.000000000000000 ) ;
#708 = FACE_OUTER_BOUND ( 'NONE', #943, .T. ) ;
#709 = LINE ( 'NONE', #560, #994 ) ;
#710 = DIRECTION ( 'NONE',  ( 0.0000000000000000000, 0.0000000000000000000, -1.000000000000000000 ) ) ;
#711 = EDGE_LOOP ( 'NONE', ( #1104, #630, #481, #1119 ) ) ;
#712 = EDGE_CURVE ( 'NONE', #758, #633, #628, .T. ) ;
#713 = ORIENTED_EDGE ( 'NONE', *, *, #396, .F. ) ;
#714 = CARTESIAN_POINT ( 'NONE',  ( 3.500000000000000000, 9.500000000000000000, -9.699999999999999289 ) ) ;
#715 = EDGE_LOOP ( 'NONE', ( #183, #600, #377, #422 ) ) ;
#716 = CARTESIAN_POINT ( 'NONE',  ( 5.399999999999999467, -2.000000000000000000, -5.399999999999999467 ) ) ;
#717 = DIRECTION ( 'NONE',  ( 0.0000000000000000000, 0.0000000000000000000, -1.000000000000000000 ) ) ;
#718 = AXIS2_PLACEMENT_3D ( 'NONE', #988, #1088, #275 ) ;
#719 = DIRECTION ( 'NONE',  ( 0.0000000000000000000, 0.0000000000000000000, -1.000000000000000000 ) ) ;
#720 = FACE_OUTER_BOUND ( 'NONE', #923, .T. ) ;
#721 = DIRECTION ( 'NONE',  ( -1.000000000000000000, 0.0000000000000000000, 0.0000000000000000000 ) ) ;
#722 = DIRECTION ( 'NONE',  ( -1.000000000000000000, 0.0000000000000000000, 0.0000000000000000000 ) ) ;
#723 = FACE_OUTER_BOUND ( 'NONE', #88, .T. ) ;
#724 = VECTOR ( 'NONE', #388, 1000.000000000000000 ) ;
#725 = EDGE_LOOP ( 'NONE', ( #836, #176, #1020, #266 ) ) ;
#726 = DIRECTION ( 'NONE',  ( -0.0000000000000000000, -0.0000000000000000000, 1.000000000000000000 ) ) ;
#727 = ORIENTED_EDGE ( 'NONE', *, *, #1026, .T. ) ;
#728 = EDGE_CURVE ( 'NONE', #674, #877, #1097, .T. ) ;
#729 = ORIENTED_EDGE ( 'NONE', *, *, #592, .F. ) ;
#730 = CLOSED_SHELL ( 'NONE', ( #1090, #1004, #20, #732, #475, #421, #650, #1117, #292, #594, #65, #428, #153, #219, #1012, #931, #385, #839, #485, #860, #868, #666, #192, #782, #744, #123, #662, #137, #1134, #746, #907, #316, #547, #1080, #406, #312, #1023 ) ) ;
#731 = DIRECTION ( 'NONE',  ( 1.000000000000000000, 0.0000000000000000000, 0.0000000000000000000 ) ) ;
#732 = ADVANCED_FACE ( 'NONE', ( #775, #95 ), #40, .T. ) ;
#733 = SECURITY_CLASSIFICATION ( '', '', #579 ) ;
#734 = FACE_BOUND ( 'NONE', #939, .T. ) ;
#735 = CARTESIAN_POINT ( 'NONE',  ( 5.000000000000000000, 3.500000000000000000, -5.000000000000000000 ) ) ;
#736 = FACE_OUTER_BOUND ( 'NONE', #350, .T. ) ;
#737 = DIRECTION ( 'NONE',  ( 0.0000000000000000000, 0.0000000000000000000, -1.000000000000000000 ) ) ;
#738 = VECTOR ( 'NONE', #912, 1000.000000000000000 ) ;
#739 = EDGE_LOOP ( 'NONE', ( #447, #1056, #335, #267 ) ) ;
#740 = DIRECTION ( 'NONE',  ( -1.000000000000000000, 0.0000000000000000000, 0.0000000000000000000 ) ) ;
#741 = DIRECTION ( 'NONE',  ( 0.0000000000000000000, -1.000000000000000000, 0.0000000000000000000 ) ) ;
#742 = ORIENTED_EDGE ( 'NONE', *, *, #484, .F. ) ;
#743 = CARTESIAN_POINT ( 'NONE',  ( 0.0000000000000000000, 3.500000000000000000, -15.89999999999999680 ) ) ;
#744 = ADVANCED_FACE ( 'NONE', ( #1029 ), #921, .F. ) ;
#745 = AXIS2_PLACEMENT_3D ( 'NONE', #848, #37, #127 ) ;
#746 = ADVANCED_FACE ( 'NONE', ( #858 ), #991, .T. ) ;
#747 = DIRECTION ( 'NONE',  ( 0.0000000000000000000, -1.000000000000000000, 0.0000000000000000000 ) ) ;
#748 = CARTESIAN_POINT ( 'NONE',  ( 7.000000000000000000, 4.000000000000000000, -5.000000000000000000 ) ) ;
#749 = DIRECTION ( 'NONE',  ( 0.0000000000000000000, 0.0000000000000000000, -1.000000000000000000 ) ) ;
#750 = FACE_OUTER_BOUND ( 'NONE', #336, .T. ) ;
#751 = EDGE_CURVE ( 'NONE', #589, #1085, #538, .T. ) ;
#752 = LINE ( 'NONE', #834, #653 ) ;
#753 = CC_DESIGN_PERSON_AND_ORGANIZATION_ASSIGNMENT ( #565, #43, ( #927 ) ) ;
#754 = DIRECTION ( 'NONE',  ( 0.0000000000000000000, 0.0000000000000000000, 1.000000000000000000 ) ) ;
#755 = LINE ( 'NONE', #980, #276 ) ;
#756 = CARTESIAN_POINT ( 'NONE',  ( 4.000000000000000000, 4.000000000000000000, -13.39999999999999858 ) ) ;
#757 = VERTEX_POINT ( 'NONE', #169 ) ;
#758 = VERTEX_POINT ( 'NONE', #441 ) ;
#759 = CARTESIAN_POINT ( 'NONE',  ( 1.399999999999999245, -0.2000000000000000944, -5.399999999999999467 ) ) ;
#760 = VERTEX_POINT ( 'NONE', #955 ) ;
#761 = EDGE_CURVE ( 'NONE', #412, #1018, #892, .T. ) ;
#762 = DIRECTION ( 'NONE',  ( 0.0000000000000000000, -1.000000000000000000, 0.0000000000000000000 ) ) ;
#763 = VECTOR ( 'NONE', #340, 1000.000000000000000 ) ;
#764 = AXIS2_PLACEMENT_3D ( 'NONE', #197, #470, #118 ) ;
#765 = CIRCLE ( 'NONE', #459, 2.499999999999998668 ) ;
#766 = VECTOR ( 'NONE', #721, 1000.000000000000000 ) ;
#767 = EDGE_LOOP ( 'NONE', ( #324, #238, #1106, #503 ) ) ;
#768 = CARTESIAN_POINT ( 'NONE',  ( 3.500000000000000000, 4.000000000000000000, -6.699999999999998401 ) ) ;
#769 = ORIENTED_EDGE ( 'NONE', *, *, #1109, .T. ) ;
#770 = PLANE ( 'NONE',  #799 ) ;
#771 = EDGE_CURVE ( 'NONE', #832, #283, #333, .T. ) ;
#772 = APPROVAL_PERSON_ORGANIZATION ( #801, #1118, #926 ) ;
#773 = DIRECTION ( 'NONE',  ( 0.0000000000000000000, -1.000000000000000000, 0.0000000000000000000 ) ) ;
#774 = VECTOR ( 'NONE', #906, 1000.000000000000000 ) ;
#775 = FACE_BOUND ( 'NONE', #572, .T. ) ;
#776 = EDGE_CURVE ( 'NONE', #683, #50, #131, .T. ) ;
#777 = DIRECTION ( 'NONE',  ( 0.0000000000000000000, 0.0000000000000000000, 1.000000000000000000 ) ) ;
#778 = LINE ( 'NONE', #209, #539 ) ;
#779 = AXIS2_PLACEMENT_3D ( 'NONE', #497, #687, #1121 ) ;
#780 = ORIENTED_EDGE ( 'NONE', *, *, #690, .F. ) ;
#781 = CARTESIAN_POINT ( 'NONE',  ( 5.000000000000000000, 4.000000000000000000, -5.000000000000000000 ) ) ;
#782 = ADVANCED_FACE ( 'NONE', ( #432 ), #802, .T. ) ;
#783 = ORIENTED_EDGE ( 'NONE', *, *, #970, .F. ) ;
#784 = ORIENTED_EDGE ( 'NONE', *, *, #297, .T. ) ;
#785 = CARTESIAN_POINT ( 'NONE',  ( 4.000000000000000000, 3.500000000000000000, -16.39999999999999858 ) ) ;
#786 = DIRECTION ( 'NONE',  ( 0.0000000000000000000, -1.000000000000000000, 0.0000000000000000000 ) ) ;
#787 = EDGE_CURVE ( 'NONE', #149, #677, #193, .T. ) ;
#788 = CARTESIAN_POINT ( 'NONE',  ( 3.500000000000000000, 0.0000000000000000000, -14.32499999999999929 ) ) ;
#789 = DIRECTION ( 'NONE',  ( 0.0000000000000000000, 0.0000000000000000000, -1.000000000000000000 ) ) ;
#790 = PERSON_AND_ORGANIZATION ( #126, #920 ) ;
#791 = FACE_OUTER_BOUND ( 'NONE', #618, .T. ) ;
#792 = VECTOR ( 'NONE', #947, 1000.000000000000000 ) ;
#793 = ORIENTED_EDGE ( 'NONE', *, *, #1047, .T. ) ;
#794 = ORIENTED_EDGE ( 'NONE', *, *, #546, .F. ) ;
#795 = CC_DESIGN_SECURITY_CLASSIFICATION ( #733, ( #927 ) ) ;
#796 = EDGE_LOOP ( 'NONE', ( #861, #214, #803, #71 ) ) ;
#797 = DIRECTION ( 'NONE',  ( 0.0000000000000000000, 0.0000000000000000000, -1.000000000000000000 ) ) ;
#798 = DIRECTION ( 'NONE',  ( -0.0000000000000000000, -1.000000000000000000, -0.0000000000000000000 ) ) ;
#799 = AXIS2_PLACEMENT_3D ( 'NONE', #866, #614, #1144 ) ;
#800 = CARTESIAN_POINT ( 'NONE',  ( 0.0000000000000000000, 3.500000000000000000, -3.500000000000000000 ) ) ;
#801 = PERSON_AND_ORGANIZATION ( #126, #920 ) ;
#802 = CYLINDRICAL_SURFACE ( 'NONE', #334, 2.000000000000000000 ) ;
#803 = ORIENTED_EDGE ( 'NONE', *, *, #534, .F. ) ;
#804 = CARTESIAN_POINT ( 'NONE',  ( 0.0000000000000000000, 3.500000000000000000, -5.000000000000000000 ) ) ;
#805 = ORIENTED_EDGE ( 'NONE', *, *, #358, .F. ) ;
#806 = EDGE_CURVE ( 'NONE', #313, #1147, #487, .T. ) ;
#807 = ORIENTED_EDGE ( 'NONE', *, *, #24, .F. ) ;
#808 = CARTESIAN_POINT ( 'NONE',  ( 7.000000000000000000, 4.000000000000000000, -11.29999999999999716 ) ) ;
#809 = DIRECTION ( 'NONE',  ( -0.0000000000000000000, 0.0000000000000000000, 1.000000000000000000 ) ) ;
#810 = DIRECTION ( 'NONE',  ( 1.000000000000000000, 0.0000000000000000000, 0.0000000000000000000 ) ) ;
#811 = CARTESIAN_POINT ( 'NONE',  ( 1.599999999999999423, -0.2000000000000000944, -4.200000000000000178 ) ) ;
#812 = APPROVAL ( #1105, 'UNSPECIFIED' ) ;
#813 = DIRECTION ( 'NONE',  ( 0.0000000000000000000, 0.0000000000000000000, -1.000000000000000000 ) ) ;
#814 = CARTESIAN_POINT ( 'NONE',  ( 1.599999999999999423, -0.2000000000000000944, -5.399999999999999467 ) ) ;
#815 = LINE ( 'NONE', #460, #637 ) ;
#816 = CIRCLE ( 'NONE', #1124, 0.5000000000000004441 ) ;
#817 = DIRECTION ( 'NONE',  ( 0.0000000000000000000, -1.000000000000000000, 0.0000000000000000000 ) ) ;
#818 = FACE_OUTER_BOUND ( 'NONE', #725, .T. ) ;
#819 = DIRECTION ( 'NONE',  ( -1.000000000000000000, 0.0000000000000000000, -0.0000000000000000000 ) ) ;
#820 = VERTEX_POINT ( 'NONE', #705 ) ;
#821 = AXIS2_PLACEMENT_3D ( 'NONE', #367, #189, #910 ) ;
#822 = ORIENTED_EDGE ( 'NONE', *, *, #1005, .T. ) ;
#823 = VERTEX_POINT ( 'NONE', #69 ) ;
#824 = CARTESIAN_POINT ( 'NONE',  ( 2.449293598294706414E-16, 0.0000000000000000000, -6.000000000000000000 ) ) ;
#825 = CARTESIAN_POINT ( 'NONE',  ( 5.599999999999998757, 0.0000000000000000000, 0.0000000000000000000 ) ) ;
#826 = DIRECTION ( 'NONE',  ( 0.0000000000000000000, -0.0000000000000000000, -1.000000000000000000 ) ) ;
#827 = EDGE_CURVE ( 'NONE', #589, #967, #344, .T. ) ;
#828 = PERSON_AND_ORGANIZATION ( #126, #920 ) ;
#829 = VECTOR ( 'NONE', #562, 1000.000000000000000 ) ;
#830 = CARTESIAN_POINT ( 'NONE',  ( 2.000000000000000000, 4.000000000000000000, -5.000000000000000000 ) ) ;
#831 = CIRCLE ( 'NONE', #625, 0.5000000000000000000 ) ;
#832 = VERTEX_POINT ( 'NONE', #429 ) ;
#833 = VERTEX_POINT ( 'NONE', #788 ) ;
#834 = CARTESIAN_POINT ( 'NONE',  ( 1.599999999999999423, -0.2000000000000000944, -5.399999999999999467 ) ) ;
#835 = DIRECTION ( 'NONE',  ( -1.000000000000000000, 0.0000000000000000000, 0.0000000000000000000 ) ) ;
#836 = ORIENTED_EDGE ( 'NONE', *, *, #942, .F. ) ;
#837 = CARTESIAN_POINT ( 'NONE',  ( 3.000000000000000000, 4.000000000000000000, -13.39999999999999858 ) ) ;
#838 = ORIENTED_EDGE ( 'NONE', *, *, #173, .F. ) ;
#839 = ADVANCED_FACE ( 'NONE', ( #613 ), #255, .F. ) ;
#840 = DIRECTION ( 'NONE',  ( 0.0000000000000000000, 0.0000000000000000000, -1.000000000000000000 ) ) ;
#841 =( BOUNDED_CURVE ( )  B_SPLINE_CURVE ( 3, ( #195, #893, #372, #112 ),
 .UNSPECIFIED., .F., .F. ) 
 B_SPLINE_CURVE_WITH_KNOTS ( ( 4, 4 ),
 ( 3.141592653589793116, 4.712388980384689674 ),
 .UNSPECIFIED. ) 
 CURVE ( )  GEOMETRIC_REPRESENTATION_ITEM ( )  RATIONAL_B_SPLINE_CURVE ( ( 1.000000000000000000, 0.8047378541243649375, 0.8047378541243649375, 1.000000000000000000 ) ) 
 REPRESENTATION_ITEM ( '' )  );
#842 = CARTESIAN_POINT ( 'NONE',  ( 1.517157287525380260, -1.140038269859764639E-16, -4.117157287525381015 ) ) ;
#843 = CARTESIAN_POINT ( 'NONE',  ( 3.000000000000000000, 3.500000000000000000, -13.39999999999999858 ) ) ;
#844 = DIRECTION ( 'NONE',  ( -0.0000000000000000000, 1.000000000000000000, -0.0000000000000000000 ) ) ;
#845 = CALENDAR_DATE ( 2019, 12, 12 ) ;
#846 = EDGE_CURVE ( 'NONE', #1018, #531, #977, .T. ) ;
#847 = LINE ( 'NONE', #478, #320 ) ;
#848 = CARTESIAN_POINT ( 'NONE',  ( 0.0000000000000000000, -2.000000000000000000, 0.0000000000000000000 ) ) ;
#849 = LINE ( 'NONE', #361, #586 ) ;
#850 = CARTESIAN_POINT ( 'NONE',  ( 0.0000000000000000000, 4.000000000000000000, -5.000000000000000000 ) ) ;
#851 = VECTOR ( 'NONE', #205, 1000.000000000000000 ) ;
#852 = EDGE_LOOP ( 'NONE', ( #996, #381, #359, #135 ) ) ;
#853 = AXIS2_PLACEMENT_3D ( 'NONE', #689, #951, #1137 ) ;
#854 = DIRECTION ( 'NONE',  ( 0.0000000000000000000, -0.0000000000000000000, -1.000000000000000000 ) ) ;
#855 = DIRECTION ( 'NONE',  ( 1.000000000000000000, 0.0000000000000000000, 0.0000000000000000000 ) ) ;
#856 = FACE_BOUND ( 'NONE', #240, .T. ) ;
#857 = AXIS2_PLACEMENT_3D ( 'NONE', #404, #665, #1008 ) ;
#858 = FACE_OUTER_BOUND ( 'NONE', #605, .T. ) ;
#859 = VERTEX_POINT ( 'NONE', #1049 ) ;
#860 = ADVANCED_FACE ( 'NONE', ( #513 ), #257, .F. ) ;
#861 = ORIENTED_EDGE ( 'NONE', *, *, #1130, .F. ) ;
#862 = DIRECTION ( 'NONE',  ( -0.0000000000000000000, 1.000000000000000000, -0.0000000000000000000 ) ) ;
#863 = VERTEX_POINT ( 'NONE', #1051 ) ;
#864 = DIRECTION ( 'NONE',  ( 0.0000000000000000000, -1.000000000000000000, 0.0000000000000000000 ) ) ;
#865 = ORIENTED_EDGE ( 'NONE', *, *, #946, .T. ) ;
#866 = CARTESIAN_POINT ( 'NONE',  ( 7.000000000000000000, 4.000000000000000000, 0.0000000000000000000 ) ) ;
#867 = EDGE_CURVE ( 'NONE', #678, #956, #10, .T. ) ;
#868 = ADVANCED_FACE ( 'NONE', ( #598 ), #351, .F. ) ;
#869 = CARTESIAN_POINT ( 'NONE',  ( 1.599999999999999423, -2.000000000000000000, -4.200000000000000178 ) ) ;
#870 = VECTOR ( 'NONE', #638, 1000.000000000000000 ) ;
#871 = VECTOR ( 'NONE', #310, 1000.000000000000000 ) ;
#872 = CC_DESIGN_PERSON_AND_ORGANIZATION_ASSIGNMENT ( #933, #583, ( #636 ) ) ;
#873 = LINE ( 'NONE', #556, #851 ) ;
#874 = DIRECTION ( 'NONE',  ( -0.0000000000000000000, 1.000000000000000000, -0.0000000000000000000 ) ) ;
#875 = ORIENTED_EDGE ( 'NONE', *, *, #72, .F. ) ;
#876 = CARTESIAN_POINT ( 'NONE',  ( 7.000000000000000000, 3.500000000000000000, -5.000000000000000000 ) ) ;
#877 = VERTEX_POINT ( 'NONE', #785 ) ;
#878 = VERTEX_POINT ( 'NONE', #433 ) ;
#879 = AXIS2_PLACEMENT_3D ( 'NONE', #108, #373, #549 ) ;
#880 = FACE_OUTER_BOUND ( 'NONE', #420, .T. ) ;
#881 = DIRECTION ( 'NONE',  ( -0.0000000000000000000, 0.0000000000000000000, 1.000000000000000000 ) ) ;
#882 = VECTOR ( 'NONE', #424, 1000.000000000000000 ) ;
#883 = EDGE_CURVE ( 'NONE', #349, #633, #455, .T. ) ;
#884 = CIRCLE ( 'NONE', #1071, 0.9250000000000004885 ) ;
#885 = ORIENTED_EDGE ( 'NONE', *, *, #1062, .F. ) ;
#886 = AXIS2_PLACEMENT_3D ( 'NONE', #743, #384, #1074 ) ;
#887 = CARTESIAN_POINT ( 'NONE',  ( 0.0000000000000000000, 7.000000000000000000, -3.000000000000000000 ) ) ;
#888 = ORIENTED_EDGE ( 'NONE', *, *, #1078, .T. ) ;
#889 = ORIENTED_EDGE ( 'NONE', *, *, #423, .F. ) ;
#890 = DIRECTION ( 'NONE',  ( 1.000000000000000000, -0.0000000000000000000, 0.0000000000000000000 ) ) ;
#891 = CONICAL_SURFACE ( 'NONE', #593, 1.425000000000002709, 0.7853981633974463916 ) ;
#892 = LINE ( 'NONE', #695, #306 ) ;
#893 = CARTESIAN_POINT ( 'NONE',  ( 5.400000000000000355, -0.08284271247461914844, -4.200000000000000178 ) ) ;
#894 = CIRCLE ( 'NONE', #588, 1.499999999999999556 ) ;
#895 = DIRECTION ( 'NONE',  ( 0.0000000000000000000, 0.0000000000000000000, 1.000000000000000000 ) ) ;
#896 = ORIENTED_EDGE ( 'NONE', *, *, #304, .T. ) ;
#897 = EDGE_CURVE ( 'NONE', #877, #757, #272, .T. ) ;
#898 = ORIENTED_EDGE ( 'NONE', *, *, #140, .T. ) ;
#899 = DIRECTION ( 'NONE',  ( -0.0000000000000000000, 1.000000000000000000, -0.0000000000000000000 ) ) ;
#900 = EDGE_LOOP ( 'NONE', ( #84, #576, #1044, #5 ) ) ;
#901 = DIRECTION ( 'NONE',  ( -0.0000000000000000000, 1.000000000000000000, -0.0000000000000000000 ) ) ;
#902 = DIRECTION ( 'NONE',  ( 0.0000000000000000000, -1.000000000000000000, 0.0000000000000000000 ) ) ;
#903 = DIRECTION ( 'NONE',  ( -0.0000000000000000000, -0.0000000000000000000, 1.000000000000000000 ) ) ;
#904 = CC_DESIGN_PERSON_AND_ORGANIZATION_ASSIGNMENT ( #790, #1111, ( #927 ) ) ;
#905 = CARTESIAN_POINT ( 'NONE',  ( 5.599999999999998757, 0.0000000000000000000, -5.599999999999998757 ) ) ;
#906 = DIRECTION ( 'NONE',  ( 1.000000000000000000, 0.0000000000000000000, 0.0000000000000000000 ) ) ;
#907 = ADVANCED_FACE ( 'NONE', ( #975 ), #190, .T. ) ;
#908 = VECTOR ( 'NONE', #268, 1000.000000000000000 ) ;
#909 = FACE_OUTER_BOUND ( 'NONE', #701, .T. ) ;
#910 = DIRECTION ( 'NONE',  ( 0.0000000000000000000, -0.0000000000000000000, 1.000000000000000000 ) ) ;
#911 = LINE ( 'NONE', #302, #724 ) ;
#912 = DIRECTION ( 'NONE',  ( -0.0000000000000000000, -0.0000000000000000000, -1.000000000000000000 ) ) ;
#913 = ORIENTED_EDGE ( 'NONE', *, *, #332, .T. ) ;
#914 = AXIS2_PLACEMENT_3D ( 'NONE', #1114, #48, #840 ) ;
#915 = VERTEX_POINT ( 'NONE', #623 ) ;
#916 = DIRECTION ( 'NONE',  ( 0.0000000000000000000, 0.0000000000000000000, -1.000000000000000000 ) ) ;
#917 = DIRECTION ( 'NONE',  ( 0.0000000000000000000, -1.000000000000000000, 0.0000000000000000000 ) ) ;
#918 = CARTESIAN_POINT ( 'NONE',  ( 4.000000000000000000, 4.000000000000000000, -16.39999999999999858 ) ) ;
#919 = EDGE_CURVE ( 'NONE', #633, #558, #1095, .T. ) ;
#920 = ORGANIZATION ( 'UNSPECIFIED', 'UNSPECIFIED', '' ) ;
#921 = CYLINDRICAL_SURFACE ( 'NONE', #242, 0.1999999999999996503 ) ;
#922 = CIRCLE ( 'NONE', #505, 2.000000000000000000 ) ;
#923 = EDGE_LOOP ( 'NONE', ( #1084, #399, #448, #2 ) ) ;
#924 = DIRECTION ( 'NONE',  ( 0.0000000000000000000, 0.0000000000000000000, -1.000000000000000000 ) ) ;
#925 = ORIENTED_EDGE ( 'NONE', *, *, #667, .F. ) ;
#926 = APPROVAL_ROLE ( '' ) ;
#927 = PRODUCT_DEFINITION_FORMATION_WITH_SPECIFIED_SOURCE ( 'ANY', '', #282, .NOT_KNOWN. ) ;
#928 = CARTESIAN_POINT ( 'NONE',  ( 7.000000000000000000, 2.500000000000000000, -6.000000000000000000 ) ) ;
#929 = CARTESIAN_POINT ( 'NONE',  ( 3.500000000000000000, 3.499999999999995559, -12.47499999999999787 ) ) ;
#930 = CARTESIAN_POINT ( 'NONE',  ( 0.0000000000000000000, 0.0000000000000000000, 0.0000000000000000000 ) ) ;
#931 = ADVANCED_FACE ( 'NONE', ( #527 ), #363, .T. ) ;
#932 = CARTESIAN_POINT ( 'NONE',  ( 2.449293598294706414E-16, 4.000000000000000000, -6.000000000000000000 ) ) ;
#933 = PERSON_AND_ORGANIZATION ( #126, #920 ) ;
#934 = AXIS2_PLACEMENT_3D ( 'NONE', #932, #499, #1123 ) ;
#935 = CYLINDRICAL_SURFACE ( 'NONE', #554, 1.499999999999999556 ) ;
#936 = CIRCLE ( 'NONE', #444, 0.5000000000000000000 ) ;
#937 = DIRECTION ( 'NONE',  ( 0.0000000000000000000, 0.7071067811865489050, 0.7071067811865461294 ) ) ;
#938 = EDGE_LOOP ( 'NONE', ( #573, #591 ) ) ;
#939 = EDGE_LOOP ( 'NONE', ( #793, #87 ) ) ;
#940 = ORIENTED_EDGE ( 'NONE', *, *, #751, .T. ) ;
#941 = CARTESIAN_POINT ( 'NONE',  ( 5.399999999999999467, -2.000000000000000000, -4.200000000000000178 ) ) ;
#942 = EDGE_CURVE ( 'NONE', #279, #557, #681, .T. ) ;
#943 = EDGE_LOOP ( 'NONE', ( #875, #362, #1057, #1087 ) ) ;
#944 = DIRECTION ( 'NONE',  ( 0.0000000000000000000, -1.000000000000000000, 0.0000000000000000000 ) ) ;
#945 = DIRECTION ( 'NONE',  ( 0.0000000000000000000, 0.0000000000000000000, -1.000000000000000000 ) ) ;
#946 = EDGE_CURVE ( 'NONE', #338, #558, #693, .T. ) ;
#947 = DIRECTION ( 'NONE',  ( -0.0000000000000000000, -0.0000000000000000000, 1.000000000000000000 ) ) ;
#948 = LINE ( 'NONE', #369, #390 ) ;
#949 = AXIS2_PLACEMENT_3D ( 'NONE', #247, #520, #451 ) ;
#950 = FACE_BOUND ( 'NONE', #1037, .T. ) ;
#951 = DIRECTION ( 'NONE',  ( -1.000000000000000000, 0.0000000000000000000, 0.0000000000000000000 ) ) ;
#952 = TOROIDAL_SURFACE ( 'NONE', #1058, 2.500000000000000000, 0.5000000000000000000 ) ;
#953 = ORIENTED_EDGE ( 'NONE', *, *, #580, .T. ) ;
#954 = ORIENTED_EDGE ( 'NONE', *, *, #787, .F. ) ;
#955 = CARTESIAN_POINT ( 'NONE',  ( 2.449293598294706414E-16, 0.0000000000000000000, -6.000000000000000000 ) ) ;
#956 = VERTEX_POINT ( 'NONE', #528 ) ;
#957 = ORIENTED_EDGE ( 'NONE', *, *, #963, .T. ) ;
#958 = CARTESIAN_POINT ( 'NONE',  ( 5.599999999999998757, 0.0000000000000000000, -4.000000000000000000 ) ) ;
#959 = EDGE_CURVE ( 'NONE', #283, #832, #232, .T. ) ;
#960 = DIRECTION ( 'NONE',  ( -1.000000000000000000, 0.0000000000000000000, 0.0000000000000000000 ) ) ;
#961 = DIRECTION ( 'NONE',  ( 0.0000000000000000000, -1.000000000000000000, 0.0000000000000000000 ) ) ;
#962 = VECTOR ( 'NONE', #34, 1000.000000000000000 ) ;
#963 = EDGE_CURVE ( 'NONE', #1085, #32, #500, .T. ) ;
#964 = LINE ( 'NONE', #504, #1079 ) ;
#965 = VECTOR ( 'NONE', #726, 1000.000000000000000 ) ;
#966 = ORIENTED_EDGE ( 'NONE', *, *, #165, .F. ) ;
#967 = VERTEX_POINT ( 'NONE', #804 ) ;
#968 = ORIENTED_EDGE ( 'NONE', *, *, #269, .F. ) ;
#969 = CARTESIAN_POINT ( 'NONE',  ( 5.399999999999999467, -2.000000000000000000, -4.200000000000000178 ) ) ;
#970 = EDGE_CURVE ( 'NONE', #1016, #678, #443, .T. ) ;
#971 = AXIS2_PLACEMENT_3D ( 'NONE', #220, #762, #1019 ) ;
#972 = DIRECTION ( 'NONE',  ( 0.0000000000000000000, 0.0000000000000000000, -1.000000000000000000 ) ) ;
#973 = LOCAL_TIME ( 16, 57, 59.00000000000000000, #510 ) ;
#974 = CARTESIAN_POINT ( 'NONE',  ( 6.500000000000000888, 3.500000000000000000, -5.000000000000000000 ) ) ;
#975 = FACE_OUTER_BOUND ( 'NONE', #739, .T. ) ;
#976 = CARTESIAN_POINT ( 'NONE',  ( 1.599999999999999423, -2.000000000000000000, -5.399999999999999467 ) ) ;
#977 = LINE ( 'NONE', #78, #246 ) ;
#978 = EDGE_CURVE ( 'NONE', #997, #757, #635, .T. ) ;
#979 = FACE_OUTER_BOUND ( 'NONE', #308, .T. ) ;
#980 = CARTESIAN_POINT ( 'NONE',  ( 0.0000000000000000000, 3.500000000000000000, -16.39999999999999858 ) ) ;
#981 = ORIENTED_EDGE ( 'NONE', *, *, #72, .T. ) ;
#982 = CARTESIAN_POINT ( 'NONE',  ( 3.000000000000000000, 4.000000000000000000, -16.39999999999999858 ) ) ;
#983 = VERTEX_POINT ( 'NONE', #89 ) ;
#984 = ORIENTED_EDGE ( 'NONE', *, *, #619, .T. ) ;
#985 = DIRECTION ( 'NONE',  ( 0.0000000000000000000, 0.0000000000000000000, -1.000000000000000000 ) ) ;
#986 = CARTESIAN_POINT ( 'NONE',  ( 3.500000000000000000, 7.000000000000000000, -13.39999999999999858 ) ) ;
#987 = CC_DESIGN_DATE_AND_TIME_ASSIGNMENT ( #354, #142, ( #733 ) ) ;
#988 = CARTESIAN_POINT ( 'NONE',  ( 5.599999999999998757, -0.2000000000000000944, -5.399999999999999467 ) ) ;
#989 = CARTESIAN_POINT ( 'NONE',  ( 0.0000000000000000000, 4.000000000000000000, 0.0000000000000000000 ) ) ;
#990 = APPROVAL_DATE_TIME ( #612, #93 ) ;
#991 = CYLINDRICAL_SURFACE ( 'NONE', #360, 0.5000000000000004441 ) ;
#992 = CIRCLE ( 'NONE', #86, 1.499999999999999556 ) ;
#993 = CARTESIAN_POINT ( 'NONE',  ( 1.599999999999999423, -2.000000000000000000, -5.399999999999999467 ) ) ;
#994 = VECTOR ( 'NONE', #466, 1000.000000000000000 ) ;
#995 = AXIS2_PLACEMENT_3D ( 'NONE', #386, #380, #383 ) ;
#996 = ORIENTED_EDGE ( 'NONE', *, *, #959, .F. ) ;
#997 = VERTEX_POINT ( 'NONE', #536 ) ;
#998 = CARTESIAN_POINT ( 'NONE',  ( 5.399999999999999467, -0.2000000000000000944, -5.399999999999999467 ) ) ;
#999 = CARTESIAN_POINT ( 'NONE',  ( 0.0000000000000000000, 2.500000000000000000, -11.29999999999999716 ) ) ;
#1000 = ORIENTED_EDGE ( 'NONE', *, *, #431, .F. ) ;
#1001 = CARTESIAN_POINT ( 'NONE',  ( 3.500000000000000000, 4.000000000000000000, -13.39999999999999858 ) ) ;
#1002 = ORIENTED_EDGE ( 'NONE', *, *, #867, .T. ) ;
#1003 = PLANE ( 'NONE',  #270 ) ;
#1004 = ADVANCED_FACE ( 'NONE', ( #626 ), #935, .F. ) ;
#1005 = EDGE_CURVE ( 'NONE', #758, #338, #651, .T. ) ;
#1006 = AXIS2_PLACEMENT_3D ( 'NONE', #114, #295, #737 ) ;
#1007 = DATE_AND_TIME ( #92, #143 ) ;
#1008 = DIRECTION ( 'NONE',  ( 0.0000000000000000000, 0.0000000000000000000, -1.000000000000000000 ) ) ;
#1009 =( NAMED_UNIT ( * ) PLANE_ANGLE_UNIT ( ) SI_UNIT ( $, .RADIAN. ) );
#1010 = VECTOR ( 'NONE', #90, 1000.000000000000000 ) ;
#1011 = FACE_OUTER_BOUND ( 'NONE', #602, .T. ) ;
#1012 = ADVANCED_FACE ( 'NONE', ( #537 ), #1060, .F. ) ;
#1013 = DIRECTION ( 'NONE',  ( 0.0000000000000000000, -1.000000000000000000, 0.0000000000000000000 ) ) ;
#1014 = FACE_OUTER_BOUND ( 'NONE', #1043, .T. ) ;
#1015 = DIRECTION ( 'NONE',  ( 0.0000000000000000000, -1.000000000000000000, 0.0000000000000000000 ) ) ;
#1016 = VERTEX_POINT ( 'NONE', #627 ) ;
#1017 = AXIS2_PLACEMENT_3D ( 'NONE', #1028, #239, #854 ) ;
#1018 = VERTEX_POINT ( 'NONE', #462 ) ;
#1019 = DIRECTION ( 'NONE',  ( 0.0000000000000000000, 0.0000000000000000000, -1.000000000000000000 ) ) ;
#1020 = ORIENTED_EDGE ( 'NONE', *, *, #509, .T. ) ;
#1021 = DIRECTION ( 'NONE',  ( 0.0000000000000000000, -1.000000000000000000, 0.0000000000000000000 ) ) ;
#1022 = DIRECTION ( 'NONE',  ( 1.000000000000000000, 0.0000000000000000000, 0.0000000000000000000 ) ) ;
#1023 = ADVANCED_FACE ( 'NONE', ( #720 ), #486, .F. ) ;
#1024 = CARTESIAN_POINT ( 'NONE',  ( 6.500000000000000888, 4.000000000000000000, -5.000000000000000000 ) ) ;
#1025 = PERSON_AND_ORGANIZATION_ROLE ( 'classification_officer' ) ;
#1026 = EDGE_CURVE ( 'NONE', #1131, #758, #1061, .T. ) ;
#1027 = APPROVAL_DATE_TIME ( #128, #1118 ) ;
#1028 = CARTESIAN_POINT ( 'NONE',  ( 0.0000000000000000000, 0.0000000000000000000, 0.0000000000000000000 ) ) ;
#1029 = FACE_OUTER_BOUND ( 'NONE', #796, .T. ) ;
#1030 = LINE ( 'NONE', #850, #696 ) ;
#1031 = ORIENTED_EDGE ( 'NONE', *, *, #248, .F. ) ;
#1032 = ORIENTED_EDGE ( 'NONE', *, *, #269, .T. ) ;
#1033 = CARTESIAN_POINT ( 'NONE',  ( 3.500000000000000000, 3.499999999999995559, -14.32499999999999929 ) ) ;
#1034 = ORIENTED_EDGE ( 'NONE', *, *, #1150, .F. ) ;
#1035 = EDGE_CURVE ( 'NONE', #533, #698, #152, .T. ) ;
#1036 = ORIENTED_EDGE ( 'NONE', *, *, #151, .T. ) ;
#1037 = EDGE_LOOP ( 'NONE', ( #968, #348 ) ) ;
#1038 = CARTESIAN_POINT ( 'NONE',  ( 0.5000000000000000000, 3.500000000000000000, 0.0000000000000000000 ) ) ;
#1039 = APPROVAL_PERSON_ORGANIZATION ( #828, #812, #315 ) ;
#1040 = TOROIDAL_SURFACE ( 'NONE', #319, 1.500000000000000000, 0.5000000000000000000 ) ;
#1041 = VECTOR ( 'NONE', #874, 1000.000000000000000 ) ;
#1042 = CARTESIAN_POINT ( 'NONE',  ( 1.599999999999999423, -0.2000000000000000944, -5.399999999999999467 ) ) ;
#1043 = EDGE_LOOP ( 'NONE', ( #314, #325, #408, #75 ) ) ;
#1044 = ORIENTED_EDGE ( 'NONE', *, *, #728, .F. ) ;
#1045 = ORIENTED_EDGE ( 'NONE', *, *, #1062, .T. ) ;
#1046 = DIRECTION ( 'NONE',  ( -0.0000000000000000000, 1.000000000000000000, -0.0000000000000000000 ) ) ;
#1047 = EDGE_CURVE ( 'NONE', #73, #1147, #180, .T. ) ;
#1048 = EDGE_LOOP ( 'NONE', ( #953, #98, #397, #226 ) ) ;
#1049 = CARTESIAN_POINT ( 'NONE',  ( 5.000000000000000000, 3.500000000000000000, -3.000000000000000000 ) ) ;
#1050 = CC_DESIGN_APPROVAL ( #93, ( #733 ) ) ;
#1051 = CARTESIAN_POINT ( 'NONE',  ( 2.000000000000000000, 4.000000000000000000, -3.500000000000000000 ) ) ;
#1052 = VECTOR ( 'NONE', #1125, 1000.000000000000000 ) ;
#1053 = VECTOR ( 'NONE', #284, 1000.000000000000000 ) ;
#1054 = ORIENTED_EDGE ( 'NONE', *, *, #366, .T. ) ;
#1055 = DIRECTION ( 'NONE',  ( 0.0000000000000000000, 0.0000000000000000000, -1.000000000000000000 ) ) ;
#1056 = ORIENTED_EDGE ( 'NONE', *, *, #610, .F. ) ;
#1057 = ORIENTED_EDGE ( 'NONE', *, *, #44, .F. ) ;
#1058 = AXIS2_PLACEMENT_3D ( 'NONE', #1129, #944, #64 ) ;
#1059 = CARTESIAN_POINT ( 'NONE',  ( 7.000000000000000000, 2.500000000000000000, -4.000000000000000000 ) ) ;
#1060 = PLANE ( 'NONE',  #440 ) ;
#1061 = LINE ( 'NONE', #23, #290 ) ;
#1062 = EDGE_CURVE ( 'NONE', #760, #956, #207, .T. ) ;
#1063 = FACE_OUTER_BOUND ( 'NONE', #711, .T. ) ;
#1064 = CARTESIAN_POINT ( 'NONE',  ( 0.0000000000000000000, 4.000000000000000000, -11.29999999999999716 ) ) ;
#1065 = VERTEX_POINT ( 'NONE', #106 ) ;
#1066 = ORIENTED_EDGE ( 'NONE', *, *, #457, .F. ) ;
#1067 = DIRECTION ( 'NONE',  ( 0.0000000000000000000, 0.0000000000000000000, -1.000000000000000000 ) ) ;
#1068 = ORIENTED_EDGE ( 'NONE', *, *, #546, .T. ) ;
#1069 = DIRECTION ( 'NONE',  ( 1.000000000000000000, 0.0000000000000000000, 0.0000000000000000000 ) ) ;
#1070 = EDGE_CURVE ( 'NONE', #533, #425, #1126, .T. ) ;
#1071 = AXIS2_PLACEMENT_3D ( 'NONE', #568, #1096, #578 ) ;
#1072 = CARTESIAN_POINT ( 'NONE',  ( 0.0000000000000000000, 2.500000000000000000, -4.000000000000000000 ) ) ;
#1073 = CARTESIAN_POINT ( 'NONE',  ( 3.500000000000000000, 4.000000000000000000, -11.97499999999999609 ) ) ;
#1074 = DIRECTION ( 'NONE',  ( 0.0000000000000000000, 0.0000000000000000000, 1.000000000000000000 ) ) ;
#1075 = COORDINATED_UNIVERSAL_TIME_OFFSET ( 0, 0, .AHEAD. ) ;
#1076 = DIRECTION ( 'NONE',  ( 0.0000000000000000000, -1.000000000000000000, 0.0000000000000000000 ) ) ;
#1077 = CIRCLE ( 'NONE', #971, 0.9250000000000004885 ) ;
#1078 = EDGE_CURVE ( 'NONE', #677, #997, #948, .T. ) ;
#1079 = VECTOR ( 'NONE', #862, 1000.000000000000000 ) ;
#1080 = ADVANCED_FACE ( 'NONE', ( #305 ), #8, .T. ) ;
#1081 = PLANE ( 'NONE',  #401 ) ;
#1082 = EDGE_LOOP ( 'NONE', ( #392, #60, #729, #925 ) ) ;
#1083 = CARTESIAN_POINT ( 'NONE',  ( 0.0000000000000000000, 2.500000000000000000, -6.000000000000000000 ) ) ;
#1084 = ORIENTED_EDGE ( 'NONE', *, *, #806, .F. ) ;
#1085 = VERTEX_POINT ( 'NONE', #647 ) ;
#1086 = CARTESIAN_POINT ( 'NONE',  ( 5.000000000000000000, 0.0000000000000000000, -5.000000000000000000 ) ) ;
#1087 = ORIENTED_EDGE ( 'NONE', *, *, #1035, .F. ) ;
#1088 = DIRECTION ( 'NONE',  ( 0.0000000000000000000, 0.0000000000000000000, 1.000000000000000000 ) ) ;
#1089 = DIRECTION ( 'NONE',  ( 0.0000000000000000000, 0.0000000000000000000, -1.000000000000000000 ) ) ;
#1090 = ADVANCED_FACE ( 'NONE', ( #880 ), #891, .F. ) ;
#1091 = EDGE_CURVE ( 'NONE', #32, #859, #668, .T. ) ;
#1092 = PRODUCT_RELATED_PRODUCT_CATEGORY ( 'detail', '', ( #282 ) ) ;
#1093 = CARTESIAN_POINT ( 'NONE',  ( 1.599999999999999423, -0.2000000000000000944, -4.200000000000000178 ) ) ;
#1094 = CARTESIAN_POINT ( 'NONE',  ( 5.000000000000000000, 7.000000000000000000, -3.000000000000000000 ) ) ;
#1095 = LINE ( 'NONE', #1149, #707 ) ;
#1096 = DIRECTION ( 'NONE',  ( -0.0000000000000000000, 1.000000000000000000, -0.0000000000000000000 ) ) ;
#1097 = CIRCLE ( 'NONE', #1100, 0.5000000000000004441 ) ;
#1098 = PERSON_AND_ORGANIZATION_ROLE ( 'design_owner' ) ;
#1099 = ORIENTED_EDGE ( 'NONE', *, *, #580, .F. ) ;
#1100 = AXIS2_PLACEMENT_3D ( 'NONE', #31, #400, #1110 ) ;
#1101 =( BOUNDED_CURVE ( )  B_SPLINE_CURVE ( 3, ( #465, #842, #216, #493 ),
 .UNSPECIFIED., .F., .F. ) 
 B_SPLINE_CURVE_WITH_KNOTS ( ( 4, 4 ),
 ( 4.712388980384689674, 6.283185307179586232 ),
 .UNSPECIFIED. ) 
 CURVE ( )  GEOMETRIC_REPRESENTATION_ITEM ( )  RATIONAL_B_SPLINE_CURVE ( ( 1.000000000000000000, 0.8047378541243649375, 0.8047378541243649375, 1.000000000000000000 ) ) 
 REPRESENTATION_ITEM ( '' )  );
#1102 = EDGE_LOOP ( 'NONE', ( #516, #913, #99, #889 ) ) ;
#1103 = CARTESIAN_POINT ( 'NONE',  ( 5.599999999999998757, 0.0000000000000000000, -5.599999999999998757 ) ) ;
#1104 = ORIENTED_EDGE ( 'NONE', *, *, #1130, .T. ) ;
#1105 = APPROVAL_STATUS ( 'not_yet_approved' ) ;
#1106 = ORIENTED_EDGE ( 'NONE', *, *, #946, .F. ) ;
#1107 = CARTESIAN_POINT ( 'NONE',  ( 1.599999999999999423, -2.000000000000000000, -4.200000000000000178 ) ) ;
#1108 = CARTESIAN_POINT ( 'NONE',  ( 3.500000000000000000, 9.500000000000000000, -6.699999999999998401 ) ) ;
#1109 = EDGE_CURVE ( 'NONE', #760, #820, #258, .T. ) ;
#1110 = DIRECTION ( 'NONE',  ( 0.0000000000000000000, 0.0000000000000000000, 1.000000000000000000 ) ) ;
#1111 = PERSON_AND_ORGANIZATION_ROLE ( 'creator' ) ;
#1112 = PLANE ( 'NONE',  #745 ) ;
#1113 = LINE ( 'NONE', #217, #871 ) ;
#1114 = CARTESIAN_POINT ( 'NONE',  ( 3.500000000000000000, 4.000000000000000000, -13.39999999999999858 ) ) ;
#1115 =( NAMED_UNIT ( * ) SI_UNIT ( $, .STERADIAN. ) SOLID_ANGLE_UNIT ( ) );
#1116 = LINE ( 'NONE', #825, #738 ) ;
#1117 = ADVANCED_FACE ( 'NONE', ( #734, #68, #856 ), #1003, .F. ) ;
#1118 = APPROVAL ( #671, 'UNSPECIFIED' ) ;
#1119 = ORIENTED_EDGE ( 'NONE', *, *, #761, .F. ) ;
#1120 = EDGE_LOOP ( 'NONE', ( #494, #642, #1133, #1045, #161, #1068 ) ) ;
#1121 = DIRECTION ( 'NONE',  ( 0.0000000000000000000, 0.0000000000000000000, -1.000000000000000000 ) ) ;
#1122 = ORIENTED_EDGE ( 'NONE', *, *, #110, .F. ) ;
#1123 = DIRECTION ( 'NONE',  ( -1.000000000000000000, 0.0000000000000000000, -0.0000000000000000000 ) ) ;
#1124 = AXIS2_PLACEMENT_3D ( 'NONE', #974, #789, #607 ) ;
#1125 = DIRECTION ( 'NONE',  ( -1.000000000000000000, -0.0000000000000000000, -0.0000000000000000000 ) ) ;
#1126 = LINE ( 'NONE', #649, #829 ) ;
#1127 = TOROIDAL_SURFACE ( 'NONE', #779, 2.500000000000000000, 0.5000000000000000000 ) ;
#1128 = ORIENTED_EDGE ( 'NONE', *, *, #484, .T. ) ;
#1129 = CARTESIAN_POINT ( 'NONE',  ( 4.000000000000000000, 3.500000000000000000, -13.39999999999999858 ) ) ;
#1130 = EDGE_CURVE ( 'NONE', #412, #349, #237, .T. ) ;
#1131 = VERTEX_POINT ( 'NONE', #993 ) ;
#1132 = AXIS2_PLACEMENT_3D ( 'NONE', #12, #467, #120 ) ;
#1133 = ORIENTED_EDGE ( 'NONE', *, *, #1109, .F. ) ;
#1134 = ADVANCED_FACE ( 'NONE', ( #750 ), #1040, .T. ) ;
#1135 = EDGE_CURVE ( 'NONE', #823, #425, #245, .T. ) ;
#1136 = AXIS2_PLACEMENT_3D ( 'NONE', #869, #1067, #341 ) ;
#1137 = DIRECTION ( 'NONE',  ( 0.0000000000000000000, 0.0000000000000000000, 1.000000000000000000 ) ) ;
#1138 = VECTOR ( 'NONE', #634, 1000.000000000000000 ) ;
#1139 = PLANE ( 'NONE',  #262 ) ;
#1140 = CIRCLE ( 'NONE', #663, 0.5000000000000000000 ) ;
#1141 = ORIENTED_EDGE ( 'NONE', *, *, #110, .T. ) ;
#1142 = CARTESIAN_POINT ( 'NONE',  ( 7.000000000000000000, 4.000000000000000000, -6.000000000000000000 ) ) ;
#1143 = ORIENTED_EDGE ( 'NONE', *, *, #978, .F. ) ;
#1144 = DIRECTION ( 'NONE',  ( 0.0000000000000000000, 0.0000000000000000000, 1.000000000000000000 ) ) ;
#1145 = EDGE_CURVE ( 'NONE', #1065, #477, #566, .T. ) ;
#1146 = VERTEX_POINT ( 'NONE', #660 ) ;
#1147 = VERTEX_POINT ( 'NONE', #303 ) ;
#1148 = CARTESIAN_POINT ( 'NONE',  ( 1.599999999999999423, -2.000000000000000000, -4.200000000000000178 ) ) ;
#1149 = CARTESIAN_POINT ( 'NONE',  ( 5.399999999999999467, -0.2000000000000000944, -5.399999999999999467 ) ) ;
#1150 = EDGE_CURVE ( 'NONE', #283, #983, #512, .T. ) ;
#1151 = VECTOR ( 'NONE', #532, 1000.000000000000000 ) ;
#1152 = DIRECTION ( 'NONE',  ( -0.0000000000000000000, 1.000000000000000000, -0.0000000000000000000 ) ) ;
#1153 = LINE ( 'NONE', #748, #194 ) ;
ENDSEC;
END-ISO-10303-21;
