ISO-10303-21;
HEADER;
FILE_DESCRIPTION (( 'STEP AP203' ),
    '1' );
FILE_NAME ('Cables clamp.STEP',
    '2019-12-12T17:32:55',
    ( '' ),
    ( '' ),
    'SwSTEP 2.0',
    'SolidWorks 2018',
    '' );
FILE_SCHEMA (( 'CONFIG_CONTROL_DESIGN' ));
ENDSEC;

DATA;
#1 = CARTESIAN_POINT ( 'NONE',  ( 24.00000000000000000, 0.0000000000000000000, -2.000000000000000000 ) ) ;
#2 = CARTESIAN_POINT ( 'NONE',  ( 24.00000000000000000, 3.000000000000000888, -2.000000000000000000 ) ) ;
#3 = APPROVAL ( #115, 'UNSPECIFIED' ) ;
#4 = VERTEX_POINT ( 'NONE', #804 ) ;
#5 = PLANE ( 'NONE',  #353 ) ;
#6 = ORIENTED_EDGE ( 'NONE', *, *, #510, .T. ) ;
#7 = DIRECTION ( 'NONE',  ( 1.000000000000000000, 0.0000000000000000000, 0.0000000000000000000 ) ) ;
#8 = FACE_OUTER_BOUND ( 'NONE', #494, .T. ) ;
#9 = DIRECTION ( 'NONE',  ( 0.0000000000000000000, 0.0000000000000000000, 1.000000000000000000 ) ) ;
#10 = VERTEX_POINT ( 'NONE', #281 ) ;
#11 = VERTEX_POINT ( 'NONE', #927 ) ;
#12 = EDGE_CURVE ( 'NONE', #279, #556, #471, .T. ) ;
#13 = DIRECTION ( 'NONE',  ( -0.0000000000000000000, -0.0000000000000000000, -1.000000000000000000 ) ) ;
#14 = CARTESIAN_POINT ( 'NONE',  ( 13.78891680642973405, 3.666666666666665630, -1.999999999999998224 ) ) ;
#15 = EDGE_CURVE ( 'NONE', #681, #10, #87, .T. ) ;
#16 = AXIS2_PLACEMENT_3D ( 'NONE', #647, #54, #656 ) ;
#17 = LOCAL_TIME ( 17, 32, 55.00000000000000000, #574 ) ;
#18 = CARTESIAN_POINT ( 'NONE',  ( 24.00000000000000000, 7.000000000000000000, 0.0000000000000000000 ) ) ;
#19 = ORIENTED_EDGE ( 'NONE', *, *, #392, .T. ) ;
#20 = VECTOR ( 'NONE', #174, 1000.000000000000000 ) ;
#21 = ORIENTED_EDGE ( 'NONE', *, *, #133, .T. ) ;
#22 = ORIENTED_EDGE ( 'NONE', *, *, #819, .T. ) ;
#23 = VERTEX_POINT ( 'NONE', #294 ) ;
#24 = DIRECTION ( 'NONE',  ( 0.0000000000000000000, 1.000000000000000000, 0.0000000000000000000 ) ) ;
#25 = EDGE_CURVE ( 'NONE', #634, #151, #123, .T. ) ;
#26 = DIRECTION ( 'NONE',  ( 1.000000000000000000, 0.0000000000000000000, 0.0000000000000000000 ) ) ;
#27 = CIRCLE ( 'NONE', #477, 3.050000000000005596 ) ;
#28 = FACE_OUTER_BOUND ( 'NONE', #802, .T. ) ;
#29 = VERTEX_POINT ( 'NONE', #730 ) ;
#30 = VECTOR ( 'NONE', #919, 1000.000000000000000 ) ;
#31 = PERSON_AND_ORGANIZATION_ROLE ( 'design_supplier' ) ;
#32 = EDGE_LOOP ( 'NONE', ( #267, #568 ) ) ;
#33 = ORIENTED_EDGE ( 'NONE', *, *, #194, .F. ) ;
#34 = APPROVAL_ROLE ( '' ) ;
#35 = DIRECTION ( 'NONE',  ( -0.0000000000000000000, -0.0000000000000000000, 1.000000000000000000 ) ) ;
#36 = CARTESIAN_POINT ( 'NONE',  ( 0.0000000000000000000, 7.000000000000000000, -2.000000000000000000 ) ) ;
#37 = APPROVAL_ROLE ( '' ) ;
#38 = VECTOR ( 'NONE', #259, 1000.000000000000000 ) ;
#39 = ADVANCED_FACE ( 'NONE', ( #433 ), #236, .T. ) ;
#40 = EDGE_CURVE ( 'NONE', #266, #670, #564, .T. ) ;
#41 = LINE ( 'NONE', #152, #643 ) ;
#42 = EDGE_LOOP ( 'NONE', ( #421, #769, #782, #448 ) ) ;
#43 = ORIENTED_EDGE ( 'NONE', *, *, #83, .F. ) ;
#44 = EDGE_CURVE ( 'NONE', #702, #588, #72, .T. ) ;
#45 = ADVANCED_FACE ( 'NONE', ( #483 ), #300, .F. ) ;
#46 = CARTESIAN_POINT ( 'NONE',  ( 9.366750419289196827, -3.000000000000000000, -1.999999999999998224 ) ) ;
#47 = LINE ( 'NONE', #677, #811 ) ;
#48 = CIRCLE ( 'NONE', #382, 2.000000000000000000 ) ;
#49 = VERTEX_POINT ( 'NONE', #519 ) ;
#50 = AXIS2_PLACEMENT_3D ( 'NONE', #1, #290, #592 ) ;
#51 = DIRECTION ( 'NONE',  ( 2.168404344971009361E-16, -1.000000000000000000, 0.0000000000000000000 ) ) ;
#52 = EDGE_LOOP ( 'NONE', ( #246, #127, #473, #388, #6, #148, #19, #255, #22 ) ) ;
#53 = VERTEX_POINT ( 'NONE', #601 ) ;
#54 = DIRECTION ( 'NONE',  ( 1.000000000000000000, 2.168404344971009361E-16, -0.0000000000000000000 ) ) ;
#55 = EDGE_CURVE ( 'NONE', #10, #681, #27, .T. ) ;
#56 = ADVANCED_FACE ( 'NONE', ( #536 ), #451, .F. ) ;
#57 = CARTESIAN_POINT ( 'NONE',  ( 9.366750419289196827, 5.000000000000000000, 0.0000000000000000000 ) ) ;
#58 = CARTESIAN_POINT ( 'NONE',  ( 9.366750419289196827, -3.000000000000000000, -26.00000000000000000 ) ) ;
#59 = CYLINDRICAL_SURFACE ( 'NONE', #439, 2.000000000000000000 ) ;
#60 = ORIENTED_EDGE ( 'NONE', *, *, #251, .F. ) ;
#61 = DIRECTION ( 'NONE',  ( 1.000000000000000000, 2.168404344971009361E-16, -0.0000000000000000000 ) ) ;
#62 = EDGE_CURVE ( 'NONE', #11, #648, #263, .T. ) ;
#63 = ORIENTED_EDGE ( 'NONE', *, *, #129, .T. ) ;
#64 = AXIS2_PLACEMENT_3D ( 'NONE', #131, #499, #349 ) ;
#65 = CARTESIAN_POINT ( 'NONE',  ( 2.000000000000000000, 7.000000000000000000, -2.000000000000000000 ) ) ;
#66 = ORIENTED_EDGE ( 'NONE', *, *, #339, .T. ) ;
#67 = CARTESIAN_POINT ( 'NONE',  ( 0.0000000000000000000, 7.000000000000000000, 0.0000000000000000000 ) ) ;
#68 = DIRECTION ( 'NONE',  ( 0.0000000000000000000, 0.0000000000000000000, 1.000000000000000000 ) ) ;
#69 = AXIS2_PLACEMENT_3D ( 'NONE', #158, #231, #454 ) ;
#70 = DIRECTION ( 'NONE',  ( 1.000000000000000000, 0.0000000000000000000, 0.0000000000000000000 ) ) ;
#71 = DIRECTION ( 'NONE',  ( -1.000000000000000000, 0.0000000000000000000, 0.0000000000000000000 ) ) ;
#72 = LINE ( 'NONE', #809, #491 ) ;
#73 = FACE_OUTER_BOUND ( 'NONE', #836, .T. ) ;
#74 = EDGE_LOOP ( 'NONE', ( #418, #712, #598 ) ) ;
#75 = DIRECTION ( 'NONE',  ( 0.0000000000000000000, 0.0000000000000000000, -1.000000000000000000 ) ) ;
#76 = EDGE_CURVE ( 'NONE', #780, #10, #914, .T. ) ;
#77 = ORIENTED_EDGE ( 'NONE', *, *, #661, .F. ) ;
#78 = ORIENTED_EDGE ( 'NONE', *, *, #429, .T. ) ;
#79 = CARTESIAN_POINT ( 'NONE',  ( 24.00000000000000000, 5.000000000000000000, -10.00000000000000000 ) ) ;
#80 = DIRECTION ( 'NONE',  ( -1.000000000000000000, 0.0000000000000000000, 0.0000000000000000000 ) ) ;
#81 = CARTESIAN_POINT ( 'NONE',  ( 26.00000000000000355, 7.000000000000000000, 0.0000000000000000000 ) ) ;
#82 = DIRECTION ( 'NONE',  ( 0.5527707983925664870, 0.8333333333333334814, 0.0000000000000000000 ) ) ;
#83 = EDGE_CURVE ( 'NONE', #670, #754, #361, .T. ) ;
#84 = DIRECTION ( 'NONE',  ( 0.0000000000000000000, 0.0000000000000000000, -1.000000000000000000 ) ) ;
#85 = CYLINDRICAL_SURFACE ( 'NONE', #64, 2.000000000000000000 ) ;
#86 = CALENDAR_DATE ( 2019, 12, 12 ) ;
#87 = CIRCLE ( 'NONE', #69, 3.050000000000005596 ) ;
#88 = DIRECTION ( 'NONE',  ( -0.0000000000000000000, -1.000000000000000000, -0.0000000000000000000 ) ) ;
#89 = ORIENTED_EDGE ( 'NONE', *, *, #116, .T. ) ;
#90 = ORIENTED_EDGE ( 'NONE', *, *, #392, .F. ) ;
#91 = EDGE_CURVE ( 'NONE', #139, #648, #863, .T. ) ;
#92 = DIRECTION ( 'NONE',  ( 0.0000000000000000000, 0.0000000000000000000, -1.000000000000000000 ) ) ;
#93 = DIRECTION ( 'NONE',  ( 0.0000000000000000000, 0.0000000000000000000, -1.000000000000000000 ) ) ;
#94 = CARTESIAN_POINT ( 'NONE',  ( 20.00000000000000000, 7.000000000000000000, -6.000000000000000000 ) ) ;
#95 = EDGE_CURVE ( 'NONE', #49, #713, #800, .T. ) ;
#96 = CARTESIAN_POINT ( 'NONE',  ( 26.00000000000000355, 0.0000000000000000000, -10.00000000000000000 ) ) ;
#97 = ORGANIZATION ( 'UNSPECIFIED', 'UNSPECIFIED', '' ) ;
#98 = CARTESIAN_POINT ( 'NONE',  ( 0.0000000000000000000, 5.000000000000000000, 0.0000000000000000000 ) ) ;
#99 = CIRCLE ( 'NONE', #164, 4.000000000000000000 ) ;
#100 = VECTOR ( 'NONE', #301, 1000.000000000000000 ) ;
#101 = ORIENTED_EDGE ( 'NONE', *, *, #822, .T. ) ;
#102 = EDGE_LOOP ( 'NONE', ( #815, #503, #794, #166 ) ) ;
#103 = DIRECTION ( 'NONE',  ( 1.000000000000000000, -0.0000000000000000000, 0.0000000000000000000 ) ) ;
#104 = AXIS2_PLACEMENT_3D ( 'NONE', #500, #137, #274 ) ;
#105 = ADVANCED_BREP_SHAPE_REPRESENTATION ( 'Cables clamp', ( #334, #331 ), #856 ) ;
#106 = CARTESIAN_POINT ( 'NONE',  ( 24.00000000000000000, 0.0000000000000000000, 0.0000000000000000000 ) ) ;
#107 = AXIS2_PLACEMENT_3D ( 'NONE', #689, #103, #543 ) ;
#108 = DIRECTION ( 'NONE',  ( -0.0000000000000000000, -1.000000000000000000, 0.0000000000000000000 ) ) ;
#109 = CYLINDRICAL_SURFACE ( 'NONE', #262, 2.000000000000000000 ) ;
#110 = CLOSED_SHELL ( 'NONE', ( #855, #56, #143, #270, #571, #849, #393, #45, #862, #871, #280, #420, #496, #641, #204, #911, #351, #657, #343, #130, #787, #639, #717, #649, #39, #714, #633, #125, #540, #614, #427 ) ) ;
#111 = FACE_OUTER_BOUND ( 'NONE', #226, .T. ) ;
#112 = EDGE_LOOP ( 'NONE', ( #452, #692, #175, #386 ) ) ;
#113 = CARTESIAN_POINT ( 'NONE',  ( 7.000000000000000000, 0.0000000000000000000, -12.00000000000000000 ) ) ;
#114 = ORIENTED_EDGE ( 'NONE', *, *, #404, .F. ) ;
#115 = APPROVAL_STATUS ( 'not_yet_approved' ) ;
#116 = EDGE_CURVE ( 'NONE', #306, #49, #336, .T. ) ;
#117 = CARTESIAN_POINT ( 'NONE',  ( 16.00000000000000000, 6.999999999999998224, -26.00000000000000000 ) ) ;
#118 = PRODUCT_DEFINITION_FORMATION_WITH_SPECIFIED_SOURCE ( 'ANY', '', #446, .NOT_KNOWN. ) ;
#119 = CARTESIAN_POINT ( 'NONE',  ( 9.366750419289196827, -3.000000000000000000, -9.999999999999998224 ) ) ;
#120 = APPROVAL_PERSON_ORGANIZATION ( #384, #511, #34 ) ;
#121 = AXIS2_PLACEMENT_3D ( 'NONE', #391, #80, #818 ) ;
#122 = CARTESIAN_POINT ( 'NONE',  ( 9.750000000000000000, 0.0000000000000000000, -26.00000000000000000 ) ) ;
#123 = CIRCLE ( 'NONE', #731, 2.000000000000001776 ) ;
#124 = VECTOR ( 'NONE', #13, 1000.000000000000000 ) ;
#125 = ADVANCED_FACE ( 'NONE', ( #831 ), #609, .T. ) ;
#126 = ORIENTED_EDGE ( 'NONE', *, *, #480, .T. ) ;
#127 = ORIENTED_EDGE ( 'NONE', *, *, #661, .T. ) ;
#128 = DIRECTION ( 'NONE',  ( 0.0000000000000000000, 0.0000000000000000000, 1.000000000000000000 ) ) ;
#129 = EDGE_CURVE ( 'NONE', #619, #781, #824, .T. ) ;
#130 = ADVANCED_FACE ( 'NONE', ( #788 ), #690, .T. ) ;
#131 = CARTESIAN_POINT ( 'NONE',  ( 0.0000000000000000000, 5.000000000000000000, -2.000000000000000000 ) ) ;
#132 = CARTESIAN_POINT ( 'NONE',  ( 26.00000000000000355, 0.0000000000000000000, -2.000000000000000000 ) ) ;
#133 = EDGE_CURVE ( 'NONE', #926, #923, #407, .T. ) ;
#134 = FACE_OUTER_BOUND ( 'NONE', #112, .T. ) ;
#135 = ORIENTED_EDGE ( 'NONE', *, *, #705, .T. ) ;
#136 = VECTOR ( 'NONE', #271, 1000.000000000000000 ) ;
#137 = DIRECTION ( 'NONE',  ( 0.0000000000000000000, 1.000000000000000000, 0.0000000000000000000 ) ) ;
#138 = ORIENTED_EDGE ( 'NONE', *, *, #542, .T. ) ;
#139 = VERTEX_POINT ( 'NONE', #664 ) ;
#140 = CARTESIAN_POINT ( 'NONE',  ( 14.89445840321486791, 5.333333333333332149, -1.999999999999998224 ) ) ;
#141 = CARTESIAN_POINT ( 'NONE',  ( 24.00000000000000000, 3.000000000000000000, -1.999999999999998224 ) ) ;
#142 = EDGE_CURVE ( 'NONE', #654, #306, #463, .T. ) ;
#143 = ADVANCED_FACE ( 'NONE', ( #710 ), #668, .F. ) ;
#144 = DIRECTION ( 'NONE',  ( -1.000000000000000000, 0.0000000000000000000, 0.0000000000000000000 ) ) ;
#145 = DIRECTION ( 'NONE',  ( 0.0000000000000000000, 0.0000000000000000000, 1.000000000000000000 ) ) ;
#146 = VECTOR ( 'NONE', #437, 1000.000000000000000 ) ;
#147 = EDGE_CURVE ( 'NONE', #853, #702, #893, .T. ) ;
#148 = ORIENTED_EDGE ( 'NONE', *, *, #529, .T. ) ;
#149 = PERSON ( 'UNSPECIFIED', 'UNSPECIFIED', 'UNSPECIFIED', ('UNSPECIFIED'), ('UNSPECIFIED'), ('UNSPECIFIED') ) ;
#150 = CARTESIAN_POINT ( 'NONE',  ( 26.00000000000000355, 5.000000000000000888, -1.999999999999998224 ) ) ;
#151 = VERTEX_POINT ( 'NONE', #940 ) ;
#152 = CARTESIAN_POINT ( 'NONE',  ( 14.89445840321486791, 5.333333333333332149, -26.00000000000000000 ) ) ;
#153 = CARTESIAN_POINT ( 'NONE',  ( 2.000000000000000000, 5.000000000000000000, -2.000000000000000000 ) ) ;
#154 = DIRECTION ( 'NONE',  ( 0.0000000000000000000, 0.0000000000000000000, 1.000000000000000000 ) ) ;
#155 = AXIS2_PLACEMENT_3D ( 'NONE', #738, #746, #299 ) ;
#156 = DIRECTION ( 'NONE',  ( 1.000000000000000000, -0.0000000000000000000, -0.0000000000000000000 ) ) ;
#157 = CARTESIAN_POINT ( 'NONE',  ( 4.250000000000000000, 0.0000000000000000000, -26.00000000000000000 ) ) ;
#158 = CARTESIAN_POINT ( 'NONE',  ( 20.00000000000000000, 0.0000000000000000000, -6.000000000000000000 ) ) ;
#159 = FACE_OUTER_BOUND ( 'NONE', #895, .T. ) ;
#160 = PERSON_AND_ORGANIZATION ( #149, #97 ) ;
#161 = PLANE ( 'NONE',  #344 ) ;
#162 = ORIENTED_EDGE ( 'NONE', *, *, #409, .F. ) ;
#163 = LINE ( 'NONE', #36, #234 ) ;
#164 = AXIS2_PLACEMENT_3D ( 'NONE', #465, #381, #458 ) ;
#165 = ORIENTED_EDGE ( 'NONE', *, *, #444, .F. ) ;
#166 = ORIENTED_EDGE ( 'NONE', *, *, #874, .F. ) ;
#167 = PLANE ( 'NONE',  #467 ) ;
#168 = AXIS2_PLACEMENT_3D ( 'NONE', #512, #672, #82 ) ;
#169 = DIRECTION ( 'NONE',  ( 0.5527707983925667090, 0.8333333333333333703, 0.0000000000000000000 ) ) ;
#170 = LOCAL_TIME ( 17, 32, 55.00000000000000000, #195 ) ;
#171 = ORIENTED_EDGE ( 'NONE', *, *, #562, .T. ) ;
#172 = VECTOR ( 'NONE', #156, 1000.000000000000000 ) ;
#173 = ORIENTED_EDGE ( 'NONE', *, *, #724, .F. ) ;
#174 = DIRECTION ( 'NONE',  ( -0.0000000000000000000, 1.000000000000000000, -0.0000000000000000000 ) ) ;
#175 = ORIENTED_EDGE ( 'NONE', *, *, #819, .F. ) ;
#176 = DIRECTION ( 'NONE',  ( 0.0000000000000000000, 0.0000000000000000000, 1.000000000000000000 ) ) ;
#177 = AXIS2_PLACEMENT_3D ( 'NONE', #621, #181, #763 ) ;
#178 = CARTESIAN_POINT ( 'NONE',  ( 2.000000000000000000, 0.0000000000000000000, -2.000000000000000000 ) ) ;
#179 = DIRECTION ( 'NONE',  ( -1.000000000000000000, 0.0000000000000000000, 0.0000000000000000000 ) ) ;
#180 = EDGE_CURVE ( 'NONE', #926, #364, #99, .T. ) ;
#181 = DIRECTION ( 'NONE',  ( 1.000000000000000000, -0.0000000000000000000, -0.0000000000000000000 ) ) ;
#182 = LINE ( 'NONE', #490, #38 ) ;
#183 = PERSON_AND_ORGANIZATION ( #149, #97 ) ;
#184 = ORIENTED_EDGE ( 'NONE', *, *, #562, .F. ) ;
#185 = LINE ( 'NONE', #269, #840 ) ;
#186 = ORIENTED_EDGE ( 'NONE', *, *, #251, .T. ) ;
#187 = EDGE_CURVE ( 'NONE', #151, #636, #41, .T. ) ;
#188 = VERTEX_POINT ( 'NONE', #509 ) ;
#189 = CARTESIAN_POINT ( 'NONE',  ( 9.750000000000001776, 0.0000000000000000000, -12.00000000000000000 ) ) ;
#190 = APPROVAL ( #909, 'UNSPECIFIED' ) ;
#191 =( NAMED_UNIT ( * ) SI_UNIT ( $, .STERADIAN. ) SOLID_ANGLE_UNIT ( ) );
#192 = DIRECTION ( 'NONE',  ( -1.000000000000000000, -2.168404344971009361E-16, -0.0000000000000000000 ) ) ;
#193 = PERSON_AND_ORGANIZATION_ROLE ( 'classification_officer' ) ;
#194 = EDGE_CURVE ( 'NONE', #636, #364, #597, .T. ) ;
#195 = COORDINATED_UNIVERSAL_TIME_OFFSET ( 0, 0, .AHEAD. ) ;
#196 = ORIENTED_EDGE ( 'NONE', *, *, #493, .F. ) ;
#197 = LINE ( 'NONE', #594, #691 ) ;
#198 = ORIENTED_EDGE ( 'NONE', *, *, #25, .F. ) ;
#199 = ORIENTED_EDGE ( 'NONE', *, *, #886, .T. ) ;
#200 = CARTESIAN_POINT ( 'NONE',  ( 9.750000000000001776, 0.0000000000000000000, 0.0000000000000000000 ) ) ;
#201 = VERTEX_POINT ( 'NONE', #749 ) ;
#202 = EDGE_CURVE ( 'NONE', #23, #681, #47, .T. ) ;
#203 = CARTESIAN_POINT ( 'NONE',  ( 0.0000000000000000000, 5.000000000000000000, 0.0000000000000000000 ) ) ;
#204 = ADVANCED_FACE ( 'NONE', ( #288 ), #679, .T. ) ;
#205 = AXIS2_PLACEMENT_3D ( 'NONE', #921, #798, #282 ) ;
#206 = VECTOR ( 'NONE', #93, 1000.000000000000000 ) ;
#207 = FACE_OUTER_BOUND ( 'NONE', #332, .T. ) ;
#208 = VERTEX_POINT ( 'NONE', #241 ) ;
#209 = LINE ( 'NONE', #828, #652 ) ;
#210 = ORIENTED_EDGE ( 'NONE', *, *, #859, .T. ) ;
#211 = AXIS2_PLACEMENT_3D ( 'NONE', #697, #249, #770 ) ;
#212 = APPROVAL_DATE_TIME ( #931, #190 ) ;
#213 = VECTOR ( 'NONE', #728, 1000.000000000000000 ) ;
#214 = CYLINDRICAL_SURFACE ( 'NONE', #745, 2.000000000000000000 ) ;
#215 = PRODUCT_DEFINITION ( 'UNKNOWN', '', #118, #939 ) ;
#216 = ORIENTED_EDGE ( 'NONE', *, *, #480, .F. ) ;
#217 = DIRECTION ( 'NONE',  ( 0.0000000000000000000, 0.0000000000000000000, 1.000000000000000000 ) ) ;
#218 = DIRECTION ( 'NONE',  ( 0.0000000000000000000, 0.0000000000000000000, -1.000000000000000000 ) ) ;
#219 = AXIS2_PLACEMENT_3D ( 'NONE', #411, #912, #487 ) ;
#220 = CARTESIAN_POINT ( 'NONE',  ( 0.0000000000000000000, 5.000000000000000000, -12.00000000000000000 ) ) ;
#221 = CARTESIAN_POINT ( 'NONE',  ( 20.00000000000000000, 7.000000000000000000, -2.949999999999994849 ) ) ;
#222 = DIRECTION ( 'NONE',  ( 0.0000000000000000000, -1.000000000000000000, 0.0000000000000000000 ) ) ;
#223 = VECTOR ( 'NONE', #807, 1000.000000000000000 ) ;
#224 = CYLINDRICAL_SURFACE ( 'NONE', #762, 2.000000000000000000 ) ;
#225 = AXIS2_PLACEMENT_3D ( 'NONE', #252, #479, #899 ) ;
#226 = EDGE_LOOP ( 'NONE', ( #196, #63, #694, #66 ) ) ;
#227 = DIRECTION ( 'NONE',  ( 0.0000000000000000000, 1.000000000000000000, 0.0000000000000000000 ) ) ;
#228 = VECTOR ( 'NONE', #716, 1000.000000000000000 ) ;
#229 = EDGE_LOOP ( 'NONE', ( #758, #916, #138, #78 ) ) ;
#230 = ORIENTED_EDGE ( 'NONE', *, *, #737, .F. ) ;
#231 = DIRECTION ( 'NONE',  ( 0.0000000000000000000, 1.000000000000000000, 0.0000000000000000000 ) ) ;
#232 = CARTESIAN_POINT ( 'NONE',  ( 24.00000000000000000, 3.000000000000000888, -12.00000000000000000 ) ) ;
#233 = EDGE_CURVE ( 'NONE', #754, #347, #395, .T. ) ;
#234 = VECTOR ( 'NONE', #642, 1000.000000000000000 ) ;
#235 = DIRECTION ( 'NONE',  ( 2.168404344971009361E-16, -1.000000000000000000, 0.0000000000000000000 ) ) ;
#236 = SPHERICAL_SURFACE ( 'NONE', #917, 2.000000000000000000 ) ;
#237 = DIRECTION ( 'NONE',  ( 0.0000000000000000000, 0.0000000000000000000, -1.000000000000000000 ) ) ;
#238 = EDGE_CURVE ( 'NONE', #4, #201, #276, .T. ) ;
#239 = EDGE_LOOP ( 'NONE', ( #673, #528, #453, #846 ) ) ;
#240 = ORIENTED_EDGE ( 'NONE', *, *, #415, .T. ) ;
#241 = CARTESIAN_POINT ( 'NONE',  ( 0.0000000000000000000, 0.0000000000000000000, -2.000000000000000000 ) ) ;
#242 = DIRECTION ( 'NONE',  ( 0.0000000000000000000, -1.000000000000000000, 0.0000000000000000000 ) ) ;
#243 = CARTESIAN_POINT ( 'NONE',  ( 24.00000000000000000, 3.000000000000000888, -10.00000000000000000 ) ) ;
#244 = FACE_OUTER_BOUND ( 'NONE', #600, .T. ) ;
#245 = VERTEX_POINT ( 'NONE', #456 ) ;
#246 = ORIENTED_EDGE ( 'NONE', *, *, #928, .F. ) ;
#247 = AXIS2_PLACEMENT_3D ( 'NONE', #751, #311, #532 ) ;
#248 = EDGE_LOOP ( 'NONE', ( #515, #466, #340, #525 ) ) ;
#249 = DIRECTION ( 'NONE',  ( 0.0000000000000000000, 0.0000000000000000000, 1.000000000000000000 ) ) ;
#250 = APPLICATION_PROTOCOL_DEFINITION ( 'international standard', 'config_control_design', 1994, #773 ) ;
#251 = EDGE_CURVE ( 'NONE', #853, #634, #851, .T. ) ;
#252 = CARTESIAN_POINT ( 'NONE',  ( 24.00000000000000000, 0.0000000000000000000, -10.00000000000000000 ) ) ;
#253 = LINE ( 'NONE', #628, #924 ) ;
#254 = DATE_AND_TIME ( #913, #17 ) ;
#255 = ORIENTED_EDGE ( 'NONE', *, *, #257, .T. ) ;
#256 = ORIENTED_EDGE ( 'NONE', *, *, #848, .T. ) ;
#257 = EDGE_CURVE ( 'NONE', #735, #201, #209, .T. ) ;
#258 = EDGE_LOOP ( 'NONE', ( #937, #576, #33, #278 ) ) ;
#259 = DIRECTION ( 'NONE',  ( -0.0000000000000000000, -0.0000000000000000000, 1.000000000000000000 ) ) ;
#260 = AXIS2_PLACEMENT_3D ( 'NONE', #663, #218, #520 ) ;
#261 = DIRECTION ( 'NONE',  ( 1.000000000000000000, 0.0000000000000000000, 0.0000000000000000000 ) ) ;
#262 = AXIS2_PLACEMENT_3D ( 'NONE', #117, #786, #777 ) ;
#263 = CIRCLE ( 'NONE', #797, 2.000000000000000000 ) ;
#264 = LINE ( 'NONE', #817, #565 ) ;
#265 = ORIENTED_EDGE ( 'NONE', *, *, #116, .F. ) ;
#266 = VERTEX_POINT ( 'NONE', #470 ) ;
#267 = ORIENTED_EDGE ( 'NONE', *, *, #15, .T. ) ;
#268 = AXIS2_PLACEMENT_3D ( 'NONE', #902, #478, #547 ) ;
#269 = CARTESIAN_POINT ( 'NONE',  ( 0.0000000000000000000, 7.000000000000000000, -10.00000000000000000 ) ) ;
#270 = ADVANCED_FACE ( 'NONE', ( #8, #460 ), #5, .T. ) ;
#271 = DIRECTION ( 'NONE',  ( -1.000000000000000000, -2.168404344971009361E-16, -0.0000000000000000000 ) ) ;
#272 = EDGE_CURVE ( 'NONE', #588, #306, #374, .T. ) ;
#273 = AXIS2_PLACEMENT_3D ( 'NONE', #94, #88, #607 ) ;
#274 = DIRECTION ( 'NONE',  ( 1.000000000000000000, 0.0000000000000000000, 0.0000000000000000000 ) ) ;
#275 = TOROIDAL_SURFACE ( 'NONE', #423, 4.000000000000000000, 2.000000000000000000 ) ;
#276 = CIRCLE ( 'NONE', #121, 2.000000000000000000 ) ;
#277 = CYLINDRICAL_SURFACE ( 'NONE', #682, 3.050000000000006040 ) ;
#278 = ORIENTED_EDGE ( 'NONE', *, *, #459, .T. ) ;
#279 = VERTEX_POINT ( 'NONE', #772 ) ;
#280 = ADVANCED_FACE ( 'NONE', ( #889 ), #501, .F. ) ;
#281 = CARTESIAN_POINT ( 'NONE',  ( 20.00000000000000000, 0.0000000000000000000, -2.949999999999994849 ) ) ;
#282 = DIRECTION ( 'NONE',  ( -1.000000000000000000, 0.0000000000000000000, 0.0000000000000000000 ) ) ;
#283 = DIRECTION ( 'NONE',  ( -1.000000000000000000, -0.0000000000000000000, -0.0000000000000000000 ) ) ;
#284 = DIRECTION ( 'NONE',  ( 0.0000000000000000000, 1.000000000000000000, 0.0000000000000000000 ) ) ;
#285 = DIRECTION ( 'NONE',  ( 0.0000000000000000000, 0.0000000000000000000, 1.000000000000000000 ) ) ;
#286 = EDGE_CURVE ( 'NONE', #648, #713, #524, .T. ) ;
#287 = CALENDAR_DATE ( 2019, 12, 12 ) ;
#288 = FACE_OUTER_BOUND ( 'NONE', #291, .T. ) ;
#289 = CYLINDRICAL_SURFACE ( 'NONE', #613, 2.000000000000000000 ) ;
#290 = DIRECTION ( 'NONE',  ( 0.0000000000000000000, -1.000000000000000000, 0.0000000000000000000 ) ) ;
#291 = EDGE_LOOP ( 'NONE', ( #611, #748, #868, #265 ) ) ;
#292 = DIRECTION ( 'NONE',  ( -0.0000000000000000000, -0.0000000000000000000, 1.000000000000000000 ) ) ;
#293 = ORIENTED_EDGE ( 'NONE', *, *, #40, .F. ) ;
#294 = CARTESIAN_POINT ( 'NONE',  ( 20.00000000000000000, 4.999999999999999112, -9.050000000000006040 ) ) ;
#295 = CARTESIAN_POINT ( 'NONE',  ( 0.0000000000000000000, 0.0000000000000000000, 0.0000000000000000000 ) ) ;
#296 = DIRECTION ( 'NONE',  ( 0.0000000000000000000, -1.000000000000000000, -8.673617379884035472E-16 ) ) ;
#297 = CARTESIAN_POINT ( 'NONE',  ( 16.00000000000000000, 6.999999999999998224, -9.999999999999998224 ) ) ;
#298 = AXIS2_PLACEMENT_3D ( 'NONE', #767, #324, #26 ) ;
#299 = DIRECTION ( 'NONE',  ( 1.000000000000000000, 0.0000000000000000000, 0.0000000000000000000 ) ) ;
#300 = PLANE ( 'NONE',  #504 ) ;
#301 = DIRECTION ( 'NONE',  ( 1.000000000000000000, 0.0000000000000000000, 0.0000000000000000000 ) ) ;
#302 = CIRCLE ( 'NONE', #177, 2.000000000000000000 ) ;
#303 = DIRECTION ( 'NONE',  ( -0.0000000000000000000, -1.000000000000000000, -0.0000000000000000000 ) ) ;
#304 = COORDINATED_UNIVERSAL_TIME_OFFSET ( 0, 0, .AHEAD. ) ;
#305 = AXIS2_PLACEMENT_3D ( 'NONE', #596, #154, #816 ) ;
#306 = VERTEX_POINT ( 'NONE', #96 ) ;
#307 = VECTOR ( 'NONE', #898, 1000.000000000000000 ) ;
#308 = CARTESIAN_POINT ( 'NONE',  ( 16.00000000000000000, 4.999999999999998224, -1.999999999999998224 ) ) ;
#309 = ORIENTED_EDGE ( 'NONE', *, *, #312, .T. ) ;
#310 = ORIENTED_EDGE ( 'NONE', *, *, #15, .F. ) ;
#311 = DIRECTION ( 'NONE',  ( -0.0000000000000000000, 1.000000000000000000, 0.0000000000000000000 ) ) ;
#312 = EDGE_CURVE ( 'NONE', #702, #713, #907, .T. ) ;
#313 = CC_DESIGN_PERSON_AND_ORGANIZATION_ASSIGNMENT ( #550, #557, ( #215 ) ) ;
#314 = DIRECTION ( 'NONE',  ( 1.000000000000000000, 2.168404344971009361E-16, 0.0000000000000000000 ) ) ;
#315 = LOCAL_TIME ( 17, 32, 55.00000000000000000, #304 ) ;
#316 = EDGE_LOOP ( 'NONE', ( #162, #256, #90, #436, #43, #541 ) ) ;
#317 = LINE ( 'NONE', #375, #669 ) ;
#318 = ORIENTED_EDGE ( 'NONE', *, *, #707, .F. ) ;
#319 = AXIS2_PLACEMENT_3D ( 'NONE', #820, #522, #593 ) ;
#320 = VERTEX_POINT ( 'NONE', #189 ) ;
#321 = CARTESIAN_POINT ( 'NONE',  ( 9.366750419289196827, -3.000000000000000000, -9.999999999999998224 ) ) ;
#322 = AXIS2_PLACEMENT_3D ( 'NONE', #243, #555, #405 ) ;
#323 = CARTESIAN_POINT ( 'NONE',  ( 24.00000000000000000, 5.000000000000000000, -26.00000000000000000 ) ) ;
#324 = DIRECTION ( 'NONE',  ( 0.0000000000000000000, 0.0000000000000000000, 1.000000000000000000 ) ) ;
#325 = DIRECTION ( 'NONE',  ( 1.000000000000000000, 0.0000000000000000000, 0.0000000000000000000 ) ) ;
#326 = CIRCLE ( 'NONE', #569, 3.050000000000004263 ) ;
#327 = ORIENTED_EDGE ( 'NONE', *, *, #404, .T. ) ;
#328 = LINE ( 'NONE', #425, #573 ) ;
#329 = EDGE_CURVE ( 'NONE', #245, #53, #698, .T. ) ;
#330 = ORIENTED_EDGE ( 'NONE', *, *, #142, .F. ) ;
#331 = AXIS2_PLACEMENT_3D ( 'NONE', #750, #544, #560 ) ;
#332 = EDGE_LOOP ( 'NONE', ( #747, #400, #475 ) ) ;
#333 = CARTESIAN_POINT ( 'NONE',  ( 9.366750419289196827, 7.000000000000000000, -10.00000000000000000 ) ) ;
#334 = MANIFOLD_SOLID_BREP ( 'Fillet3', #110 ) ;
#335 = DIRECTION ( 'NONE',  ( 2.168404344971009361E-16, -1.000000000000000000, 0.0000000000000000000 ) ) ;
#336 = LINE ( 'NONE', #516, #146 ) ;
#337 = FACE_OUTER_BOUND ( 'NONE', #239, .T. ) ;
#338 = ORIENTED_EDGE ( 'NONE', *, *, #238, .T. ) ;
#339 = EDGE_CURVE ( 'NONE', #279, #266, #302, .T. ) ;
#340 = ORIENTED_EDGE ( 'NONE', *, *, #910, .F. ) ;
#341 = DIRECTION ( 'NONE',  ( -0.0000000000000000000, -0.0000000000000000000, 1.000000000000000000 ) ) ;
#342 = DIRECTION ( 'NONE',  ( 0.0000000000000000000, 0.0000000000000000000, -1.000000000000000000 ) ) ;
#343 = ADVANCED_FACE ( 'NONE', ( #744 ), #791, .T. ) ;
#344 = AXIS2_PLACEMENT_3D ( 'NONE', #440, #242, #462 ) ;
#345 = CIRCLE ( 'NONE', #768, 2.000000000000000000 ) ;
#346 = APPROVAL_DATE_TIME ( #666, #511 ) ;
#347 = VERTEX_POINT ( 'NONE', #545 ) ;
#348 = CIRCLE ( 'NONE', #268, 2.000000000000000000 ) ;
#349 = DIRECTION ( 'NONE',  ( 0.0000000000000000000, 0.0000000000000000000, -1.000000000000000000 ) ) ;
#350 = ORIENTED_EDGE ( 'NONE', *, *, #488, .T. ) ;
#351 = ADVANCED_FACE ( 'NONE', ( #134 ), #59, .T. ) ;
#352 = ORIENTED_EDGE ( 'NONE', *, *, #257, .F. ) ;
#353 = AXIS2_PLACEMENT_3D ( 'NONE', #615, #626, #699 ) ;
#354 = CARTESIAN_POINT ( 'NONE',  ( 16.00000000000000000, 4.999999999999998224, -10.00000000000000000 ) ) ;
#355 = CARTESIAN_POINT ( 'NONE',  ( 24.00000000000000000, 5.000000000000000000, -1.999999999999998224 ) ) ;
#356 = DIRECTION ( 'NONE',  ( -0.0000000000000000000, -1.000000000000000000, -0.0000000000000000000 ) ) ;
#357 = EDGE_CURVE ( 'NONE', #11, #139, #348, .T. ) ;
#358 = CC_DESIGN_PERSON_AND_ORGANIZATION_ASSIGNMENT ( #709, #632, ( #118 ) ) ;
#359 = DIRECTION ( 'NONE',  ( -1.000000000000000000, 0.0000000000000000000, 0.0000000000000000000 ) ) ;
#360 = DATE_AND_TIME ( #653, #315 ) ;
#361 = LINE ( 'NONE', #808, #732 ) ;
#362 = CARTESIAN_POINT ( 'NONE',  ( 16.00000000000000000, 6.999999999999998224, -1.999999999999998224 ) ) ;
#363 = LINE ( 'NONE', #150, #832 ) ;
#364 = VERTEX_POINT ( 'NONE', #396 ) ;
#365 = DIRECTION ( 'NONE',  ( 1.000000000000000000, 2.168404344971009361E-16, 0.0000000000000000000 ) ) ;
#366 = ORIENTED_EDGE ( 'NONE', *, *, #529, .F. ) ;
#367 = DIRECTION ( 'NONE',  ( 0.0000000000000000000, 0.0000000000000000000, -1.000000000000000000 ) ) ;
#368 = DIRECTION ( 'NONE',  ( -1.000000000000000000, 0.0000000000000000000, 0.0000000000000000000 ) ) ;
#369 = AXIS2_PLACEMENT_3D ( 'NONE', #416, #857, #489 ) ;
#370 = DIRECTION ( 'NONE',  ( 0.0000000000000000000, 0.0000000000000000000, -1.000000000000000000 ) ) ;
#371 = DIRECTION ( 'NONE',  ( -1.000000000000000000, 0.0000000000000000000, 0.0000000000000000000 ) ) ;
#372 = EDGE_CURVE ( 'NONE', #495, #754, #864, .T. ) ;
#373 = DIRECTION ( 'NONE',  ( 0.0000000000000000000, 1.000000000000000000, 0.0000000000000000000 ) ) ;
#374 = CIRCLE ( 'NONE', #225, 2.000000000000000000 ) ;
#375 = CARTESIAN_POINT ( 'NONE',  ( 9.366750419289196827, 7.000000000000000000, 0.0000000000000000000 ) ) ;
#376 = EDGE_LOOP ( 'NONE', ( #77, #101, #198, #60 ) ) ;
#377 = FACE_OUTER_BOUND ( 'NONE', #248, .T. ) ;
#378 = DIRECTION ( 'NONE',  ( -0.0000000000000000000, 1.000000000000000000, -0.0000000000000000000 ) ) ;
#379 = ORIENTED_EDGE ( 'NONE', *, *, #785, .T. ) ;
#380 = DIRECTION ( 'NONE',  ( 0.0000000000000000000, 0.0000000000000000000, 1.000000000000000000 ) ) ;
#381 = DIRECTION ( 'NONE',  ( 0.0000000000000000000, 0.0000000000000000000, -1.000000000000000000 ) ) ;
#382 = AXIS2_PLACEMENT_3D ( 'NONE', #178, #383, #84 ) ;
#383 = DIRECTION ( 'NONE',  ( 0.0000000000000000000, -1.000000000000000000, 0.0000000000000000000 ) ) ;
#384 = PERSON_AND_ORGANIZATION ( #149, #97 ) ;
#385 = AXIS2_PLACEMENT_3D ( 'NONE', #2, #872, #296 ) ;
#386 = ORIENTED_EDGE ( 'NONE', *, *, #238, .F. ) ;
#387 = LINE ( 'NONE', #753, #755 ) ;
#388 = ORIENTED_EDGE ( 'NONE', *, *, #44, .T. ) ;
#389 = VERTEX_POINT ( 'NONE', #106 ) ;
#390 = ORIENTED_EDGE ( 'NONE', *, *, #510, .F. ) ;
#391 = CARTESIAN_POINT ( 'NONE',  ( 2.000000000000000000, 5.000000000000000000, -10.00000000000000000 ) ) ;
#392 = EDGE_CURVE ( 'NONE', #347, #735, #577, .T. ) ;
#393 = ADVANCED_FACE ( 'NONE', ( #526 ), #838, .F. ) ;
#394 = CARTESIAN_POINT ( 'NONE',  ( 0.0000000000000000000, 7.000000000000000000, -10.00000000000000000 ) ) ;
#395 = LINE ( 'NONE', #157, #206 ) ;
#396 = CARTESIAN_POINT ( 'NONE',  ( 13.78891680642973405, 3.666666666666664742, 0.0000000000000000000 ) ) ;
#397 = EDGE_LOOP ( 'NONE', ( #186, #184, #630, #401 ) ) ;
#398 = CIRCLE ( 'NONE', #521, 2.750000000000001776 ) ;
#399 = AXIS2_PLACEMENT_3D ( 'NONE', #535, #891, #759 ) ;
#400 = ORIENTED_EDGE ( 'NONE', *, *, #91, .T. ) ;
#401 = ORIENTED_EDGE ( 'NONE', *, *, #147, .F. ) ;
#402 = CARTESIAN_POINT ( 'NONE',  ( 0.0000000000000000000, 0.0000000000000000000, -12.00000000000000000 ) ) ;
#403 = APPLICATION_PROTOCOL_DEFINITION ( 'international standard', 'config_control_design', 1994, #837 ) ;
#404 = EDGE_CURVE ( 'NONE', #11, #926, #253, .T. ) ;
#405 = DIRECTION ( 'NONE',  ( 0.0000000000000000000, 0.0000000000000000000, -1.000000000000000000 ) ) ;
#406 = MECHANICAL_CONTEXT ( 'NONE', #837, 'mechanical' ) ;
#407 = CIRCLE ( 'NONE', #589, 2.000000000000000000 ) ;
#408 = CIRCLE ( 'NONE', #168, 2.000000000000000444 ) ;
#409 = EDGE_CURVE ( 'NONE', #53, #208, #182, .T. ) ;
#410 = ORIENTED_EDGE ( 'NONE', *, *, #848, .F. ) ;
#411 = CARTESIAN_POINT ( 'NONE',  ( 9.366750419289196827, -3.000000000000000000, -1.999999999999998224 ) ) ;
#412 = AXIS2_PLACEMENT_3D ( 'NONE', #650, #651, #723 ) ;
#413 = ORIENTED_EDGE ( 'NONE', *, *, #774, .T. ) ;
#414 = CARTESIAN_POINT ( 'NONE',  ( 2.000000000000000000, 7.000000000000000000, 0.0000000000000000000 ) ) ;
#415 = EDGE_CURVE ( 'NONE', #780, #23, #629, .T. ) ;
#416 = CARTESIAN_POINT ( 'NONE',  ( 16.00000000000000000, 6.999999999999998224, -1.999999999999998224 ) ) ;
#417 = CARTESIAN_POINT ( 'NONE',  ( 9.366750419289196827, 5.000000000000000000, -10.00000000000000000 ) ) ;
#418 = ORIENTED_EDGE ( 'NONE', *, *, #12, .T. ) ;
#419 = CIRCLE ( 'NONE', #662, 2.000000000000000000 ) ;
#420 = ADVANCED_FACE ( 'NONE', ( #860 ), #109, .F. ) ;
#421 = ORIENTED_EDGE ( 'NONE', *, *, #95, .T. ) ;
#422 = TOROIDAL_SURFACE ( 'NONE', #219, 8.000000000000000000, 2.000000000000000000 ) ;
#423 = AXIS2_PLACEMENT_3D ( 'NONE', #561, #482, #638 ) ;
#424 = ORIENTED_EDGE ( 'NONE', *, *, #286, .T. ) ;
#425 = CARTESIAN_POINT ( 'NONE',  ( 26.00000000000000355, 7.000000000000000000, -2.000000000000000000 ) ) ;
#426 = ORIENTED_EDGE ( 'NONE', *, *, #444, .T. ) ;
#427 = ADVANCED_FACE ( 'NONE', ( #719 ), #422, .T. ) ;
#428 = DIRECTION ( 'NONE',  ( 0.0000000000000000000, -1.000000000000000000, 0.0000000000000000000 ) ) ;
#429 = EDGE_CURVE ( 'NONE', #4, #279, #623, .T. ) ;
#430 = CC_DESIGN_PERSON_AND_ORGANIZATION_ASSIGNMENT ( #876, #696, ( #446 ) ) ;
#431 = TOROIDAL_SURFACE ( 'NONE', #575, 8.000000000000000000, 2.000000000000000000 ) ;
#432 = CALENDAR_DATE ( 2019, 12, 12 ) ;
#433 = FACE_OUTER_BOUND ( 'NONE', #74, .T. ) ;
#434 = FACE_OUTER_BOUND ( 'NONE', #316, .T. ) ;
#435 = CARTESIAN_POINT ( 'NONE',  ( 0.0000000000000000000, 7.000000000000000000, 0.0000000000000000000 ) ) ;
#436 = ORIENTED_EDGE ( 'NONE', *, *, #233, .F. ) ;
#437 = DIRECTION ( 'NONE',  ( -0.0000000000000000000, 1.000000000000000000, -0.0000000000000000000 ) ) ;
#438 = ORIENTED_EDGE ( 'NONE', *, *, #627, .T. ) ;
#439 = AXIS2_PLACEMENT_3D ( 'NONE', #695, #179, #176 ) ;
#440 = CARTESIAN_POINT ( 'NONE',  ( 0.0000000000000000000, 0.0000000000000000000, 0.0000000000000000000 ) ) ;
#441 = CARTESIAN_POINT ( 'NONE',  ( 16.00000000000000000, 2.999999999999999112, -2.000000000000000000 ) ) ;
#442 = CARTESIAN_POINT ( 'NONE',  ( 20.00000000000000000, 4.999999999999999112, -2.949999999999994404 ) ) ;
#443 = DIRECTION ( 'NONE',  ( 0.0000000000000000000, 0.0000000000000000000, -1.000000000000000000 ) ) ;
#444 = EDGE_CURVE ( 'NONE', #208, #556, #163, .T. ) ;
#445 = DIRECTION ( 'NONE',  ( 1.000000000000000000, 0.0000000000000000000, 0.0000000000000000000 ) ) ;
#446 = PRODUCT ( 'Cables clamp', 'Cables clamp', '', ( #406 ) ) ;
#447 = CARTESIAN_POINT ( 'NONE',  ( 24.00000000000000000, 7.000000000000000000, -2.000000000000000000 ) ) ;
#448 = ORIENTED_EDGE ( 'NONE', *, *, #774, .F. ) ;
#449 = CIRCLE ( 'NONE', #50, 2.000000000000000000 ) ;
#450 = EDGE_LOOP ( 'NONE', ( #210, #309, #834 ) ) ;
#451 = PLANE ( 'NONE',  #305 ) ;
#452 = ORIENTED_EDGE ( 'NONE', *, *, #542, .F. ) ;
#453 = ORIENTED_EDGE ( 'NONE', *, *, #12, .F. ) ;
#454 = DIRECTION ( 'NONE',  ( 0.0000000000000000000, 0.0000000000000000000, 1.000000000000000000 ) ) ;
#455 = SECURITY_CLASSIFICATION ( '', '', #901 ) ;
#456 = CARTESIAN_POINT ( 'NONE',  ( 0.0000000000000000000, 5.000000000000000000, -10.00000000000000000 ) ) ;
#457 = DIRECTION ( 'NONE',  ( -0.0000000000000000000, -1.000000000000000000, -0.0000000000000000000 ) ) ;
#458 = DIRECTION ( 'NONE',  ( -1.000000000000000000, 0.0000000000000000000, 0.0000000000000000000 ) ) ;
#459 = EDGE_CURVE ( 'NONE', #636, #781, #922, .T. ) ;
#460 = FACE_BOUND ( 'NONE', #32, .T. ) ;
#461 = LOCAL_TIME ( 17, 32, 55.00000000000000000, #584 ) ;
#462 = DIRECTION ( 'NONE',  ( 0.0000000000000000000, -0.0000000000000000000, -1.000000000000000000 ) ) ;
#463 = LINE ( 'NONE', #582, #213 ) ;
#464 = CIRCLE ( 'NONE', #298, 8.000000000000000000 ) ;
#465 = CARTESIAN_POINT ( 'NONE',  ( 16.00000000000000000, 6.999999999999998224, 0.0000000000000000000 ) ) ;
#466 = ORIENTED_EDGE ( 'NONE', *, *, #580, .F. ) ;
#467 = AXIS2_PLACEMENT_3D ( 'NONE', #604, #235, #314 ) ;
#468 = CARTESIAN_POINT ( 'NONE',  ( 2.000000000000000000, 5.000000000000000000, -10.00000000000000000 ) ) ;
#469 = DIRECTION ( 'NONE',  ( 0.0000000000000000000, 0.0000000000000000000, 1.000000000000000000 ) ) ;
#470 = CARTESIAN_POINT ( 'NONE',  ( 2.000000000000000000, 5.000000000000000000, 0.0000000000000000000 ) ) ;
#471 = CIRCLE ( 'NONE', #319, 2.000000000000000000 ) ;
#472 = FACE_OUTER_BOUND ( 'NONE', #646, .T. ) ;
#473 = ORIENTED_EDGE ( 'NONE', *, *, #147, .T. ) ;
#474 =( LENGTH_UNIT ( ) NAMED_UNIT ( * ) SI_UNIT ( .MILLI., .METRE. ) );
#475 = ORIENTED_EDGE ( 'NONE', *, *, #62, .F. ) ;
#476 = CARTESIAN_POINT ( 'NONE',  ( 7.000000000000000000, 0.0000000000000000000, -26.00000000000000000 ) ) ;
#477 = AXIS2_PLACEMENT_3D ( 'NONE', #674, #227, #739 ) ;
#478 = DIRECTION ( 'NONE',  ( 0.0000000000000000000, 1.000000000000000000, 0.0000000000000000000 ) ) ;
#479 = DIRECTION ( 'NONE',  ( 0.0000000000000000000, -1.000000000000000000, 0.0000000000000000000 ) ) ;
#480 = EDGE_CURVE ( 'NONE', #636, #923, #887, .T. ) ;
#481 = LINE ( 'NONE', #203, #30 ) ;
#482 = DIRECTION ( 'NONE',  ( 0.0000000000000000000, 0.0000000000000000000, 1.000000000000000000 ) ) ;
#483 = FACE_OUTER_BOUND ( 'NONE', #539, .T. ) ;
#484 = CYLINDRICAL_SURFACE ( 'NONE', #715, 1.999999999999999556 ) ;
#485 = ORIENTED_EDGE ( 'NONE', *, *, #372, .F. ) ;
#486 = ORIENTED_EDGE ( 'NONE', *, *, #627, .F. ) ;
#487 = DIRECTION ( 'NONE',  ( -1.000000000000000000, 0.0000000000000000000, 0.0000000000000000000 ) ) ;
#488 = EDGE_CURVE ( 'NONE', #320, #495, #741, .T. ) ;
#489 = DIRECTION ( 'NONE',  ( -1.000000000000000000, 8.673617379884035472E-16, 0.0000000000000000000 ) ) ;
#490 = CARTESIAN_POINT ( 'NONE',  ( 0.0000000000000000000, 0.0000000000000000000, 0.0000000000000000000 ) ) ;
#491 = VECTOR ( 'NONE', #885, 1000.000000000000000 ) ;
#492 = FACE_BOUND ( 'NONE', #778, .T. ) ;
#493 = EDGE_CURVE ( 'NONE', #619, #266, #481, .T. ) ;
#494 = EDGE_LOOP ( 'NONE', ( #390, #814, #330, #379, #935, #579 ) ) ;
#495 = VERTEX_POINT ( 'NONE', #200 ) ;
#496 = ADVANCED_FACE ( 'NONE', ( #766 ), #275, .T. ) ;
#497 = DIRECTION ( 'NONE',  ( 0.0000000000000000000, -1.000000000000000000, 0.0000000000000000000 ) ) ;
#498 = CC_DESIGN_PERSON_AND_ORGANIZATION_ASSIGNMENT ( #160, #193, ( #455 ) ) ;
#499 = DIRECTION ( 'NONE',  ( 1.000000000000000000, 0.0000000000000000000, 0.0000000000000000000 ) ) ;
#500 = CARTESIAN_POINT ( 'NONE',  ( 24.00000000000000000, 3.000000000000000888, -2.000000000000000000 ) ) ;
#501 = CYLINDRICAL_SURFACE ( 'NONE', #637, 2.750000000000001776 ) ;
#502 = PERSON_AND_ORGANIZATION ( #149, #97 ) ;
#503 = ORIENTED_EDGE ( 'NONE', *, *, #640, .F. ) ;
#504 = AXIS2_PLACEMENT_3D ( 'NONE', #81, #368, #883 ) ;
#505 = ORIENTED_EDGE ( 'NONE', *, *, #833, .F. ) ;
#506 = CARTESIAN_POINT ( 'NONE',  ( 20.00000000000000000, 0.0000000000000000000, -9.050000000000006040 ) ) ;
#507 = ORIENTED_EDGE ( 'NONE', *, *, #459, .F. ) ;
#508 = DIRECTION ( 'NONE',  ( -1.000000000000000000, 0.0000000000000000000, -0.0000000000000000000 ) ) ;
#509 = CARTESIAN_POINT ( 'NONE',  ( 13.78891680642973405, 3.666666666666664742, -12.00000000000000000 ) ) ;
#510 = EDGE_CURVE ( 'NONE', #588, #320, #721, .T. ) ;
#511 = APPROVAL ( #703, 'UNSPECIFIED' ) ;
#512 = CARTESIAN_POINT ( 'NONE',  ( 13.78891680642973405, 3.666666666666664742, -10.00000000000000000 ) ) ;
#513 = ORIENTED_EDGE ( 'NONE', *, *, #40, .T. ) ;
#514 = CIRCLE ( 'NONE', #155, 4.000000000000000000 ) ;
#515 = ORIENTED_EDGE ( 'NONE', *, *, #928, .T. ) ;
#516 = CARTESIAN_POINT ( 'NONE',  ( 26.00000000000000355, 7.000000000000000000, -10.00000000000000000 ) ) ;
#517 = ORIENTED_EDGE ( 'NONE', *, *, #925, .T. ) ;
#518 = AXIS2_PLACEMENT_3D ( 'NONE', #58, #920, #359 ) ;
#519 = CARTESIAN_POINT ( 'NONE',  ( 26.00000000000000355, 3.000000000000000888, -10.00000000000000000 ) ) ;
#520 = DIRECTION ( 'NONE',  ( -1.000000000000000000, 0.0000000000000000000, 0.0000000000000000000 ) ) ;
#521 = AXIS2_PLACEMENT_3D ( 'NONE', #113, #708, #261 ) ;
#522 = DIRECTION ( 'NONE',  ( 0.0000000000000000000, -0.0000000000000000000, 1.000000000000000000 ) ) ;
#523 = DIRECTION ( 'NONE',  ( 1.000000000000000000, 2.168404344971009361E-16, 0.0000000000000000000 ) ) ;
#524 = LINE ( 'NONE', #323, #307 ) ;
#525 = ORIENTED_EDGE ( 'NONE', *, *, #822, .F. ) ;
#526 = FACE_OUTER_BOUND ( 'NONE', #590, .T. ) ;
#527 = DIRECTION ( 'NONE',  ( 1.000000000000000000, 0.0000000000000000000, 0.0000000000000000000 ) ) ;
#528 = ORIENTED_EDGE ( 'NONE', *, *, #925, .F. ) ;
#529 = EDGE_CURVE ( 'NONE', #320, #347, #398, .T. ) ;
#530 = EDGE_LOOP ( 'NONE', ( #350, #704, #825, #366 ) ) ;
#531 = CC_DESIGN_SECURITY_CLASSIFICATION ( #455, ( #118 ) ) ;
#532 = DIRECTION ( 'NONE',  ( 0.0000000000000000000, 0.0000000000000000000, 1.000000000000000000 ) ) ;
#533 = AXIS2_PLACEMENT_3D ( 'NONE', #736, #285, #884 ) ;
#534 = UNCERTAINTY_MEASURE_WITH_UNIT (LENGTH_MEASURE( 1.000000000000000082E-05 ), #474, 'distance_accuracy_value', 'NONE');
#535 = CARTESIAN_POINT ( 'NONE',  ( 2.000000000000000000, 0.0000000000000000000, -10.00000000000000000 ) ) ;
#536 = FACE_OUTER_BOUND ( 'NONE', #52, .T. ) ;
#537 = CIRCLE ( 'NONE', #775, 9.999999999999998224 ) ;
#538 = CARTESIAN_POINT ( 'NONE',  ( 2.000000000000000000, 5.000000000000000000, -10.00000000000000000 ) ) ;
#539 = EDGE_LOOP ( 'NONE', ( #826, #89, #413, #765 ) ) ;
#540 = ADVANCED_FACE ( 'NONE', ( #377 ), #431, .T. ) ;
#541 = ORIENTED_EDGE ( 'NONE', *, *, #867, .T. ) ;
#542 = EDGE_CURVE ( 'NONE', #936, #4, #185, .T. ) ;
#543 = DIRECTION ( 'NONE',  ( 0.0000000000000000000, 0.0000000000000000000, -1.000000000000000000 ) ) ;
#544 = DIRECTION ( 'NONE',  ( 0.0000000000000000000, 0.0000000000000000000, 1.000000000000000000 ) ) ;
#545 = CARTESIAN_POINT ( 'NONE',  ( 4.249999999999999112, 0.0000000000000000000, -12.00000000000000000 ) ) ;
#546 =( NAMED_UNIT ( * ) PLANE_ANGLE_UNIT ( ) SI_UNIT ( $, .RADIAN. ) );
#547 = DIRECTION ( 'NONE',  ( 0.0000000000000000000, 0.0000000000000000000, 1.000000000000000000 ) ) ;
#548 = CC_DESIGN_DATE_AND_TIME_ASSIGNMENT ( #608, #839, ( #455 ) ) ;
#549 = LINE ( 'NONE', #727, #136 ) ;
#550 = PERSON_AND_ORGANIZATION ( #149, #97 ) ;
#551 = ORIENTED_EDGE ( 'NONE', *, *, #874, .T. ) ;
#552 = FACE_OUTER_BOUND ( 'NONE', #229, .T. ) ;
#553 = DATE_TIME_ROLE ( 'creation_date' ) ;
#554 = ORIENTED_EDGE ( 'NONE', *, *, #415, .F. ) ;
#555 = DIRECTION ( 'NONE',  ( 1.000000000000000000, -0.0000000000000000000, 0.0000000000000000000 ) ) ;
#556 = VERTEX_POINT ( 'NONE', #660 ) ;
#557 = PERSON_AND_ORGANIZATION_ROLE ( 'creator' ) ;
#558 = AXIS2_PLACEMENT_3D ( 'NONE', #14, #675, #169 ) ;
#559 = DIRECTION ( 'NONE',  ( 1.000000000000000000, -0.0000000000000000000, 0.0000000000000000000 ) ) ;
#560 = DIRECTION ( 'NONE',  ( 1.000000000000000000, 0.0000000000000000000, 0.0000000000000000000 ) ) ;
#561 = CARTESIAN_POINT ( 'NONE',  ( 16.00000000000000000, 6.999999999999998224, -9.999999999999998224 ) ) ;
#562 = EDGE_CURVE ( 'NONE', #713, #634, #549, .T. ) ;
#563 = LOCAL_TIME ( 17, 32, 55.00000000000000000, #904 ) ;
#564 = LINE ( 'NONE', #743, #223 ) ;
#565 = VECTOR ( 'NONE', #805, 1000.000000000000000 ) ;
#566 = CC_DESIGN_APPROVAL ( #190, ( #215 ) ) ;
#567 = ORIENTED_EDGE ( 'NONE', *, *, #202, .T. ) ;
#568 = ORIENTED_EDGE ( 'NONE', *, *, #55, .T. ) ;
#569 = AXIS2_PLACEMENT_3D ( 'NONE', #581, #51, #572 ) ;
#570 = DIRECTION ( 'NONE',  ( -1.000000000000000000, -0.0000000000000000000, -0.0000000000000000000 ) ) ;
#571 = ADVANCED_FACE ( 'NONE', ( #552 ), #870, .F. ) ;
#572 = DIRECTION ( 'NONE',  ( 1.000000000000000000, 2.843808977011155364E-16, 0.0000000000000000000 ) ) ;
#573 = VECTOR ( 'NONE', #428, 1000.000000000000000 ) ;
#574 = COORDINATED_UNIVERSAL_TIME_OFFSET ( 0, 0, .AHEAD. ) ;
#575 = AXIS2_PLACEMENT_3D ( 'NONE', #119, #635, #929 ) ;
#576 = ORIENTED_EDGE ( 'NONE', *, *, #833, .T. ) ;
#577 = LINE ( 'NONE', #402, #799 ) ;
#578 = ORIENTED_EDGE ( 'NONE', *, *, #76, .F. ) ;
#579 = ORIENTED_EDGE ( 'NONE', *, *, #488, .F. ) ;
#580 = EDGE_CURVE ( 'NONE', #936, #29, #345, .T. ) ;
#581 = CARTESIAN_POINT ( 'NONE',  ( 20.00000000000000000, 4.999999999999999112, -6.000000000000000000 ) ) ;
#582 = CARTESIAN_POINT ( 'NONE',  ( 26.00000000000000355, 0.0000000000000000000, 0.0000000000000000000 ) ) ;
#583 = DIRECTION ( 'NONE',  ( 0.0000000000000000000, -1.000000000000000000, 0.0000000000000000000 ) ) ;
#584 = COORDINATED_UNIVERSAL_TIME_OFFSET ( 0, 0, .AHEAD. ) ;
#585 = ORIENTED_EDGE ( 'NONE', *, *, #707, .T. ) ;
#586 = DIRECTION ( 'NONE',  ( -0.0000000000000000000, -0.0000000000000000000, 1.000000000000000000 ) ) ;
#587 = CIRCLE ( 'NONE', #260, 8.000000000000000000 ) ;
#588 = VERTEX_POINT ( 'NONE', #792 ) ;
#589 = AXIS2_PLACEMENT_3D ( 'NONE', #441, #71, #68 ) ;
#590 = EDGE_LOOP ( 'NONE', ( #517, #888, #591, #426 ) ) ;
#591 = ORIENTED_EDGE ( 'NONE', *, *, #409, .T. ) ;
#592 = DIRECTION ( 'NONE',  ( 0.0000000000000000000, 0.0000000000000000000, -1.000000000000000000 ) ) ;
#593 = DIRECTION ( 'NONE',  ( 1.000000000000000000, 0.0000000000000000000, 0.0000000000000000000 ) ) ;
#594 = CARTESIAN_POINT ( 'NONE',  ( 26.00000000000000355, 3.000000000000000888, 0.0000000000000000000 ) ) ;
#595 = CARTESIAN_POINT ( 'NONE',  ( 24.00000000000000000, 3.000000000000000000, -10.00000000000000000 ) ) ;
#596 = CARTESIAN_POINT ( 'NONE',  ( 0.0000000000000000000, 7.000000000000000000, -12.00000000000000000 ) ) ;
#597 = CIRCLE ( 'NONE', #558, 1.999999999999999778 ) ;
#598 = ORIENTED_EDGE ( 'NONE', *, *, #339, .F. ) ;
#599 = VECTOR ( 'NONE', #108, 1000.000000000000000 ) ;
#600 = EDGE_LOOP ( 'NONE', ( #585, #835, #424, #171 ) ) ;
#601 = CARTESIAN_POINT ( 'NONE',  ( 0.0000000000000000000, 0.0000000000000000000, -10.00000000000000000 ) ) ;
#602 = CC_DESIGN_APPROVAL ( #511, ( #455 ) ) ;
#603 = EDGE_LOOP ( 'NONE', ( #578, #486, #567, #897 ) ) ;
#604 = CARTESIAN_POINT ( 'NONE',  ( 26.00000000000000355, 5.000000000000000888, -26.00000000000000000 ) ) ;
#605 = DIRECTION ( 'NONE',  ( 0.0000000000000000000, -1.000000000000000000, 0.0000000000000000000 ) ) ;
#606 = AXIS2_PLACEMENT_3D ( 'NONE', #595, #586, #881 ) ;
#607 = DIRECTION ( 'NONE',  ( 0.0000000000000000000, 0.0000000000000000000, -1.000000000000000000 ) ) ;
#608 = DATE_AND_TIME ( #432, #461 ) ;
#609 = TOROIDAL_SURFACE ( 'NONE', #892, 4.000000000000000000, 2.000000000000000000 ) ;
#610 = LINE ( 'NONE', #295, #100 ) ;
#611 = ORIENTED_EDGE ( 'NONE', *, *, #272, .F. ) ;
#612 = EDGE_CURVE ( 'NONE', #4, #245, #701, .T. ) ;
#613 = AXIS2_PLACEMENT_3D ( 'NONE', #447, #222, #370 ) ;
#614 = ADVANCED_FACE ( 'NONE', ( #159 ), #903, .T. ) ;
#615 = CARTESIAN_POINT ( 'NONE',  ( 0.0000000000000000000, 0.0000000000000000000, 0.0000000000000000000 ) ) ;
#616 = DIRECTION ( 'NONE',  ( 0.0000000000000000000, 0.0000000000000000000, -1.000000000000000000 ) ) ;
#617 = AXIS2_PLACEMENT_3D ( 'NONE', #435, #583, #718 ) ;
#618 = APPROVAL_ROLE ( '' ) ;
#619 = VERTEX_POINT ( 'NONE', #57 ) ;
#620 = FACE_OUTER_BOUND ( 'NONE', #844, .T. ) ;
#621 = CARTESIAN_POINT ( 'NONE',  ( 2.000000000000000000, 5.000000000000000000, -2.000000000000000000 ) ) ;
#622 = ORIENTED_EDGE ( 'NONE', *, *, #910, .T. ) ;
#623 = LINE ( 'NONE', #414, #678 ) ;
#624 = ORIENTED_EDGE ( 'NONE', *, *, #202, .F. ) ;
#625 = AXIS2_PLACEMENT_3D ( 'NONE', #685, #605, #237 ) ;
#626 = DIRECTION ( 'NONE',  ( 0.0000000000000000000, -1.000000000000000000, 0.0000000000000000000 ) ) ;
#627 = EDGE_CURVE ( 'NONE', #23, #780, #326, .T. ) ;
#628 = CARTESIAN_POINT ( 'NONE',  ( 8.673617379884047305E-16, 2.999999999999995559, 0.0000000000000000000 ) ) ;
#629 = CIRCLE ( 'NONE', #687, 3.050000000000004263 ) ;
#630 = ORIENTED_EDGE ( 'NONE', *, *, #312, .F. ) ;
#631 = CIRCLE ( 'NONE', #399, 2.000000000000000000 ) ;
#632 = PERSON_AND_ORGANIZATION_ROLE ( 'creator' ) ;
#633 = ADVANCED_FACE ( 'NONE', ( #111 ), #85, .T. ) ;
#634 = VERTEX_POINT ( 'NONE', #354 ) ;
#635 = DIRECTION ( 'NONE',  ( 0.0000000000000000000, 0.0000000000000000000, 1.000000000000000000 ) ) ;
#636 = VERTEX_POINT ( 'NONE', #140 ) ;
#637 = AXIS2_PLACEMENT_3D ( 'NONE', #476, #35, #760 ) ;
#638 = DIRECTION ( 'NONE',  ( 1.000000000000000000, 0.0000000000000000000, 0.0000000000000000000 ) ) ;
#639 = ADVANCED_FACE ( 'NONE', ( #472 ), #764, .T. ) ;
#640 = EDGE_CURVE ( 'NONE', #139, #654, #328, .T. ) ;
#641 = ADVANCED_FACE ( 'NONE', ( #801 ), #878, .T. ) ;
#642 = DIRECTION ( 'NONE',  ( 0.0000000000000000000, 1.000000000000000000, -0.0000000000000000000 ) ) ;
#643 = VECTOR ( 'NONE', #292, 1000.000000000000000 ) ;
#644 = CIRCLE ( 'NONE', #757, 2.000000000000000000 ) ;
#645 = ORIENTED_EDGE ( 'NONE', *, *, #180, .T. ) ;
#646 = EDGE_LOOP ( 'NONE', ( #742, #293, #683, #165 ) ) ;
#647 = CARTESIAN_POINT ( 'NONE',  ( 8.673617379884047305E-16, 2.999999999999995559, -10.00000000000000000 ) ) ;
#648 = VERTEX_POINT ( 'NONE', #355 ) ;
#649 = ADVANCED_FACE ( 'NONE', ( #207 ), #894, .T. ) ;
#650 = CARTESIAN_POINT ( 'NONE',  ( 24.00000000000000000, 3.000000000000000888, -10.00000000000000000 ) ) ;
#651 = DIRECTION ( 'NONE',  ( 0.0000000000000000000, 1.000000000000000000, 0.0000000000000000000 ) ) ;
#652 = VECTOR ( 'NONE', #378, 1000.000000000000000 ) ;
#653 = CALENDAR_DATE ( 2019, 12, 12 ) ;
#654 = VERTEX_POINT ( 'NONE', #132 ) ;
#655 = LINE ( 'NONE', #98, #124 ) ;
#656 = DIRECTION ( 'NONE',  ( -2.168404344971009361E-16, 1.000000000000000000, 0.0000000000000000000 ) ) ;
#657 = ADVANCED_FACE ( 'NONE', ( #789 ), #779, .T. ) ;
#658 = DIRECTION ( 'NONE',  ( 1.000000000000000000, 0.0000000000000000000, 0.0000000000000000000 ) ) ;
#659 = ORIENTED_EDGE ( 'NONE', *, *, #62, .T. ) ;
#660 = CARTESIAN_POINT ( 'NONE',  ( 0.0000000000000000000, 5.000000000000000000, -2.000000000000000000 ) ) ;
#661 = EDGE_CURVE ( 'NONE', #188, #853, #514, .T. ) ;
#662 = AXIS2_PLACEMENT_3D ( 'NONE', #468, #896, #469 ) ;
#663 = CARTESIAN_POINT ( 'NONE',  ( 9.366750419289196827, -3.000000000000000000, 0.0000000000000000000 ) ) ;
#664 = CARTESIAN_POINT ( 'NONE',  ( 26.00000000000000355, 3.000000000000000888, -2.000000000000000000 ) ) ;
#665 = CARTESIAN_POINT ( 'NONE',  ( 4.249999999999999112, 0.0000000000000000000, 0.0000000000000000000 ) ) ;
#666 = DATE_AND_TIME ( #287, #170 ) ;
#667 = ORIENTED_EDGE ( 'NONE', *, *, #76, .T. ) ;
#668 = PLANE ( 'NONE',  #905 ) ;
#669 = VECTOR ( 'NONE', #813, 1000.000000000000000 ) ;
#670 = VERTEX_POINT ( 'NONE', #865 ) ;
#671 = AXIS2_PLACEMENT_3D ( 'NONE', #65, #497, #858 ) ;
#672 = DIRECTION ( 'NONE',  ( 0.8333333333333337034, -0.5527707983925664870, 0.0000000000000000000 ) ) ;
#673 = ORIENTED_EDGE ( 'NONE', *, *, #612, .T. ) ;
#674 = CARTESIAN_POINT ( 'NONE',  ( 20.00000000000000000, 0.0000000000000000000, -6.000000000000000000 ) ) ;
#675 = DIRECTION ( 'NONE',  ( 0.8333333333333333703, -0.5527707983925667090, -2.397261202015072320E-16 ) ) ;
#676 = AXIS2_PLACEMENT_3D ( 'NONE', #538, #24, #325 ) ;
#677 = CARTESIAN_POINT ( 'NONE',  ( 20.00000000000000000, 7.000000000000000000, -9.050000000000006040 ) ) ;
#678 = VECTOR ( 'NONE', #128, 1000.000000000000000 ) ;
#679 = CYLINDRICAL_SURFACE ( 'NONE', #625, 2.000000000000000000 ) ;
#680 = FACE_OUTER_BOUND ( 'NONE', #102, .T. ) ;
#681 = VERTEX_POINT ( 'NONE', #506 ) ;
#682 = AXIS2_PLACEMENT_3D ( 'NONE', #830, #457, #616 ) ;
#683 = ORIENTED_EDGE ( 'NONE', *, *, #693, .F. ) ;
#684 = DIRECTION ( 'NONE',  ( -0.0000000000000000000, -1.000000000000000000, 0.0000000000000000000 ) ) ;
#685 = CARTESIAN_POINT ( 'NONE',  ( 24.00000000000000000, 7.000000000000000000, -10.00000000000000000 ) ) ;
#686 = CARTESIAN_POINT ( 'NONE',  ( 16.00000000000000000, 2.999999999999998224, -12.00000000000000000 ) ) ;
#687 = AXIS2_PLACEMENT_3D ( 'NONE', #784, #335, #847 ) ;
#688 = CARTESIAN_POINT ( 'NONE',  ( 2.000000000000000000, 7.000000000000000000, -10.00000000000000000 ) ) ;
#689 = CARTESIAN_POINT ( 'NONE',  ( 16.00000000000000000, 2.999999999999998224, -10.00000000000000000 ) ) ;
#690 = CYLINDRICAL_SURFACE ( 'NONE', #533, 2.000000000000001776 ) ;
#691 = VECTOR ( 'NONE', #733, 1000.000000000000000 ) ;
#692 = ORIENTED_EDGE ( 'NONE', *, *, #580, .T. ) ;
#693 = EDGE_CURVE ( 'NONE', #556, #266, #644, .T. ) ;
#694 = ORIENTED_EDGE ( 'NONE', *, *, #882, .F. ) ;
#695 = CARTESIAN_POINT ( 'NONE',  ( 0.0000000000000000000, 5.000000000000000000, -10.00000000000000000 ) ) ;
#696 = PERSON_AND_ORGANIZATION_ROLE ( 'design_owner' ) ;
#697 = CARTESIAN_POINT ( 'NONE',  ( 7.000000000000000000, 0.0000000000000000000, 0.0000000000000000000 ) ) ;
#698 = LINE ( 'NONE', #394, #599 ) ;
#699 = DIRECTION ( 'NONE',  ( 0.0000000000000000000, -0.0000000000000000000, -1.000000000000000000 ) ) ;
#700 = ORIENTED_EDGE ( 'NONE', *, *, #187, .F. ) ;
#701 = CIRCLE ( 'NONE', #205, 2.000000000000000000 ) ;
#702 = VERTEX_POINT ( 'NONE', #232 ) ;
#703 = APPROVAL_STATUS ( 'not_yet_approved' ) ;
#704 = ORIENTED_EDGE ( 'NONE', *, *, #372, .T. ) ;
#705 = EDGE_CURVE ( 'NONE', #495, #389, #610, .T. ) ;
#706 = DIRECTION ( 'NONE',  ( -1.000000000000000000, -0.0000000000000000000, -0.0000000000000000000 ) ) ;
#707 = EDGE_CURVE ( 'NONE', #634, #923, #264, .T. ) ;
#708 = DIRECTION ( 'NONE',  ( 0.0000000000000000000, 0.0000000000000000000, 1.000000000000000000 ) ) ;
#709 = PERSON_AND_ORGANIZATION ( #149, #97 ) ;
#710 = FACE_OUTER_BOUND ( 'NONE', #866, .T. ) ;
#711 = CIRCLE ( 'NONE', #247, 2.000000000000000000 ) ;
#712 = ORIENTED_EDGE ( 'NONE', *, *, #693, .T. ) ;
#713 = VERTEX_POINT ( 'NONE', #79 ) ;
#714 = ADVANCED_FACE ( 'NONE', ( #73 ), #484, .T. ) ;
#715 = AXIS2_PLACEMENT_3D ( 'NONE', #821, #365, #284 ) ;
#716 = DIRECTION ( 'NONE',  ( -0.0000000000000000000, -0.0000000000000000000, 1.000000000000000000 ) ) ;
#717 = ADVANCED_FACE ( 'NONE', ( #337 ), #214, .T. ) ;
#718 = DIRECTION ( 'NONE',  ( 0.0000000000000000000, -0.0000000000000000000, -1.000000000000000000 ) ) ;
#719 = FACE_OUTER_BOUND ( 'NONE', #258, .T. ) ;
#720 = ORIENTED_EDGE ( 'NONE', *, *, #612, .F. ) ;
#721 = LINE ( 'NONE', #845, #823 ) ;
#722 = EDGE_LOOP ( 'NONE', ( #216, #906, #908, #21 ) ) ;
#723 = DIRECTION ( 'NONE',  ( 1.000000000000000000, 0.0000000000000000000, 0.0000000000000000000 ) ) ;
#724 = EDGE_CURVE ( 'NONE', #781, #936, #317, .T. ) ;
#725 = PRODUCT_DEFINITION_SHAPE ( 'NONE', 'NONE',  #215 ) ;
#726 = DIRECTION ( 'NONE',  ( -1.000000000000000000, 0.0000000000000000000, 0.0000000000000000000 ) ) ;
#727 = CARTESIAN_POINT ( 'NONE',  ( 26.00000000000000355, 5.000000000000000888, -9.999999999999998224 ) ) ;
#728 = DIRECTION ( 'NONE',  ( 0.0000000000000000000, 0.0000000000000000000, -1.000000000000000000 ) ) ;
#729 = SHAPE_DEFINITION_REPRESENTATION ( #725, #105 ) ;
#730 = CARTESIAN_POINT ( 'NONE',  ( 9.366750419289196827, 5.000000000000000000, -12.00000000000000000 ) ) ;
#731 = AXIS2_PLACEMENT_3D ( 'NONE', #297, #880, #445 ) ;
#732 = VECTOR ( 'NONE', #658, 1000.000000000000000 ) ;
#733 = DIRECTION ( 'NONE',  ( 0.0000000000000000000, 0.0000000000000000000, 1.000000000000000000 ) ) ;
#734 = ORIENTED_EDGE ( 'NONE', *, *, #886, .F. ) ;
#735 = VERTEX_POINT ( 'NONE', #934 ) ;
#736 = CARTESIAN_POINT ( 'NONE',  ( 24.00000000000000000, 3.000000000000000888, 0.0000000000000000000 ) ) ;
#737 = EDGE_CURVE ( 'NONE', #923, #648, #363, .T. ) ;
#738 = CARTESIAN_POINT ( 'NONE',  ( 16.00000000000000000, 6.999999999999998224, -12.00000000000000000 ) ) ;
#739 = DIRECTION ( 'NONE',  ( 0.0000000000000000000, 0.0000000000000000000, 1.000000000000000000 ) ) ;
#740 = CARTESIAN_POINT ( 'NONE',  ( 2.000000000000000000, 5.000000000000000000, -2.000000000000000000 ) ) ;
#741 = LINE ( 'NONE', #122, #228 ) ;
#742 = ORIENTED_EDGE ( 'NONE', *, *, #867, .F. ) ;
#743 = CARTESIAN_POINT ( 'NONE',  ( 2.000000000000000000, 7.000000000000000000, 0.0000000000000000000 ) ) ;
#744 = FACE_OUTER_BOUND ( 'NONE', #793, .T. ) ;
#745 = AXIS2_PLACEMENT_3D ( 'NONE', #875, #9, #70 ) ;
#746 = DIRECTION ( 'NONE',  ( 0.0000000000000000000, 0.0000000000000000000, 1.000000000000000000 ) ) ;
#747 = ORIENTED_EDGE ( 'NONE', *, *, #357, .T. ) ;
#748 = ORIENTED_EDGE ( 'NONE', *, *, #44, .F. ) ;
#749 = CARTESIAN_POINT ( 'NONE',  ( 2.000000000000000000, 5.000000000000000000, -12.00000000000000000 ) ) ;
#750 = CARTESIAN_POINT ( 'NONE',  ( 0.0000000000000000000, 0.0000000000000000000, 0.0000000000000000000 ) ) ;
#751 = CARTESIAN_POINT ( 'NONE',  ( 24.00000000000000000, 3.000000000000000888, -10.00000000000000000 ) ) ;
#752 = APPROVAL_PERSON_ORGANIZATION ( #183, #190, #37 ) ;
#753 = CARTESIAN_POINT ( 'NONE',  ( 0.0000000000000000000, 7.000000000000000000, -2.000000000000000000 ) ) ;
#754 = VERTEX_POINT ( 'NONE', #665 ) ;
#755 = VECTOR ( 'NONE', #827, 1000.000000000000000 ) ;
#756 = ORIENTED_EDGE ( 'NONE', *, *, #25, .T. ) ;
#757 = AXIS2_PLACEMENT_3D ( 'NONE', #740, #938, #145 ) ;
#758 = ORIENTED_EDGE ( 'NONE', *, *, #882, .T. ) ;
#759 = DIRECTION ( 'NONE',  ( 0.0000000000000000000, 0.0000000000000000000, -1.000000000000000000 ) ) ;
#760 = DIRECTION ( 'NONE',  ( 1.000000000000000000, 0.0000000000000000000, 0.0000000000000000000 ) ) ;
#761 = CARTESIAN_POINT ( 'NONE',  ( 16.00000000000000000, 2.999999999999998224, 0.0000000000000000000 ) ) ;
#762 = AXIS2_PLACEMENT_3D ( 'NONE', #688, #684, #92 ) ;
#763 = DIRECTION ( 'NONE',  ( 0.0000000000000000000, 0.0000000000000000000, 1.000000000000000000 ) ) ;
#764 = CYLINDRICAL_SURFACE ( 'NONE', #671, 2.000000000000000000 ) ;
#765 = ORIENTED_EDGE ( 'NONE', *, *, #640, .T. ) ;
#766 = FACE_OUTER_BOUND ( 'NONE', #376, .T. ) ;
#767 = CARTESIAN_POINT ( 'NONE',  ( 9.366750419289196827, -3.000000000000000000, -12.00000000000000000 ) ) ;
#768 = AXIS2_PLACEMENT_3D ( 'NONE', #417, #726, #796 ) ;
#769 = ORIENTED_EDGE ( 'NONE', *, *, #286, .F. ) ;
#770 = DIRECTION ( 'NONE',  ( 1.000000000000000000, 0.0000000000000000000, 0.0000000000000000000 ) ) ;
#771 = ORIENTED_EDGE ( 'NONE', *, *, #133, .F. ) ;
#772 = CARTESIAN_POINT ( 'NONE',  ( 2.000000000000000000, 7.000000000000000000, -2.000000000000000000 ) ) ;
#773 = APPLICATION_CONTEXT ( 'configuration controlled 3d designs of mechanical parts and assemblies' ) ;
#774 = EDGE_CURVE ( 'NONE', #49, #139, #197, .T. ) ;
#775 = AXIS2_PLACEMENT_3D ( 'NONE', #321, #380, #527 ) ;
#776 = APPROVAL_PERSON_ORGANIZATION ( #861, #3, #618 ) ;
#777 = DIRECTION ( 'NONE',  ( -1.000000000000000000, 0.0000000000000000000, 0.0000000000000000000 ) ) ;
#778 = EDGE_LOOP ( 'NONE', ( #438, #240 ) ) ;
#779 = SPHERICAL_SURFACE ( 'NONE', #412, 2.000000000000000000 ) ;
#780 = VERTEX_POINT ( 'NONE', #442 ) ;
#781 = VERTEX_POINT ( 'NONE', #873 ) ;
#782 = ORIENTED_EDGE ( 'NONE', *, *, #91, .F. ) ;
#783 = AXIS2_PLACEMENT_3D ( 'NONE', #918, #559, #342 ) ;
#784 = CARTESIAN_POINT ( 'NONE',  ( 20.00000000000000000, 4.999999999999999112, -6.000000000000000000 ) ) ;
#785 = EDGE_CURVE ( 'NONE', #654, #389, #449, .T. ) ;
#786 = DIRECTION ( 'NONE',  ( 0.0000000000000000000, 0.0000000000000000000, -1.000000000000000000 ) ) ;
#787 = ADVANCED_FACE ( 'NONE', ( #680 ), #289, .T. ) ;
#788 = FACE_OUTER_BOUND ( 'NONE', #42, .T. ) ;
#789 = FACE_OUTER_BOUND ( 'NONE', #450, .T. ) ;
#790 = ORIENTED_EDGE ( 'NONE', *, *, #187, .T. ) ;
#791 = SPHERICAL_SURFACE ( 'NONE', #676, 2.000000000000000000 ) ;
#792 = CARTESIAN_POINT ( 'NONE',  ( 24.00000000000000000, 0.0000000000000000000, -12.00000000000000000 ) ) ;
#793 = EDGE_LOOP ( 'NONE', ( #338, #199, #720 ) ) ;
#794 = ORIENTED_EDGE ( 'NONE', *, *, #357, .F. ) ;
#795 = CC_DESIGN_APPROVAL ( #3, ( #118 ) ) ;
#796 = DIRECTION ( 'NONE',  ( 0.0000000000000000000, 0.0000000000000000000, 1.000000000000000000 ) ) ;
#797 = AXIS2_PLACEMENT_3D ( 'NONE', #141, #283, #443 ) ;
#798 = DIRECTION ( 'NONE',  ( -0.0000000000000000000, -0.0000000000000000000, 1.000000000000000000 ) ) ;
#799 = VECTOR ( 'NONE', #706, 1000.000000000000000 ) ;
#800 = CIRCLE ( 'NONE', #606, 2.000000000000001776 ) ;
#801 = FACE_OUTER_BOUND ( 'NONE', #397, .T. ) ;
#802 = EDGE_LOOP ( 'NONE', ( #410, #879, #734, #352 ) ) ;
#803 = DIRECTION ( 'NONE',  ( -1.000000000000000000, 0.0000000000000000000, 0.0000000000000000000 ) ) ;
#804 = CARTESIAN_POINT ( 'NONE',  ( 2.000000000000000000, 7.000000000000000000, -10.00000000000000000 ) ) ;
#805 = DIRECTION ( 'NONE',  ( 0.0000000000000000000, 0.0000000000000000000, 1.000000000000000000 ) ) ;
#806 = CARTESIAN_POINT ( 'NONE',  ( 8.673617379884047305E-16, 2.999999999999995559, -12.00000000000000000 ) ) ;
#807 = DIRECTION ( 'NONE',  ( 0.0000000000000000000, -1.000000000000000000, 0.0000000000000000000 ) ) ;
#808 = CARTESIAN_POINT ( 'NONE',  ( 0.0000000000000000000, 0.0000000000000000000, 0.0000000000000000000 ) ) ;
#809 = CARTESIAN_POINT ( 'NONE',  ( 24.00000000000000000, 7.000000000000000000, -12.00000000000000000 ) ) ;
#810 = CC_DESIGN_DATE_AND_TIME_ASSIGNMENT ( #360, #553, ( #215 ) ) ;
#811 = VECTOR ( 'NONE', #303, 1000.000000000000000 ) ;
#812 = LINE ( 'NONE', #18, #20 ) ;
#813 = DIRECTION ( 'NONE',  ( 0.0000000000000000000, 0.0000000000000000000, -1.000000000000000000 ) ) ;
#814 = ORIENTED_EDGE ( 'NONE', *, *, #272, .T. ) ;
#815 = ORIENTED_EDGE ( 'NONE', *, *, #785, .F. ) ;
#816 = DIRECTION ( 'NONE',  ( 1.000000000000000000, 0.0000000000000000000, -0.0000000000000000000 ) ) ;
#817 = CARTESIAN_POINT ( 'NONE',  ( 16.00000000000000000, 4.999999999999998224, 0.0000000000000000000 ) ) ;
#818 = DIRECTION ( 'NONE',  ( 0.0000000000000000000, 0.0000000000000000000, 1.000000000000000000 ) ) ;
#819 = EDGE_CURVE ( 'NONE', #201, #29, #915, .T. ) ;
#820 = CARTESIAN_POINT ( 'NONE',  ( 2.000000000000000000, 5.000000000000000000, -2.000000000000000000 ) ) ;
#821 = CARTESIAN_POINT ( 'NONE',  ( 26.00000000000000355, 3.000000000000001332, -1.999999999999998224 ) ) ;
#822 = EDGE_CURVE ( 'NONE', #188, #151, #408, .T. ) ;
#823 = VECTOR ( 'NONE', #570, 1000.000000000000000 ) ;
#824 = CIRCLE ( 'NONE', #843, 2.000000000000000000 ) ;
#825 = ORIENTED_EDGE ( 'NONE', *, *, #233, .T. ) ;
#826 = ORIENTED_EDGE ( 'NONE', *, *, #142, .T. ) ;
#827 = DIRECTION ( 'NONE',  ( 1.000000000000000000, 0.0000000000000000000, 0.0000000000000000000 ) ) ;
#828 = CARTESIAN_POINT ( 'NONE',  ( 2.000000000000000000, 7.000000000000000000, -12.00000000000000000 ) ) ;
#829 = AXIS2_PLACEMENT_3D ( 'NONE', #46, #341, #850 ) ;
#830 = CARTESIAN_POINT ( 'NONE',  ( 20.00000000000000000, 7.000000000000000000, -6.000000000000000000 ) ) ;
#831 = FACE_OUTER_BOUND ( 'NONE', #722, .T. ) ;
#832 = VECTOR ( 'NONE', #523, 1000.000000000000000 ) ;
#833 = EDGE_CURVE ( 'NONE', #619, #364, #587, .T. ) ;
#834 = ORIENTED_EDGE ( 'NONE', *, *, #95, .F. ) ;
#835 = ORIENTED_EDGE ( 'NONE', *, *, #737, .T. ) ;
#836 = EDGE_LOOP ( 'NONE', ( #659, #230, #771, #114 ) ) ;
#837 = APPLICATION_CONTEXT ( 'configuration controlled 3d designs of mechanical parts and assemblies' ) ;
#838 = PLANE ( 'NONE',  #783 ) ;
#839 = DATE_TIME_ROLE ( 'classification_date' ) ;
#840 = VECTOR ( 'NONE', #803, 1000.000000000000000 ) ;
#841 = APPROVAL_DATE_TIME ( #254, #3 ) ;
#842 = VECTOR ( 'NONE', #61, 1000.000000000000000 ) ;
#843 = AXIS2_PLACEMENT_3D ( 'NONE', #930, #371, #217 ) ;
#844 = EDGE_LOOP ( 'NONE', ( #554, #667, #310, #624 ) ) ;
#845 = CARTESIAN_POINT ( 'NONE',  ( 0.0000000000000000000, 0.0000000000000000000, -12.00000000000000000 ) ) ;
#846 = ORIENTED_EDGE ( 'NONE', *, *, #429, .F. ) ;
#847 = DIRECTION ( 'NONE',  ( 1.000000000000000000, 2.843808977011155364E-16, 0.0000000000000000000 ) ) ;
#848 = EDGE_CURVE ( 'NONE', #53, #735, #631, .T. ) ;
#849 = ADVANCED_FACE ( 'NONE', ( #434 ), #161, .T. ) ;
#850 = DIRECTION ( 'NONE',  ( -1.000000000000000000, 3.556183125752454544E-15, 0.0000000000000000000 ) ) ;
#851 = CIRCLE ( 'NONE', #107, 2.000000000000000000 ) ;
#852 = CYLINDRICAL_SURFACE ( 'NONE', #273, 3.050000000000006040 ) ;
#853 = VERTEX_POINT ( 'NONE', #686 ) ;
#854 = ORIENTED_EDGE ( 'NONE', *, *, #83, .T. ) ;
#855 = ADVANCED_FACE ( 'NONE', ( #620 ), #277, .F. ) ;
#856 =( GEOMETRIC_REPRESENTATION_CONTEXT ( 3 ) GLOBAL_UNCERTAINTY_ASSIGNED_CONTEXT ( ( #534 ) ) GLOBAL_UNIT_ASSIGNED_CONTEXT ( ( #474, #546, #191 ) ) REPRESENTATION_CONTEXT ( 'NONE', 'WORKASPACE' ) );
#857 = DIRECTION ( 'NONE',  ( -0.0000000000000000000, -0.0000000000000000000, 1.000000000000000000 ) ) ;
#858 = DIRECTION ( 'NONE',  ( 0.0000000000000000000, 0.0000000000000000000, -1.000000000000000000 ) ) ;
#859 = EDGE_CURVE ( 'NONE', #49, #702, #711, .T. ) ;
#860 = FACE_OUTER_BOUND ( 'NONE', #932, .T. ) ;
#861 = PERSON_AND_ORGANIZATION ( #149, #97 ) ;
#862 = ADVANCED_FACE ( 'NONE', ( #933 ), #852, .F. ) ;
#863 = CIRCLE ( 'NONE', #385, 2.000000000000000000 ) ;
#864 = CIRCLE ( 'NONE', #211, 2.750000000000001776 ) ;
#865 = CARTESIAN_POINT ( 'NONE',  ( 2.000000000000000000, 0.0000000000000000000, 0.0000000000000000000 ) ) ;
#866 = EDGE_LOOP ( 'NONE', ( #505, #890, #513, #854, #485, #135, #551, #327, #645 ) ) ;
#867 = EDGE_CURVE ( 'NONE', #670, #208, #48, .T. ) ;
#868 = ORIENTED_EDGE ( 'NONE', *, *, #859, .F. ) ;
#869 = PRODUCT_RELATED_PRODUCT_CATEGORY ( 'detail', '', ( #446 ) ) ;
#870 = PLANE ( 'NONE',  #617 ) ;
#871 = ADVANCED_FACE ( 'NONE', ( #492, #244 ), #167, .F. ) ;
#872 = DIRECTION ( 'NONE',  ( 0.0000000000000000000, -8.673617379884040402E-16, 1.000000000000000000 ) ) ;
#873 = CARTESIAN_POINT ( 'NONE',  ( 9.366750419289196827, 7.000000000000000000, -2.000000000000000000 ) ) ;
#874 = EDGE_CURVE ( 'NONE', #389, #11, #812, .T. ) ;
#875 = CARTESIAN_POINT ( 'NONE',  ( 2.000000000000000000, 5.000000000000000000, 0.0000000000000000000 ) ) ;
#876 = PERSON_AND_ORGANIZATION ( #149, #97 ) ;
#877 = VECTOR ( 'NONE', #356, 1000.000000000000000 ) ;
#878 = CYLINDRICAL_SURFACE ( 'NONE', #16, 2.000000000000000000 ) ;
#879 = ORIENTED_EDGE ( 'NONE', *, *, #329, .F. ) ;
#880 = DIRECTION ( 'NONE',  ( -0.0000000000000000000, -0.0000000000000000000, -1.000000000000000000 ) ) ;
#881 = DIRECTION ( 'NONE',  ( -1.000000000000000000, 0.0000000000000000000, 0.0000000000000000000 ) ) ;
#882 = EDGE_CURVE ( 'NONE', #279, #781, #387, .T. ) ;
#883 = DIRECTION ( 'NONE',  ( 0.0000000000000000000, 0.0000000000000000000, 1.000000000000000000 ) ) ;
#884 = DIRECTION ( 'NONE',  ( 1.000000000000000000, 0.0000000000000000000, 0.0000000000000000000 ) ) ;
#885 = DIRECTION ( 'NONE',  ( 0.0000000000000000000, -1.000000000000000000, 0.0000000000000000000 ) ) ;
#886 = EDGE_CURVE ( 'NONE', #201, #245, #419, .T. ) ;
#887 = CIRCLE ( 'NONE', #369, 2.000000000000000000 ) ;
#888 = ORIENTED_EDGE ( 'NONE', *, *, #329, .T. ) ;
#889 = FACE_OUTER_BOUND ( 'NONE', #530, .T. ) ;
#890 = ORIENTED_EDGE ( 'NONE', *, *, #493, .T. ) ;
#891 = DIRECTION ( 'NONE',  ( 0.0000000000000000000, -1.000000000000000000, 0.0000000000000000000 ) ) ;
#892 = AXIS2_PLACEMENT_3D ( 'NONE', #362, #367, #144 ) ;
#893 = LINE ( 'NONE', #806, #842 ) ;
#894 = SPHERICAL_SURFACE ( 'NONE', #104, 2.000000000000000000 ) ;
#895 = EDGE_LOOP ( 'NONE', ( #622, #173, #507, #700 ) ) ;
#896 = DIRECTION ( 'NONE',  ( 0.0000000000000000000, 1.000000000000000000, 0.0000000000000000000 ) ) ;
#897 = ORIENTED_EDGE ( 'NONE', *, *, #55, .F. ) ;
#898 = DIRECTION ( 'NONE',  ( -0.0000000000000000000, -0.0000000000000000000, -1.000000000000000000 ) ) ;
#899 = DIRECTION ( 'NONE',  ( 0.0000000000000000000, 0.0000000000000000000, -1.000000000000000000 ) ) ;
#900 = CC_DESIGN_PERSON_AND_ORGANIZATION_ASSIGNMENT ( #502, #31, ( #118 ) ) ;
#901 = SECURITY_CLASSIFICATION_LEVEL ( 'unclassified' ) ;
#902 = CARTESIAN_POINT ( 'NONE',  ( 24.00000000000000000, 3.000000000000000888, -2.000000000000000000 ) ) ;
#903 = CYLINDRICAL_SURFACE ( 'NONE', #518, 10.00000000000000000 ) ;
#904 = COORDINATED_UNIVERSAL_TIME_OFFSET ( 0, 0, .AHEAD. ) ;
#905 = AXIS2_PLACEMENT_3D ( 'NONE', #67, #75, #508 ) ;
#906 = ORIENTED_EDGE ( 'NONE', *, *, #194, .T. ) ;
#907 = CIRCLE ( 'NONE', #322, 2.000000000000000000 ) ;
#908 = ORIENTED_EDGE ( 'NONE', *, *, #180, .F. ) ;
#909 = APPROVAL_STATUS ( 'not_yet_approved' ) ;
#910 = EDGE_CURVE ( 'NONE', #151, #936, #537, .T. ) ;
#911 = ADVANCED_FACE ( 'NONE', ( #28 ), #224, .T. ) ;
#912 = DIRECTION ( 'NONE',  ( 0.0000000000000000000, 0.0000000000000000000, -1.000000000000000000 ) ) ;
#913 = CALENDAR_DATE ( 2019, 12, 12 ) ;
#914 = LINE ( 'NONE', #221, #877 ) ;
#915 = LINE ( 'NONE', #220, #172 ) ;
#916 = ORIENTED_EDGE ( 'NONE', *, *, #724, .T. ) ;
#917 = AXIS2_PLACEMENT_3D ( 'NONE', #153, #373, #7 ) ;
#918 = CARTESIAN_POINT ( 'NONE',  ( 0.0000000000000000000, 7.000000000000000000, 0.0000000000000000000 ) ) ;
#919 = DIRECTION ( 'NONE',  ( -1.000000000000000000, -0.0000000000000000000, -0.0000000000000000000 ) ) ;
#920 = DIRECTION ( 'NONE',  ( 0.0000000000000000000, 0.0000000000000000000, -1.000000000000000000 ) ) ;
#921 = CARTESIAN_POINT ( 'NONE',  ( 2.000000000000000000, 5.000000000000000000, -10.00000000000000000 ) ) ;
#922 = CIRCLE ( 'NONE', #829, 10.00000000000000000 ) ;
#923 = VERTEX_POINT ( 'NONE', #308 ) ;
#924 = VECTOR ( 'NONE', #192, 1000.000000000000000 ) ;
#925 = EDGE_CURVE ( 'NONE', #556, #245, #655, .T. ) ;
#926 = VERTEX_POINT ( 'NONE', #761 ) ;
#927 = CARTESIAN_POINT ( 'NONE',  ( 24.00000000000000000, 3.000000000000000888, 0.0000000000000000000 ) ) ;
#928 = EDGE_CURVE ( 'NONE', #188, #29, #464, .T. ) ;
#929 = DIRECTION ( 'NONE',  ( 1.000000000000000000, 0.0000000000000000000, 0.0000000000000000000 ) ) ;
#930 = CARTESIAN_POINT ( 'NONE',  ( 9.366750419289196827, 5.000000000000000000, -2.000000000000000000 ) ) ;
#931 = DATE_AND_TIME ( #86, #563 ) ;
#932 = EDGE_LOOP ( 'NONE', ( #756, #790, #126, #318 ) ) ;
#933 = FACE_OUTER_BOUND ( 'NONE', #603, .T. ) ;
#934 = CARTESIAN_POINT ( 'NONE',  ( 2.000000000000000000, 0.0000000000000000000, -12.00000000000000000 ) ) ;
#935 = ORIENTED_EDGE ( 'NONE', *, *, #705, .F. ) ;
#936 = VERTEX_POINT ( 'NONE', #333 ) ;
#937 = ORIENTED_EDGE ( 'NONE', *, *, #129, .F. ) ;
#938 = DIRECTION ( 'NONE',  ( 0.0000000000000000000, 1.000000000000000000, -0.0000000000000000000 ) ) ;
#939 = DESIGN_CONTEXT ( 'detailed design', #773, 'design' ) ;
#940 = CARTESIAN_POINT ( 'NONE',  ( 14.89445840321486791, 5.333333333333332149, -9.999999999999998224 ) ) ;
ENDSEC;
END-ISO-10303-21;
