ISO-10303-21;
HEADER;
FILE_DESCRIPTION (( 'STEP AP203' ),
    '1' );
FILE_NAME ('Metal_bar.STEP',
    '2019-12-12T17:30:42',
    ( '' ),
    ( '' ),
    'SwSTEP 2.0',
    'SolidWorks 2018',
    '' );
FILE_SCHEMA (( 'CONFIG_CONTROL_DESIGN' ));
ENDSEC;

DATA;
#1 = PERSON_AND_ORGANIZATION ( #85, #121 ) ;
#2 = CC_DESIGN_PERSON_AND_ORGANIZATION_ASSIGNMENT ( #111, #151, ( #143 ) ) ;
#3 = ORIENTED_EDGE ( 'NONE', *, *, #165, .F. ) ;
#4 = AXIS2_PLACEMENT_3D ( 'NONE', #89, #120, #144 ) ;
#5 = PRODUCT_DEFINITION_SHAPE ( 'NONE', 'NONE',  #143 ) ;
#6 = LOCAL_TIME ( 17, 30, 42.00000000000000000, #59 ) ;
#7 = DIRECTION ( 'NONE',  ( 0.0000000000000000000, 0.0000000000000000000, 1.000000000000000000 ) ) ;
#8 = EDGE_CURVE ( 'NONE', #74, #113, #25, .T. ) ;
#9 =( LENGTH_UNIT ( ) NAMED_UNIT ( * ) SI_UNIT ( .MILLI., .METRE. ) );
#10 = VERTEX_POINT ( 'NONE', #22 ) ;
#11 = DATE_TIME_ROLE ( 'creation_date' ) ;
#12 = PRODUCT ( 'Metal_bar', 'Metal_bar', '', ( #79 ) ) ;
#13 = APPLICATION_PROTOCOL_DEFINITION ( 'international standard', 'config_control_design', 1994, #110 ) ;
#14 = FACE_OUTER_BOUND ( 'NONE', #84, .T. ) ;
#15 = AXIS2_PLACEMENT_3D ( 'NONE', #37, #158, #100 ) ;
#16 = EDGE_LOOP ( 'NONE', ( #95, #29 ) ) ;
#17 = ADVANCED_BREP_SHAPE_REPRESENTATION ( 'Metal_bar', ( #108, #156 ), #60 ) ;
#18 = EDGE_CURVE ( 'NONE', #113, #74, #83, .T. ) ;
#19 = COORDINATED_UNIVERSAL_TIME_OFFSET ( 0, 0, .AHEAD. ) ;
#20 = DIRECTION ( 'NONE',  ( 1.000000000000000000, 0.0000000000000000000, -0.0000000000000000000 ) ) ;
#21 = CC_DESIGN_SECURITY_CLASSIFICATION ( #131, ( #155 ) ) ;
#22 = CARTESIAN_POINT ( 'NONE',  ( 3.000000000000000444, 3.673940397442059868E-16, 58.00000000000000000 ) ) ;
#23 = DIRECTION ( 'NONE',  ( 0.0000000000000000000, 0.0000000000000000000, 1.000000000000000000 ) ) ;
#24 = CARTESIAN_POINT ( 'NONE',  ( -3.000000000000000444, 0.0000000000000000000, 58.00000000000000000 ) ) ;
#25 = CIRCLE ( 'NONE', #34, 3.000000000000000444 ) ;
#26 = CALENDAR_DATE ( 2019, 12, 12 ) ;
#27 = ORIENTED_EDGE ( 'NONE', *, *, #32, .F. ) ;
#28 = PERSON_AND_ORGANIZATION_ROLE ( 'design_supplier' ) ;
#29 = ORIENTED_EDGE ( 'NONE', *, *, #18, .F. ) ;
#30 = APPROVAL_ROLE ( '' ) ;
#31 = APPROVAL_PERSON_ORGANIZATION ( #147, #140, #96 ) ;
#32 = EDGE_CURVE ( 'NONE', #52, #74, #107, .T. ) ;
#33 = ORIENTED_EDGE ( 'NONE', *, *, #114, .F. ) ;
#34 = AXIS2_PLACEMENT_3D ( 'NONE', #94, #7, #38 ) ;
#35 = CARTESIAN_POINT ( 'NONE',  ( 3.000000000000000444, 3.673940397442059868E-16, 58.00000000000000000 ) ) ;
#36 = CARTESIAN_POINT ( 'NONE',  ( -3.000000000000000444, 0.0000000000000000000, 0.0000000000000000000 ) ) ;
#37 = CARTESIAN_POINT ( 'NONE',  ( 0.0000000000000000000, 0.0000000000000000000, 58.00000000000000000 ) ) ;
#38 = DIRECTION ( 'NONE',  ( 1.000000000000000000, 0.0000000000000000000, 0.0000000000000000000 ) ) ;
#39 = LOCAL_TIME ( 17, 30, 42.00000000000000000, #19 ) ;
#40 = AXIS2_PLACEMENT_3D ( 'NONE', #118, #148, #101 ) ;
#41 = CIRCLE ( 'NONE', #141, 3.000000000000000444 ) ;
#42 = PERSON_AND_ORGANIZATION_ROLE ( 'classification_officer' ) ;
#43 = ADVANCED_FACE ( 'NONE', ( #49 ), #58, .T. ) ;
#44 = AXIS2_PLACEMENT_3D ( 'NONE', #88, #23, #20 ) ;
#45 = FACE_OUTER_BOUND ( 'NONE', #16, .T. ) ;
#46 = LOCAL_TIME ( 17, 30, 42.00000000000000000, #71 ) ;
#47 = COORDINATED_UNIVERSAL_TIME_OFFSET ( 0, 0, .AHEAD. ) ;
#48 = PLANE ( 'NONE',  #44 ) ;
#49 = FACE_OUTER_BOUND ( 'NONE', #54, .T. ) ;
#50 = CARTESIAN_POINT ( 'NONE',  ( -3.000000000000000444, 0.0000000000000000000, 58.00000000000000000 ) ) ;
#51 = DIRECTION ( 'NONE',  ( -0.0000000000000000000, -0.0000000000000000000, -1.000000000000000000 ) ) ;
#52 = VERTEX_POINT ( 'NONE', #50 ) ;
#53 = APPROVAL_DATE_TIME ( #86, #92 ) ;
#54 = EDGE_LOOP ( 'NONE', ( #3, #55, #166, #27 ) ) ;
#55 = ORIENTED_EDGE ( 'NONE', *, *, #114, .T. ) ;
#56 = APPROVAL_PERSON_ORGANIZATION ( #73, #92, #66 ) ;
#57 = ORIENTED_EDGE ( 'NONE', *, *, #127, .F. ) ;
#58 = CYLINDRICAL_SURFACE ( 'NONE', #40, 3.000000000000000444 ) ;
#59 = COORDINATED_UNIVERSAL_TIME_OFFSET ( 0, 0, .AHEAD. ) ;
#60 =( GEOMETRIC_REPRESENTATION_CONTEXT ( 3 ) GLOBAL_UNCERTAINTY_ASSIGNED_CONTEXT ( ( #160 ) ) GLOBAL_UNIT_ASSIGNED_CONTEXT ( ( #9, #63, #172 ) ) REPRESENTATION_CONTEXT ( 'NONE', 'WORKASPACE' ) );
#61 = LOCAL_TIME ( 17, 30, 42.00000000000000000, #47 ) ;
#62 = DESIGN_CONTEXT ( 'detailed design', #110, 'design' ) ;
#63 =( NAMED_UNIT ( * ) PLANE_ANGLE_UNIT ( ) SI_UNIT ( $, .RADIAN. ) );
#64 = PERSON_AND_ORGANIZATION ( #85, #121 ) ;
#65 = ORIENTED_EDGE ( 'NONE', *, *, #127, .T. ) ;
#66 = APPROVAL_ROLE ( '' ) ;
#67 = AXIS2_PLACEMENT_3D ( 'NONE', #119, #137, #173 ) ;
#68 = CALENDAR_DATE ( 2019, 12, 12 ) ;
#69 = DATE_AND_TIME ( #26, #6 ) ;
#70 = FACE_OUTER_BOUND ( 'NONE', #87, .T. ) ;
#71 = COORDINATED_UNIVERSAL_TIME_OFFSET ( 0, 0, .AHEAD. ) ;
#72 = CARTESIAN_POINT ( 'NONE',  ( 0.0000000000000000000, 0.0000000000000000000, 0.0000000000000000000 ) ) ;
#73 = PERSON_AND_ORGANIZATION ( #85, #121 ) ;
#74 = VERTEX_POINT ( 'NONE', #36 ) ;
#75 = PLANE ( 'NONE',  #169 ) ;
#76 = CALENDAR_DATE ( 2019, 12, 12 ) ;
#77 = CC_DESIGN_APPROVAL ( #124, ( #143 ) ) ;
#78 = APPLICATION_PROTOCOL_DEFINITION ( 'international standard', 'config_control_design', 1994, #153 ) ;
#79 = MECHANICAL_CONTEXT ( 'NONE', #153, 'mechanical' ) ;
#80 = CC_DESIGN_PERSON_AND_ORGANIZATION_ASSIGNMENT ( #112, #28, ( #155 ) ) ;
#81 = VECTOR ( 'NONE', #51, 1000.000000000000000 ) ;
#82 = COORDINATED_UNIVERSAL_TIME_OFFSET ( 0, 0, .AHEAD. ) ;
#83 = CIRCLE ( 'NONE', #67, 3.000000000000000444 ) ;
#84 = EDGE_LOOP ( 'NONE', ( #33, #57, #122, #161 ) ) ;
#85 = PERSON ( 'UNSPECIFIED', 'UNSPECIFIED', 'UNSPECIFIED', ('UNSPECIFIED'), ('UNSPECIFIED'), ('UNSPECIFIED') ) ;
#86 = DATE_AND_TIME ( #129, #39 ) ;
#87 = EDGE_LOOP ( 'NONE', ( #65, #130 ) ) ;
#88 = CARTESIAN_POINT ( 'NONE',  ( 0.0000000000000000000, 0.0000000000000000000, 0.0000000000000000000 ) ) ;
#89 = CARTESIAN_POINT ( 'NONE',  ( 0.0000000000000000000, 0.0000000000000000000, 58.00000000000000000 ) ) ;
#90 = DIRECTION ( 'NONE',  ( 0.0000000000000000000, 0.0000000000000000000, 1.000000000000000000 ) ) ;
#91 = DIRECTION ( 'NONE',  ( 0.0000000000000000000, 0.0000000000000000000, 1.000000000000000000 ) ) ;
#92 = APPROVAL ( #125, 'UNSPECIFIED' ) ;
#93 = DIRECTION ( 'NONE',  ( -0.0000000000000000000, -0.0000000000000000000, -1.000000000000000000 ) ) ;
#94 = CARTESIAN_POINT ( 'NONE',  ( 0.0000000000000000000, 0.0000000000000000000, 0.0000000000000000000 ) ) ;
#95 = ORIENTED_EDGE ( 'NONE', *, *, #8, .F. ) ;
#96 = APPROVAL_ROLE ( '' ) ;
#97 = ADVANCED_FACE ( 'NONE', ( #14 ), #171, .T. ) ;
#98 = CC_DESIGN_DATE_AND_TIME_ASSIGNMENT ( #146, #11, ( #143 ) ) ;
#99 = CIRCLE ( 'NONE', #4, 3.000000000000000444 ) ;
#100 = DIRECTION ( 'NONE',  ( -1.000000000000000000, 0.0000000000000000000, 0.0000000000000000000 ) ) ;
#101 = DIRECTION ( 'NONE',  ( -1.000000000000000000, 0.0000000000000000000, 0.0000000000000000000 ) ) ;
#102 = APPROVAL_PERSON_ORGANIZATION ( #115, #124, #30 ) ;
#103 = DIRECTION ( 'NONE',  ( 1.000000000000000000, 0.0000000000000000000, -0.0000000000000000000 ) ) ;
#104 = APPROVAL_DATE_TIME ( #142, #140 ) ;
#105 = DIRECTION ( 'NONE',  ( 0.0000000000000000000, 0.0000000000000000000, 1.000000000000000000 ) ) ;
#106 = ADVANCED_FACE ( 'NONE', ( #70 ), #75, .T. ) ;
#107 = LINE ( 'NONE', #24, #117 ) ;
#108 = MANIFOLD_SOLID_BREP ( 'Boss-Extrude1', #134 ) ;
#109 = DATE_TIME_ROLE ( 'classification_date' ) ;
#110 = APPLICATION_CONTEXT ( 'configuration controlled 3d designs of mechanical parts and assemblies' ) ;
#111 = PERSON_AND_ORGANIZATION ( #85, #121 ) ;
#112 = PERSON_AND_ORGANIZATION ( #85, #121 ) ;
#113 = VERTEX_POINT ( 'NONE', #132 ) ;
#114 = EDGE_CURVE ( 'NONE', #10, #113, #126, .T. ) ;
#115 = PERSON_AND_ORGANIZATION ( #85, #121 ) ;
#116 = CC_DESIGN_PERSON_AND_ORGANIZATION_ASSIGNMENT ( #64, #42, ( #131 ) ) ;
#117 = VECTOR ( 'NONE', #93, 1000.000000000000000 ) ;
#118 = CARTESIAN_POINT ( 'NONE',  ( 0.0000000000000000000, 0.0000000000000000000, 58.00000000000000000 ) ) ;
#119 = CARTESIAN_POINT ( 'NONE',  ( 0.0000000000000000000, 0.0000000000000000000, 0.0000000000000000000 ) ) ;
#120 = DIRECTION ( 'NONE',  ( 0.0000000000000000000, 0.0000000000000000000, 1.000000000000000000 ) ) ;
#121 = ORGANIZATION ( 'UNSPECIFIED', 'UNSPECIFIED', '' ) ;
#122 = ORIENTED_EDGE ( 'NONE', *, *, #32, .T. ) ;
#123 = CARTESIAN_POINT ( 'NONE',  ( 0.0000000000000000000, 0.0000000000000000000, 58.00000000000000000 ) ) ;
#124 = APPROVAL ( #174, 'UNSPECIFIED' ) ;
#125 = APPROVAL_STATUS ( 'not_yet_approved' ) ;
#126 = LINE ( 'NONE', #35, #81 ) ;
#127 = EDGE_CURVE ( 'NONE', #52, #10, #99, .T. ) ;
#128 = CC_DESIGN_APPROVAL ( #92, ( #131 ) ) ;
#129 = CALENDAR_DATE ( 2019, 12, 12 ) ;
#130 = ORIENTED_EDGE ( 'NONE', *, *, #165, .T. ) ;
#131 = SECURITY_CLASSIFICATION ( '', '', #163 ) ;
#132 = CARTESIAN_POINT ( 'NONE',  ( 3.000000000000000444, 3.673940397442059868E-16, 0.0000000000000000000 ) ) ;
#133 = CC_DESIGN_PERSON_AND_ORGANIZATION_ASSIGNMENT ( #136, #175, ( #155 ) ) ;
#134 = CLOSED_SHELL ( 'NONE', ( #43, #97, #106, #152 ) ) ;
#135 = CC_DESIGN_PERSON_AND_ORGANIZATION_ASSIGNMENT ( #1, #164, ( #12 ) ) ;
#136 = PERSON_AND_ORGANIZATION ( #85, #121 ) ;
#137 = DIRECTION ( 'NONE',  ( 0.0000000000000000000, 0.0000000000000000000, 1.000000000000000000 ) ) ;
#138 = PRODUCT_RELATED_PRODUCT_CATEGORY ( 'detail', '', ( #12 ) ) ;
#139 = DIRECTION ( 'NONE',  ( 1.000000000000000000, 0.0000000000000000000, 0.0000000000000000000 ) ) ;
#140 = APPROVAL ( #162, 'UNSPECIFIED' ) ;
#141 = AXIS2_PLACEMENT_3D ( 'NONE', #123, #105, #149 ) ;
#142 = DATE_AND_TIME ( #167, #61 ) ;
#143 = PRODUCT_DEFINITION ( 'UNKNOWN', '', #155, #62 ) ;
#144 = DIRECTION ( 'NONE',  ( 1.000000000000000000, 0.0000000000000000000, 0.0000000000000000000 ) ) ;
#145 = CC_DESIGN_APPROVAL ( #140, ( #155 ) ) ;
#146 = DATE_AND_TIME ( #68, #159 ) ;
#147 = PERSON_AND_ORGANIZATION ( #85, #121 ) ;
#148 = DIRECTION ( 'NONE',  ( -0.0000000000000000000, -0.0000000000000000000, -1.000000000000000000 ) ) ;
#149 = DIRECTION ( 'NONE',  ( 1.000000000000000000, 0.0000000000000000000, 0.0000000000000000000 ) ) ;
#150 = CC_DESIGN_DATE_AND_TIME_ASSIGNMENT ( #69, #109, ( #131 ) ) ;
#151 = PERSON_AND_ORGANIZATION_ROLE ( 'creator' ) ;
#152 = ADVANCED_FACE ( 'NONE', ( #45 ), #48, .F. ) ;
#153 = APPLICATION_CONTEXT ( 'configuration controlled 3d designs of mechanical parts and assemblies' ) ;
#154 = SHAPE_DEFINITION_REPRESENTATION ( #5, #17 ) ;
#155 = PRODUCT_DEFINITION_FORMATION_WITH_SPECIFIED_SOURCE ( 'ANY', '', #12, .NOT_KNOWN. ) ;
#156 = AXIS2_PLACEMENT_3D ( 'NONE', #72, #90, #139 ) ;
#157 = DATE_AND_TIME ( #76, #46 ) ;
#158 = DIRECTION ( 'NONE',  ( -0.0000000000000000000, -0.0000000000000000000, -1.000000000000000000 ) ) ;
#159 = LOCAL_TIME ( 17, 30, 42.00000000000000000, #82 ) ;
#160 = UNCERTAINTY_MEASURE_WITH_UNIT (LENGTH_MEASURE( 1.000000000000000082E-05 ), #9, 'distance_accuracy_value', 'NONE');
#161 = ORIENTED_EDGE ( 'NONE', *, *, #8, .T. ) ;
#162 = APPROVAL_STATUS ( 'not_yet_approved' ) ;
#163 = SECURITY_CLASSIFICATION_LEVEL ( 'unclassified' ) ;
#164 = PERSON_AND_ORGANIZATION_ROLE ( 'design_owner' ) ;
#165 = EDGE_CURVE ( 'NONE', #10, #52, #41, .T. ) ;
#166 = ORIENTED_EDGE ( 'NONE', *, *, #18, .T. ) ;
#167 = CALENDAR_DATE ( 2019, 12, 12 ) ;
#168 = CARTESIAN_POINT ( 'NONE',  ( 0.0000000000000000000, 0.0000000000000000000, 58.00000000000000000 ) ) ;
#169 = AXIS2_PLACEMENT_3D ( 'NONE', #168, #91, #103 ) ;
#170 = APPROVAL_DATE_TIME ( #157, #124 ) ;
#171 = CYLINDRICAL_SURFACE ( 'NONE', #15, 3.000000000000000444 ) ;
#172 =( NAMED_UNIT ( * ) SI_UNIT ( $, .STERADIAN. ) SOLID_ANGLE_UNIT ( ) );
#173 = DIRECTION ( 'NONE',  ( 1.000000000000000000, 0.0000000000000000000, 0.0000000000000000000 ) ) ;
#174 = APPROVAL_STATUS ( 'not_yet_approved' ) ;
#175 = PERSON_AND_ORGANIZATION_ROLE ( 'creator' ) ;
ENDSEC;
END-ISO-10303-21;
