ISO-10303-21;
HEADER;
FILE_DESCRIPTION (( 'STEP AP203' ),
    '1' );
FILE_NAME ('Slipring_joint_bredbiard_joint.STEP',
    '2019-12-12T17:23:22',
    ( '' ),
    ( '' ),
    'SwSTEP 2.0',
    'SolidWorks 2018',
    '' );
FILE_SCHEMA (( 'CONFIG_CONTROL_DESIGN' ));
ENDSEC;

DATA;
#1 = PERSON_AND_ORGANIZATION_ROLE ( 'design_owner' ) ;
#2 = DATE_AND_TIME ( #479, #248 ) ;
#3 = ORIENTED_EDGE ( 'NONE', *, *, #110, .T. ) ;
#4 = CARTESIAN_POINT ( 'NONE',  ( 3.673940397442058882E-16, 4.629999999999999893, -38.00000000000000711 ) ) ;
#5 = EDGE_CURVE ( 'NONE', #81, #131, #121, .T. ) ;
#6 = DIRECTION ( 'NONE',  ( 0.0000000000000000000, 1.000000000000000000, 0.0000000000000000000 ) ) ;
#7 = PLANE ( 'NONE',  #140 ) ;
#8 = CYLINDRICAL_SURFACE ( 'NONE', #76, 3.000000000000002665 ) ;
#9 = CARTESIAN_POINT ( 'NONE',  ( 0.0000000000000000000, 0.0000000000000000000, -35.00000000000000000 ) ) ;
#10 = ORIENTED_EDGE ( 'NONE', *, *, #482, .T. ) ;
#11 = EDGE_LOOP ( 'NONE', ( #210, #503, #570, #504 ) ) ;
#12 = DIRECTION ( 'NONE',  ( 0.0000000000000000000, 0.0000000000000000000, 1.000000000000000000 ) ) ;
#13 = EDGE_CURVE ( 'NONE', #131, #475, #429, .T. ) ;
#14 = DIRECTION ( 'NONE',  ( 0.0000000000000000000, 0.0000000000000000000, 1.000000000000000000 ) ) ;
#15 = APPROVAL_PERSON_ORGANIZATION ( #33, #295, #365 ) ;
#16 = APPROVAL_DATE_TIME ( #67, #465 ) ;
#17 = AXIS2_PLACEMENT_3D ( 'NONE', #307, #304, #394 ) ;
#18 = CIRCLE ( 'NONE', #25, 2.000000000000001776 ) ;
#19 = CARTESIAN_POINT ( 'NONE',  ( -10.86191369486511427, 0.0000000000000000000, -10.34499061794169705 ) ) ;
#20 = ORIENTED_EDGE ( 'NONE', *, *, #346, .F. ) ;
#21 = CARTESIAN_POINT ( 'NONE',  ( 35.00000000000000000, 0.0000000000000000000, -3.666055405785290402E-13 ) ) ;
#22 = AXIS2_PLACEMENT_3D ( 'NONE', #458, #282, #513 ) ;
#23 = ADVANCED_FACE ( 'NONE', ( #544 ), #400, .T. ) ;
#24 = DIRECTION ( 'NONE',  ( -0.0000000000000000000, 1.000000000000000000, -0.0000000000000000000 ) ) ;
#25 = AXIS2_PLACEMENT_3D ( 'NONE', #300, #425, #253 ) ;
#26 = VECTOR ( 'NONE', #239, 1000.000000000000000 ) ;
#27 = ORIENTED_EDGE ( 'NONE', *, *, #550, .T. ) ;
#28 = EDGE_LOOP ( 'NONE', ( #108, #545, #284, #98, #378, #339 ) ) ;
#29 = DIRECTION ( 'NONE',  ( 0.0000000000000000000, 1.000000000000000000, 0.0000000000000000000 ) ) ;
#30 = CARTESIAN_POINT ( 'NONE',  ( 35.00000000000000000, 0.0000000000000000000, -3.666055405785290402E-13 ) ) ;
#31 = ADVANCED_FACE ( 'NONE', ( #107 ), #255, .F. ) ;
#32 = CARTESIAN_POINT ( 'NONE',  ( 0.0000000000000000000, 4.629999999999999893, 0.0000000000000000000 ) ) ;
#33 = PERSON_AND_ORGANIZATION ( #139, #51 ) ;
#34 = APPROVAL_PERSON_ORGANIZATION ( #349, #465, #50 ) ;
#35 = LINE ( 'NONE', #286, #532 ) ;
#36 = CARTESIAN_POINT ( 'NONE',  ( 35.00000000000000000, 4.629999999999999893, -3.000000000000367262 ) ) ;
#37 = CC_DESIGN_PERSON_AND_ORGANIZATION_ASSIGNMENT ( #355, #1, ( #449 ) ) ;
#38 = VERTEX_POINT ( 'NONE', #573 ) ;
#39 = EDGE_LOOP ( 'NONE', ( #3, #586, #116, #582 ) ) ;
#40 = CARTESIAN_POINT ( 'NONE',  ( -28.54155185110508341, 4.629999999999999893, -28.02462877418146547 ) ) ;
#41 = AXIS2_PLACEMENT_3D ( 'NONE', #99, #241, #148 ) ;
#42 = DIRECTION ( 'NONE',  ( -0.0000000000000000000, 1.000000000000000000, -0.0000000000000000000 ) ) ;
#43 = CIRCLE ( 'NONE', #230, 3.000000000000002665 ) ;
#44 = VERTEX_POINT ( 'NONE', #189 ) ;
#45 = CIRCLE ( 'NONE', #273, 2.000000000000001776 ) ;
#46 = PERSON_AND_ORGANIZATION_ROLE ( 'classification_officer' ) ;
#47 = ORIENTED_EDGE ( 'NONE', *, *, #93, .F. ) ;
#48 = APPROVAL_STATUS ( 'not_yet_approved' ) ;
#49 = EDGE_CURVE ( 'NONE', #171, #581, #485, .T. ) ;
#50 = APPROVAL_ROLE ( '' ) ;
#51 = ORGANIZATION ( 'UNSPECIFIED', 'UNSPECIFIED', '' ) ;
#52 = PERSON_AND_ORGANIZATION_ROLE ( 'creator' ) ;
#53 = CIRCLE ( 'NONE', #404, 3.000000000000002665 ) ;
#54 = ORIENTED_EDGE ( 'NONE', *, *, #469, .T. ) ;
#55 = EDGE_CURVE ( 'NONE', #56, #581, #35, .T. ) ;
#56 = VERTEX_POINT ( 'NONE', #468 ) ;
#57 = CARTESIAN_POINT ( 'NONE',  ( 0.0000000000000000000, 0.0000000000000000000, -35.00000000000000000 ) ) ;
#58 = AXIS2_PLACEMENT_3D ( 'NONE', #505, #138, #454 ) ;
#59 = CARTESIAN_POINT ( 'NONE',  ( 35.00000000000000000, 0.0000000000000000000, -3.000000000000367262 ) ) ;
#60 = AXIS2_PLACEMENT_3D ( 'NONE', #126, #42, #445 ) ;
#61 = CARTESIAN_POINT ( 'NONE',  ( -28.54155185110508341, 0.0000000000000000000, -28.02462877418146547 ) ) ;
#62 = ORIENTED_EDGE ( 'NONE', *, *, #49, .T. ) ;
#63 = FACE_BOUND ( 'NONE', #92, .T. ) ;
#64 = ORIENTED_EDGE ( 'NONE', *, *, #86, .T. ) ;
#65 = DIRECTION ( 'NONE',  ( 0.7071067811865435759, 0.0000000000000000000, -0.7071067811865515695 ) ) ;
#66 = DIRECTION ( 'NONE',  ( -0.0000000000000000000, 1.000000000000000000, -0.0000000000000000000 ) ) ;
#67 = DATE_AND_TIME ( #142, #264 ) ;
#68 = LINE ( 'NONE', #272, #560 ) ;
#69 = CARTESIAN_POINT ( 'NONE',  ( 10.34499061794181785, 0.0000000000000000000, 10.86191369486499703 ) ) ;
#70 = ORIENTED_EDGE ( 'NONE', *, *, #489, .F. ) ;
#71 = ORIENTED_EDGE ( 'NONE', *, *, #482, .F. ) ;
#72 = CARTESIAN_POINT ( 'NONE',  ( 19.50000000000000000, 4.629999999999999893, 1.999999999999796607 ) ) ;
#73 = AXIS2_PLACEMENT_3D ( 'NONE', #127, #500, #554 ) ;
#74 = DIRECTION ( 'NONE',  ( 0.0000000000000000000, 1.000000000000000000, 0.0000000000000000000 ) ) ;
#75 = CARTESIAN_POINT ( 'NONE',  ( 0.0000000000000000000, 0.0000000000000000000, 0.0000000000000000000 ) ) ;
#76 = AXIS2_PLACEMENT_3D ( 'NONE', #233, #332, #424 ) ;
#77 = VERTEX_POINT ( 'NONE', #59 ) ;
#78 = DIRECTION ( 'NONE',  ( -1.000000000000000000, 0.0000000000000000000, 1.047444401652939060E-14 ) ) ;
#79 = CARTESIAN_POINT ( 'NONE',  ( 0.0000000000000000000, 4.629999999999999893, -32.00000000000000000 ) ) ;
#80 = LINE ( 'NONE', #359, #408 ) ;
#81 = VERTEX_POINT ( 'NONE', #511 ) ;
#82 = ORIENTED_EDGE ( 'NONE', *, *, #362, .F. ) ;
#83 = CARTESIAN_POINT ( 'NONE',  ( -10.86191369486511604, 4.629999999999999893, -10.34499061794169705 ) ) ;
#84 = ORIENTED_EDGE ( 'NONE', *, *, #173, .T. ) ;
#85 = ADVANCED_FACE ( 'NONE', ( #281 ), #370, .F. ) ;
#86 = EDGE_CURVE ( 'NONE', #38, #291, #357, .T. ) ;
#87 = SECURITY_CLASSIFICATION ( '', '', #419 ) ;
#88 = ADVANCED_FACE ( 'NONE', ( #386 ), #8, .F. ) ;
#89 = CARTESIAN_POINT ( 'NONE',  ( -28.54155185110508341, 4.629999999999999893, -28.02462877418146547 ) ) ;
#90 = FACE_OUTER_BOUND ( 'NONE', #344, .T. ) ;
#91 = DIRECTION ( 'NONE',  ( 0.0000000000000000000, 1.000000000000000000, 0.0000000000000000000 ) ) ;
#92 = EDGE_LOOP ( 'NONE', ( #379, #358 ) ) ;
#93 = EDGE_CURVE ( 'NONE', #44, #315, #464, .T. ) ;
#94 = DIRECTION ( 'NONE',  ( 0.0000000000000000000, 0.0000000000000000000, 1.000000000000000000 ) ) ;
#95 = LINE ( 'NONE', #132, #198 ) ;
#96 = FACE_OUTER_BOUND ( 'NONE', #604, .T. ) ;
#97 = EDGE_LOOP ( 'NONE', ( #387, #70 ) ) ;
#98 = ORIENTED_EDGE ( 'NONE', *, *, #536, .F. ) ;
#99 = CARTESIAN_POINT ( 'NONE',  ( 0.0000000000000000000, 0.0000000000000000000, 0.0000000000000000000 ) ) ;
#100 = APPLICATION_CONTEXT ( 'configuration controlled 3d designs of mechanical parts and assemblies' ) ;
#101 = DIRECTION ( 'NONE',  ( -0.0000000000000000000, -1.000000000000000000, -0.0000000000000000000 ) ) ;
#102 = VECTOR ( 'NONE', #197, 1000.000000000000000 ) ;
#103 = ORIENTED_EDGE ( 'NONE', *, *, #356, .T. ) ;
#104 = CARTESIAN_POINT ( 'NONE',  ( 0.0000000000000000000, 4.629999999999999893, 0.0000000000000000000 ) ) ;
#105 = CARTESIAN_POINT ( 'NONE',  ( 28.02462877418178877, 0.0000000000000000000, 28.54155185110476722 ) ) ;
#106 = CIRCLE ( 'NONE', #382, 2.000000000000001776 ) ;
#107 = FACE_OUTER_BOUND ( 'NONE', #11, .T. ) ;
#108 = ORIENTED_EDGE ( 'NONE', *, *, #417, .F. ) ;
#109 = ORIENTED_EDGE ( 'NONE', *, *, #231, .T. ) ;
#110 = EDGE_CURVE ( 'NONE', #407, #171, #155, .T. ) ;
#111 = CARTESIAN_POINT ( 'NONE',  ( 0.0000000000000000000, 4.629999999999999893, 0.0000000000000000000 ) ) ;
#112 = CC_DESIGN_APPROVAL ( #158, ( #129 ) ) ;
#113 = FACE_BOUND ( 'NONE', #321, .T. ) ;
#114 = CARTESIAN_POINT ( 'NONE',  ( 0.0000000000000000000, 4.629999999999999893, 0.0000000000000000000 ) ) ;
#115 = FACE_BOUND ( 'NONE', #146, .T. ) ;
#116 = ORIENTED_EDGE ( 'NONE', *, *, #456, .T. ) ;
#117 = DIRECTION ( 'NONE',  ( -1.000000000000000000, 0.0000000000000000000, 1.047444401652939375E-14 ) ) ;
#118 = CARTESIAN_POINT ( 'NONE',  ( 19.50000000000000000, 4.629999999999999893, -2.042516583223233202E-13 ) ) ;
#119 = AXIS2_PLACEMENT_3D ( 'NONE', #292, #246, #426 ) ;
#120 = CIRCLE ( 'NONE', #528, 3.000000000000002665 ) ;
#121 = CIRCLE ( 'NONE', #599, 40.00000000000000000 ) ;
#122 = ORIENTED_EDGE ( 'NONE', *, *, #5, .T. ) ;
#123 = ORIENTED_EDGE ( 'NONE', *, *, #308, .T. ) ;
#124 = DIRECTION ( 'NONE',  ( 0.0000000000000000000, 0.0000000000000000000, 1.000000000000000000 ) ) ;
#125 = ADVANCED_FACE ( 'NONE', ( #265 ), #287, .F. ) ;
#126 = CARTESIAN_POINT ( 'NONE',  ( 19.50000000000000000, 0.0000000000000000000, -2.042516583223233202E-13 ) ) ;
#127 = CARTESIAN_POINT ( 'NONE',  ( 0.0000000000000000000, 4.629999999999999893, -19.50000000000000000 ) ) ;
#128 = COORDINATED_UNIVERSAL_TIME_OFFSET ( 0, 0, .AHEAD. ) ;
#129 = PRODUCT_DEFINITION ( 'UNKNOWN', '', #240, #323 ) ;
#130 = LINE ( 'NONE', #491, #243 ) ;
#131 = VERTEX_POINT ( 'NONE', #192 ) ;
#132 = CARTESIAN_POINT ( 'NONE',  ( 0.0000000000000000000, 0.0000000000000000000, -17.49999999999999645 ) ) ;
#133 = ADVANCED_FACE ( 'NONE', ( #193 ), #7, .F. ) ;
#134 = DIRECTION ( 'NONE',  ( -0.0000000000000000000, 1.000000000000000000, -0.0000000000000000000 ) ) ;
#135 = FACE_OUTER_BOUND ( 'NONE', #473, .T. ) ;
#136 = VERTEX_POINT ( 'NONE', #4 ) ;
#137 = ORIENTED_EDGE ( 'NONE', *, *, #160, .T. ) ;
#138 = DIRECTION ( 'NONE',  ( -0.0000000000000000000, 1.000000000000000000, -0.0000000000000000000 ) ) ;
#139 = PERSON ( 'UNSPECIFIED', 'UNSPECIFIED', 'UNSPECIFIED', ('UNSPECIFIED'), ('UNSPECIFIED'), ('UNSPECIFIED') ) ;
#140 = AXIS2_PLACEMENT_3D ( 'NONE', #204, #65, #293 ) ;
#141 = DIRECTION ( 'NONE',  ( 0.0000000000000000000, 1.000000000000000000, 0.0000000000000000000 ) ) ;
#142 = CALENDAR_DATE ( 2019, 12, 12 ) ;
#143 = FACE_OUTER_BOUND ( 'NONE', #372, .T. ) ;
#144 = CIRCLE ( 'NONE', #181, 15.00000000000000000 ) ;
#145 = CARTESIAN_POINT ( 'NONE',  ( 0.0000000000000000000, 0.0000000000000000000, 0.0000000000000000000 ) ) ;
#146 = EDGE_LOOP ( 'NONE', ( #274, #20 ) ) ;
#147 = CC_DESIGN_PERSON_AND_ORGANIZATION_ASSIGNMENT ( #523, #46, ( #87 ) ) ;
#148 = DIRECTION ( 'NONE',  ( 0.0000000000000000000, 0.0000000000000000000, 1.000000000000000000 ) ) ;
#149 = DIRECTION ( 'NONE',  ( -0.0000000000000000000, 1.000000000000000000, -0.0000000000000000000 ) ) ;
#150 = ORIENTED_EDGE ( 'NONE', *, *, #346, .T. ) ;
#151 = VERTEX_POINT ( 'NONE', #476 ) ;
#152 = CARTESIAN_POINT ( 'NONE',  ( 0.0000000000000000000, 4.629999999999999893, 0.0000000000000000000 ) ) ;
#153 = DIRECTION ( 'NONE',  ( 0.0000000000000000000, 0.0000000000000000000, 1.000000000000000000 ) ) ;
#154 = DATE_AND_TIME ( #169, #310 ) ;
#155 = LINE ( 'NONE', #467, #26 ) ;
#156 = ORIENTED_EDGE ( 'NONE', *, *, #308, .F. ) ;
#157 = ORIENTED_EDGE ( 'NONE', *, *, #288, .T. ) ;
#158 = APPROVAL ( #326, 'UNSPECIFIED' ) ;
#159 = CARTESIAN_POINT ( 'NONE',  ( 0.0000000000000000000, 0.0000000000000000000, 0.0000000000000000000 ) ) ;
#160 = EDGE_CURVE ( 'NONE', #180, #188, #18, .T. ) ;
#161 = DIRECTION ( 'NONE',  ( -1.000000000000000000, 0.0000000000000000000, 1.047444401652939375E-14 ) ) ;
#162 = CYLINDRICAL_SURFACE ( 'NONE', #597, 2.000000000000001776 ) ;
#163 = ORIENTED_EDGE ( 'NONE', *, *, #242, .T. ) ;
#164 = VECTOR ( 'NONE', #551, 1000.000000000000000 ) ;
#165 = ORIENTED_EDGE ( 'NONE', *, *, #262, .T. ) ;
#166 = DIRECTION ( 'NONE',  ( 0.0000000000000000000, 1.000000000000000000, 0.0000000000000000000 ) ) ;
#167 = CC_DESIGN_APPROVAL ( #465, ( #240 ) ) ;
#168 = ADVANCED_FACE ( 'NONE', ( #406, #553, #209, #389, #115 ), #477, .T. ) ;
#169 = CALENDAR_DATE ( 2019, 12, 12 ) ;
#170 = ORIENTED_EDGE ( 'NONE', *, *, #395, .F. ) ;
#171 = VERTEX_POINT ( 'NONE', #69 ) ;
#172 = ORIENTED_EDGE ( 'NONE', *, *, #267, .F. ) ;
#173 = EDGE_CURVE ( 'NONE', #56, #605, #144, .T. ) ;
#174 = CC_DESIGN_SECURITY_CLASSIFICATION ( #87, ( #240 ) ) ;
#175 = DIRECTION ( 'NONE',  ( -0.7071067811865515695, -0.0000000000000000000, -0.7071067811865435759 ) ) ;
#176 = DIRECTION ( 'NONE',  ( -0.0000000000000000000, 1.000000000000000000, -0.0000000000000000000 ) ) ;
#177 = VECTOR ( 'NONE', #547, 1000.000000000000000 ) ;
#178 = ORIENTED_EDGE ( 'NONE', *, *, #376, .F. ) ;
#179 = VECTOR ( 'NONE', #260, 1000.000000000000000 ) ;
#180 = VERTEX_POINT ( 'NONE', #208 ) ;
#181 = AXIS2_PLACEMENT_3D ( 'NONE', #111, #74, #12 ) ;
#182 =( NAMED_UNIT ( * ) PLANE_ANGLE_UNIT ( ) SI_UNIT ( $, .RADIAN. ) );
#183 = CARTESIAN_POINT ( 'NONE',  ( 0.0000000000000000000, 0.0000000000000000000, -15.00000000000000000 ) ) ;
#184 = CYLINDRICAL_SURFACE ( 'NONE', #60, 2.000000000000000888 ) ;
#185 = CIRCLE ( 'NONE', #607, 2.000000000000001776 ) ;
#186 = ORIENTED_EDGE ( 'NONE', *, *, #572, .T. ) ;
#187 = ORIENTED_EDGE ( 'NONE', *, *, #267, .T. ) ;
#188 = VERTEX_POINT ( 'NONE', #381 ) ;
#189 = CARTESIAN_POINT ( 'NONE',  ( 35.00000000000000000, 0.0000000000000000000, 2.999999999999634515 ) ) ;
#190 = AXIS2_PLACEMENT_3D ( 'NONE', #432, #529, #431 ) ;
#191 = CARTESIAN_POINT ( 'NONE',  ( -28.54155185110508341, 0.0000000000000000000, -28.02462877418146547 ) ) ;
#192 = CARTESIAN_POINT ( 'NONE',  ( -28.54155185110508341, 0.0000000000000000000, -28.02462877418146547 ) ) ;
#193 = FACE_OUTER_BOUND ( 'NONE', #39, .T. ) ;
#194 = VERTEX_POINT ( 'NONE', #301 ) ;
#195 = DIRECTION ( 'NONE',  ( -0.0000000000000000000, 1.000000000000000000, -0.0000000000000000000 ) ) ;
#196 = DIRECTION ( 'NONE',  ( 0.0000000000000000000, 0.0000000000000000000, 1.000000000000000000 ) ) ;
#197 = DIRECTION ( 'NONE',  ( -0.7071067811865515695, -0.0000000000000000000, -0.7071067811865435759 ) ) ;
#198 = VECTOR ( 'NONE', #134, 1000.000000000000000 ) ;
#199 = DIRECTION ( 'NONE',  ( 0.0000000000000000000, 1.000000000000000000, 0.0000000000000000000 ) ) ;
#200 = ORIENTED_EDGE ( 'NONE', *, *, #331, .F. ) ;
#201 = AXIS2_PLACEMENT_3D ( 'NONE', #587, #212, #161 ) ;
#202 = ORIENTED_EDGE ( 'NONE', *, *, #362, .T. ) ;
#203 = ORIENTED_EDGE ( 'NONE', *, *, #469, .F. ) ;
#204 = CARTESIAN_POINT ( 'NONE',  ( -28.54155185110508341, 0.0000000000000000000, -28.02462877418146547 ) ) ;
#205 = DIRECTION ( 'NONE',  ( 0.0000000000000000000, 0.0000000000000000000, 1.000000000000000000 ) ) ;
#206 = EDGE_CURVE ( 'NONE', #244, #486, #236, .T. ) ;
#207 = AXIS2_PLACEMENT_3D ( 'NONE', #9, #66, #380 ) ;
#208 = CARTESIAN_POINT ( 'NONE',  ( 2.449293598294706907E-16, 0.0000000000000000000, -21.50000000000000000 ) ) ;
#209 = FACE_BOUND ( 'NONE', #595, .T. ) ;
#210 = ORIENTED_EDGE ( 'NONE', *, *, #302, .F. ) ;
#211 = CARTESIAN_POINT ( 'NONE',  ( 19.50000000000000000, 0.0000000000000000000, -2.042516583223233202E-13 ) ) ;
#212 = DIRECTION ( 'NONE',  ( 0.0000000000000000000, 1.000000000000000000, 0.0000000000000000000 ) ) ;
#213 = ADVANCED_FACE ( 'NONE', ( #135 ), #526, .T. ) ;
#214 = VECTOR ( 'NONE', #263, 1000.000000000000000 ) ;
#215 = COORDINATED_UNIVERSAL_TIME_OFFSET ( 0, 0, .AHEAD. ) ;
#216 = ORIENTED_EDGE ( 'NONE', *, *, #388, .F. ) ;
#217 = ORIENTED_EDGE ( 'NONE', *, *, #447, .F. ) ;
#218 = DIRECTION ( 'NONE',  ( -0.0000000000000000000, 1.000000000000000000, -0.0000000000000000000 ) ) ;
#219 = DIRECTION ( 'NONE',  ( 0.0000000000000000000, 0.0000000000000000000, 1.000000000000000000 ) ) ;
#220 = DIRECTION ( 'NONE',  ( -0.0000000000000000000, 1.000000000000000000, -0.0000000000000000000 ) ) ;
#221 = CC_DESIGN_PERSON_AND_ORGANIZATION_ASSIGNMENT ( #294, #366, ( #240 ) ) ;
#222 = CIRCLE ( 'NONE', #478, 40.00000000000000000 ) ;
#223 = CARTESIAN_POINT ( 'NONE',  ( -28.54155185110508341, 4.629999999999999893, -28.02462877418146547 ) ) ;
#224 = VERTEX_POINT ( 'NONE', #72 ) ;
#225 = CARTESIAN_POINT ( 'NONE',  ( 3.673940397442060854E-16, 0.0000000000000000000, -38.00000000000000711 ) ) ;
#226 = APPROVAL_ROLE ( '' ) ;
#227 = CIRCLE ( 'NONE', #270, 2.000000000000001776 ) ;
#228 = DIRECTION ( 'NONE',  ( 0.0000000000000000000, 0.0000000000000000000, 1.000000000000000000 ) ) ;
#229 = EDGE_LOOP ( 'NONE', ( #497, #314, #62, #571, #163, #442 ) ) ;
#230 = AXIS2_PLACEMENT_3D ( 'NONE', #322, #91, #496 ) ;
#231 = EDGE_CURVE ( 'NONE', #407, #56, #360, .T. ) ;
#232 =( LENGTH_UNIT ( ) NAMED_UNIT ( * ) SI_UNIT ( .MILLI., .METRE. ) );
#233 = CARTESIAN_POINT ( 'NONE',  ( 0.0000000000000000000, 0.0000000000000000000, -35.00000000000000000 ) ) ;
#234 = SHAPE_DEFINITION_REPRESENTATION ( #390, #546 ) ;
#235 = CC_DESIGN_PERSON_AND_ORGANIZATION_ASSIGNMENT ( #540, #601, ( #240 ) ) ;
#236 = CIRCLE ( 'NONE', #590, 40.00000000000000000 ) ;
#237 = DIRECTION ( 'NONE',  ( -0.0000000000000000000, -1.000000000000000000, -0.0000000000000000000 ) ) ;
#238 = ORIENTED_EDGE ( 'NONE', *, *, #13, .T. ) ;
#239 = DIRECTION ( 'NONE',  ( -0.0000000000000000000, -1.000000000000000000, -0.0000000000000000000 ) ) ;
#240 = PRODUCT_DEFINITION_FORMATION_WITH_SPECIFIED_SOURCE ( 'ANY', '', #449, .NOT_KNOWN. ) ;
#241 = DIRECTION ( 'NONE',  ( 0.0000000000000000000, 1.000000000000000000, 0.0000000000000000000 ) ) ;
#242 = EDGE_CURVE ( 'NONE', #245, #131, #502, .T. ) ;
#243 = VECTOR ( 'NONE', #218, 1000.000000000000000 ) ;
#244 = VERTEX_POINT ( 'NONE', #249 ) ;
#245 = VERTEX_POINT ( 'NONE', #19 ) ;
#246 = DIRECTION ( 'NONE',  ( 0.0000000000000000000, 1.000000000000000000, 0.0000000000000000000 ) ) ;
#247 = DIRECTION ( 'NONE',  ( -1.000000000000000000, 0.0000000000000000000, 1.047444401652939375E-14 ) ) ;
#248 = LOCAL_TIME ( 17, 23, 22.00000000000000000, #368 ) ;
#249 = CARTESIAN_POINT ( 'NONE',  ( 28.02462877418178877, 4.629999999999999893, 28.54155185110476722 ) ) ;
#250 = CYLINDRICAL_SURFACE ( 'NONE', #207, 3.000000000000002665 ) ;
#251 = CC_DESIGN_DATE_AND_TIME_ASSIGNMENT ( #280, #324, ( #87 ) ) ;
#252 = VERTEX_POINT ( 'NONE', #105 ) ;
#253 = DIRECTION ( 'NONE',  ( 0.0000000000000000000, 0.0000000000000000000, 1.000000000000000000 ) ) ;
#254 = CARTESIAN_POINT ( 'NONE',  ( 0.0000000000000000000, 4.629999999999999893, -17.49999999999999645 ) ) ;
#255 = CYLINDRICAL_SURFACE ( 'NONE', #579, 3.000000000000000888 ) ;
#256 = EDGE_LOOP ( 'NONE', ( #437, #516, #555, #563 ) ) ;
#257 = ORIENTED_EDGE ( 'NONE', *, *, #536, .T. ) ;
#258 = DIRECTION ( 'NONE',  ( 0.0000000000000000000, 0.0000000000000000000, 1.000000000000000000 ) ) ;
#259 = ADVANCED_FACE ( 'NONE', ( #90 ), #471, .F. ) ;
#260 = DIRECTION ( 'NONE',  ( -0.0000000000000000000, 1.000000000000000000, -0.0000000000000000000 ) ) ;
#261 = CC_DESIGN_DATE_AND_TIME_ASSIGNMENT ( #154, #565, ( #129 ) ) ;
#262 = EDGE_CURVE ( 'NONE', #252, #81, #569, .T. ) ;
#263 = DIRECTION ( 'NONE',  ( -0.0000000000000000000, -1.000000000000000000, -0.0000000000000000000 ) ) ;
#264 = LOCAL_TIME ( 17, 23, 22.00000000000000000, #215 ) ;
#265 = FACE_OUTER_BOUND ( 'NONE', #577, .T. ) ;
#266 = ORIENTED_EDGE ( 'NONE', *, *, #501, .T. ) ;
#267 = EDGE_CURVE ( 'NONE', #224, #487, #451, .T. ) ;
#268 = DIRECTION ( 'NONE',  ( 0.0000000000000000000, 1.000000000000000000, 0.0000000000000000000 ) ) ;
#269 = ADVANCED_FACE ( 'NONE', ( #377 ), #250, .F. ) ;
#270 = AXIS2_PLACEMENT_3D ( 'NONE', #118, #166, #117 ) ;
#271 = CARTESIAN_POINT ( 'NONE',  ( 0.0000000000000000000, 0.0000000000000000000, -19.50000000000000000 ) ) ;
#272 = CARTESIAN_POINT ( 'NONE',  ( 28.02462877418178877, 0.0000000000000000000, 28.54155185110476722 ) ) ;
#273 = AXIS2_PLACEMENT_3D ( 'NONE', #271, #596, #353 ) ;
#274 = ORIENTED_EDGE ( 'NONE', *, *, #277, .F. ) ;
#275 = VECTOR ( 'NONE', #175, 1000.000000000000000 ) ;
#276 = ORIENTED_EDGE ( 'NONE', *, *, #55, .F. ) ;
#277 = EDGE_CURVE ( 'NONE', #291, #136, #333, .T. ) ;
#278 = APPROVAL_STATUS ( 'not_yet_approved' ) ;
#279 = DIRECTION ( 'NONE',  ( 0.0000000000000000000, 1.000000000000000000, 0.0000000000000000000 ) ) ;
#280 = DATE_AND_TIME ( #602, #398 ) ;
#281 = FACE_OUTER_BOUND ( 'NONE', #416, .T. ) ;
#282 = DIRECTION ( 'NONE',  ( -0.0000000000000000000, -1.000000000000000000, -0.0000000000000000000 ) ) ;
#283 = ORIENTED_EDGE ( 'NONE', *, *, #288, .F. ) ;
#284 = ORIENTED_EDGE ( 'NONE', *, *, #383, .T. ) ;
#285 = AXIS2_PLACEMENT_3D ( 'NONE', #593, #313, #448 ) ;
#286 = CARTESIAN_POINT ( 'NONE',  ( 0.0000000000000000000, 4.629999999999999893, -15.00000000000000000 ) ) ;
#287 = PLANE ( 'NONE',  #557 ) ;
#288 = EDGE_CURVE ( 'NONE', #487, #224, #227, .T. ) ;
#289 = EDGE_LOOP ( 'NONE', ( #170, #82 ) ) ;
#290 = LINE ( 'NONE', #89, #517 ) ;
#291 = VERTEX_POINT ( 'NONE', #79 ) ;
#292 = CARTESIAN_POINT ( 'NONE',  ( 0.0000000000000000000, 4.629999999999999893, 0.0000000000000000000 ) ) ;
#293 = DIRECTION ( 'NONE',  ( -0.7071067811865515695, 0.0000000000000000000, -0.7071067811865435759 ) ) ;
#294 = PERSON_AND_ORGANIZATION ( #139, #51 ) ;
#295 = APPROVAL ( #48, 'UNSPECIFIED' ) ;
#296 = FACE_BOUND ( 'NONE', #452, .T. ) ;
#297 = APPROVAL_DATE_TIME ( #543, #158 ) ;
#298 = ORIENTED_EDGE ( 'NONE', *, *, #331, .T. ) ;
#299 = VERTEX_POINT ( 'NONE', #254 ) ;
#300 = CARTESIAN_POINT ( 'NONE',  ( 0.0000000000000000000, 0.0000000000000000000, -19.50000000000000000 ) ) ;
#301 = CARTESIAN_POINT ( 'NONE',  ( 3.673940397442058882E-16, 0.0000000000000000000, -38.00000000000000711 ) ) ;
#302 = EDGE_CURVE ( 'NONE', #77, #430, #130, .T. ) ;
#303 = AXIS2_PLACEMENT_3D ( 'NONE', #524, #385, #247 ) ;
#304 = DIRECTION ( 'NONE',  ( 0.0000000000000000000, 1.000000000000000000, 0.0000000000000000000 ) ) ;
#305 = DIRECTION ( 'NONE',  ( 0.0000000000000000000, 1.000000000000000000, 0.0000000000000000000 ) ) ;
#306 = ORIENTED_EDGE ( 'NONE', *, *, #206, .F. ) ;
#307 = CARTESIAN_POINT ( 'NONE',  ( 0.0000000000000000000, 4.629999999999999893, -35.00000000000000000 ) ) ;
#308 = EDGE_CURVE ( 'NONE', #328, #151, #348, .T. ) ;
#309 = DIRECTION ( 'NONE',  ( -1.000000000000000000, 0.0000000000000000000, 1.047444401652939375E-14 ) ) ;
#310 = LOCAL_TIME ( 17, 23, 22.00000000000000000, #338 ) ;
#311 = CIRCLE ( 'NONE', #285, 3.000000000000002665 ) ;
#312 = FACE_OUTER_BOUND ( 'NONE', #229, .T. ) ;
#313 = DIRECTION ( 'NONE',  ( 0.0000000000000000000, 1.000000000000000000, 0.0000000000000000000 ) ) ;
#314 = ORIENTED_EDGE ( 'NONE', *, *, #450, .T. ) ;
#315 = VERTEX_POINT ( 'NONE', #531 ) ;
#316 = ADVANCED_FACE ( 'NONE', ( #421 ), #162, .F. ) ;
#317 = CARTESIAN_POINT ( 'NONE',  ( -28.54155185110508341, 0.0000000000000000000, -28.02462877418146547 ) ) ;
#318 = CC_DESIGN_APPROVAL ( #295, ( #87 ) ) ;
#319 = CARTESIAN_POINT ( 'NONE',  ( 0.0000000000000000000, 4.629999999999999893, -40.00000000000000000 ) ) ;
#320 = LINE ( 'NONE', #225, #177 ) ;
#321 = EDGE_LOOP ( 'NONE', ( #27, #103 ) ) ;
#322 = CARTESIAN_POINT ( 'NONE',  ( 35.00000000000000000, 4.629999999999999893, -3.666055405785290402E-13 ) ) ;
#323 = DESIGN_CONTEXT ( 'detailed design', #100, 'design' ) ;
#324 = DATE_TIME_ROLE ( 'classification_date' ) ;
#325 = VECTOR ( 'NONE', #354, 1000.000000000000000 ) ;
#326 = APPROVAL_STATUS ( 'not_yet_approved' ) ;
#327 = ORIENTED_EDGE ( 'NONE', *, *, #13, .F. ) ;
#328 = VERTEX_POINT ( 'NONE', #347 ) ;
#329 = ORIENTED_EDGE ( 'NONE', *, *, #110, .F. ) ;
#330 = APPLICATION_PROTOCOL_DEFINITION ( 'international standard', 'config_control_design', 1994, #100 ) ;
#331 = EDGE_CURVE ( 'NONE', #151, #328, #106, .T. ) ;
#332 = DIRECTION ( 'NONE',  ( -0.0000000000000000000, 1.000000000000000000, -0.0000000000000000000 ) ) ;
#333 = CIRCLE ( 'NONE', #17, 3.000000000000002665 ) ;
#334 = DIRECTION ( 'NONE',  ( -0.0000000000000000000, 1.000000000000000000, -0.0000000000000000000 ) ) ;
#335 = CARTESIAN_POINT ( 'NONE',  ( 35.00000000000000000, 0.0000000000000000000, -3.666055405785290402E-13 ) ) ;
#336 = EDGE_CURVE ( 'NONE', #44, #77, #120, .T. ) ;
#337 = LINE ( 'NONE', #453, #575 ) ;
#338 = COORDINATED_UNIVERSAL_TIME_OFFSET ( 0, 0, .AHEAD. ) ;
#339 = ORIENTED_EDGE ( 'NONE', *, *, #231, .F. ) ;
#340 = ORIENTED_EDGE ( 'NONE', *, *, #501, .F. ) ;
#341 = CARTESIAN_POINT ( 'NONE',  ( 0.0000000000000000000, 4.629999999999999893, 0.0000000000000000000 ) ) ;
#342 =( GEOMETRIC_REPRESENTATION_CONTEXT ( 3 ) GLOBAL_UNCERTAINTY_ASSIGNED_CONTEXT ( ( #455 ) ) GLOBAL_UNIT_ASSIGNED_CONTEXT ( ( #232, #182, #600 ) ) REPRESENTATION_CONTEXT ( 'NONE', 'WORKASPACE' ) );
#343 = CIRCLE ( 'NONE', #446, 3.000000000000002665 ) ;
#344 = EDGE_LOOP ( 'NONE', ( #109, #391, #373, #329 ) ) ;
#345 = DIRECTION ( 'NONE',  ( -0.0000000000000000000, 1.000000000000000000, -0.0000000000000000000 ) ) ;
#346 = EDGE_CURVE ( 'NONE', #136, #291, #594, .T. ) ;
#347 = CARTESIAN_POINT ( 'NONE',  ( 19.50000000000000000, 0.0000000000000000000, -2.000000000000205169 ) ) ;
#348 = CIRCLE ( 'NONE', #201, 2.000000000000001776 ) ;
#349 = PERSON_AND_ORGANIZATION ( #139, #51 ) ;
#350 = ORIENTED_EDGE ( 'NONE', *, *, #438, .T. ) ;
#351 = ORIENTED_EDGE ( 'NONE', *, *, #356, .F. ) ;
#352 = ADVANCED_FACE ( 'NONE', ( #495 ), #580, .F. ) ;
#353 = DIRECTION ( 'NONE',  ( 0.0000000000000000000, 0.0000000000000000000, 1.000000000000000000 ) ) ;
#354 = DIRECTION ( 'NONE',  ( 0.0000000000000000000, 1.000000000000000000, 0.0000000000000000000 ) ) ;
#355 = PERSON_AND_ORGANIZATION ( #139, #51 ) ;
#356 = EDGE_CURVE ( 'NONE', #194, #38, #343, .T. ) ;
#357 = LINE ( 'NONE', #375, #510 ) ;
#358 = ORIENTED_EDGE ( 'NONE', *, *, #405, .T. ) ;
#359 = CARTESIAN_POINT ( 'NONE',  ( 2.449293598294707893E-16, 0.0000000000000000000, -21.50000000000000000 ) ) ;
#360 = CIRCLE ( 'NONE', #374, 15.00000000000000000 ) ;
#361 = ORIENTED_EDGE ( 'NONE', *, *, #86, .F. ) ;
#362 = EDGE_CURVE ( 'NONE', #430, #315, #53, .T. ) ;
#363 = DIRECTION ( 'NONE',  ( 1.000000000000000000, 0.0000000000000000000, 0.0000000000000000000 ) ) ;
#364 = ORIENTED_EDGE ( 'NONE', *, *, #405, .F. ) ;
#365 = APPROVAL_ROLE ( '' ) ;
#366 = PERSON_AND_ORGANIZATION_ROLE ( 'design_supplier' ) ;
#367 = CARTESIAN_POINT ( 'NONE',  ( 0.0000000000000000000, 0.0000000000000000000, 0.0000000000000000000 ) ) ;
#368 = COORDINATED_UNIVERSAL_TIME_OFFSET ( 0, 0, .AHEAD. ) ;
#369 = APPLICATION_CONTEXT ( 'configuration controlled 3d designs of mechanical parts and assemblies' ) ;
#370 = CYLINDRICAL_SURFACE ( 'NONE', #588, 2.000000000000000888 ) ;
#371 = DIRECTION ( 'NONE',  ( -0.0000000000000000000, 1.000000000000000000, -0.0000000000000000000 ) ) ;
#372 = EDGE_LOOP ( 'NONE', ( #276, #84, #71, #178 ) ) ;
#373 = ORIENTED_EDGE ( 'NONE', *, *, #49, .F. ) ;
#374 = AXIS2_PLACEMENT_3D ( 'NONE', #152, #199, #205 ) ;
#375 = CARTESIAN_POINT ( 'NONE',  ( 0.0000000000000000000, 0.0000000000000000000, -32.00000000000000000 ) ) ;
#376 = EDGE_CURVE ( 'NONE', #581, #245, #436, .T. ) ;
#377 = FACE_OUTER_BOUND ( 'NONE', #512, .T. ) ;
#378 = ORIENTED_EDGE ( 'NONE', *, *, #173, .F. ) ;
#379 = ORIENTED_EDGE ( 'NONE', *, *, #336, .T. ) ;
#380 = DIRECTION ( 'NONE',  ( 0.0000000000000000000, 0.0000000000000000000, 1.000000000000000000 ) ) ;
#381 = CARTESIAN_POINT ( 'NONE',  ( 0.0000000000000000000, 0.0000000000000000000, -17.49999999999999645 ) ) ;
#382 = AXIS2_PLACEMENT_3D ( 'NONE', #211, #305, #309 ) ;
#383 = EDGE_CURVE ( 'NONE', #486, #475, #222, .T. ) ;
#384 = PERSON_AND_ORGANIZATION ( #139, #51 ) ;
#385 = DIRECTION ( 'NONE',  ( 0.0000000000000000000, 1.000000000000000000, 0.0000000000000000000 ) ) ;
#386 = FACE_OUTER_BOUND ( 'NONE', #423, .T. ) ;
#387 = ORIENTED_EDGE ( 'NONE', *, *, #572, .F. ) ;
#388 = EDGE_CURVE ( 'NONE', #194, #136, #320, .T. ) ;
#389 = FACE_BOUND ( 'NONE', #97, .T. ) ;
#390 = PRODUCT_DEFINITION_SHAPE ( 'NONE', 'NONE',  #129 ) ;
#391 = ORIENTED_EDGE ( 'NONE', *, *, #55, .T. ) ;
#392 = FACE_OUTER_BOUND ( 'NONE', #518, .T. ) ;
#393 = EDGE_LOOP ( 'NONE', ( #444, #466, #122, #238 ) ) ;
#394 = DIRECTION ( 'NONE',  ( 0.0000000000000000000, 0.0000000000000000000, 1.000000000000000000 ) ) ;
#395 = EDGE_CURVE ( 'NONE', #315, #430, #43, .T. ) ;
#396 = CARTESIAN_POINT ( 'NONE',  ( 0.0000000000000000000, 4.629999999999999893, -35.00000000000000000 ) ) ;
#397 = CARTESIAN_POINT ( 'NONE',  ( 0.0000000000000000000, 4.629999999999999893, -40.00000000000000000 ) ) ;
#398 = LOCAL_TIME ( 17, 23, 22.00000000000000000, #128 ) ;
#399 = AXIS2_PLACEMENT_3D ( 'NONE', #159, #481, #14 ) ;
#400 = CYLINDRICAL_SURFACE ( 'NONE', #521, 40.00000000000000000 ) ;
#401 = ORIENTED_EDGE ( 'NONE', *, *, #420, .F. ) ;
#402 = CARTESIAN_POINT ( 'NONE',  ( 10.34499061794181785, 4.629999999999999893, 10.86191369486499703 ) ) ;
#403 = DIRECTION ( 'NONE',  ( -0.0000000000000000000, 1.000000000000000000, -0.0000000000000000000 ) ) ;
#404 = AXIS2_PLACEMENT_3D ( 'NONE', #484, #29, #488 ) ;
#405 = EDGE_CURVE ( 'NONE', #77, #44, #311, .T. ) ;
#406 = FACE_OUTER_BOUND ( 'NONE', #28, .T. ) ;
#407 = VERTEX_POINT ( 'NONE', #402 ) ;
#408 = VECTOR ( 'NONE', #176, 1000.000000000000000 ) ;
#409 = ORIENTED_EDGE ( 'NONE', *, *, #302, .T. ) ;
#410 = DIRECTION ( 'NONE',  ( 0.0000000000000000000, 1.000000000000000000, 0.0000000000000000000 ) ) ;
#411 = DIRECTION ( 'NONE',  ( 0.0000000000000000000, -0.0000000000000000000, 1.000000000000000000 ) ) ;
#412 = LINE ( 'NONE', #591, #179 ) ;
#413 = LOCAL_TIME ( 17, 23, 22.00000000000000000, #427 ) ;
#414 = AXIS2_PLACEMENT_3D ( 'NONE', #396, #539, #443 ) ;
#415 = APPLICATION_PROTOCOL_DEFINITION ( 'international standard', 'config_control_design', 1994, #369 ) ;
#416 = EDGE_LOOP ( 'NONE', ( #340, #200, #561, #187 ) ) ;
#417 = EDGE_CURVE ( 'NONE', #244, #407, #457, .T. ) ;
#418 = CARTESIAN_POINT ( 'NONE',  ( 35.00000000000000000, 0.0000000000000000000, 2.999999999999634515 ) ) ;
#419 = SECURITY_CLASSIFICATION_LEVEL ( 'unclassified' ) ;
#420 = EDGE_CURVE ( 'NONE', #486, #81, #541, .T. ) ;
#421 = FACE_OUTER_BOUND ( 'NONE', #256, .T. ) ;
#422 = DIRECTION ( 'NONE',  ( 0.0000000000000000000, 0.0000000000000000000, 1.000000000000000000 ) ) ;
#423 = EDGE_LOOP ( 'NONE', ( #351, #460, #150, #361 ) ) ;
#424 = DIRECTION ( 'NONE',  ( 0.0000000000000000000, 0.0000000000000000000, 1.000000000000000000 ) ) ;
#425 = DIRECTION ( 'NONE',  ( 0.0000000000000000000, 1.000000000000000000, 0.0000000000000000000 ) ) ;
#426 = DIRECTION ( 'NONE',  ( 0.0000000000000000000, -0.0000000000000000000, 1.000000000000000000 ) ) ;
#427 = COORDINATED_UNIVERSAL_TIME_OFFSET ( 0, 0, .AHEAD. ) ;
#428 = LINE ( 'NONE', #83, #325 ) ;
#429 = LINE ( 'NONE', #191, #459 ) ;
#430 = VERTEX_POINT ( 'NONE', #36 ) ;
#431 = DIRECTION ( 'NONE',  ( 0.0000000000000000000, 0.0000000000000000000, -1.000000000000000000 ) ) ;
#432 = CARTESIAN_POINT ( 'NONE',  ( 0.0000000000000000000, 4.629999999999999893, 0.0000000000000000000 ) ) ;
#433 = DIRECTION ( 'NONE',  ( 0.0000000000000000000, 0.0000000000000000000, -1.000000000000000000 ) ) ;
#434 = AXIS2_PLACEMENT_3D ( 'NONE', #558, #506, #363 ) ;
#435 = DIRECTION ( 'NONE',  ( 0.0000000000000000000, 0.0000000000000000000, 1.000000000000000000 ) ) ;
#436 = CIRCLE ( 'NONE', #548, 15.00000000000000000 ) ;
#437 = ORIENTED_EDGE ( 'NONE', *, *, #160, .F. ) ;
#438 = EDGE_CURVE ( 'NONE', #188, #299, #95, .T. ) ;
#439 = DIRECTION ( 'NONE',  ( 0.0000000000000000000, 0.0000000000000000000, 1.000000000000000000 ) ) ;
#440 = LINE ( 'NONE', #317, #164 ) ;
#441 = APPROVAL_DATE_TIME ( #2, #295 ) ;
#442 = ORIENTED_EDGE ( 'NONE', *, *, #5, .F. ) ;
#443 = DIRECTION ( 'NONE',  ( 0.0000000000000000000, 0.0000000000000000000, 1.000000000000000000 ) ) ;
#444 = ORIENTED_EDGE ( 'NONE', *, *, #383, .F. ) ;
#445 = DIRECTION ( 'NONE',  ( 0.0000000000000000000, 0.0000000000000000000, 1.000000000000000000 ) ) ;
#446 = AXIS2_PLACEMENT_3D ( 'NONE', #483, #534, #439 ) ;
#447 = EDGE_CURVE ( 'NONE', #151, #224, #412, .T. ) ;
#448 = DIRECTION ( 'NONE',  ( -1.000000000000000000, 0.0000000000000000000, 1.047444401652939060E-14 ) ) ;
#449 = PRODUCT ( 'Slipring_joint_bredbiard_joint', 'Slipring_joint_bredbiard_joint', '', ( #556 ) ) ;
#450 = EDGE_CURVE ( 'NONE', #252, #171, #440, .T. ) ;
#451 = CIRCLE ( 'NONE', #303, 2.000000000000001776 ) ;
#452 = EDGE_LOOP ( 'NONE', ( #54, #137 ) ) ;
#453 = CARTESIAN_POINT ( 'NONE',  ( 19.50000000000000000, 0.0000000000000000000, -2.000000000000205169 ) ) ;
#454 = DIRECTION ( 'NONE',  ( 0.0000000000000000000, 0.0000000000000000000, 1.000000000000000000 ) ) ;
#455 = UNCERTAINTY_MEASURE_WITH_UNIT (LENGTH_MEASURE( 1.000000000000000082E-05 ), #232, 'distance_accuracy_value', 'NONE');
#456 = EDGE_CURVE ( 'NONE', #252, #244, #68, .T. ) ;
#457 = LINE ( 'NONE', #40, #275 ) ;
#458 = CARTESIAN_POINT ( 'NONE',  ( 0.0000000000000000000, 4.629999999999999893, 0.0000000000000000000 ) ) ;
#459 = VECTOR ( 'NONE', #371, 1000.000000000000000 ) ;
#460 = ORIENTED_EDGE ( 'NONE', *, *, #388, .T. ) ;
#461 = CARTESIAN_POINT ( 'NONE',  ( 2.449293598294706907E-16, 4.629999999999999893, -21.50000000000000000 ) ) ;
#462 = CC_DESIGN_PERSON_AND_ORGANIZATION_ASSIGNMENT ( #384, #52, ( #129 ) ) ;
#463 = DIRECTION ( 'NONE',  ( 0.0000000000000000000, 0.0000000000000000000, 1.000000000000000000 ) ) ;
#464 = LINE ( 'NONE', #418, #480 ) ;
#465 = APPROVAL ( #278, 'UNSPECIFIED' ) ;
#466 = ORIENTED_EDGE ( 'NONE', *, *, #420, .T. ) ;
#467 = CARTESIAN_POINT ( 'NONE',  ( 10.34499061794181962, 4.629999999999999893, 10.86191369486499880 ) ) ;
#468 = CARTESIAN_POINT ( 'NONE',  ( 0.0000000000000000000, 4.629999999999999893, -15.00000000000000000 ) ) ;
#469 = EDGE_CURVE ( 'NONE', #188, #180, #45, .T. ) ;
#470 = DIRECTION ( 'NONE',  ( -0.7071067811865515695, 0.0000000000000000000, -0.7071067811865435759 ) ) ;
#471 = CYLINDRICAL_SURFACE ( 'NONE', #508, 15.00000000000000000 ) ;
#472 = APPROVAL_PERSON_ORGANIZATION ( #576, #158, #226 ) ;
#473 = EDGE_LOOP ( 'NONE', ( #401, #306, #578, #165 ) ) ;
#474 = EDGE_LOOP ( 'NONE', ( #364, #409, #202, #47 ) ) ;
#475 = VERTEX_POINT ( 'NONE', #223 ) ;
#476 = CARTESIAN_POINT ( 'NONE',  ( 19.50000000000000000, 0.0000000000000000000, 1.999999999999796607 ) ) ;
#477 = PLANE ( 'NONE',  #119 ) ;
#478 = AXIS2_PLACEMENT_3D ( 'NONE', #32, #268, #219 ) ;
#479 = CALENDAR_DATE ( 2019, 12, 12 ) ;
#480 = VECTOR ( 'NONE', #195, 1000.000000000000000 ) ;
#481 = DIRECTION ( 'NONE',  ( 0.0000000000000000000, 1.000000000000000000, 0.0000000000000000000 ) ) ;
#482 = EDGE_CURVE ( 'NONE', #245, #605, #428, .T. ) ;
#483 = CARTESIAN_POINT ( 'NONE',  ( 0.0000000000000000000, 0.0000000000000000000, -35.00000000000000000 ) ) ;
#484 = CARTESIAN_POINT ( 'NONE',  ( 35.00000000000000000, 4.629999999999999893, -3.666055405785290402E-13 ) ) ;
#485 = CIRCLE ( 'NONE', #41, 15.00000000000000000 ) ;
#486 = VERTEX_POINT ( 'NONE', #319 ) ;
#487 = VERTEX_POINT ( 'NONE', #598 ) ;
#488 = DIRECTION ( 'NONE',  ( -1.000000000000000000, 0.0000000000000000000, 1.047444401652939060E-14 ) ) ;
#489 = EDGE_CURVE ( 'NONE', #603, #299, #535, .T. ) ;
#490 = ADVANCED_FACE ( 'NONE', ( #392 ), #184, .F. ) ;
#491 = CARTESIAN_POINT ( 'NONE',  ( 35.00000000000000000, 0.0000000000000000000, -3.000000000000367262 ) ) ;
#492 = DIRECTION ( 'NONE',  ( -0.7071067811865515695, -0.0000000000000000000, -0.7071067811865435759 ) ) ;
#493 = AXIS2_PLACEMENT_3D ( 'NONE', #57, #410, #94 ) ;
#494 = CALENDAR_DATE ( 2019, 12, 12 ) ;
#495 = FACE_OUTER_BOUND ( 'NONE', #474, .T. ) ;
#496 = DIRECTION ( 'NONE',  ( -1.000000000000000000, 0.0000000000000000000, 1.047444401652939060E-14 ) ) ;
#497 = ORIENTED_EDGE ( 'NONE', *, *, #262, .F. ) ;
#498 = CLOSED_SHELL ( 'NONE', ( #352, #490, #316, #88, #259, #23, #168, #549, #213, #542, #269, #552, #85, #31, #125, #133 ) ) ;
#499 = PRODUCT_RELATED_PRODUCT_CATEGORY ( 'detail', '', ( #449 ) ) ;
#500 = DIRECTION ( 'NONE',  ( 0.0000000000000000000, 1.000000000000000000, 0.0000000000000000000 ) ) ;
#501 = EDGE_CURVE ( 'NONE', #328, #487, #337, .T. ) ;
#502 = LINE ( 'NONE', #530, #102 ) ;
#503 = ORIENTED_EDGE ( 'NONE', *, *, #336, .F. ) ;
#504 = ORIENTED_EDGE ( 'NONE', *, *, #395, .T. ) ;
#505 = CARTESIAN_POINT ( 'NONE',  ( 0.0000000000000000000, 0.0000000000000000000, -19.50000000000000000 ) ) ;
#506 = DIRECTION ( 'NONE',  ( 0.0000000000000000000, 0.0000000000000000000, 1.000000000000000000 ) ) ;
#507 = CIRCLE ( 'NONE', #493, 3.000000000000002665 ) ;
#508 = AXIS2_PLACEMENT_3D ( 'NONE', #114, #522, #433 ) ;
#509 = CARTESIAN_POINT ( 'NONE',  ( -10.86191369486511427, 4.629999999999999893, -10.34499061794169705 ) ) ;
#510 = VECTOR ( 'NONE', #149, 1000.000000000000000 ) ;
#511 = CARTESIAN_POINT ( 'NONE',  ( 0.0000000000000000000, 0.0000000000000000000, -40.00000000000000000 ) ) ;
#512 = EDGE_LOOP ( 'NONE', ( #216, #589, #64, #533 ) ) ;
#513 = DIRECTION ( 'NONE',  ( 0.0000000000000000000, 0.0000000000000000000, -1.000000000000000000 ) ) ;
#514 = EDGE_CURVE ( 'NONE', #180, #603, #80, .T. ) ;
#515 = DIRECTION ( 'NONE',  ( 0.7071067811865435759, 0.0000000000000000000, -0.7071067811865515695 ) ) ;
#516 = ORIENTED_EDGE ( 'NONE', *, *, #514, .T. ) ;
#517 = VECTOR ( 'NONE', #492, 1000.000000000000000 ) ;
#518 = EDGE_LOOP ( 'NONE', ( #156, #266, #157, #217 ) ) ;
#519 = DIRECTION ( 'NONE',  ( 0.0000000000000000000, 0.0000000000000000000, -1.000000000000000000 ) ) ;
#520 = DIRECTION ( 'NONE',  ( 0.0000000000000000000, 1.000000000000000000, 0.0000000000000000000 ) ) ;
#521 = AXIS2_PLACEMENT_3D ( 'NONE', #104, #101, #519 ) ;
#522 = DIRECTION ( 'NONE',  ( -0.0000000000000000000, -1.000000000000000000, -0.0000000000000000000 ) ) ;
#523 = PERSON_AND_ORGANIZATION ( #139, #51 ) ;
#524 = CARTESIAN_POINT ( 'NONE',  ( 19.50000000000000000, 4.629999999999999893, -2.042516583223233202E-13 ) ) ;
#525 = CYLINDRICAL_SURFACE ( 'NONE', #22, 15.00000000000000000 ) ;
#526 = CYLINDRICAL_SURFACE ( 'NONE', #190, 40.00000000000000000 ) ;
#527 = ORIENTED_EDGE ( 'NONE', *, *, #242, .F. ) ;
#528 = AXIS2_PLACEMENT_3D ( 'NONE', #21, #583, #78 ) ;
#529 = DIRECTION ( 'NONE',  ( -0.0000000000000000000, -1.000000000000000000, -0.0000000000000000000 ) ) ;
#530 = CARTESIAN_POINT ( 'NONE',  ( -28.54155185110508341, 0.0000000000000000000, -28.02462877418146547 ) ) ;
#531 = CARTESIAN_POINT ( 'NONE',  ( 35.00000000000000000, 4.629999999999999893, 2.999999999999634515 ) ) ;
#532 = VECTOR ( 'NONE', #237, 1000.000000000000000 ) ;
#533 = ORIENTED_EDGE ( 'NONE', *, *, #277, .T. ) ;
#534 = DIRECTION ( 'NONE',  ( 0.0000000000000000000, 1.000000000000000000, 0.0000000000000000000 ) ) ;
#535 = CIRCLE ( 'NONE', #73, 2.000000000000001776 ) ;
#536 = EDGE_CURVE ( 'NONE', #605, #475, #290, .T. ) ;
#537 = EDGE_LOOP ( 'NONE', ( #298, #123 ) ) ;
#538 = DIRECTION ( 'NONE',  ( 0.0000000000000000000, 1.000000000000000000, 0.0000000000000000000 ) ) ;
#539 = DIRECTION ( 'NONE',  ( 0.0000000000000000000, 1.000000000000000000, 0.0000000000000000000 ) ) ;
#540 = PERSON_AND_ORGANIZATION ( #139, #51 ) ;
#541 = LINE ( 'NONE', #397, #214 ) ;
#542 = ADVANCED_FACE ( 'NONE', ( #143 ), #525, .F. ) ;
#543 = DATE_AND_TIME ( #494, #413 ) ;
#544 = FACE_OUTER_BOUND ( 'NONE', #393, .T. ) ;
#545 = ORIENTED_EDGE ( 'NONE', *, *, #206, .T. ) ;
#546 = ADVANCED_BREP_SHAPE_REPRESENTATION ( 'Slipring_joint_bredbiard_joint', ( #574, #434 ), #342 ) ;
#547 = DIRECTION ( 'NONE',  ( -0.0000000000000000000, 1.000000000000000000, -0.0000000000000000000 ) ) ;
#548 = AXIS2_PLACEMENT_3D ( 'NONE', #75, #538, #258 ) ;
#549 = ADVANCED_FACE ( 'NONE', ( #63, #585, #296, #113, #312 ), #562, .F. ) ;
#550 = EDGE_CURVE ( 'NONE', #38, #194, #507, .T. ) ;
#551 = DIRECTION ( 'NONE',  ( -0.7071067811865515695, -0.0000000000000000000, -0.7071067811865435759 ) ) ;
#552 = ADVANCED_FACE ( 'NONE', ( #96 ), #559, .F. ) ;
#553 = FACE_BOUND ( 'NONE', #289, .T. ) ;
#554 = DIRECTION ( 'NONE',  ( 0.0000000000000000000, 0.0000000000000000000, 1.000000000000000000 ) ) ;
#555 = ORIENTED_EDGE ( 'NONE', *, *, #489, .T. ) ;
#556 = MECHANICAL_CONTEXT ( 'NONE', #369, 'mechanical' ) ;
#557 = AXIS2_PLACEMENT_3D ( 'NONE', #61, #515, #470 ) ;
#558 = CARTESIAN_POINT ( 'NONE',  ( 0.0000000000000000000, 0.0000000000000000000, 0.0000000000000000000 ) ) ;
#559 = CYLINDRICAL_SURFACE ( 'NONE', #58, 2.000000000000001776 ) ;
#560 = VECTOR ( 'NONE', #220, 1000.000000000000000 ) ;
#561 = ORIENTED_EDGE ( 'NONE', *, *, #447, .T. ) ;
#562 = PLANE ( 'NONE',  #592 ) ;
#563 = ORIENTED_EDGE ( 'NONE', *, *, #438, .F. ) ;
#564 = ORIENTED_EDGE ( 'NONE', *, *, #514, .F. ) ;
#565 = DATE_TIME_ROLE ( 'creation_date' ) ;
#566 = AXIS2_PLACEMENT_3D ( 'NONE', #30, #345, #435 ) ;
#567 = CARTESIAN_POINT ( 'NONE',  ( 19.50000000000000000, 0.0000000000000000000, -2.042516583223233202E-13 ) ) ;
#568 = DIRECTION ( 'NONE',  ( -0.0000000000000000000, 1.000000000000000000, -0.0000000000000000000 ) ) ;
#569 = CIRCLE ( 'NONE', #399, 40.00000000000000000 ) ;
#570 = ORIENTED_EDGE ( 'NONE', *, *, #93, .T. ) ;
#571 = ORIENTED_EDGE ( 'NONE', *, *, #376, .T. ) ;
#572 = EDGE_CURVE ( 'NONE', #299, #603, #185, .T. ) ;
#573 = CARTESIAN_POINT ( 'NONE',  ( 0.0000000000000000000, 0.0000000000000000000, -32.00000000000000000 ) ) ;
#574 = MANIFOLD_SOLID_BREP ( 'Cut-Extrude2', #498 ) ;
#575 = VECTOR ( 'NONE', #403, 1000.000000000000000 ) ;
#576 = PERSON_AND_ORGANIZATION ( #139, #51 ) ;
#577 = EDGE_LOOP ( 'NONE', ( #10, #257, #327, #527 ) ) ;
#578 = ORIENTED_EDGE ( 'NONE', *, *, #456, .F. ) ;
#579 = AXIS2_PLACEMENT_3D ( 'NONE', #335, #568, #422 ) ;
#580 = CYLINDRICAL_SURFACE ( 'NONE', #566, 3.000000000000000888 ) ;
#581 = VERTEX_POINT ( 'NONE', #183 ) ;
#582 = ORIENTED_EDGE ( 'NONE', *, *, #417, .T. ) ;
#583 = DIRECTION ( 'NONE',  ( 0.0000000000000000000, 1.000000000000000000, 0.0000000000000000000 ) ) ;
#584 = CARTESIAN_POINT ( 'NONE',  ( 0.0000000000000000000, 0.0000000000000000000, -19.50000000000000000 ) ) ;
#585 = FACE_BOUND ( 'NONE', #537, .T. ) ;
#586 = ORIENTED_EDGE ( 'NONE', *, *, #450, .F. ) ;
#587 = CARTESIAN_POINT ( 'NONE',  ( 19.50000000000000000, 0.0000000000000000000, -2.042516583223233202E-13 ) ) ;
#588 = AXIS2_PLACEMENT_3D ( 'NONE', #567, #334, #463 ) ;
#589 = ORIENTED_EDGE ( 'NONE', *, *, #550, .F. ) ;
#590 = AXIS2_PLACEMENT_3D ( 'NONE', #341, #520, #153 ) ;
#591 = CARTESIAN_POINT ( 'NONE',  ( 19.50000000000000000, 0.0000000000000000000, 1.999999999999796607 ) ) ;
#592 = AXIS2_PLACEMENT_3D ( 'NONE', #145, #279, #411 ) ;
#593 = CARTESIAN_POINT ( 'NONE',  ( 35.00000000000000000, 0.0000000000000000000, -3.666055405785290402E-13 ) ) ;
#594 = CIRCLE ( 'NONE', #414, 3.000000000000002665 ) ;
#595 = EDGE_LOOP ( 'NONE', ( #172, #283 ) ) ;
#596 = DIRECTION ( 'NONE',  ( 0.0000000000000000000, 1.000000000000000000, 0.0000000000000000000 ) ) ;
#597 = AXIS2_PLACEMENT_3D ( 'NONE', #584, #24, #124 ) ;
#598 = CARTESIAN_POINT ( 'NONE',  ( 19.50000000000000000, 4.629999999999999893, -2.000000000000205169 ) ) ;
#599 = AXIS2_PLACEMENT_3D ( 'NONE', #367, #6, #196 ) ;
#600 =( NAMED_UNIT ( * ) SI_UNIT ( $, .STERADIAN. ) SOLID_ANGLE_UNIT ( ) );
#601 = PERSON_AND_ORGANIZATION_ROLE ( 'creator' ) ;
#602 = CALENDAR_DATE ( 2019, 12, 12 ) ;
#603 = VERTEX_POINT ( 'NONE', #461 ) ;
#604 = EDGE_LOOP ( 'NONE', ( #564, #203, #350, #186 ) ) ;
#605 = VERTEX_POINT ( 'NONE', #509 ) ;
#606 = CARTESIAN_POINT ( 'NONE',  ( 0.0000000000000000000, 4.629999999999999893, -19.50000000000000000 ) ) ;
#607 = AXIS2_PLACEMENT_3D ( 'NONE', #606, #141, #228 ) ;
ENDSEC;
END-ISO-10303-21;
