ISO-10303-21;
HEADER;
FILE_DESCRIPTION (( 'STEP AP203' ),
    '1' );
FILE_NAME ('Separator PMMA.STEP',
    '2019-12-12T17:25:40',
    ( '' ),
    ( '' ),
    'SwSTEP 2.0',
    'SolidWorks 2018',
    '' );
FILE_SCHEMA (( 'CONFIG_CONTROL_DESIGN' ));
ENDSEC;

DATA;
#1 = CARTESIAN_POINT ( 'NONE',  ( -2.618611004132350143E-13, -3.000000000000000000, -75.00000000000000000 ) ) ;
#2 = EDGE_CURVE ( 'NONE', #94, #733, #239, .T. ) ;
#3 = ADVANCED_FACE ( 'NONE', ( #35 ), #672, .F. ) ;
#4 = VECTOR ( 'NONE', #243, 1000.000000000000000 ) ;
#5 = DIRECTION ( 'NONE',  ( 0.0000000000000000000, 1.000000000000000000, 0.0000000000000000000 ) ) ;
#6 = ORIENTED_EDGE ( 'NONE', *, *, #120, .F. ) ;
#7 = CARTESIAN_POINT ( 'NONE',  ( -2.614937063734907836E-13, 7.000000000000000000, -78.00000000000000000 ) ) ;
#8 = ORIENTED_EDGE ( 'NONE', *, *, #717, .T. ) ;
#9 = VERTEX_POINT ( 'NONE', #266 ) ;
#10 = ADVANCED_FACE ( 'NONE', ( #425 ), #777, .F. ) ;
#11 = DIRECTION ( 'NONE',  ( 0.0000000000000000000, 0.0000000000000000000, 1.000000000000000000 ) ) ;
#12 = PLANE ( 'NONE',  #723 ) ;
#13 = AXIS2_PLACEMENT_3D ( 'NONE', #76, #336, #780 ) ;
#14 = DIRECTION ( 'NONE',  ( 0.0000000000000000000, 0.0000000000000000000, 1.000000000000000000 ) ) ;
#15 = FACE_OUTER_BOUND ( 'NONE', #218, .T. ) ;
#16 = DIRECTION ( 'NONE',  ( -0.0000000000000000000, -1.000000000000000000, -0.0000000000000000000 ) ) ;
#17 = VECTOR ( 'NONE', #197, 1000.000000000000000 ) ;
#18 = CARTESIAN_POINT ( 'NONE',  ( -53.03300858899134340, 7.000000000000000000, -56.03300858899079628 ) ) ;
#19 = AXIS2_PLACEMENT_3D ( 'NONE', #273, #725, #404 ) ;
#20 = CYLINDRICAL_SURFACE ( 'NONE', #289, 3.000000000000009770 ) ;
#21 = ORIENTED_EDGE ( 'NONE', *, *, #705, .T. ) ;
#22 = EDGE_LOOP ( 'NONE', ( #750, #82, #646, #462 ) ) ;
#23 = DIRECTION ( 'NONE',  ( 0.7071067811865487940, 0.0000000000000000000, 0.7071067811865463515 ) ) ;
#24 = CARTESIAN_POINT ( 'NONE',  ( 7.855833012397049923E-13, -3.000000000000000000, 75.00000000000000000 ) ) ;
#25 = CARTESIAN_POINT ( 'NONE',  ( -53.03300858899134340, -3.000000000000000000, -53.03300858899078918 ) ) ;
#26 = EDGE_CURVE ( 'NONE', #251, #473, #70, .T. ) ;
#27 = DIRECTION ( 'NONE',  ( 0.0000000000000000000, 0.0000000000000000000, 1.000000000000000000 ) ) ;
#28 = DIRECTION ( 'NONE',  ( 0.0000000000000000000, 1.000000000000000000, -0.0000000000000000000 ) ) ;
#29 = CARTESIAN_POINT ( 'NONE',  ( -53.03300858899059733, 0.0000000000000000000, 56.03300858899152814 ) ) ;
#30 = SHAPE_DEFINITION_REPRESENTATION ( #561, #498 ) ;
#31 = DIRECTION ( 'NONE',  ( 0.0000000000000000000, 1.000000000000000000, 0.0000000000000000000 ) ) ;
#32 = LINE ( 'NONE', #698, #748 ) ;
#33 = AXIS2_PLACEMENT_3D ( 'NONE', #786, #543, #23 ) ;
#34 = VERTEX_POINT ( 'NONE', #619 ) ;
#35 = FACE_OUTER_BOUND ( 'NONE', #831, .T. ) ;
#36 = ORIENTED_EDGE ( 'NONE', *, *, #681, .F. ) ;
#37 = CARTESIAN_POINT ( 'NONE',  ( 53.03300858899097392, -3.000000000000000000, -53.03300858899115866 ) ) ;
#38 = EDGE_CURVE ( 'NONE', #474, #284, #319, .T. ) ;
#39 = CYLINDRICAL_SURFACE ( 'NONE', #143, 3.000000000000009770 ) ;
#40 = DIRECTION ( 'NONE',  ( 0.0000000000000000000, 1.000000000000000000, -0.0000000000000000000 ) ) ;
#41 = FACE_BOUND ( 'NONE', #346, .T. ) ;
#42 = CIRCLE ( 'NONE', #74, 3.000000000000003997 ) ;
#43 = DIRECTION ( 'NONE',  ( 1.000000000000000000, 0.0000000000000000000, 0.0000000000000000000 ) ) ;
#44 = ORIENTED_EDGE ( 'NONE', *, *, #832, .F. ) ;
#45 = EDGE_LOOP ( 'NONE', ( #430, #819, #618, #534 ) ) ;
#46 = APPROVAL ( #689, 'UNSPECIFIED' ) ;
#47 = ORIENTED_EDGE ( 'NONE', *, *, #759, .F. ) ;
#48 = CARTESIAN_POINT ( 'NONE',  ( 53.03300858899097392, 7.000000000000000000, -50.03300858899115156 ) ) ;
#49 = APPROVAL_ROLE ( '' ) ;
#50 = AXIS2_PLACEMENT_3D ( 'NONE', #174, #240, #309 ) ;
#51 = FACE_OUTER_BOUND ( 'NONE', #189, .T. ) ;
#52 = CARTESIAN_POINT ( 'NONE',  ( -53.03300858899059733, 0.0000000000000000000, 53.03300858899152104 ) ) ;
#53 = ORIENTED_EDGE ( 'NONE', *, *, #38, .T. ) ;
#54 = EDGE_LOOP ( 'NONE', ( #393, #130 ) ) ;
#55 = EDGE_CURVE ( 'NONE', #232, #758, #217, .T. ) ;
#56 = EDGE_LOOP ( 'NONE', ( #585, #719, #837, #665 ) ) ;
#57 = DIRECTION ( 'NONE',  ( 0.0000000000000000000, 1.000000000000000000, 0.0000000000000000000 ) ) ;
#58 = AXIS2_PLACEMENT_3D ( 'NONE', #24, #278, #27 ) ;
#59 = CYLINDRICAL_SURFACE ( 'NONE', #85, 3.000000000000002665 ) ;
#60 = CYLINDRICAL_SURFACE ( 'NONE', #370, 37.50000000000000711 ) ;
#61 = CYLINDRICAL_SURFACE ( 'NONE', #731, 82.50000000000000000 ) ;
#62 = ORIENTED_EDGE ( 'NONE', *, *, #451, .F. ) ;
#63 = VERTEX_POINT ( 'NONE', #7 ) ;
#64 = AXIS2_PLACEMENT_3D ( 'NONE', #245, #384, #519 ) ;
#65 = ADVANCED_FACE ( 'NONE', ( #739 ), #147, .F. ) ;
#66 = DIRECTION ( 'NONE',  ( 0.0000000000000000000, 1.000000000000000000, 0.0000000000000000000 ) ) ;
#67 = DIRECTION ( 'NONE',  ( 0.0000000000000000000, 0.0000000000000000000, 1.000000000000000000 ) ) ;
#68 = EDGE_CURVE ( 'NONE', #768, #594, #482, .T. ) ;
#69 = DIRECTION ( 'NONE',  ( -0.0000000000000000000, 1.000000000000000000, -0.0000000000000000000 ) ) ;
#70 = CIRCLE ( 'NONE', #771, 37.50000000000000711 ) ;
#71 = ORIENTED_EDGE ( 'NONE', *, *, #408, .T. ) ;
#72 = ORIENTED_EDGE ( 'NONE', *, *, #151, .T. ) ;
#73 = DIRECTION ( 'NONE',  ( 0.0000000000000000000, 0.0000000000000000000, 1.000000000000000000 ) ) ;
#74 = AXIS2_PLACEMENT_3D ( 'NONE', #450, #374, #371 ) ;
#75 = DIRECTION ( 'NONE',  ( 0.0000000000000000000, 0.0000000000000000000, 1.000000000000000000 ) ) ;
#76 = CARTESIAN_POINT ( 'NONE',  ( 0.0000000000000000000, 7.000000000000000000, 0.0000000000000000000 ) ) ;
#77 = EDGE_CURVE ( 'NONE', #473, #251, #654, .T. ) ;
#78 = CALENDAR_DATE ( 2019, 12, 12 ) ;
#79 = CIRCLE ( 'NONE', #400, 3.000000000000003997 ) ;
#80 = CARTESIAN_POINT ( 'NONE',  ( -75.00000000000000000, 7.000000000000000000, 0.0000000000000000000 ) ) ;
#81 = FACE_BOUND ( 'NONE', #836, .T. ) ;
#82 = ORIENTED_EDGE ( 'NONE', *, *, #610, .T. ) ;
#83 = VERTEX_POINT ( 'NONE', #722 ) ;
#84 = DIRECTION ( 'NONE',  ( 0.0000000000000000000, 0.0000000000000000000, -1.000000000000000000 ) ) ;
#85 = AXIS2_PLACEMENT_3D ( 'NONE', #441, #571, #224 ) ;
#86 = CARTESIAN_POINT ( 'NONE',  ( 0.0000000000000000000, 7.000000000000000000, 0.0000000000000000000 ) ) ;
#87 = DIRECTION ( 'NONE',  ( 0.0000000000000000000, 0.0000000000000000000, 1.000000000000000000 ) ) ;
#88 = FACE_BOUND ( 'NONE', #111, .T. ) ;
#89 = DIRECTION ( 'NONE',  ( -0.0000000000000000000, -1.000000000000000000, -0.0000000000000000000 ) ) ;
#90 = AXIS2_PLACEMENT_3D ( 'NONE', #622, #216, #431 ) ;
#91 = FACE_OUTER_BOUND ( 'NONE', #56, .T. ) ;
#92 = ORIENTED_EDGE ( 'NONE', *, *, #552, .F. ) ;
#93 = DIRECTION ( 'NONE',  ( -0.0000000000000000000, 1.000000000000000000, -0.0000000000000000000 ) ) ;
#94 = VERTEX_POINT ( 'NONE', #410 ) ;
#95 = DIRECTION ( 'NONE',  ( -0.0000000000000000000, 1.000000000000000000, -0.0000000000000000000 ) ) ;
#96 = LOCAL_TIME ( 17, 25, 40.00000000000000000, #522 ) ;
#97 = SECURITY_CLASSIFICATION_LEVEL ( 'unclassified' ) ;
#98 = VECTOR ( 'NONE', #327, 1000.000000000000000 ) ;
#99 = EDGE_LOOP ( 'NONE', ( #567, #356, #546, #157 ) ) ;
#100 = VERTEX_POINT ( 'NONE', #135 ) ;
#101 = DIRECTION ( 'NONE',  ( 0.0000000000000000000, 0.0000000000000000000, 1.000000000000000000 ) ) ;
#102 = APPLICATION_PROTOCOL_DEFINITION ( 'international standard', 'config_control_design', 1994, #744 ) ;
#103 = AXIS2_PLACEMENT_3D ( 'NONE', #524, #588, #193 ) ;
#104 = CARTESIAN_POINT ( 'NONE',  ( 53.03300858899170578, 7.000000000000000000, 53.03300858899041970 ) ) ;
#105 = CARTESIAN_POINT ( 'NONE',  ( 0.0000000000000000000, 0.0000000000000000000, 0.0000000000000000000 ) ) ;
#106 = DIRECTION ( 'NONE',  ( -0.0000000000000000000, 1.000000000000000000, -0.0000000000000000000 ) ) ;
#107 = VECTOR ( 'NONE', #658, 1000.000000000000000 ) ;
#108 = LINE ( 'NONE', #636, #4 ) ;
#109 = EDGE_CURVE ( 'NONE', #406, #9, #300, .T. ) ;
#110 = DIRECTION ( 'NONE',  ( 0.0000000000000000000, 0.0000000000000000000, 1.000000000000000000 ) ) ;
#111 = EDGE_LOOP ( 'NONE', ( #838, #118 ) ) ;
#112 = VERTEX_POINT ( 'NONE', #609 ) ;
#113 = ORIENTED_EDGE ( 'NONE', *, *, #820, .F. ) ;
#114 = DIRECTION ( 'NONE',  ( 0.0000000000000000000, 0.0000000000000000000, 1.000000000000000000 ) ) ;
#115 = AXIS2_PLACEMENT_3D ( 'NONE', #593, #833, #706 ) ;
#116 = CARTESIAN_POINT ( 'NONE',  ( -53.03300858899134340, 0.0000000000000000000, -56.03300858899079628 ) ) ;
#117 = CIRCLE ( 'NONE', #33, 3.000000000000003997 ) ;
#118 = ORIENTED_EDGE ( 'NONE', *, *, #792, .T. ) ;
#119 = EDGE_LOOP ( 'NONE', ( #676, #368 ) ) ;
#120 = EDGE_CURVE ( 'NONE', #9, #406, #616, .T. ) ;
#121 = EDGE_LOOP ( 'NONE', ( #812, #579, #230, #674 ) ) ;
#122 = ADVANCED_FACE ( 'NONE', ( #565, #401, #127, #391, #258, #729, #817, #798, #695, #81 ), #12, .T. ) ;
#123 = DIRECTION ( 'NONE',  ( 0.0000000000000000000, 0.0000000000000000000, 1.000000000000000000 ) ) ;
#124 = ADVANCED_FACE ( 'NONE', ( #51 ), #503, .F. ) ;
#125 = CARTESIAN_POINT ( 'NONE',  ( 7.859506952794491725E-13, 7.000000000000000000, 72.00000000000000000 ) ) ;
#126 = VECTOR ( 'NONE', #531, 1000.000000000000000 ) ;
#127 = FACE_BOUND ( 'NONE', #525, .T. ) ;
#128 = ADVANCED_FACE ( 'NONE', ( #635 ), #196, .T. ) ;
#129 = DIRECTION ( 'NONE',  ( 0.0000000000000000000, 1.000000000000000000, 0.0000000000000000000 ) ) ;
#130 = ORIENTED_EDGE ( 'NONE', *, *, #194, .F. ) ;
#131 = VERTEX_POINT ( 'NONE', #18 ) ;
#132 = AXIS2_PLACEMENT_3D ( 'NONE', #37, #491, #347 ) ;
#133 = DIRECTION ( 'NONE',  ( 0.0000000000000000000, 1.000000000000000000, 0.0000000000000000000 ) ) ;
#134 = EDGE_CURVE ( 'NONE', #710, #767, #685, .T. ) ;
#135 = CARTESIAN_POINT ( 'NONE',  ( 53.03300858899097392, 7.000000000000000000, -56.03300858899117287 ) ) ;
#136 = EDGE_LOOP ( 'NONE', ( #301, #44 ) ) ;
#137 = ORIENTED_EDGE ( 'NONE', *, *, #640, .F. ) ;
#138 = ORIENTED_EDGE ( 'NONE', *, *, #832, .T. ) ;
#139 = CARTESIAN_POINT ( 'NONE',  ( -53.03300858899059733, -3.000000000000000000, 50.03300858899151393 ) ) ;
#140 = DIRECTION ( 'NONE',  ( 0.0000000000000000000, 1.000000000000000000, 0.0000000000000000000 ) ) ;
#141 = CARTESIAN_POINT ( 'NONE',  ( 0.0000000000000000000, 0.0000000000000000000, 0.0000000000000000000 ) ) ;
#142 = DIRECTION ( 'NONE',  ( 0.0000000000000000000, 0.0000000000000000000, -1.000000000000000000 ) ) ;
#143 = AXIS2_PLACEMENT_3D ( 'NONE', #559, #484, #288 ) ;
#144 = CARTESIAN_POINT ( 'NONE',  ( 53.03300858899170578, 0.0000000000000000000, 53.03300858899041970 ) ) ;
#145 = VECTOR ( 'NONE', #187, 1000.000000000000000 ) ;
#146 = DIRECTION ( 'NONE',  ( 0.0000000000000000000, -0.0000000000000000000, 1.000000000000000000 ) ) ;
#147 = CYLINDRICAL_SURFACE ( 'NONE', #560, 3.000000000000002665 ) ;
#148 = DIRECTION ( 'NONE',  ( 0.0000000000000000000, -0.0000000000000000000, 1.000000000000000000 ) ) ;
#149 = VERTEX_POINT ( 'NONE', #442 ) ;
#150 = ORIENTED_EDGE ( 'NONE', *, *, #736, .F. ) ;
#151 = EDGE_CURVE ( 'NONE', #83, #419, #249, .T. ) ;
#152 = APPROVAL ( #497, 'UNSPECIFIED' ) ;
#153 = DIRECTION ( 'NONE',  ( 0.0000000000000000000, 1.000000000000000000, 0.0000000000000000000 ) ) ;
#154 = VECTOR ( 'NONE', #93, 1000.000000000000000 ) ;
#155 = AXIS2_PLACEMENT_3D ( 'NONE', #86, #89, #142 ) ;
#156 = FACE_OUTER_BOUND ( 'NONE', #656, .T. ) ;
#157 = ORIENTED_EDGE ( 'NONE', *, *, #237, .T. ) ;
#158 = CARTESIAN_POINT ( 'NONE',  ( 53.03300858899170578, 0.0000000000000000000, 53.03300858899041970 ) ) ;
#159 = EDGE_LOOP ( 'NONE', ( #455, #547, #294, #555 ) ) ;
#160 = ORIENTED_EDGE ( 'NONE', *, *, #296, .F. ) ;
#161 = DIRECTION ( 'NONE',  ( -1.000000000000000000, 0.0000000000000000000, 9.251858538542946978E-15 ) ) ;
#162 = EDGE_CURVE ( 'NONE', #322, #793, #554, .T. ) ;
#163 = DIRECTION ( 'NONE',  ( 0.0000000000000000000, 1.000000000000000000, 0.0000000000000000000 ) ) ;
#164 = CIRCLE ( 'NONE', #763, 3.000000000000007994 ) ;
#165 = DIRECTION ( 'NONE',  ( 0.0000000000000000000, 1.000000000000000000, 0.0000000000000000000 ) ) ;
#166 = CIRCLE ( 'NONE', #422, 3.000000000000007994 ) ;
#167 = CC_DESIGN_PERSON_AND_ORGANIZATION_ASSIGNMENT ( #600, #359, ( #373 ) ) ;
#168 = LINE ( 'NONE', #761, #756 ) ;
#169 = ORIENTED_EDGE ( 'NONE', *, *, #408, .F. ) ;
#170 = ORIENTED_EDGE ( 'NONE', *, *, #655, .T. ) ;
#171 = CARTESIAN_POINT ( 'NONE',  ( 7.855833012397049923E-13, 7.000000000000000000, 75.00000000000000000 ) ) ;
#172 = DIRECTION ( 'NONE',  ( -0.7071067811865544561, 0.0000000000000000000, -0.7071067811865405783 ) ) ;
#173 = AXIS2_PLACEMENT_3D ( 'NONE', #737, #349, #110 ) ;
#174 = CARTESIAN_POINT ( 'NONE',  ( 75.00000000000000000, -3.000000000000000000, 0.0000000000000000000 ) ) ;
#175 = CARTESIAN_POINT ( 'NONE',  ( 0.0000000000000000000, 7.000000000000000000, 0.0000000000000000000 ) ) ;
#176 = APPROVAL_PERSON_ORGANIZATION ( #562, #46, #49 ) ;
#177 = CIRCLE ( 'NONE', #64, 3.000000000000007994 ) ;
#178 = EDGE_CURVE ( 'NONE', #704, #83, #461, .T. ) ;
#179 = ORIENTED_EDGE ( 'NONE', *, *, #426, .T. ) ;
#180 = CARTESIAN_POINT ( 'NONE',  ( -2.618611004132350143E-13, -3.000000000000000000, -72.00000000000000000 ) ) ;
#181 = ORIENTED_EDGE ( 'NONE', *, *, #68, .T. ) ;
#182 = CARTESIAN_POINT ( 'NONE',  ( -53.03300858899059733, 7.000000000000000000, 50.03300858899151393 ) ) ;
#183 = ADVANCED_FACE ( 'NONE', ( #91 ), #584, .F. ) ;
#184 = DIRECTION ( 'NONE',  ( 1.000000000000000000, 0.0000000000000000000, -4.625929269271473489E-15 ) ) ;
#185 = VECTOR ( 'NONE', #280, 1000.000000000000000 ) ;
#186 = LINE ( 'NONE', #709, #480 ) ;
#187 = DIRECTION ( 'NONE',  ( -0.0000000000000000000, 1.000000000000000000, -0.0000000000000000000 ) ) ;
#188 = CYLINDRICAL_SURFACE ( 'NONE', #701, 3.000000000000002665 ) ;
#189 = EDGE_LOOP ( 'NONE', ( #219, #250, #454, #440 ) ) ;
#190 = AXIS2_PLACEMENT_3D ( 'NONE', #402, #16, #84 ) ;
#191 = ORIENTED_EDGE ( 'NONE', *, *, #357, .F. ) ;
#192 = ADVANCED_FACE ( 'NONE', ( #415 ), #188, .F. ) ;
#193 = DIRECTION ( 'NONE',  ( 0.0000000000000000000, 0.0000000000000000000, -1.000000000000000000 ) ) ;
#194 = EDGE_CURVE ( 'NONE', #829, #605, #437, .T. ) ;
#195 = FACE_OUTER_BOUND ( 'NONE', #99, .T. ) ;
#196 = CYLINDRICAL_SURFACE ( 'NONE', #155, 82.50000000000000000 ) ;
#197 = DIRECTION ( 'NONE',  ( 0.0000000000000000000, 1.000000000000000000, -0.0000000000000000000 ) ) ;
#198 = EDGE_LOOP ( 'NONE', ( #506, #688 ) ) ;
#199 = DIRECTION ( 'NONE',  ( -0.0000000000000000000, 1.000000000000000000, -0.0000000000000000000 ) ) ;
#200 = ORIENTED_EDGE ( 'NONE', *, *, #465, .F. ) ;
#201 = AXIS2_PLACEMENT_3D ( 'NONE', #573, #647, #509 ) ;
#202 = EDGE_CURVE ( 'NONE', #284, #321, #32, .T. ) ;
#203 = FACE_OUTER_BOUND ( 'NONE', #627, .T. ) ;
#204 = CARTESIAN_POINT ( 'NONE',  ( 0.0000000000000000000, 7.000000000000000000, 0.0000000000000000000 ) ) ;
#205 = VECTOR ( 'NONE', #541, 1000.000000000000000 ) ;
#206 = FACE_OUTER_BOUND ( 'NONE', #22, .T. ) ;
#207 = ORIENTED_EDGE ( 'NONE', *, *, #493, .F. ) ;
#208 = EDGE_LOOP ( 'NONE', ( #448, #53 ) ) ;
#209 = CARTESIAN_POINT ( 'NONE',  ( -75.00000000000000000, 0.0000000000000000000, 0.0000000000000000000 ) ) ;
#210 = EDGE_LOOP ( 'NONE', ( #160, #809 ) ) ;
#211 = DIRECTION ( 'NONE',  ( 0.0000000000000000000, 1.000000000000000000, 0.0000000000000000000 ) ) ;
#212 = CARTESIAN_POINT ( 'NONE',  ( 0.0000000000000000000, 0.0000000000000000000, 0.0000000000000000000 ) ) ;
#213 = DIRECTION ( 'NONE',  ( 0.0000000000000000000, 0.0000000000000000000, 1.000000000000000000 ) ) ;
#214 = CARTESIAN_POINT ( 'NONE',  ( -2.618611004132350143E-13, 0.0000000000000000000, -72.00000000000000000 ) ) ;
#215 = AXIS2_PLACEMENT_3D ( 'NONE', #360, #626, #364 ) ;
#216 = DIRECTION ( 'NONE',  ( 0.0000000000000000000, 1.000000000000000000, 0.0000000000000000000 ) ) ;
#217 = CIRCLE ( 'NONE', #19, 3.000000000000009770 ) ;
#218 = EDGE_LOOP ( 'NONE', ( #200, #638, #515, #429 ) ) ;
#219 = ORIENTED_EDGE ( 'NONE', *, *, #151, .F. ) ;
#220 = EDGE_LOOP ( 'NONE', ( #285, #697, #241, #358 ) ) ;
#221 = CARTESIAN_POINT ( 'NONE',  ( 75.00000000000000000, 0.0000000000000000000, -3.000000000000007994 ) ) ;
#222 = EDGE_CURVE ( 'NONE', #149, #566, #532, .T. ) ;
#223 = PRODUCT_DEFINITION ( 'UNKNOWN', '', #641, #784 ) ;
#224 = DIRECTION ( 'NONE',  ( 0.0000000000000000000, 0.0000000000000000000, 1.000000000000000000 ) ) ;
#225 = COORDINATED_UNIVERSAL_TIME_OFFSET ( 0, 0, .AHEAD. ) ;
#226 = CARTESIAN_POINT ( 'NONE',  ( 7.859506952794491725E-13, -3.000000000000000000, 72.00000000000000000 ) ) ;
#227 = CIRCLE ( 'NONE', #599, 3.000000000000007994 ) ;
#228 = CYLINDRICAL_SURFACE ( 'NONE', #201, 3.000000000000009770 ) ;
#229 = CARTESIAN_POINT ( 'NONE',  ( 75.00000000000000000, 7.000000000000000000, 0.0000000000000000000 ) ) ;
#230 = ORIENTED_EDGE ( 'NONE', *, *, #26, .F. ) ;
#231 = VERTEX_POINT ( 'NONE', #795 ) ;
#232 = VERTEX_POINT ( 'NONE', #420 ) ;
#233 = DATE_TIME_ROLE ( 'classification_date' ) ;
#234 = DIRECTION ( 'NONE',  ( 0.0000000000000000000, 0.0000000000000000000, 1.000000000000000000 ) ) ;
#235 = APPLICATION_PROTOCOL_DEFINITION ( 'international standard', 'config_control_design', 1994, #632 ) ;
#236 = DIRECTION ( 'NONE',  ( 0.0000000000000000000, 0.0000000000000000000, 1.000000000000000000 ) ) ;
#237 = EDGE_CURVE ( 'NONE', #605, #829, #283, .T. ) ;
#238 = DATE_AND_TIME ( #574, #726 ) ;
#239 = CIRCLE ( 'NONE', #623, 3.000000000000009770 ) ;
#240 = DIRECTION ( 'NONE',  ( -0.0000000000000000000, 1.000000000000000000, -0.0000000000000000000 ) ) ;
#241 = ORIENTED_EDGE ( 'NONE', *, *, #267, .T. ) ;
#242 = EDGE_LOOP ( 'NONE', ( #272, #596 ) ) ;
#243 = DIRECTION ( 'NONE',  ( 0.0000000000000000000, 1.000000000000000000, -0.0000000000000000000 ) ) ;
#244 = AXIS2_PLACEMENT_3D ( 'NONE', #320, #707, #67 ) ;
#245 = CARTESIAN_POINT ( 'NONE',  ( 7.855833012397049923E-13, 7.000000000000000000, 75.00000000000000000 ) ) ;
#246 = PERSON_AND_ORGANIZATION ( #281, #339 ) ;
#247 = LINE ( 'NONE', #472, #126 ) ;
#248 = EDGE_CURVE ( 'NONE', #758, #232, #353, .T. ) ;
#249 = LINE ( 'NONE', #226, #378 ) ;
#250 = ORIENTED_EDGE ( 'NONE', *, *, #178, .F. ) ;
#251 = VERTEX_POINT ( 'NONE', #348 ) ;
#252 = ADVANCED_FACE ( 'NONE', ( #604 ), #228, .F. ) ;
#253 = CARTESIAN_POINT ( 'NONE',  ( 53.03300858899097392, 7.000000000000000000, -53.03300858899115866 ) ) ;
#254 = CC_DESIGN_PERSON_AND_ORGANIZATION_ASSIGNMENT ( #352, #569, ( #682 ) ) ;
#255 = DIRECTION ( 'NONE',  ( -0.7071067811865544561, 0.0000000000000000000, -0.7071067811865405783 ) ) ;
#256 = FACE_BOUND ( 'NONE', #119, .T. ) ;
#257 = CARTESIAN_POINT ( 'NONE',  ( -75.00000000000000000, -3.000000000000000000, 0.0000000000000000000 ) ) ;
#258 = FACE_BOUND ( 'NONE', #136, .T. ) ;
#259 = ORIENTED_EDGE ( 'NONE', *, *, #337, .F. ) ;
#260 = AXIS2_PLACEMENT_3D ( 'NONE', #229, #163, #291 ) ;
#261 = ORIENTED_EDGE ( 'NONE', *, *, #2, .T. ) ;
#262 = ORIENTED_EDGE ( 'NONE', *, *, #134, .F. ) ;
#263 = ORIENTED_EDGE ( 'NONE', *, *, #324, .F. ) ;
#264 = DIRECTION ( 'NONE',  ( -0.0000000000000000000, 1.000000000000000000, -0.0000000000000000000 ) ) ;
#265 = ADVANCED_FACE ( 'NONE', ( #702 ), #61, .T. ) ;
#266 = CARTESIAN_POINT ( 'NONE',  ( 1.010333609296566392E-14, 7.000000000000000000, 82.50000000000000000 ) ) ;
#267 = EDGE_CURVE ( 'NONE', #446, #231, #108, .T. ) ;
#268 = CC_DESIGN_APPROVAL ( #312, ( #223 ) ) ;
#269 = DATE_AND_TIME ( #762, #96 ) ;
#270 = CIRCLE ( 'NONE', #645, 3.000000000000003997 ) ;
#271 = DIRECTION ( 'NONE',  ( 0.0000000000000000000, 1.000000000000000000, 0.0000000000000000000 ) ) ;
#272 = ORIENTED_EDGE ( 'NONE', *, *, #109, .T. ) ;
#273 = CARTESIAN_POINT ( 'NONE',  ( -53.03300858899059733, 0.0000000000000000000, 53.03300858899152104 ) ) ;
#274 = VERTEX_POINT ( 'NONE', #182 ) ;
#275 = EDGE_LOOP ( 'NONE', ( #718, #71, #696, #394 ) ) ;
#276 = DIRECTION ( 'NONE',  ( 0.0000000000000000000, 0.0000000000000000000, 1.000000000000000000 ) ) ;
#277 = DIRECTION ( 'NONE',  ( 0.0000000000000000000, 0.0000000000000000000, 1.000000000000000000 ) ) ;
#278 = DIRECTION ( 'NONE',  ( -0.0000000000000000000, 1.000000000000000000, -0.0000000000000000000 ) ) ;
#279 = AXIS2_PLACEMENT_3D ( 'NONE', #799, #424, #642 ) ;
#280 = DIRECTION ( 'NONE',  ( -0.0000000000000000000, -1.000000000000000000, -0.0000000000000000000 ) ) ;
#281 = PERSON ( 'UNSPECIFIED', 'UNSPECIFIED', 'UNSPECIFIED', ('UNSPECIFIED'), ('UNSPECIFIED'), ('UNSPECIFIED') ) ;
#282 = FACE_BOUND ( 'NONE', #369, .T. ) ;
#283 = CIRCLE ( 'NONE', #279, 3.000000000000008882 ) ;
#284 = VERTEX_POINT ( 'NONE', #511 ) ;
#285 = ORIENTED_EDGE ( 'NONE', *, *, #564, .F. ) ;
#286 = EDGE_CURVE ( 'NONE', #331, #419, #177, .T. ) ;
#287 = PLANE ( 'NONE',  #801 ) ;
#288 = DIRECTION ( 'NONE',  ( 0.0000000000000000000, 0.0000000000000000000, 1.000000000000000000 ) ) ;
#289 = AXIS2_PLACEMENT_3D ( 'NONE', #381, #106, #114 ) ;
#290 = LINE ( 'NONE', #615, #185 ) ;
#291 = DIRECTION ( 'NONE',  ( 0.0000000000000000000, 0.0000000000000000000, 1.000000000000000000 ) ) ;
#292 = LINE ( 'NONE', #607, #17 ) ;
#293 = VERTEX_POINT ( 'NONE', #116 ) ;
#294 = ORIENTED_EDGE ( 'NONE', *, *, #759, .T. ) ;
#295 = DATE_TIME_ROLE ( 'creation_date' ) ;
#296 = EDGE_CURVE ( 'NONE', #231, #131, #42, .T. ) ;
#297 = CARTESIAN_POINT ( 'NONE',  ( -53.03300858899059733, -3.000000000000000000, 53.03300858899152104 ) ) ;
#298 = CARTESIAN_POINT ( 'NONE',  ( -2.618611004132350143E-13, 7.000000000000000000, -75.00000000000000000 ) ) ;
#299 = CIRCLE ( 'NONE', #434, 82.50000000000000000 ) ;
#300 = CIRCLE ( 'NONE', #13, 82.50000000000000000 ) ;
#301 = ORIENTED_EDGE ( 'NONE', *, *, #286, .F. ) ;
#302 = ORIENTED_EDGE ( 'NONE', *, *, #439, .F. ) ;
#303 = DIRECTION ( 'NONE',  ( 0.0000000000000000000, 1.000000000000000000, 0.0000000000000000000 ) ) ;
#304 =( GEOMETRIC_REPRESENTATION_CONTEXT ( 3 ) GLOBAL_UNCERTAINTY_ASSIGNED_CONTEXT ( ( #785 ) ) GLOBAL_UNIT_ASSIGNED_CONTEXT ( ( #508, #499, #504 ) ) REPRESENTATION_CONTEXT ( 'NONE', 'WORKASPACE' ) );
#305 = CARTESIAN_POINT ( 'NONE',  ( -53.03300858899059733, 7.000000000000000000, 53.03300858899152104 ) ) ;
#306 = EDGE_CURVE ( 'NONE', #274, #703, #708, .T. ) ;
#307 = CIRCLE ( 'NONE', #215, 3.000000000000002665 ) ;
#308 = FACE_BOUND ( 'NONE', #198, .T. ) ;
#309 = DIRECTION ( 'NONE',  ( 0.0000000000000000000, 0.0000000000000000000, 1.000000000000000000 ) ) ;
#310 = ORIENTED_EDGE ( 'NONE', *, *, #581, .T. ) ;
#311 = ORIENTED_EDGE ( 'NONE', *, *, #375, .T. ) ;
#312 = APPROVAL ( #822, 'UNSPECIFIED' ) ;
#313 = ADVANCED_FACE ( 'NONE', ( #206 ), #20, .F. ) ;
#314 = CARTESIAN_POINT ( 'NONE',  ( -2.618611004132350143E-13, 7.000000000000000000, -75.00000000000000000 ) ) ;
#315 = DIRECTION ( 'NONE',  ( 0.0000000000000000000, 1.000000000000000000, 0.0000000000000000000 ) ) ;
#316 = APPROVAL_DATE_TIME ( #582, #46 ) ;
#317 = FACE_OUTER_BOUND ( 'NONE', #675, .T. ) ;
#318 = AXIS2_PLACEMENT_3D ( 'NONE', #298, #753, #818 ) ;
#319 = CIRCLE ( 'NONE', #743, 3.000000000000009770 ) ;
#320 = CARTESIAN_POINT ( 'NONE',  ( 0.0000000000000000000, 7.000000000000000000, 0.0000000000000000000 ) ) ;
#321 = VERTEX_POINT ( 'NONE', #48 ) ;
#322 = VERTEX_POINT ( 'NONE', #826 ) ;
#323 = CARTESIAN_POINT ( 'NONE',  ( 4.592425496802575156E-15, 0.0000000000000000000, 37.50000000000000711 ) ) ;
#324 = EDGE_CURVE ( 'NONE', #628, #779, #544, .T. ) ;
#325 = CC_DESIGN_PERSON_AND_ORGANIZATION_ASSIGNMENT ( #435, #438, ( #641 ) ) ;
#326 = LOCAL_TIME ( 17, 25, 40.00000000000000000, #388 ) ;
#327 = DIRECTION ( 'NONE',  ( -0.0000000000000000000, 1.000000000000000000, 0.0000000000000000000 ) ) ;
#328 = VECTOR ( 'NONE', #418, 1000.000000000000000 ) ;
#329 = DIRECTION ( 'NONE',  ( 0.0000000000000000000, 0.0000000000000000000, 1.000000000000000000 ) ) ;
#330 = AXIS2_PLACEMENT_3D ( 'NONE', #580, #57, #639 ) ;
#331 = VERTEX_POINT ( 'NONE', #514 ) ;
#332 = ORIENTED_EDGE ( 'NONE', *, *, #820, .T. ) ;
#333 = ORIENTED_EDGE ( 'NONE', *, *, #805, .T. ) ;
#334 = DIRECTION ( 'NONE',  ( 0.0000000000000000000, 0.0000000000000000000, -1.000000000000000000 ) ) ;
#335 = CARTESIAN_POINT ( 'NONE',  ( 0.0000000000000000000, 0.0000000000000000000, -82.50000000000000000 ) ) ;
#336 = DIRECTION ( 'NONE',  ( 0.0000000000000000000, 1.000000000000000000, 0.0000000000000000000 ) ) ;
#337 = EDGE_CURVE ( 'NONE', #793, #757, #366, .T. ) ;
#338 = CARTESIAN_POINT ( 'NONE',  ( 53.03300858899097392, -3.000000000000000000, -56.03300858899117287 ) ) ;
#339 = ORGANIZATION ( 'UNSPECIFIED', 'UNSPECIFIED', '' ) ;
#340 = LINE ( 'NONE', #457, #523 ) ;
#341 = DIRECTION ( 'NONE',  ( 0.0000000000000000000, 1.000000000000000000, 0.0000000000000000000 ) ) ;
#342 = VECTOR ( 'NONE', #578, 1000.000000000000000 ) ;
#343 = DIRECTION ( 'NONE',  ( 0.0000000000000000000, 0.0000000000000000000, 1.000000000000000000 ) ) ;
#344 = EDGE_LOOP ( 'NONE', ( #8, #811 ) ) ;
#345 = EDGE_LOOP ( 'NONE', ( #191, #568, #463, #311 ) ) ;
#346 = EDGE_LOOP ( 'NONE', ( #625, #354 ) ) ;
#347 = DIRECTION ( 'NONE',  ( 0.0000000000000000000, 0.0000000000000000000, 1.000000000000000000 ) ) ;
#348 = CARTESIAN_POINT ( 'NONE',  ( 0.0000000000000000000, 0.0000000000000000000, -37.50000000000000711 ) ) ;
#349 = DIRECTION ( 'NONE',  ( 0.0000000000000000000, 1.000000000000000000, 0.0000000000000000000 ) ) ;
#350 = AXIS2_PLACEMENT_3D ( 'NONE', #209, #5, #276 ) ;
#351 = DIRECTION ( 'NONE',  ( 0.0000000000000000000, 1.000000000000000000, 0.0000000000000000000 ) ) ;
#352 = PERSON_AND_ORGANIZATION ( #281, #339 ) ;
#353 = CIRCLE ( 'NONE', #678, 3.000000000000009770 ) ;
#354 = ORIENTED_EDGE ( 'NONE', *, *, #77, .T. ) ;
#355 = CARTESIAN_POINT ( 'NONE',  ( 7.855833012397049923E-13, 0.0000000000000000000, 78.00000000000000000 ) ) ;
#356 = ORIENTED_EDGE ( 'NONE', *, *, #2, .F. ) ;
#357 = EDGE_CURVE ( 'NONE', #322, #63, #168, .T. ) ;
#358 = ORIENTED_EDGE ( 'NONE', *, *, #296, .T. ) ;
#359 = PERSON_AND_ORGANIZATION_ROLE ( 'design_owner' ) ;
#360 = CARTESIAN_POINT ( 'NONE',  ( -2.618611004132350143E-13, 0.0000000000000000000, -75.00000000000000000 ) ) ;
#361 = CC_DESIGN_PERSON_AND_ORGANIZATION_ASSIGNMENT ( #246, #810, ( #641 ) ) ;
#362 = DIRECTION ( 'NONE',  ( 0.0000000000000000000, 0.0000000000000000000, 1.000000000000000000 ) ) ;
#363 = APPROVAL_DATE_TIME ( #700, #312 ) ;
#364 = DIRECTION ( 'NONE',  ( 0.0000000000000000000, 0.0000000000000000000, 1.000000000000000000 ) ) ;
#365 = FACE_OUTER_BOUND ( 'NONE', #121, .T. ) ;
#366 = LINE ( 'NONE', #180, #342 ) ;
#367 = EDGE_LOOP ( 'NONE', ( #586, #21, #545, #637 ) ) ;
#368 = ORIENTED_EDGE ( 'NONE', *, *, #736, .T. ) ;
#369 = EDGE_LOOP ( 'NONE', ( #333, #403 ) ) ;
#370 = AXIS2_PLACEMENT_3D ( 'NONE', #204, #601, #540 ) ;
#371 = DIRECTION ( 'NONE',  ( 0.7071067811865440200, 0.0000000000000000000, -0.7071067811865510144 ) ) ;
#372 = DIRECTION ( 'NONE',  ( 0.0000000000000000000, 0.0000000000000000000, 1.000000000000000000 ) ) ;
#373 = PRODUCT ( 'Separator PMMA', 'Separator PMMA', '', ( #691 ) ) ;
#374 = DIRECTION ( 'NONE',  ( 0.0000000000000000000, 1.000000000000000000, 0.0000000000000000000 ) ) ;
#375 = EDGE_CURVE ( 'NONE', #757, #63, #808, .T. ) ;
#376 = CC_DESIGN_PERSON_AND_ORGANIZATION_ASSIGNMENT ( #530, #629, ( #223 ) ) ;
#377 = APPROVAL_DATE_TIME ( #269, #152 ) ;
#378 = VECTOR ( 'NONE', #478, 1000.000000000000000 ) ;
#379 = EDGE_LOOP ( 'NONE', ( #261, #557 ) ) ;
#380 = ORIENTED_EDGE ( 'NONE', *, *, #792, .F. ) ;
#381 = CARTESIAN_POINT ( 'NONE',  ( 53.03300858899170578, -3.000000000000000000, 53.03300858899041970 ) ) ;
#382 = ORIENTED_EDGE ( 'NONE', *, *, #699, .F. ) ;
#383 = AXIS2_PLACEMENT_3D ( 'NONE', #25, #28, #277 ) ;
#384 = DIRECTION ( 'NONE',  ( 0.0000000000000000000, 1.000000000000000000, 0.0000000000000000000 ) ) ;
#385 = CARTESIAN_POINT ( 'NONE',  ( -53.03300858899059733, 7.000000000000000000, 53.03300858899152104 ) ) ;
#386 = ADVANCED_FACE ( 'NONE', ( #156 ), #436, .F. ) ;
#387 = EDGE_CURVE ( 'NONE', #94, #605, #340, .T. ) ;
#388 = COORDINATED_UNIVERSAL_TIME_OFFSET ( 0, 0, .AHEAD. ) ;
#389 = LINE ( 'NONE', #396, #145 ) ;
#390 = CARTESIAN_POINT ( 'NONE',  ( 75.00000000000000000, 0.0000000000000000000, 0.0000000000000000000 ) ) ;
#391 = FACE_BOUND ( 'NONE', #496, .T. ) ;
#392 = EDGE_LOOP ( 'NONE', ( #113, #137 ) ) ;
#393 = ORIENTED_EDGE ( 'NONE', *, *, #237, .F. ) ;
#394 = ORIENTED_EDGE ( 'NONE', *, *, #77, .F. ) ;
#395 = ADVANCED_FACE ( 'NONE', ( #513 ), #614, .F. ) ;
#396 = CARTESIAN_POINT ( 'NONE',  ( -75.00000000000000000, -3.000000000000000000, -3.000000000000007994 ) ) ;
#397 = CC_DESIGN_DATE_AND_TIME_ASSIGNMENT ( #714, #233, ( #682 ) ) ;
#398 = CARTESIAN_POINT ( 'NONE',  ( 4.592425496802575156E-15, 7.000000000000000000, 37.50000000000000711 ) ) ;
#399 = LOCAL_TIME ( 17, 25, 40.00000000000000000, #411 ) ;
#400 = AXIS2_PLACEMENT_3D ( 'NONE', #253, #315, #772 ) ;
#401 = FACE_BOUND ( 'NONE', #210, .T. ) ;
#402 = CARTESIAN_POINT ( 'NONE',  ( 0.0000000000000000000, 7.000000000000000000, 0.0000000000000000000 ) ) ;
#403 = ORIENTED_EDGE ( 'NONE', *, *, #162, .T. ) ;
#404 = DIRECTION ( 'NONE',  ( 0.0000000000000000000, 0.0000000000000000000, 1.000000000000000000 ) ) ;
#405 = ORIENTED_EDGE ( 'NONE', *, *, #468, .T. ) ;
#406 = VERTEX_POINT ( 'NONE', #765 ) ;
#407 = CARTESIAN_POINT ( 'NONE',  ( -75.00000000000000000, 0.0000000000000000000, -3.000000000000007994 ) ) ;
#408 = EDGE_CURVE ( 'NONE', #566, #149, #755, .T. ) ;
#409 = DIRECTION ( 'NONE',  ( -0.0000000000000000000, -1.000000000000000000, -0.0000000000000000000 ) ) ;
#410 = CARTESIAN_POINT ( 'NONE',  ( 53.03300858899170578, 0.0000000000000000000, 56.03300858899042680 ) ) ;
#411 = COORDINATED_UNIVERSAL_TIME_OFFSET ( 0, 0, .AHEAD. ) ;
#412 = CARTESIAN_POINT ( 'NONE',  ( -53.03300858899134340, 0.0000000000000000000, -53.03300858899078918 ) ) ;
#413 = CIRCLE ( 'NONE', #90, 3.000000000000009770 ) ;
#414 = DIRECTION ( 'NONE',  ( 0.0000000000000000000, 1.000000000000000000, 0.0000000000000000000 ) ) ;
#415 = FACE_OUTER_BOUND ( 'NONE', #766, .T. ) ;
#416 = ORIENTED_EDGE ( 'NONE', *, *, #520, .F. ) ;
#417 = ORIENTED_EDGE ( 'NONE', *, *, #558, .T. ) ;
#418 = DIRECTION ( 'NONE',  ( -0.0000000000000000000, 1.000000000000000000, -0.0000000000000000000 ) ) ;
#419 = VERTEX_POINT ( 'NONE', #125 ) ;
#420 = CARTESIAN_POINT ( 'NONE',  ( -53.03300858899059733, 0.0000000000000000000, 50.03300858899151393 ) ) ;
#421 = DIRECTION ( 'NONE',  ( 0.0000000000000000000, 0.0000000000000000000, 1.000000000000000000 ) ) ;
#422 = AXIS2_PLACEMENT_3D ( 'NONE', #314, #526, #184 ) ;
#423 = CARTESIAN_POINT ( 'NONE',  ( 75.00000000000000000, 0.0000000000000000000, 3.000000000000007994 ) ) ;
#424 = DIRECTION ( 'NONE',  ( 0.0000000000000000000, 1.000000000000000000, 0.0000000000000000000 ) ) ;
#425 = FACE_OUTER_BOUND ( 'NONE', #45, .T. ) ;
#426 = EDGE_CURVE ( 'NONE', #9, #779, #186, .T. ) ;
#427 = ORIENTED_EDGE ( 'NONE', *, *, #539, .F. ) ;
#428 = AXIS2_PLACEMENT_3D ( 'NONE', #105, #372, #43 ) ;
#429 = ORIENTED_EDGE ( 'NONE', *, *, #451, .T. ) ;
#430 = ORIENTED_EDGE ( 'NONE', *, *, #38, .F. ) ;
#431 = DIRECTION ( 'NONE',  ( 0.0000000000000000000, 0.0000000000000000000, 1.000000000000000000 ) ) ;
#432 = EDGE_CURVE ( 'NONE', #63, #757, #166, .T. ) ;
#433 = CARTESIAN_POINT ( 'NONE',  ( 53.03300858899170578, 0.0000000000000000000, 50.03300858899040549 ) ) ;
#434 = AXIS2_PLACEMENT_3D ( 'NONE', #651, #66, #123 ) ;
#435 = PERSON_AND_ORGANIZATION ( #281, #339 ) ;
#436 = CYLINDRICAL_SURFACE ( 'NONE', #50, 3.000000000000007994 ) ;
#437 = CIRCLE ( 'NONE', #634, 3.000000000000008882 ) ;
#438 = PERSON_AND_ORGANIZATION_ROLE ( 'creator' ) ;
#439 = EDGE_CURVE ( 'NONE', #703, #274, #453, .T. ) ;
#440 = ORIENTED_EDGE ( 'NONE', *, *, #286, .T. ) ;
#441 = CARTESIAN_POINT ( 'NONE',  ( 7.855833012397049923E-13, -3.000000000000000000, 75.00000000000000000 ) ) ;
#442 = CARTESIAN_POINT ( 'NONE',  ( 0.0000000000000000000, 7.000000000000000000, -37.50000000000000711 ) ) ;
#443 = APPROVAL_ROLE ( '' ) ;
#444 = CIRCLE ( 'NONE', #350, 3.000000000000007994 ) ;
#445 = DIRECTION ( 'NONE',  ( -0.0000000000000000000, -1.000000000000000000, -0.0000000000000000000 ) ) ;
#446 = VERTEX_POINT ( 'NONE', #521 ) ;
#447 = ORIENTED_EDGE ( 'NONE', *, *, #357, .T. ) ;
#448 = ORIENTED_EDGE ( 'NONE', *, *, #681, .T. ) ;
#449 = AXIS2_PLACEMENT_3D ( 'NONE', #385, #458, #255 ) ;
#450 = CARTESIAN_POINT ( 'NONE',  ( -53.03300858899134340, 7.000000000000000000, -53.03300858899078918 ) ) ;
#451 = EDGE_CURVE ( 'NONE', #112, #34, #602, .T. ) ;
#452 = LOCAL_TIME ( 17, 25, 40.00000000000000000, #500 ) ;
#453 = CIRCLE ( 'NONE', #449, 3.000000000000009326 ) ;
#454 = ORIENTED_EDGE ( 'NONE', *, *, #745, .T. ) ;
#455 = ORIENTED_EDGE ( 'NONE', *, *, #426, .F. ) ;
#456 = EDGE_LOOP ( 'NONE', ( #535, #711 ) ) ;
#457 = CARTESIAN_POINT ( 'NONE',  ( 53.03300858899170578, -3.000000000000000000, 56.03300858899042680 ) ) ;
#458 = DIRECTION ( 'NONE',  ( 0.0000000000000000000, 1.000000000000000000, 0.0000000000000000000 ) ) ;
#459 = AXIS2_PLACEMENT_3D ( 'NONE', #556, #153, #670 ) ;
#460 = CIRCLE ( 'NONE', #529, 3.000000000000007994 ) ;
#461 = CIRCLE ( 'NONE', #589, 3.000000000000002665 ) ;
#462 = ORIENTED_EDGE ( 'NONE', *, *, #387, .F. ) ;
#463 = ORIENTED_EDGE ( 'NONE', *, *, #337, .T. ) ;
#464 = EDGE_LOOP ( 'NONE', ( #6, #179, #405, #47 ) ) ;
#465 = EDGE_CURVE ( 'NONE', #577, #34, #389, .T. ) ;
#466 = CARTESIAN_POINT ( 'NONE',  ( -53.03300858899059733, -3.000000000000000000, 56.03300858899152814 ) ) ;
#467 = DIRECTION ( 'NONE',  ( 0.0000000000000000000, 0.0000000000000000000, 1.000000000000000000 ) ) ;
#468 = EDGE_CURVE ( 'NONE', #779, #628, #299, .T. ) ;
#469 = PERSON_AND_ORGANIZATION ( #281, #339 ) ;
#470 = AXIS2_PLACEMENT_3D ( 'NONE', #489, #613, #684 ) ;
#471 = FACE_OUTER_BOUND ( 'NONE', #617, .T. ) ;
#472 = CARTESIAN_POINT ( 'NONE',  ( 53.03300858899170578, -3.000000000000000000, 50.03300858899040549 ) ) ;
#473 = VERTEX_POINT ( 'NONE', #323 ) ;
#474 = VERTEX_POINT ( 'NONE', #659 ) ;
#475 = ORIENTED_EDGE ( 'NONE', *, *, #558, .F. ) ;
#476 = CARTESIAN_POINT ( 'NONE',  ( -75.00000000000000000, 0.0000000000000000000, 3.000000000000007994 ) ) ;
#477 = EDGE_CURVE ( 'NONE', #100, #321, #79, .T. ) ;
#478 = DIRECTION ( 'NONE',  ( -0.0000000000000000000, 1.000000000000000000, -0.0000000000000000000 ) ) ;
#479 = DIRECTION ( 'NONE',  ( 0.0000000000000000000, 0.0000000000000000000, 1.000000000000000000 ) ) ;
#480 = VECTOR ( 'NONE', #528, 1000.000000000000000 ) ;
#481 = CARTESIAN_POINT ( 'NONE',  ( -2.618611004132350143E-13, 0.0000000000000000000, -75.00000000000000000 ) ) ;
#482 = LINE ( 'NONE', #538, #575 ) ;
#483 = ORIENTED_EDGE ( 'NONE', *, *, #375, .F. ) ;
#484 = DIRECTION ( 'NONE',  ( -0.0000000000000000000, 1.000000000000000000, -0.0000000000000000000 ) ) ;
#485 = DIRECTION ( 'NONE',  ( -0.0000000000000000000, 1.000000000000000000, -0.0000000000000000000 ) ) ;
#486 = DIRECTION ( 'NONE',  ( -0.0000000000000000000, 1.000000000000000000, 0.0000000000000000000 ) ) ;
#487 = CARTESIAN_POINT ( 'NONE',  ( 7.855833012397049923E-13, -3.000000000000000000, 78.00000000000000000 ) ) ;
#488 = AXIS2_PLACEMENT_3D ( 'NONE', #630, #631, #234 ) ;
#489 = CARTESIAN_POINT ( 'NONE',  ( -75.00000000000000000, -3.000000000000000000, 0.0000000000000000000 ) ) ;
#490 = CIRCLE ( 'NONE', #173, 3.000000000000002665 ) ;
#491 = DIRECTION ( 'NONE',  ( -0.0000000000000000000, 1.000000000000000000, 0.0000000000000000000 ) ) ;
#492 = FACE_OUTER_BOUND ( 'NONE', #275, .T. ) ;
#493 = EDGE_CURVE ( 'NONE', #710, #768, #227, .T. ) ;
#494 = EDGE_LOOP ( 'NONE', ( #608, #800 ) ) ;
#495 = ORIENTED_EDGE ( 'NONE', *, *, #465, .T. ) ;
#496 = EDGE_LOOP ( 'NONE', ( #302, #740 ) ) ;
#497 = APPROVAL_STATUS ( 'not_yet_approved' ) ;
#498 = ADVANCED_BREP_SHAPE_REPRESENTATION ( 'Separator PMMA', ( #537, #428 ), #304 ) ;
#499 =( NAMED_UNIT ( * ) PLANE_ANGLE_UNIT ( ) SI_UNIT ( $, .RADIAN. ) );
#500 = COORDINATED_UNIVERSAL_TIME_OFFSET ( 0, 0, .AHEAD. ) ;
#501 = DIRECTION ( 'NONE',  ( -0.0000000000000000000, 1.000000000000000000, 0.0000000000000000000 ) ) ;
#502 = VECTOR ( 'NONE', #409, 1000.000000000000000 ) ;
#503 = CYLINDRICAL_SURFACE ( 'NONE', #58, 3.000000000000002665 ) ;
#504 =( NAMED_UNIT ( * ) SI_UNIT ( $, .STERADIAN. ) SOLID_ANGLE_UNIT ( ) );
#505 = AXIS2_PLACEMENT_3D ( 'NONE', #728, #264, #14 ) ;
#506 = ORIENTED_EDGE ( 'NONE', *, *, #493, .T. ) ;
#507 = DIRECTION ( 'NONE',  ( 0.0000000000000000000, 1.000000000000000000, -0.0000000000000000000 ) ) ;
#508 =( LENGTH_UNIT ( ) NAMED_UNIT ( * ) SI_UNIT ( .MILLI., .METRE. ) );
#509 = DIRECTION ( 'NONE',  ( 0.0000000000000000000, 0.0000000000000000000, 1.000000000000000000 ) ) ;
#510 = EDGE_CURVE ( 'NONE', #566, #473, #542, .T. ) ;
#511 = CARTESIAN_POINT ( 'NONE',  ( 53.03300858899097392, 0.0000000000000000000, -50.03300858899115156 ) ) ;
#512 = CYLINDRICAL_SURFACE ( 'NONE', #470, 3.000000000000007994 ) ;
#513 = FACE_OUTER_BOUND ( 'NONE', #220, .T. ) ;
#514 = CARTESIAN_POINT ( 'NONE',  ( 7.855833012397049923E-13, 7.000000000000000000, 78.00000000000000000 ) ) ;
#515 = ORIENTED_EDGE ( 'NONE', *, *, #552, .T. ) ;
#516 = ORIENTED_EDGE ( 'NONE', *, *, #432, .F. ) ;
#517 = ORIENTED_EDGE ( 'NONE', *, *, #134, .T. ) ;
#518 = AXIS2_PLACEMENT_3D ( 'NONE', #257, #712, #778 ) ;
#519 = DIRECTION ( 'NONE',  ( -1.000000000000000000, 0.0000000000000000000, 9.251858538542946978E-15 ) ) ;
#520 = EDGE_CURVE ( 'NONE', #768, #710, #583, .T. ) ;
#521 = CARTESIAN_POINT ( 'NONE',  ( -53.03300858899134340, 0.0000000000000000000, -50.03300858899077497 ) ) ;
#522 = COORDINATED_UNIVERSAL_TIME_OFFSET ( 0, 0, .AHEAD. ) ;
#523 = VECTOR ( 'NONE', #69, 1000.000000000000000 ) ;
#524 = CARTESIAN_POINT ( 'NONE',  ( -75.00000000000000000, 7.000000000000000000, 0.0000000000000000000 ) ) ;
#525 = EDGE_LOOP ( 'NONE', ( #62, #475 ) ) ;
#526 = DIRECTION ( 'NONE',  ( 0.0000000000000000000, 1.000000000000000000, 0.0000000000000000000 ) ) ;
#527 = ADVANCED_FACE ( 'NONE', ( #471 ), #591, .F. ) ;
#528 = DIRECTION ( 'NONE',  ( -0.0000000000000000000, -1.000000000000000000, -0.0000000000000000000 ) ) ;
#529 = AXIS2_PLACEMENT_3D ( 'NONE', #741, #351, #804 ) ;
#530 = PERSON_AND_ORGANIZATION ( #281, #339 ) ;
#531 = DIRECTION ( 'NONE',  ( -0.0000000000000000000, 1.000000000000000000, -0.0000000000000000000 ) ) ;
#532 = CIRCLE ( 'NONE', #488, 37.50000000000000711 ) ;
#533 = DIRECTION ( 'NONE',  ( 0.0000000000000000000, 0.0000000000000000000, 1.000000000000000000 ) ) ;
#534 = ORIENTED_EDGE ( 'NONE', *, *, #202, .F. ) ;
#535 = ORIENTED_EDGE ( 'NONE', *, *, #248, .T. ) ;
#536 = CARTESIAN_POINT ( 'NONE',  ( -75.00000000000000000, -3.000000000000000000, 3.000000000000007994 ) ) ;
#537 = MANIFOLD_SOLID_BREP ( 'CirPattern1', #781 ) ;
#538 = CARTESIAN_POINT ( 'NONE',  ( 75.00000000000000000, -3.000000000000000000, -3.000000000000007994 ) ) ;
#539 = EDGE_CURVE ( 'NONE', #293, #446, #644, .T. ) ;
#540 = DIRECTION ( 'NONE',  ( 0.0000000000000000000, 0.0000000000000000000, -1.000000000000000000 ) ) ;
#541 = DIRECTION ( 'NONE',  ( -0.0000000000000000000, 1.000000000000000000, -0.0000000000000000000 ) ) ;
#542 = LINE ( 'NONE', #398, #107 ) ;
#543 = DIRECTION ( 'NONE',  ( 0.0000000000000000000, 1.000000000000000000, 0.0000000000000000000 ) ) ;
#544 = CIRCLE ( 'NONE', #330, 82.50000000000000000 ) ;
#545 = ORIENTED_EDGE ( 'NONE', *, *, #306, .T. ) ;
#546 = ORIENTED_EDGE ( 'NONE', *, *, #387, .T. ) ;
#547 = ORIENTED_EDGE ( 'NONE', *, *, #109, .F. ) ;
#548 = CARTESIAN_POINT ( 'NONE',  ( 0.0000000000000000000, 7.000000000000000000, 0.0000000000000000000 ) ) ;
#549 = AXIS2_PLACEMENT_3D ( 'NONE', #80, #788, #334 ) ;
#550 = DIRECTION ( 'NONE',  ( 0.0000000000000000000, 1.000000000000000000, 0.0000000000000000000 ) ) ;
#551 = DIRECTION ( 'NONE',  ( 0.0000000000000000000, 1.000000000000000000, 0.0000000000000000000 ) ) ;
#552 = EDGE_CURVE ( 'NONE', #663, #112, #816, .T. ) ;
#553 = CALENDAR_DATE ( 2019, 12, 12 ) ;
#554 = CIRCLE ( 'NONE', #621, 3.000000000000002665 ) ;
#555 = ORIENTED_EDGE ( 'NONE', *, *, #324, .T. ) ;
#556 = CARTESIAN_POINT ( 'NONE',  ( 53.03300858899097392, 0.0000000000000000000, -53.03300858899115866 ) ) ;
#557 = ORIENTED_EDGE ( 'NONE', *, *, #774, .T. ) ;
#558 = EDGE_CURVE ( 'NONE', #34, #112, #624, .T. ) ;
#559 = CARTESIAN_POINT ( 'NONE',  ( 53.03300858899170578, -3.000000000000000000, 53.03300858899041970 ) ) ;
#560 = AXIS2_PLACEMENT_3D ( 'NONE', #1, #603, #467 ) ;
#561 = PRODUCT_DEFINITION_SHAPE ( 'NONE', 'NONE',  #223 ) ;
#562 = PERSON_AND_ORGANIZATION ( #281, #339 ) ;
#563 = FACE_BOUND ( 'NONE', #344, .T. ) ;
#564 = EDGE_CURVE ( 'NONE', #293, #131, #292, .T. ) ;
#565 = FACE_BOUND ( 'NONE', #782, .T. ) ;
#566 = VERTEX_POINT ( 'NONE', #611 ) ;
#567 = ORIENTED_EDGE ( 'NONE', *, *, #610, .F. ) ;
#568 = ORIENTED_EDGE ( 'NONE', *, *, #805, .F. ) ;
#569 = PERSON_AND_ORGANIZATION_ROLE ( 'classification_officer' ) ;
#570 = DIRECTION ( 'NONE',  ( -0.7071067811865382469, 0.0000000000000000000, 0.7071067811865567876 ) ) ;
#571 = DIRECTION ( 'NONE',  ( -0.0000000000000000000, 1.000000000000000000, -0.0000000000000000000 ) ) ;
#572 = APPROVAL_ROLE ( '' ) ;
#573 = CARTESIAN_POINT ( 'NONE',  ( -53.03300858899059733, -3.000000000000000000, 53.03300858899152104 ) ) ;
#574 = CALENDAR_DATE ( 2019, 12, 12 ) ;
#575 = VECTOR ( 'NONE', #199, 1000.000000000000000 ) ;
#576 = AXIS2_PLACEMENT_3D ( 'NONE', #612, #211, #213 ) ;
#577 = VERTEX_POINT ( 'NONE', #407 ) ;
#578 = DIRECTION ( 'NONE',  ( 0.0000000000000000000, 1.000000000000000000, -0.0000000000000000000 ) ) ;
#579 = ORIENTED_EDGE ( 'NONE', *, *, #510, .T. ) ;
#580 = CARTESIAN_POINT ( 'NONE',  ( 0.0000000000000000000, 0.0000000000000000000, 0.0000000000000000000 ) ) ;
#581 = EDGE_CURVE ( 'NONE', #131, #231, #270, .T. ) ;
#582 = DATE_AND_TIME ( #553, #326 ) ;
#583 = CIRCLE ( 'NONE', #115, 3.000000000000007994 ) ;
#584 = CYLINDRICAL_SURFACE ( 'NONE', #690, 3.000000000000009770 ) ;
#585 = ORIENTED_EDGE ( 'NONE', *, *, #705, .F. ) ;
#586 = ORIENTED_EDGE ( 'NONE', *, *, #55, .F. ) ;
#587 = ADVANCED_FACE ( 'NONE', ( #492 ), #60, .F. ) ;
#588 = DIRECTION ( 'NONE',  ( 0.0000000000000000000, 1.000000000000000000, 0.0000000000000000000 ) ) ;
#589 = AXIS2_PLACEMENT_3D ( 'NONE', #734, #730, #362 ) ;
#590 = DIRECTION ( 'NONE',  ( 0.0000000000000000000, 0.0000000000000000000, 1.000000000000000000 ) ) ;
#591 = CYLINDRICAL_SURFACE ( 'NONE', #518, 3.000000000000007994 ) ;
#592 = EDGE_LOOP ( 'NONE', ( #416, #181, #732, #262 ) ) ;
#593 = CARTESIAN_POINT ( 'NONE',  ( 75.00000000000000000, 0.0000000000000000000, 0.0000000000000000000 ) ) ;
#594 = VERTEX_POINT ( 'NONE', #666 ) ;
#595 = EDGE_CURVE ( 'NONE', #663, #577, #444, .T. ) ;
#596 = ORIENTED_EDGE ( 'NONE', *, *, #120, .T. ) ;
#597 = CC_DESIGN_APPROVAL ( #46, ( #682 ) ) ;
#598 = EDGE_CURVE ( 'NONE', #149, #251, #764, .T. ) ;
#599 = AXIS2_PLACEMENT_3D ( 'NONE', #390, #129, #590 ) ;
#600 = PERSON_AND_ORGANIZATION ( #281, #339 ) ;
#601 = DIRECTION ( 'NONE',  ( -0.0000000000000000000, -1.000000000000000000, -0.0000000000000000000 ) ) ;
#602 = CIRCLE ( 'NONE', #103, 3.000000000000007994 ) ;
#603 = DIRECTION ( 'NONE',  ( 0.0000000000000000000, 1.000000000000000000, -0.0000000000000000000 ) ) ;
#604 = FACE_OUTER_BOUND ( 'NONE', #367, .T. ) ;
#605 = VERTEX_POINT ( 'NONE', #721 ) ;
#606 = ORIENTED_EDGE ( 'NONE', *, *, #745, .F. ) ;
#607 = CARTESIAN_POINT ( 'NONE',  ( -53.03300858899134340, -3.000000000000000000, -56.03300858899079628 ) ) ;
#608 = ORIENTED_EDGE ( 'NONE', *, *, #655, .F. ) ;
#609 = CARTESIAN_POINT ( 'NONE',  ( -75.00000000000000000, 7.000000000000000000, 3.000000000000007994 ) ) ;
#610 = EDGE_CURVE ( 'NONE', #733, #829, #247, .T. ) ;
#611 = CARTESIAN_POINT ( 'NONE',  ( 4.592425496802575156E-15, 7.000000000000000000, 37.50000000000000711 ) ) ;
#612 = CARTESIAN_POINT ( 'NONE',  ( 0.0000000000000000000, 7.000000000000000000, 0.0000000000000000000 ) ) ;
#613 = DIRECTION ( 'NONE',  ( -0.0000000000000000000, 1.000000000000000000, -0.0000000000000000000 ) ) ;
#614 = CYLINDRICAL_SURFACE ( 'NONE', #787, 3.000000000000009770 ) ;
#615 = CARTESIAN_POINT ( 'NONE',  ( 0.0000000000000000000, 7.000000000000000000, -82.50000000000000000 ) ) ;
#616 = CIRCLE ( 'NONE', #576, 82.50000000000000000 ) ;
#617 = EDGE_LOOP ( 'NONE', ( #150, #495, #417, #92 ) ) ;
#618 = ORIENTED_EDGE ( 'NONE', *, *, #477, .T. ) ;
#619 = CARTESIAN_POINT ( 'NONE',  ( -75.00000000000000000, 7.000000000000000000, -3.000000000000007994 ) ) ;
#620 = CARTESIAN_POINT ( 'NONE',  ( -2.618611004132350143E-13, 7.000000000000000000, -72.00000000000000000 ) ) ;
#621 = AXIS2_PLACEMENT_3D ( 'NONE', #481, #677, #101 ) ;
#622 = CARTESIAN_POINT ( 'NONE',  ( -53.03300858899134340, 0.0000000000000000000, -53.03300858899078918 ) ) ;
#623 = AXIS2_PLACEMENT_3D ( 'NONE', #144, #551, #479 ) ;
#624 = CIRCLE ( 'NONE', #549, 3.000000000000007994 ) ;
#625 = ORIENTED_EDGE ( 'NONE', *, *, #26, .T. ) ;
#626 = DIRECTION ( 'NONE',  ( 0.0000000000000000000, 1.000000000000000000, 0.0000000000000000000 ) ) ;
#627 = EDGE_LOOP ( 'NONE', ( #382, #36, #821, #170 ) ) ;
#628 = VERTEX_POINT ( 'NONE', #335 ) ;
#629 = PERSON_AND_ORGANIZATION_ROLE ( 'creator' ) ;
#630 = CARTESIAN_POINT ( 'NONE',  ( 0.0000000000000000000, 7.000000000000000000, 0.0000000000000000000 ) ) ;
#631 = DIRECTION ( 'NONE',  ( 0.0000000000000000000, 1.000000000000000000, 0.0000000000000000000 ) ) ;
#632 = APPLICATION_CONTEXT ( 'configuration controlled 3d designs of mechanical parts and assemblies' ) ;
#633 = VECTOR ( 'NONE', #95, 1000.000000000000000 ) ;
#634 = AXIS2_PLACEMENT_3D ( 'NONE', #104, #815, #570 ) ;
#635 = FACE_OUTER_BOUND ( 'NONE', #464, .T. ) ;
#636 = CARTESIAN_POINT ( 'NONE',  ( -53.03300858899134340, -3.000000000000000000, -50.03300858899077497 ) ) ;
#637 = ORIENTED_EDGE ( 'NONE', *, *, #650, .F. ) ;
#638 = ORIENTED_EDGE ( 'NONE', *, *, #595, .F. ) ;
#639 = DIRECTION ( 'NONE',  ( 0.0000000000000000000, 0.0000000000000000000, 1.000000000000000000 ) ) ;
#640 = EDGE_CURVE ( 'NONE', #594, #767, #747, .T. ) ;
#641 = PRODUCT_DEFINITION_FORMATION_WITH_SPECIFIED_SOURCE ( 'ANY', '', #373, .NOT_KNOWN. ) ;
#642 = DIRECTION ( 'NONE',  ( -0.7071067811865382469, 0.0000000000000000000, 0.7071067811865567876 ) ) ;
#643 = DIRECTION ( 'NONE',  ( 0.0000000000000000000, 1.000000000000000000, 0.0000000000000000000 ) ) ;
#644 = CIRCLE ( 'NONE', #825, 3.000000000000009770 ) ;
#645 = AXIS2_PLACEMENT_3D ( 'NONE', #720, #133, #715 ) ;
#646 = ORIENTED_EDGE ( 'NONE', *, *, #194, .T. ) ;
#647 = DIRECTION ( 'NONE',  ( -0.0000000000000000000, 1.000000000000000000, -0.0000000000000000000 ) ) ;
#648 = ORIENTED_EDGE ( 'NONE', *, *, #432, .T. ) ;
#649 = ADVANCED_FACE ( 'NONE', ( #835 ), #727, .F. ) ;
#650 = EDGE_CURVE ( 'NONE', #758, #703, #828, .T. ) ;
#651 = CARTESIAN_POINT ( 'NONE',  ( 0.0000000000000000000, 0.0000000000000000000, 0.0000000000000000000 ) ) ;
#652 = ADVANCED_FACE ( 'NONE', ( #365 ), #797, .F. ) ;
#653 = LINE ( 'NONE', #338, #98 ) ;
#654 = CIRCLE ( 'NONE', #692, 37.50000000000000711 ) ;
#655 = EDGE_CURVE ( 'NONE', #321, #100, #117, .T. ) ;
#656 = EDGE_LOOP ( 'NONE', ( #686, #207, #517, #332 ) ) ;
#657 = CC_DESIGN_SECURITY_CLASSIFICATION ( #682, ( #641 ) ) ;
#658 = DIRECTION ( 'NONE',  ( -0.0000000000000000000, -1.000000000000000000, -0.0000000000000000000 ) ) ;
#659 = CARTESIAN_POINT ( 'NONE',  ( 53.03300858899097392, 0.0000000000000000000, -56.03300858899117287 ) ) ;
#660 = AXIS2_PLACEMENT_3D ( 'NONE', #305, #303, #172 ) ;
#661 = CYLINDRICAL_SURFACE ( 'NONE', #132, 3.000000000000009770 ) ;
#662 = FACE_BOUND ( 'NONE', #208, .T. ) ;
#663 = VERTEX_POINT ( 'NONE', #476 ) ;
#664 = DIRECTION ( 'NONE',  ( 0.0000000000000000000, 1.000000000000000000, 0.0000000000000000000 ) ) ;
#665 = ORIENTED_EDGE ( 'NONE', *, *, #439, .T. ) ;
#666 = CARTESIAN_POINT ( 'NONE',  ( 75.00000000000000000, 7.000000000000000000, -3.000000000000007994 ) ) ;
#667 = DIRECTION ( 'NONE',  ( 0.0000000000000000000, 0.0000000000000000000, 1.000000000000000000 ) ) ;
#668 = CARTESIAN_POINT ( 'NONE',  ( 0.0000000000000000000, 0.0000000000000000000, 0.0000000000000000000 ) ) ;
#669 = LINE ( 'NONE', #487, #154 ) ;
#670 = DIRECTION ( 'NONE',  ( 0.0000000000000000000, 0.0000000000000000000, 1.000000000000000000 ) ) ;
#671 = LINE ( 'NONE', #139, #633 ) ;
#672 = CYLINDRICAL_SURFACE ( 'NONE', #383, 3.000000000000009770 ) ;
#673 = CARTESIAN_POINT ( 'NONE',  ( 53.03300858899097392, -3.000000000000000000, -53.03300858899115866 ) ) ;
#674 = ORIENTED_EDGE ( 'NONE', *, *, #598, .F. ) ;
#675 = EDGE_LOOP ( 'NONE', ( #263, #803 ) ) ;
#676 = ORIENTED_EDGE ( 'NONE', *, *, #595, .T. ) ;
#677 = DIRECTION ( 'NONE',  ( 0.0000000000000000000, 1.000000000000000000, 0.0000000000000000000 ) ) ;
#678 = AXIS2_PLACEMENT_3D ( 'NONE', #52, #643, #236 ) ;
#679 = CARTESIAN_POINT ( 'NONE',  ( 53.03300858899170578, 7.000000000000000000, 50.03300858899040549 ) ) ;
#680 = CARTESIAN_POINT ( 'NONE',  ( 75.00000000000000000, 7.000000000000000000, 3.000000000000007994 ) ) ;
#681 = EDGE_CURVE ( 'NONE', #284, #474, #775, .T. ) ;
#682 = SECURITY_CLASSIFICATION ( '', '', #97 ) ;
#683 = CALENDAR_DATE ( 2019, 12, 12 ) ;
#684 = DIRECTION ( 'NONE',  ( 0.0000000000000000000, 0.0000000000000000000, 1.000000000000000000 ) ) ;
#685 = LINE ( 'NONE', #752, #716 ) ;
#686 = ORIENTED_EDGE ( 'NONE', *, *, #68, .F. ) ;
#687 = EDGE_LOOP ( 'NONE', ( #380, #72, #138, #606 ) ) ;
#688 = ORIENTED_EDGE ( 'NONE', *, *, #520, .T. ) ;
#689 = APPROVAL_STATUS ( 'not_yet_approved' ) ;
#690 = AXIS2_PLACEMENT_3D ( 'NONE', #297, #813, #343 ) ;
#691 = MECHANICAL_CONTEXT ( 'NONE', #744, 'mechanical' ) ;
#692 = AXIS2_PLACEMENT_3D ( 'NONE', #141, #664, #329 ) ;
#693 = PERSON_AND_ORGANIZATION ( #281, #339 ) ;
#694 = FACE_BOUND ( 'NONE', #456, .T. ) ;
#695 = FACE_OUTER_BOUND ( 'NONE', #242, .T. ) ;
#696 = ORIENTED_EDGE ( 'NONE', *, *, #598, .T. ) ;
#697 = ORIENTED_EDGE ( 'NONE', *, *, #717, .F. ) ;
#698 = CARTESIAN_POINT ( 'NONE',  ( 53.03300858899097392, -3.000000000000000000, -50.03300858899115156 ) ) ;
#699 = EDGE_CURVE ( 'NONE', #474, #100, #653, .T. ) ;
#700 = DATE_AND_TIME ( #683, #452 ) ;
#701 = AXIS2_PLACEMENT_3D ( 'NONE', #796, #40, #421 ) ;
#702 = FACE_OUTER_BOUND ( 'NONE', #159, .T. ) ;
#703 = VERTEX_POINT ( 'NONE', #806 ) ;
#704 = VERTEX_POINT ( 'NONE', #355 ) ;
#705 = EDGE_CURVE ( 'NONE', #232, #274, #671, .T. ) ;
#706 = DIRECTION ( 'NONE',  ( 0.0000000000000000000, 0.0000000000000000000, 1.000000000000000000 ) ) ;
#707 = DIRECTION ( 'NONE',  ( 0.0000000000000000000, 1.000000000000000000, 0.0000000000000000000 ) ) ;
#708 = CIRCLE ( 'NONE', #660, 3.000000000000009326 ) ;
#709 = CARTESIAN_POINT ( 'NONE',  ( 1.010333609296566392E-14, 7.000000000000000000, 82.50000000000000000 ) ) ;
#710 = VERTEX_POINT ( 'NONE', #423 ) ;
#711 = ORIENTED_EDGE ( 'NONE', *, *, #55, .T. ) ;
#712 = DIRECTION ( 'NONE',  ( -0.0000000000000000000, 1.000000000000000000, -0.0000000000000000000 ) ) ;
#713 = ADVANCED_FACE ( 'NONE', ( #282, #563, #256, #694, #88, #791, #662, #308, #317, #41 ), #287, .F. ) ;
#714 = DATE_AND_TIME ( #78, #399 ) ;
#715 = DIRECTION ( 'NONE',  ( 0.7071067811865440200, 0.0000000000000000000, -0.7071067811865510144 ) ) ;
#716 = VECTOR ( 'NONE', #485, 1000.000000000000000 ) ;
#717 = EDGE_CURVE ( 'NONE', #446, #293, #413, .T. ) ;
#718 = ORIENTED_EDGE ( 'NONE', *, *, #510, .F. ) ;
#719 = ORIENTED_EDGE ( 'NONE', *, *, #248, .F. ) ;
#720 = CARTESIAN_POINT ( 'NONE',  ( -53.03300858899134340, 7.000000000000000000, -53.03300858899078918 ) ) ;
#721 = CARTESIAN_POINT ( 'NONE',  ( 53.03300858899170578, 7.000000000000000000, 56.03300858899042680 ) ) ;
#722 = CARTESIAN_POINT ( 'NONE',  ( 7.859506952794491725E-13, 0.0000000000000000000, 72.00000000000000000 ) ) ;
#723 = AXIS2_PLACEMENT_3D ( 'NONE', #548, #550, #148 ) ;
#724 = CARTESIAN_POINT ( 'NONE',  ( 0.0000000000000000000, 7.000000000000000000, -37.50000000000000711 ) ) ;
#725 = DIRECTION ( 'NONE',  ( 0.0000000000000000000, 1.000000000000000000, 0.0000000000000000000 ) ) ;
#726 = LOCAL_TIME ( 17, 25, 40.00000000000000000, #225 ) ;
#727 = CYLINDRICAL_SURFACE ( 'NONE', #505, 3.000000000000007994 ) ;
#728 = CARTESIAN_POINT ( 'NONE',  ( 75.00000000000000000, -3.000000000000000000, 0.0000000000000000000 ) ) ;
#729 = FACE_BOUND ( 'NONE', #54, .T. ) ;
#730 = DIRECTION ( 'NONE',  ( 0.0000000000000000000, 1.000000000000000000, 0.0000000000000000000 ) ) ;
#731 = AXIS2_PLACEMENT_3D ( 'NONE', #175, #445, #824 ) ;
#732 = ORIENTED_EDGE ( 'NONE', *, *, #640, .T. ) ;
#733 = VERTEX_POINT ( 'NONE', #433 ) ;
#734 = CARTESIAN_POINT ( 'NONE',  ( 7.855833012397049923E-13, 0.0000000000000000000, 75.00000000000000000 ) ) ;
#735 = CARTESIAN_POINT ( 'NONE',  ( 1.010333609296566392E-14, 0.0000000000000000000, 82.50000000000000000 ) ) ;
#736 = EDGE_CURVE ( 'NONE', #577, #663, #460, .T. ) ;
#737 = CARTESIAN_POINT ( 'NONE',  ( 7.855833012397049923E-13, 0.0000000000000000000, 75.00000000000000000 ) ) ;
#738 = CIRCLE ( 'NONE', #260, 3.000000000000007994 ) ;
#739 = FACE_OUTER_BOUND ( 'NONE', #345, .T. ) ;
#740 = ORIENTED_EDGE ( 'NONE', *, *, #306, .F. ) ;
#741 = CARTESIAN_POINT ( 'NONE',  ( -75.00000000000000000, 0.0000000000000000000, 0.0000000000000000000 ) ) ;
#742 = ORIENTED_EDGE ( 'NONE', *, *, #162, .F. ) ;
#743 = AXIS2_PLACEMENT_3D ( 'NONE', #841, #140, #73 ) ;
#744 = APPLICATION_CONTEXT ( 'configuration controlled 3d designs of mechanical parts and assemblies' ) ;
#745 = EDGE_CURVE ( 'NONE', #704, #331, #669, .T. ) ;
#746 = APPROVAL_PERSON_ORGANIZATION ( #693, #152, #572 ) ;
#747 = CIRCLE ( 'NONE', #754, 3.000000000000007994 ) ;
#748 = VECTOR ( 'NONE', #501, 1000.000000000000000 ) ;
#749 = ORIENTED_EDGE ( 'NONE', *, *, #564, .T. ) ;
#750 = ORIENTED_EDGE ( 'NONE', *, *, #774, .F. ) ;
#751 = CC_DESIGN_APPROVAL ( #152, ( #641 ) ) ;
#752 = CARTESIAN_POINT ( 'NONE',  ( 75.00000000000000000, -3.000000000000000000, 3.000000000000007994 ) ) ;
#753 = DIRECTION ( 'NONE',  ( 0.0000000000000000000, 1.000000000000000000, 0.0000000000000000000 ) ) ;
#754 = AXIS2_PLACEMENT_3D ( 'NONE', #794, #790, #667 ) ;
#755 = CIRCLE ( 'NONE', #244, 37.50000000000000711 ) ;
#756 = VECTOR ( 'NONE', #823, 1000.000000000000000 ) ;
#757 = VERTEX_POINT ( 'NONE', #620 ) ;
#758 = VERTEX_POINT ( 'NONE', #29 ) ;
#759 = EDGE_CURVE ( 'NONE', #406, #628, #290, .T. ) ;
#760 = CC_DESIGN_DATE_AND_TIME_ASSIGNMENT ( #238, #295, ( #223 ) ) ;
#761 = CARTESIAN_POINT ( 'NONE',  ( -2.614937063734907836E-13, -3.000000000000000000, -78.00000000000000000 ) ) ;
#762 = CALENDAR_DATE ( 2019, 12, 12 ) ;
#763 = AXIS2_PLACEMENT_3D ( 'NONE', #171, #165, #161 ) ;
#764 = LINE ( 'NONE', #724, #502 ) ;
#765 = CARTESIAN_POINT ( 'NONE',  ( 0.0000000000000000000, 7.000000000000000000, -82.50000000000000000 ) ) ;
#766 = EDGE_LOOP ( 'NONE', ( #742, #447, #648, #259 ) ) ;
#767 = VERTEX_POINT ( 'NONE', #680 ) ;
#768 = VERTEX_POINT ( 'NONE', #221 ) ;
#769 = ORIENTED_EDGE ( 'NONE', *, *, #267, .F. ) ;
#770 = ADVANCED_FACE ( 'NONE', ( #15 ), #512, .F. ) ;
#771 = AXIS2_PLACEMENT_3D ( 'NONE', #668, #414, #75 ) ;
#772 = DIRECTION ( 'NONE',  ( 0.7071067811865487940, 0.0000000000000000000, 0.7071067811865463515 ) ) ;
#773 = ADVANCED_FACE ( 'NONE', ( #195 ), #39, .F. ) ;
#774 = EDGE_CURVE ( 'NONE', #733, #94, #827, .T. ) ;
#775 = CIRCLE ( 'NONE', #459, 3.000000000000009770 ) ;
#776 = PRODUCT_RELATED_PRODUCT_CATEGORY ( 'detail', '', ( #373 ) ) ;
#777 = CYLINDRICAL_SURFACE ( 'NONE', #814, 3.000000000000009770 ) ;
#778 = DIRECTION ( 'NONE',  ( 0.0000000000000000000, 0.0000000000000000000, 1.000000000000000000 ) ) ;
#779 = VERTEX_POINT ( 'NONE', #735 ) ;
#780 = DIRECTION ( 'NONE',  ( 0.0000000000000000000, 0.0000000000000000000, 1.000000000000000000 ) ) ;
#781 = CLOSED_SHELL ( 'NONE', ( #192, #3, #527, #252, #834, #313, #10, #649, #652, #128, #122, #713, #265, #587, #386, #783, #773, #124, #183, #770, #395, #65 ) ) ;
#782 = EDGE_LOOP ( 'NONE', ( #483, #516 ) ) ;
#783 = ADVANCED_FACE ( 'NONE', ( #203 ), #661, .F. ) ;
#784 = DESIGN_CONTEXT ( 'detailed design', #632, 'design' ) ;
#785 = UNCERTAINTY_MEASURE_WITH_UNIT (LENGTH_MEASURE( 1.000000000000000082E-05 ), #508, 'distance_accuracy_value', 'NONE');
#786 = CARTESIAN_POINT ( 'NONE',  ( 53.03300858899097392, 7.000000000000000000, -53.03300858899115866 ) ) ;
#787 = AXIS2_PLACEMENT_3D ( 'NONE', #830, #507, #840 ) ;
#788 = DIRECTION ( 'NONE',  ( 0.0000000000000000000, 1.000000000000000000, 0.0000000000000000000 ) ) ;
#789 = APPROVAL_PERSON_ORGANIZATION ( #469, #312, #443 ) ;
#790 = DIRECTION ( 'NONE',  ( 0.0000000000000000000, 1.000000000000000000, 0.0000000000000000000 ) ) ;
#791 = FACE_BOUND ( 'NONE', #379, .T. ) ;
#792 = EDGE_CURVE ( 'NONE', #83, #704, #490, .T. ) ;
#793 = VERTEX_POINT ( 'NONE', #214 ) ;
#794 = CARTESIAN_POINT ( 'NONE',  ( 75.00000000000000000, 7.000000000000000000, 0.0000000000000000000 ) ) ;
#795 = CARTESIAN_POINT ( 'NONE',  ( -53.03300858899134340, 7.000000000000000000, -50.03300858899077497 ) ) ;
#796 = CARTESIAN_POINT ( 'NONE',  ( -2.618611004132350143E-13, -3.000000000000000000, -75.00000000000000000 ) ) ;
#797 = CYLINDRICAL_SURFACE ( 'NONE', #190, 37.50000000000000711 ) ;
#798 = FACE_BOUND ( 'NONE', #392, .T. ) ;
#799 = CARTESIAN_POINT ( 'NONE',  ( 53.03300858899170578, 7.000000000000000000, 53.03300858899041970 ) ) ;
#800 = ORIENTED_EDGE ( 'NONE', *, *, #477, .F. ) ;
#801 = AXIS2_PLACEMENT_3D ( 'NONE', #212, #31, #146 ) ;
#802 = ORIENTED_EDGE ( 'NONE', *, *, #222, .F. ) ;
#803 = ORIENTED_EDGE ( 'NONE', *, *, #468, .F. ) ;
#804 = DIRECTION ( 'NONE',  ( 0.0000000000000000000, 0.0000000000000000000, 1.000000000000000000 ) ) ;
#805 = EDGE_CURVE ( 'NONE', #793, #322, #307, .T. ) ;
#806 = CARTESIAN_POINT ( 'NONE',  ( -53.03300858899059733, 7.000000000000000000, 56.03300858899152814 ) ) ;
#807 = FACE_OUTER_BOUND ( 'NONE', #687, .T. ) ;
#808 = CIRCLE ( 'NONE', #318, 3.000000000000007994 ) ;
#809 = ORIENTED_EDGE ( 'NONE', *, *, #581, .F. ) ;
#810 = PERSON_AND_ORGANIZATION_ROLE ( 'design_supplier' ) ;
#811 = ORIENTED_EDGE ( 'NONE', *, *, #539, .T. ) ;
#812 = ORIENTED_EDGE ( 'NONE', *, *, #222, .T. ) ;
#813 = DIRECTION ( 'NONE',  ( -0.0000000000000000000, 1.000000000000000000, -0.0000000000000000000 ) ) ;
#814 = AXIS2_PLACEMENT_3D ( 'NONE', #673, #486, #533 ) ;
#815 = DIRECTION ( 'NONE',  ( 0.0000000000000000000, 1.000000000000000000, 0.0000000000000000000 ) ) ;
#816 = LINE ( 'NONE', #536, #328 ) ;
#817 = FACE_BOUND ( 'NONE', #494, .T. ) ;
#818 = DIRECTION ( 'NONE',  ( 1.000000000000000000, 0.0000000000000000000, -4.625929269271473489E-15 ) ) ;
#819 = ORIENTED_EDGE ( 'NONE', *, *, #699, .T. ) ;
#820 = EDGE_CURVE ( 'NONE', #767, #594, #738, .T. ) ;
#821 = ORIENTED_EDGE ( 'NONE', *, *, #202, .T. ) ;
#822 = APPROVAL_STATUS ( 'not_yet_approved' ) ;
#823 = DIRECTION ( 'NONE',  ( 0.0000000000000000000, 1.000000000000000000, -0.0000000000000000000 ) ) ;
#824 = DIRECTION ( 'NONE',  ( 0.0000000000000000000, 0.0000000000000000000, -1.000000000000000000 ) ) ;
#825 = AXIS2_PLACEMENT_3D ( 'NONE', #412, #271, #11 ) ;
#826 = CARTESIAN_POINT ( 'NONE',  ( -2.614937063734907836E-13, 0.0000000000000000000, -78.00000000000000000 ) ) ;
#827 = CIRCLE ( 'NONE', #839, 3.000000000000009770 ) ;
#828 = LINE ( 'NONE', #466, #205 ) ;
#829 = VERTEX_POINT ( 'NONE', #679 ) ;
#830 = CARTESIAN_POINT ( 'NONE',  ( -53.03300858899134340, -3.000000000000000000, -53.03300858899078918 ) ) ;
#831 = EDGE_LOOP ( 'NONE', ( #427, #749, #310, #769 ) ) ;
#832 = EDGE_CURVE ( 'NONE', #419, #331, #164, .T. ) ;
#833 = DIRECTION ( 'NONE',  ( 0.0000000000000000000, 1.000000000000000000, 0.0000000000000000000 ) ) ;
#834 = ADVANCED_FACE ( 'NONE', ( #807 ), #59, .F. ) ;
#835 = FACE_OUTER_BOUND ( 'NONE', #592, .T. ) ;
#836 = EDGE_LOOP ( 'NONE', ( #802, #169 ) ) ;
#837 = ORIENTED_EDGE ( 'NONE', *, *, #650, .T. ) ;
#838 = ORIENTED_EDGE ( 'NONE', *, *, #178, .T. ) ;
#839 = AXIS2_PLACEMENT_3D ( 'NONE', #158, #341, #87 ) ;
#840 = DIRECTION ( 'NONE',  ( 0.0000000000000000000, 0.0000000000000000000, 1.000000000000000000 ) ) ;
#841 = CARTESIAN_POINT ( 'NONE',  ( 53.03300858899097392, 0.0000000000000000000, -53.03300858899115866 ) ) ;
ENDSEC;
END-ISO-10303-21;
