G04 EAGLE Gerber RS-274X export*
G75*
%MOMM*%
%FSLAX34Y34*%
%LPD*%
%INTop Copper*%
%IPPOS*%
%AMOC8*
5,1,8,0,0,1.08239X$1,22.5*%
G01*
%ADD10C,1.408000*%
%ADD11P,1.649562X8X22.500000*%
%ADD12C,1.524000*%
%ADD13C,1.422400*%
%ADD14C,0.406400*%


D10*
X139700Y762000D03*
X139700Y736600D03*
X139700Y596900D03*
X139700Y571500D03*
X139700Y431800D03*
X139700Y406400D03*
X139700Y266700D03*
X139700Y241300D03*
X139700Y101600D03*
X139700Y76200D03*
D11*
X1282700Y571500D03*
X1219200Y571500D03*
X1155700Y571500D03*
D12*
X838200Y589280D02*
X838200Y604520D01*
X812800Y604520D02*
X812800Y589280D01*
X787400Y589280D02*
X787400Y604520D01*
X762000Y604520D02*
X762000Y589280D01*
X736600Y589280D02*
X736600Y604520D01*
X711200Y604520D02*
X711200Y589280D01*
X685800Y589280D02*
X685800Y604520D01*
X660400Y604520D02*
X660400Y589280D01*
X635000Y589280D02*
X635000Y604520D01*
X609600Y604520D02*
X609600Y589280D01*
X584200Y589280D02*
X584200Y604520D01*
X558800Y604520D02*
X558800Y589280D01*
X533400Y589280D02*
X533400Y604520D01*
X508000Y604520D02*
X508000Y589280D01*
X482600Y589280D02*
X482600Y604520D01*
X457200Y604520D02*
X457200Y589280D01*
X431800Y589280D02*
X431800Y604520D01*
X406400Y604520D02*
X406400Y589280D01*
X381000Y589280D02*
X381000Y604520D01*
X355600Y604520D02*
X355600Y589280D01*
X330200Y589280D02*
X330200Y604520D01*
X304800Y604520D02*
X304800Y589280D01*
X279400Y589280D02*
X279400Y604520D01*
X254000Y604520D02*
X254000Y589280D01*
X254000Y452120D02*
X254000Y436880D01*
X279400Y436880D02*
X279400Y452120D01*
X304800Y452120D02*
X304800Y436880D01*
X330200Y436880D02*
X330200Y452120D01*
X355600Y452120D02*
X355600Y436880D01*
X381000Y436880D02*
X381000Y452120D01*
X406400Y452120D02*
X406400Y436880D01*
X431800Y436880D02*
X431800Y452120D01*
X457200Y452120D02*
X457200Y436880D01*
X482600Y436880D02*
X482600Y452120D01*
X508000Y452120D02*
X508000Y436880D01*
X533400Y436880D02*
X533400Y452120D01*
X558800Y452120D02*
X558800Y436880D01*
X584200Y436880D02*
X584200Y452120D01*
X609600Y452120D02*
X609600Y436880D01*
X635000Y436880D02*
X635000Y452120D01*
X660400Y452120D02*
X660400Y436880D01*
X685800Y436880D02*
X685800Y452120D01*
X711200Y452120D02*
X711200Y436880D01*
X736600Y436880D02*
X736600Y452120D01*
X762000Y452120D02*
X762000Y436880D01*
X787400Y436880D02*
X787400Y452120D01*
X812800Y452120D02*
X812800Y436880D01*
X838200Y436880D02*
X838200Y452120D01*
D13*
X1295400Y223012D02*
X1295400Y208788D01*
X1270000Y208788D02*
X1270000Y223012D01*
X1244600Y223012D02*
X1244600Y208788D01*
X1219200Y208788D02*
X1219200Y223012D01*
X1193800Y223012D02*
X1193800Y208788D01*
X1168400Y208788D02*
X1168400Y223012D01*
X1143000Y223012D02*
X1143000Y208788D01*
X1117600Y208788D02*
X1117600Y223012D01*
D12*
X1003300Y424180D02*
X1003300Y439420D01*
X1028700Y439420D02*
X1028700Y424180D01*
X1054100Y424180D02*
X1054100Y439420D01*
X1079500Y439420D02*
X1079500Y424180D01*
X1104900Y424180D02*
X1104900Y439420D01*
X1130300Y439420D02*
X1130300Y424180D01*
X1130300Y312420D02*
X1130300Y297180D01*
X1104900Y297180D02*
X1104900Y312420D01*
X1079500Y312420D02*
X1079500Y297180D01*
X1054100Y297180D02*
X1054100Y312420D01*
X1028700Y312420D02*
X1028700Y297180D01*
X1003300Y297180D02*
X1003300Y312420D01*
X1219200Y424180D02*
X1219200Y439420D01*
X1244600Y439420D02*
X1244600Y424180D01*
X1270000Y424180D02*
X1270000Y439420D01*
X1295400Y439420D02*
X1295400Y424180D01*
X1320800Y424180D02*
X1320800Y439420D01*
X1346200Y439420D02*
X1346200Y424180D01*
X1346200Y312420D02*
X1346200Y297180D01*
X1320800Y297180D02*
X1320800Y312420D01*
X1295400Y312420D02*
X1295400Y297180D01*
X1270000Y297180D02*
X1270000Y312420D01*
X1244600Y312420D02*
X1244600Y297180D01*
X1219200Y297180D02*
X1219200Y312420D01*
X825500Y223520D02*
X825500Y208280D01*
X850900Y208280D02*
X850900Y223520D01*
X876300Y223520D02*
X876300Y208280D01*
X901700Y208280D02*
X901700Y223520D01*
X927100Y223520D02*
X927100Y208280D01*
X952500Y208280D02*
X952500Y223520D01*
X533400Y223520D02*
X533400Y208280D01*
X558800Y208280D02*
X558800Y223520D01*
X584200Y223520D02*
X584200Y208280D01*
X609600Y208280D02*
X609600Y223520D01*
X635000Y223520D02*
X635000Y208280D01*
X660400Y208280D02*
X660400Y223520D01*
X254000Y223520D02*
X254000Y208280D01*
X279400Y208280D02*
X279400Y223520D01*
X304800Y223520D02*
X304800Y208280D01*
X330200Y208280D02*
X330200Y223520D01*
X355600Y223520D02*
X355600Y208280D01*
X381000Y208280D02*
X381000Y223520D01*
D11*
X977900Y571500D03*
X914400Y571500D03*
X1041400Y571500D03*
X1092200Y571500D03*
X1346200Y215900D03*
X1371600Y215900D03*
D14*
X1219200Y304800D02*
X1168400Y254000D01*
X1041400Y254000D01*
X1003300Y292100D01*
X1003300Y304800D01*
X381000Y215900D02*
X317500Y152400D01*
X266700Y152400D01*
X203200Y215900D01*
X203200Y381000D01*
X152400Y431800D01*
X139700Y431800D01*
X431800Y215900D02*
X533400Y215900D01*
X431800Y215900D02*
X330200Y114300D01*
X190500Y266700D02*
X101600Y355600D01*
X63500Y355600D01*
X50800Y368300D01*
X79708Y568292D02*
X98392Y568292D01*
X79708Y568292D02*
X50800Y539384D01*
X127000Y596900D02*
X139700Y596900D01*
X50800Y539384D02*
X50800Y368300D01*
X98392Y568292D02*
X127000Y596900D01*
X190500Y266700D02*
X190500Y203200D01*
X279400Y114300D01*
X330200Y114300D01*
X1028700Y304800D02*
X1028700Y342900D01*
X1003300Y368300D01*
X927100Y368300D02*
X901700Y342900D01*
X901700Y304800D01*
X952500Y254000D02*
X952500Y215900D01*
X927100Y368300D02*
X1003300Y368300D01*
X901700Y304800D02*
X952500Y254000D01*
X825500Y215900D02*
X622300Y12700D01*
X88900Y12700D02*
X25400Y76200D01*
X25400Y698500D01*
X88900Y762000D02*
X139700Y762000D01*
X88900Y12700D02*
X622300Y12700D01*
X25400Y698500D02*
X88900Y762000D01*
X584200Y215900D02*
X584200Y165100D01*
X609600Y139700D01*
X660400Y139700D01*
X774700Y254000D01*
X850900Y254000D01*
X876300Y228600D01*
X876300Y215900D01*
X368300Y254000D02*
X330200Y215900D01*
X584200Y254000D02*
X609600Y228600D01*
X609600Y215900D01*
X584200Y254000D02*
X368300Y254000D01*
X609600Y215900D02*
X673100Y279400D01*
X901700Y241300D02*
X901700Y215900D01*
X863600Y279400D02*
X673100Y279400D01*
X863600Y279400D02*
X901700Y241300D01*
X635000Y381000D02*
X609600Y355600D01*
X635000Y381000D02*
X635000Y444500D01*
X609600Y355600D02*
X609600Y215900D01*
X927100Y431800D02*
X1003300Y431800D01*
X927100Y431800D02*
X901700Y406400D01*
X812800Y406400D01*
X787400Y431800D01*
X787400Y444500D01*
X965200Y520700D02*
X1054100Y431800D01*
X965200Y520700D02*
X571500Y520700D01*
X533400Y482600D01*
X533400Y444500D01*
X1346200Y215900D02*
X1397000Y266700D01*
X1397000Y609600D01*
X1371600Y635000D01*
X609600Y635000D01*
X584200Y609600D01*
X584200Y596900D01*
X1371600Y215900D02*
X1435100Y279400D01*
X1435100Y609600D02*
X1358900Y685800D01*
X609600Y685800D01*
X558800Y635000D01*
X558800Y596900D01*
X1435100Y609600D02*
X1435100Y279400D01*
M02*
