G04 EAGLE Gerber RS-274X export*
G75*
%MOMM*%
%FSLAX34Y34*%
%LPD*%
%INSoldermask Bottom*%
%IPPOS*%
%AMOC8*
5,1,8,0,0,1.08239X$1,22.5*%
G01*
%ADD10C,3.203200*%
%ADD11C,1.611200*%
%ADD12C,2.203200*%
%ADD13C,1.625600*%
%ADD14C,1.727200*%
%ADD15P,1.869504X8X22.500000*%
%ADD16C,1.016000*%
%ADD17C,1.553200*%


D10*
X342900Y1066800D03*
X1511300Y1066800D03*
X342900Y50800D03*
X1511300Y50800D03*
D11*
X444500Y901700D03*
X444500Y876300D03*
D12*
X393700Y850900D03*
X393700Y952500D03*
D11*
X444500Y749300D03*
X444500Y723900D03*
D12*
X393700Y698500D03*
X393700Y800100D03*
D11*
X444500Y596900D03*
X444500Y571500D03*
D12*
X393700Y546100D03*
X393700Y647700D03*
D11*
X444500Y444500D03*
X444500Y419100D03*
D12*
X393700Y393700D03*
X393700Y495300D03*
D11*
X444500Y292100D03*
X444500Y266700D03*
D12*
X393700Y241300D03*
X393700Y342900D03*
D13*
X1054100Y437388D02*
X1054100Y451612D01*
X1028700Y451612D02*
X1028700Y437388D01*
X1003300Y437388D02*
X1003300Y451612D01*
X977900Y451612D02*
X977900Y437388D01*
X952500Y437388D02*
X952500Y451612D01*
X927100Y451612D02*
X927100Y437388D01*
X901700Y437388D02*
X901700Y451612D01*
X876300Y451612D02*
X876300Y437388D01*
X1282700Y437388D02*
X1282700Y451612D01*
X1257300Y451612D02*
X1257300Y437388D01*
X1231900Y437388D02*
X1231900Y451612D01*
X1206500Y451612D02*
X1206500Y437388D01*
X1181100Y437388D02*
X1181100Y451612D01*
X1155700Y451612D02*
X1155700Y437388D01*
X1130300Y437388D02*
X1130300Y451612D01*
X1104900Y451612D02*
X1104900Y437388D01*
X825500Y437388D02*
X825500Y451612D01*
X800100Y451612D02*
X800100Y437388D01*
X774700Y437388D02*
X774700Y451612D01*
X749300Y451612D02*
X749300Y437388D01*
X723900Y437388D02*
X723900Y451612D01*
X698500Y451612D02*
X698500Y437388D01*
X673100Y437388D02*
X673100Y451612D01*
X647700Y451612D02*
X647700Y437388D01*
X787400Y919988D02*
X787400Y934212D01*
X762000Y934212D02*
X762000Y919988D01*
X736600Y919988D02*
X736600Y934212D01*
X711200Y934212D02*
X711200Y919988D01*
X685800Y919988D02*
X685800Y934212D01*
X660400Y934212D02*
X660400Y919988D01*
X635000Y919988D02*
X635000Y934212D01*
X609600Y934212D02*
X609600Y919988D01*
X584200Y919988D02*
X584200Y934212D01*
X558800Y934212D02*
X558800Y919988D01*
X1231900Y919988D02*
X1231900Y934212D01*
X1206500Y934212D02*
X1206500Y919988D01*
X1181100Y919988D02*
X1181100Y934212D01*
X1155700Y934212D02*
X1155700Y919988D01*
X1130300Y919988D02*
X1130300Y934212D01*
X1104900Y934212D02*
X1104900Y919988D01*
X1079500Y919988D02*
X1079500Y934212D01*
X1054100Y934212D02*
X1054100Y919988D01*
X1003300Y919988D02*
X1003300Y934212D01*
X977900Y934212D02*
X977900Y919988D01*
X952500Y919988D02*
X952500Y934212D01*
X927100Y934212D02*
X927100Y919988D01*
X901700Y919988D02*
X901700Y934212D01*
X876300Y934212D02*
X876300Y919988D01*
X850900Y919988D02*
X850900Y934212D01*
X825500Y934212D02*
X825500Y919988D01*
D14*
X1193800Y655320D02*
X1193800Y640080D01*
X1168400Y640080D02*
X1168400Y655320D01*
X1143000Y655320D02*
X1143000Y640080D01*
X1117600Y640080D02*
X1117600Y655320D01*
X1092200Y655320D02*
X1092200Y640080D01*
X1066800Y640080D02*
X1066800Y655320D01*
X477520Y165100D02*
X462280Y165100D01*
X462280Y139700D02*
X477520Y139700D01*
X477520Y114300D02*
X462280Y114300D01*
X462280Y88900D02*
X477520Y88900D01*
X477520Y63500D02*
X462280Y63500D01*
X462280Y38100D02*
X477520Y38100D01*
X1300480Y495300D02*
X1315720Y495300D01*
X1315720Y520700D02*
X1300480Y520700D01*
X1300480Y546100D02*
X1315720Y546100D01*
X1315720Y571500D02*
X1300480Y571500D01*
X1300480Y596900D02*
X1315720Y596900D01*
X1315720Y622300D02*
X1300480Y622300D01*
X1300480Y647700D02*
X1315720Y647700D01*
X1315720Y673100D02*
X1300480Y673100D01*
X1300480Y698500D02*
X1315720Y698500D01*
X1315720Y723900D02*
X1300480Y723900D01*
X1300480Y749300D02*
X1315720Y749300D01*
X1315720Y774700D02*
X1300480Y774700D01*
X1300480Y800100D02*
X1315720Y800100D01*
X1315720Y825500D02*
X1300480Y825500D01*
X1300480Y850900D02*
X1315720Y850900D01*
X1315720Y876300D02*
X1300480Y876300D01*
X1300480Y901700D02*
X1315720Y901700D01*
X1315720Y927100D02*
X1300480Y927100D01*
D13*
X1054100Y400812D02*
X1054100Y386588D01*
X1028700Y386588D02*
X1028700Y400812D01*
X1003300Y400812D02*
X1003300Y386588D01*
X977900Y386588D02*
X977900Y400812D01*
X952500Y400812D02*
X952500Y386588D01*
X927100Y386588D02*
X927100Y400812D01*
X901700Y400812D02*
X901700Y386588D01*
X876300Y386588D02*
X876300Y400812D01*
X825500Y400812D02*
X825500Y386588D01*
X800100Y386588D02*
X800100Y400812D01*
X774700Y400812D02*
X774700Y386588D01*
X749300Y386588D02*
X749300Y400812D01*
X723900Y400812D02*
X723900Y386588D01*
X698500Y386588D02*
X698500Y400812D01*
X673100Y400812D02*
X673100Y386588D01*
X647700Y386588D02*
X647700Y400812D01*
X1244600Y83312D02*
X1244600Y69088D01*
X1219200Y69088D02*
X1219200Y83312D01*
X1193800Y83312D02*
X1193800Y69088D01*
X1168400Y69088D02*
X1168400Y83312D01*
X1143000Y83312D02*
X1143000Y69088D01*
X1117600Y69088D02*
X1117600Y83312D01*
X1092200Y83312D02*
X1092200Y69088D01*
X1066800Y69088D02*
X1066800Y83312D01*
D14*
X977900Y640080D02*
X977900Y655320D01*
X952500Y655320D02*
X952500Y640080D01*
X927100Y640080D02*
X927100Y655320D01*
X901700Y655320D02*
X901700Y640080D01*
X876300Y640080D02*
X876300Y655320D01*
X850900Y655320D02*
X850900Y640080D01*
X736600Y642620D02*
X736600Y627380D01*
X711200Y627380D02*
X711200Y642620D01*
X685800Y642620D02*
X685800Y627380D01*
X660400Y627380D02*
X660400Y642620D01*
X635000Y642620D02*
X635000Y627380D01*
X609600Y627380D02*
X609600Y642620D01*
X1079500Y172720D02*
X1079500Y157480D01*
X1054100Y157480D02*
X1054100Y172720D01*
X1028700Y172720D02*
X1028700Y157480D01*
X1003300Y157480D02*
X1003300Y172720D01*
X977900Y172720D02*
X977900Y157480D01*
X952500Y157480D02*
X952500Y172720D01*
X952500Y284480D02*
X952500Y299720D01*
X977900Y299720D02*
X977900Y284480D01*
X1003300Y284480D02*
X1003300Y299720D01*
X1028700Y299720D02*
X1028700Y284480D01*
X1054100Y284480D02*
X1054100Y299720D01*
X1079500Y299720D02*
X1079500Y284480D01*
X1333500Y172720D02*
X1333500Y157480D01*
X1308100Y157480D02*
X1308100Y172720D01*
X1282700Y172720D02*
X1282700Y157480D01*
X1257300Y157480D02*
X1257300Y172720D01*
X1231900Y172720D02*
X1231900Y157480D01*
X1206500Y157480D02*
X1206500Y172720D01*
X1206500Y284480D02*
X1206500Y299720D01*
X1231900Y299720D02*
X1231900Y284480D01*
X1257300Y284480D02*
X1257300Y299720D01*
X1282700Y299720D02*
X1282700Y284480D01*
X1308100Y284480D02*
X1308100Y299720D01*
X1333500Y299720D02*
X1333500Y284480D01*
D15*
X1358900Y927100D03*
X1358900Y495300D03*
D16*
X863600Y698500D03*
X863600Y698500D03*
X863600Y698500D03*
X863600Y698500D03*
X863600Y698500D03*
D17*
X863600Y698500D03*
M02*
